<?xml version="1.0" encoding="utf-8"?>
<svg version="1.1" xmlns:xlink="http://www.w3.org/1999/xlink" width="23px" height="24px" xmlns="http://www.w3.org/2000/svg">
  <g transform="matrix(1 0 0 1 -340 -609 )">
    <path d="M 11.5 0  C 17.9400000000002 0  23 5.27999999999975  23 12  C 23 18.7200000000003  17.9400000000002 24  11.5 24  C 5.05999999999983 24  0 18.7200000000003  0 12  C 0 5.27999999999975  5.05999999999983 0  11.5 0  Z M 10.5416666666665 12.9999999999995  C 10.5416666666665 13.5599999999996  10.9633333333333 14.0000000000005  11.5 14.0000000000005  C 12.0366666666667 14.0000000000005  12.4583333333335 13.5599999999996  12.4583333333335 12.9999999999995  C 12.4583333333335 12.4399999999995  12.4583333333335 6.99999999999955  12.4583333333335 6.99999999999955  C 12.4583333333335 6.4399999999996  12.0366666666667 6  11.5 6  C 10.9633333333333 6  10.5416666666665 6.4399999999996  10.5416666666665 6.99999999999955  L 10.5416666666665 12.9999999999995  Z M 11.5 15.9999999999995  C 10.9633333333333 15.9999999999995  10.5416666666665 16.4400000000004  10.5416666666665 17.0000000000005  C 10.5416666666665 17.5600000000004  10.9633333333333 18  11.5 18  C 12.0366666666667 18  12.4583333333335 17.5600000000004  12.4583333333335 17.0000000000005  C 12.4583333333335 16.4400000000004  12.0366666666667 15.9999999999995  11.5 15.9999999999995  Z " fill-rule="nonzero" fill="#999999" stroke="none" transform="matrix(1 0 0 1 340 609 )" />
  </g>
</svg>