<?xml version="1.0" encoding="utf-8"?>
<svg version="1.1" xmlns:xlink="http://www.w3.org/1999/xlink" width="63px" height="34px" xmlns="http://www.w3.org/2000/svg">
  <g transform="matrix(1 0 0 1 -222 -621 )">
    <path d="M 223 624  A 2 2 0 0 1 225 622 L 282 622  A 2 2 0 0 1 284 624 L 284 652  A 2 2 0 0 1 282 654 L 225 654  A 2 2 0 0 1 223 652 L 223 624  Z " fill-rule="nonzero" fill="#ffffff" stroke="none" />
    <path d="M 222.5 624  A 2.5 2.5 0 0 1 225 621.5 L 282 621.5  A 2.5 2.5 0 0 1 284.5 624 L 284.5 652  A 2.5 2.5 0 0 1 282 654.5 L 225 654.5  A 2.5 2.5 0 0 1 222.5 652 L 222.5 624  Z " stroke-width="1" stroke-dasharray="3,1" stroke="#d7d7d7" fill="none" stroke-dashoffset="0.5" />
  </g>
</svg>