<?xml version="1.0" encoding="utf-8"?>
<svg version="1.1" xmlns:xlink="http://www.w3.org/1999/xlink" width="23px" height="29px" xmlns="http://www.w3.org/2000/svg">
  <defs>
    <mask fill="white" id="clip100">
      <path d="M 936.5 1403  C 930.1175 1403  925 1397.8825  925 1391.5  L 925 1385.5  C 925 1379.1175  930.1175 1374  936.5 1374  L 936.5 1374  C 942.8825 1374  948 1379.1175  948 1385.5  L 948 1391.5  C 948 1397.8825  942.8825 1403  936.5 1403  " fill-rule="evenodd" />
    </mask>
  </defs>
  <g transform="matrix(1 0 0 1 -925 -1374 )">
    <path d="M 925 1374  L 948 1374  L 948 1403  L 925 1403  L 925 1374  " fill-rule="nonzero" fill="#cccccc" stroke="none" mask="url(#clip100)" />
    <path d="M 927 1376  L 946 1376  L 946 1401  L 927 1401  L 927 1376  " fill-rule="nonzero" fill="#ffffff" stroke="none" mask="url(#clip100)" />
    <path d="M 938.685 1381.8  C 937.719 1381.8  936.96 1381.041  936.96 1380.075  C 936.96 1379.109  937.719 1378.35  938.685 1378.35  C 939.651 1378.35  940.41 1379.109  940.41 1380.075  C 940.41 1381.041  939.651 1381.8  938.685 1381.8  " fill-rule="nonzero" fill="#cccccc" stroke="none" mask="url(#clip100)" />
    <path d="M 928 1401  L 928 1387.8  L 932.5 1381.8  L 938.8 1386.6  L 942.4 1385.4  L 946 1386.6  L 946 1401  L 928 1401  " fill-rule="nonzero" fill="#169bd5" stroke="none" mask="url(#clip100)" />
  </g>
</svg>