<?xml version="1.0" encoding="utf-8"?>
<svg version="1.1" xmlns:xlink="http://www.w3.org/1999/xlink" width="23px" height="29px" xmlns="http://www.w3.org/2000/svg">
  <defs>
    <mask fill="white" id="clip70">
      <path d="M 1029.5 579  C 1023.1175 579  1018 573.8825  1018 567.5  L 1018 561.5  C 1018 555.1175  1023.1175 550  1029.5 550  L 1029.5 550  C 1035.8825 550  1041 555.1175  1041 561.5  L 1041 567.5  C 1041 573.8825  1035.8825 579  1029.5 579  " fill-rule="evenodd" />
    </mask>
  </defs>
  <g transform="matrix(1 0 0 1 -1018 -550 )">
    <path d="M 1018 550  L 1041 550  L 1041 579  L 1018 579  L 1018 550  " fill-rule="nonzero" fill="#cccccc" stroke="none" mask="url(#clip70)" />
    <path d="M 1020 552  L 1039 552  L 1039 577  L 1020 577  L 1020 552  " fill-rule="nonzero" fill="#ffffff" stroke="none" mask="url(#clip70)" />
    <path d="M 1031.685 557.8  C 1030.719 557.8  1029.96 557.041  1029.96 556.075  C 1029.96 555.109  1030.719 554.35  1031.685 554.35  C 1032.651 554.35  1033.41 555.109  1033.41 556.075  C 1033.41 557.041  1032.651 557.8  1031.685 557.8  " fill-rule="nonzero" fill="#cccccc" stroke="none" mask="url(#clip70)" />
    <path d="M 1021 577  L 1021 563.8  L 1025.5 557.8  L 1031.8 562.6  L 1035.4 561.4  L 1039 562.6  L 1039 577  L 1021 577  " fill-rule="nonzero" fill="#169bd5" stroke="none" mask="url(#clip70)" />
  </g>
</svg>