<?xml version="1.0" encoding="utf-8"?>
<svg version="1.1" xmlns:xlink="http://www.w3.org/1999/xlink" width="22px" height="23px" xmlns="http://www.w3.org/2000/svg">
  <defs>
    <mask fill="white" id="clip290">
      <path d="M 0 10.0600005015353  C 0 12.6721903245884  1.10964107396285 15.0496111816084  2.9252283477008 16.826577144323  L 1.29210016580873 22.1682987343838  L 7.00833218538628 19.3479880677894  C 8.24577376442085 19.7846879671906  9.59199349193659 20.024321420095  11 20.024321420095  C 17.0751322478 20.024321420095  22 15.563142986969  22 10.0600005015353  C 22 4.5568580161017  17.0751322478 0.0956795829756629  11 0.0956795829756629  C 4.92486775220004 0.0956795829756629  0 4.5568580161017  0 10.0600005015353  Z " fill-rule="evenodd" />
    </mask>
  </defs>
  <g transform="matrix(1 0 0 1 -339 -20 )">
    <path d="M 0 10.0600005015353  C 0 12.6721903245884  1.10964107396285 15.0496111816084  2.9252283477008 16.826577144323  L 1.29210016580873 22.1682987343838  L 7.00833218538628 19.3479880677894  C 8.24577376442085 19.7846879671906  9.59199349193659 20.024321420095  11 20.024321420095  C 17.0751322478 20.024321420095  22 15.563142986969  22 10.0600005015353  C 22 4.5568580161017  17.0751322478 0.0956795829756629  11 0.0956795829756629  C 4.92486775220004 0.0956795829756629  0 4.5568580161017  0 10.0600005015353  Z " fill-rule="nonzero" fill="#ffffff" stroke="none" fill-opacity="0" transform="matrix(1 0 0 1 339 20 )" />
    <path d="M 0 10.0600005015353  C 0 12.6721903245884  1.10964107396285 15.0496111816084  2.9252283477008 16.826577144323  L 1.29210016580873 22.1682987343838  L 7.00833218538628 19.3479880677894  C 8.24577376442085 19.7846879671906  9.59199349193659 20.024321420095  11 20.024321420095  C 17.0751322478 20.024321420095  22 15.563142986969  22 10.0600005015353  C 22 4.5568580161017  17.0751322478 0.0956795829756629  11 0.0956795829756629  C 4.92486775220004 0.0956795829756629  0 4.5568580161017  0 10.0600005015353  Z " stroke-width="2" stroke="#ffffff" fill="none" transform="matrix(1 0 0 1 339 20 )" mask="url(#clip290)" />
  </g>
</svg>