<?xml version="1.0" encoding="utf-8"?>
<svg version="1.1" xmlns:xlink="http://www.w3.org/1999/xlink" width="36px" height="36px" xmlns="http://www.w3.org/2000/svg">
  <defs>
    <mask fill="white" id="clip282">
      <path d="M 0 18  C 0 27.9411254964  8.0588745036 36  18 36  C 27.9411254964 36  36 27.9411254964  36 18  C 36 8.0588745036  27.9411254964 0  18 0  C 8.0588745036 0  0 8.0588745036  0 18  Z " fill-rule="evenodd" />
    </mask>
  </defs>
  <g transform="matrix(1 0 0 1 -327 -724 )">
    <path d="M 0 18  C 0 27.9411254964  8.0588745036 36  18 36  C 27.9411254964 36  36 27.9411254964  36 18  C 36 8.0588745036  27.9411254964 0  18 0  C 8.0588745036 0  0 8.0588745036  0 18  Z " fill-rule="nonzero" fill="#ffffff" stroke="none" fill-opacity="0.96078431372549" transform="matrix(1 0 0 1 327 724 )" />
    <path d="M 0 18  C 0 27.9411254964  8.0588745036 36  18 36  C 27.9411254964 36  36 27.9411254964  36 18  C 36 8.0588745036  27.9411254964 0  18 0  C 8.0588745036 0  0 8.0588745036  0 18  Z " stroke-width="2" stroke="#7e7e7e" fill="none" transform="matrix(1 0 0 1 327 724 )" mask="url(#clip282)" />
  </g>
</svg>