<?xml version="1.0" encoding="utf-8"?>
<svg version="1.1" xmlns:xlink="http://www.w3.org/1999/xlink" width="15px" height="8px" xmlns="http://www.w3.org/2000/svg">
  <g transform="matrix(1 0 0 1 -836 -176 )">
    <path d="M 14.8192030327147 7.78777093699603  C 15.0618222227267 7.5472820051707  15.0599445754903 7.15896475970249  14.8154477187541 6.92035543315626  L 7.92755719367647 0.208264412857147  C 7.91756541898883 0.198437776189394  7.90385185592803 0.195371062884874  7.89325656221876 0.186170961310268  C 7.89077537646718 0.183730783098667  7.89013833185428 0.180037553870648  7.8876571461027 0.177597375659161  C 7.64252324475357 -0.0604184064591209  7.24771381815693 -0.0591983077686109  7.00506108306585 0.181290604887181  L 0.180809468890212 6.95471569958227  C -0.0618097211218309 7.19579817583542  -0.0599655994728448 7.58348888621072  0.184564763357281 7.82209821275694  C 0.30617611787604 7.94047956872316  0.465239898783794 8.00000000000045  0.623666615587038 8.00000000000045  C 0.783970979628612 8.00000000000045  0.944878862693743 7.93925948920196  1.0665237622877 7.81843795502448  L 7.45666942132225 1.47685750230278  L 13.9372440337823 7.7914311947286  C 14.058855388303 7.90981255069471  14.2173156306918 7.969332981972  14.376345886014 7.969332981972  C 14.5372537885727 7.969332981972  14.6975581331188 7.90859247117362  14.8192030327147 7.78777093699603  Z " fill-rule="nonzero" fill="#999999" stroke="none" transform="matrix(1 0 0 1 836 176 )" />
  </g>
</svg>