<?xml version="1.0" encoding="utf-8"?>
<svg version="1.1" xmlns:xlink="http://www.w3.org/1999/xlink" width="90px" height="30px" xmlns="http://www.w3.org/2000/svg">
  <g transform="matrix(1 0 0 1 -797 -112 )">
    <path d="M 798 127  A 14 14 0 0 1 812 113 L 872 113  A 14 14 0 0 1 886 127 A 14 14 0 0 1 872 141 L 812 141  A 14 14 0 0 1 798 127 Z " fill-rule="nonzero" fill="#f2f2f2" stroke="none" />
    <path d="M 797.5 127  A 14.5 14.5 0 0 1 812 112.5 L 872 112.5  A 14.5 14.5 0 0 1 886.5 127 A 14.5 14.5 0 0 1 872 141.5 L 812 141.5  A 14.5 14.5 0 0 1 797.5 127 Z " stroke-width="1" stroke="#e4e4e4" fill="none" stroke-opacity="0.498039215686275" />
  </g>
</svg>