<?xml version="1.0" encoding="utf-8"?>
<svg version="1.1" xmlns:xlink="http://www.w3.org/1999/xlink" width="35px" height="33px" xmlns="http://www.w3.org/2000/svg">
  <g transform="matrix(1 0 0 1 -130 -148 )">
    <path d="M 147.5 148  C 157.3 148  165 155.26  165 164.5  C 165 173.74  157.3 181  147.5 181  C 137.7 181  130 173.74  130 164.5  C 130 155.26  137.7 148  147.5 148  Z " fill-rule="nonzero" fill="#ffffff" stroke="none" />
    <path d="M 147.5 148.5  C 157.02 148.5  164.5 155.54  164.5 164.5  C 164.5 173.46  157.02 180.5  147.5 180.5  C 137.98 180.5  130.5 173.46  130.5 164.5  C 130.5 155.54  137.98 148.5  147.5 148.5  Z " stroke-width="1" stroke="#797979" fill="none" />
  </g>
</svg>