<?xml version="1.0" encoding="utf-8"?>
<svg version="1.1" xmlns:xlink="http://www.w3.org/1999/xlink" width="24px" height="26px" xmlns="http://www.w3.org/2000/svg">
  <g transform="matrix(1 0 0 1 -88 -131 )">
    <path d="M 12 24.8392857142857  C 12.1538461538462 24.8392857142857  12.2307692307692 24.7619047619048  12.2307692307692 24.6071428571429  C 12.2307692307692 24.452380952381  12.1538461538462 24.375  12 24.375  C 11.4326923076923 24.375  10.9447115384615 24.1694568452381  10.5360576923077 23.7583705357143  C 10.1274038461538 23.3472842261905  9.92307692307692 22.8563988095238  9.92307692307692 22.2857142857143  C 9.92307692307692 22.1309523809524  9.84615384615385 22.0535714285714  9.69230769230769 22.0535714285714  C 9.53846153846154 22.0535714285714  9.46153846153846 22.1309523809524  9.46153846153846 22.2857142857143  C 9.46153846153846 22.9918154761905  9.70913461538462 23.5939360119048  10.2043269230769 24.0920758928571  C 10.6995192307692 24.5902157738095  11.2980769230769 24.8392857142857  12 24.8392857142857  Z M 6.46153846153846 8.35714285714286  C 6.46153846153846 13.5029761904762  5.18269230769231 17.5267857142857  2.625 20  L 21.375 20  C 18.8173076923077 17.5267857142857  17.5384615384615 13.5029761904762  17.5384615384615 8.35714285714286  C 17.5384615384615 7.86383928571428  17.4230769230769 7.35602678571428  17.1923076923077 6.83370535714286  C 16.9615384615385 6.31138392857143  16.6298076923077 5.81324404761904  16.1971153846154 5.33928571428572  C 15.7644230769231 4.86532738095238  15.1802884615385 4.47600446428572  14.4447115384615 4.17131696428572  C 13.7091346153846 3.86662946428572  12.8942307692308 3.71428571428572  12 3.71428571428572  C 11.1057692307692 3.71428571428572  10.2908653846154 3.86662946428572  9.55528846153846 4.17131696428572  C 8.81971153846154 4.47600446428572  8.23557692307692 4.86532738095238  7.80288461538462 5.33928571428572  C 7.37019230769231 5.81324404761904  7.03846153846154 6.31138392857143  6.80769230769231 6.83370535714286  C 6.57692307692308 7.35602678571428  6.46153846153846 7.86383928571428  6.46153846153846 8.35714285714286  Z M 22.6875 19.1517857142857  C 23.0817307692308 19.5967261904762  23.5192307692308 20.0223214285714  24 20.4285714285714  C 24 20.9315476190476  23.8173076923077 21.3668154761905  23.4519230769231 21.734375  C 23.0865384615385 22.1019345238095  22.6538461538462 22.2857142857143  22.1538461538462 22.2857142857143  L 15.6923076923077 22.2857142857143  C 15.6923076923077 23.3110119047619  15.3317307692308 24.1863839285714  14.6105769230769 24.9118303571429  C 13.8894230769231 25.6372767857143  13.0192307692308 26  12 26  C 10.9807692307692 26  10.1105769230769 25.6372767857143  9.38942307692308 24.9118303571429  C 8.66826923076923 24.1863839285714  8.30769230769231 23.3110119047619  8.30769230769231 22.2857142857143  L 1.84615384615385 22.2857142857143  C 1.34615384615385 22.2857142857143  0.913461538461539 22.1019345238095  0.548076923076923 21.734375  C 0.182692307692308 21.3668154761905  0 20.9315476190476  0 20.4285714285714  C 0.480769230769231 20.0223214285714  0.918269230769231 19.5967261904762  1.3125 19.1517857142857  C 1.70673076923077 18.7068452380952  2.11538461538462 18.12890625  2.53846153846154 17.41796875  C 2.96153846153846 16.70703125  3.31971153846154 15.9404761904762  3.61298076923077 15.1183035714286  C 3.90625 14.296130952381  4.14663461538462 13.2998511904762  4.33413461538462 12.1294642857143  C 4.52163461538462 10.9590773809524  4.61538461538462 9.7016369047619  4.61538461538462 8.35714285714286  C 4.61538461538462 6.88690476190476  5.17788461538462 5.52064732142857  6.30288461538462 4.25837053571428  C 7.42788461538462 2.99609375  8.90384615384615 2.22953869047619  10.7307692307692 1.95870535714286  C 10.6538461538462 1.77492559523809  10.6153846153846 1.58630952380952  10.6153846153846 1.39285714285714  C 10.6153846153846 1.00595238095238  10.75 0.677083333333332  11.0192307692308 0.40625  C 11.2884615384615 0.135416666666668  11.6153846153846 0  12 0  C 12.3846153846154 0  12.7115384615385 0.135416666666668  12.9807692307692 0.40625  C 13.25 0.677083333333332  13.3846153846154 1.00595238095238  13.3846153846154 1.39285714285714  C 13.3846153846154 1.58630952380952  13.3461538461538 1.77492559523809  13.2692307692308 1.95870535714286  C 15.0961538461538 2.22953869047619  16.5721153846154 2.99609375  17.6971153846154 4.25837053571428  C 18.8221153846154 5.52064732142857  19.3846153846154 6.88690476190476  19.3846153846154 8.35714285714286  C 19.3846153846154 9.7016369047619  19.4783653846154 10.9590773809524  19.6658653846154 12.1294642857143  C 19.8533653846154 13.2998511904762  20.09375 14.296130952381  20.3870192307692 15.1183035714286  C 20.6802884615385 15.9404761904762  21.0384615384615 16.70703125  21.4615384615385 17.41796875  C 21.8846153846154 18.12890625  22.2932692307692 18.7068452380952  22.6875 19.1517857142857  Z " fill-rule="nonzero" fill="#a6b4c0" stroke="none" transform="matrix(1 0 0 1 88 131 )" />
  </g>
</svg>