<?xml version="1.0" encoding="utf-8"?>
<svg version="1.1" xmlns:xlink="http://www.w3.org/1999/xlink" width="6px" height="6px" xmlns="http://www.w3.org/2000/svg">
  <defs>
    <mask fill="white" id="clip197">
      <path d="M 0 3  C 0 4.6568542494  1.3431457506 6  3 6  C 4.6568542494 6  6 4.6568542494  6 3  C 6 1.3431457506  4.6568542494 0  3 0  C 1.3431457506 0  0 1.3431457506  0 3  Z " fill-rule="evenodd" />
    </mask>
  </defs>
  <g transform="matrix(1 0 0 1 -131 -510 )">
    <path d="M 0 3  C 0 4.6568542494  1.3431457506 6  3 6  C 4.6568542494 6  6 4.6568542494  6 3  C 6 1.3431457506  4.6568542494 0  3 0  C 1.3431457506 0  0 1.3431457506  0 3  Z " fill-rule="nonzero" fill="#ffffff" stroke="none" transform="matrix(1 0 0 1 131 510 )" />
    <path d="M 0 3  C 0 4.6568542494  1.3431457506 6  3 6  C 4.6568542494 6  6 4.6568542494  6 3  C 6 1.3431457506  4.6568542494 0  3 0  C 1.3431457506 0  0 1.3431457506  0 3  Z " stroke-width="2" stroke="#242424" fill="none" transform="matrix(1 0 0 1 131 510 )" mask="url(#clip197)" />
  </g>
</svg>