<?xml version="1.0" encoding="utf-8"?>
<svg version="1.1" xmlns:xlink="http://www.w3.org/1999/xlink" width="22px" height="17px" xmlns="http://www.w3.org/2000/svg">
  <defs>
    <mask fill="white" id="clip310">
      <path d="M 0 17  L 0 0  L 22 0  L 22 5.90553162917188  L 22 11.3492148435421  L 22 17  L 0 17  Z " fill-rule="evenodd" />
    </mask>
  </defs>
  <g transform="matrix(1 0 0 1 -166 -392 )">
    <path d="M 0 17  L 0 0  L 22 0  L 22 5.90553162917188  L 22 11.3492148435421  L 22 17  L 0 17  Z " fill-rule="nonzero" fill="#ffffff" stroke="none" transform="matrix(1 0 0 1 166 392 )" />
    <path d="M 0 17  L 0 0  L 22 0  L 22 5.90553162917188  L 22 11.3492148435421  L 22 17  L 0 17  Z " stroke-width="2" stroke="#242424" fill="none" transform="matrix(1 0 0 1 166 392 )" mask="url(#clip310)" />
  </g>
</svg>