<?xml version="1.0" encoding="utf-8"?>
<svg version="1.1" xmlns:xlink="http://www.w3.org/1999/xlink" width="25px" height="24px" xmlns="http://www.w3.org/2000/svg">
  <g transform="matrix(1 0 0 1 -708 -713 )">
    <path d="M 24.9467329545455 18.5965909090909  C 24.9822443181818 18.6761363636364  25 18.7954545454545  25 18.9545454545455  C 25 19.2613636363636  24.9408143939394 19.6619318181818  24.8224431818182 20.15625  C 24.704071969697 20.6505681818182  24.5797821969697 21.0397727272727  24.4495738636364 21.3238636363636  C 24.2009943181818 21.8920454545455  23.4789299242424 22.4943181818182  22.2833806818182 23.1306818181818  C 21.1706912878788 23.7102272727273  20.0698390151515 24  18.9808238636364 24  C 18.6612215909091 24  18.3475378787879 23.9801136363636  18.0397727272727 23.9403409090909  C 17.7320075757576 23.9005681818182  17.3916903409091 23.8295454545455  17.0188210227273 23.7272727272727  C 16.6459517045455 23.625  16.3677793560606 23.5426136363636  16.1843039772727 23.4801136363636  C 16.0008285984849 23.4176136363636  15.6723484848485 23.3011363636364  15.1988636363636 23.1306818181818  C 14.7253787878788 22.9602272727273  14.4353693181818 22.8579545454545  14.3288352272727 22.8238636363636  C 13.1687973484849 22.4261363636364  12.1330492424242 21.9545454545455  11.2215909090909 21.4090909090909  C 9.71827651515152 20.5113636363636  8.15577651515152 19.2840909090909  6.53409090909091 17.7272727272727  C 4.9124053030303 16.1704545454545  3.63399621212121 14.6704545454545  2.69886363636364 13.2272727272727  C 2.13068181818182 12.3522727272727  1.63944128787879 11.3579545454545  1.22514204545455 10.2443181818182  C 1.18963068181818 10.1420454545455  1.08309659090909 9.86363636363636  0.905539772727273 9.40909090909091  C 0.727982954545454 8.95454545454545  0.606652462121212 8.63920454545454  0.541548295454546 8.46306818181818  C 0.476444128787879 8.28693181818182  0.390625 8.01988636363636  0.284090909090909 7.66193181818182  C 0.177556818181818 7.30397727272727  0.103574810606061 6.97727272727273  0.0621448863636364 6.68181818181818  C 0.0207149621212121 6.38636363636363  0 6.08522727272727  0 5.77840909090909  C 0 4.73295454545454  0.301846590909091 3.67613636363636  0.905539772727273 2.60795454545455  C 1.56841856060606 1.46022727272727  2.19578598484848 0.767045454545455  2.78764204545455 0.52840909090909  C 3.08357007575758 0.403409090909089  3.48899147727273 0.284090909090907  4.00390625 0.170454545454545  C 4.51882102272727 0.0568181818181808  4.93607954545455 0  5.25568181818182 0  C 5.42140151515152 0  5.54569128787879 0.017045454545455  5.62855113636364 0.0511363636363624  C 5.84161931818182 0.119318181818183  6.15530303030303 0.551136363636363  6.56960227272727 1.34659090909091  C 6.69981060606061 1.5625  6.87736742424243 1.86931818181818  7.10227272727273 2.26704545454546  C 7.32717803030303 2.66477272727273  7.53432765151515 3.02556818181818  7.72372159090909 3.34943181818182  C 7.91311553030303 3.67329545454546  8.09659090909091 3.97727272727273  8.27414772727273 4.26136363636364  C 8.30965909090909 4.30681818181818  8.41323390151515 4.44886363636364  8.58487215909091 4.6875  C 8.75651041666667 4.92613636363636  8.88375946969697 5.12784090909091  8.96661931818182 5.29261363636364  C 9.04947916666667 5.45738636363636  9.09090909090909 5.61931818181818  9.09090909090909 5.77840909090909  C 9.09090909090909 6.00568181818182  8.92223011363636 6.28977272727273  8.58487215909091 6.63068181818182  C 8.24751420454546 6.97159090909091  7.8805634469697 7.28409090909091  7.48401988636364 7.56818181818182  C 7.08747632575758 7.85227272727272  6.72052556818182 8.15340909090909  6.38316761363636 8.47159090909091  C 6.04580965909091 8.78977272727273  5.87713068181818 9.05113636363636  5.87713068181818 9.25568181818182  C 5.87713068181818 9.35795454545455  5.90672348484849 9.48579545454546  5.96590909090909 9.63920454545455  C 6.0250946969697 9.79261363636364  6.07540246212121 9.90909090909091  6.11683238636364 9.98863636363636  C 6.15826231060606 10.0681818181818  6.24112215909091 10.2045454545455  6.36541193181818 10.3977272727273  C 6.48970170454545 10.5909090909091  6.55776515151515 10.6988636363636  6.56960227272727 10.7215909090909  C 7.46922348484848 12.2784090909091  8.49905303030303 13.6136363636364  9.65909090909091 14.7272727272727  C 10.8191287878788 15.8409090909091  12.209990530303 16.8295454545455  13.8316761363636 17.6931818181818  C 13.8553503787879 17.7045454545455  13.967803030303 17.7698863636364  14.1690340909091 17.8892045454545  C 14.3702651515152 18.0085227272727  14.5123106060606 18.0880681818182  14.5951704545455 18.1278409090909  C 14.6780303030303 18.1676136363636  14.7993607954545 18.2159090909091  14.9591619318182 18.2727272727273  C 15.1189630681818 18.3295454545455  15.2521306818182 18.3579545454545  15.3586647727273 18.3579545454545  C 15.5717329545455 18.3579545454545  15.8439867424242 18.1960227272727  16.1754261363636 17.8721590909091  C 16.506865530303 17.5482954545455  16.8205492424242 17.1960227272727  17.1164772727273 16.8153409090909  C 17.4124053030303 16.4346590909091  17.7379261363636 16.0823863636364  18.0930397727273 15.7585227272727  C 18.4481534090909 15.4346590909091  18.7440814393939 15.2727272727273  18.9808238636364 15.2727272727273  C 19.1465435606061 15.2727272727273  19.3152225378788 15.3125  19.4868607954545 15.3920454545455  C 19.6584990530303 15.4715909090909  19.8686079545455 15.59375  20.1171875 15.7585227272727  C 20.3657670454545 15.9232954545455  20.5137310606061 16.0227272727273  20.5610795454545 16.0568181818182  C 20.8570075757576 16.2272727272727  21.1736505681818 16.4034090909091  21.5110085227273 16.5852272727273  C 21.8483664772727 16.7670454545455  22.2241950757576 16.9659090909091  22.6384943181818 17.1818181818182  C 23.0527935606061 17.3977272727273  23.3723958333333 17.5681818181818  23.5973011363636 17.6931818181818  C 24.4258996212121 18.0909090909091  24.8757102272727 18.3920454545455  24.9467329545455 18.5965909090909  Z " fill-rule="nonzero" fill="#333333" stroke="none" transform="matrix(1 0 0 1 708 713 )" />
  </g>
</svg>