<?xml version="1.0" encoding="utf-8"?>
<svg version="1.1" xmlns:xlink="http://www.w3.org/1999/xlink" width="35px" height="33px" xmlns="http://www.w3.org/2000/svg">
  <g transform="matrix(1 0 0 1 -604 -184 )">
    <path d="M 621.5 184  C 631.3 184  639 191.26  639 200.5  C 639 209.74  631.3 217  621.5 217  C 611.7 217  604 209.74  604 200.5  C 604 191.26  611.7 184  621.5 184  Z " fill-rule="nonzero" fill="#ffffff" stroke="none" />
    <path d="M 621.5 184.5  C 631.02 184.5  638.5 191.54  638.5 200.5  C 638.5 209.46  631.02 216.5  621.5 216.5  C 611.98 216.5  604.5 209.46  604.5 200.5  C 604.5 191.54  611.98 184.5  621.5 184.5  Z " stroke-width="1" stroke="#797979" fill="none" />
  </g>
</svg>