<?xml version="1.0" encoding="utf-8"?>
<svg version="1.1" xmlns:xlink="http://www.w3.org/1999/xlink" width="12px" height="12px" viewBox="514 892  12 12" xmlns="http://www.w3.org/2000/svg">
  <path d="M 514.5 897  A 4.5 4.5 0 0 1 519 892.5 L 521 892.5  A 4.5 4.5 0 0 1 525.5 897 L 525.5 899  A 4.5 4.5 0 0 1 521 903.5 L 519 903.5  A 4.5 4.5 0 0 1 514.5 899 L 514.5 897  Z " fill-rule="nonzero" fill="#ffffff" stroke="none" />
  <path d="M 514.5 897  A 4.5 4.5 0 0 1 519 892.5 L 521 892.5  A 4.5 4.5 0 0 1 525.5 897 L 525.5 899  A 4.5 4.5 0 0 1 521 903.5 L 519 903.5  A 4.5 4.5 0 0 1 514.5 899 L 514.5 897  Z " stroke-width="1" stroke="#797979" fill="none" />
  <path d="M 516.571428571429 898  L 519.142857142857 900.571428571429  L 523.428571428571 894.571428571429  " stroke-width="2.57142857142857" stroke="#797979" fill="none" />
</svg>