<?xml version="1.0" encoding="utf-8"?>
<svg version="1.1" xmlns:xlink="http://www.w3.org/1999/xlink" width="12px" height="12px" viewBox="30 53  12 12" xmlns="http://www.w3.org/2000/svg">
  <path d="M 30.5 58  A 4.5 4.5 0 0 1 35 53.5 L 37 53.5  A 4.5 4.5 0 0 1 41.5 58 L 41.5 60  A 4.5 4.5 0 0 1 37 64.5 L 35 64.5  A 4.5 4.5 0 0 1 30.5 60 L 30.5 58  Z " fill-rule="nonzero" fill="#ffffff" stroke="none" />
  <path d="M 30.5 58  A 4.5 4.5 0 0 1 35 53.5 L 37 53.5  A 4.5 4.5 0 0 1 41.5 58 L 41.5 60  A 4.5 4.5 0 0 1 37 64.5 L 35 64.5  A 4.5 4.5 0 0 1 30.5 60 L 30.5 58  Z " stroke-width="1" stroke="#797979" fill="none" />
</svg>