<?xml version="1.0" encoding="utf-8"?>
<svg version="1.1" xmlns:xlink="http://www.w3.org/1999/xlink" width="12px" height="12px" viewBox="959 1787  12 12" xmlns="http://www.w3.org/2000/svg">
  <path d="M 959.5 1792  A 4.5 4.5 0 0 1 964 1787.5 L 966 1787.5  A 4.5 4.5 0 0 1 970.5 1792 L 970.5 1794  A 4.5 4.5 0 0 1 966 1798.5 L 964 1798.5  A 4.5 4.5 0 0 1 959.5 1794 L 959.5 1792  Z " fill-rule="nonzero" fill="#ffffff" stroke="none" />
  <path d="M 959.5 1792  A 4.5 4.5 0 0 1 964 1787.5 L 966 1787.5  A 4.5 4.5 0 0 1 970.5 1792 L 970.5 1794  A 4.5 4.5 0 0 1 966 1798.5 L 964 1798.5  A 4.5 4.5 0 0 1 959.5 1794 L 959.5 1792  Z " stroke-width="1" stroke="#797979" fill="none" />
  <path d="M 961.571428571429 1793  L 964.142857142857 1795.57142857143  L 968.428571428571 1789.57142857143  " stroke-width="2.57142857142857" stroke="#797979" fill="none" />
</svg>