<?xml version="1.0" encoding="utf-8"?>
<svg version="1.1" xmlns:xlink="http://www.w3.org/1999/xlink" width="12px" height="12px" viewBox="959 1796  12 12" xmlns="http://www.w3.org/2000/svg">
  <path d="M 959.5 1801  A 4.5 4.5 0 0 1 964 1796.5 L 966 1796.5  A 4.5 4.5 0 0 1 970.5 1801 L 970.5 1803  A 4.5 4.5 0 0 1 966 1807.5 L 964 1807.5  A 4.5 4.5 0 0 1 959.5 1803 L 959.5 1801  Z " fill-rule="nonzero" fill="#f0f0f0" stroke="none" />
  <path d="M 959.5 1801  A 4.5 4.5 0 0 1 964 1796.5 L 966 1796.5  A 4.5 4.5 0 0 1 970.5 1801 L 970.5 1803  A 4.5 4.5 0 0 1 966 1807.5 L 964 1807.5  A 4.5 4.5 0 0 1 959.5 1803 L 959.5 1801  Z " stroke-width="1" stroke="#797979" fill="none" />
</svg>