<?xml version="1.0" encoding="utf-8"?>
<svg version="1.1" xmlns:xlink="http://www.w3.org/1999/xlink" width="12px" height="12px" viewBox="1342 887  12 12" xmlns="http://www.w3.org/2000/svg">
  <path d="M 1342.5 892  A 4.5 4.5 0 0 1 1347 887.5 L 1349 887.5  A 4.5 4.5 0 0 1 1353.5 892 L 1353.5 894  A 4.5 4.5 0 0 1 1349 898.5 L 1347 898.5  A 4.5 4.5 0 0 1 1342.5 894 L 1342.5 892  Z " fill-rule="nonzero" fill="#f0f0f0" stroke="none" />
  <path d="M 1342.5 892  A 4.5 4.5 0 0 1 1347 887.5 L 1349 887.5  A 4.5 4.5 0 0 1 1353.5 892 L 1353.5 894  A 4.5 4.5 0 0 1 1349 898.5 L 1347 898.5  A 4.5 4.5 0 0 1 1342.5 894 L 1342.5 892  Z " stroke-width="1" stroke="#797979" fill="none" />
</svg>