<?xml version="1.0" encoding="utf-8"?>
<svg version="1.1" xmlns:xlink="http://www.w3.org/1999/xlink" width="12px" height="12px" viewBox="371 1073  12 12" xmlns="http://www.w3.org/2000/svg">
  <path d="M 377 1073  C 380.36 1073  383 1075.64  383 1079  C 383 1082.36  380.36 1085  377 1085  C 373.64 1085  371 1082.36  371 1079  C 371 1075.64  373.64 1073  377 1073  Z " fill-rule="nonzero" fill="#ffffff" stroke="none" />
  <path d="M 377 1073.5  C 380.08 1073.5  382.5 1075.92  382.5 1079  C 382.5 1082.08  380.08 1084.5  377 1084.5  C 373.92 1084.5  371.5 1082.08  371.5 1079  C 371.5 1075.92  373.92 1073.5  377 1073.5  Z " stroke-width="1" stroke="#797979" fill="none" />
  <path d="M 377 1082  C 375.32 1082  374 1080.68  374 1079  C 374 1077.32  375.32 1076  377 1076  C 378.68 1076  380 1077.32  380 1079  C 380 1080.68  378.68 1082  377 1082  " fill-rule="nonzero" fill="#797979" stroke="none" />
</svg>