<?xml version="1.0" encoding="utf-8"?>
<svg version="1.1" xmlns:xlink="http://www.w3.org/1999/xlink" width="12px" height="12px" viewBox="1571 910  12 12" xmlns="http://www.w3.org/2000/svg">
  <path d="M 1577 910  C 1580.36 910  1583 912.64  1583 916  C 1583 919.36  1580.36 922  1577 922  C 1573.64 922  1571 919.36  1571 916  C 1571 912.64  1573.64 910  1577 910  Z " fill-rule="nonzero" fill="#ffffff" stroke="none" />
  <path d="M 1577 910.5  C 1580.08 910.5  1582.5 912.92  1582.5 916  C 1582.5 919.08  1580.08 921.5  1577 921.5  C 1573.92 921.5  1571.5 919.08  1571.5 916  C 1571.5 912.92  1573.92 910.5  1577 910.5  Z " stroke-width="1" stroke="#797979" fill="none" />
  <path d="M 1577 919  C 1575.32 919  1574 917.68  1574 916  C 1574 914.32  1575.32 913  1577 913  C 1578.68 913  1580 914.32  1580 916  C 1580 917.68  1578.68 919  1577 919  " fill-rule="nonzero" fill="#797979" stroke="none" />
</svg>