<?xml version="1.0" encoding="utf-8"?>
<svg version="1.1" xmlns:xlink="http://www.w3.org/1999/xlink" width="12px" height="12px" viewBox="371 1147  12 12" xmlns="http://www.w3.org/2000/svg">
  <path d="M 377 1147  C 380.36 1147  383 1149.64  383 1153  C 383 1156.36  380.36 1159  377 1159  C 373.64 1159  371 1156.36  371 1153  C 371 1149.64  373.64 1147  377 1147  Z " fill-rule="nonzero" fill="#ffffff" stroke="none" />
  <path d="M 377 1147.5  C 380.08 1147.5  382.5 1149.92  382.5 1153  C 382.5 1156.08  380.08 1158.5  377 1158.5  C 373.92 1158.5  371.5 1156.08  371.5 1153  C 371.5 1149.92  373.92 1147.5  377 1147.5  Z " stroke-width="1" stroke="#797979" fill="none" />
  <path d="M 377 1156  C 375.32 1156  374 1154.68  374 1153  C 374 1151.32  375.32 1150  377 1150  C 378.68 1150  380 1151.32  380 1153  C 380 1154.68  378.68 1156  377 1156  " fill-rule="nonzero" fill="#797979" stroke="none" />
</svg>