<?xml version="1.0" encoding="utf-8"?>
<svg version="1.1" xmlns:xlink="http://www.w3.org/1999/xlink" width="12px" height="12px" viewBox="372 1035  12 12" xmlns="http://www.w3.org/2000/svg">
  <path d="M 378 1035  C 381.36 1035  384 1037.64  384 1041  C 384 1044.36  381.36 1047  378 1047  C 374.64 1047  372 1044.36  372 1041  C 372 1037.64  374.64 1035  378 1035  Z " fill-rule="nonzero" fill="#ffffff" stroke="none" />
  <path d="M 378 1035.5  C 381.08 1035.5  383.5 1037.92  383.5 1041  C 383.5 1044.08  381.08 1046.5  378 1046.5  C 374.92 1046.5  372.5 1044.08  372.5 1041  C 372.5 1037.92  374.92 1035.5  378 1035.5  Z " stroke-width="1" stroke="#797979" fill="none" />
  <path d="M 378 1044  C 376.32 1044  375 1042.68  375 1041  C 375 1039.32  376.32 1038  378 1038  C 379.68 1038  381 1039.32  381 1041  C 381 1042.68  379.68 1044  378 1044  " fill-rule="nonzero" fill="#797979" stroke="none" />
</svg>