<?xml version="1.0" encoding="utf-8"?>
<svg version="1.1" xmlns:xlink="http://www.w3.org/1999/xlink" width="12px" height="12px" viewBox="1572 835  12 12" xmlns="http://www.w3.org/2000/svg">
  <path d="M 1578 835  C 1581.36 835  1584 837.64  1584 841  C 1584 844.36  1581.36 847  1578 847  C 1574.64 847  1572 844.36  1572 841  C 1572 837.64  1574.64 835  1578 835  Z " fill-rule="nonzero" fill="#ffffff" stroke="none" />
  <path d="M 1578 835.5  C 1581.08 835.5  1583.5 837.92  1583.5 841  C 1583.5 844.08  1581.08 846.5  1578 846.5  C 1574.92 846.5  1572.5 844.08  1572.5 841  C 1572.5 837.92  1574.92 835.5  1578 835.5  Z " stroke-width="1" stroke="#797979" fill="none" />
  <path d="M 1578 844  C 1576.32 844  1575 842.68  1575 841  C 1575 839.32  1576.32 838  1578 838  C 1579.68 838  1581 839.32  1581 841  C 1581 842.68  1579.68 844  1578 844  " fill-rule="nonzero" fill="#797979" stroke="none" />
</svg>