<?xml version="1.0" encoding="utf-8"?>
<svg version="1.1" xmlns:xlink="http://www.w3.org/1999/xlink" width="12px" height="12px" viewBox="1571 873  12 12" xmlns="http://www.w3.org/2000/svg">
  <path d="M 1577 873  C 1580.36 873  1583 875.64  1583 879  C 1583 882.36  1580.36 885  1577 885  C 1573.64 885  1571 882.36  1571 879  C 1571 875.64  1573.64 873  1577 873  Z " fill-rule="nonzero" fill="#ffffff" stroke="none" />
  <path d="M 1577 873.5  C 1580.08 873.5  1582.5 875.92  1582.5 879  C 1582.5 882.08  1580.08 884.5  1577 884.5  C 1573.92 884.5  1571.5 882.08  1571.5 879  C 1571.5 875.92  1573.92 873.5  1577 873.5  Z " stroke-width="1" stroke="#797979" fill="none" />
  <path d="M 1577 882  C 1575.32 882  1574 880.68  1574 879  C 1574 877.32  1575.32 876  1577 876  C 1578.68 876  1580 877.32  1580 879  C 1580 880.68  1578.68 882  1577 882  " fill-rule="nonzero" fill="#797979" stroke="none" />
</svg>