<?xml version="1.0" encoding="utf-8"?>
<svg version="1.1" xmlns:xlink="http://www.w3.org/1999/xlink" width="38px" height="36px" xmlns="http://www.w3.org/2000/svg">
  <g transform="matrix(1 0 0 1 -369 -174 )">
    <path d="M 388 174  C 398.64 174  407 181.92  407 192  C 407 202.08  398.64 210  388 210  C 377.36 210  369 202.08  369 192  C 369 181.92  377.36 174  388 174  Z " fill-rule="nonzero" fill="#d7d7d7" stroke="none" />
    <path d="M 388 174.5  C 398.36 174.5  406.5 182.2  406.5 192  C 406.5 201.8  398.36 209.5  388 209.5  C 377.64 209.5  369.5 201.8  369.5 192  C 369.5 182.2  377.64 174.5  388 174.5  Z " stroke-width="1" stroke="#d7d7d7" fill="none" />
  </g>
</svg>