<?xml version="1.0" encoding="utf-8"?>
<svg version="1.1" xmlns:xlink="http://www.w3.org/1999/xlink" width="12px" height="12px" viewBox="1571 987  12 12" xmlns="http://www.w3.org/2000/svg">
  <path d="M 1577 987  C 1580.36 987  1583 989.64  1583 993  C 1583 996.36  1580.36 999  1577 999  C 1573.64 999  1571 996.36  1571 993  C 1571 989.64  1573.64 987  1577 987  Z " fill-rule="nonzero" fill="#ffffff" stroke="none" />
  <path d="M 1577 987.5  C 1580.08 987.5  1582.5 989.92  1582.5 993  C 1582.5 996.08  1580.08 998.5  1577 998.5  C 1573.92 998.5  1571.5 996.08  1571.5 993  C 1571.5 989.92  1573.92 987.5  1577 987.5  Z " stroke-width="1" stroke="#797979" fill="none" />
  <path d="M 1577 996  C 1575.32 996  1574 994.68  1574 993  C 1574 991.32  1575.32 990  1577 990  C 1578.68 990  1580 991.32  1580 993  C 1580 994.68  1578.68 996  1577 996  " fill-rule="nonzero" fill="#797979" stroke="none" />
</svg>