<?xml version="1.0" encoding="utf-8"?>
<svg version="1.1" xmlns:xlink="http://www.w3.org/1999/xlink" width="26px" height="26px" xmlns="http://www.w3.org/2000/svg">
  <g transform="matrix(1 0 0 1 -400 -185 )">
    <path d="M 25.7793626433149 12.9636183082062  C 25.7547169811321 10.006138846258  24.768890493816 7.29511600613887  23.0929854653787 5.12629773404353  C 25.2864493996569 1.97165297463209  25.0646384400109 0.961180825133169  24.4977882098041 0.39433059492643  C 23.9062923174145 -0.197165297463187  22.8711745057326 -0.418976257109307  19.519364448858 1.94700731244922  C 17.5970027985917 0.78866118985286  15.3296018777647 0.123228310914499  12.9389726460233 0.123228310914499  C 5.86566759953052 0.123228310914499  0.123228310914556 5.86566759953058  0.123228310914556 12.9389726460233  C 0.123228310914556 15.3542475399477  0.78866118985286 17.5970027985917  1.94700731244927 19.519364448858  C -0.418976257109307 22.8711745057326  -0.197165297463243 23.9062923174145  0.394330594926373 24.4977882098041  C 0.61614155457255 24.7195991694502  0.911889500767302 24.8921188047305  1.35551142005954 24.8921188047305  C 2.07023562336371 24.8921188047305  3.20393608377719 24.4484968854383  5.15094339622647 23.1176311275616  C 7.3197616683218 24.768890493816  10.006138846258 25.779362643315  12.9636183082062 25.779362643315  C 20.036923354699 25.779362643315  25.7793626433149 20.0369233546989  25.7793626433149 12.9636183082062  Z M 21.0473955041979 2.98212512413107  C 21.9099936805994 2.41527489392433  22.6000722217207 2.0209442989979  23.0436941410129 1.84842466371759  C 22.8711745057326 2.29204658300984  22.501489572989 2.93283379976526  21.9346393427824 3.79543197616681  C 21.6388913965875 3.52432969215494  21.3431434503927 3.253227408143  21.0473955041979 2.98212512413107  Z M 5.6685023020674 7.86196623634561  C 5.6685023020674 6.72826577593213  6.5803918028347 5.81637627516477  7.71409226324818 5.81637627516477  C 8.84779272366166 5.81637627516477  9.73503656224614 6.72826577593213  9.73503656224614 7.86196623634561  C 9.73503656224614 8.99566669675903  8.82314706147872 9.90755619752639  7.71409226324818 9.90755619752639  C 6.5803918028347 9.90755619752639  5.6685023020674 8.99566669675903  5.6685023020674 7.86196623634561  Z M 1.87307032590047 23.01904847883  C 2.02094429899796 22.6000722217207  2.41527489392433 21.9099936805994  3.00677078631395 21.022749842015  C 3.25322740814295 21.3431434503927  3.52432969215488 21.6388913965875  3.82007763834974 21.9099936805994  C 2.9574794619482 22.4768439108062  2.31669224519271 22.8465288435497  1.87307032590047 23.01904847883  Z M 17.6462941229574 15.255664891216  C 17.6462941229574 17.1533808792994  16.1182630676176 18.7060575968222  14.1959014173513 18.7060575968222  C 12.2981854292678 18.7060575968222  10.7455087117451 17.1533808792994  10.7455087117451 15.255664891216  C 10.7455087117451 13.3579489031326  12.2981854292678 11.8052721856099  14.1959014173513 11.8052721856099  C 16.0936174054347 11.8052721856099  17.6462941229574 13.3579489031326  17.6462941229574 15.255664891216  Z " fill-rule="nonzero" fill="#ffffff" stroke="none" transform="matrix(1 0 0 1 400 185 )" />
  </g>
</svg>