<?xml version="1.0" encoding="utf-8"?>
<svg version="1.1" xmlns:xlink="http://www.w3.org/1999/xlink" width="30px" height="26px" xmlns="http://www.w3.org/2000/svg">
  <g transform="matrix(1 0 0 1 -398 -27 )">
    <path d="M 29.0388393430478 9.94458959620785  L 26.8100529325843 3.45918571594099  L 2.29945136130618 3.45918571594099  L 0.0713515726826017 9.94458959620785  C 0.0713515726826017 11.9433204020365  1.69249820014051 13.5641400301966  3.69243878195226 13.5641400301966  C 5.69175811622188 13.5641400301966  7.31352599122192 11.9445628651685  7.31352595926961 9.94458959620785  C 7.31352595926961 11.9433204020365  8.9346398676264 13.5641400301966  10.9339919209972 13.5641400301966  C 12.9333439424158 13.5641400301966  14.5550791302668 11.9445628651685  14.5550790983146 9.94458959620785  C 14.5550790983146 11.9433204020365  16.1761930066714 13.5641400301966  18.1761663075843 13.5641400301966  C 20.1755183290027 13.5641400301966  21.7972535168539 11.9445628651685  21.7972535168539 9.94458959620785  C 21.7972535168539 11.9433204020365  23.4183674252107 13.5641400301966  25.4177521657303 13.5641400301966  C 27.417725434691 13.5641400301966  29.038839375 11.9445628651685  29.0388393430478 9.94458959620785  Z M 3.41323966257022 1.23167448771066  C 3.41323966257022 1.83624078405897  4.01224748209268 2.32453675105337  4.75021722226126 2.32453675105337  L 24.3599409743679 2.32453675105337  C 25.0979434336377 2.32453675105337  25.6969512531601 1.8352925372191  25.6969512531601 1.23167448771066  C 25.6969512531601 0.628089125351138  25.0979761527387 0.137929383778086  24.3599409743679 0.137929383778086  L 4.75021722226126 0.137929383778086  C 4.01224745014048 0.137929383778086  3.41323966257022 0.627140878511227  3.41323966257022 1.23167448771066  Z M 25.4170655119382 15.1665186106039  C 24.0585733539326 15.1665186106039  22.7794039596208 14.6609913398876  21.7966322693118 13.7397225811095  C 20.8138605790028 14.6609913398876  19.5359009606742 15.1658973950141  18.1761336204354 15.1658973630618  C 16.8163662801966 15.1658973311095  15.5371968858848 14.6609913398876  14.5550464111658 13.7397225811095  C 13.5716861604635 14.6609913398876  12.293693854986 15.1658973950141  10.9339592338483 15.1658973630618  C 9.57422461271068 15.1658973311095  8.29505518644663 14.6609913398876  7.31287202457867 13.7397225811095  C 6.32951177387639 14.6609913398876  5.05151946839896 15.1658973950141  3.69178481530901 15.1658973630618  C 3.59830429845505 15.1658973630618  3.50544499719103 15.163739372191  3.41320697542136 15.1591291102528  L 3.41320697542136 23.1414639789326  C 3.41320697542136 24.4717059729635  4.61305360603939 25.3283983135534  5.6413394511938 25  L 23.4675763142556 25  C 24.8100796636236 25.3283983135534  25.6962973184691 24.3357848198736  25.6962973184691 23.1414639789326  L 25.6962973184691 15.1591291102528  C 25.6034053300562 15.163739372191  25.5105460287921 15.1665186106039  25.4170655119382 15.1665186106039  Z " fill-rule="nonzero" fill="#ffffff" stroke="none" transform="matrix(1 0 0 1 398 27 )" />
  </g>
</svg>