<?xml version="1.0" encoding="utf-8"?>
<svg version="1.1" xmlns:xlink="http://www.w3.org/1999/xlink" width="41px" height="40px" xmlns="http://www.w3.org/2000/svg">
  <defs>
    <filter x="229px" y="66px" width="41px" height="40px" filterUnits="userSpaceOnUse" id="filter11">
      <feOffset dx="1" dy="1" in="SourceAlpha" result="shadowOffsetInner" />
      <feGaussianBlur stdDeviation="2.5" in="shadowOffsetInner" result="shadowGaussian" />
      <feComposite in2="shadowGaussian" operator="atop" in="SourceAlpha" result="shadowComposite" />
      <feColorMatrix type="matrix" values="0 0 0 0 0  0 0 0 0 0  0 0 0 0 0  0 0 0 0.698039215686274 0  " in="shadowComposite" />
    </filter>
    <g id="widget12">
      <path d="M 248.5 70  C 257.18 70  264 76.6  264 85  C 264 93.4  257.18 100  248.5 100  C 239.82 100  233 93.4  233 85  C 233 76.6  239.82 70  248.5 70  Z " fill-rule="nonzero" fill="#ff6600" stroke="none" />
      <path d="M 248.5 70.5  C 256.9 70.5  263.5 76.88  263.5 85  C 263.5 93.12  256.9 99.5  248.5 99.5  C 240.1 99.5  233.5 93.12  233.5 85  C 233.5 76.88  240.1 70.5  248.5 70.5  Z " stroke-width="1" stroke="#ffffff" fill="none" />
    </g>
  </defs>
  <g transform="matrix(1 0 0 1 -229 -66 )">
    <use xlink:href="#widget12" filter="url(#filter11)" />
    <use xlink:href="#widget12" />
  </g>
</svg>