<?xml version="1.0" encoding="utf-8"?>
<svg version="1.1" xmlns:xlink="http://www.w3.org/1999/xlink" width="40px" height="40px" xmlns="http://www.w3.org/2000/svg">
  <defs>
    <filter x="2420px" y="266px" width="40px" height="40px" filterUnits="userSpaceOnUse" id="filter154">
      <feOffset dx="1" dy="1" in="SourceAlpha" result="shadowOffsetInner" />
      <feGaussianBlur stdDeviation="2.5" in="shadowOffsetInner" result="shadowGaussian" />
      <feComposite in2="shadowGaussian" operator="atop" in="SourceAlpha" result="shadowComposite" />
      <feColorMatrix type="matrix" values="0 0 0 0 0  0 0 0 0 0  0 0 0 0 0  0 0 0 0.698039215686274 0  " in="shadowComposite" />
    </filter>
    <g id="widget155">
      <path d="M 2439 270  C 2447.4 270  2454 276.6  2454 285  C 2454 293.4  2447.4 300  2439 300  C 2430.6 300  2424 293.4  2424 285  C 2424 276.6  2430.6 270  2439 270  Z " fill-rule="nonzero" fill="#ff6600" stroke="none" />
      <path d="M 2439 270.5  C 2447.12 270.5  2453.5 276.88  2453.5 285  C 2453.5 293.12  2447.12 299.5  2439 299.5  C 2430.88 299.5  2424.5 293.12  2424.5 285  C 2424.5 276.88  2430.88 270.5  2439 270.5  Z " stroke-width="1" stroke="#ffffff" fill="none" />
    </g>
  </defs>
  <g transform="matrix(1 0 0 1 -2420 -266 )">
    <use xlink:href="#widget155" filter="url(#filter154)" />
    <use xlink:href="#widget155" />
  </g>
</svg>