<?xml version="1.0" encoding="utf-8"?>
<svg version="1.1" xmlns:xlink="http://www.w3.org/1999/xlink" width="195px" height="185px" xmlns="http://www.w3.org/2000/svg">
  <g transform="matrix(1 0 0 1 -161 -216 )">
    <path d="M 194.847379794706 70.6618044300378  L 97.7998379254457 0.199891950297137  L 97.5 0  L 0.552404105888714 70.4619124797407  L 0.252566180443012 70.6618044300378  L 37.4324689357104 185  L 157.667477039438 185  L 194.847379794706 70.6618044300378  Z M 193.14829821718 70.6618044300378  L 170.060777957861 78.1577525661804  L 98 25.7860615883306  L 98 1.59913560237709  L 193.14829821718 70.6618044300378  Z M 74.7123176661264 95.4484062668828  L 96.7004321988115 102.544570502431  L 83.1077795786062 121.334413830362  L 74.7123176661264 95.4484062668828  Z M 97 101.645056726094  L 74.9122096164236 94.4489465153971  L 97 78.4575904916261  L 97 101.645056726094  Z M 83.9073473797947 122  L 97.5 103.144246353323  L 111.092652620205 122  L 83.9073473797947 122  Z M 111.992166396542 121.334413830362  L 98.2995678011886 102.544570502431  L 120.387628309022 95.3484602917342  L 111.992166396542 121.334413830362  Z M 120.087790383576 94.4489465153971  L 98 101.645056726094  L 98 78.4575904916261  L 120.087790383576 94.4489465153971  Z M 97 50.6726094003241  L 97 77.1582928146947  L 73.8128038897893 94.0491626148028  L 48.7263641274986 85.8535926526202  L 97 50.6726094003241  Z M 48.426526202053 86.8530524041059  L 73.5129659643436 95.0486223662885  L 82.4081577525662 122.333873581848  L 66.9165316045381 143.722312263641  L 48.426526202053 86.8530524041059  Z M 67.7160994057266 144  L 83.1077795786062 123  L 111.792274446245 123  L 127.283900594273 144  L 67.7160994057266 144  Z M 128.183414370611 143.622366288493  L 112.691788222582 122.333873581848  L 121.586980010805 95.0486223662885  L 146.673419773096 86.8530524041059  L 128.183414370611 143.622366288493  Z M 146.37358184765 85.9535386277688  L 121.287142085359 94.0491626148028  L 98 77.1582928146947  L 98 50.7725553754727  L 146.37358184765 85.9535386277688  Z M 97 26.8854673149649  L 97 49.4732576985413  L 47.4270664505673 85.4538087520259  L 26.0386277687736 78.4575904916261  L 97 26.8854673149649  Z M 25.7387898433279 79.4570502431118  L 47.2271745002701 86.4532685035116  L 66.1169638033496 144.621826039978  L 52.82414910859 162.911939492166  L 25.7387898433279 79.4570502431118  Z M 53.7236628849271 163  L 66.9165316045381 145  L 128.083468395462 145  L 141.376283090222 163  L 53.7236628849271 163  Z M 142.075904916261 162.911939492166  L 128.88303619665 144.621826039978  L 147.77282549973 86.4532685035116  L 169.161264181524 79.5569962182604  L 142.075904916261 162.911939492166  Z M 168.861426256078 78.4575904916261  L 147.572933549433 85.4538087520259  L 98 49.4732576985413  L 98 26.9854132901134  L 168.861426256078 78.4575904916261  Z M 97 1.59913560237709  L 97 25.6861156131821  L 24.8392760669908 78.1577525661804  L 1.85170178282011 70.6618044300378  L 97 1.59913560237709  Z M 1.65180983252297 71.6612641815235  L 24.5394381415451 79.0572663425175  L 52.12452728255 163.911399243652  L 37.9321988114533 183.400864397623  L 1.65180983252297 71.6612641815235  Z M 38.7317666126418 184  L 52.9240950837385 164  L 142.075904916261 164  L 156.268233387358 184  L 38.7317666126418 184  Z M 157.167747163695 183.500810372771  L 142.87547271745 163.811453268503  L 170.360615883306 79.1572123176661  L 193.448136142626 71.6612641815235  L 157.167747163695 183.500810372771  Z " fill-rule="nonzero" fill="#f2f2f2" stroke="none" transform="matrix(1 0 0 1 161 216 )" />
  </g>
</svg>