<?xml version="1.0" encoding="utf-8"?>
<svg version="1.1" xmlns:xlink="http://www.w3.org/1999/xlink" width="112px" height="150px" xmlns="http://www.w3.org/2000/svg">
  <defs>
    <mask fill="white" id="clip89">
      <path d="M 0.428571428571416 32.75  L 58.4285714285714 0  L 104.25 40.75  L 112 97.75  L 58.4285714285714 149.75  L 0.428571428571416 99.5  L 0.428571428571416 32.75  Z " fill-rule="evenodd" />
    </mask>
  </defs>
  <g transform="matrix(1 0 0 1 -200 -642 )">
    <path d="M 0.428571428571416 32.75  L 58.4285714285714 0  L 104.25 40.75  L 112 97.75  L 58.4285714285714 149.75  L 0.428571428571416 99.5  L 0.428571428571416 32.75  Z " fill-rule="nonzero" fill="#0066ff" stroke="none" fill-opacity="0.247058823529412" transform="matrix(1 0 0 1 200 642 )" />
    <path d="M 0.428571428571416 32.75  L 58.4285714285714 0  L 104.25 40.75  L 112 97.75  L 58.4285714285714 149.75  L 0.428571428571416 99.5  L 0.428571428571416 32.75  Z " stroke-width="2" stroke="#0066ff" fill="none" stroke-opacity="0.498039215686275" transform="matrix(1 0 0 1 200 642 )" mask="url(#clip89)" />
  </g>
</svg>