<?xml version="1.0" encoding="utf-8"?>
<svg version="1.1" xmlns:xlink="http://www.w3.org/1999/xlink" width="177px" height="205px" xmlns="http://www.w3.org/2000/svg">
  <g transform="matrix(1 0 0 1 -170 -606 )">
    <path d="M 177 51.3577878103838  L 88.6997742663657 0.415349887133175  L 88.5 0.315462753950328  L 0.29966139954854 51.2579006772009  L 0 51.3577878103838  L 0 153.542325056433  L 88.2003386004515 204.484762979684  L 88.5 204.584650112867  L 176.700338600451 153.642212189616  L 177 153.542325056433  L 177 51.3577878103838  Z M 175.501693002257 51.6574492099322  L 154.425507900677 63.8436794582393  L 89 25.9864559819413  L 89 1.71388261851018  L 175.501693002257 51.6574492099322  Z M 68 90.9130925507901  L 87.5011286681715 102.5  L 68 114.08690744921  L 68 90.9130925507901  Z M 88 101.601015801354  L 67.9232505643341 90.1139954853273  L 88 78.5270880361174  L 88 101.601015801354  Z M 68.0231376975169 114.886004514673  L 88 103.398984198646  L 88 126.472911963883  L 68.0231376975169 114.886004514673  Z M 89 126.572799097065  L 89 103.398984198646  L 108.976862302483 114.985891647856  L 89 126.572799097065  Z M 109 113.987020316027  L 89.4988713318285 102.5  L 109 90.9130925507901  L 109 113.987020316027  Z M 108.976862302483 90.1139954853273  L 89 101.601015801354  L 89 78.5270880361173  L 108.976862302483 90.1139954853273  Z M 88 50.8583521444696  L 88 77.3284424379233  L 66.9243792325057 89.5146726862303  L 44.0502257336343 76.229683972912  L 88 50.8583521444696  Z M 44 77.1286681715576  L 67 90.313769751693  L 67 114.586343115124  L 44 127.77144469526  L 44 77.1286681715576  Z M 44.0502257336343 128.670428893905  L 66.9243792325057 115.48532731377  L 88 127.671557562077  L 88 154.041760722348  L 44.0502257336343 128.670428893905  Z M 89 154.041760722348  L 89 127.671557562077  L 109.975733634311 115.48532731377  L 132.849887133183 128.670428893905  L 89 154.041760722348  Z M 133 127.871331828442  L 110 114.586343115124  L 110 90.313769751693  L 133 77.1286681715576  L 133 127.871331828442  Z M 132.949774266366 76.229683972912  L 109.975733634311 89.5146726862303  L 89 77.4283295711061  L 89 50.8583521444696  L 132.949774266366 76.229683972912  Z M 88 27.0852144469526  L 88 49.7595936794582  L 43.0513544018059 75.7302483069977  L 23.4734762979684 64.3431151241535  L 88 27.0852144469526  Z M 23 65.242099322799  L 43 76.5293453724605  L 43 128.370767494357  L 23 139.757900677201  L 23 65.242099322799  Z M 23.3735891647856 140.656884875846  L 43.0513544018059 129.269751693002  L 88 155.240406320542  L 88 177.914785553047  L 23.3735891647856 140.656884875846  Z M 89 177.814898419865  L 89 155.240406320542  L 133.848758465011 129.269751693002  L 153.426636568849 140.556997742664  L 133.613875276628 152.014610086847  L 89 177.814898419865  Z M 154 139.658013544018  L 134 128.470654627539  L 134 76.5293453724605  L 154 65.242099322799  L 154 139.658013544018  Z M 153.426636568849 64.4430022573363  L 133.948645598194 75.6303611738149  L 89 49.6597065462754  L 89 27.1851015801354  L 153.426636568849 64.4430022573363  Z M 88 1.81376975169303  L 88 25.9864559819413  L 22.47460496614 63.8436794582393  L 1.49830699774267 51.7573363431151  L 88 1.81376975169303  Z M 1 52.5564334085778  L 22 64.6427765237021  L 22 140.357223476298  L 1 152.443566591422  L 1 52.5564334085778  Z M 1.49830699774267 153.342550790068  L 22.47460496614 141.156320541761  L 88 179.013544018059  L 88 203.28611738149  L 1.49830699774267 153.342550790068  Z M 89 203.28611738149  L 89 178.913656884876  L 154.425507900677 141.156320541761  L 175.501693002257 153.342550790068  L 89 203.28611738149  Z M 176 152.443566591422  L 155 140.257336343115  L 155 64.7426636568849  L 176 52.5564334085778  L 176 152.443566591422  Z " fill-rule="nonzero" fill="#f2f2f2" stroke="none" transform="matrix(1 0 0 1 170 606 )" />
  </g>
</svg>