<?xml version="1.0" encoding="utf-8"?>
<svg version="1.1" xmlns:xlink="http://www.w3.org/1999/xlink" width="131px" height="132px" xmlns="http://www.w3.org/2000/svg">
  <defs>
    <mask fill="white" id="clip90">
      <path d="M 27.5 54.25  L 72.75 0.75  L 130.5 45.75  L 116.75 106  L 72.75 131.5  L 0.25 122  L 27.5 54.25  Z " fill-rule="evenodd" />
    </mask>
  </defs>
  <g transform="matrix(1 0 0 1 -186 -628 )">
    <path d="M 27.5 54.25  L 72.75 0.75  L 130.5 45.75  L 116.75 106  L 72.75 131.5  L 0.25 122  L 27.5 54.25  Z " fill-rule="nonzero" fill="#ffffff" stroke="none" fill-opacity="0" transform="matrix(1 0 0 1 186 628 )" />
    <path d="M 27.5 54.25  L 72.75 0.75  L 130.5 45.75  L 116.75 106  L 72.75 131.5  L 0.25 122  L 27.5 54.25  Z " stroke-width="2" stroke="#ffcc00" fill="none" stroke-opacity="0.498039215686275" transform="matrix(1 0 0 1 186 628 )" mask="url(#clip90)" />
  </g>
</svg>