<?xml version="1.0" encoding="utf-8"?>
<svg version="1.1" xmlns:xlink="http://www.w3.org/1999/xlink" width="305px" height="92px" xmlns="http://www.w3.org/2000/svg">
  <defs>
    <linearGradient gradientUnits="userSpaceOnUse" x1="152.5" y1="0" x2="152.5" y2="92" id="LinearGradient91">
      <stop id="Stop92" stop-color="#0066ff" stop-opacity="0.458823529411765" offset="0" />
      <stop id="Stop93" stop-color="#0066ff" stop-opacity="0" offset="1" />
    </linearGradient>
  </defs>
  <g transform="matrix(1 0 0 1 -917 -660 )">
    <path d="M 304.66504741521 55.8050565535596  C 304.66504741521 55.8050565535596  304.72617014966 55.8050565535596  304.72617014966 55.8050565535596  C 293.173973338464 57.4553703837306  274.409293862075 55.6828110846581  254.055423289966 34.4120994957875  C 238.346880536117 17.9089611940777  224.288651612438 -5.01206422496375  203.445799164723 0.977963751212428  C 182.052842106951 7.15135993074091  171.539731781417 39.8520228619067  153.019543242832 64.9734667211761  C 140.856119087127 81.476605022886  119.463162029355 91.0117515972072  101.554200835277 71.3913538385077  C 82.3616622177332 50.3651331874403  70.0148698586762 30.7447354287409  50.8834539755829 31.1725945698964  C 29.6127423867125 31.6004537110518  20.8721913602515 70.4745128217461  0.212707115888747 70.4745128217461  C 0.212707115888747 70.4745128217461  0.212707115888747 91.9285926139689  0.212707115888747 91.9285926139689  C 0.212707115888747 91.9285926139689  304.66504741521 91.9285926139689  304.66504741521 91.9285926139689  C 304.66504741521 91.9285926139689  304.66504741521 55.8050565535596  304.66504741521 55.8050565535596  Z " fill-rule="nonzero" fill="url(#LinearGradient91)" stroke="none" transform="matrix(1 0 0 1 917 660 )" />
  </g>
</svg>