<?xml version="1.0" encoding="utf-8"?>
<svg version="1.1" xmlns:xlink="http://www.w3.org/1999/xlink" width="7px" height="7px" xmlns="http://www.w3.org/2000/svg">
  <g transform="matrix(1 0 0 1 -914 -727 )">
    <path d="M 917.5 727  C 919.46 727  921 728.54  921 730.5  C 921 732.46  919.46 734  917.5 734  C 915.54 734  914 732.46  914 730.5  C 914 728.54  915.54 727  917.5 727  Z " fill-rule="nonzero" fill="#ffffff" stroke="none" />
    <path d="M 917.5 727.5  C 919.18 727.5  920.5 728.82  920.5 730.5  C 920.5 732.18  919.18 733.5  917.5 733.5  C 915.82 733.5  914.5 732.18  914.5 730.5  C 914.5 728.82  915.82 727.5  917.5 727.5  Z " stroke-width="1" stroke="#0066ff" fill="none" />
  </g>
</svg>