<?xml version="1.0" encoding="utf-8"?>
<svg version="1.1" xmlns:xlink="http://www.w3.org/1999/xlink" width="12px" height="12px" viewBox="287 499  12 12" xmlns="http://www.w3.org/2000/svg">
  <path d="M 287.5 505  A 5.5 5.5 0 0 1 293 499.5 A 5.5 5.5 0 0 1 298.5 505 A 5.5 5.5 0 0 1 293 510.5 A 5.5 5.5 0 0 1 287.5 505 Z " fill-rule="nonzero" fill="#ffffff" stroke="none" />
  <path d="M 287.5 505  A 5.5 5.5 0 0 1 293 499.5 A 5.5 5.5 0 0 1 298.5 505 A 5.5 5.5 0 0 1 293 510.5 A 5.5 5.5 0 0 1 287.5 505 Z " stroke-width="1" stroke="#797979" fill="none" />
  <path d="M 289.571428571429 505  L 292.142857142857 507.571428571429  L 296.428571428571 501.571428571429  " stroke-width="2.57142857142857" stroke="#797979" fill="none" />
</svg>