<?xml version="1.0" encoding="utf-8"?>
<svg version="1.1" xmlns:xlink="http://www.w3.org/1999/xlink" width="90px" height="30px" xmlns="http://www.w3.org/2000/svg">
  <g transform="matrix(1 0 0 1 -382 -149 )">
    <path d="M 383 164  A 14 14 0 0 1 397 150 L 457 150  A 14 14 0 0 1 471 164 A 14 14 0 0 1 457 178 L 397 178  A 14 14 0 0 1 383 164 Z " fill-rule="nonzero" fill="#ffffff" stroke="none" fill-opacity="0.498039215686275" />
    <path d="M 382.5 164  A 14.5 14.5 0 0 1 397 149.5 L 457 149.5  A 14.5 14.5 0 0 1 471.5 164 A 14.5 14.5 0 0 1 457 178.5 L 397 178.5  A 14.5 14.5 0 0 1 382.5 164 Z " stroke-width="1" stroke="#e4e4e4" fill="none" stroke-opacity="0.498039215686275" />
  </g>
</svg>