<?xml version="1.0" encoding="utf-8"?>
<svg version="1.1" xmlns:xlink="http://www.w3.org/1999/xlink" width="5px" height="5px" xmlns="http://www.w3.org/2000/svg">
  <defs>
    <mask fill="white" id="clip27">
      <path d="M 0 2.5  C 0 3.8807118745  1.1192881255 5  2.5 5  C 3.8807118745 5  5 3.8807118745  5 2.5  C 5 1.1192881255  3.8807118745 0  2.5 0  C 1.1192881255 0  0 1.1192881255  0 2.5  Z " fill-rule="evenodd" />
    </mask>
  </defs>
  <g transform="matrix(1 0 0 1 -341 -403 )">
    <path d="M 0 2.5  C 0 3.8807118745  1.1192881255 5  2.5 5  C 3.8807118745 5  5 3.8807118745  5 2.5  C 5 1.1192881255  3.8807118745 0  2.5 0  C 1.1192881255 0  0 1.1192881255  0 2.5  Z " fill-rule="nonzero" fill="#ffffff" stroke="none" transform="matrix(1 0 0 1 341 403 )" />
    <path d="M 0 2.5  C 0 3.8807118745  1.1192881255 5  2.5 5  C 3.8807118745 5  5 3.8807118745  5 2.5  C 5 1.1192881255  3.8807118745 0  2.5 0  C 1.1192881255 0  0 1.1192881255  0 2.5  Z " stroke-width="2" stroke="#242424" fill="none" transform="matrix(1 0 0 1 341 403 )" mask="url(#clip27)" />
  </g>
</svg>