<?xml version="1.0" encoding="utf-8"?>
<svg version="1.1" xmlns:xlink="http://www.w3.org/1999/xlink" width="90px" height="30px" xmlns="http://www.w3.org/2000/svg">
  <g transform="matrix(1 0 0 1 -315 -150 )">
    <path d="M 316 165  A 14 14 0 0 1 330 151 L 390 151  A 14 14 0 0 1 404 165 A 14 14 0 0 1 390 179 L 330 179  A 14 14 0 0 1 316 165 Z " fill-rule="nonzero" fill="#f2f2f2" stroke="none" />
    <path d="M 315.5 165  A 14.5 14.5 0 0 1 330 150.5 L 390 150.5  A 14.5 14.5 0 0 1 404.5 165 A 14.5 14.5 0 0 1 390 179.5 L 330 179.5  A 14.5 14.5 0 0 1 315.5 165 Z " stroke-width="1" stroke="#e4e4e4" fill="none" stroke-opacity="0.498039215686275" />
  </g>
</svg>