<?xml version="1.0" encoding="utf-8"?>
<svg version="1.1" xmlns:xlink="http://www.w3.org/1999/xlink" width="16px" height="16px" xmlns="http://www.w3.org/2000/svg">
  <g transform="matrix(1 0 0 1 -376 -157 )">
    <path d="M 384 158  C 387.92 158  391 161.08  391 165  C 391 168.92  387.92 172  384 172  C 380.08 172  377 168.92  377 165  C 377 161.08  380.08 158  384 158  Z " fill-rule="nonzero" fill="#f2f2f2" stroke="none" />
    <path d="M 384 158  C 387.92 158  391 161.08  391 165  C 391 168.92  387.92 172  384 172  C 380.08 172  377 168.92  377 165  C 377 161.08  380.08 158  384 158  Z " stroke-width="2" stroke="#000000" fill="none" />
  </g>
</svg>