<?xml version="1.0" encoding="utf-8"?>
<svg version="1.1" xmlns:xlink="http://www.w3.org/1999/xlink" width="12px" height="12px" viewBox="1243 357  12 12" xmlns="http://www.w3.org/2000/svg">
  <path d="M 1243.5 362  A 4.5 4.5 0 0 1 1248 357.5 L 1250 357.5  A 4.5 4.5 0 0 1 1254.5 362 L 1254.5 364  A 4.5 4.5 0 0 1 1250 368.5 L 1248 368.5  A 4.5 4.5 0 0 1 1243.5 364 L 1243.5 362  Z " fill-rule="nonzero" fill="#ffffff" stroke="none" />
  <path d="M 1243.5 362  A 4.5 4.5 0 0 1 1248 357.5 L 1250 357.5  A 4.5 4.5 0 0 1 1254.5 362 L 1254.5 364  A 4.5 4.5 0 0 1 1250 368.5 L 1248 368.5  A 4.5 4.5 0 0 1 1243.5 364 L 1243.5 362  Z " stroke-width="1" stroke="#797979" fill="none" />
</svg>