<?xml version="1.0" encoding="utf-8"?>
<svg version="1.1" xmlns:xlink="http://www.w3.org/1999/xlink" width="12px" height="12px" viewBox="1244 506  12 12" xmlns="http://www.w3.org/2000/svg">
  <path d="M 1244.5 511  A 4.5 4.5 0 0 1 1249 506.5 L 1251 506.5  A 4.5 4.5 0 0 1 1255.5 511 L 1255.5 513  A 4.5 4.5 0 0 1 1251 517.5 L 1249 517.5  A 4.5 4.5 0 0 1 1244.5 513 L 1244.5 511  Z " fill-rule="nonzero" fill="#ffffff" stroke="none" />
  <path d="M 1244.5 511  A 4.5 4.5 0 0 1 1249 506.5 L 1251 506.5  A 4.5 4.5 0 0 1 1255.5 511 L 1255.5 513  A 4.5 4.5 0 0 1 1251 517.5 L 1249 517.5  A 4.5 4.5 0 0 1 1244.5 513 L 1244.5 511  Z " stroke-width="1" stroke="#797979" fill="none" />
</svg>