<?xml version="1.0" encoding="utf-8"?>
<svg version="1.1" xmlns:xlink="http://www.w3.org/1999/xlink" width="12px" height="12px" viewBox="523 1802  12 12" xmlns="http://www.w3.org/2000/svg">
  <path d="M 523.5 1807  A 4.5 4.5 0 0 1 528 1802.5 L 530 1802.5  A 4.5 4.5 0 0 1 534.5 1807 L 534.5 1809  A 4.5 4.5 0 0 1 530 1813.5 L 528 1813.5  A 4.5 4.5 0 0 1 523.5 1809 L 523.5 1807  Z " fill-rule="nonzero" fill="#ffffff" stroke="none" />
  <path d="M 523.5 1807  A 4.5 4.5 0 0 1 528 1802.5 L 530 1802.5  A 4.5 4.5 0 0 1 534.5 1807 L 534.5 1809  A 4.5 4.5 0 0 1 530 1813.5 L 528 1813.5  A 4.5 4.5 0 0 1 523.5 1809 L 523.5 1807  Z " stroke-width="1" stroke="#797979" fill="none" />
</svg>