<?xml version="1.0" encoding="utf-8"?>
<svg version="1.1" xmlns:xlink="http://www.w3.org/1999/xlink" width="50px" height="50px" xmlns="http://www.w3.org/2000/svg">
  <g transform="matrix(1 0 0 1 -46 -164 )">
    <path d="M 71 164  C 85 164  96 175  96 189  C 96 203  85 214  71 214  C 57 214  46 203  46 189  C 46 175  57 164  71 164  Z " fill-rule="nonzero" fill="#ffffff" stroke="none" />
    <path d="M 71 164.5  C 84.72 164.5  95.5 175.28  95.5 189  C 95.5 202.72  84.72 213.5  71 213.5  C 57.28 213.5  46.5 202.72  46.5 189  C 46.5 175.28  57.28 164.5  71 164.5  Z " stroke-width="1" stroke="#d7d7d7" fill="none" />
  </g>
</svg>