<?xml version="1.0" encoding="utf-8"?>
<svg version="1.1" xmlns:xlink="http://www.w3.org/1999/xlink" width="50px" height="50px" xmlns="http://www.w3.org/2000/svg">
  <g transform="matrix(1 0 0 1 -205 -249 )">
    <path d="M 230 249  C 244 249  255 260  255 274  C 255 288  244 299  230 299  C 216 299  205 288  205 274  C 205 260  216 249  230 249  Z " fill-rule="nonzero" fill="#d7d7d7" stroke="none" />
    <path d="M 230 249.5  C 243.72 249.5  254.5 260.28  254.5 274  C 254.5 287.72  243.72 298.5  230 298.5  C 216.28 298.5  205.5 287.72  205.5 274  C 205.5 260.28  216.28 249.5  230 249.5  Z " stroke-width="1" stroke="#d7d7d7" fill="none" />
  </g>
</svg>