<?xml version="1.0" encoding="utf-8"?>
<svg version="1.1" xmlns:xlink="http://www.w3.org/1999/xlink" width="15px" height="15px" xmlns="http://www.w3.org/2000/svg">
  <g transform="matrix(1 0 0 1 -39 -83 )">
    <path d="M 12.4999999951172 6.87512500488282  C 12.4999999951172 9.9770000097656  9.97687500000003 12.5001250048828  6.87499999511724 12.5001250048828  C 3.77312499023428 12.5001250048828  1.24999999511725 9.9770000097656  1.24999999511725 6.87512500488282  C 1.24999999511725 3.77325000000004  3.77312499023428 1.25012500488282  6.87499999511724 1.25012500488282  C 9.97687500000003 1.25012500488282  12.4999999951172 3.77325000000004  12.4999999951172 6.87512500488282  Z M 14.8174999951172 14.8176250048829  C 15.0605956694635 14.5731934435224  15.0605956694635 14.1783065613603  14.8174999951172 13.933875  L 12.1575 11.27325  C 13.1512499999999 10.0813750048828  13.7500000048828 8.5482499951172  13.7500000048828 6.87512500488282  C 13.7500000048828 3.07825000488284  10.6718750097656 0.000125009765573244  6.87499999511724 0.000124995117213681  C 3.07812498046872 0.00012498046875938  0 3.07824999023438  0 6.87512500488282  C 0 10.6720000195313  3.07812499511717 13.750125  6.87499999511724 13.750125  C 8.54812499999999 13.750125  10.0812499951172 13.1513749951172  11.2731250048827 12.1576249951173  L 13.9337500048828 14.8176250048829  C 14.1781815645364 15.0607206695169  14.5730684354636 15.0607206695169  14.8174999951172 14.8176250048829  Z " fill-rule="nonzero" fill="#999999" stroke="none" transform="matrix(1 0 0 1 39 83 )" />
  </g>
</svg>