<?xml version="1.0" encoding="utf-8"?>
<svg version="1.1" xmlns:xlink="http://www.w3.org/1999/xlink" width="17px" height="17px" xmlns="http://www.w3.org/2000/svg">
  <g transform="matrix(1 0 0 1 -255 -82 )">
    <path d="M 17 8.5  C 17 3.812866933036  13.187133066964 0  8.5 0  C 3.81345441964274 0  0 3.812866933036  0 8.5  C 0 13.187133066964  3.812866933036 17  8.5 17  C 13.1865455803573 17  17 13.187133066964  17 8.5  Z M 9.36032983370542 8.50241519531319  L 11.967396860491 11.1180006450894  C 12.2041833906251 11.3559947633926  12.2035632700893 11.7397162399558  11.9661892723215 11.9765027700887  C 11.8478123337054 12.0942922410713  11.6929790658483 12.1537907611605  11.5375583303573 12.1537907611605  C 11.3815174743304 12.1537907611605  11.2260967388393 12.0942922220978  11.1076871473214 11.9752951629466  L 8.49696470312485 9.35667439732138  L 5.87775645089291 11.9479774151783  C 5.75937951227675 12.0645592790179  5.60513373102685 12.123437697544  5.45092058370526 12.123437697544  C 5.29429224107125 12.123437697544  5.13825140401784 12.0633190569197  5.01925432589278 11.9431143906256  C 4.78367538392854 11.7045001517858  4.78550309263383 11.3207786752233  5.02411735044629 11.0846122656247  L 7.64029028683001 8.49696468415177  L 5.03381074665194 5.88199933593714  C 4.79702421651784 5.64459268526762  4.79764433705366 5.2602837410715  5.03501833482142 5.02349721093779  C 5.27242498549094 4.78609056026826  5.65611380915202 4.78733080133911  5.89352045982116 5.02470479910726  L 8.50362278348227 7.64270544419665  L 11.1228310357142 5.05143506026761  C 11.3608251540178 4.81526865066971  11.7457542187501 4.81768382700866  11.9813331607143 5.05629808482113  C 12.2174995703126 5.29491232366013  12.2150843939729 5.67922126785702  11.9764701361604 5.91480020982126  L 9.36032983370542 8.50241519531319  Z " fill-rule="nonzero" fill="#999999" stroke="none" transform="matrix(1 0 0 1 255 82 )" />
  </g>
</svg>