<?xml version="1.0" encoding="utf-8"?>
<svg version="1.1" xmlns:xlink="http://www.w3.org/1999/xlink" width="16px" height="18px" xmlns="http://www.w3.org/2000/svg">
  <g transform="matrix(1 0 0 1 -346 -123 )">
    <path d="M 5.71590909090909 14.89453125  C 5.78409090909091 14.82421875  5.81818181818182 14.734375  5.81818181818182 14.625  L 5.81818181818182 6.375  C 5.81818181818182 6.265625  5.78409090909091 6.17578125  5.71590909090909 6.10546875  C 5.64772727272727 6.03515625  5.56060606060606 6  5.45454545454545 6  L 4.72727272727273 6  C 4.62121212121212 6  4.53409090909091 6.03515625  4.46590909090909 6.10546875  C 4.39772727272727 6.17578125  4.36363636363636 6.265625  4.36363636363636 6.375  L 4.36363636363636 14.625  C 4.36363636363636 14.734375  4.39772727272727 14.82421875  4.46590909090909 14.89453125  C 4.53409090909091 14.96484375  4.62121212121212 15  4.72727272727273 15  L 5.45454545454545 15  C 5.56060606060606 15  5.64772727272727 14.96484375  5.71590909090909 14.89453125  Z M 8.625 14.89453125  C 8.69318181818182 14.82421875  8.72727272727273 14.734375  8.72727272727273 14.625  L 8.72727272727273 6.375  C 8.72727272727273 6.265625  8.69318181818182 6.17578125  8.625 6.10546875  C 8.55681818181818 6.03515625  8.46969696969697 6  8.36363636363636 6  L 7.63636363636364 6  C 7.53030303030303 6  7.44318181818182 6.03515625  7.375 6.10546875  C 7.30681818181818 6.17578125  7.27272727272727 6.265625  7.27272727272727 6.375  L 7.27272727272727 14.625  C 7.27272727272727 14.734375  7.30681818181818 14.82421875  7.375 14.89453125  C 7.44318181818182 14.96484375  7.53030303030303 15  7.63636363636364 15  L 8.36363636363636 15  C 8.46969696969697 15  8.55681818181818 14.96484375  8.625 14.89453125  Z M 11.5340909090909 14.89453125  C 11.6022727272727 14.82421875  11.6363636363636 14.734375  11.6363636363636 14.625  L 11.6363636363636 6.375  C 11.6363636363636 6.265625  11.6022727272727 6.17578125  11.5340909090909 6.10546875  C 11.4659090909091 6.03515625  11.3787878787879 6  11.2727272727273 6  L 10.5454545454545 6  C 10.4393939393939 6  10.3522727272727 6.03515625  10.2840909090909 6.10546875  C 10.2159090909091 6.17578125  10.1818181818182 6.265625  10.1818181818182 6.375  L 10.1818181818182 14.625  C 10.1818181818182 14.734375  10.2159090909091 14.82421875  10.2840909090909 14.89453125  C 10.3522727272727 14.96484375  10.4393939393939 15  10.5454545454545 15  L 11.2727272727273 15  C 11.3787878787879 15  11.4659090909091 14.96484375  11.5340909090909 14.89453125  Z M 6.01136363636364 1.62890625  L 5.45454545454545 3  L 10.5454545454545 3  L 10 1.62890625  C 9.9469696969697 1.55859375  9.88257575757576 1.515625  9.80681818181818 1.5  L 6.20454545454545 1.5  C 6.12878787878788 1.515625  6.06439393939394 1.55859375  6.01136363636364 1.62890625  Z M 15.8977272727273 3.10546875  C 15.9659090909091 3.17578125  16 3.265625  16 3.375  L 16 4.125  C 16 4.234375  15.9659090909091 4.32421875  15.8977272727273 4.39453125  C 15.8295454545455 4.46484375  15.7424242424242 4.5  15.6363636363636 4.5  L 14.5454545454545 4.5  L 14.5454545454545 15.609375  C 14.5454545454545 16.2578125  14.3674242424242 16.818359375  14.0113636363636 17.291015625  C 13.655303030303 17.763671875  13.2272727272727 18  12.7272727272727 18  L 3.27272727272727 18  C 2.77272727272727 18  2.34469696969697 17.771484375  1.98863636363636 17.314453125  C 1.63257575757576 16.857421875  1.45454545454545 16.3046875  1.45454545454545 15.65625  L 1.45454545454545 4.5  L 0.363636363636364 4.5  C 0.257575757575758 4.5  0.170454545454545 4.46484375  0.102272727272727 4.39453125  C 0.0340909090909091 4.32421875  0 4.234375  0 4.125  L 0 3.375  C 0 3.265625  0.0340909090909091 3.17578125  0.102272727272727 3.10546875  C 0.170454545454545 3.03515625  0.257575757575758 3  0.363636363636364 3  L 3.875 3  L 4.67045454545455 1.04296875  C 4.78409090909091 0.753906249999998  4.98863636363636 0.507812499999998  5.28409090909091 0.304687500000001  C 5.57954545454546 0.101562499999999  5.87878787878788 0  6.18181818181818 0  L 9.81818181818182 0  C 10.1212121212121 0  10.4204545454545 0.101562499999999  10.7159090909091 0.304687500000001  C 11.0113636363636 0.507812499999998  11.2159090909091 0.753906249999998  11.3295454545455 1.04296875  L 12.125 3  L 15.6363636363636 3  C 15.7424242424242 3  15.8295454545455 3.03515625  15.8977272727273 3.10546875  Z " fill-rule="nonzero" fill="#7f7f7f" stroke="none" transform="matrix(1 0 0 1 346 123 )" />
  </g>
</svg>