<?xml version="1.0" encoding="utf-8"?>
<svg version="1.1" xmlns:xlink="http://www.w3.org/1999/xlink" width="28px" height="30px" xmlns="http://www.w3.org/2000/svg">
  <defs>
    <mask fill="white" id="clip1308">
      <path d="M 0 15  C 0 6.60000000000001  6.16000000000001 0  14 0  C 21.84 0  28 6.60000000000001  28 15  C 28 20.9614044875195  24.8974462055397 26.016218580554  20.2936873709971 28.448711470841  C 18.4104557167852 29.4437565577518  16.2760224783151 30  14 30  C 6.16000000000001 30  0 23.4  0 15  Z " fill-rule="evenodd" />
    </mask>
  </defs>
  <g transform="matrix(1 0 0 1 -165 -204 )">
    <path d="M 0 15  C 0 6.60000000000001  6.16000000000001 0  14 0  C 21.84 0  28 6.60000000000001  28 15  C 28 20.9614044875195  24.8974462055397 26.016218580554  20.2936873709971 28.448711470841  C 18.4104557167852 29.4437565577518  16.2760224783151 30  14 30  C 6.16000000000001 30  0 23.4  0 15  Z " fill-rule="nonzero" fill="#ffffff" stroke="none" transform="matrix(1 0 0 1 165 204 )" />
    <path d="M 0 15  C 0 6.60000000000001  6.16000000000001 0  14 0  C 21.84 0  28 6.60000000000001  28 15  C 28 20.9614044875195  24.8974462055397 26.016218580554  20.2936873709971 28.448711470841  C 18.4104557167852 29.4437565577518  16.2760224783151 30  14 30  C 6.16000000000001 30  0 23.4  0 15  Z " stroke-width="2" stroke="#ffffff" fill="none" transform="matrix(1 0 0 1 165 204 )" mask="url(#clip1308)" />
  </g>
</svg>