<?xml version="1.0" encoding="utf-8"?>
<svg version="1.1" xmlns:xlink="http://www.w3.org/1999/xlink" width="63px" height="37px" xmlns="http://www.w3.org/2000/svg">
  <g transform="matrix(1 0 0 1 -289 -21 )">
    <path d="M 290 24  A 2 2 0 0 1 292 22 L 349 22  A 2 2 0 0 1 351 24 L 351 55  A 2 2 0 0 1 349 57 L 292 57  A 2 2 0 0 1 290 55 L 290 24  Z " fill-rule="nonzero" fill="#555555" stroke="none" fill-opacity="0.407843137254902" />
    <path d="M 289.5 24  A 2.5 2.5 0 0 1 292 21.5 L 349 21.5  A 2.5 2.5 0 0 1 351.5 24 L 351.5 55  A 2.5 2.5 0 0 1 349 57.5 L 292 57.5  A 2.5 2.5 0 0 1 289.5 55 L 289.5 24  Z " stroke-width="1" stroke-dasharray="3,1" stroke="#555555" fill="none" stroke-dashoffset="0.5" />
  </g>
</svg>