<?xml version="1.0" encoding="utf-8"?>
<svg version="1.1" xmlns:xlink="http://www.w3.org/1999/xlink" width="22px" height="18px" xmlns="http://www.w3.org/2000/svg">
  <defs>
    <mask fill="white" id="clip196">
      <path d="M 1.55839999999989 3.28125  L 5.70857136547602 3.28109705196721  L 7.1590150127231 0  L 14.8204691325318 0  L 16.2859634957713 3.28125  L 20.4416000000001 3.28125  C 21.0343040000007 3.28125  21.5 3.75422249999997  21.5 4.35618750000003  L 21.5 16.4250625  C 21.5 17.0270275  21.0343040000007 17.5  20.4416000000001 17.5  L 1.55839999999989 17.5  C 0.965695999999298 17.5  0.5 17.0270275  0.5 16.4250625  L 0.5 4.35618750000003  C 0.5 3.75422249999997  0.965695999999298 3.28125  1.55839999999989 3.28125  Z " fill-rule="evenodd" />
    </mask>
  </defs>
  <g transform="matrix(1 0 0 1 -122 -348 )">
    <path d="M 1.55839999999989 3.28125  L 5.70857136547602 3.28109705196721  L 7.1590150127231 0  L 14.8204691325318 0  L 16.2859634957713 3.28125  L 20.4416000000001 3.28125  C 21.0343040000007 3.28125  21.5 3.75422249999997  21.5 4.35618750000003  L 21.5 16.4250625  C 21.5 17.0270275  21.0343040000007 17.5  20.4416000000001 17.5  L 1.55839999999989 17.5  C 0.965695999999298 17.5  0.5 17.0270275  0.5 16.4250625  L 0.5 4.35618750000003  C 0.5 3.75422249999997  0.965695999999298 3.28125  1.55839999999989 3.28125  Z " fill-rule="nonzero" fill="#ffffff" stroke="none" transform="matrix(1 0 0 1 122 348 )" />
    <path d="M 1.55839999999989 3.28125  L 5.70857136547602 3.28109705196721  L 7.1590150127231 0  L 14.8204691325318 0  L 16.2859634957713 3.28125  L 20.4416000000001 3.28125  C 21.0343040000007 3.28125  21.5 3.75422249999997  21.5 4.35618750000003  L 21.5 16.4250625  C 21.5 17.0270275  21.0343040000007 17.5  20.4416000000001 17.5  L 1.55839999999989 17.5  C 0.965695999999298 17.5  0.5 17.0270275  0.5 16.4250625  L 0.5 4.35618750000003  C 0.5 3.75422249999997  0.965695999999298 3.28125  1.55839999999989 3.28125  Z " stroke-width="2" stroke="#c5c5c5" fill="none" transform="matrix(1 0 0 1 122 348 )" mask="url(#clip196)" />
  </g>
</svg>