<?xml version="1.0" encoding="utf-8"?>
<svg version="1.1" xmlns:xlink="http://www.w3.org/1999/xlink" width="22px" height="22px" preserveAspectRatio="xMinYMid meet" viewBox="548 555  22 20" xmlns="http://www.w3.org/2000/svg">
  <g transform="matrix(0 -1 1 0 -6 1124 )">
    <path d="M 558.5 562  A 3 3 0 0 0 555.5 565 A 3 3 0 0 0 558.5 568 A 3 3 0 0 0 561.5 565 A 3 3 0 0 0 558.5 562 Z M 558.5 563  A 2 2 0 0 1 560.5 565 A 2 2 0 0 1 558.5 567 A 2 2 0 0 1 556.5 565 A 2 2 0 0 1 558.5 563 Z " fill-rule="nonzero" fill="#555555" stroke="none" transform="matrix(0.999999717880012 0.000751159035241333 -0.000751159035241333 0.999999717880012 0.46399826827485 -0.419348112089779 )" />
    <path d="M 558.5 567  L 558.5 673  " stroke-width="1" stroke-dasharray="3,1" stroke="#555555" fill="none" transform="matrix(0.999999717880012 0.000751159035241333 -0.000751159035241333 0.999999717880012 0.46399826827485 -0.419348112089779 )" />
  </g>
</svg>