<?xml version="1.0" encoding="utf-8"?>
<svg version="1.1" xmlns:xlink="http://www.w3.org/1999/xlink" width="36px" height="36px" xmlns="http://www.w3.org/2000/svg">
  <defs>
    <mask fill="white" id="clip25">
      <path d="M 803 338.5  C 793.2875 338.5  785.5 330.7125  785.5 321  L 785.5 321  C 785.5 311.2875  793.2875 303.5  803 303.5  L 803 303.5  C 812.7125 303.5  820.5 311.2875  820.5 321  L 820.5 321  C 820.5 330.7125  812.7125 338.5  803 338.5  L 803 338.5  " fill-rule="evenodd" />
    </mask>
  </defs>
  <g transform="matrix(1 0 0 1 -785 -303 )">
    <path d="M 785 303  L 821 303  L 821 339  L 785 339  L 785 303  " fill-rule="nonzero" fill="#cccccc" stroke="none" mask="url(#clip25)" />
    <path d="M 788 306  L 818 306  L 818 336  L 788 336  L 788 306  " fill-rule="nonzero" fill="#ffffff" stroke="none" mask="url(#clip25)" />
    <path d="M 806.42 313.8  C 804.908 313.8  803.72 312.612  803.72 311.1  C 803.72 309.588  804.908 308.4  806.42 308.4  C 807.932 308.4  809.12 309.588  809.12 311.1  C 809.12 312.612  807.932 313.8  806.42 313.8  " fill-rule="nonzero" fill="#cccccc" stroke="none" mask="url(#clip25)" />
    <path d="M 789 335  L 789 319.6  L 796 312.6  L 805.8 318.2  L 811.4 316.8  L 817 318.2  L 817 335  L 789 335  " fill-rule="nonzero" fill="#169bd5" stroke="none" mask="url(#clip25)" />
    <path d="M 803 338.5  C 793.2875 338.5  785.5 330.7125  785.5 321  L 785.5 321  C 785.5 311.2875  793.2875 303.5  803 303.5  L 803 303.5  C 812.7125 303.5  820.5 311.2875  820.5 321  L 820.5 321  C 820.5 330.7125  812.7125 338.5  803 338.5  L 803 338.5  Z " stroke-width="1" stroke="#d7d7d7" fill="none" mask="url(#clip25)" />
  </g>
</svg>