<?xml version="1.0" encoding="utf-8"?>
<svg version="1.1" xmlns:xlink="http://www.w3.org/1999/xlink" width="22px" height="22px" preserveAspectRatio="xMinYMid meet" viewBox="100 499  22 20" xmlns="http://www.w3.org/2000/svg">
  <g transform="matrix(0 -1 1 0 -398 620 )">
    <path d="M 111.5 505  A 3 3 0 0 0 108.5 508 A 3 3 0 0 0 111.5 511 A 3 3 0 0 0 114.5 508 A 3 3 0 0 0 111.5 505 Z M 111.5 506  A 2 2 0 0 1 113.5 508 A 2 2 0 0 1 111.5 510 A 2 2 0 0 1 109.5 508 A 2 2 0 0 1 111.5 506 Z " fill-rule="nonzero" fill="#555555" stroke="none" transform="matrix(0.999999777090374 0.000667696938819085 -0.000667696938819085 0.999999777090374 0.358244262099731 -0.0743286176640368 )" />
    <path d="M 111.5 510  L 111.5 568  " stroke-width="1" stroke-dasharray="3,1" stroke="#555555" fill="none" transform="matrix(0.999999777090374 0.000667696938819085 -0.000667696938819085 0.999999777090374 0.358244262099731 -0.0743286176640368 )" />
  </g>
</svg>