<?xml version="1.0" encoding="utf-8"?>
<svg version="1.1" xmlns:xlink="http://www.w3.org/1999/xlink" width="19px" height="90px" xmlns="http://www.w3.org/2000/svg">
  <g transform="matrix(1 0 0 1 -102 -574 )">
    <path d="M 111.5 583  A 3 3 0 0 0 108.5 586 A 3 3 0 0 0 111.5 589 A 3 3 0 0 0 114.5 586 A 3 3 0 0 0 111.5 583 Z M 111.5 584  A 2 2 0 0 1 113.5 586 A 2 2 0 0 1 111.5 588 A 2 2 0 0 1 109.5 586 A 2 2 0 0 1 111.5 584 Z " fill-rule="nonzero" fill="#555555" stroke="none" />
    <path d="M 111.5 588  L 111.5 663  " stroke-width="1" stroke-dasharray="3,1" stroke="#555555" fill="none" />
  </g>
</svg>