<?xml version="1.0" encoding="utf-8"?>
<svg version="1.1" xmlns:xlink="http://www.w3.org/1999/xlink" width="19px" height="81px" xmlns="http://www.w3.org/2000/svg">
  <g transform="matrix(1 0 0 1 -1451 -310 )">
    <path d="M 1460.5 319  A 3 3 0 0 0 1457.5 322 A 3 3 0 0 0 1460.5 325 A 3 3 0 0 0 1463.5 322 A 3 3 0 0 0 1460.5 319 Z M 1460.5 320  A 2 2 0 0 1 1462.5 322 A 2 2 0 0 1 1460.5 324 A 2 2 0 0 1 1458.5 322 A 2 2 0 0 1 1460.5 320 Z " fill-rule="nonzero" fill="#7f7f7f" stroke="none" />
    <path d="M 1460.5 324  L 1460.5 390  " stroke-width="1" stroke-dasharray="3,1" stroke="#7f7f7f" fill="none" />
  </g>
</svg>