<?xml version="1.0" encoding="utf-8"?>
<svg version="1.1" xmlns:xlink="http://www.w3.org/1999/xlink" width="36px" height="36px" xmlns="http://www.w3.org/2000/svg">
  <defs>
    <mask fill="white" id="clip50">
      <path d="M 280 339  C 270.01 339  262 330.99  262 321  L 262 321  C 262 311.01  270.01 303  280 303  L 280 303  C 289.99 303  298 311.01  298 321  L 298 321  C 298 330.99  289.99 339  280 339  " fill-rule="evenodd" />
    </mask>
  </defs>
  <g transform="matrix(1 0 0 1 -262 -303 )">
    <path d="M 262 303  L 298 303  L 298 339  L 262 339  L 262 303  " fill-rule="nonzero" fill="#cccccc" stroke="none" mask="url(#clip50)" />
    <path d="M 265 306  L 295 306  L 295 336  L 265 336  L 265 306  " fill-rule="nonzero" fill="#ffffff" stroke="none" mask="url(#clip50)" />
    <path d="M 283.42 313.8  C 281.908 313.8  280.72 312.612  280.72 311.1  C 280.72 309.588  281.908 308.4  283.42 308.4  C 284.932 308.4  286.12 309.588  286.12 311.1  C 286.12 312.612  284.932 313.8  283.42 313.8  " fill-rule="nonzero" fill="#cccccc" stroke="none" mask="url(#clip50)" />
    <path d="M 266 335  L 266 319.6  L 273 312.6  L 282.8 318.2  L 288.4 316.8  L 294 318.2  L 294 335  L 266 335  " fill-rule="nonzero" fill="#169bd5" stroke="none" mask="url(#clip50)" />
  </g>
</svg>