<?xml version="1.0" encoding="utf-8"?>
<svg version="1.1" xmlns:xlink="http://www.w3.org/1999/xlink" width="76px" height="6px" preserveAspectRatio="xMinYMid meet" viewBox="1422 353  76 4" xmlns="http://www.w3.org/2000/svg">
  <g transform="matrix(-0.017452406437277 -0.999847695156416 0.99984769515639 -0.017452406437285 1130.53458161791 1820.9732392136 )">
    <path d="M 1460.5 319  A 3 3 0 0 0 1457.5 322 A 3 3 0 0 0 1460.5 325 A 3 3 0 0 0 1463.5 322 A 3 3 0 0 0 1460.5 319 Z M 1460.5 320  A 2 2 0 0 1 1462.5 322 A 2 2 0 0 1 1460.5 324 A 2 2 0 0 1 1458.5 322 A 2 2 0 0 1 1460.5 320 Z " fill-rule="nonzero" fill="#7f7f7f" stroke="none" transform="matrix(0.999942165369539 0.0107548089745155 -0.0107548089745155 0.999942165369539 3.89704725925458 -15.6868961307813 )" />
    <path d="M 1460.5 324  L 1460.5 390  " stroke-width="1" stroke-dasharray="3,1" stroke="#7f7f7f" fill="none" transform="matrix(0.999942165369539 0.0107548089745155 -0.0107548089745155 0.999942165369539 3.89704725925458 -15.6868961307813 )" />
  </g>
</svg>