<?xml version="1.0" encoding="utf-8"?>
<svg version="1.1" xmlns:xlink="http://www.w3.org/1999/xlink" width="19px" height="73px" xmlns="http://www.w3.org/2000/svg">
  <g transform="matrix(1 0 0 1 -102 -496 )">
    <path d="M 111.5 505  A 3 3 0 0 0 108.5 508 A 3 3 0 0 0 111.5 511 A 3 3 0 0 0 114.5 508 A 3 3 0 0 0 111.5 505 Z M 111.5 506  A 2 2 0 0 1 113.5 508 A 2 2 0 0 1 111.5 510 A 2 2 0 0 1 109.5 508 A 2 2 0 0 1 111.5 506 Z " fill-rule="nonzero" fill="#555555" stroke="none" />
    <path d="M 111.5 510  L 111.5 568  " stroke-width="1" stroke-dasharray="3,1" stroke="#555555" fill="none" />
  </g>
</svg>