<?xml version="1.0" encoding="utf-8"?>
<svg version="1.1" xmlns:xlink="http://www.w3.org/1999/xlink" width="22px" height="22px" preserveAspectRatio="xMinYMid meet" viewBox="100 577  22 20" xmlns="http://www.w3.org/2000/svg">
  <g transform="matrix(0 -1 1 0 -476 698 )">
    <path d="M 111.5 583  A 3 3 0 0 0 108.5 586 A 3 3 0 0 0 111.5 589 A 3 3 0 0 0 114.5 586 A 3 3 0 0 0 111.5 583 Z M 111.5 584  A 2 2 0 0 1 113.5 586 A 2 2 0 0 1 111.5 588 A 2 2 0 0 1 109.5 586 A 2 2 0 0 1 111.5 584 Z " fill-rule="nonzero" fill="#555555" stroke="none" transform="matrix(0.999997918822363 0.00204018404627006 -0.00204018404627006 0.999997918822363 1.27126671213277 -0.226183947491222 )" />
    <path d="M 111.5 588  L 111.5 663  " stroke-width="1" stroke-dasharray="3,1" stroke="#555555" fill="none" transform="matrix(0.999997918822363 0.00204018404627006 -0.00204018404627006 0.999997918822363 1.27126671213277 -0.226183947491222 )" />
  </g>
</svg>