<?xml version="1.0" encoding="utf-8"?>
<svg version="1.1" xmlns:xlink="http://www.w3.org/1999/xlink" width="36px" height="36px" xmlns="http://www.w3.org/2000/svg">
  <defs>
    <mask fill="white" id="clip150">
      <path d="M 137 338.5  C 127.2875 338.5  119.5 330.7125  119.5 321  L 119.5 321  C 119.5 311.2875  127.2875 303.5  137 303.5  L 137 303.5  C 146.7125 303.5  154.5 311.2875  154.5 321  L 154.5 321  C 154.5 330.7125  146.7125 338.5  137 338.5  L 137 338.5  " fill-rule="evenodd" />
    </mask>
  </defs>
  <g transform="matrix(1 0 0 1 -119 -303 )">
    <path d="M 119 303  L 155 303  L 155 339  L 119 339  L 119 303  " fill-rule="nonzero" fill="#cccccc" stroke="none" mask="url(#clip150)" />
    <path d="M 122 306  L 152 306  L 152 336  L 122 336  L 122 306  " fill-rule="nonzero" fill="#ffffff" stroke="none" mask="url(#clip150)" />
    <path d="M 140.42 313.8  C 138.908 313.8  137.72 312.612  137.72 311.1  C 137.72 309.588  138.908 308.4  140.42 308.4  C 141.932 308.4  143.12 309.588  143.12 311.1  C 143.12 312.612  141.932 313.8  140.42 313.8  " fill-rule="nonzero" fill="#cccccc" stroke="none" mask="url(#clip150)" />
    <path d="M 123 335  L 123 319.6  L 130 312.6  L 139.8 318.2  L 145.4 316.8  L 151 318.2  L 151 335  L 123 335  " fill-rule="nonzero" fill="#169bd5" stroke="none" mask="url(#clip150)" />
    <path d="M 137 337.5  C 127.8425 337.5  120.5 330.1575  120.5 321  L 120.5 321  C 120.5 311.8425  127.8425 304.5  137 304.5  L 137 304.5  C 146.1575 304.5  153.5 311.8425  153.5 321  L 153.5 321  C 153.5 330.1575  146.1575 337.5  137 337.5  L 137 337.5  Z " stroke-width="3" stroke="#000000" fill="none" mask="url(#clip150)" />
  </g>
</svg>