<?xml version="1.0" encoding="utf-8"?>
<svg version="1.1" xmlns:xlink="http://www.w3.org/1999/xlink" width="19px" height="121px" xmlns="http://www.w3.org/2000/svg">
  <g transform="matrix(1 0 0 1 -549 -553 )">
    <path d="M 558.5 562  A 3 3 0 0 0 555.5 565 A 3 3 0 0 0 558.5 568 A 3 3 0 0 0 561.5 565 A 3 3 0 0 0 558.5 562 Z M 558.5 563  A 2 2 0 0 1 560.5 565 A 2 2 0 0 1 558.5 567 A 2 2 0 0 1 556.5 565 A 2 2 0 0 1 558.5 563 Z " fill-rule="nonzero" fill="#555555" stroke="none" />
    <path d="M 558.5 567  L 558.5 673  " stroke-width="1" stroke-dasharray="3,1" stroke="#555555" fill="none" />
  </g>
</svg>