<?xml version="1.0" encoding="utf-8"?>
<svg version="1.1" xmlns:xlink="http://www.w3.org/1999/xlink" width="86px" height="4px" preserveAspectRatio="xMinYMid meet" viewBox="516 727  86 2" xmlns="http://www.w3.org/2000/svg">
  <g transform="matrix(0 -1 1 0 -169 1287 )">
    <path d="M 558.5 688  A 3 3 0 0 0 555.5 691 A 3 3 0 0 0 558.5 694 A 3 3 0 0 0 561.5 691 A 3 3 0 0 0 558.5 688 Z M 558.5 689  A 2 2 0 0 1 560.5 691 A 2 2 0 0 1 558.5 693 A 2 2 0 0 1 556.5 691 A 2 2 0 0 1 558.5 689 Z " fill-rule="nonzero" fill="#555555" stroke="none" transform="matrix(0.999997918822363 0.00204018404627006 -0.00204018404627006 0.999997918822363 1.48641632339491 -1.13792769252211 )" />
    <path d="M 558.5 693  L 558.5 768  " stroke-width="1" stroke-dasharray="3,1" stroke="#555555" fill="none" transform="matrix(0.999997918822363 0.00204018404627006 -0.00204018404627006 0.999997918822363 1.48641632339491 -1.13792769252211 )" />
  </g>
</svg>