<?xml version="1.0" encoding="utf-8"?>
<svg version="1.1" xmlns:xlink="http://www.w3.org/1999/xlink" width="22px" height="27px" xmlns="http://www.w3.org/2000/svg">
  <g transform="matrix(1 0 0 1 -124 -303 )">
    <path d="M 19.2715609408411 0.269614835948644  C 20.2751247327156 -0.141226818830248  21.0487051556189 -0.0641940085592054  21.592302209551 0.50071326676177  C 22.0522689474935 1.16833095577746  22.1149916844856 2.11840228245364  21.7804704205274 3.3509272467903  C 21.4459491565693 4.58345221112696  20.8814445236398 5.68758915834522  20.0869565217391 6.66333808844508  L 17.5623663578047 9.76390870185449  L 20.0712758374911 23.1676176890157  C 20.1235447849846 23.4115549215407  20.0608220479924 23.623395149786  19.8831076265146 23.8031383737518  L 17.8759800427655 25.6519258202568  C 17.8028035162747 25.7289586305278  17.7034925160371 25.7674750356633  17.5780470420527 25.7674750356633  C 17.536231884058 25.7674750356633  17.4996436208125 25.7610556348074  17.4682822523165 25.7482168330956  C 17.3114754098361 25.7097004279601  17.2017106200998 25.6069900142653  17.1389878831076 25.4400855920114  L 12.7640769779045 15.6569186875892  L 8.70277975766215 20.6447931526391  L 9.53385602280827 24.3808844507846  C 9.58612497030174 24.5991440798859  9.54430981230696 24.7981455064194  9.40841054882395 24.9778887303852  L 7.90306486101212 26.8266761768902  C 7.80898075552388 26.9422253922967  7.68876217628891 27  7.5424091233072 27  L 7.51104775481112 27  C 7.35424091233072 26.9743223965763  7.2287954383464 26.8908701854494  7.13471133285816 26.7496433666191  L 4.17106200997862 21.8965763195435  L 0.219529579472559 18.2567760342368  C 0.104537894986933 18.1669044222539  0.0365882632454265 18.0192582025678  0.0156806842480399 17.8138373751783  C 0.00522689474934664 17.6469329529244  0.0522689474934664 17.4864479315264  0.156806842480399 17.3323823109843  L 1.66215253029223 15.4643366619116  C 1.75623663578047 15.348787446505  1.87645521501544 15.2910128388017  2.02280826799715 15.2910128388017  C 2.08553100498931 15.2910128388017  2.12734616298408 15.2974322396576  2.14825374198147 15.3102710413695  L 5.19030648610121 16.3309557774608  L 9.25160370634355 11.3430813124108  L 1.28581610833927 5.97004279600571  C 1.13946305535757 5.86733238231098  1.05060584461867 5.7132667617689  1.01924447612259 5.50784593437946  C 0.998336897125208 5.30242510699001  1.04537894986933 5.12910128388017  1.16037063435495 4.98787446504993  L 3.16749821810406 2.52282453637661  C 3.31385127108577 2.35592011412268  3.47065811356617 2.30456490727532  3.63791874554526 2.36875891583452  L 14.0655737704918 5.43081312410842  L 16.5744832501782 2.34950071326676  C 17.3689712520789 1.3737517831669  18.2679971489665 0.680456490727531  19.2715609408411 0.269614835948644  Z " fill-rule="nonzero" fill="#ffffff" stroke="none" transform="matrix(1 0 0 1 124 303 )" />
  </g>
</svg>