<?xml version="1.0" encoding="utf-8"?>
<svg version="1.1" xmlns:xlink="http://www.w3.org/1999/xlink" width="11px" height="22px" xmlns="http://www.w3.org/2000/svg">
  <g transform="matrix(1 0 0 1 -80 -115 )">
    <path d="M 0.189003436425992 10.4929859719439  C 0.0630011454754822 10.6399465597863  0 10.8089512358049  0 11  C 0 11.1910487641951  0.0630011454754822 11.3600534402137  0.189003436425992 11.5070140280561  L 8.99656357388312 21.7795591182364  C 9.12256586483386 21.9265197060788  9.2674684994272 22  9.43127147766313 22  C 9.59507445589929 22  9.73997709049263 21.9265197060788  9.86597938144314 21.7795591182364  L 10.810996563574 20.6773547094188  C 10.9369988545245 20.5303941215766  11 20.3613894455577  11 20.1703406813626  C 11 19.9792919171678  10.9369988545245 19.8102872411491  10.810996563574 19.6633266533065  L 3.38316151202753 11  L 10.810996563574 2.33667334669349  C 10.9369988545245 2.18971275885087  11 2.02070808283224  11 1.82965931863737  C 11 1.63861055444227  10.9369988545245 1.46960587842341  10.810996563574 1.32264529058125  L 9.86597938144314 0.220440881763579  C 9.73997709049263 0.0734802939211932  9.59507445589929 0  9.43127147766313 0  C 9.2674684994272 0  9.12256586483386 0.0734802939211932  8.99656357388312 0.220440881763579  L 0.189003436425992 10.4929859719439  Z " fill-rule="nonzero" fill="#000000" stroke="none" transform="matrix(1 0 0 1 80 115 )" />
  </g>
</svg>