<?xml version="1.0" encoding="utf-8"?>
<svg version="1.1" xmlns:xlink="http://www.w3.org/1999/xlink" width="16px" height="16px" xmlns="http://www.w3.org/2000/svg">
  <g transform="matrix(1 0 0 1 -402 -114 )">
    <path d="M 410 115  C 413.92 115  417 118.08  417 122  C 417 125.92  413.92 129  410 129  C 406.08 129  403 125.92  403 122  C 403 118.08  406.08 115  410 115  Z " fill-rule="nonzero" fill="#f2f2f2" stroke="none" />
    <path d="M 410 115  C 413.92 115  417 118.08  417 122  C 417 125.92  413.92 129  410 129  C 406.08 129  403 125.92  403 122  C 403 118.08  406.08 115  410 115  Z " stroke-width="2" stroke="#000000" fill="none" />
  </g>
</svg>