<?xml version="1.0" encoding="utf-8"?>
<svg version="1.1" xmlns:xlink="http://www.w3.org/1999/xlink" width="51px" height="47px" xmlns="http://www.w3.org/2000/svg">
  <g transform="matrix(1 0 0 1 -290 -603 )">
    <path d="M 315.5 603  C 329.78 603  341 613.34  341 626.5  C 341 639.66  329.78 650  315.5 650  C 301.22 650  290 639.66  290 626.5  C 290 613.34  301.22 603  315.5 603  Z " fill-rule="nonzero" fill="#ffffff" stroke="none" />
    <path d="M 315.5 603.5  C 329.5 603.5  340.5 613.62  340.5 626.5  C 340.5 639.38  329.5 649.5  315.5 649.5  C 301.5 649.5  290.5 639.38  290.5 626.5  C 290.5 613.62  301.5 603.5  315.5 603.5  Z " stroke-width="1" stroke="#797979" fill="none" />
  </g>
</svg>