<?xml version="1.0" encoding="utf-8"?>
<svg version="1.1" xmlns:xlink="http://www.w3.org/1999/xlink" width="33px" height="33px" xmlns="http://www.w3.org/2000/svg">
  <g transform="matrix(1 0 0 1 -77 -727 )">
    <path d="M 93.5 727  C 102.74 727  110 734.26  110 743.5  C 110 752.74  102.74 760  93.5 760  C 84.26 760  77 752.74  77 743.5  C 77 734.26  84.26 727  93.5 727  Z " fill-rule="nonzero" fill="#ffffff" stroke="none" />
    <path d="M 93.5 727.5  C 102.46 727.5  109.5 734.54  109.5 743.5  C 109.5 752.46  102.46 759.5  93.5 759.5  C 84.54 759.5  77.5 752.46  77.5 743.5  C 77.5 734.54  84.54 727.5  93.5 727.5  Z " stroke-width="1" stroke="#797979" fill="none" />
  </g>
</svg>