<?xml version="1.0" encoding="utf-8"?>
<svg version="1.1" xmlns:xlink="http://www.w3.org/1999/xlink" width="51px" height="47px" xmlns="http://www.w3.org/2000/svg">
  <g transform="matrix(1 0 0 1 -290 -1487 )">
    <path d="M 315.5 1487  C 329.78 1487  341 1497.34  341 1510.5  C 341 1523.66  329.78 1534  315.5 1534  C 301.22 1534  290 1523.66  290 1510.5  C 290 1497.34  301.22 1487  315.5 1487  Z " fill-rule="nonzero" fill="#ffffff" stroke="none" />
    <path d="M 315.5 1487.5  C 329.5 1487.5  340.5 1497.62  340.5 1510.5  C 340.5 1523.38  329.5 1533.5  315.5 1533.5  C 301.5 1533.5  290.5 1523.38  290.5 1510.5  C 290.5 1497.62  301.5 1487.5  315.5 1487.5  Z " stroke-width="1" stroke="#797979" fill="none" />
  </g>
</svg>