<?xml version="1.0" encoding="utf-8"?>
<svg version="1.1" xmlns:xlink="http://www.w3.org/1999/xlink" width="220px" height="100px" xmlns="http://www.w3.org/2000/svg">
  <g>
    <path d="M 0.5 85.1166468527294  C 0.5 85.1166468527294  0.5 5  0.5 5  C 0.5 2.51471862576143  2.51471862576143 0.5  5 0.5  C 5 0.5  215 0.5  215 0.5  C 217.485281374239 0.5  219.5 2.51471862576143  219.5 5  C 219.5 5  219.5 85.1166468527294  219.5 85.1166468527294  C 219.5 87.601928226968  217.485281374239 89.6166468527294  215 89.6166468527294  C 215 89.6166468527294  119.468423451586 89.6166468527294  119.468423451586 89.6166468527294  C 119.468423451586 89.6166468527294  109.305214865108 98.5435447648444  109.305214865108 98.5435447648444  C 109.305214865108 98.5435447648444  99.8556591414678 89.6166468527294  99.8556591414678 89.6166468527294  C 99.8556591414678 89.6166468527294  5 89.6166468527294  5 89.6166468527294  C 2.51471862576143 89.6166468527294  0.5 87.601928226968  0.5 85.1166468527294  Z " fill-rule="nonzero" fill="#ffffff" stroke="none" fill-opacity="0.8" />
    <path d="M 0 85.1166468527294  C 0 85.1166468527294  0 5  0 5  C 0 2.23857625084603  2.23857625084603 0  5 0  C 5 0  215 0  215 0  C 217.761423749154 0  220 2.23857625084603  220 5  C 220 5  220 85.1166468527294  220 85.1166468527294  C 220 87.8780706018834  217.761423749154 90.1166468527294  215 90.1166468527294  C 215 90.1166468527294  119.656832298137 90.1166468527294  119.656832298137 90.1166468527294  C 119.656832298137 90.1166468527294  109.292960662526 99.2197980158824  109.292960662526 99.2197980158824  C 109.292960662526 99.2197980158824  99.6568322981367 90.1166468527294  99.6568322981367 90.1166468527294  C 99.6568322981367 90.1166468527294  5 90.1166468527294  5 90.1166468527294  C 2.23857625084603 90.1166468527294  0 87.8780706018834  0 85.1166468527294  Z M 1 85.1166468527294  C 1 87.3257858520526  2.79086100067683 89.1166468527294  5 89.1166468527294  C 5 89.1166468527294  100.054485984799 89.1166468527294  100.054485984799 89.1166468527294  C 100.054485984799 89.1166468527294  109.317469067691 97.8672915138064  109.317469067691 97.8672915138064  C 109.317469067691 97.8672915138064  119.280014605036 89.1166468527294  119.280014605036 89.1166468527294  C 119.280014605036 89.1166468527294  215 89.1166468527294  215 89.1166468527294  C 217.209138999323 89.1166468527294  219 87.3257858520526  219 85.1166468527294  C 219 85.1166468527294  219 5  219 5  C 219 2.79086100067683  217.209138999323 1  215 1  C 215 1  5 1  5 1  C 2.79086100067683 1  1 2.79086100067683  1 5  C 1 5  1 85.1166468527294  1 85.1166468527294  Z " fill-rule="nonzero" fill="#e9e9e9" stroke="none" />
  </g>
</svg>