<?xml version="1.0" encoding="utf-8"?>
<svg version="1.1" xmlns:xlink="http://www.w3.org/1999/xlink" width="19px" height="81px" xmlns="http://www.w3.org/2000/svg">
  <g transform="matrix(1 0 0 1 -968 -300 )">
    <path d="M 977.5 309  A 3 3 0 0 0 974.5 312 A 3 3 0 0 0 977.5 315 A 3 3 0 0 0 980.5 312 A 3 3 0 0 0 977.5 309 Z M 977.5 310  A 2 2 0 0 1 979.5 312 A 2 2 0 0 1 977.5 314 A 2 2 0 0 1 975.5 312 A 2 2 0 0 1 977.5 310 Z " fill-rule="nonzero" fill="#7f7f7f" stroke="none" />
    <path d="M 977.5 314  L 977.5 380  " stroke-width="1" stroke-dasharray="3,1" stroke="#7f7f7f" fill="none" />
  </g>
</svg>