<?xml version="1.0" encoding="utf-8"?>
<svg version="1.1" xmlns:xlink="http://www.w3.org/1999/xlink" width="24px" height="22px" preserveAspectRatio="xMinYMid meet" viewBox="966 303  24 20" xmlns="http://www.w3.org/2000/svg">
  <g transform="matrix(-0.0174524064372836 -0.999847695156394 0.999847695156392 -0.0174524064372814 682.116124911712 1296.31364907782 )">
    <path d="M 977.5 309  A 3 3 0 0 0 974.5 312 A 3 3 0 0 0 977.5 315 A 3 3 0 0 0 980.5 312 A 3 3 0 0 0 977.5 309 Z M 977.5 310  A 2 2 0 0 1 979.5 312 A 2 2 0 0 1 977.5 314 A 2 2 0 0 1 975.5 312 A 2 2 0 0 1 977.5 310 Z " fill-rule="nonzero" fill="#7f7f7f" stroke="none" transform="matrix(0.999942165369539 0.0107548089745155 -0.0107548089745155 0.999942165369539 3.76156504299661 -10.492901742395 )" />
    <path d="M 977.5 314  L 977.5 380  " stroke-width="1" stroke-dasharray="3,1" stroke="#7f7f7f" fill="none" transform="matrix(0.999942165369539 0.0107548089745155 -0.0107548089745155 0.999942165369539 3.76156504299661 -10.492901742395 )" />
  </g>
</svg>