<?xml version="1.0" encoding="utf-8"?>
<svg version="1.1" xmlns:xlink="http://www.w3.org/1999/xlink" width="220px" height="172px" xmlns="http://www.w3.org/2000/svg">
  <g>
    <path d="M 0.5 150.301021409537  C 0.5 150.301021409537  0.5 5  0.5 5  C 0.5 2.51471862576143  2.51471862576143 0.5  5 0.5  C 5 0.5  215 0.5  215 0.5  C 217.485281374239 0.5  219.5 2.51471862576143  219.5 5  C 219.5 5  219.5 150.301021409537  219.5 150.301021409537  C 219.5 152.786302783776  217.485281374239 154.801021409537  215 154.801021409537  C 215 154.801021409537  207.902082046737 154.801021409537  207.902082046737 154.801021409537  C 207.902082046737 154.801021409537  167.92667719075 171.082690429908  167.92667719075 171.082690429908  C 167.92667719075 171.082690429908  174.751746312504 154.801021409537  174.751746312504 154.801021409537  C 174.751746312504 154.801021409537  5 154.801021409537  5 154.801021409537  C 2.51471862576143 154.801021409537  0.5 152.786302783776  0.5 150.301021409537  Z " fill-rule="nonzero" fill="#ffffff" stroke="none" fill-opacity="0.8" />
    <path d="M 0 150.301021409537  C 0 150.301021409537  0 5  0 5  C 0 2.23857625084603  2.23857625084603 0  5 0  C 5 0  215 0  215 0  C 217.761423749154 0  220 2.23857625084603  220 5  C 220 5  220 150.301021409537  220 150.301021409537  C 220 153.062445158691  217.761423749154 155.301021409537  215 155.301021409537  C 215 155.301021409537  208 155.301021409537  208 155.301021409537  C 208 155.301021409537  167 172  167 172  C 167 172  174 155.301021409537  174 155.301021409537  C 174 155.301021409537  5 155.301021409537  5 155.301021409537  C 2.23857625084603 155.301021409537  0 153.062445158691  0 150.301021409537  Z M 1 150.301021409537  C 1 152.51016040886  2.79086100067683 154.301021409537  5 154.301021409537  C 5 154.301021409537  175.503492625009 154.301021409537  175.503492625009 154.301021409537  C 175.503492625009 154.301021409537  168.853354381501 170.165380859816  168.853354381501 170.165380859816  C 168.853354381501 170.165380859816  207.804164093474 154.301021409537  207.804164093474 154.301021409537  C 207.804164093474 154.301021409537  215 154.301021409537  215 154.301021409537  C 217.209138999323 154.301021409537  219 152.51016040886  219 150.301021409537  C 219 150.301021409537  219 5  219 5  C 219 2.79086100067683  217.209138999323 1  215 1  C 215 1  5 1  5 1  C 2.79086100067683 1  1 2.79086100067683  1 5  C 1 5  1 150.301021409537  1 150.301021409537  Z " fill-rule="nonzero" fill="#e9e9e9" stroke="none" />
  </g>
</svg>