<?xml version="1.0" encoding="utf-8"?>
<svg version="1.1" xmlns:xlink="http://www.w3.org/1999/xlink" width="21px" height="14px" xmlns="http://www.w3.org/2000/svg">
  <g transform="matrix(1 0 0 1 -766 -381 )">
    <path d="M 19.9791666666666 14  L 10.9375 14  L 5.69859724620528 14  L 0.729166666666742 14  C 0.531684027777828 14  0.360785590277942 13.8996074879221  0.216471354166629 13.6988224637693  C 0.0721571180554292 13.4980374396135  0 13.2602657004825  0 12.985507246378  C 0 12.7107487922704  0.0721571180554292 12.4729770531395  0.216471354166629 12.2721920289867  L 5.32063802083337 5.17074275362353  C 5.46495225694457 4.96995772946923  5.63585069444457 4.86956521739131  5.83333333333326 4.86956521739131  C 6.03081597222206 4.86956521739131  6.20171440972206 4.96995772946923  6.34602864583337 5.17074275362353  L 7.74656590897837 7.11932020219172  L 12.1155598958334 0.461805555555372  C 12.3175998263893 0.153935185184594  12.5568576388893 0  12.8333333333334 0  C 13.1098090277774 0  13.3490668402774 0.153935185184594  13.5511067708334 0.461805555555372  L 20.6969401041666 11.3506944444446  C 20.8989800347226 11.6585648148139  21 12.0231481481478  21 12.4444444444446  C 21 12.86574074074  20.8989800347226 13.2303240740738  20.6969401041666 13.5381944444446  C 20.4949001736107 13.8460648148139  20.2556423611106 14  19.9791666666666 14  Z " fill-rule="nonzero" fill="#cccccc" stroke="none" transform="matrix(1 0 0 1 766 381 )" />
  </g>
</svg>