<?xml version="1.0" encoding="utf-8"?>
<svg version="1.1" xmlns:xlink="http://www.w3.org/1999/xlink" width="14px" height="10px" xmlns="http://www.w3.org/2000/svg">
  <g transform="matrix(1 0 0 1 -6 -8 )">
    <path d="M 13.6243742157965 1.65962514983175  C 14.0123574632717 1.28025759491402  14.0083885904868 0.670670648985833  13.617294597299 0.296997722748984  C 13.2262006041111 -0.0776070386855281  12.5936494885909 -0.0737761104937817  12.2065243370093 0.304711402928206  L 4.93320561042299 7.40232247854419  L 1.71359876352892 4.20886342866788  C 1.32845806392913 3.82654498705415  0.696925987947793 3.81981493577359  0.302828503239311 4.18960514011769  C -0.092287989829515 4.56037897336046  -0.101244743759594 5.17094951809167  0.282876916301461 5.55135249560954  L 4.21189139322121 9.4487744700682  C 4.21387581402439 9.45167356306274  4.21789831390527 9.45167356306274  4.21988276588706 9.45457265605683  C 4.22186718669013 9.4564881201527  4.22288622622898 9.46037084204545  4.22487064703216 9.46228633623605  C 4.28772886818786 9.52197666598204  4.3655507951363 9.55857777898655  4.43940384929977 9.59906158378863  C 4.47828798363662 9.61930350123748  4.50923440358235 9.65300549115227  4.54913757745805 9.66838105780971  C 4.66986613862423 9.71652677918473  4.79858604127764 9.74059962482488  4.92628693557072 9.74059962482488  C 5.05302241742095 9.74059962482488  5.17970427217506 9.71652677918473  5.29941379380239 9.67029652190558  C 5.33829792813935 9.65486919164186  5.36827893564214 9.62406626462598  5.40517864917592 9.60480797607579  C 5.47999708460361 9.56437593487999  5.55781901155206 9.52870668716787  5.6216962722466 9.46803272852321  C 5.62368069304978 9.46611726442779  5.62469973258862 9.46223454253504  5.62770319293065 9.46031904834399  C 5.62968761373384 9.45741995534991  5.63269107407586 9.45648809005752  5.6356945655964 9.45452086235537  L 10.8147852986705 4.40106097690386  L 13.6243742157965 1.65962514983175  Z " fill-rule="nonzero" fill="#ffffff" stroke="none" transform="matrix(1 0 0 1 6 8 )" />
  </g>
</svg>