<?xml version="1.0" encoding="utf-8"?>
<svg version="1.1" xmlns:xlink="http://www.w3.org/1999/xlink" width="400px" height="230px" xmlns="http://www.w3.org/2000/svg">
  <g transform="matrix(1 0 0 1 -195 -1503 )">
    <path d="M 196 1508  A 4 4 0 0 1 200 1504 L 590 1504  A 4 4 0 0 1 594 1508 L 594 1728  A 4 4 0 0 1 590 1732 L 200 1732  A 4 4 0 0 1 196 1728 L 196 1508  Z " fill-rule="nonzero" fill="#ffffff" stroke="none" />
    <path d="M 195.5 1508  A 4.5 4.5 0 0 1 200 1503.5 L 590 1503.5  A 4.5 4.5 0 0 1 594.5 1508 L 594.5 1728  A 4.5 4.5 0 0 1 590 1732.5 L 200 1732.5  A 4.5 4.5 0 0 1 195.5 1728 L 195.5 1508  Z " stroke-width="1" stroke-dasharray="9,4" stroke="#0079fe" fill="none" stroke-opacity="0.8" stroke-dashoffset="0.5" />
  </g>
</svg>