<?xml version="1.0" encoding="utf-8"?>
<svg version="1.1" xmlns:xlink="http://www.w3.org/1999/xlink" width="400px" height="230px" xmlns="http://www.w3.org/2000/svg">
  <g transform="matrix(1 0 0 1 -196 -1503 )">
    <path d="M 197 1508  A 4 4 0 0 1 201 1504 L 591 1504  A 4 4 0 0 1 595 1508 L 595 1728  A 4 4 0 0 1 591 1732 L 201 1732  A 4 4 0 0 1 197 1728 L 197 1508  Z " fill-rule="nonzero" fill="#f9f9f9" stroke="none" />
    <path d="M 196.5 1508  A 4.5 4.5 0 0 1 201 1503.5 L 591 1503.5  A 4.5 4.5 0 0 1 595.5 1508 L 595.5 1728  A 4.5 4.5 0 0 1 591 1732.5 L 201 1732.5  A 4.5 4.5 0 0 1 196.5 1728 L 196.5 1508  Z " stroke-width="1" stroke-dasharray="9,4" stroke="#d7dde4" fill="none" stroke-dashoffset="0.5" />
  </g>
</svg>