<?xml version="1.0" encoding="utf-8"?>
<svg version="1.1" xmlns:xlink="http://www.w3.org/1999/xlink" width="400px" height="230px" xmlns="http://www.w3.org/2000/svg">
  <g transform="matrix(1 0 0 1 -195 -1656 )">
    <path d="M 196 1661  A 4 4 0 0 1 200 1657 L 590 1657  A 4 4 0 0 1 594 1661 L 594 1881  A 4 4 0 0 1 590 1885 L 200 1885  A 4 4 0 0 1 196 1881 L 196 1661  Z " fill-rule="nonzero" fill="#ffffff" stroke="none" />
    <path d="M 195.5 1661  A 4.5 4.5 0 0 1 200 1656.5 L 590 1656.5  A 4.5 4.5 0 0 1 594.5 1661 L 594.5 1881  A 4.5 4.5 0 0 1 590 1885.5 L 200 1885.5  A 4.5 4.5 0 0 1 195.5 1881 L 195.5 1661  Z " stroke-width="1" stroke-dasharray="9,4" stroke="#0079fe" fill="none" stroke-opacity="0.8" stroke-dashoffset="0.5" />
  </g>
</svg>