<?xml version="1.0" encoding="utf-8"?>
<svg version="1.1" xmlns:xlink="http://www.w3.org/1999/xlink" width="400px" height="230px" xmlns="http://www.w3.org/2000/svg">
  <g transform="matrix(1 0 0 1 -195 -1558 )">
    <path d="M 196 1563  A 4 4 0 0 1 200 1559 L 590 1559  A 4 4 0 0 1 594 1563 L 594 1783  A 4 4 0 0 1 590 1787 L 200 1787  A 4 4 0 0 1 196 1783 L 196 1563  Z " fill-rule="nonzero" fill="#f9f9f9" stroke="none" />
    <path d="M 195.5 1563  A 4.5 4.5 0 0 1 200 1558.5 L 590 1558.5  A 4.5 4.5 0 0 1 594.5 1563 L 594.5 1783  A 4.5 4.5 0 0 1 590 1787.5 L 200 1787.5  A 4.5 4.5 0 0 1 195.5 1783 L 195.5 1563  Z " stroke-width="1" stroke-dasharray="9,4" stroke="#d7dde4" fill="none" stroke-dashoffset="0.5" />
  </g>
</svg>