<?xml version="1.0" encoding="utf-8"?>
<svg version="1.1" xmlns:xlink="http://www.w3.org/1999/xlink" width="213px" height="48px" xmlns="http://www.w3.org/2000/svg">
  <g transform="matrix(1 0 0 1 -141 -545 )">
    <path d="M 141 577.8  C 141 577.8  141 550  141 550  C 141 547.238576250846  143.238576250846 545  146 545  C 146 545  349 545  349 545  C 351.761423749154 545  354 547.238576250846  354 550  C 354 550  354 577.8  354 577.8  C 354 580.561423749154  351.761423749154 582.8  349 582.8  C 349 582.8  207.0375 582.8  207.0375 582.8  C 207.0375 582.8  196.829166666667 592.75  196.829166666667 592.75  C 196.829166666667 592.75  187.0375 582.8  187.0375 582.8  C 187.0375 582.8  146 582.8  146 582.8  C 143.238576250846 582.8  141 580.561423749154  141 577.8  Z " fill-rule="nonzero" fill="#000000" stroke="none" fill-opacity="0.8" />
  </g>
</svg>