<?xml version="1.0" encoding="utf-8"?>
<svg version="1.1" xmlns:xlink="http://www.w3.org/1999/xlink" width="213px" height="48px" xmlns="http://www.w3.org/2000/svg">
  <g transform="matrix(1 0 0 1 -141 -447 )">
    <path d="M 141 479.8  C 141 479.8  141 452  141 452  C 141 449.238576250846  143.238576250846 447  146 447  C 146 447  349 447  349 447  C 351.761423749154 447  354 449.238576250846  354 452  C 354 452  354 479.8  354 479.8  C 354 482.561423749154  351.761423749154 484.8  349 484.8  C 349 484.8  207.0375 484.8  207.0375 484.8  C 207.0375 484.8  196.829166666667 494.75  196.829166666667 494.75  C 196.829166666667 494.75  187.0375 484.8  187.0375 484.8  C 187.0375 484.8  146 484.8  146 484.8  C 143.238576250846 484.8  141 482.561423749154  141 479.8  Z " fill-rule="nonzero" fill="#000000" stroke="none" fill-opacity="0.8" />
  </g>
</svg>