<?xml version="1.0" encoding="utf-8"?>
<svg version="1.1" xmlns:xlink="http://www.w3.org/1999/xlink" width="213px" height="48px" xmlns="http://www.w3.org/2000/svg">
  <g transform="matrix(1 0 0 1 -141 -392 )">
    <path d="M 141 424.8  C 141 424.8  141 397  141 397  C 141 394.238576250846  143.238576250846 392  146 392  C 146 392  349 392  349 392  C 351.761423749154 392  354 394.238576250846  354 397  C 354 397  354 424.8  354 424.8  C 354 427.561423749154  351.761423749154 429.8  349 429.8  C 349 429.8  207.0375 429.8  207.0375 429.8  C 207.0375 429.8  196.829166666667 439.75  196.829166666667 439.75  C 196.829166666667 439.75  187.0375 429.8  187.0375 429.8  C 187.0375 429.8  146 429.8  146 429.8  C 143.238576250846 429.8  141 427.561423749154  141 424.8  Z " fill-rule="nonzero" fill="#000000" stroke="none" fill-opacity="0.8" />
  </g>
</svg>