<?xml version="1.0" encoding="utf-8"?>
<svg version="1.1" xmlns:xlink="http://www.w3.org/1999/xlink" width="58px" height="58px" xmlns="http://www.w3.org/2000/svg">
  <g transform="matrix(1 0 0 1 -29 -27 )">
    <path d="M 58 27  C 74.24 27  87 39.76  87 56  C 87 72.24  74.24 85  58 85  C 41.76 85  29 72.24  29 56  C 29 39.76  41.76 27  58 27  Z " fill-rule="nonzero" fill="#facd91" stroke="none" />
    <path d="M 58 27.5  C 73.96 27.5  86.5 40.04  86.5 56  C 86.5 71.96  73.96 84.5  58 84.5  C 42.04 84.5  29.5 71.96  29.5 56  C 29.5 40.04  42.04 27.5  58 27.5  Z " stroke-width="1" stroke="#797979" fill="none" />
  </g>
</svg>