<?xml version="1.0" encoding="utf-8"?>
<svg version="1.1" xmlns:xlink="http://www.w3.org/1999/xlink" width="42px" height="40px" xmlns="http://www.w3.org/2000/svg">
  <g transform="matrix(1 0 0 1 -67 -141 )">
    <path d="M 88 141  C 99.76 141  109 149.8  109 161  C 109 172.2  99.76 181  88 181  C 76.24 181  67 172.2  67 161  C 67 149.8  76.24 141  88 141  Z " fill-rule="nonzero" fill="#facd91" stroke="none" />
    <path d="M 88 141.5  C 99.48 141.5  108.5 150.08  108.5 161  C 108.5 171.92  99.48 180.5  88 180.5  C 76.52 180.5  67.5 171.92  67.5 161  C 67.5 150.08  76.52 141.5  88 141.5  Z " stroke-width="1" stroke="#797979" fill="none" />
  </g>
</svg>