<?xml version="1.0" encoding="utf-8"?>
<svg version="1.1" xmlns:xlink="http://www.w3.org/1999/xlink" width="18px" height="19px" xmlns="http://www.w3.org/2000/svg">
  <g transform="matrix(1 0 0 1 -82 -179 )">
    <path d="M 14.9999999941407 8.70849167285157  C 14.9999999941407 12.6375333457031  11.97225 15.8334916728516  8.24999999414069 15.8334916728516  C 4.52774998828113 15.8334916728516  1.49999999414069 12.6375333457031  1.49999999414069 8.70849167285157  C 1.49999999414069 4.77945000000005  4.52774998828113 1.58349167285157  8.24999999414069 1.58349167285157  C 11.97225 1.58349167285157  14.9999999941407 4.77945000000005  14.9999999941407 8.70849167285157  Z M 17.7809999941406 18.7689916728516  C 18.0727148033562 18.4593783617951  18.0727148033562 17.9591883110564  17.7809999941406 17.649575  L 14.5889999999999 14.27945  C 15.7814999999999 12.7697416728515  16.5000000058593 10.8277833271485  16.5000000058593 8.70849167285157  C 16.5000000058593 3.89911667285159  12.8062500117187 0.000158345703059442  8.24999999414069 0.000158327148470663  C 3.69374997656246 0.000158308593761881  0 3.89911665429688  0 8.70849167285157  C 0 13.5178666914063  3.6937499941406 17.416825  8.24999999414069 17.416825  C 10.25775 17.416825  12.0974999941407 16.6584083271484  13.5277500058593 15.3996583271485  L 16.7205000058593 18.7689916728516  C 17.0138178774437 19.0769128480548  17.4876821225563 19.0769128480548  17.7809999941406 18.7689916728516  Z " fill-rule="nonzero" fill="#999999" stroke="none" transform="matrix(1 0 0 1 82 179 )" />
  </g>
</svg>