<?xml version="1.0" encoding="utf-8"?>
<svg version="1.1" xmlns:xlink="http://www.w3.org/1999/xlink" width="17px" height="18px" xmlns="http://www.w3.org/2000/svg">
  <g transform="matrix(1 0 0 1 -886 -976 )">
    <path d="M 14.1666666611329 8.25015000585938  C 14.1666666611329 11.9724000117187  11.307125 15.0001500058594  7.79166666113288 15.0001500058594  C 4.27620832226551 15.0001500058594  1.41666666113288 11.9724000117187  1.41666666113288 8.25015000585938  C 1.41666666113288 4.52790000000005  4.27620832226551 1.50015000585938  7.79166666113288 1.50015000585938  C 11.307125 1.50015000585938  14.1666666611329 4.52790000000005  14.1666666611329 8.25015000585938  Z M 16.7931666611328 17.7811500058594  C 17.0686750920587 17.4878321322269  17.0686750920587 17.0139678736324  16.7931666611328 16.72065  L 13.7784999999999 13.5279  C 14.9047499999999 12.0976500058594  15.5833333388671 10.2578999941406  15.5833333388671 8.25015000585938  C 15.5833333388671 3.6939000058594  12.0947916777343 0.000150011718687892  7.79166666113288 0.000149994140656418  C 3.48854164453121 0.000149976562511256  0 3.69389998828126  0 8.25015000585938  C 0 12.8064000234375  3.48854166113279 16.50015  7.79166666113288 16.50015  C 9.68787499999999 16.50015  11.4254166611328 15.7816499941406  12.7762083388671 14.5891499941407  L 15.7915833388671 17.7811500058594  C 16.0686057731412 18.0728648034203  16.5161442268587 18.0728648034203  16.7931666611328 17.7811500058594  Z " fill-rule="nonzero" fill="#999999" stroke="none" transform="matrix(1 0 0 1 886 976 )" />
  </g>
</svg>