<?xml version="1.0" encoding="utf-8"?>
<svg version="1.1" xmlns:xlink="http://www.w3.org/1999/xlink" width="19px" height="20px" xmlns="http://www.w3.org/2000/svg">
  <g transform="matrix(1 0 0 1 -1174 -975 )">
    <path d="M 19 10  C 19 4.48572580357177  14.7385604866068 0  9.5 0  C 4.2620961160713 0  0 4.48572580357177  0 10  C 0 15.5142741964282  4.26143951339318 20  9.5 20  C 14.7379038839287 20  19 15.5142741964282  19 10  Z M 10.461545108259 10.0028414062508  L 13.3753259029017 13.0800007589287  C 13.6399696718751 13.3599938392854  13.6392765959821 13.8114308705362  13.3739762455358 14.0900032589279  C 13.2416726082589 14.2285791071427  13.0686236618305 14.2985773660712  12.8949181339287 14.2985773660712  C 12.720519530134 14.2985773660712  12.5468140022322 14.2285790848209  12.4144738705357 14.088582544643  L 9.49660760937484 11.0078522321428  L 6.56925720982149 14.0564440178568  C 6.4369535725446 14.1935991517857  6.26456122879472 14.2628678794636  6.09220535825882 14.2628678794636  C 5.91715015178552 14.2628678794636  5.74275156919641 14.1921400669644  5.60975483482134 14.0507228125007  C 5.34646072321425 13.7700001785715  5.3485034564731 13.3185631473216  5.61518997991057 13.0407203124996  L 8.53914796763354 9.99642904017855  L 5.62602377566982 6.91999921874958  C 5.36138000669641 6.64069727678543  5.36207308258938 6.18856910714294  5.6273734330357 5.90999671875034  C 5.89271027790164 5.63069477678619  6.32153896316991 5.63215388392837  6.58687580803542 5.91141741071442  L 9.50404899330372 8.99141816964311  L 12.4313993928571 5.94286477678543  C 12.6973928191964 5.66502194196437  13.1276076562501 5.66786332589254  13.3909017678572 5.9485859821425  C 13.6548524609376 6.22930861607074  13.652153146205 6.68143678571414  13.3854666227676 6.95858848214266  L 10.461545108259 10.0028414062508  Z " fill-rule="nonzero" fill="#999999" stroke="none" transform="matrix(1 0 0 1 1174 975 )" />
  </g>
</svg>