<?xml version="1.0" encoding="utf-8"?>
<svg version="1.1" xmlns:xlink="http://www.w3.org/1999/xlink" width="20px" height="20px" xmlns="http://www.w3.org/2000/svg">
  <g transform="matrix(1 0 0 1 -699 -88 )">
    <path d="M 20 10  C 20 4.48572580357177  15.5142741964282 0  10 0  C 4.48641696428558 0  0 4.48572580357177  0 10  C 0 15.5142741964282  4.48572580357177 20  10 20  C 15.5135830357144 20  20 15.5142741964282  20 10  Z M 11.0121527455358 10.0028414062508  L 14.0792904241071 13.0800007589287  C 14.3578628125001 13.3599938392854  14.3571332589286 13.8114308705362  14.077869732143 14.0900032589279  C 13.9386027455357 14.2285791071427  13.7564459598216 14.2985773660712  13.5735980357144 14.2985773660712  C 13.3900205580358 14.2985773660712  13.2071726339286 14.2285790848209  13.0678672321428 14.088582544643  L 9.99642906249983 11.0078522321428  L 6.91500758928578 14.0564440178568  C 6.77574060267852 14.1935991517857  6.59427497767865 14.2628678794636  6.4128477455356 14.2628678794636  C 6.22857910714265 14.2628678794636  6.0450016517857 14.1921400669644  5.90500508928562 14.0507228125007  C 5.62785339285711 13.7700001785715  5.63000363839274 13.3185631473216  5.9107262946427 13.0407203124996  L 8.9885768080353 9.99642904017855  L 5.92213029017876 6.91999921874958  C 5.6435579017857 6.64069727678543  5.64428745535724 6.18856910714294  5.92355098214284 5.90999671875034  C 6.20285292410699 5.63069477678619  6.65425154017885 5.63215388392837  6.93355348214254 5.91141741071442  L 10.0042620982144 8.99141816964311  L 13.0856835714285 5.94286477678543  C 13.3656766517856 5.66502194196437  13.8185343750001 5.66786332589254  14.0956860714286 5.9485859821425  C 14.3735289062502 6.22930861607074  14.3706875223211 6.68143678571414  14.0899648660711 6.95858848214266  L 11.0121527455358 10.0028414062508  Z " fill-rule="nonzero" fill="#999999" stroke="none" transform="matrix(1 0 0 1 699 88 )" />
  </g>
</svg>