<?xml version="1.0" encoding="utf-8"?>
<svg version="1.1" xmlns:xlink="http://www.w3.org/1999/xlink" width="25px" height="29px" xmlns="http://www.w3.org/2000/svg">
  <g transform="matrix(1 0 0 1 -159 -1509 )">
    <path d="M 24.4246886328773 18.7302617187502  C 24.4246886328773 18.7302617187502  24.5 3.79577148437511  24.5 3.79577148437511  L 12.4999715484068 0  L 1 3.79461035156237  L 1 18.5692041015627  C 0.560829506198843 18.5692041015627  0.574201754989076 18.72912890625  0.574201754989076 18.72912890625  C 0.595938772171507 18.8262958984374  1.05790729048363 21.1737382812498  3.36655491513125 23.4350302734374  C 5.14179207101517 25.1776640624998  9.49562556755006 27.45450390625  11.3534861500016 28.4263437499999  C 11.6453425927463 28.5796132812502  11.8634240543995 28.6922998046875  11.9878428713348 28.7617695312501  C 11.9878428713348 28.7617695312501  12.4290986298187 29  12.4290986298187 29  C 12.4290986298187 29  12.9708738669746 28.72619921875  12.9708738669746 28.72619921875  C 14.0565866623673 28.195873046875  19.5798090898098 25.4497939453126  21.631823344058 23.4378623046873  C 23.9432307732432 21.1748427734374  24.4051139367758 18.8279951171876  24.4246886328773 18.7302617187502  Z M 19.7352728725355 11.4237275689075  C 19.7352728725355 11.4237275689075  11.7890984311965 18.7557402755451  11.7890984311965 18.7557402755451  C 11.6126211886709 18.9185856501354  11.3813190871341 19  11.1500350563141 19  C 10.9187510254941 19  10.6875031537722 18.9186023249968  10.5110078581943 18.7557902838289  C 10.5110078581943 18.7557902838289  6.26478134668264 14.8383768682679  6.26478134668264 14.8383768682679  C 5.91179077319111 14.5127194362099  5.91173654337626 13.9846519923231  6.26463674561933 13.6589278282199  C 6.61759117767724 13.3332036804168  7.1898632401477 13.3331536395331  7.54281767220573 13.6587943967302  C 7.54281767220573 13.6587943967302  11.1499808441637 16.986641768649  11.1499808441637 16.986641768649  C 11.1499808441637 16.986641768649  18.4571281050472 10.2442451628372  18.4571281050472 10.2442451628372  C 18.8100825371051 9.91857103961775  19.3823545995756 9.91858773077865  19.7353090316335 10.2442785288595  C 20.0882453929747 10.5699693269403  20.0882273045934 11.0980367708266  19.7352728725355 11.4237275689075  Z " fill-rule="nonzero" fill="#fde4c7" stroke="none" transform="matrix(1 0 0 1 159 1509 )" />
  </g>
</svg>