<?xml version="1.0" encoding="utf-8"?>
<svg version="1.1" xmlns:xlink="http://www.w3.org/1999/xlink" width="38px" height="29px" xmlns="http://www.w3.org/2000/svg">
  <defs>
    <linearGradient gradientUnits="userSpaceOnUse" x1="19" y1="0" x2="19" y2="46.3530851824671" id="LinearGradient130">
      <stop id="Stop131" stop-color="#e7c296" offset="0" />
      <stop id="Stop132" stop-color="#f6bf8d" offset="1" />
    </linearGradient>
  </defs>
  <g transform="matrix(1 0 0 1 -373 -531 )">
    <path d="M 18.9985115841027 29  L 33.786054172589 28.9962070036797  C 33.786054172589 28.9962070036797  36.3089743125233 11.4156690555153  36.3089743125233 11.4156690555153  C 37.1473837492697 11.0515414086924  37.7896515287956 10.2929421444783  37.9550258672365 9.33710707156843  C 38.2703908847282 7.60750074915995  36.8897074544898 5.9689263384571  34.9898255198442 6.06375124648389  C 33.9514285110299 6.11685319497906  32.9976416288596 6.7692485622033  32.5784369104864 7.70991164982888  C 32.1130812139436 8.76057163076553  32.3399901899438 9.83398958962857  32.9630283952324 10.603967842806  C 32.9630283952324 10.603967842806  32.666892951978 11.829105654512  32.666892951978 11.829105654512  C 32.0630843209267 14.3324832264188  29.7978404757723 16.096226515717  27.1864642943465 16.096226515717  C 24.2481853508865 16.096226515717  21.8060294227489 13.8697376752482  21.5714286170538 10.9832674749132  C 21.5714286170538 10.9832674749132  21.2906768331892 7.51646883745411  21.2906768331892 7.51646883745411  C 22.6444388594954 6.62890769832347  23.4443891477672 4.98274729497871  23.0559517481737 3.19245303143316  C 22.7213571564446 1.65628952139946  21.4598970864774 0.415979724409226  19.8984556584085 0.0935750371181712  C 19.5937720761505 0.030200271390413  19.2931627351102 0  18.9996377060506 0  C 16.7107329089945 0  14.85261537854 1.8364369636995  14.85261537854 4.09897915216925  C 14.85261537854 5.52514576889189  15.5948769441 6.78442054748757  16.7178840795584 7.51646883745411  C 16.7178840795584 7.51646883745411  16.4371322956938 10.9832674749132  16.4371322956938 10.9832674749132  C 16.2025314899987 13.8697376752482  13.7603755618612 16.096226515717  10.8220966184012 16.096226515717  C 8.2145663518229 16.096226515717  5.94547659182103 14.3286902300979  5.34166796076966 11.829105654512  C 5.34166796076966 11.829105654512  5.0455325175152 10.603967842806  5.0455325175152 10.603967842806  C 5.66857072280391 9.83778258594975  5.89547969880402 8.76057163076553  5.43012400226132 7.70991164982888  C 5.01476519873552 6.7692485622033  4.0609783165653 6.11306019865788  3.01873539290341 6.06375124648389  C 1.11885345825783 5.96892633845732  -0.261829971980546 7.60750074915995  0.0419973009688874 9.33710707156843  C 0.211217554257132 10.2929421444783  0.853485333783055 11.0515414086924  1.68804885568204 11.4156690555153  C 1.68804885568204 11.4156690555153  4.21096899561621 28.9962070036797  4.21096899561621 29  L 18.9985115841027 29  Z M 36.3089743125233 11.4194620518356  C 36.3089743125233 11.4194620518356  33.786054172589 29  34.9898255198443 6.06375124648321  C 36.8897074544898 5.96892633845641  38.2703908847283 7.60750074915904  37.9550258672365 9.34090006788847  C 37.7896515287956 10.2967351407985  37.1473837492697 11.0553344050127  36.3089743125233 11.4194620518356  Z M 19.8984556584086 0.0935750371172617  C 19.5946283854591 0.0290940996590052  19.2946470273572 0.0063361217326019  34.9898255198443 6.06375124648321  C 33.9514285110299 6.11685319497815  32.9976416288596 6.76924856220239  32.5784369104864 7.70991164982797  C 32.1130812139437 8.76057163076462  32.3399901899438 9.83398958962789  32.9630283952325 10.6039678428053  C 32.9630283952325 10.6039678428053  32.666892951978 11.8291056545113  32.666892951978 11.8291056545113  C 32.0630843209267 14.3324832264182  29.7978404757723 16.0962265157161  27.1864642943465 16.0962265157161  C 24.2481853508866 16.0962265157161  21.806029422749 13.8697376752475  21.5714286170539 10.9832674749123  C 21.5714286170539 10.9832674749123  21.2906768331893 7.51646883745343  21.2906768331893 7.51646883745343  C 22.6444388594955 6.62890769832279  23.4443891477673 4.9827472949778  23.0559517481738 3.19245303143225  C 22.7213571564447 1.65628952139855  21.4598970864776 0.415979724408317  19.8984556584086 0.0935750371172617  Z " fill-rule="nonzero" fill="url(#LinearGradient130)" stroke="none" transform="matrix(1 0 0 1 373 531 )" />
  </g>
</svg>