<?xml version="1.0" encoding="utf-8"?>
<svg version="1.1" xmlns:xlink="http://www.w3.org/1999/xlink" width="10px" height="12px" xmlns="http://www.w3.org/2000/svg">
  <defs>
    <mask fill="white" id="clip1262">
      <path d="M 4.42699666912719 2.44584630214679  L 0 1.95502701857305  L 0 9.88306360682256  L 4.42699666912726 9.40649035216494  L 10 12.8386385333428  L 10 -0.778654286810796  L 4.42699666912719 2.44584630214679  Z " fill-rule="evenodd" />
    </mask>
  </defs>
  <g transform="matrix(1 0 0 1 -131 -217 )">
    <path d="M 4.42699666912719 2.44584630214679  L 0 1.95502701857305  L 0 9.88306360682256  L 4.42699666912726 9.40649035216494  L 10 12.8386385333428  L 10 -0.778654286810796  L 4.42699666912719 2.44584630214679  Z " fill-rule="nonzero" fill="#ffffff" stroke="none" fill-opacity="0" transform="matrix(1 0 0 1 131 217 )" />
    <path d="M 4.42699666912719 2.44584630214679  L 0 1.95502701857305  L 0 9.88306360682256  L 4.42699666912726 9.40649035216494  L 10 12.8386385333428  L 10 -0.778654286810796  L 4.42699666912719 2.44584630214679  Z " stroke-width="2" stroke="#fde4c7" fill="none" transform="matrix(1 0 0 1 131 217 )" mask="url(#clip1262)" />
  </g>
</svg>