<?xml version="1.0" encoding="utf-8"?>
<svg version="1.1" xmlns:xlink="http://www.w3.org/1999/xlink" width="3px" height="15px" xmlns="http://www.w3.org/2000/svg">
  <g transform="matrix(1 0 0 1 -280 -1282 )">
    <path d="M 2.99944340034522 0.495326794998414  C 2.99931637979558 0.10287982454378  2.90625530158652 0.00174884384208745  2.5512852959899 0.000940566201166198  C 1.85146429266862 -0.000485813853353942  1.15160092189077 -5.78859013813915E-05  0.451779918910401 0.000702813093666908  C 0.0761484667597958 0.00113074104563946  0.000319369243809465 0.0855729516031367  0.000192348694169903 0.504693444849641  C -0.000146344475423935 2.83912094430891  6.53281445303411E-05 5.17354839744374  6.53281445303411E-05 7.50797589613731  C 6.53281445303411E-05 9.85020097616296  -0.000146386067296384 12.1923309452213  0.000319368902892223 14.5345560260126  C 0.000404062905996629 14.9160198855145  0.0736081430417641 14.9983225030194  0.416807917599415 14.999035669693  C 1.13043143575285 15.0005095816861  1.84418197411501 15.0000341217956  2.55793251281808 14.9993209547391  C 2.91163235723752 14.998940605433  2.9993163801365 14.902992198679  2.99931637979558 14.5018441664009  C 3.00020548068751 9.8330367461282  3.00020548068751 5.16413421527108  2.99944340034522 0.495326794998414  Z " fill-rule="nonzero" fill="#42bd56" stroke="none" transform="matrix(1 0 0 1 280 1282 )" />
  </g>
</svg>