<?xml version="1.0" encoding="utf-8"?>
<svg version="1.1" xmlns:xlink="http://www.w3.org/1999/xlink" width="9px" height="17px" xmlns="http://www.w3.org/2000/svg">
  <g transform="matrix(1 0 0 1 -254 -1281 )">
    <path d="M 2.39281035590011E-05 3.05852249616987  C 0.0140712516123074 6.42326753809402  0.00829522503127578 9.78814963627838  0.00376681074109797 13.1529860638796  C 0.00270393128758428 14.0064614475737  0.393764921356308 14.6148401427017  1.15583244262348 14.9815942392306  C 2.40710739638561 15.5837142189166  3.73961650793967 15.7349294522851  5.11177241008699 15.6227286467188  C 5.28034033907301 15.6090233304146  5.41323546665134 15.585313139587  5.46193899652747 15.8151968870993  C 5.61562782984348 16.5394311604623  6.01121723457447 16.8694093627851  6.75401587476102 16.9552046034596  C 7.37293002195017 17.0266092884633  7.99272213492793 16.9903815766274  8.61209840740401 16.9937621904257  C 8.86582824397519 16.9951327133012  8.98643198036623 16.8699118742043  8.99387150587683 16.6180539584091  C 9.00251244893468 16.3267704445589  9.00103377362828 16.034847317783  8.99548880969073 15.7433353608919  C 8.98971278273763 15.4389860987851  8.87539339295819 15.3331354395841  8.56006788115704 15.3311253041506  C 8.20467973714474 15.3287497135586  7.84919915936851 15.3325872127032  7.49376482098469 15.3288867701867  C 7.37561015982465 15.3276989752587  7.25089393968682 15.3423636441858  7.13468003447136 15.2500355737095  C 7.18647954309569 15.1614992876519  7.26937728911474 15.1565196637946  7.33476204098167 15.1237639966803  C 8.1206730523632 14.7292794829673  8.67766807256376 14.1658084762926  8.6793777654928 13.2360859293863  C 8.68575450159159 9.80400214464407  8.68339790514534 6.37187264480826  8.68067161754809 2.93974314497245  C 8.68011710314599 2.27512694518737  8.39565872070315 1.74637607121258  7.86634250739047 1.33736394483276  C 7.46220459448176 1.02479150169825  6.99046391600237 0.872479814200688  6.50601596044106 0.746528021011272  C 5.33925601111895 0.443183826620952  4.15456727216392 0.45949313204801  2.96964747130957 0.584028731778517  C 2.33479143941071 0.650819292226061  1.71541521195547 0.816242354421547  1.16391896132095 1.1453525456559  C 0.442699603917589 1.57574498699705  -0.00376514853340382 2.16799710464534  2.39281035590011E-05 3.05852249616987  Z M 3.29287449810155 13.1958379911941  C 3.2838176695212 13.0993525928552  3.28464939554536 13.0017251146817  3.28464939554536 12.9046458188786  C 3.28432598880761 9.68334971537729  3.28423355541577 6.46191655561574  3.28525014971191 3.24052902119115  C 3.28525014971191 3.12129282915794  3.28469563530982 2.99963533180653  3.30747633601237 2.88350568519331  C 3.35548676799971 2.63845475696689  3.49854770831385 2.46225015142977  3.74419111660134 2.3839014222292  C 4.13585277042284 2.2591374243359  4.53342912509788 2.25351823169535  4.92790950028055 2.36247543594868  C 5.22558347983585 2.44475296131827  5.3493755390694 2.60492237542053  5.36439321822604 2.91644408025491  C 5.37636115765474 3.16259146224297  5.37067756483762 3.40956113985794  5.37067756483762 3.65616536304992  C 5.37113964510374 5.12857254290839  5.37086238808874 6.60102539371792  5.37086238808874 8.07343257320872  C 5.37076995395276 9.71030346300722  5.37123203421885 11.347128681487  5.37067756483762 12.9839995712857  C 5.37040030782262 13.6072713783815  5.20686911352942 13.7940290853228  4.57686494767938 13.867489576711  C 4.24291745831488 13.9064583339298  3.91211214169806 13.8898292446631  3.61185050342507 13.7102439804496  C 3.41629691120497 13.593246322748  3.31380687773964 13.4177269558418  3.29287449810155 13.1958379911941  Z " fill-rule="nonzero" fill="#42bd56" stroke="none" transform="matrix(1 0 0 1 254 1281 )" />
  </g>
</svg>