<?xml version="1.0" encoding="utf-8"?>
<svg version="1.1" xmlns:xlink="http://www.w3.org/1999/xlink" width="37px" height="27px" xmlns="http://www.w3.org/2000/svg">
  <defs>
    <linearGradient gradientUnits="userSpaceOnUse" x1="18" y1="0" x2="24.5197872721438" y2="32.5464950346679" id="LinearGradient163">
      <stop id="Stop164" stop-color="#e7c296" offset="0" />
      <stop id="Stop165" stop-color="#f6bf8d" offset="1" />
    </linearGradient>
  </defs>
  <g transform="matrix(1 0 0 1 -200 -439 )">
    <path d="M 32.1126627591361 0  C 32.1126627591361 0  3.88733724086385 0  3.88733724086385 0  C 1.77466358825078 0  0 1.70491773254872  0 3.9213236050317  C 0 3.9213236050317  0 22.0786763949683  0 22.0786763949683  C 0 24.209820813475  1.69014110078584 26  3.88733724086385 26  C 3.88733724086385 26  32.1126627591361 26  32.1126627591361 26  C 34.2253364117492 26  36 24.2950822674513  36 22.0786763949683  C 36 22.0786763949683  36 3.9213236050317  36 3.9213236050317  C 36 1.79017918652501  34.2253545675441 0  32.1126627591361 0  Z " fill-rule="nonzero" fill="url(#LinearGradient163)" stroke="none" transform="matrix(1 0 0 1 200 439 )" />
  </g>
</svg>