<?xml version="1.0" encoding="utf-8"?>
<svg version="1.1" xmlns:xlink="http://www.w3.org/1999/xlink" width="12px" height="16px" xmlns="http://www.w3.org/2000/svg">
  <g transform="matrix(1 0 0 1 -176 -1281 )">
    <path d="M 0.659901634219225 0.00539840018040238  C 0.984545814670151 -0.0233930669212815  1.30918994756578 0.0629813343837702  1.57972675668234 0.264521553485561  C 1.57972675668234 0.264521553485561  11.1296759425422 6.54106016701273  11.1296759425422 6.54106016701273  C 11.5895885037737 6.77139185321621  11.9142326842247 7.20326375852148  11.9953936936709 7.75030153223347  C 12.0495010650053 8.29733930594547  11.6166421894409 8.72921121125074  11.2378906376556 9.04591729875926  C 8.12671740414816 11.2340683936073  4.98849048497353 13.451010904947  1.87731725146608 15.6679534668966  C 1.52561938534796 15.9558680873035  1.03865313844922 16.0710339051002  0.60579426288485 15.9558680366935  C 0.254096396766738 15.6967448833883  0.0647206446517383 15.2648729780831  0.0917743303189216 14.8042096056761  C 0.0917743303189216 14.8042096056761  0.0917743303189216 9.33383191916611  0.0917743303189216 9.33383191916611  C 0.0376669589845496 7.28963815982652  0.0917743303189216 5.21665293338525  0.0647206446517356 3.17245917404567  C 0.0106132733173636 2.48146411543525  -0.0164404123498197 1.79046900621483  0.010613320872661 1.07068248050272  C -0.043494050461711 0.610019108095771  0.254096444322032 0.178147152180512  0.659901634219217 0.00539840018040526  Z " fill-rule="nonzero" fill="#ffffff" stroke="none" transform="matrix(1 0 0 1 176 1281 )" />
  </g>
</svg>