<?xml version="1.0" encoding="utf-8"?>
<svg version="1.1" xmlns:xlink="http://www.w3.org/1999/xlink" width="31px" height="31px" xmlns="http://www.w3.org/2000/svg">
  <defs>
    <mask fill="white" id="clip152">
      <path d="M 15.4999999802047 0  C 6.94223202525416 0  0 6.93461161170683  0 15.5  C 0 24.0577679440213  6.94223206484479 31  15.4999999802047 31  C 24.0577679351552 31  31 24.0577679440213  31 15.5  C 31 6.93461161170683  24.0577679351552 0  15.4999999802047 0  Z " fill-rule="evenodd" />
    </mask>
  </defs>
  <g transform="matrix(1 0 0 1 -288 -533 )">
    <path d="M 15.4999999802047 0  C 6.94223202525416 0  0 6.93461161170683  0 15.5  C 0 24.0577679440213  6.94223206484479 31  15.4999999802047 31  C 24.0577679351552 31  31 24.0577679440213  31 15.5  C 31 6.93461161170683  24.0577679351552 0  15.4999999802047 0  Z " fill-rule="nonzero" fill="#be8649" stroke="none" transform="matrix(1 0 0 1 288 533 )" />
    <path d="M 15.4999999802047 0  C 6.94223202525416 0  0 6.93461161170683  0 15.5  C 0 24.0577679440213  6.94223206484479 31  15.4999999802047 31  C 24.0577679351552 31  31 24.0577679440213  31 15.5  C 31 6.93461161170683  24.0577679351552 0  15.4999999802047 0  Z " stroke-width="1" stroke="#be8649" fill="none" transform="matrix(1 0 0 1 288 533 )" mask="url(#clip152)" />
  </g>
</svg>