<?xml version="1.0" encoding="utf-8"?>
<svg version="1.1" xmlns:xlink="http://www.w3.org/1999/xlink" width="34px" height="36px" xmlns="http://www.w3.org/2000/svg">
  <g transform="matrix(1 0 0 1 -171 -1271 )">
    <path d="M 1.10548728622788 2.43090078257105  C 1.75744129488365 1.15627421512722  2.97631191296122 0.241868219470694  4.42194909508487 0.0479033186810858  C 5.69751132926064 -0.0906430251092913  7.00141939639882 0.075612597180703  8.19194413168732 0.491251677259539  C 10.8281060989261 1.32252988612492  13.4075764002401 2.37548222557182  15.9020092026668 3.56698100622451  C 20.0971916838789 5.58975794703487  24.1222991673165 7.94504613242522  27.9773317028062 10.5497178243121  C 29.678081331765 11.6580887694659  31.2654476787008 12.9327152882021  32.682739027862 14.3735975266436  C 33.4764222013299 15.2602942438005  34.1000303770232 16.3686651889543  33.9866470950002 17.5601639208993  C 33.8165721470523 19.0010461106332  32.7961223597117 20.1371263342866  31.7756725723711 21.1069508869424  C 27.5804900911589 24.9862490975654  22.9601202649904 28.4221989983177  17.9996004432728 31.3316726562849  C 15.4484759749213 32.827973403018  12.7272765586219 34.0471814134626  9.92103959360854 35.0170059661183  C 8.10690663280005 35.6266099956945  6.20773622293094 36.1530861410641  4.2802199800994 35.9591212402745  C 3.11804107777333 35.8759934047756  2.04089962450787 35.3772264891979  1.24721640121334 34.5736576075399  C 0.595262392557574 33.8255072341734  0.170074947947887 32.9388105170165  0 31.9966951941526  C 0 31.9966951941526  0.0566916659248449 31.9135673586538  0.0566916659248449 31.9135673586538  C 0.907066505317573 31.7196024578642  1.72909546192123 31.4702190000753  2.57947030131395 31.2762540992857  C 6.12269872404367 30.3895573821288  9.55254386475035 29.114930814685  12.8123140076825 27.5077929539534  C 16.3271965974498 25.8452365849304  19.6720042392692 23.9055874309112  22.8467369331407 21.6888455893112  C 23.8671867204813 20.9406952159447  25.0010198396716 20.1925448425781  25.5962821824026 19.0010461106332  C 25.9931237442232 18.1420586232682  25.936432128125 17.1445247921128  25.3978614014923 16.3409559104547  C 24.7742531759723 15.3988406362986  23.9522242193686 14.6229809844324  22.9884660481262 13.9856676763567  C 21.9113245948607 13.2375173029901  20.7774915254971 12.5447854866229  19.6153125733444 11.9074721785471  C 17.4043380507153 10.6051363326036  15.0799801962364 9.4967654361575  12.7272765087952 8.38839453971137  C 10.0344229254582 7.11376797226754  7.25653179340732 6.03310630561332  4.39360326212245 5.14640958845641  C 3.11804102794668 4.7861890166691  1.84247879377092 4.39825921508988  0.566916559595153 4.06574792180219  C 0.708645674580616 3.51156244922527  0.878720672355149 2.95737697664835  1.10548728622788 2.43090078257105  Z " fill-rule="nonzero" fill="#10abf2" stroke="none" transform="matrix(1 0 0 1 171 1271 )" />
  </g>
</svg>