<?xml version="1.0" encoding="utf-8"?>
<svg version="1.1" xmlns:xlink="http://www.w3.org/1999/xlink" width="6px" height="4px" xmlns="http://www.w3.org/2000/svg">
  <g transform="matrix(1 0 0 1 -177 -1433 )">
    <path d="M 2.98632536103466 3.6937109256409  C 3.18727501159442 4.03338486180758  3.56588704277981 4.10079718472209  3.8319816462385 3.84428037554623  C 3.85484007526583 3.8222444864073  3.87644097058912 3.79815988484217  3.8966210110381 3.77220946472284  C 3.8966210110381 3.77220946472284  5.82109862764724 1.31496506485023  5.82109862764724 1.31496506485023  C 6.05780085537368 1.0160953657069  6.05988831022309 0.528866341599233  5.82576129544992 0.226708855889674  C 5.82514017138011 0.225907252621152  5.82451766664697 0.22510739299105  5.8238937886206 0.224309283271453  C 5.58749426025979 -0.0758825270336321  5.20521659251938 -0.0746027089753242  4.97005425222287 0.227167761133261  C 4.96987003513084 0.227404155853269  4.9696859393996 0.227640704239253  4.9695019623268 0.227877403155174  C 4.9695019623268 0.227877403155174  3.04502434571766 2.68512180302778  3.04502434571766 2.68512180302778  C 3.02621961908441 2.7090318759567  3.00863596269115 2.73445741700616  2.9923819686054 2.761241710249  C 2.9744696187466 2.73073017077224  2.95485228458602 2.70191196721355  2.93368342387473 2.67501258129062  C 2.93368342387473 2.67501258129062  1.00873903496786 0.217768181418023  1.00873903496786 0.217768181418023  C 0.762595257891663 -0.0684033437147004  0.381320904921758 -0.0456736370133588  0.157142453799903 0.268536278889028  C -0.0523808211907738 0.562203876219626  -0.0523808211907738 1.01118826130576  0.157142473344741 1.3048533498041  C 0.157142473344741 1.3048533498041  2.08208686225161 3.7620977496767  2.08208686225161 3.7620977496767  C 2.31713491950996 4.06401401395083  2.6994103762237 4.06553091665802  2.93592389948735 3.76548555411011  C 2.95372106735638 3.74290778856271  2.9703984730501 3.718935739485  2.98585870856006 3.69370880386959  Z " fill-rule="nonzero" fill="#ffffff" stroke="none" transform="matrix(1 0 0 1 177 1433 )" />
  </g>
</svg>