<?xml version="1.0" encoding="utf-8"?>
<svg version="1.1" xmlns:xlink="http://www.w3.org/1999/xlink" width="3px" height="4px" xmlns="http://www.w3.org/2000/svg">
  <g transform="matrix(1 0 0 1 -249 -1282 )">
    <path d="M 0.00100092951109581 1.9853404680745  C 0.00112780740666853 2.5057295285192  -0.00217309036382944 3.02628597476019  0.00256668284086557 3.54673081175131  C 0.00514816402121439 3.84260550679189  0.112342532534753 3.9935835802201  0.332444423350499 3.99531321652639  C 1.10129864350848 4.0015063324014  1.87011055694997 4.00161794075277  2.63896477676719 3.99531321652639  C 2.88670102973897 3.99324886298757  2.9951226998949 3.84902178545885  2.99660388136407 3.52128885942616  C 3.00113203954533 2.50762655062178  3.00113203954533 1.49396424271591  2.99660388136407 0.480301933462274  C 2.99520735387799 0.150895148118951  2.88813990483241 0.00694706518713976  2.64040365220139 0.00488271209757654  C 1.87844745672234 -0.00153356701863985  1.11653356727826 -0.00197994696257805  0.354662025782303 0.00566380972330148  C 0.0998161334489172 0.00817454410457102  0.00404790622318104 0.146208451398239  0.00176269439012019 0.478572297155987  C -0.00158051009686834 0.98077255856389  0.000874010043138189 1.48308442922167  0.00100092951109581 1.9853404680745  Z " fill-rule="nonzero" fill="#42bd56" stroke="none" transform="matrix(1 0 0 1 249 1282 )" />
  </g>
</svg>