<?xml version="1.0" encoding="utf-8"?>
<svg version="1.1" xmlns:xlink="http://www.w3.org/1999/xlink" width="40px" height="14px" xmlns="http://www.w3.org/2000/svg">
  <g transform="matrix(1 0 0 1 -154 -1445 )">
    <path d="M 3.705099189261 12.6812807727288  C 3.705099189261 12.6812807727288  0 6.19318217455394  0 6.19318217455394  C 0 6.19318217455394  4.90675298037268 1.97328064728575  11.5158488314869 0.707310189105295  C 11.5158488314869 0.707310189105295  14.1695009535252 -0.0839213472574916  19.0762539338979 4.34697525637411  C 19.0762539338979 4.34697525637411  19.2765295657498 5.1382067927369  24.4336270859375 4.2414777181924  C 29.5907246061251 3.34474864364791  31.0427229370517 6.03493586728138  31.0427229370517 6.03493586728138  C 31.0427229370517 6.03493586728138  31.8438254644595 7.61739894000695  29.991275869829 7.45915263273439  C 28.1387262751985 7.30090632546183  24.6339027177894 8.40863047636973  24.6339027177894 8.40863047636973  C 24.6339027177894 8.40863047636973  21.7299060559362 8.51412801455144  21.7299060559362 8.51412801455144  C 21.7299060559362 8.51412801455144  22.480939675381 9.04161570545996  24.7340405337154 9.09436447455081  C 24.7340405337154 9.09436447455081  25.4850741531602 8.56687678364229  30.5420338574218 8.14488663091547  C 30.5420338574218 8.14488663091547  32.7450658077932 7.45915263273439  31.4432742007556 5.50744817637286  C 31.4432742007556 5.50744817637286  37.301336432425 -0.400413961802604  39.0537482111295 0.0215761909242155  C 40.8061599898341 0.443566343651035  39.7547129226113 1.55129049455893  38.8534725792776 2.71176341455768  C 37.9522322359438 3.87223633455643  33.3458927033491 9.30535955091422  33.3458927033491 9.30535955091422  C 33.3458927033491 9.30535955091422  28.3390019070504 12.0482955436385  22.330732951492 13.7890049236367  C 22.330732951492 13.7890049236367  21.3293547922323 14.2637438454543  20.1277010011206 13.7890049236367  C 20.1277010011206 13.7890049236367  9.76343705278238 11.6263053909117  9.76343705278238 11.6263053909117  C 9.76343705278238 11.6263053909117  8.36150762981875 10.5713300090947  7.36012947055902 10.9405713927306  C 6.35875131129929 11.3625615454575  3.705099189261 12.6812807727288  3.705099189261 12.6812807727288  Z " fill-rule="nonzero" fill="#fde4c7" stroke="none" transform="matrix(1 0 0 1 154 1445 )" />
  </g>
</svg>