<?xml version="1.0" encoding="utf-8"?>
<svg version="1.1" xmlns:xlink="http://www.w3.org/1999/xlink" width="4px" height="15px" xmlns="http://www.w3.org/2000/svg">
  <g transform="matrix(1 0 0 1 -265 -1282 )">
    <path d="M 3.99927456126026 0.561840588918131  C 3.9991629332225 0.0942573757768608  3.88766763410512 0.00073118928170606  3.34241220017689 0.000445942978027368  C 2.44710167650197 -0.000172177078076763  1.55190278041547 -0.000124643429372339  0.656592310660619 0.000445942978027368  C 0.10743060445967 0.000731235990297329  0.000399554246269722 0.0919750768558554  0.000232139149663859 0.560604349188783  C -0.000214263813235167 2.87246435884137  0.00012051111190058 5.18432436925967  0.00012051111190058 7.4961843785294  C 0.000232139149663859 9.83143783018224  -0.000549147926527559 12.1666437014778  0.000845957209171302 14.5018971535135  C 0.00112499989420867 14.8967800750209  0.124506421288881 14.9989598932958  0.58761922074778 14.9994829001116  C 1.51021759052722 15.0003387799141  2.43292758789509 14.9999583732787  3.35569342714056 14.999578012969  C 3.89335962786694 14.9994828997287  3.99916298759191 14.9112820787864  3.99944197590754 14.4564416232483  C 4.00033483620275 13.0008190159489  3.99988837887044 11.5451488753837  3.99988837887044 10.0895738013502  C 3.99972096377383 6.91367859027575  4.00016742155548 3.73773579960972  3.99927456126026 0.561840588918131  Z " fill-rule="nonzero" fill="#42bd56" stroke="none" transform="matrix(1 0 0 1 265 1282 )" />
  </g>
</svg>