<?xml version="1.0" encoding="utf-8"?>
<svg version="1.1" xmlns:xlink="http://www.w3.org/1999/xlink" width="25px" height="18px" xmlns="http://www.w3.org/2000/svg">
  <g transform="matrix(1 0 0 1 -381 -447 )">
    <path d="M 24.0583333333334 2.38833333333332  C 24.0583333333334 1.36166666666668  23.215 0.5  22.1883333333334 0.5  C 22.1883333333334 0.5  6.71500000000003 0.5  6.71500000000003 0.5  C 5.68833333333339 0.51833333333343  4.84500000000003 1.38000000000011  4.84500000000003 2.38833333333332  C 4.84500000000003 2.38833333333332  4.84500000000003 3.01166666666677  4.84500000000003 3  L 24.0583333333334 3  C 24.0583333333334 3.01166666666677  24.0583333333334 2.38833333333332  24.0583333333334 2.38833333333332  Z M 9.1350000000001 16.5416666666663  C 9.1350000000001 16.5416666666663  16.0283333333334 17.018333333333  16.0283333333334 17.018333333333  C 16.7066666666668 17.073333333333  17.2016666666668 16.7983333333329  17.2933333333335 16.4866666666665  C 17.2933333333335 16.4866666666665  17.3483333333335 15.9733333333331  17.3483333333335 15.9733333333331  C 17.3116666666668 15.4966666666664  17.0366666666669 15.1666666666663  16.2116666666668 14.9283333333331  C 16.2116666666668 14.9283333333331  13.1133333333335 13.9566666666663  13.1133333333335 13.9566666666663  C 12.9300000000002 14.2499999999998  12.7283333333335 14.488333333333  12.5633333333335 14.5799999999997  C 12.5633333333335 14.5799999999997  12.3250000000002 14.7633333333331  12.3250000000002 14.7633333333331  C 12.0500000000002 14.9833333333331  11.6650000000001 15.0749999999996  11.2800000000001 15.0749999999996  C 11.1883333333335 15.0749999999996  11.0600000000002 15.0749999999996  10.9683333333335 15.038333333333  C 10.4916666666668 14.9649999999997  10.1250000000001 14.7266666666665  9.86833333333345 14.3783333333331  C 9.86833333333345 14.3783333333331  8.31000000000017 12.2699999999998  8.31000000000017 12.2699999999998  C 8.16333333333341 12.0499999999997  8.21833333333348 11.738333333333  8.40166666666676 11.573333333333  C 8.60333333333347 11.4266666666663  8.93333333333351 11.4816666666663  9.08000000000015 11.6649999999997  C 9.08000000000015 11.6649999999997  10.6566666666668 13.7733333333331  10.6566666666668 13.7733333333331  C 10.7850000000001 13.9566666666663  11.0233333333334 14.0116666666663  11.1333333333334 14.0483333333329  C 11.3533333333335 14.0849999999996  11.6100000000001 14.0483333333329  11.7566666666668 13.9199999999996  C 11.7566666666668 13.9199999999996  11.9950000000001 13.7366666666665  11.9950000000001 13.7366666666665  C 12.6733333333335 13.1316666666664  12.3616666666668 12.5999999999997  12.3433333333335 12.5449999999996  C 12.3433333333335 12.5449999999996  9.85000000000014 9.11666666666633  9.85000000000014 9.11666666666633  C 9.85000000000014 9.11666666666633  9.46500000000015 8.51166666666632  9.04333333333341 8.32833333333292  C 8.7316666666668 8.21833333333302  2.38833333333343 5.24833333333299  2.38833333333343 5.24833333333299  C 2.38833333333343 5.24833333333299  0.500000000000114 8.93333333333294  0.500000000000114 8.93333333333294  L 4.68000000000006 12.1783333333331  C 4.68000000000006 12.1783333333331  7.70500000000015 16.0466666666664  7.70500000000015 16.0466666666664  C 7.70500000000015 16.0466666666664  7.92500000000018 16.2849999999996  8.23666666666679 16.413333333333  C 8.58500000000015 16.5416666666663  9.1350000000001 16.5416666666663  9.1350000000001 16.5416666666663  Z M 22.225 14.5249999999994  C 23.2333333333333 14.506666666666  24.0766666666667 13.6633333333327  24.0766666666667 12.6366666666661  L 24.0766666666667 5.55999999999949  C 24.0766666666667 5.55999999999949  6.47666666666669 5.55999999999949  6.47666666666669 5.55999999999949  C 8.21833333333336 6.36666666666611  9.96000000000004 7.44833333333281  10.125 7.50333333333288  C 10.6383333333333 7.7233333333329  11.0233333333333 8.30999999999949  11.0600000000001 8.40166666666619  C 11.0600000000001 8.40166666666619  13.9566666666667 12.9116666666662  13.9566666666667 12.9116666666662  L 18.2283333333334 14.5249999999994  C 18.2283333333334 14.5249999999994  22.225 14.5249999999994  22.225 14.5249999999994  Z " fill-rule="nonzero" fill="#3d3b48" stroke="none" transform="matrix(1 0 0 1 381 447 )" />
  </g>
</svg>