<?xml version="1.0" encoding="utf-8"?>
<svg version="1.1" xmlns:xlink="http://www.w3.org/1999/xlink" width="16px" height="16px" xmlns="http://www.w3.org/2000/svg">
  <g transform="matrix(1 0 0 1 -295 -541 )">
    <path d="M 2.96619063517494 0.538164840888385  L 2.96619063517494 2.17162003884664  L 0.0452853837402927 2.17162003884664  L 0.0452853837402927 0.538164840888385  L 2.96619063517494 0.538164840888385  Z M 1.94727020683513 14.2546088386257  C 1.63027271671342 14.5446616452405  1.34346550855969 14.7507517701761  1.09439605483635 14.865246332497  C 0.800041256584677 14.9873738154092  0.437758421934632 15.0560705369396  0 15.0789694176792  C 0 15.0789694176792  0 13.537109821991  0 13.537109821991  C 0.769851013828429 13.3920834186838  1.15477650113667 12.9341053280218  1.15477650113667 12.1555425897591  C 1.15477650113667 12.1555425897591  1.15477650113667 6.66743838275261  1.15477650113667 6.66743838275261  C 1.15477650113667 6.17129545120224  0.898159496527228 5.91940748547609  0.392473077406294 5.91940748547609  C 0.392473077406294 5.91940748547609  0 5.91940748547609  0 5.91940748547609  L 0 4.33175008865283  C 0 4.33175008865283  0.82268394845471 4.33175008865283  0.82268394845471 4.33175008865283  C 1.46422644037239 4.33175008865283  1.93217510506304 4.45387757156482  2.21898231321677 4.6981325373888  C 2.54352735422458 4.98055238375696  2.7095736305655 5.48432827555393  2.7095736305655 6.20946029209085  C 2.7095736305655 6.20946029209085  2.7095736305655 12.3005689930665  2.7095736305655 12.3005689930665  C 2.7095736305655 13.094397691478  3.14733205250002 13.4913120605117  4.015301306271 13.491312020856  C 4.015301306271 13.491312020856  15.6083517013769 13.491312020856  15.6083517013769 13.491312020856  L 15.6083517013769 15.0789694176792  C 15.6083517013769 15.0789694176792  4.19644272359596 15.0789694176792  4.19644272359596 15.0789694176792  C 3.63792336984886 15.0789694176792  3.16242715427211 15.0026397359022  2.78504921784997 14.8423474121018  C 2.52843221324054 14.7431188099295  2.2491725559729 14.5446616452405  1.94727020683513 14.2546088386257  Z M 4.54363045647381 12.2929359931641  C 4.35494148826274 12.3387337942991  4.11341958542539 12.3768986351877  3.78887454441758 12.4150635157318  C 3.78887454441758 12.4150635157318  3.78887454441758 10.8121401587598  3.78887454441758 10.8121401587598  C 4.38513169180703 10.6900126758478  4.6870340409447 10.247300505679  4.6870340409447 9.49926960840253  C 4.6870340409447 9.49926960840253  4.6870340409447 3.20207078249155  4.6870340409447 3.20207078249155  C 4.6870340409447 2.47693880561019  4.88327056004186 1.91209915252966  5.28329122754599 1.50755178359373  C 5.69085940672437 1.09537149406697  6.23428365869938 0.889281369131368  6.92865904603138 0.889281369131368  C 6.92865904603138 0.889281369131368  13.4799401164287 0.889281369131368  13.4799401164287 0.889281369131368  C 13.6912717765099 0.889281369131368  13.8346754001927 0.866382448735976  13.8950558464931 0.828217607847591  C 13.9780789846636 0.774786846465986  14.0233643291918 0.660292323800604  14.0309119192898 0.5  C 14.0309119192898 0.5  15.6158992522629 0.5  15.6158992522629 0.5  C 15.4951383204502 1.16406825525291  15.3064493522392 1.6220463459149  15.0498323476297 1.88920023213427  C 14.6573592702234 2.27848160126564  14.1969581956308 2.46930580570802  13.6535339828677 2.46930580570802  C 13.6535339828677 2.46930580570802  7.40415526160814 2.46930580570802  7.40415526160814 2.46930580570802  C 6.65694693964986 2.46930580570802  6.28711655411371 2.744092652174  6.28711655411371 3.29366638476154  C 6.28711655411371 3.29366638476154  6.28711655411371 3.56845323122752  6.28711655411371 3.56845323122752  C 6.28711655411371 3.56845323122752  13.5780583955833 3.56845323122752  13.5780583955833 3.56845323122752  C 14.1743155429726 3.56845323122752  14.6498117585494 3.6829477538929  15.0120945539875 3.90430383897728  C 15.3215444540112 4.09512804341966  15.4800432186781 4.37754788978782  15.4800432186781 4.73629737827741  C 15.4800432186781 5.26297219046955  15.110212833142 5.94230636621569  14.3780996129559 6.76666694526921  C 13.7591997736963 7.47653300165734  13.0874670390225 8.13296825700809  12.3478063071623 8.7436057508794  C 13.3667267355021 9.49163664815592  14.3554569602977 10.1251730227671  15.3215444932232 10.6365818748104  C 15.3215444932232 10.6365818748104  15.3215444932232 12.4608613168668  15.3215444932232 12.4608613168668  C 14.3101716157694 11.9265535444281  13.532773051055 11.4762084140127  12.9818012481938 11.1098259256212  C 12.7780171782107 10.9724324825604  12.1440221979672 10.522087352145  11.0722688350011 9.75115757412891  C 10.0533484066613 10.506821431652  9.38916322287344 10.9800654824626  9.09480842462176 11.1708896472494  C 8.55893176274469 11.5220061754922  7.81172340157445 11.9570853854143  6.85318345874703 12.4608613168668  C 6.85318345874703 12.4608613168668  6.85318345874703 10.6594807952058  6.85318345874703 10.6594807952058  C 7.4796308488925 10.3007312670607  7.97776971712744 9.98777957970628  8.35514765354958 9.73589161398013  C 9.01933283733729 9.29317944381137  9.50992415468613 8.95732883606161  9.83446919569394 8.7436057508794  C 8.74762073095576 7.8581814105421  7.86455633620074 6.94985818946498  7.18527605064082 6.01863604799269  C 7.18527605064082 6.01863604799269  9.16273646102013 6.01863604799269  9.16273646102013 6.01863604799269  C 9.81182650382391 6.76666694526921  10.4533690349534 7.36967143923835  11.0798163858871 7.82001656965372  C 12.4912098916332 6.72086914413421  13.2006804199492 5.96520528661108  13.2006804199492 5.55302499708432  C 13.2006804199492 5.29350407111156  13.0195390026241 5.15611062805078  12.6648037580721 5.15611066770634  C 12.6648037580721 5.15611066770634  6.29466410499981 5.15611066770634  6.29466410499981 5.15611066770634  C 6.29466410499981 5.15611066770634  6.29466410499981 9.34661024484853  6.29466410499981 9.34661024484853  C 6.29466410499981 10.2244015852837  6.0606897922604 10.9647995223138  5.60028867845585 11.5678040162829  C 5.31348143109028 11.9341865046747  4.95874618653818 12.1784414704987  4.54363045647381 12.2929359931641  Z " fill-rule="nonzero" fill="#3d3b48" stroke="none" transform="matrix(1 0 0 1 295 541 )" />
  </g>
</svg>