<?xml version="1.0" encoding="utf-8"?>
<svg version="1.1" xmlns:xlink="http://www.w3.org/1999/xlink" width="28px" height="28px" xmlns="http://www.w3.org/2000/svg">
  <defs>
    <linearGradient gradientUnits="userSpaceOnUse" x1="14" y1="-43.3832108252893" x2="14" y2="53.3598388177755" id="LinearGradient169">
      <stop id="Stop170" stop-color="#cf9154" offset="0" />
      <stop id="Stop171" stop-color="#e7c296" offset="1" />
    </linearGradient>
    <mask fill="white" id="clip172">
      <path d="M 27.9999999999999 12.3193832493475  C 27.9999999999999 8.9658590310686  26.8821586072576 5.60462552976365  24.9240088091501 3.07599119084987  C 22.4030837132104 1.11784139274233  19.0418502119054 0  15.6806167506524 0  C 6.99999998998699 0  0 6.99999998998702  0 15.6806167106005  C 0 19.0341409288795  1.11784139274232 22.3953744301844  3.07599119084986 24.9240088091502  C 5.60462556981559 26.8821586072577  8.95814978809453 28.0000000000001  12.3193832493475 28.0000000000001  C 21.0000000100129 27.992290757026  27.9999999999999 21.000000010013  27.9999999999999 12.3193832493475  Z " fill-rule="evenodd" />
    </mask>
  </defs>
  <g transform="matrix(1 0 0 1 -291 -536 )">
    <path d="M 27.9999999999999 12.3193832493475  C 27.9999999999999 8.9658590310686  26.8821586072576 5.60462552976365  24.9240088091501 3.07599119084987  C 22.4030837132104 1.11784139274233  19.0418502119054 0  15.6806167506524 0  C 6.99999998998699 0  0 6.99999998998702  0 15.6806167106005  C 0 19.0341409288795  1.11784139274232 22.3953744301844  3.07599119084986 24.9240088091502  C 5.60462556981559 26.8821586072577  8.95814978809453 28.0000000000001  12.3193832493475 28.0000000000001  C 21.0000000100129 27.992290757026  27.9999999999999 21.000000010013  27.9999999999999 12.3193832493475  Z " fill-rule="nonzero" fill="url(#LinearGradient169)" stroke="none" transform="matrix(1 0 0 1 291 536 )" />
    <path d="M 27.9999999999999 12.3193832493475  C 27.9999999999999 8.9658590310686  26.8821586072576 5.60462552976365  24.9240088091501 3.07599119084987  C 22.4030837132104 1.11784139274233  19.0418502119054 0  15.6806167506524 0  C 6.99999998998699 0  0 6.99999998998702  0 15.6806167106005  C 0 19.0341409288795  1.11784139274232 22.3953744301844  3.07599119084986 24.9240088091502  C 5.60462556981559 26.8821586072577  8.95814978809453 28.0000000000001  12.3193832493475 28.0000000000001  C 21.0000000100129 27.992290757026  27.9999999999999 21.000000010013  27.9999999999999 12.3193832493475  Z " stroke-width="1" stroke="#be8649" fill="none" transform="matrix(1 0 0 1 291 536 )" mask="url(#clip172)" />
  </g>
</svg>