<?xml version="1.0" encoding="utf-8"?>
<svg version="1.1" xmlns:xlink="http://www.w3.org/1999/xlink" width="11px" height="17px" xmlns="http://www.w3.org/2000/svg">
  <g transform="matrix(1 0 0 1 -140 -153 )">
    <path d="M 0.189003436425992 8.10821643286573  C 0.0630011454754822 8.22177688710757  0 8.3523714094856  0 8.5  C 0 8.6476285905144  0.0630011454754822 8.77822311289243  0.189003436425992 8.89178356713427  L 8.99656357388312 16.8296593186372  C 9.12256586483386 16.9432197728791  9.2674684994272 17  9.43127147766313 17  C 9.59507445589929 17  9.73997709049263 16.9432197728791  9.86597938144314 16.8296593186372  L 10.810996563574 15.9779559118236  C 10.9369988545245 15.8643954575819  11 15.7338009352037  11 15.5861723446893  C 11 15.4385437541751  10.9369988545245 15.3079492317971  10.810996563574 15.194388777555  L 3.38316151202753 8.5  L 10.810996563574 1.80561122244497  C 10.9369988545245 1.69205076820295  11 1.56145624582492  11 1.41382765531069  C 11 1.2661990647963  10.9369988545245 1.13560454241809  10.810996563574 1.02204408817642  L 9.86597938144314 0.170340681362766  C 9.73997709049263 0.056780227120922  9.59507445589929 0  9.43127147766313 0  C 9.2674684994272 0  9.12256586483386 0.056780227120922  8.99656357388312 0.170340681362766  L 0.189003436425992 8.10821643286573  Z " fill-rule="nonzero" fill="#666666" stroke="none" transform="matrix(1 0 0 1 140 153 )" />
  </g>
</svg>