<?xml version="1.0" encoding="utf-8"?>
<svg version="1.1" xmlns:xlink="http://www.w3.org/1999/xlink" width="60px" height="60px" xmlns="http://www.w3.org/2000/svg">
  <g transform="matrix(1 0 0 1 -295 -242 )">
    <path d="M 325 242  C 341.8 242  355 255.2  355 272  C 355 288.8  341.8 302  325 302  C 308.2 302  295 288.8  295 272  C 295 255.2  308.2 242  325 242  Z " fill-rule="nonzero" fill="#aaaaaa" stroke="none" />
    <path d="M 325 242.5  C 341.52 242.5  354.5 255.48  354.5 272  C 354.5 288.52  341.52 301.5  325 301.5  C 308.48 301.5  295.5 288.52  295.5 272  C 295.5 255.48  308.48 242.5  325 242.5  Z " stroke-width="1" stroke="#797979" fill="none" />
  </g>
</svg>