<?xml version="1.0" encoding="utf-8"?>
<svg version="1.1" xmlns:xlink="http://www.w3.org/1999/xlink" width="354px" height="508px" xmlns="http://www.w3.org/2000/svg">
  <g transform="matrix(1 0 0 1 -153 -362 )">
    <path d="M 154 367  A 4 4 0 0 1 158 363 L 502 363  A 4 4 0 0 1 506 367 L 506 865  A 4 4 0 0 1 502 869 L 158 869  A 4 4 0 0 1 154 865 L 154 367  Z " fill-rule="nonzero" fill="#d7d7d7" stroke="none" />
    <path d="M 153.5 367  A 4.5 4.5 0 0 1 158 362.5 L 502 362.5  A 4.5 4.5 0 0 1 506.5 367 L 506.5 865  A 4.5 4.5 0 0 1 502 869.5 L 158 869.5  A 4.5 4.5 0 0 1 153.5 865 L 153.5 367  Z " stroke-width="1" stroke="#797979" fill="none" stroke-opacity="0.0549019607843137" />
  </g>
</svg>