<?xml version="1.0" encoding="utf-8"?>
<svg version="1.1" xmlns:xlink="http://www.w3.org/1999/xlink" width="340px" height="95px" xmlns="http://www.w3.org/2000/svg">
  <defs>
    <filter x="16px" y="511px" width="340px" height="95px" filterUnits="userSpaceOnUse" id="filter220">
      <feOffset dx="0" dy="1" in="SourceAlpha" result="shadowOffsetInner" />
      <feGaussianBlur stdDeviation="3.5" in="shadowOffsetInner" result="shadowGaussian" />
      <feComposite in2="shadowGaussian" operator="atop" in="SourceAlpha" result="shadowComposite" />
      <feColorMatrix type="matrix" values="0 0 0 0 0.929411764705882  0 0 0 0 0.929411764705882  0 0 0 0 0.929411764705882  0 0 0 1 0  " in="shadowComposite" />
    </filter>
    <g id="widget221">
      <path d="M 3.07419099262734 75.8982300884954  C 3.07419099262734 74.7757436049362  2.19949803603595 73.8275828863775  0.999996458424903 73.5229623446746  L 0.999993687642018 71.1938498582526  C 2.19949699702283 70.8892323991968  3.07419099262734 69.9410712210342  3.07419099262734 68.8185840707965  C 3.07419099262734 67.6960951595022  2.19949425242703 66.7479327672795  0.999988036320246 66.4433167805664  L 0.999985265551913 64.1142059793565  C 2.19949290268687 63.8095908197192  3.07419099262734 62.8614278304453  3.07419099262734 61.7389380530972  C 3.07419099262734 60.6164465159527  2.19949016004739 59.6682823134886  0.999979614257427 59.3636686408829  L 0.999976843503646 57.034562100426  C 2.19948880836546 56.7299492402119  3.07419099262734 55.7817844398398  3.07419099262734 54.6592920353983  C 3.07419099262734 53.5367978719018  2.19948606687649 52.5886318588521  0.999971192236444 52.2840204942815  L 0.999968421494486 49.9549182214619  C 2.1994847140586 49.6503076606768  3.07419099262734 48.7021410492193  3.07419099262734 47.5796460176994  C 3.07419099262734 46.4571492276546  2.19948197338999 45.5089814038856  0.999962770248203 45.2043723448849  L 0.999959999518069 42.8752743424652  C 2.19948061976447 42.5706660811165  3.07419099262734 41.6224976585845  3.07419099262734 40.5  C 3.07419099262734 39.3775005832251  2.19947787961064 38.4293309486141  0.999954348283609 38.1247241929343  L 0.999951577563479 35.7956304634395  C 2.19947652547671 35.4910245015378  3.07419099262734 34.5428542679404  3.07419099262734 33.4203539823011  C 3.07419099262734 32.2978519387302  2.19947378571851 31.3496804932333  0.999945926338114 31.0450760399963  L 0.999943155628898 28.7159865843842  C 2.1994724311935 28.4113829219398  3.07419099262734 27.4632108772855  3.07419099262734 26.3407079646017  C 3.07419099262734 25.2182032940757  2.19946969156899 24.270030037585  0.999937504412628 23.9654278848268  L 0.999934733712507 21.6363427053013  C 2.19946833691483 21.3317413423258  3.07419099262734 20.383567486623  3.07419099262734 19.2610619469028  C 3.07419099262734 18.1385546496683  2.19946559779419 17.1903795823559  0.999929082505332 16.8857797328765  L 0.999926311814306 14.5566988261896  C 2.19946424264072 14.2520997626948  3.07419099262734 13.3039240959508  3.07419099262734 12.1814159292035  C 3.07419099262734 11.0589060050704  2.19946150371379 10.110729126807  0.999920660607131 9.80613157831181  L 0.9999178899252 7.47705494705133  C 2.1994601483666 7.17245818305059  3.07419099262734 6.22428070527235  3.07419099262734 5.10176991150456  C 3.07419099262734 4.09173676020237  2.36597676705605 3.22285026582335  1.35016993422869 2.83696166771028  C 1.97127830682803 1.44752948156429  3.35643058774622 0.499999999999545  5 1  L 322 1  C 324.24 0.499999999999545  326 2.25999999999954  326 4.49999999999955  L 326 76.5  C 326 78.74  324.24 80.5  322 80  L 5 80  C 3.35643058774622 80.5  1.97127830682803 79.5524705184355  1.35016992662804 78.1630383148097  C 2.36597676705605 77.7771497341766  3.07419099262734 76.9082632397976  3.07419099262734 75.8982300884954  Z " fill-rule="nonzero" fill="#ffffff" stroke="none" transform="matrix(1 0 0 1 23 517 )" />
    </g>
  </defs>
  <g transform="matrix(1 0 0 1 -16 -511 )">
    <use xlink:href="#widget221" filter="url(#filter220)" />
    <use xlink:href="#widget221" />
  </g>
</svg>