<?xml version="1.0" encoding="utf-8"?>
<svg version="1.1" xmlns:xlink="http://www.w3.org/1999/xlink" width="45px" height="48px" xmlns="http://www.w3.org/2000/svg">
  <g transform="matrix(1 0 0 1 -164 -15 )">
    <path d="M 2.84952913318895 27.8050219122163  L 0 25.4636302101071  L 0 3.0635834266518  C 0 1.6279767077267  1.12044294984264 0.5  2.54645767567054 1  L 42.2154499092129 1  C 43.6414646350408 0.5  44.7619047767624 1.6279767077267  44 3.0635834266518  L 44 25.2033544004773  L 41.5394835281073 27.861777060974  L 37.8761473325387 24.3668150908275  L 34.0901476148612 27.9589639749956  L 29.8278375270582 24.398206212928  L 25.9414317812023 27.890405764329  L 22.1658188940264 24.3552631578948  L 18.3610239592512 27.9790542931401  L 14.3450301376186 24.4537057168009  L 10.5684280284903 27.9798076800701  L 6.53363898976001 24.4308529799121  L 2.84952913318895 27.8050219122163  Z M 0 45.0022060470324  L 0 28.8110314233625  L 2.76000454648894 30.9865749193145  L 6.72703188147225 27.7741330480701  L 10.5528477827382 31.2078195478762  L 14.5606805232623 27.8052730411932  L 18.3454437134992 30.9923508857808  L 22.2573219246321 27.8607725450665  L 26.1424911430464 31.124946985532  L 30.0922070938621 27.8226009405928  L 33.8480355419888 31.1430282718618  L 37.822729347104 27.7593164384389  L 41.8092938156499 31.1219334378104  L 44 28.9713679031345  L 44 45.0022060470324  C 44.7619047767624 46.4378127659575  43.6414646350408 47.5657894736842  42.2154499092129 47  L 2.54645767567054 47  C 1.12044294984264 47.5657894736842  0 46.4378127659575  0 45.0022060470324  Z " fill-rule="nonzero" fill="#ffffff" stroke="none" transform="matrix(1 0 0 1 164 15 )" />
  </g>
</svg>