<?xml version="1.0" encoding="utf-8"?>
<svg version="1.1" xmlns:xlink="http://www.w3.org/1999/xlink" width="200px" height="68px" xmlns="http://www.w3.org/2000/svg">
  <g transform="matrix(1 0 0 1 -400 -116 )">
    <path d="M 400.5 165.435409566229  C 400.5 165.435409566229  400.5 121  400.5 121  C 400.5 118.514718625761  402.514718625761 116.5  405 116.5  C 405 116.5  595 116.5  595 116.5  C 597.485281374239 116.5  599.5 118.514718625761  599.5 121  C 599.5 121  599.5 165.435409566229  599.5 165.435409566229  C 599.5 167.920690940468  597.485281374239 169.935409566229  595 169.935409566229  C 595 169.935409566229  510.058398905845 169.935409566229  510.058398905845 169.935409566229  C 510.058398905845 169.935409566229  500.628660574475 182.690821653752  500.628660574475 182.690821653752  C 500.628660574475 182.690821653752  490.552773149735 169.935409566229  490.552773149735 169.935409566229  C 490.552773149735 169.935409566229  405 169.935409566229  405 169.935409566229  C 402.514718625761 169.935409566229  400.5 167.920690940468  400.5 165.435409566229  Z " fill-rule="nonzero" fill="#ffffff" stroke="none" fill-opacity="0.952941176470588" />
    <path d="M 400 165.435409566229  C 400 165.435409566229  400 121  400 121  C 400 118.238576250846  402.238576250846 116  405 116  C 405 116  595 116  595 116  C 597.761423749154 116  600 118.238576250846  600 121  C 600 121  600 165.435409566229  600 165.435409566229  C 600 168.196833315383  597.761423749154 170.435409566229  595 170.435409566229  C 595 170.435409566229  510.310559006211 170.435409566229  510.310559006211 170.435409566229  C 510.310559006211 170.435409566229  500.64182194617 183.514110292893  500.64182194617 183.514110292893  C 500.64182194617 183.514110292893  490.310559006211 170.435409566229  490.310559006211 170.435409566229  C 490.310559006211 170.435409566229  405 170.435409566229  405 170.435409566229  C 402.238576250846 170.435409566229  400 168.196833315383  400 165.435409566229  Z M 401 165.435409566229  C 401 167.644548565553  402.790861000677 169.435409566229  405 169.435409566229  C 405 169.435409566229  490.79498729326 169.435409566229  490.79498729326 169.435409566229  C 490.79498729326 169.435409566229  500.61549920278 181.867533014611  500.61549920278 181.867533014611  C 500.61549920278 181.867533014611  509.806238805478 169.435409566229  509.806238805478 169.435409566229  C 509.806238805478 169.435409566229  595 169.435409566229  595 169.435409566229  C 597.209138999323 169.435409566229  599 167.644548565553  599 165.435409566229  C 599 165.435409566229  599 121  599 121  C 599 118.790861000677  597.209138999323 117  595 117  C 595 117  405 117  405 117  C 402.790861000677 117  401 118.790861000677  401 121  C 401 121  401 165.435409566229  401 165.435409566229  Z " fill-rule="nonzero" fill="#e9e9e9" stroke="none" />
  </g>
</svg>