<?xml version="1.0" encoding="utf-8"?>
<svg version="1.1" xmlns:xlink="http://www.w3.org/1999/xlink" width="200px" height="68px" xmlns="http://www.w3.org/2000/svg">
  <g transform="matrix(1 0 0 1 -400 -179 )">
    <path d="M 400.5 228.435409566229  C 400.5 228.435409566229  400.5 184  400.5 184  C 400.5 181.514718625761  402.514718625761 179.5  405 179.5  C 405 179.5  595 179.5  595 179.5  C 597.485281374239 179.5  599.5 181.514718625761  599.5 184  C 599.5 184  599.5 228.435409566229  599.5 228.435409566229  C 599.5 230.920690940468  597.485281374239 232.935409566229  595 232.935409566229  C 595 232.935409566229  510.058398905845 232.935409566229  510.058398905845 232.935409566229  C 510.058398905845 232.935409566229  500.628660574475 245.690821653752  500.628660574475 245.690821653752  C 500.628660574475 245.690821653752  490.552773149735 232.935409566229  490.552773149735 232.935409566229  C 490.552773149735 232.935409566229  405 232.935409566229  405 232.935409566229  C 402.514718625761 232.935409566229  400.5 230.920690940468  400.5 228.435409566229  Z " fill-rule="nonzero" fill="#ffffff" stroke="none" fill-opacity="0.952941176470588" />
    <path d="M 400 228.435409566229  C 400 228.435409566229  400 184  400 184  C 400 181.238576250846  402.238576250846 179  405 179  C 405 179  595 179  595 179  C 597.761423749154 179  600 181.238576250846  600 184  C 600 184  600 228.435409566229  600 228.435409566229  C 600 231.196833315383  597.761423749154 233.435409566229  595 233.435409566229  C 595 233.435409566229  510.310559006211 233.435409566229  510.310559006211 233.435409566229  C 510.310559006211 233.435409566229  500.64182194617 246.514110292893  500.64182194617 246.514110292893  C 500.64182194617 246.514110292893  490.310559006211 233.435409566229  490.310559006211 233.435409566229  C 490.310559006211 233.435409566229  405 233.435409566229  405 233.435409566229  C 402.238576250846 233.435409566229  400 231.196833315383  400 228.435409566229  Z M 401 228.435409566229  C 401 230.644548565553  402.790861000677 232.435409566229  405 232.435409566229  C 405 232.435409566229  490.79498729326 232.435409566229  490.79498729326 232.435409566229  C 490.79498729326 232.435409566229  500.61549920278 244.867533014611  500.61549920278 244.867533014611  C 500.61549920278 244.867533014611  509.806238805478 232.435409566229  509.806238805478 232.435409566229  C 509.806238805478 232.435409566229  595 232.435409566229  595 232.435409566229  C 597.209138999323 232.435409566229  599 230.644548565553  599 228.435409566229  C 599 228.435409566229  599 184  599 184  C 599 181.790861000677  597.209138999323 180  595 180  C 595 180  405 180  405 180  C 402.790861000677 180  401 181.790861000677  401 184  C 401 184  401 228.435409566229  401 228.435409566229  Z " fill-rule="nonzero" fill="#e9e9e9" stroke="none" />
  </g>
</svg>