<?xml version="1.0" encoding="utf-8"?>
<svg version="1.1" xmlns:xlink="http://www.w3.org/1999/xlink" width="12px" height="12px" viewBox="119 296  12 12" xmlns="http://www.w3.org/2000/svg">
  <path d="M 125 296  C 128.36 296  131 298.64  131 302  C 131 305.36  128.36 308  125 308  C 121.64 308  119 305.36  119 302  C 119 298.64  121.64 296  125 296  Z " fill-rule="nonzero" fill="#ffffff" stroke="none" />
  <path d="M 125 296.5  C 128.08 296.5  130.5 298.92  130.5 302  C 130.5 305.08  128.08 307.5  125 307.5  C 121.92 307.5  119.5 305.08  119.5 302  C 119.5 298.92  121.92 296.5  125 296.5  Z " stroke-width="1" stroke="#797979" fill="none" />
  <path d="M 125 305  C 123.32 305  122 303.68  122 302  C 122 300.32  123.32 299  125 299  C 126.68 299  128 300.32  128 302  C 128 303.68  126.68 305  125 305  " fill-rule="nonzero" fill="#797979" stroke="none" />
</svg>