<?xml version="1.0" encoding="utf-8"?>
<svg version="1.1" xmlns:xlink="http://www.w3.org/1999/xlink" width="90px" height="30px" xmlns="http://www.w3.org/2000/svg">
  <g transform="matrix(1 0 0 1 -360 -99 )">
    <path d="M 361 114  A 14 14 0 0 1 375 100 L 435 100  A 14 14 0 0 1 449 114 A 14 14 0 0 1 435 128 L 375 128  A 14 14 0 0 1 361 114 Z " fill-rule="nonzero" fill="#f2f2f2" stroke="none" />
    <path d="M 360.5 114  A 14.5 14.5 0 0 1 375 99.5 L 435 99.5  A 14.5 14.5 0 0 1 449.5 114 A 14.5 14.5 0 0 1 435 128.5 L 375 128.5  A 14.5 14.5 0 0 1 360.5 114 Z " stroke-width="1" stroke="#e4e4e4" fill="none" stroke-opacity="0.498039215686275" />
  </g>
</svg>