<?xml version="1.0" encoding="utf-8"?>
<svg version="1.1" xmlns:xlink="http://www.w3.org/1999/xlink" width="16px" height="16px" xmlns="http://www.w3.org/2000/svg">
  <g transform="matrix(1 0 0 1 -421 -106 )">
    <path d="M 429 107  C 432.92 107  436 110.08  436 114  C 436 117.92  432.92 121  429 121  C 425.08 121  422 117.92  422 114  C 422 110.08  425.08 107  429 107  Z " fill-rule="nonzero" fill="#f2f2f2" stroke="none" />
    <path d="M 429 107  C 432.92 107  436 110.08  436 114  C 436 117.92  432.92 121  429 121  C 425.08 121  422 117.92  422 114  C 422 110.08  425.08 107  429 107  Z " stroke-width="2" stroke="#000000" fill="none" />
  </g>
</svg>