<?xml version="1.0" encoding="utf-8"?>
<svg version="1.1" xmlns:xlink="http://www.w3.org/1999/xlink" width="12px" height="12px" viewBox="1244 535  12 12" xmlns="http://www.w3.org/2000/svg">
  <path d="M 1244.5 540  A 4.5 4.5 0 0 1 1249 535.5 L 1251 535.5  A 4.5 4.5 0 0 1 1255.5 540 L 1255.5 542  A 4.5 4.5 0 0 1 1251 546.5 L 1249 546.5  A 4.5 4.5 0 0 1 1244.5 542 L 1244.5 540  Z " fill-rule="nonzero" fill="#f0f0f0" stroke="none" />
  <path d="M 1244.5 540  A 4.5 4.5 0 0 1 1249 535.5 L 1251 535.5  A 4.5 4.5 0 0 1 1255.5 540 L 1255.5 542  A 4.5 4.5 0 0 1 1251 546.5 L 1249 546.5  A 4.5 4.5 0 0 1 1244.5 542 L 1244.5 540  Z " stroke-width="1" stroke="#797979" fill="none" />
</svg>