<?xml version="1.0" encoding="utf-8"?>
<svg version="1.1" xmlns:xlink="http://www.w3.org/1999/xlink" width="12px" height="12px" viewBox="1243 393  12 12" xmlns="http://www.w3.org/2000/svg">
  <path d="M 1243.5 398  A 4.5 4.5 0 0 1 1248 393.5 L 1250 393.5  A 4.5 4.5 0 0 1 1254.5 398 L 1254.5 400  A 4.5 4.5 0 0 1 1250 404.5 L 1248 404.5  A 4.5 4.5 0 0 1 1243.5 400 L 1243.5 398  Z " fill-rule="nonzero" fill="#ffffff" stroke="none" />
  <path d="M 1243.5 398  A 4.5 4.5 0 0 1 1248 393.5 L 1250 393.5  A 4.5 4.5 0 0 1 1254.5 398 L 1254.5 400  A 4.5 4.5 0 0 1 1250 404.5 L 1248 404.5  A 4.5 4.5 0 0 1 1243.5 400 L 1243.5 398  Z " stroke-width="1" stroke="#797979" fill="none" />
  <path d="M 1245.57142857143 399  L 1248.14285714286 401.571428571429  L 1252.42857142857 395.571428571429  " stroke-width="2.57142857142857" stroke="#797979" fill="none" />
</svg>