<?xml version="1.0" encoding="utf-8"?>
<svg version="1.1" xmlns:xlink="http://www.w3.org/1999/xlink" width="400px" height="200px" xmlns="http://www.w3.org/2000/svg">
  <g transform="matrix(1 0 0 1 -693 -1612 )">
    <path d="M 694 1617  A 4 4 0 0 1 698 1613 L 1088 1613  A 4 4 0 0 1 1092 1617 L 1092 1807  A 4 4 0 0 1 1088 1811 L 698 1811  A 4 4 0 0 1 694 1807 L 694 1617  Z " fill-rule="nonzero" fill="#f9f9f9" stroke="none" />
    <path d="M 693.5 1617  A 4.5 4.5 0 0 1 698 1612.5 L 1088 1612.5  A 4.5 4.5 0 0 1 1092.5 1617 L 1092.5 1807  A 4.5 4.5 0 0 1 1088 1811.5 L 698 1811.5  A 4.5 4.5 0 0 1 693.5 1807 L 693.5 1617  Z " stroke-width="1" stroke-dasharray="9,4" stroke="#d7dde4" fill="none" stroke-dashoffset="0.5" />
  </g>
</svg>