<?xml version="1.0" encoding="utf-8"?>
<svg version="1.1" xmlns:xlink="http://www.w3.org/1999/xlink" width="400px" height="200px" xmlns="http://www.w3.org/2000/svg">
  <g transform="matrix(1 0 0 1 -693 -2163 )">
    <path d="M 694 2168  A 4 4 0 0 1 698 2164 L 1088 2164  A 4 4 0 0 1 1092 2168 L 1092 2358  A 4 4 0 0 1 1088 2362 L 698 2362  A 4 4 0 0 1 694 2358 L 694 2168  Z " fill-rule="nonzero" fill="#ffffff" stroke="none" />
    <path d="M 693.5 2168  A 4.5 4.5 0 0 1 698 2163.5 L 1088 2163.5  A 4.5 4.5 0 0 1 1092.5 2168 L 1092.5 2358  A 4.5 4.5 0 0 1 1088 2362.5 L 698 2362.5  A 4.5 4.5 0 0 1 693.5 2358 L 693.5 2168  Z " stroke-width="1" stroke-dasharray="9,4" stroke="#0079fe" fill="none" stroke-opacity="0.8" stroke-dashoffset="0.5" />
  </g>
</svg>