<?xml version="1.0" encoding="utf-8"?>
<svg version="1.1" xmlns:xlink="http://www.w3.org/1999/xlink" width="45px" height="220px" xmlns="http://www.w3.org/2000/svg">
  <g transform="matrix(1 0 0 1 -425 -668 )">
    <path d="M 425.441176470588 870.217854969744  C 425.441176470588 870.217854969744  425.441176470588 673.416666666667  425.441176470588 673.416666666667  C 425.441176470588 670.655242917513  427.679752721434 668.416666666667  430.441176470588 668.416666666667  C 430.441176470588 668.416666666667  464.558823529412 668.416666666667  464.558823529412 668.416666666667  C 467.320247278566 668.416666666667  469.558823529412 670.655242917513  469.558823529412 673.416666666667  C 469.558823529412 673.416666666667  469.558823529412 870.217854969744  469.558823529412 870.217854969744  C 469.558823529412 872.979278718898  467.320247278566 875.217854969744  464.558823529412 875.217854969744  C 464.558823529412 875.217854969744  457.192911947388 875.217854969744  457.192911947388 875.217854969744  C 457.192911947388 875.217854969744  447.209627329193 886.931873253228  447.209627329193 886.931873253228  C 447.209627329193 886.931873253228  437.192911947388 875.217854969744  437.192911947388 875.217854969744  C 437.192911947388 875.217854969744  430.441176470588 875.217854969744  430.441176470588 875.217854969744  C 427.679752721434 875.217854969744  425.441176470588 872.979278718898  425.441176470588 870.217854969744  Z " fill-rule="nonzero" fill="#000000" stroke="none" fill-opacity="0.8" />
  </g>
</svg>