<?xml version="1.0" encoding="utf-8"?>
<svg version="1.1" xmlns:xlink="http://www.w3.org/1999/xlink" width="45px" height="220px" xmlns="http://www.w3.org/2000/svg">
  <g transform="matrix(1 0 0 1 -371 -590 )">
    <path d="M 371.441176470588 792.217854969744  C 371.441176470588 792.217854969744  371.441176470588 595.416666666667  371.441176470588 595.416666666667  C 371.441176470588 592.655242917513  373.679752721434 590.416666666667  376.441176470588 590.416666666667  C 376.441176470588 590.416666666667  410.558823529412 590.416666666667  410.558823529412 590.416666666667  C 413.320247278566 590.416666666667  415.558823529412 592.655242917513  415.558823529412 595.416666666667  C 415.558823529412 595.416666666667  415.558823529412 792.217854969744  415.558823529412 792.217854969744  C 415.558823529412 794.979278718898  413.320247278566 797.217854969744  410.558823529412 797.217854969744  C 410.558823529412 797.217854969744  403.192911947388 797.217854969744  403.192911947388 797.217854969744  C 403.192911947388 797.217854969744  393.209627329193 808.931873253228  393.209627329193 808.931873253228  C 393.209627329193 808.931873253228  383.192911947388 797.217854969744  383.192911947388 797.217854969744  C 383.192911947388 797.217854969744  376.441176470588 797.217854969744  376.441176470588 797.217854969744  C 373.679752721434 797.217854969744  371.441176470588 794.979278718898  371.441176470588 792.217854969744  Z " fill-rule="nonzero" fill="#000000" stroke="none" fill-opacity="0.8" />
  </g>
</svg>