<?xml version="1.0" encoding="utf-8"?>
<svg version="1.1" xmlns:xlink="http://www.w3.org/1999/xlink" width="200px" height="50px" xmlns="http://www.w3.org/2000/svg">
  <g transform="matrix(1 0 0 1 -300 -446 )">
    <path d="M 300.5 481.026036445757  C 300.5 481.026036445757  300.5 451  300.5 451  C 300.5 448.514718625761  302.514718625761 446.5  305 446.5  C 305 446.5  495 446.5  495 446.5  C 497.485281374239 446.5  499.5 448.514718625761  499.5 451  C 499.5 451  499.5 481.026036445757  499.5 481.026036445757  C 499.5 483.511317819996  497.485281374239 485.526036445757  495 485.526036445757  C 495 485.526036445757  348.806297110491 485.526036445757  348.806297110491 485.526036445757  C 348.806297110491 485.526036445757  338.906279435761 494.949031701931  338.906279435761 494.949031701931  C 338.906279435761 494.949031701931  329.209130975677 485.526036445757  329.209130975677 485.526036445757  C 329.209130975677 485.526036445757  305 485.526036445757  305 485.526036445757  C 302.514718625761 485.526036445757  300.5 483.511317819996  300.5 481.026036445757  Z " fill-rule="nonzero" fill="#ffffff" stroke="none" fill-opacity="0.8" />
    <path d="M 300 481.026036445757  C 300 481.026036445757  300 451  300 451  C 300 448.238576250846  302.238576250846 446  305 446  C 305 446  495 446  495 446  C 497.761423749154 446  500 448.238576250846  500 451  C 500 451  500 481.026036445757  500 481.026036445757  C 500 483.787460194911  497.761423749154 486.026036445757  495 486.026036445757  C 495 486.026036445757  349.006211180124 486.026036445757  349.006211180124 486.026036445757  C 349.006211180124 486.026036445757  338.902691511387 495.642728156539  338.902691511387 495.642728156539  C 338.902691511387 495.642728156539  329.006211180124 486.026036445757  329.006211180124 486.026036445757  C 329.006211180124 486.026036445757  305 486.026036445757  305 486.026036445757  C 302.238576250846 486.026036445757  300 483.787460194911  300 481.026036445757  Z M 301 481.026036445757  C 301 483.23517544508  302.790861000677 485.026036445757  305 485.026036445757  C 305 485.026036445757  329.412050771229 485.026036445757  329.412050771229 485.026036445757  C 329.412050771229 485.026036445757  338.909867360135 494.255335247324  338.909867360135 494.255335247324  C 338.909867360135 494.255335247324  348.606383040858 485.026036445757  348.606383040858 485.026036445757  C 348.606383040858 485.026036445757  495 485.026036445757  495 485.026036445757  C 497.209138999323 485.026036445757  499 483.23517544508  499 481.026036445757  C 499 481.026036445757  499 451  499 451  C 499 448.790861000677  497.209138999323 447  495 447  C 495 447  305 447  305 447  C 302.790861000677 447  301 448.790861000677  301 451  C 301 451  301 481.026036445757  301 481.026036445757  Z " fill-rule="nonzero" fill="#e9e9e9" stroke="none" />
  </g>
</svg>