<?xml version="1.0" encoding="utf-8"?>
<svg version="1.1" xmlns:xlink="http://www.w3.org/1999/xlink" width="200px" height="50px" xmlns="http://www.w3.org/2000/svg">
  <g transform="matrix(1 0 0 1 -354 -524 )">
    <path d="M 354.5 559.026036445757  C 354.5 559.026036445757  354.5 529  354.5 529  C 354.5 526.514718625761  356.514718625761 524.5  359 524.5  C 359 524.5  549 524.5  549 524.5  C 551.485281374239 524.5  553.5 526.514718625761  553.5 529  C 553.5 529  553.5 559.026036445757  553.5 559.026036445757  C 553.5 561.511317819995  551.485281374239 563.526036445757  549 563.526036445757  C 549 563.526036445757  402.806297110491 563.526036445757  402.806297110491 563.526036445757  C 402.806297110491 563.526036445757  392.906279435761 572.949031701931  392.906279435761 572.949031701931  C 392.906279435761 572.949031701931  383.209130975677 563.526036445757  383.209130975677 563.526036445757  C 383.209130975677 563.526036445757  359 563.526036445757  359 563.526036445757  C 356.514718625761 563.526036445757  354.5 561.511317819995  354.5 559.026036445757  Z " fill-rule="nonzero" fill="#ffffff" stroke="none" fill-opacity="0.8" />
    <path d="M 354 559.026036445757  C 354 559.026036445757  354 529  354 529  C 354 526.238576250846  356.238576250846 524  359 524  C 359 524  549 524  549 524  C 551.761423749154 524  554 526.238576250846  554 529  C 554 529  554 559.026036445757  554 559.026036445757  C 554 561.787460194911  551.761423749154 564.026036445757  549 564.026036445757  C 549 564.026036445757  403.006211180124 564.026036445757  403.006211180124 564.026036445757  C 403.006211180124 564.026036445757  392.902691511387 573.642728156539  392.902691511387 573.642728156539  C 392.902691511387 573.642728156539  383.006211180124 564.026036445757  383.006211180124 564.026036445757  C 383.006211180124 564.026036445757  359 564.026036445757  359 564.026036445757  C 356.238576250846 564.026036445757  354 561.787460194911  354 559.026036445757  Z M 355 559.026036445757  C 355 561.23517544508  356.790861000677 563.026036445757  359 563.026036445757  C 359 563.026036445757  383.412050771229 563.026036445757  383.412050771229 563.026036445757  C 383.412050771229 563.026036445757  392.909867360135 572.255335247324  392.909867360135 572.255335247324  C 392.909867360135 572.255335247324  402.606383040858 563.026036445757  402.606383040858 563.026036445757  C 402.606383040858 563.026036445757  549 563.026036445757  549 563.026036445757  C 551.209138999323 563.026036445757  553 561.23517544508  553 559.026036445757  C 553 559.026036445757  553 529  553 529  C 553 526.790861000677  551.209138999323 525  549 525  C 549 525  359 525  359 525  C 356.790861000677 525  355 526.790861000677  355 529  C 355 529  355 559.026036445757  355 559.026036445757  Z " fill-rule="nonzero" fill="#e9e9e9" stroke="none" />
  </g>
</svg>