<?xml version="1.0" encoding="utf-8"?>
<svg version="1.1" xmlns:xlink="http://www.w3.org/1999/xlink" width="200px" height="50px" xmlns="http://www.w3.org/2000/svg">
  <g transform="matrix(1 0 0 1 -354 -441 )">
    <path d="M 354 476.026036445757  C 354 476.026036445757  354 446  354 446  C 354 443.238576250846  356.238576250846 441  359 441  C 359 441  549 441  549 441  C 551.761423749154 441  554 443.238576250846  554 446  C 554 446  554 476.026036445757  554 476.026036445757  C 554 478.787460194911  551.761423749154 481.026036445757  549 481.026036445757  C 549 481.026036445757  403.006211180124 481.026036445757  403.006211180124 481.026036445757  C 403.006211180124 481.026036445757  392.902691511387 490.642728156539  392.902691511387 490.642728156539  C 392.902691511387 490.642728156539  383.006211180124 481.026036445757  383.006211180124 481.026036445757  C 383.006211180124 481.026036445757  359 481.026036445757  359 481.026036445757  C 356.238576250846 481.026036445757  354 478.787460194911  354 476.026036445757  Z " fill-rule="nonzero" fill="#000000" stroke="none" fill-opacity="0.8" />
  </g>
</svg>