<?xml version="1.0" encoding="utf-8"?>
<svg version="1.1" xmlns:xlink="http://www.w3.org/1999/xlink" width="200px" height="50px" xmlns="http://www.w3.org/2000/svg">
  <defs>
    <mask fill="white" id="clip151">
      <path d="M 195 10  C 197.761423749154 9.97396355424303  200 12.2125398050891  200 14.973963554243  L 200 45  C 200 47.7614237491539  197.761423749154 50  195 50  L 5 50  C 2.23857625084599 50  0 47.7614237491539  0 45  L 0 14.973963554243  C 0 12.2125398050891  2.23857625084599 9.97396355424303  5 10  L 89.6894409937888 10  L 99.3581780538303 0.357271843461206  L 109.689440993789 10  L 195 10  Z " fill-rule="evenodd" />
    </mask>
  </defs>
  <g transform="matrix(1 0 0 1 -1089 -435 )">
    <path d="M 195 10  C 197.761423749154 9.97396355424303  200 12.2125398050891  200 14.973963554243  L 200 45  C 200 47.7614237491539  197.761423749154 50  195 50  L 5 50  C 2.23857625084599 50  0 47.7614237491539  0 45  L 0 14.973963554243  C 0 12.2125398050891  2.23857625084599 9.97396355424303  5 10  L 89.6894409937888 10  L 99.3581780538303 0.357271843461206  L 109.689440993789 10  L 195 10  Z " fill-rule="nonzero" fill="#ffffff" stroke="none" fill-opacity="0.8" transform="matrix(1 0 0 1 1089 435 )" />
    <path d="M 195 10  C 197.761423749154 9.97396355424303  200 12.2125398050891  200 14.973963554243  L 200 45  C 200 47.7614237491539  197.761423749154 50  195 50  L 5 50  C 2.23857625084599 50  0 47.7614237491539  0 45  L 0 14.973963554243  C 0 12.2125398050891  2.23857625084599 9.97396355424303  5 10  L 89.6894409937888 10  L 99.3581780538303 0.357271843461206  L 109.689440993789 10  L 195 10  Z " stroke-width="2" stroke="#e9e9e9" fill="none" transform="matrix(1 0 0 1 1089 435 )" mask="url(#clip151)" />
  </g>
</svg>