<?xml version="1.0" encoding="utf-8"?>
<svg version="1.1" xmlns:xlink="http://www.w3.org/1999/xlink" width="200px" height="50px" xmlns="http://www.w3.org/2000/svg">
  <g transform="matrix(1 0 0 1 -575 -441 )">
    <path d="M 575 476.026036445757  C 575 476.026036445757  575 446  575 446  C 575 443.238576250846  577.238576250846 441  580 441  C 580 441  770 441  770 441  C 772.761423749154 441  775 443.238576250846  775 446  C 775 446  775 476.026036445757  775 476.026036445757  C 775 478.787460194911  772.761423749154 481.026036445757  770 481.026036445757  C 770 481.026036445757  685.310559006211 481.026036445757  685.310559006211 481.026036445757  C 685.310559006211 481.026036445757  675.64182194617 490.642728156539  675.64182194617 490.642728156539  C 675.64182194617 490.642728156539  665.310559006211 481.026036445757  665.310559006211 481.026036445757  C 665.310559006211 481.026036445757  580 481.026036445757  580 481.026036445757  C 577.238576250846 481.026036445757  575 478.787460194911  575 476.026036445757  Z " fill-rule="nonzero" fill="#000000" stroke="none" fill-opacity="0.8" />
  </g>
</svg>