<?xml version="1.0" encoding="utf-8"?>
<svg version="1.1" xmlns:xlink="http://www.w3.org/1999/xlink" width="38px" height="20px" xmlns="http://www.w3.org/2000/svg">
  <defs>
    <mask fill="white" id="clip62">
      <path d="M 0 20  L 0 10.5263157894737  L 0 8.42105263157895  L 0 0  L 38 0  L 38 20  L 0 20  Z " fill-rule="evenodd" />
    </mask>
  </defs>
  <g transform="matrix(1 0 0 1 -172 -36 )">
    <path d="M 0 20  L 0 10.5263157894737  L 0 8.42105263157895  L 0 0  L 38 0  L 38 20  L 0 20  Z " fill-rule="nonzero" fill="#ffffff" stroke="none" transform="matrix(1 0 0 1 172 36 )" />
    <path d="M 0 20  L 0 10.5263157894737  L 0 8.42105263157895  L 0 0  L 38 0  L 38 20  L 0 20  Z " stroke-width="2" stroke="#797979" fill="none" transform="matrix(1 0 0 1 172 36 )" mask="url(#clip62)" />
  </g>
</svg>