<?xml version="1.0" encoding="utf-8"?>
<svg version="1.1" xmlns:xlink="http://www.w3.org/1999/xlink" width="20px" height="19px" xmlns="http://www.w3.org/2000/svg">
  <g transform="matrix(1 0 0 1 -41 -140 )">
    <path d="M 16.6666666601563 8.70849167285157  C 16.6666666601563 12.6375333457031  13.3025 15.8334916728516  9.16666666015633 15.8334916728516  C 5.03083332031237 15.8334916728516  1.66666666015633 12.6375333457031  1.66666666015633 8.70849167285157  C 1.66666666015633 4.77945000000005  5.03083332031237 1.58349167285157  9.16666666015633 1.58349167285157  C 13.3025 1.58349167285157  16.6666666601563 4.77945000000005  16.6666666601563 8.70849167285157  Z M 19.7566666601563 18.7689916728516  C 20.0807942259514 18.4593783617951  20.0807942259514 17.9591883110564  19.7566666601563 17.649575  L 16.2099999999999 14.27945  C 17.5349999999999 12.7697416728515  18.3333333398437 10.8277833271485  18.3333333398437 8.70849167285157  C 18.3333333398437 3.89911667285159  14.2291666796874 0.000158345703059442  9.16666666015633 0.000158327148470663  C 4.10416664062495 0.000158308593761881  0 3.89911665429688  0 8.70849167285157  C 0 13.5178666914063  4.10416666015623 17.416825  9.16666666015633 17.416825  C 11.3975 17.416825  13.4416666601563 16.6584083271484  15.0308333398436 15.3996583271485  L 18.5783333398437 18.7689916728516  C 18.9042420860485 19.0769128480548  19.4307579139514 19.0769128480548  19.7566666601563 18.7689916728516  Z " fill-rule="nonzero" fill="#999999" stroke="none" transform="matrix(1 0 0 1 41 140 )" />
  </g>
</svg>