<?xml version="1.0" encoding="utf-8"?>
<svg version="1.1" xmlns:xlink="http://www.w3.org/1999/xlink" width="9px" height="17px" xmlns="http://www.w3.org/2000/svg">
  <g transform="matrix(1 0 0 1 -337 -721 )">
    <path d="M 0.154639175257614 8.10821643286573  C 0.0515463917526517 8.22177688710757  0 8.3523714094856  0 8.5  C 0 8.6476285905144  0.0515463917526517 8.77822311289243  0.154639175257614 8.89178356713427  L 7.36082474226799 16.8296593186372  C 7.46391752577317 16.9432197728791  7.58247422680408 17  7.71649484536073 17  C 7.85051546391759 17  7.9690721649485 16.9432197728791  8.07216494845346 16.8296593186372  L 8.84536082474239 15.9779559118236  C 8.94845360824735 15.8643954575819  9 15.7338009352037  9 15.5861723446893  C 9 15.4385437541751  8.94845360824735 15.3079492317971  8.84536082474239 15.194388777555  L 2.76804123711345 8.5  L 4.27097796878678 6.84446047392832  L 8.84536082474239 1.80561122244497  C 8.94845360824735 1.69205076820295  9 1.56145624582492  9 1.41382765531069  C 9 1.2661990647963  8.94845360824735 1.13560454241809  8.84536082474239 1.02204408817642  L 8.07216494845346 0.170340681362766  C 7.9690721649485 0.056780227120922  7.85051546391759 0  7.71649484536073 0  C 7.58247422680408 0  7.46391752577317 0.056780227120922  7.36082474226799 0.170340681362766  L 0.154639175257614 8.10821643286573  Z " fill-rule="nonzero" fill="#666666" stroke="none" transform="matrix(1 0 0 1 337 721 )" />
  </g>
</svg>