<?xml version="1.0" encoding="utf-8"?>
<svg version="1.1" xmlns:xlink="http://www.w3.org/1999/xlink" width="36px" height="36px" xmlns="http://www.w3.org/2000/svg">
  <g transform="matrix(1 0 0 1 520 -1999 )">
    <path d="M 36 18  C 36 27.9256935535723  27.9256935535714 36  18 36  C 8.07430644642864 36  0 27.9256935535723  0 18  C 0 8.07430644642773  8.07430644642864 0  18 0  C 27.9256935535714 0  36 8.07430644642773  36 18  Z M 33.4170292098215 18  C 33.4170292098215 9.49883850000151  26.49984834375 2.58297079017939  18 2.58297079017939  C 9.49883850000015 2.58297079017939  2.58297079017848 9.49883845982185  2.58297079017848 18  C 2.58297079017848 26.4998483437503  9.4988384598214 33.4170292098206  18 33.4170292098206  C 26.49984834375 33.4170292098206  33.4170292098215 26.4999174508921  33.4170292098215 18  Z M 25.3747231071427 23.6378597946423  L 19.8102636160713 18.0552921026774  L 25.3696776830359 12.556284669643  C 25.8749784241072 12.0574116160715  25.8788488660714 11.2435809107155  25.3799758526784 10.7382801696422  C 24.8811028392856 10.2329794285724  24.0659589375 10.2291089866085  23.5619713526787 10.7279820000003  L 17.9948164017856 16.2334171205366  L 12.512534825893 10.7344096875004  C 12.0097913303573 10.2316661919649  11.1972738214286 10.2291089464288  10.6945303258929 10.7318524419625  C 10.1917868303572 11.2332827410701  10.1905427812499 12.0471134464278  10.6919730803572 12.5498569419651  L 16.1665137723214 18.0411234910716  L 10.6469100401787 23.5015646785705  C 10.1416092991071 24.0016817812502  10.1377388571429 24.8142684374998  10.6366118705357 25.3195691785713  C 10.8886056428571 25.574120236608  11.2190451026786 25.7014302991083  11.5507286517857 25.7014302991083  C 11.8772976696428 25.7014302991083  12.2038666875001 25.5767465892859  12.4546163705359 25.329867348215  L 17.9818918794645 19.8629984732142  L 23.5541613616072 25.4533070089292  C 23.8049110848215 25.7053007812501  24.1340373482142 25.8312976874986  24.4644768080357 25.8312976874986  C 24.7936030714286 25.8312976874986  25.1214852857142 25.7053007812501  25.3721658616071 25.4558642946431  C 25.8749093571428 24.9544339955373  25.8761534062498 24.1418473794638  25.3747231071427 23.6378597946423  Z " fill-rule="nonzero" fill="#ffffff" stroke="none" transform="matrix(1 0 0 1 -520 1999 )" />
  </g>
</svg>