<?xml version="1.0" encoding="utf-8"?>
<svg version="1.1" xmlns:xlink="http://www.w3.org/1999/xlink" width="14px" height="30px" xmlns="http://www.w3.org/2000/svg">
  <g transform="matrix(1 0 0 1 -399 -288 )">
    <path d="M 0.240549828178535 14.3086172344689  C 0.0801832760597046 14.5090180360722  0 14.7394789579158  0 15  C 0 15.2605210420842  0.0801832760597046 15.4909819639278  0.240549828178535 15.6913827655311  L 11.4501718213058 29.6993987975951  C 11.6105383734249 29.8997995991984  11.7949599083619 30  12.0034364261167 30  C 12.2119129438718 30  12.3963344788088 29.8997995991984  12.5567010309276 29.6993987975951  L 13.7594501718215 28.196392785571  C 13.9198167239403 27.9959919839681  14 27.7655310621242  14 27.50501002004  C 14 27.244488977956  13.9198167239403 27.0140280561124  13.7594501718215 26.8136272545089  L 4.30584192439867 15  L 13.7594501718215 3.18637274549112  C 13.9198167239403 2.98597194388755  14 2.75551102204397  14 2.49498997996005  C 14 2.23446893787582  13.9198167239403 2.00400801603192  13.7594501718215 1.80360721442898  L 12.5567010309276 0.300601202404881  C 12.3963344788088 0.100200400801627  12.2119129438718 0  12.0034364261167 0  C 11.7949599083619 0  11.6105383734249 0.100200400801627  11.4501718213058 0.300601202404881  L 0.240549828178535 14.3086172344689  Z " fill-rule="nonzero" fill="#7f7f7f" stroke="none" transform="matrix(1 0 0 1 399 288 )" />
  </g>
</svg>