<?xml version="1.0" encoding="utf-8"?>
<svg version="1.1" xmlns:xlink="http://www.w3.org/1999/xlink" width="22px" height="18px" xmlns="http://www.w3.org/2000/svg">
  <g transform="matrix(1 0 0 1 -393 -192 )">
    <path d="M 22 9  C 22 4.03715322321459  17.0657016160711 0  11 0  C 4.93505866071414 0  0 4.03715322321459  0 9  C 0 13.9628467767854  4.93429838392894 18  11 18  C 17.0649413392859 18  22 13.9628467767854  22 9  Z M 12.1133680200894 9.00255726562573  L 15.4872194665178 11.7720006830358  C 15.7936490937501 12.0239944553568  15.7928465848214 12.4302877834826  15.4856567053573 12.6810029330351  C 15.3324630200893 12.8057211964284  15.1320905558037 12.8687196294641  14.9309578392859 12.8687196294641  C 14.7290226138393 12.8687196294641  14.5278898973215 12.8057211763388  14.3746539553571 12.6797242901787  L 10.9960719687498 9.90706700892852  L 7.60650834821436 12.6507996160712  C 7.45331466294638 12.7742392366072  7.25370247544652 12.8365810915172  7.05413252008916 12.8365810915172  C 6.85143701785691 12.8365810915172  6.64950181696427 12.7729260602679  6.49550559821419 12.6456505312506  C 6.19063873214282 12.3930001607144  6.19300400223201 11.9867068325894  6.50179892410697 11.7366482812497  L 9.88743448883884 8.9967861361607  L 6.51434331919663 6.22799929687462  C 6.20791369196427 5.97662754910689  6.20871620089297 5.56971219642865  6.51590608035713 5.3189970468753  C 6.82313821651769 5.06762529910757  7.31967669419673 5.06893849553553  7.6269088303568 5.32027566964298  L 11.0046883080359 8.0922763526788  L 14.3942519285713 5.34857829910688  C 14.7022443169642 5.09851974776793  15.2003878125001 5.10107699330329  15.5052546785715 5.35372738392825  C 15.8108817968752 5.60637775446367  15.8077562745532 6.01329310714273  15.4989613526782 6.26272963392839  L 12.1133680200894 9.00255726562573  Z " fill-rule="nonzero" fill="#999999" stroke="none" transform="matrix(1 0 0 1 393 192 )" />
  </g>
</svg>