<?xml version="1.0" encoding="utf-8"?>
<svg version="1.1" xmlns:xlink="http://www.w3.org/1999/xlink" width="126px" height="131px" xmlns="http://www.w3.org/2000/svg">
  <g transform="matrix(1 0 0 1 -16 -729 )">
    <path d="M 83.9671875 101.661458333333  C 99.3890625 91.1996527777778  107.1 80.9652777777778  107 70.9583333333333  L 107 17  L 63 17  L 63 113.345703125  C 70.809375 109.763671875  77.7984375 105.868923611111  83.9671875 101.661458333333  Z M 124.1296875 1.62044270833333  C 125.3765625 2.7007378472222  126 3.9800347222222  126 5.45833333333333  L 126 70.9583333333333  C 126 75.8480902777778  124.90078125 80.6952039930555  122.70234375 85.4996744791667  C 120.50390625 90.3041449652778  117.78046875 94.5684678819444  114.53203125 98.2926432291667  C 111.28359375 102.016818576389  107.41171875 105.641493055556  102.91640625 109.166666666667  C 98.42109375 112.691840277778  94.2703125 115.620008680556  90.4640625 117.951171875  C 86.6578125 120.282335069444  82.6875 122.485568576389  78.553125 124.560872395833  C 74.41875 126.636176215278  71.48203125 128.043402777778  69.74296875 128.782552083333  C 68.00390625 129.521701388889  66.609375 130.090277777778  65.559375 130.48828125  C 64.771875 130.829427083333  63.91875 131  63 131  C 62.08125 131  61.228125 130.829427083333  60.440625 130.48828125  C 59.390625 130.090277777778  57.99609375 129.521701388889  56.25703125 128.782552083333  C 54.51796875 128.043402777778  51.58125 126.636176215278  47.446875 124.560872395833  C 43.3125 122.485568576389  39.3421875 120.282335069444  35.5359375 117.951171875  C 31.7296875 115.620008680556  27.57890625 112.691840277778  23.08359375 109.166666666667  C 18.58828125 105.641493055556  14.71640625 102.016818576389  11.46796875 98.2926432291667  C 8.21953125 94.5684678819444  5.49609375 90.3041449652778  3.29765625 85.4996744791667  C 1.09921875 80.6952039930555  0 75.8480902777778  0 70.9583333333333  L 0 5.45833333333333  C 0 3.9800347222222  0.6234375 2.7007378472222  1.8703125 1.62044270833333  C 3.1171875 0.540147569444438  4.59375 0  6.3 0  L 119.7 0  C 121.40625 0  122.8828125 0.540147569444438  124.1296875 1.62044270833333  Z " fill-rule="nonzero" fill="#ffffff" stroke="none" transform="matrix(1 0 0 1 16 729 )" />
  </g>
</svg>