<?xml version="1.0" encoding="utf-8"?>
<svg version="1.1" xmlns:xlink="http://www.w3.org/1999/xlink" width="8px" height="4px" xmlns="http://www.w3.org/2000/svg">
  <g transform="matrix(1 0 0 1 -109 -18 )">
    <path d="M 3.98176714559559 3.6937109227436  C 4.2497000128437 4.03338485869804  4.75451605411352 4.10079718157043  5.10930885850675 3.84428037255485  C 5.13978676385776 3.82224448342969  5.16858795760442 3.79815988187961  5.1954946781865 3.77220946177649  C 5.1954946781865 3.77220946177649  7.76146483208609 1.31496506343925  7.76146483208609 1.31496506343925  C 8.07706780219378 1.01609536448266  8.07985107532461 0.528866340679428  7.76768172248584 0.226708855158667  C 7.76685355705993 0.225907251890645  7.76602355074959 0.225107392261043  7.76519171338161 0.224309282541945  C 7.44999234242787 -0.0758825275755713  6.94028878575435 -0.074602709518063  6.62673899888532 0.227167760401966  C 6.62649337609609 0.227404155121827  6.62624791512126 0.227640703507663  6.62600261235767 0.227877402423436  C 6.62600261235767 0.227877402423436  4.06003245845808 2.68512180076068  4.06003245845808 2.68512180076068  C 4.03495948962918 2.70903187367467  4.01151461445259 2.73445741470823  3.9898426223516 2.76124170793434  C 3.96595948922123 2.73073016847664  3.9398030436899 2.70191196493596  3.91157789609221 2.67501257902984  C 3.91157789609221 2.67501257902984  1.34498537912936 0.217768180692602  1.34498537912936 0.217768180692602  C 1.01679367656309 -0.0684033442613128  0.508427872916092 -0.0456736375741734  0.20952327160425 0.268536278131886  C -0.0698410948780473 0.562203875278991  -0.0698410948780473 1.01118826008459  0.209523297664034 1.30485334839943  C 0.209523297664034 1.30485334839943  2.77611581462689 3.76209774673667  2.77611581462689 3.76209774673667  C 3.08951322411181 4.06401401082216  3.59921383274975 4.0655309135284  3.9145651969072 3.76548555116797  C 3.9382947540513 3.74290778563468  3.96053129496257 3.71893573657194  3.9811449422965 3.69370880097229  Z " fill-rule="nonzero" fill="#ffffff" stroke="none" transform="matrix(1 0 0 1 109 18 )" />
  </g>
</svg>