<?xml version="1.0" encoding="utf-8"?>
<svg version="1.1" xmlns:xlink="http://www.w3.org/1999/xlink" width="19px" height="13px" xmlns="http://www.w3.org/2000/svg">
  <g transform="matrix(1 0 0 1 -35 -106 )">
    <path d="M 18.0763888888889 13  L 9.89583333333332 13  L 5.1558736989477 13  L 0.659722222222287 13  C 0.481047453703788 13  0.326425057870503 12.906778381642  0.195855034722214 12.7203351449286  C 0.0652850115739249 12.5338919082125  0 12.3131038647338  0 12.0579710144939  C 0 11.8028381642511  0.0652850115739249 11.5820501207724  0.195855034722214 11.3956068840591  L 4.81391059027779 4.80140398550755  C 4.94448061342608 4.61496074879286  5.0991030092594 4.52173913043481  5.27777777777771 4.52173913043481  C 5.45645254629614 4.52173913043481  5.6110749421295 4.61496074879286  5.74164496527779 4.80140398550755  L 7.00879772717092 6.6107973306066  L 10.9616970486111 0.428819444444286  C 11.1444950810189 0.142939814814288  11.3609664351855 0  11.6111111111111 0  C 11.8612557870367 0  12.0777271412034 0.142939814814288  12.2605251736111 0.428819444444286  L 18.7258029513889 10.5399305555557  C 18.9086009837967 10.8258101851843  19 11.1643518518515  19 11.5555555555557  C 19 11.9467592592586  18.9086009837967 12.2853009259257  18.7258029513889 12.5711805555557  C 18.5430049189811 12.8570601851843  18.3265335648144 13  18.0763888888889 13  Z " fill-rule="nonzero" fill="#cccccc" stroke="none" transform="matrix(1 0 0 1 35 106 )" />
  </g>
</svg>