<?xml version="1.0" encoding="utf-8"?>
<svg version="1.1" xmlns:xlink="http://www.w3.org/1999/xlink" width="14px" height="14px" xmlns="http://www.w3.org/2000/svg">
  <g transform="matrix(1 0 0 1 -295 -105 )">
    <path d="M 302 107  C 304.8 107  307 109.2  307 112  C 307 114.8  304.8 117  302 117  C 299.2 117  297 114.8  297 112  C 297 109.2  299.2 107  302 107  Z " fill-rule="nonzero" fill="#0079fe" stroke="none" />
    <path d="M 302 106.5  C 305.08 106.5  307.5 108.92  307.5 112  C 307.5 115.08  305.08 117.5  302 117.5  C 298.92 117.5  296.5 115.08  296.5 112  C 296.5 108.92  298.92 106.5  302 106.5  Z " stroke-width="3" stroke="#ffffff" fill="none" />
  </g>
</svg>