<?xml version="1.0" encoding="utf-8"?>
<svg version="1.1" xmlns:xlink="http://www.w3.org/1999/xlink" width="30px" height="30px" xmlns="http://www.w3.org/2000/svg">
  <g transform="matrix(1 0 0 1 -931 -945 )">
    <path d="M 946 946  C 953.84 946  960 952.16  960 960  C 960 967.84  953.84 974  946 974  C 938.16 974  932 967.84  932 960  C 932 952.16  938.16 946  946 946  Z " fill-rule="nonzero" fill="#ffffff" stroke="none" />
    <path d="M 946 946  C 953.84 946  960 952.16  960 960  C 960 967.84  953.84 974  946 974  C 938.16 974  932 967.84  932 960  C 932 952.16  938.16 946  946 946  Z " stroke-width="2" stroke="#e4e4e4" fill="none" />
  </g>
</svg>