<?xml version="1.0" encoding="utf-8"?>
<svg version="1.1" xmlns:xlink="http://www.w3.org/1999/xlink" width="30px" height="30px" xmlns="http://www.w3.org/2000/svg">
  <g transform="matrix(1 0 0 1 -931 -882 )">
    <path d="M 946 883  C 953.84 883  960 889.16  960 897  C 960 904.84  953.84 911  946 911  C 938.16 911  932 904.84  932 897  C 932 889.16  938.16 883  946 883  Z " fill-rule="nonzero" fill="#ffffff" stroke="none" />
    <path d="M 946 883  C 953.84 883  960 889.16  960 897  C 960 904.84  953.84 911  946 911  C 938.16 911  932 904.84  932 897  C 932 889.16  938.16 883  946 883  Z " stroke-width="2" stroke="#cccccc" fill="none" />
  </g>
</svg>