<?xml version="1.0" encoding="utf-8"?>
<svg version="1.1" xmlns:xlink="http://www.w3.org/1999/xlink" width="240px" height="61px" xmlns="http://www.w3.org/2000/svg">
  <g>
    <path d="M 0 43.4350912778905  C 0 43.4350912778905  0 8  0 8  C 0 3.58172200135365  3.58172200135365 0  8 0  C 8 0  232 0  232 0  C 236.418277998646 0  240 3.58172200135365  240 8  C 240 8  240 43.4350912778905  240 43.4350912778905  C 240 47.8533692765368  236.418277998646 51.4350912778905  232 51.4350912778905  C 232 51.4350912778905  63.2 51.4350912778905  63.2 51.4350912778905  C 63.2 51.4350912778905  52.2 61  52.2 61  C 52.2 61  43.2 51.4350912778905  43.2 51.4350912778905  C 43.2 51.4350912778905  8 51.4350912778905  8 51.4350912778905  C 3.58172200135365 51.4350912778905  0 47.8533692765368  0 43.4350912778905  Z " fill-rule="nonzero" fill="#333333" stroke="none" />
  </g>
</svg>