<?xml version="1.0" encoding="utf-8"?>
<svg version="1.1" xmlns:xlink="http://www.w3.org/1999/xlink" width="16px" height="16px" xmlns="http://www.w3.org/2000/svg">
  <g transform="matrix(1 0 0 1 -443 -156 )">
    <path d="M 451 157  C 454.92 157  458 160.08  458 164  C 458 167.92  454.92 171  451 171  C 447.08 171  444 167.92  444 164  C 444 160.08  447.08 157  451 157  Z " fill-rule="nonzero" fill="#ffffff" stroke="none" fill-opacity="0" />
    <path d="M 451 157  C 454.92 157  458 160.08  458 164  C 458 167.92  454.92 171  451 171  C 447.08 171  444 167.92  444 164  C 444 160.08  447.08 157  451 157  Z " stroke-width="2" stroke="#000000" fill="none" />
  </g>
</svg>