<?xml version="1.0" encoding="utf-8"?>
<svg version="1.1" xmlns:xlink="http://www.w3.org/1999/xlink" width="38px" height="36px" xmlns="http://www.w3.org/2000/svg">
  <g transform="matrix(1 0 0 1 -369 -177 )">
    <path d="M 388 177  C 398.64 177  407 184.92  407 195  C 407 205.08  398.64 213  388 213  C 377.36 213  369 205.08  369 195  C 369 184.92  377.36 177  388 177  Z " fill-rule="nonzero" fill="#ffffff" stroke="none" />
    <path d="M 388 177.5  C 398.36 177.5  406.5 185.2  406.5 195  C 406.5 204.8  398.36 212.5  388 212.5  C 377.64 212.5  369.5 204.8  369.5 195  C 369.5 185.2  377.64 177.5  388 177.5  Z " stroke-width="1" stroke="#d7d7d7" fill="none" />
  </g>
</svg>