<?xml version="1.0" encoding="utf-8"?>
<svg version="1.1" xmlns:xlink="http://www.w3.org/1999/xlink" width="38px" height="36px" xmlns="http://www.w3.org/2000/svg">
  <g transform="matrix(1 0 0 1 -236 -177 )">
    <path d="M 255 177  C 265.64 177  274 184.92  274 195  C 274 205.08  265.64 213  255 213  C 244.36 213  236 205.08  236 195  C 236 184.92  244.36 177  255 177  Z " fill-rule="nonzero" fill="#e4e4e4" stroke="none" />
    <path d="M 255 177.5  C 265.36 177.5  273.5 185.2  273.5 195  C 273.5 204.8  265.36 212.5  255 212.5  C 244.64 212.5  236.5 204.8  236.5 195  C 236.5 185.2  244.64 177.5  255 177.5  Z " stroke-width="1" stroke="#d7d7d7" fill="none" />
  </g>
</svg>