<?xml version="1.0" encoding="utf-8"?>
<svg version="1.1" xmlns:xlink="http://www.w3.org/1999/xlink" width="15px" height="15px" xmlns="http://www.w3.org/2000/svg">
  <g transform="matrix(1 0 0 1 -192 -718 )">
    <path d="M 199.5 718  C 203.7 718  207 721.3  207 725.5  C 207 729.7  203.7 733  199.5 733  C 195.3 733  192 729.7  192 725.5  C 192 721.3  195.3 718  199.5 718  Z " fill-rule="nonzero" fill="#ffffff" stroke="none" />
    <path d="M 199.5 718.5  C 203.42 718.5  206.5 721.58  206.5 725.5  C 206.5 729.42  203.42 732.5  199.5 732.5  C 195.58 732.5  192.5 729.42  192.5 725.5  C 192.5 721.58  195.58 718.5  199.5 718.5  Z " stroke-width="1" stroke="#797979" fill="none" />
  </g>
</svg>