<?xml version="1.0" encoding="utf-8"?>
<svg version="1.1" xmlns:xlink="http://www.w3.org/1999/xlink" width="43px" height="47px" xmlns="http://www.w3.org/2000/svg">
  <g transform="matrix(1 0 0 1 -417 -526 )">
    <path d="M 31.7180989583333 27.998046875  C 32.0726996527778 28.3856336805556  32.25 28.8446180555556  32.25 29.375  C 32.25 29.9053819444444  32.0726996527778 30.3643663194444  31.7180989583333 30.751953125  C 31.3634982638889 31.1395399305556  30.9435763888889 31.3333333333333  30.4583333333333 31  L 12.5416666666667 31  C 12.0564236111111 31.3333333333333  11.6365017361111 31.1395399305556  11.2819010416667 30.751953125  C 10.9273003472222 30.3643663194444  10.75 29.9053819444444  10.75 29.375  C 10.75 28.8446180555556  10.9273003472222 28.3856336805556  11.2819010416667 27.998046875  C 11.6365017361111 27.6104600694444  12.0564236111111 27.4166666666667  12.5416666666667 27  L 30.4583333333333 27  C 30.9435763888889 27.4166666666667  31.3634982638889 27.6104600694444  31.7180989583333 27.998046875  Z M 16.8668619791667 12.8974609375  C 17.5667317708333 13.6624348958333  17.9166666666667 14.5855034722222  17.9166666666667 15.6666666666667  C 17.9166666666667 16.7478298611111  17.5667317708333 17.6708984375  16.8668619791667 18.4358723958333  C 16.1669921875 19.2008463541667  15.3224826388889 19.5833333333333  14.3333333333333 19.5833333333333  C 13.3441840277778 19.5833333333333  12.4996744791667 19.2008463541667  11.7998046875 18.4358723958333  C 11.0999348958333 17.6708984375  10.75 16.7478298611111  10.75 15.6666666666667  C 10.75 14.5855034722222  11.0999348958333 13.6624348958333  11.7998046875 12.8974609375  C 12.4996744791667 12.1324869791667  13.3441840277778 11.75  14.3333333333333 11.75  C 15.3224826388889 11.75  16.1669921875 12.1324869791667  16.8668619791667 12.8974609375  Z M 31.2001953125 12.8974609375  C 31.9000651041667 13.6624348958333  32.25 14.5855034722222  32.25 15.6666666666667  C 32.25 16.7478298611111  31.9000651041667 17.6708984375  31.2001953125 18.4358723958333  C 30.5003255208333 19.2008463541667  29.6558159722222 19.5833333333333  28.6666666666667 19.5833333333333  C 27.6775173611111 19.5833333333333  26.8330078125 19.2008463541667  26.1331380208333 18.4358723958333  C 25.4332682291667 17.6708984375  25.0833333333333 16.7478298611111  25.0833333333333 15.6666666666667  C 25.0833333333333 14.5855034722222  25.4332682291667 13.6624348958333  26.1331380208333 12.8974609375  C 26.8330078125 12.1324869791667  27.6775173611111 11.75  28.6666666666667 11.75  C 29.6558159722222 11.75  30.5003255208333 12.1324869791667  31.2001953125 12.8974609375  Z M 37.9889322916667 31.1038411458333  C 38.9407552083333 28.6865234375  39.4166666666667 26.1519097222222  39.4166666666667 23.5  C 39.4166666666667 20.8480902777778  38.9407552083333 18.3134765625  37.9889322916667 15.8961588541667  C 37.037109375 13.4788411458333  35.7633463541667 11.3981119791667  34.1676432291667 9.65397135416667  C 32.5719401041667 7.90983072916667  30.6682942708333 6.517578125  28.4567057291667 5.47721354166667  C 26.2451171875 4.43684895833333  23.9262152777778 3.91666666666667  21.5 3.91666666666667  C 19.0737847222222 3.91666666666667  16.7548828125 4.43684895833333  14.5432942708333 5.47721354166667  C 12.3317057291667 6.517578125  10.4280598958333 7.90983072916667  8.83235677083333 9.65397135416667  C 7.23665364583333 11.3981119791667  5.962890625 13.4788411458333  5.01106770833333 15.8961588541667  C 4.05924479166667 18.3134765625  3.58333333333333 20.8480902777778  3.58333333333333 23.5  C 3.58333333333333 26.1519097222222  4.05924479166667 28.6865234375  5.01106770833333 31.1038411458333  C 5.962890625 33.5211588541667  7.23665364583333 35.6018880208333  8.83235677083333 37.3460286458333  C 10.4280598958333 39.0901692708333  12.3317057291667 40.482421875  14.5432942708333 41.5227864583333  C 16.7548828125 42.5631510416667  19.0737847222222 43.0833333333333  21.5 43.0833333333333  C 23.9262152777778 43.0833333333333  26.2451171875 42.5631510416667  28.4567057291667 41.5227864583333  C 30.6682942708333 40.482421875  32.5719401041667 39.0901692708333  34.1676432291667 37.3460286458333  C 35.7633463541667 35.6018880208333  37.037109375 33.5211588541667  37.9889322916667 31.1038411458333  Z M 40.1165364583333 11.7041015625  C 42.0388454861111 15.3045789930556  43 19.2365451388889  43 23.5  C 43 27.7634548611111  42.0388454861111 31.6954210069444  40.1165364583333 35.2958984375  C 38.1942274305556 38.8963758680556  35.5860460069444 41.7471788194444  32.2919921875 43.8483072916667  C 28.9979383680556 45.9494357638889  25.4006076388889 47  21.5 47  C 17.5993923611111 47  14.0020616319444 45.9494357638889  10.7080078125 43.8483072916667  C 7.41395399305556 41.7471788194444  4.80577256944444 38.8963758680556  2.88346354166667 35.2958984375  C 0.961154513888889 31.6954210069444  0 27.7634548611111  0 23.5  C 0 19.2365451388889  0.961154513888889 15.3045789930556  2.88346354166667 11.7041015625  C 4.80577256944444 8.10362413194444  7.41395399305556 5.25282118055555  10.7080078125 3.15169270833333  C 14.0020616319444 1.05056423611111  17.5993923611111 0  21.5 0  C 25.4006076388889 0  28.9979383680556 1.05056423611111  32.2919921875 3.15169270833333  C 35.5860460069444 5.25282118055555  38.1942274305556 8.10362413194444  40.1165364583333 11.7041015625  Z " fill-rule="nonzero" fill="#cccccc" stroke="none" transform="matrix(1 0 0 1 417 526 )" />
  </g>
</svg>