<?xml version="1.0" encoding="utf-8"?>
<svg version="1.1" xmlns:xlink="http://www.w3.org/1999/xlink" width="40px" height="36px" xmlns="http://www.w3.org/2000/svg">
  <g transform="matrix(1 0 0 1 -215 -587 )">
    <path d="M 32.423887587822 22.4824120603015  C 33.1342701014832 21.0552763819096  33.4894613583138 19.5577889447236  33.4894613583138 17.9899497487437  C 33.4894613583138 16.4221105527638  33.1342701014832 14.9246231155779  32.423887587822 13.4974874371859  C 31.7135050741608 12.070351758794  30.7533177205308 10.8375209380234  29.5433255269321 9.79899497487437  C 28.3333333333333 8.76046901172529  26.8969555035129 7.93634840871021  25.2341920374707 7.32663316582915  C 23.5714285714286 6.71691792294807  21.8266978922717 6.41206030150754  20 6.41206030150754  C 18.1733021077283 6.41206030150754  16.4285714285714 6.71691792294807  14.7658079625293 7.32663316582915  C 13.1030444964871 7.93634840871021  11.6666666666667 8.76046901172529  10.4566744730679 9.79899497487437  C 9.24668227946917 10.8375209380234  8.28649492583919 12.070351758794  7.57611241217799 13.4974874371859  C 6.86572989851678 14.9246231155779  6.51053864168618 16.4221105527638  6.51053864168618 17.9899497487437  C 6.51053864168618 19.5577889447236  6.86572989851678 21.0552763819096  7.57611241217799 22.4824120603015  C 8.28649492583919 23.9095477386935  9.24668227946917 25.142378559464  10.4566744730679 26.1809045226131  C 11.6666666666667 27.2194304857621  13.1030444964871 28.0435510887772  14.7658079625293 28.6532663316583  C 16.4285714285714 29.2629815745394  18.1733021077283 29.5678391959799  20 29.5678391959799  C 21.8266978922717 29.5678391959799  23.5714285714286 29.2629815745394  25.2341920374707 28.6532663316583  C 26.8969555035129 28.0435510887772  28.3333333333333 27.2194304857621  29.5433255269321 26.1809045226131  C 30.7533177205308 25.142378559464  31.7135050741608 23.9095477386935  32.423887587822 22.4824120603015  Z M 39.8594847775176 22.9748743718593  C 40 23.1356783919598  40.0312256049961 23.3299832495812  39.9531615925059 23.5577889447236  C 39.8907103825137 23.7587939698492  39.7345823575332 23.892797319933  39.4847775175644 23.9597989949749  L 32.6463700234192 25.8894472361809  L 32.6463700234192 32.0402010050251  C 32.6463700234192 32.2546063651591  32.5448868071819 32.428810720268  32.3419203747073 32.5628140703518  C 32.1077283372365 32.6968174204355  31.8813427010148 32.7236180904523  31.6627634660422 32.643216080402  L 24.824355971897 30.7537688442211  L 20.6088992974239 35.7386934673367  C 20.4527712724434 35.9128978224456  20.2498048399688 36  20 36  C 19.7501951600312 36  19.5472287275566 35.9128978224456  19.3911007025761 35.7386934673367  L 15.175644028103 30.7537688442211  L 8.33723653395785 32.643216080402  C 8.11865729898517 32.7236180904523  7.89227166276347 32.6968174204355  7.65807962529274 32.5628140703518  C 7.45511319281811 32.428810720268  7.3536299765808 32.2546063651591  7.3536299765808 32.0402010050251  L 7.3536299765808 25.8894472361809  L 0.515222482435597 23.9597989949749  C 0.265417642466823 23.892797319933  0.109289617486339 23.7587939698492  0.0468384074941452 23.5577889447236  C -0.0312256049960967 23.3299832495812  0 23.1356783919598  0.140515222482436 22.9748743718593  L 4.3559718969555 17.9899497487437  L 0.140515222482436 13.0050251256281  C 0 12.8308207705193  -0.0312256049960967 12.6365159128978  0.0468384074941452 12.4221105527638  C 0.109289617486339 12.2211055276382  0.265417642466823 12.0871021775544  0.515222482435597 12.0201005025126  L 7.3536299765808 10.0904522613065  L 7.3536299765808 3.93969849246231  C 7.3536299765808 3.72529313232831  7.45511319281811 3.55108877721943  7.65807962529274 3.41708542713568  C 7.89227166276347 3.28308207705192  8.11865729898517 3.25628140703517  8.33723653395785 3.33668341708543  L 15.175644028103 5.22613065326633  L 19.3911007025761 0.241206030150752  C 19.5316159250585 0.0804020100502494  19.7345823575332 0  20 0  C 20.2654176424668 0  20.4683840749415 0.0804020100502494  20.6088992974239 0.241206030150752  L 24.824355971897 5.22613065326633  L 31.6627634660422 3.33668341708543  C 31.8813427010148 3.25628140703517  32.1077283372365 3.28308207705192  32.3419203747073 3.41708542713568  C 32.5448868071819 3.55108877721943  32.6463700234192 3.72529313232831  32.6463700234192 3.93969849246231  L 32.6463700234192 10.0904522613065  L 39.4847775175644 12.0201005025126  C 39.7345823575332 12.0871021775544  39.8907103825137 12.2211055276382  39.9531615925059 12.4221105527638  C 40.0312256049961 12.6365159128978  40 12.8308207705193  39.8594847775176 13.0050251256281  L 35.6440281030445 17.9899497487437  L 39.8594847775176 22.9748743718593  Z " fill-rule="nonzero" fill="#cccccc" stroke="none" transform="matrix(1 0 0 1 215 587 )" />
  </g>
</svg>