<?xml version="1.0" encoding="utf-8"?>
<svg version="1.1" xmlns:xlink="http://www.w3.org/1999/xlink" width="32px" height="39px" xmlns="http://www.w3.org/2000/svg">
  <g transform="matrix(1 0 0 1 -273 -461 )">
    <path d="M 31.9204545454545 29.7958984375  C 31.9734848484849 30.6507161458333  32 31.5266927083333  32 32.423828125  C 32 34.455078125  31.4469696969697 36.0589192708333  30.3409090909091 37.2353515625  C 29.2348484848485 38.4117838541667  27.7651515151515 39  25.9318181818182 39  L 6.06818181818182 39  C 4.23484848484849 39  2.76515151515152 38.4117838541667  1.65909090909091 37.2353515625  C 0.553030303030303 36.0589192708333  0 34.455078125  0 32.423828125  C 0 31.5266927083333  0.0265151515151515 30.6507161458333  0.0795454545454545 29.7958984375  C 0.132575757575758 28.9410807291667  0.238636363636364 28.0185546875  0.397727272727273 27.0283203125  C 0.556818181818182 26.0380859375  0.757575757575758 25.1197916666667  1 24.2734375  C 1.24242424242424 23.4270833333333  1.56818181818182 22.6018880208333  1.97727272727273 21.7978515625  C 2.38636363636364 20.9938151041667  2.85606060606061 20.3082682291667  3.38636363636364 19.7412109375  C 3.91666666666667 19.1741536458333  4.56439393939394 18.7213541666667  5.32954545454545 18.3828125  C 6.09469696969697 18.0442708333333  6.93939393939394 17.875  7.86363636363636 17.875  C 8 17.875  8.31818181818182 18.0569661458333  8.81818181818182 18.4208984375  C 9.31818181818182 18.7848307291667  9.88257575757576 19.1910807291667  10.5113636363636 19.6396484375  C 11.1401515151515 20.0882161458333  11.9583333333333 20.4944661458333  12.9659090909091 20.8583984375  C 13.9734848484848 21.2223307291667  14.9848484848485 21.404296875  16 21.404296875  C 17.0151515151515 21.404296875  18.0265151515152 21.2223307291667  19.0340909090909 20.8583984375  C 20.0416666666667 20.4944661458333  20.8598484848485 20.0882161458333  21.4886363636364 19.6396484375  C 22.1174242424242 19.1910807291667  22.6818181818182 18.7848307291667  23.1818181818182 18.4208984375  C 23.6818181818182 18.0569661458333  24 17.875  24.1363636363636 17.875  C 25.0606060606061 17.875  25.905303030303 18.0442708333333  26.6704545454545 18.3828125  C 27.4356060606061 18.7213541666667  28.0833333333333 19.1741536458333  28.6136363636364 19.7412109375  C 29.1439393939394 20.3082682291667  29.6136363636364 20.9938151041667  30.0227272727273 21.7978515625  C 30.4318181818182 22.6018880208333  30.7575757575758 23.4270833333333  31 24.2734375  C 31.2424242424242 25.1197916666667  31.4431818181818 26.0380859375  31.6022727272727 27.0283203125  C 31.7613636363636 28.0185546875  31.8674242424242 28.9410807291667  31.9204545454545 29.7958984375  Z M 22.1704545454545 2.8564453125  C 23.875 4.7607421875  24.7272727272727 7.05859375  24.7272727272727 9.75  C 24.7272727272727 12.44140625  23.875 14.7392578125  22.1704545454545 16.6435546875  C 20.4659090909091 18.5478515625  18.4090909090909 19.5  16 19.5  C 13.5909090909091 19.5  11.5340909090909 18.5478515625  9.82954545454546 16.6435546875  C 8.125 14.7392578125  7.27272727272727 12.44140625  7.27272727272727 9.75  C 7.27272727272727 7.05859375  8.125 4.7607421875  9.82954545454546 2.8564453125  C 11.5340909090909 0.9521484375  13.5909090909091 0  16 0  C 18.4090909090909 0  20.4659090909091 0.9521484375  22.1704545454545 2.8564453125  Z " fill-rule="nonzero" fill="#cccccc" stroke="none" transform="matrix(1 0 0 1 273 461 )" />
  </g>
</svg>