<?xml version="1.0" encoding="utf-8"?>
<svg version="1.1" xmlns:xlink="http://www.w3.org/1999/xlink" width="32px" height="44px" xmlns="http://www.w3.org/2000/svg">
  <g transform="matrix(1 0 0 1 -707 -467 )">
    <path d="M 31.9204545454545 33.6158854166667  C 31.9734848484849 34.5802951388889  32 35.5685763888889  32 36.5807291666667  C 32 38.8723958333333  31.4469696969697 40.6818576388889  30.3409090909091 42.0091145833333  C 29.2348484848485 43.3363715277778  27.7651515151515 44  25.9318181818182 44  L 6.06818181818182 44  C 4.23484848484849 44  2.76515151515152 43.3363715277778  1.65909090909091 42.0091145833333  C 0.553030303030303 40.6818576388889  0 38.8723958333333  0 36.5807291666667  C 0 35.5685763888889  0.0265151515151515 34.5802951388889  0.0795454545454545 33.6158854166667  C 0.132575757575758 32.6514756944444  0.238636363636364 31.6106770833333  0.397727272727273 30.4934895833333  C 0.556818181818182 29.3763020833333  0.757575757575758 28.3402777777778  1 27.3854166666667  C 1.24242424242424 26.4305555555556  1.56818181818182 25.4995659722222  1.97727272727273 24.5924479166667  C 2.38636363636364 23.6853298611111  2.85606060606061 22.9118923611111  3.38636363636364 22.2721354166667  C 3.91666666666667 21.6323784722222  4.56439393939394 21.1215277777778  5.32954545454545 20.7395833333333  C 6.09469696969697 20.3576388888889  6.93939393939394 20.1666666666667  7.86363636363636 20.1666666666667  C 8 20.1666666666667  8.31818181818182 20.3719618055556  8.81818181818182 20.7825520833333  C 9.31818181818182 21.1931423611111  9.88257575757576 21.6514756944444  10.5113636363636 22.1575520833333  C 11.1401515151515 22.6636284722222  11.9583333333333 23.1219618055556  12.9659090909091 23.5325520833333  C 13.9734848484848 23.9431423611111  14.9848484848485 24.1484375  16 24.1484375  C 17.0151515151515 24.1484375  18.0265151515152 23.9431423611111  19.0340909090909 23.5325520833333  C 20.0416666666667 23.1219618055556  20.8598484848485 22.6636284722222  21.4886363636364 22.1575520833333  C 22.1174242424242 21.6514756944444  22.6818181818182 21.1931423611111  23.1818181818182 20.7825520833333  C 23.6818181818182 20.3719618055556  24 20.1666666666667  24.1363636363636 20.1666666666667  C 25.0606060606061 20.1666666666667  25.905303030303 20.3576388888889  26.6704545454545 20.7395833333333  C 27.4356060606061 21.1215277777778  28.0833333333333 21.6323784722222  28.6136363636364 22.2721354166667  C 29.1439393939394 22.9118923611111  29.6136363636364 23.6853298611111  30.0227272727273 24.5924479166667  C 30.4318181818182 25.4995659722222  30.7575757575758 26.4305555555556  31 27.3854166666667  C 31.2424242424242 28.3402777777778  31.4431818181818 29.3763020833333  31.6022727272727 30.4934895833333  C 31.7613636363636 31.6106770833333  31.8674242424242 32.6514756944444  31.9204545454545 33.6158854166667  Z M 22.1704545454545 3.22265625  C 23.875 5.37109375  24.7272727272727 7.96354166666667  24.7272727272727 11  C 24.7272727272727 14.0364583333333  23.875 16.62890625  22.1704545454545 18.77734375  C 20.4659090909091 20.92578125  18.4090909090909 22  16 22  C 13.5909090909091 22  11.5340909090909 20.92578125  9.82954545454546 18.77734375  C 8.125 16.62890625  7.27272727272727 14.0364583333333  7.27272727272727 11  C 7.27272727272727 7.96354166666667  8.125 5.37109375  9.82954545454546 3.22265625  C 11.5340909090909 1.07421875  13.5909090909091 0  16 0  C 18.4090909090909 0  20.4659090909091 1.07421875  22.1704545454545 3.22265625  Z " fill-rule="nonzero" fill="#cccccc" stroke="none" transform="matrix(1 0 0 1 707 467 )" />
  </g>
</svg>