<?xml version="1.0" encoding="utf-8"?>
<svg version="1.1" xmlns:xlink="http://www.w3.org/1999/xlink" width="64px" height="59px" xmlns="http://www.w3.org/2000/svg">
  <g transform="matrix(1 0 0 1 -238 -176 )">
    <path d="M 270 176  C 287.92 176  302 188.98  302 205.5  C 302 222.02  287.92 235  270 235  C 252.08 235  238 222.02  238 205.5  C 238 188.98  252.08 176  270 176  Z " fill-rule="nonzero" fill="#facd91" stroke="none" />
    <path d="M 270 176.5  C 287.64 176.5  301.5 189.26  301.5 205.5  C 301.5 221.74  287.64 234.5  270 234.5  C 252.36 234.5  238.5 221.74  238.5 205.5  C 238.5 189.26  252.36 176.5  270 176.5  Z " stroke-width="1" stroke="#ffffff" fill="none" />
  </g>
</svg>