<?xml version="1.0" encoding="utf-8"?>
<svg version="1.1" xmlns:xlink="http://www.w3.org/1999/xlink" width="17px" height="19px" xmlns="http://www.w3.org/2000/svg">
  <g transform="matrix(1 0 0 1 -46 -142 )">
    <path d="M 14.1666666611329 8.70849167285157  C 14.1666666611329 12.6375333457031  11.307125 15.8334916728516  7.79166666113288 15.8334916728516  C 4.27620832226551 15.8334916728516  1.41666666113288 12.6375333457031  1.41666666113288 8.70849167285157  C 1.41666666113288 4.77945000000005  4.27620832226551 1.58349167285157  7.79166666113288 1.58349167285157  C 11.307125 1.58349167285157  14.1666666611329 4.77945000000005  14.1666666611329 8.70849167285157  Z M 16.7931666611328 18.7689916728516  C 17.0686750920587 18.4593783617951  17.0686750920587 17.9591883110564  16.7931666611328 17.649575  L 13.7784999999999 14.27945  C 14.9047499999999 12.7697416728515  15.5833333388671 10.8277833271485  15.5833333388671 8.70849167285157  C 15.5833333388671 3.89911667285159  12.0947916777343 0.000158345703059442  7.79166666113288 0.000158327148470663  C 3.48854164453121 0.000158308593761881  0 3.89911665429688  0 8.70849167285157  C 0 13.5178666914063  3.48854166113279 17.416825  7.79166666113288 17.416825  C 9.68787499999999 17.416825  11.4254166611328 16.6584083271484  12.7762083388671 15.3996583271485  L 15.7915833388671 18.7689916728516  C 16.0686057731412 19.0769128480548  16.5161442268587 19.0769128480548  16.7931666611328 18.7689916728516  Z " fill-rule="nonzero" fill="#999999" stroke="none" transform="matrix(1 0 0 1 46 142 )" />
  </g>
</svg>