<?xml version="1.0" encoding="utf-8"?>
<svg version="1.1" xmlns:xlink="http://www.w3.org/1999/xlink" width="47px" height="39px" xmlns="http://www.w3.org/2000/svg">
  <g transform="matrix(1 0 0 1 -164 -7 )">
    <path d="M 187.5 7  C 200.66 7  211 15.58  211 26.5  C 211 37.42  200.66 46  187.5 46  C 174.34 46  164 37.42  164 26.5  C 164 15.58  174.34 7  187.5 7  Z " fill-rule="nonzero" fill="#ffffff" stroke="none" />
    <path d="M 187.5 7.5  C 200.38 7.5  210.5 15.86  210.5 26.5  C 210.5 37.14  200.38 45.5  187.5 45.5  C 174.62 45.5  164.5 37.14  164.5 26.5  C 164.5 15.86  174.62 7.5  187.5 7.5  Z " stroke-width="1" stroke="#797979" fill="none" />
  </g>
</svg>