<?xml version="1.0" encoding="utf-8"?>
<svg version="1.1" xmlns:xlink="http://www.w3.org/1999/xlink" width="27px" height="18px" xmlns="http://www.w3.org/2000/svg">
  <g transform="matrix(1 0 0 1 -198 -869 )">
    <path d="M 10.8 11.25  L 10.8 12.6  L 16.2 12.6  L 16.2 11.25  L 14.4 11.25  L 14.4 4.95  L 12.796875 4.95  L 10.715625 6.8765625  L 11.7984375 8.0015625  C 12.1921875 7.6546875  12.45 7.3875  12.571875 7.2  L 12.6 7.2  L 12.6 11.25  L 10.8 11.25  Z M 17.7046875 7.003125  C 17.9015625 7.678125  18 8.34375  18 9  C 18 9.65625  17.9015625 10.321875  17.7046875 10.996875  C 17.5078125 11.671875  17.22890625 12.3  16.86796875 12.88125  C 16.50703125 13.4625  16.03125 13.9359375  15.440625 14.3015625  C 14.85 14.6671875  14.203125 14.85  13.5 14.85  C 12.796875 14.85  12.15 14.6671875  11.559375 14.3015625  C 10.96875 13.9359375  10.49296875 13.4625  10.13203125 12.88125  C 9.77109375 12.3  9.4921875 11.671875  9.2953125 10.996875  C 9.0984375 10.321875  9 9.65625  9 9  C 9 8.34375  9.0984375 7.678125  9.2953125 7.003125  C 9.4921875 6.328125  9.77109375 5.7  10.13203125 5.11875  C 10.49296875 4.5375  10.96875 4.0640625  11.559375 3.6984375  C 12.15 3.3328125  12.796875 3.15  13.5 3.15  C 14.203125 3.15  14.85 3.3328125  15.440625 3.6984375  C 16.03125 4.0640625  16.50703125 4.5375  16.86796875 5.11875  C 17.22890625 5.7  17.5078125 6.328125  17.7046875 7.003125  Z M 22.6546875 13.6546875  C 23.3578125 12.9515625  24.20625 12.6  25.2 12.6  L 25.2 5.4  C 24.20625 5.4  23.3578125 5.0484375  22.6546875 4.3453125  C 21.9515625 3.6421875  21.6 2.79375  21.6 2  L 5.4 2  C 5.4 2.79375  5.0484375 3.6421875  4.3453125 4.3453125  C 3.6421875 5.0484375  2.79375 5.4  1.8 5.4  L 1.8 12.6  C 2.79375 12.6  3.6421875 12.9515625  4.3453125 13.6546875  C 5.0484375 14.3578125  5.4 15.20625  5.4 16  L 21.6 16  C 21.6 15.20625  21.9515625 14.3578125  22.6546875 13.6546875  Z M 26.7328125 0.267187500000001  C 26.9109375 0.445312499999999  27 0.656249999999999  27 0.900000000000001  L 27 17.1  C 27 17.34375  26.9109375 17.5546875  26.7328125 17.7328125  C 26.5546875 17.9109375  26.34375 18  26.1 18  L 0.9 18  C 0.65625 18  0.4453125 17.9109375  0.2671875 17.7328125  C 0.0890625 17.5546875  0 17.34375  0 17.1  L 0 0.900000000000001  C 0 0.656249999999999  0.0890625 0.445312499999999  0.2671875 0.267187500000001  C 0.4453125 0.0890624999999989  0.65625 0  0.9 0  L 26.1 0  C 26.34375 0  26.5546875 0.0890624999999989  26.7328125 0.267187500000001  Z " fill-rule="nonzero" fill="#000000" stroke="none" transform="matrix(1 0 0 1 198 869 )" />
  </g>
</svg>