<?xml version="1.0" encoding="utf-8"?>
<svg version="1.1" xmlns:xlink="http://www.w3.org/1999/xlink" width="18px" height="17px" xmlns="http://www.w3.org/2000/svg">
  <g transform="matrix(1 0 0 1 -108 -193 )">
    <path d="M 14.9999999941407 7.79180833886719  C 14.9999999941407 11.3072666777343  11.97225 14.1668083388672  8.24999999414069 14.1668083388672  C 4.52774998828113 14.1668083388672  1.49999999414069 11.3072666777343  1.49999999414069 7.79180833886719  C 1.49999999414069 4.27635000000004  4.52774998828113 1.41680833886719  8.24999999414069 1.41680833886719  C 11.97225 1.41680833886719  14.9999999941407 4.27635000000004  14.9999999941407 7.79180833886719  Z M 17.7809999941406 16.7933083388673  C 18.0727148033562 16.5162859026588  18.0727148033562 16.0687474362084  17.7809999941406 15.791725  L 14.5889999999999 12.77635  C 15.7814999999999 11.4255583388672  16.5000000058593 9.68801666113283  16.5000000058593 7.79180833886719  C 16.5000000058593 3.48868333886722  12.8062500117187 0.000141677734316343  8.24999999414069 0.000141661132842172  C 3.69374997656246 0.000141644531260631  0 3.48868332226563  0 7.79180833886719  C 0 12.0949333554688  3.6937499941406 15.583475  8.24999999414069 15.583475  C 10.25775 15.583475  12.0974999941407 14.9048916611328  13.5277500058593 13.7786416611329  L 16.7205000058593 16.7933083388673  C 17.0138178774437 17.0688167587859  17.4876821225563 17.0688167587859  17.7809999941406 16.7933083388673  Z " fill-rule="nonzero" fill="#999999" stroke="none" transform="matrix(1 0 0 1 108 193 )" />
  </g>
</svg>