<?xml version="1.0" encoding="utf-8"?>
<svg version="1.1" xmlns:xlink="http://www.w3.org/1999/xlink" width="10px" height="9px" xmlns="http://www.w3.org/2000/svg">
  <g transform="matrix(1 0 0 1 -70 -525 )">
    <path d="M 6.14489408921261 4.50289264472416  L 9.6142793321867 7.63554175622089  C 9.92938580430339 7.92058389212496  9.92856057157496 8.38016159115243  9.61267231996501 8.66375741605617  C 9.455140810524 8.80483217300912  9.24909461028997 8.87609269562329  9.04226663056224 8.87609269562329  C 8.83461341810602 8.87609269562329  8.62778543837828 8.80483215028494  8.47021047570254 8.66231108233329  L 4.99596074282766 5.52602661665689  L 1.51041842066752 8.62959300834283  C 1.35288691122653 8.76922143157204  1.14762251573484 8.83973926745391  0.942401548228787 8.83973926745391  C 0.733966531030205 8.83973926745391  0.526313343823148 8.76773603538508  0.367956576405049 8.62376863370968  C 0.0544571165104912 8.33798378834903  0.0568893614606623 7.87840608932242  0.374428103776125 7.59555297387259  L 3.85593114351533 4.49636464582108  L 0.38732770528415 1.36445822105489  C 0.0722212331674257 1.08011968669467  0.0730464658958851 0.619838386124221  0.388934717505833 0.336242561219617  C 0.704866422350534 0.0519040268593862  1.21546485692357 0.053389445769718  1.53139656176779 0.337688872219125  L 5.0048210619147 3.47323062843991  L 8.49036338407484 0.369703321940563  C 8.80707686841325 0.0868502064915845  9.31932576844275 0.0897428284906141  9.63282522833731 0.375527696574576  C 9.94710646772558 0.661312541934315  9.94389244328121 1.12159384250574  9.62635370096569 1.40374335641082  L 6.14489408921261 4.50289264472416  Z " fill-rule="nonzero" fill="#ffffff" stroke="none" transform="matrix(1 0 0 1 70 525 )" />
  </g>
</svg>