<?xml version="1.0" encoding="utf-8"?>
<svg version="1.1" xmlns:xlink="http://www.w3.org/1999/xlink" width="17px" height="12px" xmlns="http://www.w3.org/2000/svg">
  <defs>
    <linearGradient gradientUnits="userSpaceOnUse" x1="-11.9219529930601" y1="8.9114296221863" x2="17" y2="8.9114296221863" id="LinearGradient48">
      <stop id="Stop49" stop-color="#fe7146" offset="0" />
      <stop id="Stop50" stop-color="#f6bf8d" offset="1" />
    </linearGradient>
  </defs>
  <g transform="matrix(1 0 0 1 -295 -317 )">
    <path d="M 1.60975609756133 3.15789473684208  C 2.49879984114159 3.15789473684208  3.21951219512266 2.45097592073671  3.21951219512266 1.57894736842081  C 3.21951219512266 0.706918816105372  2.49879984114159 0  1.60975609756133 0  C 0.720712353981071 0  0 0.706918816105372  0 1.57894736842081  C 0 2.45097592073671  0.720712353981071 3.15789473684208  1.60975609756133 3.15789473684208  Z M 6.03658536585317 3.15789473684208  C 6.92562910943343 3.15789473684208  7.6463414634145 2.45097592073671  7.6463414634145 1.57894736842081  C 7.6463414634145 0.706918816105372  6.92562910943343 0  6.03658536585317 0  C 5.14754162227291 0  4.42682926829184 0.706918816105372  4.42682926829184 1.57894736842081  C 4.42682926829184 2.45097592073671  5.14754162227291 3.15789473684208  6.03658536585317 3.15789473684208  Z M 12.0731707317082 1.57894736842081  C 12.0731707317082 0.706918816105372  11.3524583777271 0  10.4634146341468 0  C 9.57437089056657 0  8.8536585365855 0.706918816105372  8.8536585365855 1.57894736842081  C 8.8536585365855 2.45097592073671  9.57437089056657 3.15789473684208  10.4634146341468 3.15789473684208  C 11.3524583777271 3.15789473684208  12.0731707317082 2.45097592073671  12.0731707317082 1.57894736842081  Z M 14.8902439024387 0  C 14.0012001588584 0  13.2804878048773 0.706918816105372  13.2804878048773 1.57894736842081  C 13.2804878048773 2.45097592073671  14.0012001588584 3.15789473684208  14.8902439024387 3.15789473684208  C 15.7792876460189 3.15789473684208  16.5 2.45097592073671  16.5 1.57894736842081  C 16.5 0.706918816105372  15.7792876460189 0  14.8902439024387 0  Z M 0 5.5263157894733  C 0 6.3983443417892  0.720712353981071 7.10526315789457  1.60975609756133 7.10526315789457  C 2.49879984114159 7.10526315789457  3.21951219512266 6.3983443417892  3.21951219512266 5.5263157894733  C 3.21951219512266 4.65428723715786  2.49879984114159 3.94736842105249  1.60975609756133 3.94736842105249  C 0.720712353981071 3.94736842105249  0 4.65428723715786  0 5.5263157894733  Z M 6.03658536585317 7.10526315789457  C 6.92562910943343 7.10526315789457  7.6463414634145 6.3983443417892  7.6463414634145 5.5263157894733  C 7.6463414634145 4.65428723715786  6.92562910943343 3.94736842105249  6.03658536585317 3.94736842105249  C 5.14754162227291 3.94736842105249  4.42682926829184 4.65428723715786  4.42682926829184 5.5263157894733  C 4.42682926829184 6.3983443417892  5.14754162227291 7.10526315789457  6.03658536585317 7.10526315789457  Z M 12.0731707317082 5.5263157894733  C 12.0731707317082 4.65428723715786  11.3524583777271 3.94736842105249  10.4634146341468 3.94736842105249  C 9.57437089056657 3.94736842105249  8.8536585365855 4.65428723715786  8.8536585365855 5.5263157894733  C 8.8536585365855 6.3983443417892  9.57437089056657 7.10526315789457  10.4634146341468 7.10526315789457  C 11.3524583777271 7.10526315789457  12.0731707317082 6.3983443417892  12.0731707317082 5.5263157894733  Z M 14.8902439024387 3.94736842105249  C 14.0012001588584 3.94736842105249  13.2804878048773 4.65428723715786  13.2804878048773 5.5263157894733  C 13.2804878048773 6.3983443417892  14.0012001588584 7.10526315789457  14.8902439024387 7.10526315789457  C 15.7792876460189 7.10526315789457  16.5 6.3983443417892  16.5 5.5263157894733  C 16.5 4.65428723715786  15.7792876460189 3.94736842105249  14.8902439024387 3.94736842105249  Z M 0 9.47368421052579  C 0 10.3457127628417  0.720712353981071 11.0526315789471  1.60975609756133 11.0526315789471  C 2.49879984114159 11.0526315789471  3.21951219512266 10.3457127628417  3.21951219512266 9.47368421052579  C 3.21951219512266 8.60165565821035  2.49879984114159 7.89473684210498  1.60975609756133 7.89473684210498  C 0.720712353981071 7.89473684210498  0 8.60165565821035  0 9.47368421052579  Z M 6.03658536585317 11.0526315789471  C 6.92562910943343 11.0526315789471  7.6463414634145 10.3457127628417  7.6463414634145 9.47368421052579  C 7.6463414634145 8.60165565821035  6.92562910943343 7.89473684210498  6.03658536585317 7.89473684210498  C 5.14754162227291 7.89473684210498  4.42682926829184 8.60165565821035  4.42682926829184 9.47368421052579  C 4.42682926829184 10.3457127628417  5.14754162227291 11.0526315789471  6.03658536585317 11.0526315789471  Z M 12.0731707317082 9.47368421052579  C 12.0731707317082 8.60165565821035  11.3524583777271 7.89473684210498  10.4634146341468 7.89473684210498  C 9.57437089056657 7.89473684210498  8.8536585365855 8.60165565821035  8.8536585365855 9.47368421052579  C 8.8536585365855 10.3457127628417  9.57437089056657 11.0526315789471  10.4634146341468 11.0526315789471  C 11.3524583777271 11.0526315789471  12.0731707317082 10.3457127628417  12.0731707317082 9.47368421052579  Z M 14.8902439024387 7.89473684210498  C 14.0012001588584 7.89473684210498  13.2804878048773 8.60165565821035  13.2804878048773 9.47368421052579  C 13.2804878048773 10.3457127628417  14.0012001588584 11.0526315789471  14.8902439024387 11.0526315789471  C 15.7792876460189 11.0526315789471  16.5 10.3457127628417  16.5 9.47368421052579  C 16.5 8.60165565821035  15.7792876460189 7.89473684210498  14.8902439024387 7.89473684210498  Z " fill-rule="nonzero" fill="url(#LinearGradient48)" stroke="none" transform="matrix(1 0 0 1 295 317 )" />
  </g>
</svg>