<?xml version="1.0" encoding="utf-8"?>
<svg version="1.1" xmlns:xlink="http://www.w3.org/1999/xlink" width="17px" height="12px" xmlns="http://www.w3.org/2000/svg">
  <defs>
    <linearGradient gradientUnits="userSpaceOnUse" x1="-11.9219529930601" y1="8.9114296221863" x2="17" y2="8.9114296221863" id="LinearGradient45">
      <stop id="Stop46" stop-color="#fe7146" offset="0" />
      <stop id="Stop47" stop-color="#f6bf8d" offset="1" />
    </linearGradient>
  </defs>
  <g transform="matrix(1 0 0 1 -64 -316 )">
    <path d="M 1.60975609756133 3.65789473684208  C 2.49879984114159 3.65789473684208  3.21951219512266 2.95097592073671  3.21951219512266 2.07894736842081  C 3.21951219512266 1.20691881610537  2.49879984114159 0.5  1.60975609756133 0.5  C 0.720712353981071 0.5  0 1.20691881610537  0 2.07894736842081  C 0 2.95097592073671  0.720712353981071 3.65789473684208  1.60975609756133 3.65789473684208  Z M 6.03658536585317 3.65789473684208  C 6.92562910943343 3.65789473684208  7.6463414634145 2.95097592073671  7.6463414634145 2.07894736842081  C 7.6463414634145 1.20691881610537  6.92562910943343 0.5  6.03658536585317 0.5  C 5.14754162227291 0.5  4.42682926829184 1.20691881610537  4.42682926829184 2.07894736842081  C 4.42682926829184 2.95097592073671  5.14754162227291 3.65789473684208  6.03658536585317 3.65789473684208  Z M 12.0731707317082 2.07894736842081  C 12.0731707317082 1.20691881610537  11.3524583777271 0.5  10.4634146341468 0.5  C 9.57437089056657 0.5  8.8536585365855 1.20691881610537  8.8536585365855 2.07894736842081  C 8.8536585365855 2.95097592073671  9.57437089056657 3.65789473684208  10.4634146341468 3.65789473684208  C 11.3524583777271 3.65789473684208  12.0731707317082 2.95097592073671  12.0731707317082 2.07894736842081  Z M 14.8902439024387 0.5  C 14.0012001588584 0.5  13.2804878048773 1.20691881610537  13.2804878048773 2.07894736842081  C 13.2804878048773 2.95097592073671  14.0012001588584 3.65789473684208  14.8902439024387 3.65789473684208  C 15.7792876460189 3.65789473684208  16.5 2.95097592073671  16.5 2.07894736842081  C 16.5 1.20691881610537  15.7792876460189 0.5  14.8902439024387 0.5  Z M 0 6.0263157894733  C 0 6.8983443417892  0.720712353981071 7.60526315789457  1.60975609756133 7.60526315789457  C 2.49879984114159 7.60526315789457  3.21951219512266 6.8983443417892  3.21951219512266 6.0263157894733  C 3.21951219512266 5.15428723715786  2.49879984114159 4.44736842105249  1.60975609756133 4.44736842105249  C 0.720712353981071 4.44736842105249  0 5.15428723715786  0 6.0263157894733  Z M 6.03658536585317 7.60526315789457  C 6.92562910943343 7.60526315789457  7.6463414634145 6.8983443417892  7.6463414634145 6.0263157894733  C 7.6463414634145 5.15428723715786  6.92562910943343 4.44736842105249  6.03658536585317 4.44736842105249  C 5.14754162227291 4.44736842105249  4.42682926829184 5.15428723715786  4.42682926829184 6.0263157894733  C 4.42682926829184 6.8983443417892  5.14754162227291 7.60526315789457  6.03658536585317 7.60526315789457  Z M 12.0731707317082 6.0263157894733  C 12.0731707317082 5.15428723715786  11.3524583777271 4.44736842105249  10.4634146341468 4.44736842105249  C 9.57437089056657 4.44736842105249  8.8536585365855 5.15428723715786  8.8536585365855 6.0263157894733  C 8.8536585365855 6.8983443417892  9.57437089056657 7.60526315789457  10.4634146341468 7.60526315789457  C 11.3524583777271 7.60526315789457  12.0731707317082 6.8983443417892  12.0731707317082 6.0263157894733  Z M 14.8902439024387 4.44736842105249  C 14.0012001588584 4.44736842105249  13.2804878048773 5.15428723715786  13.2804878048773 6.0263157894733  C 13.2804878048773 6.8983443417892  14.0012001588584 7.60526315789457  14.8902439024387 7.60526315789457  C 15.7792876460189 7.60526315789457  16.5 6.8983443417892  16.5 6.0263157894733  C 16.5 5.15428723715786  15.7792876460189 4.44736842105249  14.8902439024387 4.44736842105249  Z M 0 9.9736842105267  C 0 10.8457127628421  0.720712353981071 11.5526315789475  1.60975609756133 11.5526315789475  C 2.49879984114159 11.5526315789475  3.21951219512266 10.8457127628421  3.21951219512266 9.9736842105267  C 3.21951219512266 9.1016556582108  2.49879984114159 8.39473684210543  1.60975609756133 8.39473684210543  C 0.720712353981071 8.39473684210543  0 9.1016556582108  0 9.9736842105267  Z M 6.03658536585317 11.5526315789475  C 6.92562910943343 11.5526315789475  7.6463414634145 10.8457127628421  7.6463414634145 9.9736842105267  C 7.6463414634145 9.1016556582108  6.92562910943343 8.39473684210543  6.03658536585317 8.39473684210543  C 5.14754162227291 8.39473684210543  4.42682926829184 9.1016556582108  4.42682926829184 9.9736842105267  C 4.42682926829184 10.8457127628421  5.14754162227291 11.5526315789475  6.03658536585317 11.5526315789475  Z M 12.0731707317082 9.9736842105267  C 12.0731707317082 9.1016556582108  11.3524583777271 8.39473684210543  10.4634146341468 8.39473684210543  C 9.57437089056657 8.39473684210543  8.8536585365855 9.1016556582108  8.8536585365855 9.9736842105267  C 8.8536585365855 10.8457127628421  9.57437089056657 11.5526315789475  10.4634146341468 11.5526315789475  C 11.3524583777271 11.5526315789475  12.0731707317082 10.8457127628421  12.0731707317082 9.9736842105267  Z M 14.8902439024387 8.39473684210543  C 14.0012001588584 8.39473684210543  13.2804878048773 9.1016556582108  13.2804878048773 9.9736842105267  C 13.2804878048773 10.8457127628421  14.0012001588584 11.5526315789475  14.8902439024387 11.5526315789475  C 15.7792876460189 11.5526315789475  16.5 10.8457127628421  16.5 9.9736842105267  C 16.5 9.1016556582108  15.7792876460189 8.39473684210543  14.8902439024387 8.39473684210543  Z " fill-rule="nonzero" fill="url(#LinearGradient45)" stroke="none" transform="matrix(1 0 0 1 64 316 )" />
  </g>
</svg>