<?xml version="1.0" encoding="utf-8"?>
<svg version="1.1" xmlns:xlink="http://www.w3.org/1999/xlink" width="32px" height="42px" xmlns="http://www.w3.org/2000/svg">
  <defs>
    <linearGradient gradientUnits="userSpaceOnUse" x1="16" y1="40.8863754263411" x2="16" y2="1.46138908959538" id="LinearGradient53">
      <stop id="Stop54" stop-color="#fc434a" offset="0" />
      <stop id="Stop55" stop-color="#ff7446" offset="1" />
    </linearGradient>
  </defs>
  <g transform="matrix(1 0 0 1 -302 -99 )">
    <path d="M 4.10000000000036 41  C 2.08400000000074 41.2769230769227  0.5 39.6928273497374  1 37.6767055151386  L 1 10.9999816961954  C 4.25194899297276 15.2103322779226  9.80437649626947 17.875508925325  16 17.875508925325  C 22.1956235037305 17.875508925325  27.7480510070272 15.2103322779217  31 10.9999671708479  L 31 37.6767055151386  C 31.5 39.6928273497374  29.9159999999993 41.2769230769227  27.8999999999996 41  L 4.10000000000036 41  Z M 31.5 7.40554038863001  C 31.5 7.40554038863001  31.5 0.5  31.5 1  L 0.5 1  L 0.5 7.40554038863001  C 0.5 7.40554038863001  16.2204794609679 23.8713826882927  31.5 7.40554038863001  Z " fill-rule="nonzero" fill="url(#LinearGradient53)" stroke="none" transform="matrix(1 0 0 1 302 99 )" />
  </g>
</svg>