<?xml version="1.0" encoding="utf-8"?>
<svg version="1.1" xmlns:xlink="http://www.w3.org/1999/xlink" width="21px" height="20px" xmlns="http://www.w3.org/2000/svg">
  <g transform="matrix(1 0 0 1 -222 -366 )">
    <path d="M 17.885952388373 2.448849454026  C 17.7248809631892 3.3467838812544  16.8658333428502 3.88938597756305  15.7432142871658 4.08625929527352  C 15.7432142871658 4.08625929527352  19.9798809544773 4.08625929527352  19.9798809544773 4.08625929527352  C 20.5413765121048 4.086252972284  20.9973134252523 4.53264893118649  21 5.08503128848088  C 21 5.08503128848088  21 8.67676899739399  21 8.67676899739399  L 11.5553571355977 8.67676899739399  C 11.5553571355977 8.67676899739399  11.5553571355977 4.13907896634328  11.5553571355977 4.13907896634328  C 11.3405952353532 4.13907896634328  11.0672619007291 4.08625929527352  10.9110714348626 4.08625929527352  C 10.6426190595557 4.13907896634328  10.3204761898305 4.13907896634328  9.94464286440234 4.19189863741303  C 9.94464286440234 4.19189863741303  9.94464286440234 8.67676899739399  9.94464286440234 8.67676899739399  L 0.5 8.67676899739399  C 0.5 8.67676899739399  0.5 5.08503128848088  0.5 5.08503128848088  C 0.502686574747713 4.53264893118649  0.958623487895238 4.086252972284  1.52011904552273 4.08625929527352  C 1.52011904552273 4.08625929527352  5.81047618789489 4.08625929527352  5.81047618789489 4.08625929527352  C 4.6878571515681 3.8413680826543  3.82880953122913 3.36118924782295  3.77511905616848 2.448849454026  C 3.72142858110783 1.3924560135888  4.95630952687497 -0.350593169798231  6.72321428329451 0.0719642178028153  C 8.49011903971405 0.494521605403406  9.83726189492154 1.86783307225915  10.8036904847395 3.08268552590607  C 11.7798809544784 1.86783307225915  13.2197619205708 0.283242902081383  15.098928567073 0.0191445467330595  C 16.7584523733713 -0.192134137545963  18.0274999956455 1.3924560326318  17.885952388373 2.448849454026  Z M 1.34928572106037 18.5396423303373  C 1.34928572106037 18.5396423303373  1.34928572106037 9.41624439237012  1.34928572106037 9.41624439237012  L 10 9.41624439237012  L 10 19.5  C 9.99833333946299 19.5  2.32547619079924 19.5  2.32547619079924 19.5  C 1.7863410814316 19.5  1.34928572106037 19.0700332256752  1.34928572106037 18.5396423303373  Z M 6.93797618354074 1.02271831610051  C 6.27184735028277 0.724910135251776  5.48599053311773 1.00681802036888  5.17107142711939 1.65655436893712  C 4.95630952687497 1.97347239535566  4.74154762662874 2.44884945402646  5.06369047699809 2.76576749948754  C 5.91785713801801 3.61088225564617  8.22654762372622 3.55806258457687  9.83726191427922 3.39960355232461  C 9.08559524406337 2.50166912509621  8.17285714866375 1.47888819395575  6.93797618354074 1.02271831610051  Z M 16.6071428668201 2.76576749948754  C 17.1879761932178 1.97347241439866  16.0067857225113 0.388882244220895  14.7230952416448 0.960295054623202  C 13.584531686407 1.55150485894637  12.5941217206946 2.38478439262053  11.8238095302622 3.39960355232415  C 12.468095250355 3.45242322339391  13.1660714261525 3.45242322339391  13.8103571462452 3.45242322339391  C 14.6547619079884 3.39960355232415  16.1678571476969 3.36118924782295  16.6071428668201 2.76576749948754  Z M 11.501666660537 9.46906406343987  L 20.1409523796628 9.46906406343987  C 20.1409523796628 9.46906406343987  20.1409523796628 18.5396423303373  20.1409523796628 18.5396423303373  C 20.1409523796628 19.0700332256752  19.7038970192916 19.5  19.164761909924 19.5  C 19.164761909924 19.5  11.501666660537 19.5  11.501666660537 19.5  L 11.501666660537 9.46906406343987  Z " fill-rule="nonzero" fill="#ffffff" stroke="none" transform="matrix(1 0 0 1 222 366 )" />
  </g>
</svg>