<?xml version="1.0" encoding="utf-8"?>
<svg version="1.1" xmlns:xlink="http://www.w3.org/1999/xlink" width="18px" height="20px" xmlns="http://www.w3.org/2000/svg">
  <g transform="matrix(1 0 0 1 -3 -205 )">
    <path d="M 17.4999931585535 5.4999993912463  C 17.4999931585535 5.4999993912463  17.4999931585535 18.6178834962416  17.4999931585535 18.6178834962416  C 17.5022537960795 19.3610749684509  16.8444082761962 19.9999977863502  16.0780521550951 19.9999977863502  C 16.0780521550951 19.9999977863502  1.92646124626845 19.9999977863502  1.92646124626845 19.9999977863502  C 1.15784448764134 19.9999977863502  0.499998967758074 19.3632934504572  0.499998967758074 18.620101978248  C 0.499998967758074 18.620101978248  0.499998967758074 5.55324295940469  0.499998967758074 5.55324295940469  C 1.70717940630675 6.77562654503855  3.1336416848153 7.73179228988092  4.77712516576139 8.31525305761501  C 4.77712516576139 10.5980710424012  6.69640642480226 12.4571589639275  8.99999606315578 12.5104025320859  C 11.3578410021182 12.5104025320859  13.2228669605502 10.6513146105596  13.2771222611591 8.3684966257734  C 13.2771222611591 8.31525305761501  13.2228669605502 8.31525305761501  13.2228669605502 8.26200948945708  C 14.8143557784115 7.67854872172253  16.2950733575308 6.72238297688016  17.4999931585535 5.4999993912463  Z M 6.99999896775807 8.24999908686944  L 9.24999896775807 5.99999933590505  L 11.4999989677581 8.24999908686944  L 9.247615493181 10.4999988378338  L 6.99999896775807 8.24999908686944  Z M 17.4999989677581 1.42101811948058  C 17.4999989677581 1.42101811948058  17.4999989677581 3.33550876919852  17.4999989677581 3.33550876919852  C 16.4558617702041 4.97584801322929  14.8670556016314 6.23237528929757  13.0025248917136 6.99999922522256  C 12.3990949528688 5.35965998119179  10.8102887842961 4.26533895348923  8.99999896775807 4.26533895348923  C 7.24621008182294 4.26533895348923  5.65514387602707 5.35965998119179  5.05171393718047 6.99999922522256  C 3.18718322726272 6.23465988434461  1.59837705869177 4.92101773209186  0.499998967758074 3.33550876919852  C 0.499998967758074 3.33550876919852  0.499998967758074 1.42101811948058  0.499998967758074 1.42101811948058  C 0.499998967758074 0.655678778602629  1.15766979998443 0  1.92608245619158 0  C 1.92608245619158 0  16.0739154793246 0  16.0739154793246 0  C 16.8423281355317 0  17.4999989677581 0.655678778602629  17.4999989677581 1.42101811948058  Z " fill-rule="nonzero" fill="#e80009" stroke="none" transform="matrix(1 0 0 1 3 205 )" />
  </g>
</svg>