<?xml version="1.0" encoding="utf-8"?>
<svg version="1.1" xmlns:xlink="http://www.w3.org/1999/xlink" width="18px" height="21px" xmlns="http://www.w3.org/2000/svg">
  <g transform="matrix(1 0 0 1 -346 -287 )">
    <path d="M 17.4999931585535 5.99999778634992  C 17.4999931585535 5.99999778634992  17.4999931585535 19.1178833432655  17.4999931585535 19.1178833432655  C 17.5022537960795 19.861074897733  16.8444082761962 20.4999977863499  16.0780521550951 20.4999977863499  C 16.0780521550951 20.4999977863499  1.92646124626845 20.4999977863499  1.92646124626845 20.4999977863499  C 1.15784448764134 20.4999977863499  0.499998967758074 19.863293379985  0.499998967758074 19.1201018255174  C 0.499998967758074 19.1201018255174  0.499998967758074 6.05324136040144  0.499998967758074 6.05324136040144  C 1.70717940630675 7.27562508133178  3.1336416848153 8.23179093200497  4.77712516576139 8.81525176431796  C 4.77712516576139 11.0980700017722  6.69640642480226 12.957158129067  8.99999606315578 13.0104017031185  C 11.3578410021182 13.0104017031185  13.2228669605502 11.1513135758237  13.2771222611591 8.86849533836948  C 13.2771222611591 8.81525176431796  13.2228669605502 8.81525176431796  13.2228669605502 8.7620081902669  C 14.8143557784115 8.17854735795345  16.2950733575308 7.22238150728026  17.4999931585535 5.99999778634992  Z M 6.99999896775807 8.74999778634992  L 9.24999896775807 6.49999778634992  L 11.4999989677581 8.74999778634992  L 9.247615493181 10.9999977863499  L 6.99999896775807 8.74999778634992  Z M 17.4999989677581 1.92101606311235  C 17.4999989677581 1.92101606311235  17.4999989677581 3.83550692473091  17.4999989677581 3.83550692473091  C 16.4558617702041 5.47584635031853  14.8670556016314 6.7323737654624  13.0025248917136 7.49999778634992  C 12.3990949528688 5.8596583607623  10.8102887842961 4.76533721193755  8.99999896775807 4.76533721193755  C 7.24621008182294 4.76533721193755  5.65514387602707 5.8596583607623  5.05171393718047 7.49999778634992  C 3.18718322726272 6.7346583607623  1.59837705869177 5.42101606311235  0.499998967758074 3.83550692473091  C 0.499998967758074 3.83550692473091  0.499998967758074 1.92101606311235  0.499998967758074 1.92101606311235  C 0.499998967758074 1.15567663752472  1.15766979998443 0.499997786349923  1.92608245619158 0.499997786349923  C 1.92608245619158 0.499997786349923  16.0739154793246 0.499997786349923  16.0739154793246 0.499997786349923  C 16.8423281355317 0.499997786349923  17.4999989677581 1.15567663752472  17.4999989677581 1.92101606311235  Z " fill-rule="nonzero" fill="#e80009" stroke="none" transform="matrix(1 0 0 1 346 287 )" />
  </g>
</svg>