<?xml version="1.0" encoding="utf-8"?>
<svg version="1.1" xmlns:xlink="http://www.w3.org/1999/xlink" width="21px" height="24px" xmlns="http://www.w3.org/2000/svg">
  <g transform="matrix(1 0 0 1 -223 -437 )">
    <path d="M 14.9742717077835 7.02738202256183  C 15.9765397908049 6.34274876560828  17.3093853746151 5.31317404723099  17.3093853746151 3.94301124890298  C 17.3093853746151 2.56996753636487  16.8097338848732 1.88315758867481  16.3070542042844 1.54180126493474  C 15.8232376291795 1.24218618708337  15.2823270391483 1.05947220584666  14.684764045356 1.05947220584666  C 14.2541300720001 1.05947220584666  13.7932141901751 1.15447835446448  13.3035935826136 1.370162798328  C 12.6433218033663 0.352239777422702  11.654680579156 0.00729831599894297  10.5025801365214 0.000640203157801828  L 10.4975331517765 0  C 9.34543270914183 0.00723429568316358  8.35672839762226 0.352239777422702  7.69639353106563 1.370162798328  C 7.20670983619484 1.15454237478026  6.74585704167911 1.05947220584666  6.31522306832328 1.05947220584666  C 5.71766007453095 1.05947220584666  5.17681257180906 1.24218618708337  4.69286982208556 1.54180126493474  C 4.19025322880605 1.88309356835903  3.69060173906415 2.56996753636487  3.69060173906415 3.94301124890298  C 3.69060173906415 5.31317404723099  5.02338423556508 6.34274876560829  6.02577849320511 7.02738202256183  C 4.0253430022675 8.39972151162636  -0.315190052937335 11.8298019904983  0.018163289461176 18.3435490195555  C -0.315190052937335 23.4848925392325  4.19031631611536 24  4.19031631611536 24  C 4.19031631611536 24  16.8096707975639 24  16.8096707975639 24  C 16.8096707975639 24  21.3152402539259 23.4849565595482  20.9818238242181 18.3435490195555  C 21.3153033412352 11.8298019904983  16.9746441114118 8.39978553194214  14.9742717077834 7.02738202256183  Z " fill-rule="nonzero" fill="#ffffff" stroke="none" transform="matrix(1 0 0 1 223 437 )" />
  </g>
</svg>