<?xml version="1.0" encoding="utf-8"?>
<svg version="1.1" xmlns:xlink="http://www.w3.org/1999/xlink" width="15px" height="15px" xmlns="http://www.w3.org/2000/svg">
  <g transform="matrix(1 0 0 1 -137 -120 )">
    <path d="M 8.01277611551632 8.11771438807727  L 13.6785352101288 8.11771438807727  C 14.0279716999121 8.07282003365208  14.2999999999993 7.81572585288495  14.2999999999993 7.48378205304698  C 14.2999999999993 7.48378205304698  14.2999999999993 5.22501942901226  14.2999999999993 5.22501942901226  C 14.2999999999993 4.8606228077233  13.9780389260868 4.56860908273438  13.5787006381433 4.56860908273438  C 13.5787006381433 4.56860908273438  10.1592503888787 4.56860908273438  10.1592503888787 4.56860908273438  C 10.6883922058041 4.28157505433865  11.1351542386146 3.97958651914632  11.342319493795 3.7923776778739  C 12.1685024612179 3.03617297850724  12.1685024612179 1.80569457543834  11.3398414405019 1.04942820800261  C 10.5361468067003 0.318106574584363  9.13840084756521 0.318106574584363  8.33473718942878 1.04942820800261  C 8.21989490719534 1.15426392575364  7.7831225267164 1.66839061921883  7.38629326773116 2.30483592807195  C 6.98693949195331 1.66839061921883  6.55013613580741 1.15426392575364  6.43781837036477 1.04942820800261  C 5.6341237365632 0.318106574584363  4.23890229421886 0.315609017779479  3.43271411929163 1.04942820800261  C 2.60405309857742 1.80569457543834  2.60405309857742 3.03867053531258  3.43271411929163 3.79487523467924  C 3.63738583334634 3.98205324191713  4.08665689511508 4.28155963732161  4.61328968308226 4.56859366571734  C 4.61328968308226 4.56859366571734  1.21882130856466 4.56859366571734  1.21882130856466 4.56859366571734  C 0.821976561745032 4.56859366571734  0.5 4.86059197368877  0.5 5.22501942901226  C 0.5 5.22501942901226  0.5 7.48376663602949  0.5 7.48376663602949  C 0.5 7.80572020864656  0.757098029005647 8.06030141559131  1.09154229637352 8.11771438807727  C 1.09154229637352 8.11771438807727  6.78725486014991 8.11771438807727  6.78725486014991 8.11771438807727  L 6.78725486014991 4.56608069189451  L 8.01277611551632 4.56608069189451  L 8.01277611551632 8.11771438807727  Z M 8.01276062768375 9.34569523434175  L 8.01276062768375 14.3000000000002  C 8.01276062768375 14.3000000000002  12.9596984137315 14.3000000000002  12.9596984137315 14.3000000000002  C 13.3565741362163 14.3000000000002  13.6785197222962 14.0080016920288  13.6785197222962 13.6436050707398  C 13.6785197222962 13.6436050707398  13.6785197222962 9.34569523434175  13.6785197222962 9.34569523434175  L 8.01276062768375 9.34569523434175  Z M 1.09152680854095 9.34569523434175  C 1.09152680854095 9.34569523434175  1.09152680854095 13.6436050707398  1.09152680854095 13.6436050707398  C 1.09152680854095 14.0080016920288  1.41351885812037 14.3000000000002  1.8128726338964 14.3000000000002  C 1.8128726338964 14.3000000000002  6.78725486014991 14.3000000000002  6.78725486014991 14.3000000000002  L 6.78725486014991 9.34569523434175  L 1.09152680854095 9.34569523434175  Z M 5.41946237017692 1.97791807587919  C 5.83379288053402 2.35475623014236  6.49520079189824 3.43294533616108  6.63999654329382 3.97462223957064  C 5.99853696092759 3.83730286633409  4.83293813171804 3.21584289831208  4.45105463164691 2.86643161785469  C 4.181504384851 2.6218098040963  4.181504384851 2.22249363858555  4.45105463164691 1.97791807587919  C 4.57836461950319 1.86056374006694  4.75306737656138 1.79568893119995  4.93528173266168 1.79568893119995  C 5.11748060092759 1.79568893119995  5.29218335798578 1.86056374006694  5.41946237017692 1.97791807587919  Z M 8.1325745043323 3.97460682255314  C 8.27733928006091 3.43296075317812  8.93876267925953 2.35477164715985  9.35056867282583 1.97791807587919  C 9.4803567139752 1.86056374006694  9.65258141774211 1.79568893119995  9.83727382713187 1.79568893119995  C 10.0219972121886 1.79568893119995  10.1942064281229 1.86056374006694  10.3239944692705 1.97791807587919  C 10.5910821506077 2.22249363858555  10.5910821506077 2.6218098040963  10.3239944692705 2.86393406104935  C 9.93961742807551 3.21582748129458  8.77154054557468 3.83728744931659  8.1325745043323 3.97460682255314  Z " fill-rule="nonzero" fill="#c5c5c5" stroke="none" transform="matrix(1 0 0 1 137 120 )" />
  </g>
</svg>