<?xml version="1.0" encoding="utf-8"?>
<svg version="1.1" xmlns:xlink="http://www.w3.org/1999/xlink" width="13px" height="15px" xmlns="http://www.w3.org/2000/svg">
  <g transform="matrix(1 0 0 1 -168 -72 )">
    <path d="M 12.4999951707432 4.34999843742344  C 12.4999951707432 4.34999843742344  12.4999951707432 13.5325183272644  12.4999951707432 13.5325183272644  C 12.5015909148788 14.0527524153918  12.0372293714317 14.4999984374235  11.496272109478 14.4999984374235  C 11.496272109478 14.4999984374235  1.50691382089462 14.4999984374235  1.50691382089462 14.4999984374235  C 0.964360814805332 14.4999984374235  0.49999927135832 14.0543053529682  0.49999927135832 13.5340712648408  C 0.49999927135832 13.5340712648408  0.49999927135832 4.38726893925923  0.49999927135832 4.38726893925923  C 1.35212663974562 5.24293754391056  2.35904118928192 5.91225363938202  3.51914717583168 6.32067622200111  C 3.51914717583168 7.91864898821859  4.87393394691935 9.22001067732572  6.49999722105167 9.25728117916151  C 8.16435835443554 9.25728117916151  9.48084726626985 7.95591949005484  9.51914512552321 6.35794672383736  C 9.51914512552321 6.32067622200111  9.48084726626985 6.32067622200111  9.48084726626985 6.28340572016532  C 10.6042511377018 5.87498313754577  11.6494635464915 5.20566704207477  12.4999951707432 4.34999843742344  Z M 5.08823456547543 6.27499843742316  L 6.67646985959436 4.69999843742335  L 8.26470515371147 6.27499843742316  L 6.67478740695151 7.84999843742344  L 5.08823456547543 6.27499843742316  Z M 12.4999992713583 1.49471123115745  C 12.4999992713583 1.49471123115745  12.4999992713583 2.83485483429058  12.4999992713583 2.83485483429058  C 11.7629612495548 3.98309243220183  10.6414510129161 4.86266162280208  9.3253116882679 5.39999843742362  C 8.89936114320153 4.25176083951237  7.77785090656107 3.48573603533487  6.49999927135832 3.48573603533487  C 5.26203064599213 3.48573603533487  4.1389250889606 4.25176083951237  3.71297454389241 5.39999843742362  C 2.39683521924417 4.86426083951255  1.27532498260553 3.94471123115727  0.49999927135832 2.83485483429058  C 0.49999927135832 2.83485483429058  0.49999927135832 1.49471123115745  0.49999927135832 1.49471123115745  C 0.49999927135832 0.958973633245932  0.964237505870187 0.499998437423528  1.50664643966411 0.499998437423528  C 1.50664643966411 0.499998437423528  11.4933521030525 0.499998437423528  11.4933521030525 0.499998437423528  C 12.0357610368465 0.499998437423528  12.4999992713583 0.958973633245932  12.4999992713583 1.49471123115745  Z " fill-rule="nonzero" fill="#e80009" stroke="none" transform="matrix(1 0 0 1 168 72 )" />
  </g>
</svg>