<?xml version="1.0" encoding="utf-8"?>
<svg version="1.1" xmlns:xlink="http://www.w3.org/1999/xlink" width="14px" height="15px" xmlns="http://www.w3.org/2000/svg">
  <g transform="matrix(1 0 0 1 -94 -120 )">
    <path d="M 7.51277611551632 8.11771438807727  L 13.1785352101288 8.11771438807727  C 13.5279716999121 8.07282003365208  13.7999999999993 7.81572585288495  13.7999999999993 7.48378205304698  C 13.7999999999993 7.48378205304698  13.7999999999993 5.22501942901226  13.7999999999993 5.22501942901226  C 13.7999999999993 4.8606228077233  13.4780389260868 4.56860908273438  13.0787006381433 4.56860908273438  C 13.0787006381433 4.56860908273438  9.65925038887872 4.56860908273438  9.65925038887872 4.56860908273438  C 10.1883922058041 4.28157505433865  10.6351542386146 3.97958651914632  10.842319493795 3.7923776778739  C 11.6685024612179 3.03617297850724  11.6685024612179 1.80569457543834  10.8398414405019 1.04942820800261  C 10.0361468067003 0.318106574584363  8.63840084756521 0.318106574584363  7.83473718942878 1.04942820800261  C 7.71989490719534 1.15426392575364  7.2831225267164 1.66839061921883  6.88629326773116 2.30483592807195  C 6.48693949195331 1.66839061921883  6.05013613580741 1.15426392575364  5.93781837036477 1.04942820800261  C 5.1341237365632 0.318106574584363  3.73890229421886 0.315609017779479  2.93271411929163 1.04942820800261  C 2.10405309857742 1.80569457543834  2.10405309857742 3.03867053531258  2.93271411929163 3.79487523467924  C 3.13738583334634 3.98205324191713  3.58665689511508 4.28155963732161  4.11328968308226 4.56859366571734  C 4.11328968308226 4.56859366571734  0.718821308564657 4.56859366571734  0.718821308564657 4.56859366571734  C 0.321976561745032 4.56859366571734  0 4.86059197368877  0 5.22501942901226  C 0 5.22501942901226  0 7.48376663602949  0 7.48376663602949  C 0 7.80572020864656  0.257098029005647 8.06030141559131  0.591542296373518 8.11771438807727  C 0.591542296373518 8.11771438807727  6.28725486014991 8.11771438807727  6.28725486014991 8.11771438807727  L 6.28725486014991 4.56608069189451  L 7.51277611551632 4.56608069189451  L 7.51277611551632 8.11771438807727  Z M 7.51276062768375 9.34569523434175  L 7.51276062768375 14.3000000000002  C 7.51276062768375 14.3000000000002  12.4596984137315 14.3000000000002  12.4596984137315 14.3000000000002  C 12.8565741362163 14.3000000000002  13.1785197222962 14.0080016920288  13.1785197222962 13.6436050707398  C 13.1785197222962 13.6436050707398  13.1785197222962 9.34569523434175  13.1785197222962 9.34569523434175  L 7.51276062768375 9.34569523434175  Z M 0.591526808540948 9.34569523434175  C 0.591526808540948 9.34569523434175  0.591526808540948 13.6436050707398  0.591526808540948 13.6436050707398  C 0.591526808540948 14.0080016920288  0.913518858120369 14.3000000000002  1.3128726338964 14.3000000000002  C 1.3128726338964 14.3000000000002  6.28725486014991 14.3000000000002  6.28725486014991 14.3000000000002  L 6.28725486014991 9.34569523434175  L 0.591526808540948 9.34569523434175  Z M 4.91946237017692 1.97791807587919  C 5.33379288053402 2.35475623014236  5.99520079189824 3.43294533616108  6.13999654329382 3.97462223957064  C 5.49853696092759 3.83730286633409  4.33293813171804 3.21584289831208  3.95105463164691 2.86643161785469  C 3.681504384851 2.6218098040963  3.681504384851 2.22249363858555  3.95105463164691 1.97791807587919  C 4.07836461950319 1.86056374006694  4.25306737656138 1.79568893119995  4.43528173266168 1.79568893119995  C 4.61748060092759 1.79568893119995  4.79218335798578 1.86056374006694  4.91946237017692 1.97791807587919  Z M 7.6325745043323 3.97460682255314  C 7.77733928006092 3.43296075317812  8.43876267925953 2.35477164715985  8.85056867282583 1.97791807587919  C 8.9803567139752 1.86056374006694  9.15258141774211 1.79568893119995  9.33727382713187 1.79568893119995  C 9.52199721218858 1.79568893119995  9.69420642812293 1.86056374006694  9.82399446927047 1.97791807587919  C 10.0910821506077 2.22249363858555  10.0910821506077 2.6218098040963  9.82399446927047 2.86393406104935  C 9.43961742807551 3.21582748129458  8.27154054557468 3.83728744931659  7.6325745043323 3.97460682255314  Z " fill-rule="nonzero" fill="#c5c5c5" stroke="none" transform="matrix(1 0 0 1 94 120 )" />
  </g>
</svg>