<?xml version="1.0" encoding="utf-8"?>
<svg version="1.1" xmlns:xlink="http://www.w3.org/1999/xlink" width="17px" height="21px" xmlns="http://www.w3.org/2000/svg">
  <g transform="matrix(1 0 0 1 -347 -69 )">
    <path d="M 16.9999931585539 5.99999778634992  C 16.9999931585539 5.99999778634992  16.9999931585539 19.1178833432655  16.9999931585539 19.1178833432655  C 17.0022537959426 19.861074897733  16.3444083160038 20.4999977863499  15.5780522414359 20.4999977863499  C 15.5780522414359 20.4999977863499  1.42646219189543 20.4999977863499  1.42646219189543 20.4999977863499  C 0.657845479938815 20.4999977863499  0 19.863293379985  0 19.1201018255174  C 0 19.1201018255174  0 6.05324136040144  0 6.05324136040144  C 1.20718036524855 7.27562508133178  2.63364255714215 8.23179093200497  4.27712593829574 8.81525176431796  C 4.27712593829574 11.0980700017722  6.19640708079765 12.957158129067  8.49999657927695 13.0104017031185  C 10.8578413750708 13.0104017031185  12.7228672202582 11.1513135758237  12.7771225175727 8.86849533836948  C 12.7771225175727 8.81525176431796  12.7228672202582 8.81525176431796  12.7228672202582 8.7620081902669  C 14.3143559414841 8.17854735795345  15.7950734306941 7.22238150728026  16.9999931585539 5.99999778634992  Z M 6.49999960531929 8.74999778634992  L 8.74999946869904 6.49999778634992  L 10.9999993320788 8.74999778634992  L 8.74761599426669 10.9999977863499  L 6.49999960531929 8.74999778634992  Z M 16.9999989677581 1.92101606311235  C 16.9999989677581 1.92101606311235  16.9999989677581 3.83550692473091  16.9999989677581 3.83550692473091  C 15.9558618336043 5.47584635031853  14.367055761504 6.7323737654624  12.5025251648008 7.49999778634992  C 11.8990952625964 5.8596583607623  10.3102891904961 4.76533721193755  8.49999948387907 4.76533721193755  C 6.74621070443419 4.76533721193755  5.15514459524803 5.8596583607623  4.55171469304176 7.49999778634992  C 2.68718409633852 6.7346583607623  1.09837802424005 5.42101606311235  0 3.83550692473091  C 0 3.83550692473091  0 1.92101606311235  0 1.92101606311235  C 0 1.15567663752472  0.657670792292513 0.499997786349923  1.42608340184156 0.499997786349923  C 1.42608340184156 0.499997786349923  15.5739155659166 0.499997786349923  15.5739155659166 0.499997786349923  C 16.3423281754656 0.499997786349923  16.9999989677581 1.15567663752472  16.9999989677581 1.92101606311235  Z " fill-rule="nonzero" fill="#e80009" stroke="none" transform="matrix(1 0 0 1 347 69 )" />
  </g>
</svg>