<?xml version="1.0" encoding="utf-8"?>
<svg version="1.1" xmlns:xlink="http://www.w3.org/1999/xlink" width="68px" height="59px" xmlns="http://www.w3.org/2000/svg">
  <g transform="matrix(1 0 0 1 -308 -696 )">
    <path d="M 342 696  C 361.04 696  376 708.98  376 725.5  C 376 742.02  361.04 755  342 755  C 322.96 755  308 742.02  308 725.5  C 308 708.98  322.96 696  342 696  Z " fill-rule="nonzero" fill="#ffffff" stroke="none" />
    <path d="M 342 696.5  C 360.76 696.5  375.5 709.26  375.5 725.5  C 375.5 741.74  360.76 754.5  342 754.5  C 323.24 754.5  308.5 741.74  308.5 725.5  C 308.5 709.26  323.24 696.5  342 696.5  Z " stroke-width="1" stroke="#f59a23" fill="none" />
  </g>
</svg>