<?xml version="1.0" encoding="utf-8"?>
<svg version="1.1" xmlns:xlink="http://www.w3.org/1999/xlink" width="315px" height="40px" xmlns="http://www.w3.org/2000/svg">
  <defs>
    <mask fill="white" id="clip118">
      <path d="M 0 35  L 0 5  C 0 2.20000000000005  2.35714285714285 0  5.35714285714286 0  L 218.571428571429 0  L 309.642857142857 0  C 312.642857142857 0  315 2.20000000000005  315 5  L 315 35  C 315 37.8  312.642857142857 40  309.642857142857 40  L 5.35714285714286 40  C 2.35714285714285 40  0 37.8  0 35  Z " fill-rule="evenodd" />
    </mask>
  </defs>
  <g transform="matrix(1 0 0 1 -148 -1130 )">
    <path d="M 0 35  L 0 5  C 0 2.20000000000005  2.35714285714285 0  5.35714285714286 0  L 218.571428571429 0  L 309.642857142857 0  C 312.642857142857 0  315 2.20000000000005  315 5  L 315 35  C 315 37.8  312.642857142857 40  309.642857142857 40  L 5.35714285714286 40  C 2.35714285714285 40  0 37.8  0 35  Z " fill-rule="nonzero" fill="#d9001b" stroke="none" fill-opacity="0.635294117647059" transform="matrix(1 0 0 1 148 1130 )" />
    <path d="M 0 35  L 0 5  C 0 2.20000000000005  2.35714285714285 0  5.35714285714286 0  L 218.571428571429 0  L 309.642857142857 0  C 312.642857142857 0  315 2.20000000000005  315 5  L 315 35  C 315 37.8  312.642857142857 40  309.642857142857 40  L 5.35714285714286 40  C 2.35714285714285 40  0 37.8  0 35  Z " stroke-width="2" stroke="#797979" fill="none" transform="matrix(1 0 0 1 148 1130 )" mask="url(#clip118)" />
  </g>
</svg>