<?xml version="1.0" encoding="utf-8"?>
<svg version="1.1" xmlns:xlink="http://www.w3.org/1999/xlink" width="12px" height="8px" xmlns="http://www.w3.org/2000/svg">
  <g transform="matrix(1 0 0 1 -51 -21 )">
    <path d="M 11.4166666666666 8  L 6.25 8  L 3.25634128354591 8  L 0.416666666666742 8  C 0.303819444444457 8  0.206163194444571 7.94263285024118  0.123697916666629 7.82789855072531  C 0.0412326388888005 7.71316425120767  0 7.57729468599001  0 7.42028985507312  C 0 7.26328502415453  0.0412326388888005 7.12741545893687  0.123697916666629 7.01268115942094  L 3.04036458333337 2.95471014492773  C 3.1228298611112 2.839975845411  3.2204861111112 2.78260869565219  3.33333333333326 2.78260869565219  C 3.44618055555543 2.78260869565219  3.54383680555543 2.839975845411  3.62630208333337 2.95471014492773  L 4.42660909084475 4.06818297268097  L 6.92317708333337 0.2638888888888  C 7.0386284722224 0.0879629629626493  7.1753472222224 0  7.33333333333337 0  C 7.49131944444423 0  7.62803819444423 0.0879629629626493  7.74348958333337 0.2638888888888  L 11.8268229166666 6.4861111111112  C 11.9422743055558 6.6620370370365  12 6.87037037037015  12 7.1111111111112  C 12 7.35185185185145  11.9422743055558 7.56018518518505  11.8268229166666 7.7361111111112  C 11.7113715277776 7.9120370370365  11.5746527777775 8  11.4166666666666 8  Z " fill-rule="nonzero" fill="#cccccc" stroke="none" transform="matrix(1 0 0 1 51 21 )" />
  </g>
</svg>