<?xml version="1.0" encoding="utf-8"?>
<svg version="1.1" xmlns:xlink="http://www.w3.org/1999/xlink" width="12px" height="12px" viewBox="86 793  12 12" xmlns="http://www.w3.org/2000/svg">
  <path d="M 86.5 798  A 4.5 4.5 0 0 1 91 793.5 L 93 793.5  A 4.5 4.5 0 0 1 97.5 798 L 97.5 800  A 4.5 4.5 0 0 1 93 804.5 L 91 804.5  A 4.5 4.5 0 0 1 86.5 800 L 86.5 798  Z " fill-rule="nonzero" fill="#ffffff" stroke="none" />
  <path d="M 86.5 798  A 4.5 4.5 0 0 1 91 793.5 L 93 793.5  A 4.5 4.5 0 0 1 97.5 798 L 97.5 800  A 4.5 4.5 0 0 1 93 804.5 L 91 804.5  A 4.5 4.5 0 0 1 86.5 800 L 86.5 798  Z " stroke-width="1" stroke="#797979" fill="none" />
</svg>