<?xml version="1.0" encoding="utf-8"?>
<svg version="1.1" xmlns:xlink="http://www.w3.org/1999/xlink" width="10px" height="10px" xmlns="http://www.w3.org/2000/svg">
  <g transform="matrix(1 0 0 1 -112 -436 )">
    <path d="M 117 436  C 119.8 436  122 438.2  122 441  C 122 443.8  119.8 446  117 446  C 114.2 446  112 443.8  112 441  C 112 438.2  114.2 436  117 436  Z " fill-rule="nonzero" fill="#ffffff" stroke="none" />
    <path d="M 117 436.5  C 119.52 436.5  121.5 438.48  121.5 441  C 121.5 443.52  119.52 445.5  117 445.5  C 114.48 445.5  112.5 443.52  112.5 441  C 112.5 438.48  114.48 436.5  117 436.5  Z " stroke-width="1" stroke="#797979" fill="none" />
  </g>
</svg>