<?xml version="1.0" encoding="utf-8"?>
<svg version="1.1" xmlns:xlink="http://www.w3.org/1999/xlink" width="26px" height="36px" xmlns="http://www.w3.org/2000/svg">
  <defs>
    <linearGradient gradientUnits="userSpaceOnUse" x1="13" y1="0" x2="17.7087352521038" y2="45.0643777403094" id="LinearGradient35">
      <stop id="Stop36" stop-color="#e7c296" offset="0" />
      <stop id="Stop37" stop-color="#f6bf8d" offset="1" />
    </linearGradient>
  </defs>
  <g transform="matrix(1 0 0 1 -176 -272 )">
    <path d="M 0 28  L 25.4310055784823 28  C 25.4310055784823 28.1169509432762  25.4310055784823 32.0398132931732  25.4310055784823 32.0398132931732  C 25.4310055784823 34.1973875856168  23.3769628202202 35.9626756430705  20.9316738222893 35.9626756430705  C 20.9316738222893 35.9626756430705  4.49933175619299 35.9626756430705  4.49933175619299 35.9626756430705  C 2.05404275826209 35.9626756430705  0 34.1973875856168  0 32.0398132931732  C 0 32.0398132931732  0 28.1169509432762  0 28  Z M 25.4310055784824 26  L 0 26  L 0 4.42286234989729  C 0 2.26528805745374  2.05404275826209 0.5  4.4993317561931 0.5  C 4.4993317561931 0.5  20.9316738222894 0.5  20.9316738222894 0.5  C 23.3769628202203 0.5  25.4310055784824 2.26528805745374  25.4310055784824 4.42286234989729  C 25.4310055784824 4.42286234989729  25.4310055784824 25.9986052743318  25.4310055784824 26  Z M 12.5981289173405 29.999924871227  C 11.5222017582508 29.999924871227  10.6418977189957 30.8825688999539  10.6418977189957 31.9613560461758  C 10.6418977189957 33.0401431923974  11.5222017582508 33.9227872211243  12.5981289173405 33.9227872211243  C 13.6740560764301 33.9227872211243  14.5543601156853 33.0401431923974  14.5543601156853 31.9613560461758  C 14.5543601156853 30.8825688999539  13.6740560764301 29.999924871227  12.5981289173405 29.999924871227  Z M 8 9.83382596960973  L 8 21.4992527182321  L 20.2215026175569 8.27750100675257  L 15.9504978709093 8.27750100675257  L 10.1109460383981 13.7211331403496  L 10.1109460383981 8.27750100675257  L 6.2220008054021 8.27750100675257  L 6.2220008054021 9.83382596960973  L 8 9.83382596960973  Z " fill-rule="nonzero" fill="url(#LinearGradient35)" stroke="none" transform="matrix(1 0 0 1 176 272 )" />
  </g>
</svg>