<?xml version="1.0" encoding="utf-8"?>
<svg version="1.1" xmlns:xlink="http://www.w3.org/1999/xlink" width="4px" height="3px" xmlns="http://www.w3.org/2000/svg">
  <g transform="matrix(1 0 0 1 -273 -385 )">
    <path d="M 2.99186697996367 0.50339467509184  C 3.47153192830842 0.50339467509184  3.86492620249055 0.890387635683283  3.86492620249055 1.36224747359756  C 3.86492620249055 1.83410731151162  3.47153192830842 2.22110027210306  2.99186697996367 2.22110027210306  C 2.99186697996367 2.22110027210306  0.873059222526877 2.22110027210306  0.873059222526877 2.22110027210306  C 0.393394274182128 2.22110027210306  0 1.83410731151162  0 1.36224747359756  C 0 0.890387635683283  0.393394274182128 0.50339467509184  0.873059222526877 0.50339467509184  C 0.873059222526877 0.50339467509184  2.99186697996367 0.50339467509184  2.99186697996367 0.50339467509184  Z M 3.86492620249044 1.36224747359847  C 3.86492620249044 0.886992960591442  3.47153192830831 0.5  2.99186697996356 0.5  L 1.85309408101534 0.5  L 1.85309408101534 2.22110027210397  C 1.85309408101534 2.22110027210397  2.99186697996356 2.22110027210397  2.99186697996356 2.22110027210397  C 3.47153192830831 2.22110027210397  3.86492620249044 1.83410731151253  3.86492620249044 1.36224747359847  Z " fill-rule="nonzero" fill="#3d3b48" stroke="none" transform="matrix(1 0 0 1 273 385 )" />
  </g>
</svg>