<?xml version="1.0" encoding="utf-8"?>
<svg version="1.1" xmlns:xlink="http://www.w3.org/1999/xlink" width="32px" height="44px" xmlns="http://www.w3.org/2000/svg">
  <g transform="matrix(1 0 0 1 -134 -964 )">
    <path d="M 0.5 34  L 31.6947342552013 34  C 31.6947342552013 34.3761061946898  31.6947342552013 39.1880530973449  31.6947342552013 39.1880530973449  C 31.6947342552013 41.8346238938047  29.1751595653582 43.9999999999995  26.1756658869733 43.9999999999995  C 26.1756658869733 43.9999999999995  6.01906836822798 43.9999999999995  6.01906836822798 43.9999999999995  C 3.01957468984313 43.9999999999995  0.5 41.8346238938047  0.5 39.1880530973449  C 0.5 39.1880530973449  0.5 34.3761061946898  0.5 34  Z M 31.6947342552013 31  L 1 31  L 1 5.31194690265511  C 0.5 2.6653761061948  3.01957468984324 0.5  6.01906836822798 0.5  C 6.01906836822798 0.5  26.1756658869733 0.5  26.1756658869733 0.5  C 29.1751595653582 0.5  31.6947342552013 2.6653761061948  31.6947342552013 5.31194690265511  C 31.6947342552013 5.31194690265511  31.6947342552013 31.7776548672568  31.6947342552013 31  Z M 15.9533914310382 36.6858407079653  C 14.6336142125489 36.6858407079653  13.5537964883304 37.7685287610625  13.5537964883304 39.0918141592929  C 13.5537964883304 40.4150995575228  14.6336142125489 41.49778761062  15.9533914310382 41.49778761062  C 17.2731686495274 41.49778761062  18.3529863737459 40.4150995575228  18.3529863737459 39.0918141592929  C 18.3529863737459 37.7685287610625  17.2731686495274 36.6858407079653  15.9533914310382 36.6858407079653  Z M 10 11.9492610135967  L 10 26.2585609849943  L 25.3045402077721 10.0402077722201  L 20.0655472916955 10.0402077722201  L 12.9025089673755 16.7175944475748  L 12.9025089673755 10.0402077722201  L 8.13216621777599 10.0402077722201  L 8.13216621777599 11.9492610135967  L 10 11.9492610135967  Z " fill-rule="nonzero" fill="#ffffff" stroke="none" transform="matrix(1 0 0 1 134 964 )" />
  </g>
</svg>