<?xml version="1.0" encoding="utf-8"?>
<svg version="1.1" xmlns:xlink="http://www.w3.org/1999/xlink" width="24px" height="19px" xmlns="http://www.w3.org/2000/svg">
  <g transform="matrix(1 0 0 1 -2 -4 )">
    <path d="M 22.0988371704279 3.97332222344029  C 21.4430074806504 4.00811770621764  20.8406157655955 4.43560506605361  20.5758548908335 5.05198218953803  C 20.2819460298591 5.7404356702041  20.4252569620698 6.44380150063188  20.8187547759363 6.9483360009034  C 20.8187547759363 6.9483360009034  20.6317218644071 7.75111749640932  20.6317218644071 7.75111749640932  C 20.2503690447958 9.39147597019851  18.8196887215404 10.5471830767318  17.1703985016925 10.5471830767318  C 15.3146433795073 10.5471830767318  13.7722291091046 9.0882581917102  13.6240601791919 7.19687516359873  C 13.6240601791919 7.19687516359873  13.4467432630669 4.92522721656341  13.4467432630669 4.92522721656341  C 14.3017508586287 4.34364557585633  14.8069826196425 3.2649856097586  14.5616537356886 2.09188076183664  C 14.3503308356492 1.08529715292055  13.5536192125121 0.272574090906816  12.5674456789948 0.0613158026157844  C 10.8744334798284 -0.304036766546352  9.38059918644633 1.0132207957389  9.38059918644633 2.68588936067848  C 9.38059918644633 3.62039661241292  9.84939596469469 4.44554663256142  10.5586636291948 4.92522721656341  C 10.5586636291948 4.92522721656341  10.3813467130698 7.19687516359873  10.3813467130698 7.19687516359873  C 10.2331777831571 9.0882581917102  8.69076351275443 10.5471830767318  6.83500839056918 10.5471830767318  C 5.18814716957232 10.5471830767318  3.75503784746591 9.38899057857155  3.37368502785455 7.75111749640932  C 3.37368502785455 7.75111749640932  3.1866521163254 6.9483360009034  3.1866521163254 6.9483360009034  C 3.58014993019191 6.44628689225884  3.72346086240255 5.74043567020409  3.42955200142818 5.05198218953803  C 3.16722012551718 4.43560506605361  2.56482841046228 4.00563231459068  1.90656972183375 3.97332222344029  C 0.706644289426008 3.91118743276646  -0.165366298092976 4.98487661561029  0.0265246111382209 6.118215197501  C 0.133400560583445 6.74453388749323  0.539043368705089 7.24161221288389  1.06613611937812 7.48020980907141  C 1.06613611937812 7.48020980907141  2.65955936565237 19  2.65955936565237 19  L 21.3385605300562 19  C 21.3385605300562 19  22.9319837763305 7.48020980907141  22.9319837763305 7.48020980907141  C 23.4615055258545 7.24161221288389  23.8671483339762 6.74453388749323  23.9715952845704 6.118215197501  C 24.1707731903547 4.98487661561028  23.2987626028357 3.91118743276646  22.0988371704279 3.97332222344029  Z " fill-rule="nonzero" fill="#f9c85d" stroke="none" transform="matrix(1 0 0 1 2 4 )" />
  </g>
</svg>