<?xml version="1.0" encoding="utf-8"?>
<svg version="1.1" xmlns:xlink="http://www.w3.org/1999/xlink" width="23px" height="51px" xmlns="http://www.w3.org/2000/svg">
  <g transform="matrix(1 0 0 1 -296 -1097 )">
    <path d="M 19.8441580412397 0.23255119267032  C 19.708106027245 -0.180873149854693  19.5720540132502 -0.0430650356796889  18.8917939432762 0.645975535195324  C 17.9394298453127 1.74844044859536  15.8986496353909 2.71309724782039  13.1776093554952 3.40213781869541  C 8.55184087967237 4.50460273209545  7.59947678170887 4.78021896044546  6.23895664176099 5.60706764549548  C 5.42264455779226 6.0204919880205  4.47028045982875 6.70953255889552  3.9260724038496 7.26076501559553  C 2.8376562918913 8.22542181482057  2.02134420792258 10.0169272990956  2.29344823591215 10.5681597557956  C 2.42950024990694 10.8437759841456  5.0144885158079 14.5645950668708  8.14368483768802 19.1122628346459  C 11.2728811595681 23.522122488246  14.2660254674535 27.9319821418462  14.9462855374274 28.8966389410712  C 15.6265456074013 29.8612957402962  16.0347016493857 30.6881444253463  16.0347016493857 30.6881444253463  C 16.0347016493857 30.8259525395213  15.4904935934065 30.6881444253463  14.9462855374274 30.5503363111713  C 12.7694533135108 29.8612957402963  8.95999692165674 30.5503363111713  6.23895664176099 31.9284174529213  C 4.19817643183917 33.0308823663214  1.88529219392778 35.3736203072964  0.93292809596427 37.3029339057465  C -0.155488015994031 39.5078637325466  -0.291540029988818 42.5396422443967  0.524772053979908 44.6067639570217  C 1.34108413794863 46.8116937838218  3.10976031988087 48.6031992680969  5.42264455779226 49.8434722956719  C 7.1913207397245 50.8081290948969  7.59947678170886 50.8081290948969  9.91236101962025 50.9459372090719  C 11.8170892155473 51.0837453232469  12.9055053275056 50.9459372090719  13.9939214394639 50.6703209807219  C 19.027845957271 49.1544317247969  22.7012503351303 45.1579964137217  22.9733543631199 40.4725205317716  C 23.1094063771146 37.8541663624465  22.8373023491251 37.0273176773965  19.4360019992554 30.9637606536963  C 14.1299734534587 21.592808889796  9.3681529636411 13.0487058109457  9.3681529636411 12.9108976967707  C 9.3681529636411 12.9108976967707  10.3205170616046 12.7730895825957  11.5449851875577 12.6352814684207  C 15.0823375514222 12.4974733542457  17.9394298453127 10.7059678699706  19.4360019992554 7.81199747229556  C 20.1162620692293 6.57172444472052  20.1162620692293 6.15830010219551  20.1162620692293 3.53994593287042  C 20.1162620692293 1.88624856277037  19.9802100552345 0.370359306845324  19.8441580412397 0.23255119267032  Z " fill-rule="nonzero" fill="#02b053" stroke="none" transform="matrix(1 0 0 1 296 1097 )" />
  </g>
</svg>