<?xml version="1.0" encoding="utf-8"?>
<svg version="1.1" xmlns:xlink="http://www.w3.org/1999/xlink" width="66px" height="66px" xmlns="http://www.w3.org/2000/svg">
  <g transform="matrix(1 0 0 1 -286 -1455 )">
    <path d="M 32.9691482239701 65.5  C 44.2000748774589 65.5  55.1220095903132 59.6723367675781  61.1402793035361 49.2470217431642  C 70.113703315 33.7050973388673  64.7915962249441 13.8320733203127  49.2466951747753 4.85864831542949  C 44.3191109860936 2.00362683053709  38.7251323767068 0.500084406805399  33.0302020067055 0.5  C 21.7992753532168 0.5  10.8773406403625 6.32766323242186  4.85907092713956 16.7529782568358  C -4.11435308432431 32.2941580810548  1.21073226225894 52.1679266796873  16.7526550559004 61.1406071044921  C 21.6801668821581 63.9958888656288  27.2741499845393 65.4996893446455  32.9691482239701 65.5  Z M 63.6412526869311 36.8195876367181  C 63.1260425761657 40.9130520979697  61.7975173549135 44.8621747172051  59.7338074815196 48.4347079199215  C 51.81437522098 62.1071481510398  34.8261567805949 67.5586004288234  20.4298125712077 61.0472048295701  C 6.0334683618205 54.5358092303172  -1.09072569851446 38.1784315063933  3.94725508172849 23.2027249588145  C 8.98523586197143 8.22701841123535  24.5475353869357 -0.49838936322476  39.9522395636729 3.01559445062003  C 55.3569437404102 6.52957826446482  65.5959571153451 21.1405515691672  63.6412526869311 36.8195876367181  Z " fill-rule="nonzero" fill="#fde4c7" stroke="none" transform="matrix(1 0 0 1 286 1455 )" />
  </g>
</svg>