<?xml version="1.0" encoding="utf-8"?>
<svg version="1.1" xmlns:xlink="http://www.w3.org/1999/xlink" width="25px" height="8px" xmlns="http://www.w3.org/2000/svg">
  <g transform="matrix(1 0 0 1 1 -5 )">
    <path d="M 2.05243882486238 7.31786358748296  C 3.06404522673458 7.31786358748296  3.88473571452795 6.51052737939827  3.88473571452795 5.51538184194039  C 3.88473571452795 5.03488264860902  3.68886094553799 4.59828693487137  3.37645308613629 4.2738890023177  C 3.16074289750178 5.3739150743606  2.23839588403007 6.32759621442439  0.916861050211731 6.92029318893974  C 1.22926890961344 7.16664049110456  1.62101844759336 7.31786358748296  2.05243882486238 7.31786358748296  Z M 22.8870677340096 7.31786358748296  C 23.8986741358818 7.31786358748296  24.7168851962197 6.51296646159791  24.7168851962197 5.51782092414004  C 24.7144057687641 5.03976081300831  24.5234898546853 4.61048234586962  24.2160408501947 4.28852349551561  C 23.9656186771822 5.37391507436059  23.0283950989771 6.30564447462752  21.7043808377032 6.88126787374531  C 22.0242269794716 7.14956691570699  22.4333325096405 7.31786358748296  22.8870677340096 7.31786358748296  Z M 12.4685135657082 5.07390796380344  C 13.9636083214164 5.07390796380344  15.1760483471897 3.88119676817378  15.1760483471897 2.41043020178384  C 15.1735689197341 1.66407104869043  14.8586816328769 0.988445279386924  14.3528784319407 0.505507003855897  C 14.4099052634188 0.666486429032905  14.4421378203412 0.83478310080887  14.4421378203412 1.00551885478449  C 14.4421378203412 2.25920710540543  12.8528248213214 3.27630438266017  10.8940771314218 3.27630438266017  C 10.5395190052755 3.27630438266017  10.1973580164069 3.24215723186505  9.87503244718293 3.17874109467411  C 10.2097551536848 4.27632808451735  11.2436764026571 5.07390796380344  12.4685135657082 5.07390796380344  Z " fill-rule="nonzero" fill="#ffb103" stroke="none" transform="matrix(1 0 0 1 -1 5 )" />
  </g>
</svg>