<?xml version="1.0" encoding="utf-8"?>
<svg version="1.1" xmlns:xlink="http://www.w3.org/1999/xlink" width="33px" height="33px" xmlns="http://www.w3.org/2000/svg">
  <defs>
    <linearGradient gradientUnits="userSpaceOnUse" x1="16.5" y1="0" x2="10.7047589282917" y2="50.6831995477059" id="LinearGradient101">
      <stop id="Stop102" stop-color="#e7c296" offset="0" />
      <stop id="Stop103" stop-color="#f6bf8d" offset="1" />
    </linearGradient>
  </defs>
  <g transform="matrix(1 0 0 1 -260 -274 )">
    <path d="M 0 11.99  C 0 5.37166666666667  5.37166666666667 0  11.99 0  C 11.99 0  29.9933333333334 0  29.9933333333334 0  C 31.6433333333334 0  33 1.33833333333333  33 3.00666666666667  C 33 3.00666666666667  33 21.01  33 21.01  C 33 27.6466666666667  27.6283333333334 33  21.01 33  C 21.01 33  3.00666666666667 33  3.00666666666667 33  C 1.33833333333333 33  0 31.6616666666667  0 29.9933333333334  C 0 29.9933333333334  0 11.99  0 11.99  Z " fill-rule="nonzero" fill="url(#LinearGradient101)" stroke="none" transform="matrix(1 0 0 1 260 274 )" />
  </g>
</svg>