<?xml version="1.0" encoding="utf-8"?>
<svg version="1.1" xmlns:xlink="http://www.w3.org/1999/xlink" width="60px" height="60px" xmlns="http://www.w3.org/2000/svg">
  <g transform="matrix(1 0 0 1 -289 -1458 )">
    <path d="M 30.0631162329814 59.6791044776119  C 40.2882599733531 59.6791044776119  50.2316520501327 54.373070321129  55.7113884076448 44.8813703327223  C 63.8799671265447 30.7314529742339  59.0317684563287 12.6376917403559  44.8783711353856 4.46824793241149  C 40.3929248464125 1.86942976444743  35.3010056036395 0.500577587037242  30.1171000934179 0.5  C 19.8919563530462 0.5  9.94856427626655 5.80603415648284  4.46882791875453 15.2977341448895  C -3.7012297901565 29.4469119654832  1.14696881701366 47.541412737256  15.2981476844627 55.7108565452004  C 19.784679019799 58.310303304072  24.8779567214094 59.6791777884437  30.0631162329814 59.6791044776119  Z M 53.2621459586398 12.5637400313944  C 55.522334055629 15.552225463297  57.1809098995075 18.9510522166297  58.1458408304458 22.5716229067375  C 61.9822010170568 36.9772930409645  54.2504728626353 51.9414629633634  40.282941396732 57.1514064846078  C 26.3154099308287 62.3613500058518  10.6749072585702 56.1140096558356  4.14026189893775 42.7148103779637  C -2.39438346069471 29.3156111000912  2.31291241505858 13.1445632208811  15.0180635721799 5.34612646229562  C 27.7232147293013 -2.45231029628985  44.2730854382507 0.671063672751643  53.2621459586398 12.5637400313944  Z " fill-rule="nonzero" fill="#fde4c7" stroke="none" transform="matrix(1 0 0 1 289 1458 )" />
  </g>
</svg>