<?xml version="1.0" encoding="utf-8"?>
<svg version="1.1" xmlns:xlink="http://www.w3.org/1999/xlink" width="41px" height="41px" xmlns="http://www.w3.org/2000/svg">
  <g transform="matrix(1 0 0 1 -297 -1469 )">
    <path d="M 31.6806892633076 36.8061471602541  C 30.0717574073511 37.7817834202565  28.3340200998072 38.5270989797482  26.5181877462994 39.0203441449312  C 20.4087785509532 40.6820640720389  13.8736433639128 39.3799097223482  8.86776255943789 35.5034195101439  C 3.86188175496306 31.62692929794  0.965753520605631 25.6256336116085  1.04575226140264 19.2948151731007  C 1.04575226140264 19.2948151731007  0.507929235583219 18.9869549318237  0.507929235583219 18.9869549318237  C 0.297081530668379 26.6222163893299  4.30458723751269 33.7541231079103  10.9358080706926 37.5447972819038  C 17.5670289038726 41.3354714558973  25.7461187940785 41.1699159358009  32.218512225267 37.1140074015307  C 32.218512225267 37.1140074015307  31.6806892633076 36.8061471602541  31.6806892633076 36.8061471602541  Z M 12.4074502329885 3.27035100874855  C 20.4280994305358 -1.05723419043215  30.4046260343122 1.08629378450587  35.9398278859505 8.32645037271368  C 38.256416933969 11.3716669635678  39.5776059230348 15.0571589785859  39.7233152580436 18.8805895717019  C 39.7233152580436 18.8805895717019  40.276119402985 19.1966894240531  40.276119402985 19.1966894240531  C 40.1457649697259 12.4881556701152  36.4988539789649 6.34191016854857  30.6732257316305 3.01265252841404  C 24.8475974842961 -0.316605111720946  17.7008261795783 -0.338784322776519  11.854646088047 2.95425115639682  C 11.854646088047 2.95425115639682  12.4074502329885 3.27035100874855  12.4074502329885 3.27035100874855  Z " fill-rule="nonzero" fill="#fde4c7" stroke="none" transform="matrix(1 0 0 1 297 1469 )" />
  </g>
</svg>