<?xml version="1.0" encoding="utf-8"?>
<svg version="1.1" xmlns:xlink="http://www.w3.org/1999/xlink" width="43px" height="42px" xmlns="http://www.w3.org/2000/svg">
  <g transform="matrix(1 0 0 1 -292 -965 )">
    <path d="M 18.1815431164902 26.0233899183622  C 13.5736258194654 23.9672800311  13.5146873424105 17.5173642607233  14 17.5173642607233  L 14 1  L 0.5 1  C 0.5 0.5  0.5 22.3149539976675  0.5 22.3149539976675  C 0.612518910741301 40.9315148373721  18.1815431164902 41.5  18.1815431164902 41.5  C 18.1815431164902 41.5  18.1815431164902 26.0233899183622  18.1815431164902 26.0233899183622  Z M 42.9999999999999 22.3149539976675  C 42.9999999999999 22.3149539976675  42.9999999999999 0.5  42.9999999999999 1  L 29.9853126575894 1  C 29.9853126575894 0.5  29.9853126575894 17.5173642607233  29.9853126575894 17.5173642607233  C 29.9853126575894 17.5173642607233  29.9263741805345 23.9725929765455  25.3184568835097 26.0233899183622  C 25.3184568835097 26.0233899183622  25.3184568835097 41.5  25.3184568835097 41.5  C 25.3184568835097 41.5  42.8821230458899 40.9315148373721  42.9999999999999 22.3149539976675  Z " fill-rule="nonzero" fill="#ffffff" stroke="none" transform="matrix(1 0 0 1 292 965 )" />
  </g>
</svg>