<?xml version="1.0" encoding="utf-8"?>
<svg version="1.1" xmlns:xlink="http://www.w3.org/1999/xlink" width="7px" height="28px" xmlns="http://www.w3.org/2000/svg">
  <g transform="matrix(1 0 0 1 -48 -1110 )">
    <path d="M 1.64011837780193 2.25638548136238  C 1.91783245579088 1.45349983144625  2.50103202444938 0.761357049932201  3.25086002037448 0.373757107857544  C 4.41725910887456 -0.179957136820215  5.77805808613875 -0.0138428342171138  7 0.207642805254443  C 6.63897168396927 1.84109977352091  6.4168004313415 3.50224250755419  6.16685776603313 5.16338524158746  C 6.13908635335254 5.88321374020204  6.05577211531078 6.57535652171609  5.97245792608594 7.29518502033066  C 5.83360091149992 8.18112777288204  5.86137227536358 9.09475629120023  5.72251526077757 9.98069904375162  C 5.69474384809698 11.0050703818056  5.6392010227358 12.0571274369601  5.61142965887214 13.1091844921146  C 5.50034400814979 14.105870113068  5.55588683351097 15.130241451122  5.55588683351097 16.1269270720754  C 5.55588683351097 17.6219555035056  5.52811542083038 19.1446696520363  5.63920102273581 20.6396980348002  C 5.72251526077757 22.9376121161465  5.88914368804417 25.2078404803922  6.19462917871372 27.478068844638  C 6.19462917871372 27.478068844638  6.19462917871372 27.8102974011779  6.19462917871372 27.8102974011779  C 5.02823009021365 28.0317830893158  3.66743111294945 28.1978973432526  2.58434626249115 27.478068844638  C 1.50126141203284 26.7582403460235  1.22354728522696 25.4293261685301  0.945833207237999 24.2665262936398  C 0.30709086203525 20.5289552150644  -0.0261660413148824 16.7360127022879  0.0016053713657065 12.9153844724109  C 0.0571481967268829 10.922013230504  0.251548036674074 8.95632770569765  0.529262114663029 6.99064218089126  C 0.751433367290809 5.38487088105902  1.11246168332153 3.80678534699358  1.64011837780193 2.25638548136238  Z " fill-rule="nonzero" fill="#ff8f21" stroke="none" transform="matrix(1 0 0 1 48 1110 )" />
  </g>
</svg>