<?xml version="1.0" encoding="utf-8"?>
<svg version="1.1" xmlns:xlink="http://www.w3.org/1999/xlink" width="22px" height="19px" xmlns="http://www.w3.org/2000/svg">
  <g transform="matrix(1 0 0 1 -27 -15 )">
    <path d="M 20 0.5  C 21.12 0.5  22 1.38  22 2.5  L 21.9999999997426 6.5  L 15 6.5  C 13.3200000000001 6.5  12 7.82000000000005  12 9.5  C 12 11.18  13.3200000000001 12.5  15 12.5  L 22 12.5000041620881  L 22 16.5  C 22 17.62  21.12 18.5  20 18.5  L 2 18.5  C 0.879999999999995 18.5  0 17.62  0 16.5  L 0 2.5  C 0 1.38  0.879999999999995 0.5  2 0.5  L 20 0.5  Z M 17.187628237858 8.01399810177281  C 16.359201113158 8.01399810177281  15.687628237858 8.68557097707276  15.687628237858 9.51399810177281  C 15.687628237858 10.3424252264729  16.359201113158 11.0139981017728  17.187628237858 11.0139981017728  C 18.0160553625581 11.0139981017728  18.687628237858 10.3424252264729  18.687628237858 9.51399810177281  C 18.687628237858 8.68557097707276  18.0160553625581 8.01399810177281  17.187628237858 8.01399810177281  Z " fill-rule="nonzero" fill="#333333" stroke="none" transform="matrix(1 0 0 1 27 15 )" />
  </g>
</svg>