<?xml version="1.0" encoding="utf-8"?>
<svg version="1.1" xmlns:xlink="http://www.w3.org/1999/xlink" width="27px" height="23px" xmlns="http://www.w3.org/2000/svg">
  <g transform="matrix(1 0 0 1 -5 -8 )">
    <path d="M 13.2900472668952 22.6554978192362  L 26.4440784138594 8.46673797097307  L 19.4360528153017 0.232042501929927  L 7.14404171848873 0.232042501929927  L 0.136016119931014 8.46673797097307  L 13.2900472668952 22.6554978192362  Z M 20.6325094959227 6.43518764513726  C 20.6325094959227 6.43518764513726  20.6325094959227 7.73258656673347  20.6325094959227 7.73258656673347  C 20.6353223768765 7.87066893532908  20.528432900632 7.98861429183783  20.399040376757 7.98861429183783  C 20.399040376757 7.98861429183783  20.1740099004528 7.98861429183783  20.1740099004528 7.98861429183783  C 19.8364641859964 7.98861429183783  19.8589672336268 8.05477876012322  19.6958201383062 8.24751873295459  C 18.5172230186627 9.83546597180406  13.2768258017272 16.1067068788545  13.2768258017272 16.1067068788545  C 13.2768258017272 16.1067068788545  8.03924146574564 9.83834268781647  6.86064434610209 8.24751873295459  C 6.6946843698277 8.05190204411081  6.72281317936573 7.98861429183783  6.38245458395554 7.98861429183783  C 6.38245458395554 7.98861429183783  6.15461122669748 7.98861429183783  6.15461122669748 7.98861429183783  C 6.02240582186873 7.98861429183783  5.91832922657801 7.87354565134149  5.91832922657801 7.72970985072106  C 5.91832922657801 7.72970985072106  5.91832922657801 6.43231092912484  5.91832922657801 6.43231092912484  C 5.91832922657801 6.28847512850442  6.02521870282253 6.17340648800808  6.15461122669748 6.17340648800808  C 6.15461122669748 6.17340648800808  7.53166568024038 6.41352991534451  7.53166568024038 6.41352991534451  C 7.66105820411533 6.41352991534451  7.84670834706657 6.43079021141874  8.00141679952575 6.67243435646105  C 8.00141679952575 6.67243435646105  13.2768258017277 13.0550150171144  13.2768258017277 13.0550150171144  C 13.2768258017277 13.0550150171144  18.5731151895778 6.43231092912463  18.5731151895778 6.43231092912463  C 18.727823642037 6.19066678408231  18.9162866659418 6.17340648800808  19.0456791898167 6.17340648800808  C 19.0456791898167 6.17340648800808  20.4018532577108 6.17340648800808  20.4018532577108 6.17340648800808  C 20.5312457815858 6.17340648800808  20.6353223768765 6.28847512850442  20.6325094959227 6.43518764513726  Z " fill-rule="nonzero" fill="#ffffff" stroke="none" transform="matrix(1 0 0 1 5 8 )" />
  </g>
</svg>