<?xml version="1.0" encoding="utf-8"?>
<svg version="1.1" xmlns:xlink="http://www.w3.org/1999/xlink" width="16px" height="16px" xmlns="http://www.w3.org/2000/svg">
  <defs>
    <mask fill="white" id="clip33">
      <path d="M 0.768817988019293 6.7068965517241  L 2.83487082623799 6.70677732022907  L 2.83487082623799 0.5  L 12.132108598222 0.5  L 12.1321085936674 6.7068965517241  L 15.23118785555 6.7068965517241  L 8.00000292178464 15.4999999999999  L 0.768817988019293 6.7068965517241  Z " fill-rule="evenodd" />
    </mask>
  </defs>
  <g transform="matrix(1 0 0 1 -243 -100 )">
    <path d="M 0.768817988019293 6.7068965517241  L 2.83487082623799 6.70677732022907  L 2.83487082623799 0.5  L 12.132108598222 0.5  L 12.1321085936674 6.7068965517241  L 15.23118785555 6.7068965517241  L 8.00000292178464 15.4999999999999  L 0.768817988019293 6.7068965517241  Z " fill-rule="nonzero" fill="#ffffff" stroke="none" fill-opacity="0" transform="matrix(1 0 0 1 243 100 )" />
    <path d="M 0.768817988019293 6.7068965517241  L 2.83487082623799 6.70677732022907  L 2.83487082623799 0.5  L 12.132108598222 0.5  L 12.1321085936674 6.7068965517241  L 15.23118785555 6.7068965517241  L 8.00000292178464 15.4999999999999  L 0.768817988019293 6.7068965517241  Z " stroke-width="1" stroke="#fedcda" fill="none" transform="matrix(1 0 0 1 243 100 )" mask="url(#clip33)" />
  </g>
</svg>