<?xml version="1.0" encoding="utf-8"?>
<svg version="1.1" xmlns:xlink="http://www.w3.org/1999/xlink" width="21px" height="27px" xmlns="http://www.w3.org/2000/svg">
  <g transform="matrix(1 0 0 1 -10 -7 )">
    <path d="M 20.9068886333382 17.1721462296196  C 20.9068886333382 17.1721462296196  20.972263868067 4.20802352241848  20.972263868067 4.20802352241848  L 10.5554475660093 0.913043478260875  L 0.13868065967111 4.20701558254076  L 0.191484683792785 17.0323375934103  C 0.191484683792785 17.0323375934103  0.203092677870048 17.1711628736413  0.203092677870048 17.1711628736413  C 0.221961842710535 17.2555102326766  0.622980991290355 19.2932450747282  2.62703942408041 21.2561956946331  C 4.16806238248639 22.7689167798913  7.9474770668847 24.7453639605978  9.56022260997231 25.5889850543478  C 9.81357325517351 25.7220331182065  10.0028823500718 25.819852454144  10.1108860907099 25.8801567595109  C 10.1108860907099 25.8801567595109  10.4939251973998 26.0869565217391  10.4939251973998 26.0869565217391  C 10.4939251973998 26.0869565217391  10.9642218425471 25.8492793817935  10.9642218425471 25.8492793817935  C 11.9066921701819 25.3889212805706  16.701213587707 23.005143469769  18.4824973256525 21.2586540845788  C 20.4889514508373 19.2942038468071  20.8898965058379 17.256985266644  20.9068886333382 17.1721462296196  Z M 16.6159188300662 10.3446992923177  C 16.6159188300662 10.3446992923177  9.71811522956358 16.7093699926824  9.71811522956358 16.7093699926824  C 9.56492134137417 16.8507305202504  9.36413585893069 16.9214035465946  9.16336606306146 16.9214035465946  C 8.96259626719224 16.9214035465946  8.76185785980543 16.85074499513  8.60864830037566 16.7094134031717  C 8.60864830037566 16.7094134031717  4.92264357748932 13.3088401383894  4.92264357748932 13.3088401383894  C 4.61622447396365 13.0261480047136  4.61617739890697 12.5677506283863  4.92251805422744 12.2850005668935  C 5.22890578460458 12.0022505195502  5.72567568590953 12.0022070807621  6.03206341628667 12.2848847395583  C 6.03206341628667 12.2848847395583  9.16331900333868 15.1736757865461  9.16331900333868 15.1736757865461  C 9.16331900333868 15.1736757865461  15.5064048564894 9.32083075691334  15.5064048564894 9.32083075691334  C 15.8127925868666 9.03812413420863  16.3095624881715 9.03813862323762  16.6159502185486 9.32085972082188  C 16.9223222623515 9.60358081840614  16.9223065604434 10.0619781947334  16.6159188300662 10.3446992923177  Z " fill-rule="nonzero" fill="#ffffff" stroke="none" transform="matrix(1 0 0 1 10 7 )" />
  </g>
</svg>