<?xml version="1.0" encoding="utf-8"?>
<svg version="1.1" xmlns:xlink="http://www.w3.org/1999/xlink" width="20px" height="15px" xmlns="http://www.w3.org/2000/svg">
  <g transform="matrix(1 0 0 1 -38 -6 )">
    <path d="M 18.4156976420233 3.13683333429496  C 17.8691729005421 3.16430345227708  17.367179804663 3.50179347320021  17.1465457423613 3.98840699174055  C 16.9016216915493 4.53192289752955  17.0210474683915 5.08721171102516  17.3489623132803 5.48552842176584  C 17.3489623132803 5.48552842176584  17.1931015536726 6.11930328663893  17.1931015536726 6.11930328663893  C 16.8753075373298 7.41432313436724  15.683073934617 8.32672348163036  14.3086654180771 8.32672348163036  C 12.7622028162561 8.32672348163036  11.4768575909205 7.17494067766595  11.3533834826599 5.68174355020952  C 11.3533834826599 5.68174355020952  11.2056193858891 3.88833727623427  11.2056193858891 3.88833727623427  C 11.9181257155239 3.42919387567605  12.3391521830354 2.57762021823047  12.1347114464072 1.65148481197629  C 11.9586090297077 0.856813541779379  11.2946826770934 0.215190071768538  10.4728713991624 0.0484072125914087  C 9.06202789985703 -0.240029026220804  7.81716598870528 0.799911154530711  7.81716598870528 2.12043896895669  C 7.81716598870528 2.85820785190494  8.20782997057892 3.50964207833796  8.79888635766235 3.88833727623427  C 8.79888635766235 3.88833727623427  8.65112226089149 5.68174355020952  8.65112226089149 5.68174355020952  C 8.52764815263091 7.17494067766594  7.24230292729536 8.32672348163036  5.69584032547432 8.32672348163036  C 4.3234559746436 8.32672348163036  3.1291982062216 7.4123609830828  2.81140418987879 6.11930328663893  C 2.81140418987879 6.11930328663893  2.65554343027117 5.48552842176584  2.65554343027117 5.48552842176584  C 2.98345827515993 5.0891738623096  3.10288405200213 4.53192289752955  2.85796000119016 3.98840699174055  C 2.63935010459765 3.50179347320021  2.13735700871857 3.16234130099264  1.58880810152812 3.13683333429497  C 0.588870241188341 3.08777955218405  -0.137805248410813 3.93542890706075  0.0221038426151841 4.83016989276394  C 0.111167133819537 5.32463201644202  0.449202807254241 5.71706227332939  0.888446766148438 5.90542879663532  C 0.888446766148438 5.90542879663532  2.21629947137698 15  2.21629947137698 15  L 17.7821337750469 15  C 17.7821337750469 15  19.1099864802754 5.90542879663532  19.1099864802754 5.90542879663532  C 19.5512546048788 5.71706227332938  19.8892902783135 5.32463201644202  19.9763294038087 4.83016989276394  C 20.1423109919622 3.93542890706075  19.4156355023631 3.08777955218404  18.4156976420233 3.13683333429496  Z " fill-rule="nonzero" fill="#f9c85d" stroke="none" transform="matrix(1 0 0 1 38 6 )" />
  </g>
</svg>