<?xml version="1.0" encoding="utf-8"?>
<svg version="1.1" xmlns:xlink="http://www.w3.org/1999/xlink" width="21px" height="7px" xmlns="http://www.w3.org/2000/svg">
  <g transform="matrix(1 0 0 1 -38 -6 )">
    <path d="M 1.52484788517506 6.17427984292347  C 2.35436513471018 6.17427984292347  3.02733133470076 5.51566346264384  3.02733133470076 4.7038342084019  C 3.02733133470076 4.3118480243684  2.86671402412901 3.9556778368456  2.61053957941965 3.69103741818338  C 2.43365722473936 4.58842710853416  1.67733267369249 5.36643014384937  0.593674109961512 5.84994609674348  C 0.849848554670871 6.05091363272004  1.17108317581449 6.17427984292347  1.52484788517506 6.17427984292347  Z M 18.6092435906758 6.17427984292345  C 19.438760840211 6.17427984292345  20.109693909688 5.51765324022776  20.109693909688 4.70582398598582  C 20.1076607791744 4.31582757953625  19.9511097296297 3.96562672476522  19.6990015459475 3.70297608368693  C 19.4936553640772 4.58842710853416  18.725132029949 5.34852214559402  17.6394403357044 5.81810965540063  C 17.9017141719545 6.03698518963253  18.237180706693 6.17427984292345  18.6092435906758 6.17427984292345  Z M 10.0660291726687 4.34368446571122  C 11.2920068723494 4.34368446571122  12.2862076934834 3.37068322717124  12.2862076934834 2.17084734406365  C 12.2841745629698 1.56197540338219  12.0259669877469 1.01080701263459  11.6112083629793 0.616831051017172  C 11.6579703647914 0.748156371556306  11.6844010614677 0.885451024847228  11.6844010614677 1.02473545572208  C 11.6844010614677 2.04748113386022  10.3811644022715 2.8772183863575  8.77499129655382 2.8772183863575  C 8.48425363311378 2.8772183863575  8.20368162224156 2.84936150018254  7.93937465547788 2.79762728300045  C 8.21384727480938 3.6930271957673  9.06166269896664 4.34368446571122  10.0660291726687 4.34368446571122  Z " fill-rule="nonzero" fill="#ffb103" stroke="none" transform="matrix(1 0 0 1 38 6 )" />
  </g>
</svg>