<?xml version="1.0" encoding="utf-8"?>
<svg version="1.1" xmlns:xlink="http://www.w3.org/1999/xlink" width="10px" height="15px" xmlns="http://www.w3.org/2000/svg">
  <g transform="matrix(1 0 0 1 -48 -6 )">
    <path d="M 8.41582174287076 3.13383045525903  C 7.86933981151552 3.16130298273156  7.36738603752996 3.49882260596547  7.14676925783469 3.98547880690739  C 6.90186439230142 4.52904238618525  7.0212808143383 5.08437990580849  7.34916997315145 5.48273155416013  C 7.34916997315145 5.48273155416013  7.19332142235755 6.11656200941916  7.19332142235755 6.11656200941916  C 6.87555229931024 7.41169544740975  5.68341208609454 8.32417582417584  4.30911122909376 8.32417582417584  C 2.76276976407373 8.32417582417584  1.47752522181233 7.17229199372058  1.3540607854691 5.67896389324962  C 1.3540607854691 5.67896389324962  1.20630826328787 3.88540031397175  1.20630826328787 3.88540031397175  C 1.91875878120286 3.42621664050236  2.33975226906171 2.57456828885401  2.13532754659179 1.64835164835165  C 1.95923892426621 0.853610675039248  1.29536457802724 0.211930926216641  0.473617673841211 0.0451334379905809  C 0.313721108740974 0.0117739403453688  0.155848550793902 0  0 0  C 0 0  0 15  0 15  L 7.78230750392931 15  C 7.78230750392931 15  9.11005619640724 5.90463108320252  9.11005619640724 5.90463108320252  C 9.55128975579777 5.71624803767662  9.88929895037675 5.32378335949765  9.97633125796296 4.82927786499216  C 10.1422998445227 3.93249607535322  9.41568127653554 3.08477237048666  8.41582174287076 3.13383045525903  Z " fill-rule="nonzero" fill="#ffb103" stroke="none" transform="matrix(1 0 0 1 48 6 )" />
  </g>
</svg>