<?xml version="1.0" encoding="utf-8"?>
<svg version="1.1" xmlns:xlink="http://www.w3.org/1999/xlink" width="17px" height="24px" xmlns="http://www.w3.org/2000/svg">
  <defs>
    <mask fill="white" id="clip37">
      <path d="M 16.8490853658536 20.5219298245614  C 16.8490853658536 21.9089912280702  15.5285823170732 23.0438596491229  13.9565548780488 23.0438596491229  C 13.9565548780488 23.0438596491229  3.39253048780483 23.0438596491229  3.39253048780483 23.0438596491229  C 1.82050304878044 23.0438596491229  0.5 21.9089912280702  0.5 20.5219298245614  C 0.5 20.5219298245614  0.5 18  0.5 18  L 16.8490853658536 18  C 16.8490853658536 18  16.8490853658536 20.5219298245614  16.8490853658536 20.5219298245614  Z M 0.5 16  C 0.5 16.3925438596491  0.5 2.52192982456143  0.5 2.52192982456143  C 0.5 1.1348684210526  1.82050304878044 0  3.39253048780483 0  C 3.39253048780483 0  13.9565548780488 0  13.9565548780488 0  C 15.5285823170732 0  16.8490853658536 1.1348684210526  16.8490853658536 2.52192982456143  C 16.8490853658536 2.52192982456143  16.8490853658536 16.3925438596491  16.8490853658536 16  L 0.5 16  Z " fill-rule="evenodd" />
    </mask>
  </defs>
  <g transform="matrix(1 0 0 1 -39 -718 )">
    <path d="M 16.8490853658536 20.5219298245614  C 16.8490853658536 21.9089912280702  15.5285823170732 23.0438596491229  13.9565548780488 23.0438596491229  C 13.9565548780488 23.0438596491229  3.39253048780483 23.0438596491229  3.39253048780483 23.0438596491229  C 1.82050304878044 23.0438596491229  0.5 21.9089912280702  0.5 20.5219298245614  C 0.5 20.5219298245614  0.5 18  0.5 18  L 16.8490853658536 18  C 16.8490853658536 18  16.8490853658536 20.5219298245614  16.8490853658536 20.5219298245614  Z M 0.5 16  C 0.5 16.3925438596491  0.5 2.52192982456143  0.5 2.52192982456143  C 0.5 1.1348684210526  1.82050304878044 0  3.39253048780483 0  C 3.39253048780483 0  13.9565548780488 0  13.9565548780488 0  C 15.5285823170732 0  16.8490853658536 1.1348684210526  16.8490853658536 2.52192982456143  C 16.8490853658536 2.52192982456143  16.8490853658536 16.3925438596491  16.8490853658536 16  L 0.5 16  Z " fill-rule="nonzero" fill="#ffffff" stroke="none" fill-opacity="0" transform="matrix(1 0 0 1 39 718 )" />
    <path d="M 16.8490853658536 20.5219298245614  C 16.8490853658536 21.9089912280702  15.5285823170732 23.0438596491229  13.9565548780488 23.0438596491229  C 13.9565548780488 23.0438596491229  3.39253048780483 23.0438596491229  3.39253048780483 23.0438596491229  C 1.82050304878044 23.0438596491229  0.5 21.9089912280702  0.5 20.5219298245614  C 0.5 20.5219298245614  0.5 18  0.5 18  L 16.8490853658536 18  C 16.8490853658536 18  16.8490853658536 20.5219298245614  16.8490853658536 20.5219298245614  Z " stroke-width="2" stroke="#fc434a" fill="none" transform="matrix(1 0 0 1 39 718 )" mask="url(#clip37)" />
    <path d="M 0.5 16  C 0.5 16.3925438596491  0.5 2.52192982456143  0.5 2.52192982456143  C 0.5 1.1348684210526  1.82050304878044 0  3.39253048780483 0  C 3.39253048780483 0  13.9565548780488 0  13.9565548780488 0  C 15.5285823170732 0  16.8490853658536 1.1348684210526  16.8490853658536 2.52192982456143  C 16.8490853658536 2.52192982456143  16.8490853658536 16.3925438596491  16.8490853658536 16  L 0.5 16  Z " stroke-width="2" stroke="#fc434a" fill="none" transform="matrix(1 0 0 1 39 718 )" mask="url(#clip37)" />
  </g>
</svg>