<?xml version="1.0" encoding="utf-8"?>
<svg version="1.1" xmlns:xlink="http://www.w3.org/1999/xlink" width="10px" height="10px" xmlns="http://www.w3.org/2000/svg">
  <g transform="matrix(1 0 0 1 -13 -12 )">
    <path d="M 6.09090905972365 5.99999997265625  L 5.99999999005681 5.99999997265625  C 5.99999999005681 5.99999997265625  8.99999998508521 5.99999997265625  8.99999998508521 5.99999997265625  C 9.54545455223398 5.99999997265625  9.99999999999999 6.33333331966146  9.99999999999999 6.83333334016926  C 9.99999999999999 7.33333336067708  9.54545455223397 7.66666666210937  8.99999998508521 7.66666666210937  C 8.99999998508521 7.66666666210937  5.99999999005681 7.66666666210937  5.99999999005681 7.66666666210937  C 5.99999999005681 7.66666666210937  5.99999999005681 9.16666667805989  5.99999999005681 9.16666667805989  C 5.99999999005681 9.58333333902995  5.54545454229079 10  4.99999997514204 10  C 4.45454540799328 10  3.99999996022727 9.66666665299478  3.99999996022727 9.16666667805989  C 3.99999996022727 9.16666667805989  3.99999996022727 7.66666666210937  3.99999996022727 7.66666666210937  C 3.99999996022727 7.66666666210937  0.999999965198862 7.66666666210937  0.999999965198862 7.66666666210937  C 0.454545398050102 7.66666666210937  0 7.33333331510416  0 6.83333334016927  C 0 6.41666667919922  0.454545447766012 6.00000001822917  0.999999965198862 5.99999997265625  C 0.999999965198862 5.99999997265625  3.99999996022727 5.99999997265625  3.99999996022727 5.99999997265625  L 3.99999996022727 5.16666665071615  C 3.99999996022727 5.16666665071615  0.999999965198862 5.16666665071615  0.999999965198862 5.16666665071615  C 0.454545398050102 5.16666665071615  0 4.83333330371094  0 4.33333332877605  C 0 3.83333335384115  0.454545447766012 3.50000000683594  0.999999965198862 3.50000000683594  C 0.999999965198862 3.50000000683594  3.09090906469524 3.50000000683594  3.09090906469524 3.50000000683594  C 3.09090906469524 3.50000000683594  0.90909089553202 1.41666665641276  0.90909089553202 1.41666665641276  C 0.727272706482433 1.24999998291016  0.636363636815596 1.08333330940755  0.636363636815596 0.833333321940103  C 0.636363636815596 0.583333334472657  0.818181825865184 0.416666660970052  0.999999965198859 0.249999987467447  C 1.18181815424845 0.0833333139648416  1.45454541296487 0  1.72727272139721 0  C 1.72727272139721 0  1.81818179106405 0  1.81818179106405 0  C 2.09090904978047 0  2.36363635821281 0.0833333139648442  2.54545454726239 0.333333301432291  C 2.54545454726239 0.333333301432291  5.09090909452479 2.66666663932291  5.09090909452479 2.66666663932291  C 5.09090909452479 2.66666663932291  7.54545452240443 0.333333301432291  7.54545452240443 0.333333301432291  C 7.90909090050361 0  8.54545453731921 -0.0833333595377608  8.99999998508522 0.249999987467447  C 9.45454543285123 0.583333334472654  9.45454543285123 1.08333330940755  9.09090905475206 1.4999999703776  C 9.09090905475206 1.4999999703776  6.90909088558884 3.58333332080078  6.90909088558884 3.58333332080078  C 6.90909088558884 3.58333332080078  8.99999998508522 3.58333332080078  8.99999998508522 3.58333332080078  C 9.54545455223398 3.58333332080078  9.99999999999999 3.91666666780599  9.99999999999999 4.41666664274088  C 9.99999999999999 4.83333330371094  9.54545455223398 5.24999996468099  8.99999998508522 5.2500000102539  C 8.99999998508522 5.2500000102539  6.09090905972365 5.2500000102539  6.09090905972365 5.2500000102539  L 6.09090905972365 5.99999997265625  Z " fill-rule="nonzero" fill="#fc434a" stroke="none" transform="matrix(1 0 0 1 13 12 )" />
  </g>
</svg>