<?xml version="1.0" encoding="utf-8"?>
<svg version="1.1" xmlns:xlink="http://www.w3.org/1999/xlink" width="21px" height="21px" xmlns="http://www.w3.org/2000/svg">
  <g transform="matrix(1 0 0 1 -37 -222 )">
    <path d="M 14.0714428968975 11.9089417475481  C 14.0714428968975 11.306665184186  14.5506453115717 10.8180637987087  15.1428651462301 10.8180637987087  C 15.1428651462301 10.8180637987087  20.4999999769236 10.8180637987087  20.4999999769236 10.8180637987087  C 20.4999999769236 10.8180637987087  20.5 7.18177993346143  20.5 7.18177993346143  C 20.5 5.97655359336625  19.5408867497604 5  18.3571555013348 5  C 18.3571555013348 5  2.6428681057721 5  2.6428681057721 5  C 1.45913685734638 5  0.5 5.97655359336625  0.5 7.18177993346143  C 0.5 7.18177993346143  0.5 18.8182200665386  0.5 18.8182200665386  C 0.5 20.0227491574803  1.45911325023962 21  2.6428681057721 21  C 2.6428681057721 21  18.3571555013348 21  18.3571555013348 21  C 19.5408867497604 21  20.5 20.0227491574803  20.5 18.8182200665386  C 20.5 18.8182200665386  20.5 15.1819602605693  20.5 15.1819602605693  C 20.5 15.1819602605693  15.1428651462301 15.1819602605693  15.1428651462301 15.1819602605693  C 14.5506453115717 15.1819602605693  14.0714428968975 14.6933348393094  14.0714428968975 14.0910582759473  C 14.0714428968975 14.0910582759473  14.0714428968975 11.9089417475481  14.0714428968975 11.9089417475481  Z M 18 13.4996281569235  C 18 13.4996281569235  18 12.4998760523079  18 12.4998760523079  C 18 12.2235956936422  17.7763525600637 12  17.5000082623995 12  C 17.5000082623995 12  16.4999917376005 12  16.4999917376005 12  C 16.2236474399363 12  16 12.2235956936422  16 12.4998760523079  C 16 12.4998760523079  16 13.4996281569235  16 13.4996281569235  C 16 13.7754457667721  16.2236474399363 14  16.4999917376005 14  C 16.4999917376005 14  17.5000082623995 14  17.5000082623995 14  C 17.7763525600637 14  18 13.7754457990711  18 13.4996281569235  Z M 6.5 3.48891311498608  L 9.31194160983091 3.5  C 9.31194160983091 3.5  12.1335451935987 1.86804859056122  12.1335451935987 1.86804859056122  C 13.1487086138847 1.28020949744308  13.4804211368892 1.36951395950439  14.0671118089574 2.38664742696312  C 14.0671118089574 2.38664742696312  14.7029078275115 3.49029604368945  14.7029078275115 3.49029604368945  L 16 3.49444482979953  C 16 3.49444482979953  14.9385385953425 1.06348792867055  14.9385385953425 1.06348792867055  C 14.351824535639 0.0463779165988285  13.0540071178403 -0.301886089607933  12.0381652732383 0.28524982291782  C 12.0381652732383 0.28524982291782  6.5 3.48891311498608  6.5 3.48891311498608  Z " fill-rule="nonzero" fill="#ffffff" stroke="none" transform="matrix(1 0 0 1 37 222 )" />
  </g>
</svg>