<?xml version="1.0" encoding="utf-8"?>
<svg version="1.1" xmlns:xlink="http://www.w3.org/1999/xlink" width="24px" height="25px" xmlns="http://www.w3.org/2000/svg">
  <g transform="matrix(1 0 0 1 -6 -7 )">
    <path d="M 19.6548577199494 0  C 19.6548577199494 0  4.4412296959436 0  4.4412296959436 0  C 3.93410874332129 0  3.59602815446171 0.343347652943045  3.59602815446171 0.858369132357614  C 3.59602815446171 0.858369132357614  3.59602815446171 12.1030043202928  3.59602815446171 12.1030043202928  C 3.59602815446171 12.1030043202928  0.468782395512359 13.7339056013592  0.468782395512359 13.7339056013592  C 0.384262259852953 13.8197424911239  0.299742077971587 13.8197424911239  0.215221942312182 13.9055794278307  C -0.122858692769358 14.2489270807737  -0.0383385108879922 14.849785449953  0.299742077971587 15.1072961661893  C 0.299742077971587 15.1072961661893  11.4564026196648 24.8068669628228  11.4564026196648 24.8068669628228  C 11.7944832547463 25.0643776790591  12.2170840254873 25.0643776790591  12.5551646605688 24.8068669628228  C 12.5551646605688 24.8068669628228  23.71182515604 15.1072961661893  23.71182515604 15.1072961661893  C 23.7963452916994 15.0214592764246  23.8808654735808 14.9356223397178  23.8808654735808 14.849785403011  C 24.134425926781 14.4206008603032  23.9653856092402 13.9055793808886  23.5427848384993 13.7339056013592  C 23.5427848384993 13.7339056013592  20.5000592614313 12.1030043202928  20.5000592614313 12.1030043202928  C 20.5000592614313 12.1030043202928  20.5000592614313 0.858369132357616  20.5000592614313 0.858369132357616  C 20.5000592614313 0.343347652943048  20.1619786263497 0  19.6548577199494 0  Z " fill-rule="nonzero" fill="#ffffff" stroke="none" transform="matrix(1 0 0 1 6 7 )" />
  </g>
</svg>