<?xml version="1.0" encoding="utf-8"?>
<svg version="1.1" xmlns:xlink="http://www.w3.org/1999/xlink" width="7px" height="4px" xmlns="http://www.w3.org/2000/svg">
  <g transform="matrix(1 0 0 1 -44 -783 )">
    <path d="M 3.48404625239614 3.6937109227436  C 3.71848751123824 4.03338485869804  4.16020154734933 4.10079718157043  4.47064525119341 3.84428037255485  C 4.49731341837554 3.82224448342969  4.52251446290387 3.79815988187961  4.54605784341319 3.77220946177649  C 4.54605784341319 3.77220946177649  6.79128172807533 1.31496506343925  6.79128172807533 1.31496506343925  C 7.06743432691955 1.01609536448266  7.06986969090903 0.528866340679428  6.79672150717511 0.226708855158667  C 6.79599686242744 0.225907251890645  6.7952706069059 0.225107392261043  6.79454274920891 0.224309282541945  C 6.51874329962438 -0.0758825275755713  6.07275268753506 -0.074602709518063  5.79839662402465 0.227167760401966  C 5.79818170408408 0.227404155121827  5.7979669257311 0.227640703507663  5.79775228581296 0.227877402423436  C 5.79775228581296 0.227877402423436  3.55252840115082 2.68512180076068  3.55252840115082 2.68512180076068  C 3.53058955342553 2.70903187367467  3.51007528764602 2.73445741470823  3.49111229455765 2.76124170793434  C 3.47021455306858 2.73073016847664  3.44732766322866 2.70191196493596  3.42263065908069 2.67501257902984  C 3.42263065908069 2.67501257902984  1.17686220673819 0.217768180692602  1.17686220673819 0.217768180692602  C 0.8896944669927 -0.0684033442613128  0.44487438880158 -0.0456736375741734  0.183332862653719 0.268536278131886  C -0.0611109580182914 0.562203875278991  -0.0611109580182914 1.01118826008459  0.183332885456029 1.30485334839943  C 0.183332885456029 1.30485334839943  2.42910133779853 3.76209774673667  2.42910133779853 3.76209774673667  C 2.70332407109783 4.06401401082216  3.14931210365604 4.0655309135284  3.4252445472938 3.76548555116797  C 3.44600790979489 3.74290778563468  3.46546488309225 3.71893573657194  3.48350182450944 3.69370880097229  Z " fill-rule="nonzero" fill="#fc434a" stroke="none" transform="matrix(1 0 0 1 44 783 )" />
  </g>
</svg>