<?xml version="1.0" encoding="utf-8"?>
<svg version="1.1" xmlns:xlink="http://www.w3.org/1999/xlink" width="21px" height="15px" xmlns="http://www.w3.org/2000/svg">
  <defs>
    <mask fill="white" id="clip25">
      <path d="M 18.7323866094961 0  C 18.7323866094961 0  2.26761339050391 0  2.26761339050391 0  C 1.03522042647962 0  0 0.983606384162724  0 2.26230207982599  C 0 2.26230207982599  0 12.737697920174  0 12.737697920174  C 0 13.9672043154663  0.985915642125075 15  2.26761339050391 15  C 2.26761339050391 15  18.7323866094961 15  18.7323866094961 15  C 19.9647795735204 15  21 14.0163936158373  21 12.737697920174  C 21 12.737697920174  21 2.26230207982598  21 2.26230207982598  C 21 1.03279568453366  19.9647901644007 0  18.7323866094961 0  Z " fill-rule="evenodd" />
    </mask>
  </defs>
  <g transform="matrix(1 0 0 1 -224 -747 )">
    <path d="M 18.7323866094961 0  C 18.7323866094961 0  2.26761339050391 0  2.26761339050391 0  C 1.03522042647962 0  0 0.983606384162724  0 2.26230207982599  C 0 2.26230207982599  0 12.737697920174  0 12.737697920174  C 0 13.9672043154663  0.985915642125075 15  2.26761339050391 15  C 2.26761339050391 15  18.7323866094961 15  18.7323866094961 15  C 19.9647795735204 15  21 14.0163936158373  21 12.737697920174  C 21 12.737697920174  21 2.26230207982598  21 2.26230207982598  C 21 1.03279568453366  19.9647901644007 0  18.7323866094961 0  Z " fill-rule="nonzero" fill="#ffffff" stroke="none" fill-opacity="0" transform="matrix(1 0 0 1 224 747 )" />
    <path d="M 18.7323866094961 0  C 18.7323866094961 0  2.26761339050391 0  2.26761339050391 0  C 1.03522042647962 0  0 0.983606384162724  0 2.26230207982599  C 0 2.26230207982599  0 12.737697920174  0 12.737697920174  C 0 13.9672043154663  0.985915642125075 15  2.26761339050391 15  C 2.26761339050391 15  18.7323866094961 15  18.7323866094961 15  C 19.9647795735204 15  21 14.0163936158373  21 12.737697920174  C 21 12.737697920174  21 2.26230207982598  21 2.26230207982598  C 21 1.03279568453366  19.9647901644007 0  18.7323866094961 0  Z " stroke-width="2" stroke="#fc434a" fill="none" transform="matrix(1 0 0 1 224 747 )" mask="url(#clip25)" />
  </g>
</svg>