<?xml version="1.0" encoding="utf-8"?>
<svg version="1.1" xmlns:xlink="http://www.w3.org/1999/xlink" width="17px" height="21px" xmlns="http://www.w3.org/2000/svg">
  <g transform="matrix(1 0 0 1 -14 -330 )">
    <path d="M 10.155410515482 21  C 10.155410515482 21  22.7620268619667 17.8943661950473  13.7573009001919 6.95070422291119  C 13.7573009001919 6.95070422291119  12.1064344811946 8.42957747058592  12.1064344811946 8.42957747058592  C 12.1064344811946 8.42957747058592  12.1064344811946 2.21830986068051  6.85367767748739 0  C 6.85367767748739 0  6.25336260604101 5.76760563776931  3.70202359086623 7.83802816718339  C 1.0006058023338 9.90845069659747  -4.25215100137341 16.2676056377693  6.40344137939865 21  C 6.40344137939865 21  1.15068457569145 15.2323943622307  8.05430779839596 11.0915493034025  C 8.05430779839596 11.0915493034025  7.45399272694958 13.1619718328166  10.155410515482 15.2323943622307  C 12.8568283040144 17.3028168916448  10.155410515482 21  10.155410515482 21  Z " fill-rule="nonzero" fill="#ff3f45" stroke="none" transform="matrix(1 0 0 1 14 330 )" />
  </g>
</svg>