<?xml version="1.0" encoding="utf-8"?>
<svg version="1.1" xmlns:xlink="http://www.w3.org/1999/xlink" width="5px" height="3px" xmlns="http://www.w3.org/2000/svg">
  <g transform="matrix(1 0 0 1 -249 -129 )">
    <path d="M 2.48860446599724 2.7702831920577  C 2.65606250802731 3.02503864402353  2.97157253382095 3.07559788617782  3.19331803656672 2.88321027941614  C 3.2123667274111 2.86668336257227  3.23036747350276 2.84861991140971  3.24718417386656 2.82915709633237  C 3.24718417386656 2.82915709633237  4.85091552005381 0.986223797579438  4.85091552005381 0.986223797579438  C 5.04816737637111 0.762071523361998  5.04990692207788 0.396649755509571  4.85480107655365 0.170031641369  C 4.85428347316246 0.169430438917984  4.8537647192185 0.168830544195782  4.85324482086351 0.168231961906459  C 4.65624521401742 -0.0569118956816782  4.33768049109647 -0.055952032138547  4.14171187430332 0.170375820301475  C 4.14125163272354 0.170908051817577  2.5375202865363 2.01384135057051  2.5375202865363 2.01384135057051  C 2.52184968101823 2.031773905256  2.50719663403287 2.05084306103117  2.49365163896975 2.07093128095076  C 2.47872468076327 2.04804762635748  2.46237690230619 2.02643397370197  2.44473618505763 2.00625943427238  C 2.44473618505763 2.00625943427238  0.840615861955849 0.163326135519451  0.840615861955849 0.163326135519451  C 0.635496047851928 -0.0513025081959844  0.317767420572557 -0.0342552281806298  0.130952044752657 0.201402208598914  C -0.0436506842987795 0.421652906459243  -0.0436506842987795 0.758391195063439  0.130952061040021 0.978640011299573  C 0.130952061040021 0.978640011299573  1.73507238414181 2.8215733100525  1.73507238414181 2.8215733100525  C 1.93094576506988 3.04801050811661  2.2495086454686 3.0491481851463  2.446603248067 2.82411416337598  C 2.46143422128206 2.80718083922601  2.47533205935161 2.78920180242895  2.48821558893531 2.77028160072922  Z " fill-rule="nonzero" fill="#fedcda" stroke="none" transform="matrix(1 0 0 1 249 129 )" />
  </g>
</svg>