<?xml version="1.0" encoding="utf-8"?>
<svg version="1.1" xmlns:xlink="http://www.w3.org/1999/xlink" width="43px" height="39px" xmlns="http://www.w3.org/2000/svg">
  <g transform="matrix(1 0 0 1 -290 -783 )">
    <path d="M 311.5 783  C 323.54 783  333 791.58  333 802.5  C 333 813.42  323.54 822  311.5 822  C 299.46 822  290 813.42  290 802.5  C 290 791.58  299.46 783  311.5 783  Z " fill-rule="nonzero" fill="#000000" stroke="none" />
    <path d="M 311.5 783.5  C 323.26 783.5  332.5 791.86  332.5 802.5  C 332.5 813.14  323.26 821.5  311.5 821.5  C 299.74 821.5  290.5 813.14  290.5 802.5  C 290.5 791.86  299.74 783.5  311.5 783.5  Z " stroke-width="1" stroke="#ffffff" fill="none" />
  </g>
</svg>