<?xml version="1.0" encoding="utf-8"?>
<svg version="1.1" xmlns:xlink="http://www.w3.org/1999/xlink" width="500px" height="160px" xmlns="http://www.w3.org/2000/svg">
  <g transform="matrix(1 0 0 1 -600 -2353 )">
    <path d="M 601 2356  A 2 2 0 0 1 603 2354 L 1097 2354  A 2 2 0 0 1 1099 2356 L 1099 2510  A 2 2 0 0 1 1097 2512 L 603 2512  A 2 2 0 0 1 601 2510 L 601 2356  Z " fill-rule="nonzero" fill="#ffffff" stroke="none" />
    <path d="M 600.5 2356  A 2.5 2.5 0 0 1 603 2353.5 L 1097 2353.5  A 2.5 2.5 0 0 1 1099.5 2356 L 1099.5 2510  A 2.5 2.5 0 0 1 1097 2512.5 L 603 2512.5  A 2.5 2.5 0 0 1 600.5 2510 L 600.5 2356  Z " stroke-width="1" stroke="#cccccc" fill="none" stroke-opacity="0.698039215686274" />
  </g>
</svg>