<?xml version="1.0" encoding="utf-8"?>
<svg version="1.1" xmlns:xlink="http://www.w3.org/1999/xlink" width="246px" height="46px" xmlns="http://www.w3.org/2000/svg">
  <defs>
    <filter x="757px" y="558px" width="246px" height="46px" filterUnits="userSpaceOnUse" id="filter33">
      <feOffset dx="0" dy="0" in="SourceAlpha" result="shadowOffsetInner" />
      <feGaussianBlur stdDeviation="1.5" in="shadowOffsetInner" result="shadowGaussian" />
      <feComposite in2="shadowGaussian" operator="atop" in="SourceAlpha" result="shadowComposite" />
      <feColorMatrix type="matrix" values="0 0 0 0 0  0 0 0 0 0.474509803921569  0 0 0 0 0.996078431372549  0 0 0 0.8 0  " in="shadowComposite" />
    </filter>
    <g id="widget34">
      <path d="M 760.5 564  A 2.5 2.5 0 0 1 763 561.5 L 997 561.5  A 2.5 2.5 0 0 1 999.5 564 L 999.5 598  A 2.5 2.5 0 0 1 997 600.5 L 763 600.5  A 2.5 2.5 0 0 1 760.5 598 L 760.5 564  Z " fill-rule="nonzero" fill="#ffffff" stroke="none" />
      <path d="M 760.5 564  A 2.5 2.5 0 0 1 763 561.5 L 997 561.5  A 2.5 2.5 0 0 1 999.5 564 L 999.5 598  A 2.5 2.5 0 0 1 997 600.5 L 763 600.5  A 2.5 2.5 0 0 1 760.5 598 L 760.5 564  Z " stroke-width="1" stroke="#0079fe" fill="none" />
    </g>
  </defs>
  <g transform="matrix(1 0 0 1 -757 -558 )">
    <use xlink:href="#widget34" filter="url(#filter33)" />
    <use xlink:href="#widget34" />
  </g>
</svg>