<?xml version="1.0" encoding="utf-8"?>
<svg version="1.1" xmlns:xlink="http://www.w3.org/1999/xlink" width="240px" height="40px" xmlns="http://www.w3.org/2000/svg">
  <g transform="matrix(1 0 0 1 -760 -561 )">
    <path d="M 761 564  A 2 2 0 0 1 763 562 L 997 562  A 2 2 0 0 1 999 564 L 999 598  A 2 2 0 0 1 997 600 L 763 600  A 2 2 0 0 1 761 598 L 761 564  Z " fill-rule="nonzero" fill="#ffffff" stroke="none" />
    <path d="M 760.5 564  A 2.5 2.5 0 0 1 763 561.5 L 997 561.5  A 2.5 2.5 0 0 1 999.5 564 L 999.5 598  A 2.5 2.5 0 0 1 997 600.5 L 763 600.5  A 2.5 2.5 0 0 1 760.5 598 L 760.5 564  Z " stroke-width="1" stroke="#cccccc" fill="none" stroke-opacity="0.698039215686274" />
  </g>
</svg>