<?xml version="1.0" encoding="utf-8"?>
<svg version="1.1" xmlns:xlink="http://www.w3.org/1999/xlink" width="16px" height="16px" xmlns="http://www.w3.org/2000/svg">
  <g transform="matrix(1 0 0 1 -858 -119 )">
    <path d="M 866 120  C 869.92 120  873 123.08  873 127  C 873 130.92  869.92 134  866 134  C 862.08 134  859 130.92  859 127  C 859 123.08  862.08 120  866 120  Z " fill-rule="nonzero" fill="#f2f2f2" stroke="none" />
    <path d="M 866 120  C 869.92 120  873 123.08  873 127  C 873 130.92  869.92 134  866 134  C 862.08 134  859 130.92  859 127  C 859 123.08  862.08 120  866 120  Z " stroke-width="2" stroke="#000000" fill="none" />
  </g>
</svg>