<?xml version="1.0" encoding="utf-8"?>
<svg version="1.1" xmlns:xlink="http://www.w3.org/1999/xlink" width="10px" height="10px" xmlns="http://www.w3.org/2000/svg">
  <g transform="matrix(1 0 0 1 -717 -1790 )">
    <path d="M 722 1790  C 724.8 1790  727 1792.2  727 1795  C 727 1797.8  724.8 1800  722 1800  C 719.2 1800  717 1797.8  717 1795  C 717 1792.2  719.2 1790  722 1790  Z " fill-rule="nonzero" fill="#ffffff" stroke="none" fill-opacity="0" />
    <path d="M 722 1790.5  C 724.52 1790.5  726.5 1792.48  726.5 1795  C 726.5 1797.52  724.52 1799.5  722 1799.5  C 719.48 1799.5  717.5 1797.52  717.5 1795  C 717.5 1792.48  719.48 1790.5  722 1790.5  Z " stroke-width="1" stroke="#1890ff" fill="none" />
  </g>
</svg>