<?xml version="1.0" encoding="utf-8"?>
<svg version="1.1" xmlns:xlink="http://www.w3.org/1999/xlink" width="8px" height="8px" xmlns="http://www.w3.org/2000/svg">
  <g transform="matrix(1 0 0 1 -718 -1791 )">
    <path d="M 722 1791  C 724.24 1791  726 1792.76  726 1795  C 726 1797.24  724.24 1799  722 1799  C 719.76 1799  718 1797.24  718 1795  C 718 1792.76  719.76 1791  722 1791  Z " fill-rule="nonzero" fill="#ffffff" stroke="none" />
    <path d="M 722 1791.5  C 723.96 1791.5  725.5 1793.04  725.5 1795  C 725.5 1796.96  723.96 1798.5  722 1798.5  C 720.04 1798.5  718.5 1796.96  718.5 1795  C 718.5 1793.04  720.04 1791.5  722 1791.5  Z " stroke-width="1" stroke="#1890ff" fill="none" />
  </g>
</svg>