<?xml version="1.0" encoding="utf-8"?>
<svg version="1.1" xmlns:xlink="http://www.w3.org/1999/xlink" width="33px" height="33px" xmlns="http://www.w3.org/2000/svg">
  <g transform="matrix(1 0 0 1 -707 -2208 )">
    <path d="M 723.5 2208  C 732.74 2208  740 2215.26  740 2224.5  C 740 2233.74  732.74 2241  723.5 2241  C 714.26 2241  707 2233.74  707 2224.5  C 707 2215.26  714.26 2208  723.5 2208  Z " fill-rule="nonzero" fill="#1890ff" stroke="none" fill-opacity="0.298039215686275" />
    <path d="M 723.5 2208.5  C 732.46 2208.5  739.5 2215.54  739.5 2224.5  C 739.5 2233.46  732.46 2240.5  723.5 2240.5  C 714.54 2240.5  707.5 2233.46  707.5 2224.5  C 707.5 2215.54  714.54 2208.5  723.5 2208.5  Z " stroke-width="1" stroke="#1890ff" fill="none" />
  </g>
</svg>