<?xml version="1.0" encoding="utf-8"?>
<svg version="1.1" xmlns:xlink="http://www.w3.org/1999/xlink" width="15px" height="15px" xmlns="http://www.w3.org/2000/svg">
  <g transform="matrix(1 0 0 1 -540 -2305 )">
    <path d="M 547.5 2305  C 551.7 2305  555 2308.3  555 2312.5  C 555 2316.7  551.7 2320  547.5 2320  C 543.3 2320  540 2316.7  540 2312.5  C 540 2308.3  543.3 2305  547.5 2305  Z " fill-rule="nonzero" fill="#1890ff" stroke="none" fill-opacity="0.298039215686275" />
    <path d="M 547.5 2305.5  C 551.42 2305.5  554.5 2308.58  554.5 2312.5  C 554.5 2316.42  551.42 2319.5  547.5 2319.5  C 543.58 2319.5  540.5 2316.42  540.5 2312.5  C 540.5 2308.58  543.58 2305.5  547.5 2305.5  Z " stroke-width="1" stroke="#1890ff" fill="none" />
  </g>
</svg>