<?xml version="1.0" encoding="utf-8"?>
<svg version="1.1" xmlns:xlink="http://www.w3.org/1999/xlink" width="20px" height="20px" xmlns="http://www.w3.org/2000/svg">
  <g transform="matrix(1 0 0 1 -594 -2277 )">
    <path d="M 604 2277  C 609.6 2277  614 2281.4  614 2287  C 614 2292.6  609.6 2297  604 2297  C 598.4 2297  594 2292.6  594 2287  C 594 2281.4  598.4 2277  604 2277  Z " fill-rule="nonzero" fill="#1890ff" stroke="none" fill-opacity="0.298039215686275" />
    <path d="M 604 2277.5  C 609.32 2277.5  613.5 2281.68  613.5 2287  C 613.5 2292.32  609.32 2296.5  604 2296.5  C 598.68 2296.5  594.5 2292.32  594.5 2287  C 594.5 2281.68  598.68 2277.5  604 2277.5  Z " stroke-width="1" stroke="#1890ff" fill="none" />
  </g>
</svg>