<?xml version="1.0" encoding="utf-8"?>
<svg version="1.1" xmlns:xlink="http://www.w3.org/1999/xlink" width="28px" height="28px" xmlns="http://www.w3.org/2000/svg">
  <g transform="matrix(1 0 0 1 -649 -2256 )">
    <path d="M 663 2256  C 670.84 2256  677 2262.16  677 2270  C 677 2277.84  670.84 2284  663 2284  C 655.16 2284  649 2277.84  649 2270  C 649 2262.16  655.16 2256  663 2256  Z " fill-rule="nonzero" fill="#1890ff" stroke="none" fill-opacity="0.298039215686275" />
    <path d="M 663 2256.5  C 670.56 2256.5  676.5 2262.44  676.5 2270  C 676.5 2277.56  670.56 2283.5  663 2283.5  C 655.44 2283.5  649.5 2277.56  649.5 2270  C 649.5 2262.44  655.44 2256.5  663 2256.5  Z " stroke-width="1" stroke="#1890ff" fill="none" />
  </g>
</svg>