<?xml version="1.0" encoding="utf-8"?>
<svg version="1.1" xmlns:xlink="http://www.w3.org/1999/xlink" width="7px" height="7px" xmlns="http://www.w3.org/2000/svg">
  <g transform="matrix(1 0 0 1 -978 -2334 )">
    <path d="M 981.5 2334  C 983.46 2334  985 2335.54  985 2337.5  C 985 2339.46  983.46 2341  981.5 2341  C 979.54 2341  978 2339.46  978 2337.5  C 978 2335.54  979.54 2334  981.5 2334  Z " fill-rule="nonzero" fill="#1890ff" stroke="none" />
    <path d="M 981.5 2334.5  C 983.18 2334.5  984.5 2335.82  984.5 2337.5  C 984.5 2339.18  983.18 2340.5  981.5 2340.5  C 979.82 2340.5  978.5 2339.18  978.5 2337.5  C 978.5 2335.82  979.82 2334.5  981.5 2334.5  Z " stroke-width="1" stroke="#ffffff" fill="none" />
  </g>
</svg>