<?xml version="1.0" encoding="utf-8"?>
<svg version="1.1" xmlns:xlink="http://www.w3.org/1999/xlink" width="72px" height="72px" xmlns="http://www.w3.org/2000/svg">
  <g transform="matrix(1 0 0 1 -1096 -3051 )">
    <path d="M 1128.93164339028 3051.63285157446  C 1129.95195577199 3051.54433207501  1130.97569884216 3051.5  1132 3051.5  C 1151.60610861899 3051.5  1167.5 3067.39389138101  1167.5 3087  C 1167.5 3106.60610861899  1151.60610861899 3122.5  1132 3122.5  C 1112.39389138101 3122.5  1096.5 3106.60610861899  1096.5 3087  C 1096.5 3080.93519765408  1098.05371061054 3074.97438352717  1101.00914695025 3069.68477291851  L 1131.75 3087.43301270189  A 0.5 0.5 0 0 0 1132.49747076072 3086.9497720971 L 1128.93164339024 3051.63285157447  Z " fill-rule="nonzero" fill="#0096fa" stroke="none" />
    <path d="M 1128.93164339028 3051.63285157446  C 1129.95195577199 3051.54433207501  1130.97569884216 3051.5  1132 3051.5  C 1151.60610861899 3051.5  1167.5 3067.39389138101  1167.5 3087  C 1167.5 3106.60610861899  1151.60610861899 3122.5  1132 3122.5  C 1112.39389138101 3122.5  1096.5 3106.60610861899  1096.5 3087  C 1096.5 3080.93519765408  1098.05371061054 3074.97438352717  1101.00914695025 3069.68477291851  L 1131.75 3087.43301270189  A 0.5 0.5 0 0 0 1132.49747076072 3086.9497720971 L 1128.93164339024 3051.63285157447  Z " stroke-width="1" stroke="#ffffff" fill="none" />
  </g>
</svg>