<?xml version="1.0" encoding="utf-8"?>
<svg version="1.1" xmlns:xlink="http://www.w3.org/1999/xlink" width="72px" height="72px" xmlns="http://www.w3.org/2000/svg">
  <g transform="matrix(1 0 0 1 -1096 -3051 )">
    <path d="M 1132 3051  C 1152.16 3051  1168 3066.84  1168 3087  C 1168 3107.16  1152.16 3123  1132 3123  C 1111.84 3123  1096 3107.16  1096 3087  C 1096 3066.84  1111.84 3051  1132 3051  Z " fill-rule="nonzero" fill="#e9e9e9" stroke="none" />
    <path d="M 1132 3051.5  C 1151.88 3051.5  1167.5 3067.12  1167.5 3087  C 1167.5 3106.88  1151.88 3122.5  1132 3122.5  C 1112.12 3122.5  1096.5 3106.88  1096.5 3087  C 1096.5 3067.12  1112.12 3051.5  1132 3051.5  Z " stroke-width="1" stroke="#ffffff" fill="none" />
  </g>
</svg>