<?xml version="1.0" encoding="utf-8"?>
<svg version="1.1" xmlns:xlink="http://www.w3.org/1999/xlink" width="44px" height="44px" xmlns="http://www.w3.org/2000/svg">
  <g transform="matrix(1 0 0 1 -1110 -3065 )">
    <path d="M 1132 3065  C 1144.32 3065  1154 3074.68  1154 3087  C 1154 3099.32  1144.32 3109  1132 3109  C 1119.68 3109  1110 3099.32  1110 3087  C 1110 3074.68  1119.68 3065  1132 3065  Z " fill-rule="nonzero" fill="#ffffff" stroke="none" />
    <path d="M 1132 3065.5  C 1144.04 3065.5  1153.5 3074.96  1153.5 3087  C 1153.5 3099.04  1144.04 3108.5  1132 3108.5  C 1119.96 3108.5  1110.5 3099.04  1110.5 3087  C 1110.5 3074.96  1119.96 3065.5  1132 3065.5  Z " stroke-width="1" stroke="#ffffff" fill="none" />
  </g>
</svg>