<?xml version="1.0" encoding="utf-8"?>
<svg version="1.1" xmlns:xlink="http://www.w3.org/1999/xlink" width="8px" height="8px" xmlns="http://www.w3.org/2000/svg">
  <g transform="matrix(1 0 0 1 -275 -1021 )">
    <path d="M 279 1021  C 281.24 1021  283 1022.76  283 1025  C 283 1027.24  281.24 1029  279 1029  C 276.76 1029  275 1027.24  275 1025  C 275 1022.76  276.76 1021  279 1021  Z " fill-rule="nonzero" fill="#2fc25b" stroke="none" />
    <path d="M 279 1021.5  C 280.96 1021.5  282.5 1023.04  282.5 1025  C 282.5 1026.96  280.96 1028.5  279 1028.5  C 277.04 1028.5  275.5 1026.96  275.5 1025  C 275.5 1023.04  277.04 1021.5  279 1021.5  Z " stroke-width="1" stroke="#ffffff" fill="none" />
  </g>
</svg>