<?xml version="1.0" encoding="utf-8"?>
<svg version="1.1" xmlns:xlink="http://www.w3.org/1999/xlink" width="8px" height="8px" xmlns="http://www.w3.org/2000/svg">
  <g transform="matrix(1 0 0 1 -275 -985 )">
    <path d="M 279 985  C 281.24 985  283 986.76  283 989  C 283 991.24  281.24 993  279 993  C 276.76 993  275 991.24  275 989  C 275 986.76  276.76 985  279 985  Z " fill-rule="nonzero" fill="#1890ff" stroke="none" />
    <path d="M 279 985.5  C 280.96 985.5  282.5 987.04  282.5 989  C 282.5 990.96  280.96 992.5  279 992.5  C 277.04 992.5  275.5 990.96  275.5 989  C 275.5 987.04  277.04 985.5  279 985.5  Z " stroke-width="1" stroke="#ffffff" fill="none" />
  </g>
</svg>