<?xml version="1.0" encoding="utf-8"?>
<svg version="1.1" xmlns:xlink="http://www.w3.org/1999/xlink" width="218px" height="218px" xmlns="http://www.w3.org/2000/svg">
  <g transform="matrix(1 0 0 1 -694 -905 )">
    <path d="M 803.500192657761 905.501128625286  C 863.192986055693 905.770555105966  911.5 954.243923727765  911.5 1014  C 911.5 1073.92289535664  862.922895356641 1122.5  803 1122.5  C 794.950137996087 1122.5  786.925797960169 1121.60415288061  779.075088048753 1119.82933709709  L 803.487179540616 1014.11249931202  A 0.5 0.5 0 0 0 803.5 1014 L 803.500192171971 905.501128623093  Z " fill-rule="nonzero" fill="#1890ff" stroke="none" />
    <path d="M 803.500192657761 905.501128625286  C 863.192986055693 905.770555105966  911.5 954.243923727765  911.5 1014  C 911.5 1073.92289535664  862.922895356641 1122.5  803 1122.5  C 794.950137996087 1122.5  786.925797960169 1121.60415288061  779.075088048753 1119.82933709709  L 803.487179540616 1014.11249931202  A 0.5 0.5 0 0 0 803.5 1014 L 803.500192171971 905.501128623093  Z " stroke-width="1" stroke="#ffffff" fill="none" />
  </g>
</svg>