<?xml version="1.0" encoding="utf-8"?>
<svg version="1.1" xmlns:xlink="http://www.w3.org/1999/xlink" width="61px" height="32px" xmlns="http://www.w3.org/2000/svg">
  <defs>
    <mask fill="white" id="clip82">
      <path d="M 61 27.4285714285714  L 61 4.57142857142857  C 61 2.01142857142857  59.3225 0  57.1875 0  L 0 0  L 0 32  L 57.1875 32  C 59.3225 32  61 29.9885714285714  61 27.4285714285714  Z " fill-rule="evenodd" />
    </mask>
  </defs>
  <g transform="matrix(1 0 0 1 -832 -825 )">
    <path d="M 61 27.4285714285714  L 61 4.57142857142857  C 61 2.01142857142857  59.3225 0  57.1875 0  L 0 0  L 0 32  L 57.1875 32  C 59.3225 32  61 29.9885714285714  61 27.4285714285714  Z " fill-rule="nonzero" fill="#ffffff" stroke="none" transform="matrix(1 0 0 1 832 825 )" />
    <path d="M 61 27.4285714285714  L 61 4.57142857142857  C 61 2.01142857142857  59.3225 0  57.1875 0  L 0 0  L 0 32  L 57.1875 32  C 59.3225 32  61 29.9885714285714  61 27.4285714285714  Z " stroke-width="2" stroke="#d9d9d9" fill="none" transform="matrix(1 0 0 1 832 825 )" mask="url(#clip82)" />
  </g>
</svg>