<?xml version="1.0" encoding="utf-8"?>
<svg version="1.1" xmlns:xlink="http://www.w3.org/1999/xlink" width="43px" height="46px" xmlns="http://www.w3.org/2000/svg">
  <g transform="matrix(1 0 0 1 -32 -685 )">
    <path d="M 50.4 685  C 50.4 685  46.4 687.139534883721  46.4 687.139534883721  C 46.4 687.139534883721  32 708  32 708  C 32 708  46.4 728.860465116279  46.4 728.860465116279  C 46.4 728.860465116279  50.4 731  50.4 731  C 50.4 731  55 731  55 731  C 66.2 731  75 722.2  75 711  C 75 711  75 705  75 705  C 75 693.8  66.2 685  55 685  C 55 685  50.4 685  50.4 685  Z " fill-rule="nonzero" fill="#f2f2f2" stroke="none" />
  </g>
</svg>