<?xml version="1.0" encoding="utf-8"?>
<svg version="1.1" xmlns:xlink="http://www.w3.org/1999/xlink" width="50px" height="50px" xmlns="http://www.w3.org/2000/svg">
  <g transform="matrix(1 0 0 1 -162 -211 )">
    <path d="M 12.451171875 3.35286458333333  C 16.2814670138889 1.11762152777777  20.4644097222222 0  25 0  C 29.5355902777778 0  33.7185329861111 1.11762152777777  37.548828125 3.35286458333333  C 41.3791232638889 5.58810763888888  44.4118923611111 8.62087673611111  46.6471354166667 12.451171875  C 48.8823784722222 16.2814670138889  50 20.4644097222222  50 25  C 50 29.5355902777778  48.8823784722222 33.7185329861111  46.6471354166667 37.548828125  C 44.4118923611111 41.3791232638889  41.3791232638889 44.4118923611111  37.548828125 46.6471354166667  C 33.7185329861111 48.8823784722222  29.5355902777778 50  25 50  C 20.4644097222222 50  16.2814670138889 48.8823784722222  12.451171875 46.6471354166667  C 8.62087673611111 44.4118923611111  5.58810763888889 41.3791232638889  3.35286458333333 37.548828125  C 1.11762152777778 33.7185329861111  0 29.5355902777778  0 25  C 0 20.4644097222222  1.11762152777778 16.2814670138889  3.35286458333333 12.451171875  C 5.58810763888889 8.62087673611111  8.62087673611111 5.58810763888888  12.451171875 3.35286458333333  Z M 19.7916666666667 37.20703125  L 37.5 26.7903645833333  C 38.1944444444445 26.3997395833333  38.5416666666667 25.8029513888889  38.5416666666667 25  C 38.5416666666667 24.1970486111111  38.1944444444445 23.6002604166667  37.5 23.2096354166667  L 19.7916666666667 12.79296875  C 19.1189236111111 12.3806423611111  18.4244791666667 12.3697916666667  17.7083333333333 12.7604166666667  C 17.0138888888889 13.1727430555556  16.6666666666667 13.7803819444444  17 14.5833333333333  L 17 35.4166666666667  C 16.6666666666667 36.2196180555556  17.0138888888889 36.8272569444444  17.7083333333333 37.2395833333333  C 18.0555555555556 37.4131944444444  18.4027777777778 37.5  18.75 37.5  C 19.1189236111111 37.5  19.4661458333333 37.40234375  19.7916666666667 37.20703125  Z " fill-rule="nonzero" fill="#000000" stroke="none" transform="matrix(1 0 0 1 162 211 )" />
  </g>
</svg>