<?xml version="1.0" encoding="utf-8"?>
<svg version="1.1" xmlns:xlink="http://www.w3.org/1999/xlink" width="50px" height="50px" xmlns="http://www.w3.org/2000/svg">
  <g transform="matrix(1 0 0 1 -56 -10 )">
    <path d="M 49.9467707594038 1.89985795454545  C 50.0295718003312 2.38517992424242  49.9526851194701 2.85274621212121  49.7161107168204 3.30255681818182  L 27.0049680624556 48.7571022727273  C 26.6027915779513 49.5857007575758  25.9285545303998 50  24.9822569198013 50  C 24.8639697184765 50  24.6865389164892 49.9763257575758  24.4499645138396 49.9289772727273  C 23.9295008280104 49.8106060606061  23.5095812633073 49.5442708333333  23.1902058197303 49.1299715909091  C 22.8708303761533 48.7156723484848  22.7111426543648 48.2481060606061  23 47.7272727272727  L 23 27  L 2.27111426543648 27  C 1.75065057960729 27.2727272727273  1.28341613437426 27.1129261363636  0.869410929737403 26.7933238636364  C 0.455405725100544 26.4737215909091  0.189259522119707 26.0535037878788  0.07097232079489 25.5326704545455  C -0.0473148805299267 25.0118371212121  0 24.514678030303  0.21291696238467 24.0411931818182  C 0.42583392476934 23.5677083333333  0.768866808611308 23.2125946969697  1.24201561391057 22.9758522727273  L 46.6643009226402 0.248579545454547  C 46.9718476460847 0.0828598484848453  47.3148805299267 0  47.6933995741661 0  C 48.3321504613201 0  48.8644428672818 0.224905303030298  49.2902767920511 0.674715909090912  C 49.6451383960256 1.0061553030303  49.8639697184765 1.41453598484848  49.9467707594038 1.89985795454545  Z " fill-rule="nonzero" fill="#000000" stroke="none" transform="matrix(1 0 0 1 56 10 )" />
  </g>
</svg>