<?xml version="1.0" encoding="utf-8"?>
<svg version="1.1" xmlns:xlink="http://www.w3.org/1999/xlink" width="18px" height="18px" xmlns="http://www.w3.org/2000/svg">
  <defs>
    <mask fill="white" id="clip4139">
      <path d="M 0 18  L 0 7.33333333333212  L 0 0  L 18 0  L 18 9.33333333333212  L 18 10.6666666666679  L 18 18  L 0 18  Z " fill-rule="evenodd" />
    </mask>
  </defs>
  <g transform="matrix(1 0 0 1 -268 -62 )">
    <path d="M 0 18  L 0 7.33333333333212  L 0 0  L 18 0  L 18 9.33333333333212  L 18 10.6666666666679  L 18 18  L 0 18  Z " fill-rule="nonzero" fill="#ffffff" stroke="none" transform="matrix(1 0 0 1 268 62 )" />
    <path d="M 0 18  L 0 7.33333333333212  L 0 0  L 18 0  L 18 9.33333333333212  L 18 10.6666666666679  L 18 18  L 0 18  Z " stroke-width="2" stroke="#797979" fill="none" transform="matrix(1 0 0 1 268 62 )" mask="url(#clip4139)" />
  </g>
</svg>