<?xml version="1.0" encoding="utf-8"?>
<svg version="1.1" xmlns:xlink="http://www.w3.org/1999/xlink" width="313px" height="105px" xmlns="http://www.w3.org/2000/svg">
  <g transform="matrix(1 0 0 1 -26 -346 )">
    <path d="M 297.784722222222 105  L 163.020833333334 105  L 84.9362351458221 105  L 10.868055555556 105  C 7.92462384259398 105  5.37742332176145 104.247056159416  3.22645399305542 102.74116847827  C 1.07548466435 101.235280797101  0 99.4519927536188  0 97.3913043478349  C 0 95.3306159420281  1.07548466435 93.5473278985462  3.22645399305542 92.0414402174001  L 79.3028428819446 38.7805706521765  C 81.45381221065 37.2746829710191  84.0010127314837 36.5217391304349  86.9444444444434 36.5217391304349  C 89.8878761574054 36.5217391304349  92.4350766782385 37.2746829710191  94.5860460069446 38.7805706521765  L 115.460720452868 53.3949015164379  L 180.579535590278 3.46354166666554  C 183.590892650469 1.15451388888448  187.156973379636 0  191.277777777778 0  C 195.39858217592 0  198.964662905087 1.15451388888448  201.976019965278 3.46354166666554  L 308.482964409722 85.1302083333345  C 311.494321469914 87.439236111104  313 90.173611111108  313 93.3333333333347  C 313 96.4930555555502  311.494321469914 99.2274305555539  308.482964409722 101.536458333334  C 305.471607349531 103.845486111104  301.905526620364 105  297.784722222222 105  Z " fill-rule="nonzero" fill="#f2f2f2" stroke="none" transform="matrix(1 0 0 1 26 346 )" />
  </g>
</svg>