<?xml version="1.0" encoding="utf-8"?>
<svg version="1.1" xmlns:xlink="http://www.w3.org/1999/xlink" width="19px" height="21px" xmlns="http://www.w3.org/2000/svg">
  <g transform="matrix(1 0 0 1 -322 -178 )">
    <path d="M 19 10.5  C 19 4.71001209375036  14.7385604866068 0  9.5 0  C 4.2620961160713 0  0 4.71001209375036  0 10.5  C 0 16.2899879062496  4.26143951339318 21  9.5 21  C 14.7379038839287 21  19 16.2899879062496  19 10.5  Z M 10.461545108259 10.5029834765633  L 13.3753259029017 13.7340007968751  C 13.6399696718751 14.0279935312496  13.6392765959821 14.5020024140631  13.3739762455358 14.7945034218743  C 13.2416726082589 14.9400080624998  13.0686236618305 15.0135062343747  12.8949181339287 15.0135062343747  C 12.720519530134 15.0135062343747  12.5468140022322 14.940008039062  12.4144738705357 14.7930116718752  L 9.49660760937484 11.5582448437499  L 6.56925720982149 14.7592662187497  C 6.4369535725446 14.903279109375  6.26456122879472 14.9760112734367  6.09220535825882 14.9760112734367  C 5.91715015178552 14.9760112734367  5.74275156919641 14.9017470703126  5.60975483482134 14.7532589531257  C 5.34646072321425 14.4585001875001  5.3485034564731 13.9844913046877  5.61518997991057 13.6927563281246  L 8.53914796763354 10.4962504921875  L 5.62602377566982 7.26599917968706  C 5.36138000669641 6.9727321406247  5.36207308258938 6.49799756250009  5.6273734330357 6.20549655468785  C 5.89271027790164 5.9122295156255  6.32153896316991 5.91376157812479  6.58687580803542 6.20698828125014  L 9.50404899330372 9.44098907812527  L 12.4313993928571 6.2400080156247  C 12.6973928191964 5.94827303906259  13.1276076562501 5.95125649218717  13.3909017678572 6.24601528124963  C 13.6548524609376 6.54077404687428  13.652153146205 7.01550862499985  13.3854666227676 7.30651790624979  L 10.461545108259 10.5029834765633  Z " fill-rule="nonzero" fill="#999999" stroke="none" transform="matrix(1 0 0 1 322 178 )" />
  </g>
</svg>