<?xml version="1.0" encoding="utf-8"?>
<svg version="1.1" xmlns:xlink="http://www.w3.org/1999/xlink" width="17px" height="23px" xmlns="http://www.w3.org/2000/svg">
  <defs>
    <mask fill="white" id="clip125">
      <path d="M 8.41949585496968 22.4667057823372  L 15.0681144128475 13.7921091442386  C 16.2752321692815 12.3353647884051  17 10.4699943275436  17 8.43660773487863  C 17 3.77719794286077  13.1944203733001 0  8.5 0  C 3.80557962669991 0  0 3.77719794286077  0 8.43660773487863  C 0 10.5553894236682  0.786921514740243 12.4917464747523  2.06511655123722 13.973762458686  L 8.41949585496968 22.4667057823372  Z " fill-rule="evenodd" />
    </mask>
  </defs>
  <g transform="matrix(1 0 0 1 -125 -505 )">
    <path d="M 8.41949585496968 22.4667057823372  L 15.0681144128475 13.7921091442386  C 16.2752321692815 12.3353647884051  17 10.4699943275436  17 8.43660773487863  C 17 3.77719794286077  13.1944203733001 0  8.5 0  C 3.80557962669991 0  0 3.77719794286077  0 8.43660773487863  C 0 10.5553894236682  0.786921514740243 12.4917464747523  2.06511655123722 13.973762458686  L 8.41949585496968 22.4667057823372  Z " fill-rule="nonzero" fill="#ffffff" stroke="none" transform="matrix(1 0 0 1 125 505 )" />
    <path d="M 8.41949585496968 22.4667057823372  L 15.0681144128475 13.7921091442386  C 16.2752321692815 12.3353647884051  17 10.4699943275436  17 8.43660773487863  C 17 3.77719794286077  13.1944203733001 0  8.5 0  C 3.80557962669991 0  0 3.77719794286077  0 8.43660773487863  C 0 10.5553894236682  0.786921514740243 12.4917464747523  2.06511655123722 13.973762458686  L 8.41949585496968 22.4667057823372  Z " stroke-width="2" stroke="#242424" fill="none" transform="matrix(1 0 0 1 125 505 )" mask="url(#clip125)" />
  </g>
</svg>