<?xml version="1.0" encoding="utf-8"?>
<svg version="1.1" xmlns:xlink="http://www.w3.org/1999/xlink" width="16px" height="16px" xmlns="http://www.w3.org/2000/svg">
  <g transform="matrix(1 0 0 1 -477 -190 )">
    <path d="M 485 191  C 488.92 191  492 194.08  492 198  C 492 201.92  488.92 205  485 205  C 481.08 205  478 201.92  478 198  C 478 194.08  481.08 191  485 191  Z " fill-rule="nonzero" fill="#ffffff" stroke="none" />
    <path d="M 485 191  C 488.92 191  492 194.08  492 198  C 492 201.92  488.92 205  485 205  C 481.08 205  478 201.92  478 198  C 478 194.08  481.08 191  485 191  Z " stroke-width="2" stroke="#000000" fill="none" />
  </g>
</svg>