<?xml version="1.0" encoding="utf-8"?>
<svg version="1.1" xmlns:xlink="http://www.w3.org/1999/xlink" width="18px" height="12px" xmlns="http://www.w3.org/2000/svg">
  <g transform="matrix(1 0 0 1 -1681 -147 )">
    <path d="M 1.66666666666606 11.3333333333333  C 1.1143819168351 11.3333333333333  0.66666666666606 10.8856180831641  0.66666666666606 10.3333333333333  C 0.66666666666606 10.3333333333333  0.66666666666606 8.3333333333333  0.66666666666606 8.3333333333333  C 0.66666666666606 7.7810485835025  1.1143819168351 7.3333333333333  1.66666666666606 7.3333333333333  C 1.66666666666606 7.3333333333333  2.66666666666606 7.3333333333333  2.66666666666606 7.3333333333333  C 3.21895141649702 7.3333333333333  3.66666666666606 7.7810485835025  3.66666666666606 8.3333333333333  C 3.66666666666606 8.3333333333333  3.66666666666606 10.3333333333333  3.66666666666606 10.3333333333333  C 3.66666666666606 10.8856180831641  3.21895141649702 11.3333333333333  2.66666666666606 11.3333333333333  C 2.66666666666606 11.3333333333333  1.66666666666606 11.3333333333333  1.66666666666606 11.3333333333333  Z M 7.33333333333258 11.3333333333333  C 7.33333333333258 11.3333333333333  6.33333333333258 11.3333333333333  6.33333333333258 11.3333333333333  C 5.78104858350162 11.3333333333333  5.33333333333258 10.8856180831641  5.33333333333258 10.3333333333333  C 5.33333333333258 10.3333333333333  5.33333333333258 6.3333333333333  5.33333333333258 6.3333333333333  C 5.33333333333258 5.7810485835025  5.78104858350162 5.3333333333333  6.33333333333258 5.3333333333333  C 6.33333333333258 5.3333333333333  7.33333333333258 5.3333333333333  7.33333333333258 5.3333333333333  C 7.88561808316354 5.3333333333333  8.33333333333258 5.7810485835025  8.33333333333258 6.3333333333333  C 8.33333333333258 6.3333333333333  8.33333333333258 10.3333333333333  8.33333333333258 10.3333333333333  C 8.33333333333258 10.8856180831641  7.88561808316354 11.3333333333333  7.33333333333258 11.3333333333333  Z M 10.9999999999995 11.3333333333333  C 10.4477152501686 11.3333333333333  9.99999999999955 10.8856180831641  9.99999999999955 10.3333333333333  C 9.99999999999955 10.3333333333333  9.99999999999955 3.99999999999996  9.99999999999955 3.99999999999996  C 9.99999999999955 3.44771525016916  10.4477152501686 2.99999999999996  10.9999999999995 2.99999999999996  C 10.9999999999995 2.99999999999996  11.9999999999995 2.99999999999996  11.9999999999995 2.99999999999996  C 12.5522847498305 2.99999999999996  12.9999999999995 3.44771525016916  12.9999999999995 3.99999999999996  C 12.9999999999995 3.99999999999996  12.9999999999995 10.3333333333333  12.9999999999995 10.3333333333333  C 12.9999999999995 10.8856180831641  12.5522847498305 11.3333333333333  11.9999999999995 11.3333333333333  C 11.9999999999995 11.3333333333333  10.9999999999995 11.3333333333333  10.9999999999995 11.3333333333333  Z M 14.6666666666661 1.66666666666663  C 14.6666666666661 1.11438191683584  15.1143819168351 0.666666666666629  15.6666666666661 0.666666666666629  C 15.6666666666661 0.666666666666629  16.6666666666661 0.666666666666629  16.6666666666661 0.666666666666629  C 17.218951416497 0.666666666666629  17.6666666666661 1.11438191683584  17.6666666666661 1.66666666666663  C 17.6666666666661 1.66666666666663  17.6666666666661 10.3333333333333  17.6666666666661 10.3333333333333  C 17.6666666666661 10.8856180831641  17.218951416497 11.3333333333333  16.6666666666661 11.3333333333333  C 16.6666666666661 11.3333333333333  15.6666666666661 11.3333333333333  15.6666666666661 11.3333333333333  C 15.1143819168351 11.3333333333333  14.6666666666661 10.8856180831641  14.6666666666661 10.3333333333333  C 14.6666666666661 10.3333333333333  14.6666666666661 1.66666666666663  14.6666666666661 1.66666666666663  Z " fill-rule="nonzero" fill="#000000" stroke="none" transform="matrix(1 0 0 1 1681 147 )" />
  </g>
</svg>