<?xml version="1.0" encoding="utf-8"?>
<svg version="1.1" xmlns:xlink="http://www.w3.org/1999/xlink" width="16px" height="12px" xmlns="http://www.w3.org/2000/svg">
  <g transform="matrix(1 0 0 1 -1703 -147 )">
    <path d="M 1.9433333333327 4.98300000000005  C 2.06236176617767 5.10290167942232  2.25580778711492 5.10438972573724  2.3766666666661 4.98633333333341  C 3.98281870325218 3.45943443547139  6.11422309038653 2.60799440959352  8.33033333333242 2.60800000000005  C 10.54622626943 2.60809708382121  12.6773858512774 3.45953465683658  14.2833333333328 4.98633333333339  C 14.4042654033397 5.1042079177699  14.5975622551464 5.10272101890985  14.7166666666658 4.98300000000006  C 14.7166666666658 4.98300000000006  15.8726666666662 3.8163333333334  15.8726666666662 3.8163333333334  C 15.9329747249812 3.75561116810887  15.9665987244925 3.67335948188975  15.9660982547302 3.58777915250651  C 15.9655977849675 3.50219882312328  15.9310141100345 3.42034601219331  15.8699999999994 3.36033333333337  C 11.6549021687647 -0.679214172401117  5.0050978312338 -0.67921417240111  0.789999999999054 3.36033333333337  C 0.72894140232529 3.42030147481361  0.694297497704611 3.50212942636598  0.693734468431558 3.58770987588886  C 0.69317143915805 3.67329032541172  0.726735707982243 3.75556701494728  0.786999999999352 3.81633333333339  C 0.786999999999352 3.81633333333339  1.9433333333327 4.98300000000005  1.9433333333327 4.98300000000005  Z M 4.60533333333251 7.66766666666675  C 4.72432200879439 7.78679944952107  4.91660343203284 7.78931389890189  5.0386666666659 7.67333333333342  C 5.94053891817293 6.85666449538144  7.11364878309223 6.4041707763456  8.33033333333287 6.40366666666671  C 9.54782262342815 6.4035920670862  10.7218645387661 6.85612451553015  11.6243333333327 7.6733333333334  C 11.7463965679658 7.78931389890187  11.9386779912043 7.78679944952108  12.0576666666661 7.66766666666677  C 12.0576666666661 7.66766666666677  13.2123333333325 6.5010000000001  13.2123333333325 6.5010000000001  C 13.2731408408422 6.43980501852273  13.3068802563571 6.35678869655908  13.3060031999335 6.27052393260789  C 13.3051261435098 6.18425916865669  13.2697058180988 6.10194599583826  13.2076666666662 6.04200000000012  C 10.4594678913813 3.48561767109636  6.20353210861731 3.48561767109635  3.45533333333287 6.0420000000001  C 3.39325557325901 6.1019452675759  3.35783746814013 6.18429968370975  3.35702279543193 6.27059232365584  C 3.35620812272373 6.35688496360193  3.39006506808482 6.43989339255803  3.45099999999957 6.50100000000008  C 3.45099999999957 6.50100000000008  4.60533333333251 7.66766666666675  4.60533333333251 7.66766666666675  Z M 8.33033333333242 11.2962443103313  C 8.41362425554553 11.2962443103313  8.49344986062169 11.2629056648182  8.55199999999923 11.2036666666667  C 8.55199999999923 11.2036666666667  10.5493333333325 9.18800000000005  10.5493333333325 9.18800000000005  C 10.6110866045037 9.12739397725755  10.64509452219 9.04399188936584  10.643327788559 8.95748503908611  C 10.6415610549284 8.87097818880637  10.6041762653731 8.78903415766356  10.5399999999991 8.73100000000007  C 9.26442836009574 7.65211615097994  7.3962383065691 7.65211615097994  6.12066666666578 8.73100000000007  C 6.05644587086317 8.78898749616491  6.01899987144907 8.87090573553294  6.01717003079148 8.95741303007031  C 6.01534019013388 9.04392032460769  6.04928870394087 9.12734873238084  6.11099999999942 9.18800000000007  C 6.11099999999942 9.18800000000007  8.10866666666607 11.2036666666667  8.10866666666607 11.2036666666667  C 8.16721680604314 11.2629056648182  8.24704241111931 11.2962443103313  8.33033333333242 11.2962443103313  Z " fill-rule="nonzero" fill="#000000" stroke="none" transform="matrix(1 0 0 1 1703 147 )" />
  </g>
</svg>