<?xml version="1.0" encoding="utf-8"?>
<svg version="1.1" xmlns:xlink="http://www.w3.org/1999/xlink" width="33px" height="33px" xmlns="http://www.w3.org/2000/svg">
  <g transform="matrix(1 0 0 1 -48 -688 )">
    <path d="M 64.5 688  C 73.74 688  81 695.26  81 704.5  C 81 713.74  73.74 721  64.5 721  C 55.26 721  48 713.74  48 704.5  C 48 695.26  55.26 688  64.5 688  Z " fill-rule="nonzero" fill="#ffffff" stroke="none" />
    <path d="M 64.5 688.5  C 73.46 688.5  80.5 695.54  80.5 704.5  C 80.5 713.46  73.46 720.5  64.5 720.5  C 55.54 720.5  48.5 713.46  48.5 704.5  C 48.5 695.54  55.54 688.5  64.5 688.5  Z " stroke-width="1" stroke="#797979" fill="none" />
  </g>
</svg>