<?xml version="1.0" encoding="utf-8"?>
<svg version="1.1" xmlns:xlink="http://www.w3.org/1999/xlink" width="33px" height="33px" xmlns="http://www.w3.org/2000/svg">
  <g transform="matrix(1 0 0 1 -48 -721 )">
    <path d="M 64.5 721  C 73.74 721  81 728.26  81 737.5  C 81 746.74  73.74 754  64.5 754  C 55.26 754  48 746.74  48 737.5  C 48 728.26  55.26 721  64.5 721  Z " fill-rule="nonzero" fill="#ffffff" stroke="none" />
    <path d="M 64.5 721.5  C 73.46 721.5  80.5 728.54  80.5 737.5  C 80.5 746.46  73.46 753.5  64.5 753.5  C 55.54 753.5  48.5 746.46  48.5 737.5  C 48.5 728.54  55.54 721.5  64.5 721.5  Z " stroke-width="1" stroke="#797979" fill="none" />
  </g>
</svg>