<?xml version="1.0" encoding="utf-8"?>
<svg version="1.1" xmlns:xlink="http://www.w3.org/1999/xlink" width="51px" height="47px" xmlns="http://www.w3.org/2000/svg">
  <g transform="matrix(1 0 0 1 -290 -574 )">
    <path d="M 315.5 574  C 329.78 574  341 584.34  341 597.5  C 341 610.66  329.78 621  315.5 621  C 301.22 621  290 610.66  290 597.5  C 290 584.34  301.22 574  315.5 574  Z " fill-rule="nonzero" fill="#ffffff" stroke="none" />
    <path d="M 315.5 574.5  C 329.5 574.5  340.5 584.62  340.5 597.5  C 340.5 610.38  329.5 620.5  315.5 620.5  C 301.5 620.5  290.5 610.38  290.5 597.5  C 290.5 584.62  301.5 574.5  315.5 574.5  Z " stroke-width="1" stroke="#797979" fill="none" />
  </g>
</svg>