<?xml version="1.0" encoding="utf-8"?>
<svg version="1.1" xmlns:xlink="http://www.w3.org/1999/xlink" width="33px" height="33px" xmlns="http://www.w3.org/2000/svg">
  <g transform="matrix(1 0 0 1 -48 -718 )">
    <path d="M 64.5 718  C 73.74 718  81 725.26  81 734.5  C 81 743.74  73.74 751  64.5 751  C 55.26 751  48 743.74  48 734.5  C 48 725.26  55.26 718  64.5 718  Z " fill-rule="nonzero" fill="#ffffff" stroke="none" />
    <path d="M 64.5 718.5  C 73.46 718.5  80.5 725.54  80.5 734.5  C 80.5 743.46  73.46 750.5  64.5 750.5  C 55.54 750.5  48.5 743.46  48.5 734.5  C 48.5 725.54  55.54 718.5  64.5 718.5  Z " stroke-width="1" stroke="#797979" fill="none" />
  </g>
</svg>