<?xml version="1.0" encoding="utf-8"?>
<svg version="1.1" xmlns:xlink="http://www.w3.org/1999/xlink" width="38px" height="39px" xmlns="http://www.w3.org/2000/svg">
  <g transform="matrix(1 0 0 1 -65 -145 )">
    <path d="M 84 145  C 94.64 145  103 153.58  103 164.5  C 103 175.42  94.64 184  84 184  C 73.36 184  65 175.42  65 164.5  C 65 153.58  73.36 145  84 145  Z " fill-rule="nonzero" fill="#ffffff" stroke="none" />
    <path d="M 84 145.5  C 94.36 145.5  102.5 153.86  102.5 164.5  C 102.5 175.14  94.36 183.5  84 183.5  C 73.64 183.5  65.5 175.14  65.5 164.5  C 65.5 153.86  73.64 145.5  84 145.5  Z " stroke-width="1" stroke="#797979" fill="none" />
  </g>
</svg>