<?xml version="1.0" encoding="utf-8"?>
<svg version="1.1" xmlns:xlink="http://www.w3.org/1999/xlink" width="50px" height="48px" xmlns="http://www.w3.org/2000/svg">
  <g transform="matrix(1 0 0 1 -309 -193 )">
    <path d="M 36.328125 42.1323251417769  L 34.1646634615385 29.3988657844991  L 43.359375 20.4158790170132  L 30.6790865384615 18.5406427221172  L 25 6.9867674858223  L 19.3209134615385 18.5406427221172  L 6.640625 20.4158790170132  L 15.8353365384615 29.3988657844991  L 13.6418269230769 42.1323251417769  L 25 36.1134215500945  L 36.328125 42.1323251417769  Z M 48.3173076923077 17.2098298676749  C 49.4391025641026 17.3913043478261  50 17.8550724637681  50 18.6011342155009  C 50 19.0447385003151  49.7395833333333 19.528670447385  49.21875 20.0529300567108  L 38.3112980769231 30.7599243856333  L 40.8954326923077 45.882797731569  C 40.9154647435897 46.0239445494644  40.9254807692308 46.2255828607435  40.9254807692308 46.4877126654064  C 40.9254807692308 47.4959042218021  40.5148237179487 48  39.6935096153846 48  C 39.3129006410256 48  38.9122596153846 47.8790170132325  38.4915865384615 47.6370510396975  L 25 40.4990548204159  L 11.5084134615385 47.6370510396975  C 11.0677083333333 47.8790170132325  10.6670673076923 48  10.3064903846154 48  C 9.88581730769231 48  9.5703125 47.8538122243226  9.35997596153846 47.5614366729679  C 9.14963942307692 47.2690611216131  9.04447115384615 46.9111531190926  9.04447115384615 46.4877126654064  C 9.04447115384615 46.3667296786389  9.06450320512821 46.1650913673598  9.10456730769231 45.882797731569  L 11.6887019230769 30.7599243856333  L 0.751201923076923 20.0529300567108  C 0.250400641025641 19.5085066162571  0 19.0245746691871  0 18.6011342155009  C 0 17.8550724637681  0.560897435897436 17.3913043478261  1.68269230769231 17.2098298676749  L 16.7668269230769 15.0018903591682  L 23.5276442307692 1.24007561436673  C 23.9082532051282 0.413358538122241  24.3990384615385 0  25 0  C 25.6009615384615 0  26.0917467948718 0.413358538122241  26.4723557692308 1.24007561436673  L 33.2331730769231 15.0018903591682  L 48.3173076923077 17.2098298676749  Z " fill-rule="nonzero" fill="#ffffff" stroke="none" transform="matrix(1 0 0 1 309 193 )" />
  </g>
</svg>