<?xml version="1.0" encoding="utf-8"?>
<svg version="1.1" xmlns:xlink="http://www.w3.org/1999/xlink" width="33px" height="33px" xmlns="http://www.w3.org/2000/svg">
  <g transform="matrix(1 0 0 1 -48 -689 )">
    <path d="M 64.5 689  C 73.74 689  81 696.26  81 705.5  C 81 714.74  73.74 722  64.5 722  C 55.26 722  48 714.74  48 705.5  C 48 696.26  55.26 689  64.5 689  Z " fill-rule="nonzero" fill="#ffffff" stroke="none" />
    <path d="M 64.5 689.5  C 73.46 689.5  80.5 696.54  80.5 705.5  C 80.5 714.46  73.46 721.5  64.5 721.5  C 55.54 721.5  48.5 714.46  48.5 705.5  C 48.5 696.54  55.54 689.5  64.5 689.5  Z " stroke-width="1" stroke="#797979" fill="none" />
  </g>
</svg>