<?xml version="1.0" encoding="utf-8"?>
<svg version="1.1" xmlns:xlink="http://www.w3.org/1999/xlink" width="33px" height="33px" xmlns="http://www.w3.org/2000/svg">
  <g transform="matrix(1 0 0 1 -48 -690 )">
    <path d="M 64.5 690  C 73.74 690  81 697.26  81 706.5  C 81 715.74  73.74 723  64.5 723  C 55.26 723  48 715.74  48 706.5  C 48 697.26  55.26 690  64.5 690  Z " fill-rule="nonzero" fill="#ffffff" stroke="none" />
    <path d="M 64.5 690.5  C 73.46 690.5  80.5 697.54  80.5 706.5  C 80.5 715.46  73.46 722.5  64.5 722.5  C 55.54 722.5  48.5 715.46  48.5 706.5  C 48.5 697.54  55.54 690.5  64.5 690.5  Z " stroke-width="1" stroke="#797979" fill="none" />
  </g>
</svg>