<?xml version="1.0" encoding="utf-8"?>
<svg version="1.1" xmlns:xlink="http://www.w3.org/1999/xlink" width="100px" height="30px" xmlns="http://www.w3.org/2000/svg">
  <g>
    <path d="M 1 3  A 2 2 0 0 1 3 1 L 97 1  A 2 2 0 0 1 99 3 L 99 27  A 2 2 0 0 1 97 29 L 3 29  A 2 2 0 0 1 1 27 L 1 3  Z " fill-rule="nonzero" fill="#ffffff" stroke="none" />
    <path d="M 0.5 3  A 2.5 2.5 0 0 1 3 0.5 L 97 0.5  A 2.5 2.5 0 0 1 99.5 3 L 99.5 27  A 2.5 2.5 0 0 1 97 29.5 L 3 29.5  A 2.5 2.5 0 0 1 0.5 27 L 0.5 3  Z " stroke-width="1" stroke-dasharray="9,4" stroke="#0079fe" fill="none" stroke-dashoffset="0.5" />
  </g>
</svg>