<?xml version="1.0" encoding="utf-8"?>
<svg version="1.1" xmlns:xlink="http://www.w3.org/1999/xlink" width="86px" height="4px" preserveAspectRatio="xMinYMid meet" viewBox="504 359  86 2" xmlns="http://www.w3.org/2000/svg">
  <g transform="matrix(0 -1 1 0 187 907 )">
    <path d="M 546.5 320  A 3 3 0 0 0 543.5 323 A 3 3 0 0 0 546.5 326 A 3 3 0 0 0 549.5 323 A 3 3 0 0 0 546.5 320 Z M 546.5 321  A 2 2 0 0 1 548.5 323 A 2 2 0 0 1 546.5 325 A 2 2 0 0 1 544.5 323 A 2 2 0 0 1 546.5 321 Z " fill-rule="nonzero" fill="#7f7f7f" stroke="none" transform="matrix(0.999997918822363 0.00204018404627006 -0.00204018404627006 0.999997918822363 0.735603620235906 -1.1142113573373 )" />
    <path d="M 546.5 325  L 546.5 400  " stroke-width="1" stroke-dasharray="3,1" stroke="#7f7f7f" fill="none" transform="matrix(0.999997918822363 0.00204018404627006 -0.00204018404627006 0.999997918822363 0.735603620235906 -1.1142113573373 )" />
  </g>
</svg>