<?xml version="1.0" encoding="utf-8"?>
<svg version="1.1" xmlns:xlink="http://www.w3.org/1999/xlink" width="40px" height="40px" xmlns="http://www.w3.org/2000/svg">
  <g transform="matrix(1 0 0 1 -55 -2238 )">
    <path d="M 75 2238  C 86.2 2238  95 2246.8  95 2258  C 95 2269.2  86.2 2278  75 2278  C 63.8 2278  55 2269.2  55 2258  C 55 2246.8  63.8 2238  75 2238  Z " fill-rule="nonzero" fill="#ffffff" stroke="none" />
    <path d="M 75 2238.5  C 85.92 2238.5  94.5 2247.08  94.5 2258  C 94.5 2268.92  85.92 2277.5  75 2277.5  C 64.08 2277.5  55.5 2268.92  55.5 2258  C 55.5 2247.08  64.08 2238.5  75 2238.5  Z " stroke-width="1" stroke="#e6e6e6" fill="none" />
  </g>
</svg>