<?xml version="1.0" encoding="utf-8"?>
<svg version="1.1" xmlns:xlink="http://www.w3.org/1999/xlink" width="21px" height="20px" xmlns="http://www.w3.org/2000/svg">
  <g transform="matrix(1 0 0 1 0 -73 )">
    <path d="M 8.50026153725261 80.4098300562505  L 10.5 74.5483422986755  L 12.4997384627474 80.4098300562505  L 18.8850041953894 80.4098300562505  L 13.719215704082 83.9842729415986  L 15.7088004263221 89.8159987944117  L 10.5 86.2117940043018  L 5.29119957367788 89.8159987944117  L 7.28078429591798 83.9842729415986  L 2.11499580461058 80.4098300562505  L 8.50026153725261 80.4098300562505  Z " fill-rule="nonzero" fill="#d9001b" stroke="none" />
    <path d="M 8.14260312295718 79.9098300562505  L 10.5 73  L 12.8573968770428 79.9098300562505  L 20.4860934210991 79.9098300562505  L 14.3143482720281 84.1803398874989  L 16.671745149071 91.0901699437495  L 10.5 86.8196601125011  L 4.32825485092903 91.0901699437495  L 6.68565172797185 84.1803398874989  L 0.513906578900887 79.9098300562505  L 8.14260312295718 79.9098300562505  Z M 10.5 76.096684597351  L 8.85791995154805 80.9098300562505  L 3.71608503032028 80.9098300562505  L 7.87591686386411 83.7882059956982  L 6.25414429642672 88.541827645074  L 10.5 85.6039278961024  L 14.7458557035733 88.541827645074  L 13.1240831361359 83.7882059956982  L 17.2839149696797 80.9098300562505  L 12.142080048452 80.9098300562505  L 10.5 76.096684597351  Z " fill-rule="nonzero" fill="#797979" stroke="none" />
  </g>
</svg>