<?xml version="1.0" encoding="utf-8"?>
<svg version="1.1" xmlns:xlink="http://www.w3.org/1999/xlink" width="315px" height="87px" xmlns="http://www.w3.org/2000/svg">
  <g transform="matrix(1 0 0 1 -31 -137 )">
    <path d="M 188.5 139  C 275.58 139  344 157.26  344 180.5  C 344 203.74  275.58 222  188.5 222  C 101.42 222  33 203.74  33 180.5  C 33 157.26  101.42 139  188.5 139  Z " fill-rule="nonzero" fill="#282828" stroke="none" />
    <path d="M 188.5 138.5  C 275.86 138.5  344.5 156.98  344.5 180.5  C 344.5 204.02  275.86 222.5  188.5 222.5  C 101.14 222.5  32.5 204.02  32.5 180.5  C 32.5 156.98  101.14 138.5  188.5 138.5  Z " stroke-width="3" stroke="#cf9154" fill="none" />
  </g>
</svg>