<?xml version="1.0" encoding="utf-8"?>
<svg version="1.1" xmlns:xlink="http://www.w3.org/1999/xlink" width="25px" height="17px" xmlns="http://www.w3.org/2000/svg">
  <g transform="matrix(1 0 0 1 -42 -24 )">
    <path d="M 23.7847222222222 17  L 13.0208333333333 17  L 6.78404434072066 17  L 0.868055555555641 17  C 0.632957175926037 17  0.429506655092767 16.8780948067626  0.257703993055545 16.6342844202913  C 0.0859013310183223 16.3904740338164  0 16.1017512077288  0 15.7681159420304  C 0 15.4344806763284  0.0859013310183223 15.1457578502408  0.257703993055545 14.9019474637695  L 6.33409288194445 6.27875905797142  C 6.50589554398168 6.03494867149835  6.70934606481499 5.91304347826091  6.94444444444436 5.91304347826091  C 7.17954282407387 5.91304347826091  7.38299334490723 6.03494867149835  7.55479600694445 6.27875905797142  L 9.22210227259332 8.64488881694709  L 14.4232855902778 0.560763888888682  C 14.6638093171301 0.186921296295608  14.9486400462967 0  15.2777777777778 0  C 15.6069155092588 0  15.8917462384255 0.186921296295608  16.1322699652778 0.560763888888682  L 24.6392144097222 13.7829861111113  C 24.8797381365746 14.1568287037026  25 14.5995370370365  25 15.1111111111113  C 25 15.6226851851843  24.8797381365746 16.0653935185182  24.6392144097222 16.4392361111113  C 24.3986906828699 16.8130787037026  24.1138599537032 17  23.7847222222222 17  Z " fill-rule="nonzero" fill="#cccccc" stroke="none" transform="matrix(1 0 0 1 42 24 )" />
  </g>
</svg>