<?xml version="1.0" encoding="utf-8"?>
<svg version="1.1" xmlns:xlink="http://www.w3.org/1999/xlink" width="20px" height="20px" xmlns="http://www.w3.org/2000/svg">
  <g transform="matrix(1 0 0 1 10 -83 )">
    <path d="M 0 83  C 5.6 83  10 87.4  10 93  C 10 98.6  5.6 103  0 103  C -5.6 103  -10 98.6  -10 93  C -10 87.4  -5.6 83  0 83  Z " fill-rule="nonzero" fill="#ffffff" stroke="none" />
    <path d="M 0 83.5  C 5.32 83.5  9.5 87.68  9.5 93  C 9.5 98.32  5.32 102.5  0 102.5  C -5.32 102.5  -9.5 98.32  -9.5 93  C -9.5 87.68  -5.32 83.5  0 83.5  Z " stroke-width="1" stroke="#eaeaea" fill="none" />
  </g>
</svg>