<?xml version="1.0" encoding="utf-8"?>
<svg version="1.1" xmlns:xlink="http://www.w3.org/1999/xlink" width="40px" height="40px" xmlns="http://www.w3.org/2000/svg">
  <g transform="matrix(1 0 0 1 -52 -1910 )">
    <path d="M 72 1910  C 83.2 1910  92 1918.8  92 1930  C 92 1941.2  83.2 1950  72 1950  C 60.8 1950  52 1941.2  52 1930  C 52 1918.8  60.8 1910  72 1910  Z " fill-rule="nonzero" fill="#ffffff" stroke="none" />
    <path d="M 72 1910.5  C 82.92 1910.5  91.5 1919.08  91.5 1930  C 91.5 1940.92  82.92 1949.5  72 1949.5  C 61.08 1949.5  52.5 1940.92  52.5 1930  C 52.5 1919.08  61.08 1910.5  72 1910.5  Z " stroke-width="1" stroke="#e6e6e6" fill="none" />
  </g>
</svg>