<?xml version="1.0" encoding="utf-8"?>
<svg version="1.1" xmlns:xlink="http://www.w3.org/1999/xlink" width="59px" height="38px" xmlns="http://www.w3.org/2000/svg">
  <g transform="matrix(1 0 0 1 -20 -58 )">
    <path d="M 56.1319444444445 38  L 30.7291666666666 38  L 16.0103446441008 38  L 2.04861111111131 38  C 1.49377893518545 38  1.01363570601893 37.7275060386457  0.608181423611086 37.1825181159453  C 0.202727141203241 36.6375301932366  0 35.9921497584525  0 35.2463768115975  C 0 34.500603864734  0.202727141203241 33.85522342995  0.608181423611086 33.3102355072496  L 14.9484592013889 14.0348731884067  C 15.3539134837968 13.4898852657022  15.8340567129634 13.2173913043479  16.3888888888887 13.2173913043479  C 16.9437210648143 13.2173913043479  17.4238642939811 13.4898852657022  17.8293185763889 14.0348731884067  L 21.7641613633202 19.3238691202347  L 34.0389539930555 1.25347222222176  C 34.606589988427 0.417824074072536  35.2787905092603 0  36.0555555555555 0  C 36.8323206018508 0  37.5045211226842 0.417824074072536  38.0721571180555 1.25347222222176  L 58.1485460069445 30.8090277777782  C 58.716182002316 31.6446759259234  59 32.6342592592581  59 33.7777777777782  C 59 34.9212962962944  58.716182002316 35.910879629629  58.1485460069445 36.7465277777782  C 57.580910011573 37.5821759259234  56.9087094907395 38  56.1319444444445 38  Z " fill-rule="nonzero" fill="#cccccc" stroke="none" transform="matrix(1 0 0 1 20 58 )" />
  </g>
</svg>