<?xml version="1.0" encoding="utf-8"?>
<svg version="1.1" xmlns:xlink="http://www.w3.org/1999/xlink" width="50px" height="50px" xmlns="http://www.w3.org/2000/svg">
  <g transform="matrix(1 0 0 1 -29 -7 )">
    <path d="M 54 7  C 68 7  79 18  79 32  C 79 46  68 57  54 57  C 40 57  29 46  29 32  C 29 18  40 7  54 7  Z " fill-rule="nonzero" fill="#f7f7f7" stroke="none" />
    <path d="M 54 7.5  C 67.72 7.5  78.5 18.28  78.5 32  C 78.5 45.72  67.72 56.5  54 56.5  C 40.28 56.5  29.5 45.72  29.5 32  C 29.5 18.28  40.28 7.5  54 7.5  Z " stroke-width="1" stroke="#e4e4e4" fill="none" />
  </g>
</svg>