<?xml version="1.0" encoding="utf-8"?>
<svg version="1.1" xmlns:xlink="http://www.w3.org/1999/xlink" width="40px" height="40px" xmlns="http://www.w3.org/2000/svg">
  <g transform="matrix(1 0 0 1 -55 -2227 )">
    <path d="M 75 2227  C 86.2 2227  95 2235.8  95 2247  C 95 2258.2  86.2 2267  75 2267  C 63.8 2267  55 2258.2  55 2247  C 55 2235.8  63.8 2227  75 2227  Z " fill-rule="nonzero" fill="#ffffff" stroke="none" />
    <path d="M 75 2227.5  C 85.92 2227.5  94.5 2236.08  94.5 2247  C 94.5 2257.92  85.92 2266.5  75 2266.5  C 64.08 2266.5  55.5 2257.92  55.5 2247  C 55.5 2236.08  64.08 2227.5  75 2227.5  Z " stroke-width="1" stroke="#e6e6e6" fill="none" />
  </g>
</svg>