<?xml version="1.0" encoding="utf-8"?>
<svg version="1.1" xmlns:xlink="http://www.w3.org/1999/xlink" width="7px" height="7px" xmlns="http://www.w3.org/2000/svg">
  <g transform="matrix(1 0 0 1 -95 -31 )">
    <path d="M 98.5 31  C 100.46 31  102 32.54  102 34.5  C 102 36.46  100.46 38  98.5 38  C 96.54 38  95 36.46  95 34.5  C 95 32.54  96.54 31  98.5 31  Z " fill-rule="nonzero" fill="#f2f2f2" stroke="none" />
    <path d="M 98.5 31.5  C 100.18 31.5  101.5 32.82  101.5 34.5  C 101.5 36.18  100.18 37.5  98.5 37.5  C 96.82 37.5  95.5 36.18  95.5 34.5  C 95.5 32.82  96.82 31.5  98.5 31.5  Z " stroke-width="1" stroke="#797979" fill="none" />
  </g>
</svg>