<?xml version="1.0" encoding="utf-8"?>
<svg version="1.1" xmlns:xlink="http://www.w3.org/1999/xlink" width="40px" height="40px" xmlns="http://www.w3.org/2000/svg">
  <g transform="matrix(1 0 0 1 -61 -2545 )">
    <path d="M 81 2545  C 92.2 2545  101 2553.8  101 2565  C 101 2576.2  92.2 2585  81 2585  C 69.8 2585  61 2576.2  61 2565  C 61 2553.8  69.8 2545  81 2545  Z " fill-rule="nonzero" fill="#ffffff" stroke="none" />
    <path d="M 81 2545.5  C 91.92 2545.5  100.5 2554.08  100.5 2565  C 100.5 2575.92  91.92 2584.5  81 2584.5  C 70.08 2584.5  61.5 2575.92  61.5 2565  C 61.5 2554.08  70.08 2545.5  81 2545.5  Z " stroke-width="1" stroke="#e6e6e6" fill="none" />
  </g>
</svg>