<?xml version="1.0" encoding="utf-8"?>
<svg version="1.1" xmlns:xlink="http://www.w3.org/1999/xlink" width="40px" height="40px" xmlns="http://www.w3.org/2000/svg">
  <g transform="matrix(1 0 0 1 -59 -2277 )">
    <path d="M 79 2277  C 90.2 2277  99 2285.8  99 2297  C 99 2308.2  90.2 2317  79 2317  C 67.8 2317  59 2308.2  59 2297  C 59 2285.8  67.8 2277  79 2277  Z " fill-rule="nonzero" fill="#ffffff" stroke="none" />
    <path d="M 79 2277.5  C 89.92 2277.5  98.5 2286.08  98.5 2297  C 98.5 2307.92  89.92 2316.5  79 2316.5  C 68.08 2316.5  59.5 2307.92  59.5 2297  C 59.5 2286.08  68.08 2277.5  79 2277.5  Z " stroke-width="1" stroke="#e6e6e6" fill="none" />
  </g>
</svg>