<?xml version="1.0" encoding="utf-8"?>
<svg version="1.1" xmlns:xlink="http://www.w3.org/1999/xlink" width="281px" height="43px" xmlns="http://www.w3.org/2000/svg">
  <g transform="matrix(1 0 0 1 -48 -159 )">
    <path d="M 188.5 161  C 266.06 161  327 169.58  327 180.5  C 327 191.42  266.06 200  188.5 200  C 110.94 200  50 191.42  50 180.5  C 50 169.58  110.94 161  188.5 161  Z " fill-rule="nonzero" fill="#282828" stroke="none" />
    <path d="M 188.5 160.5  C 266.34 160.5  327.5 169.3  327.5 180.5  C 327.5 191.7  266.34 200.5  188.5 200.5  C 110.66 200.5  49.5 191.7  49.5 180.5  C 49.5 169.3  110.66 160.5  188.5 160.5  Z " stroke-width="3" stroke="#cf9154" fill="none" />
  </g>
</svg>