<?xml version="1.0" encoding="utf-8"?>
<svg version="1.1" xmlns:xlink="http://www.w3.org/1999/xlink" width="360px" height="108px" xmlns="http://www.w3.org/2000/svg">
  <defs>
    <mask fill="white" id="clip577">
      <path d="M 0 54  C 0 23.7600000000001  80.5402506930454 0  180 0  C 250.032154340836 0  311.242592906974 11.7800379246209  340.692016758146 29.3076584168764  C 353.066699862425 36.6727854991541  360 45.0527577439488  360 54  C 360 84.2399999999999  280.8 108  180 108  C 79.1999999999999 108  0 84.2399999999999  0 54  Z " fill-rule="evenodd" />
    </mask>
  </defs>
  <g transform="matrix(1 0 0 1 -8 -127 )">
    <path d="M 0 54  C 0 23.7600000000001  80.5402506930454 0  180 0  C 250.032154340836 0  311.242592906974 11.7800379246209  340.692016758146 29.3076584168764  C 353.066699862425 36.6727854991541  360 45.0527577439488  360 54  C 360 84.2399999999999  280.8 108  180 108  C 79.1999999999999 108  0 84.2399999999999  0 54  Z " fill-rule="nonzero" fill="#282828" stroke="none" transform="matrix(1 0 0 1 8 127 )" />
    <path d="M 0 54  C 0 23.7600000000001  80.5402506930454 0  180 0  C 250.032154340836 0  311.242592906974 11.7800379246209  340.692016758146 29.3076584168764  C 353.066699862425 36.6727854991541  360 45.0527577439488  360 54  C 360 84.2399999999999  280.8 108  180 108  C 79.1999999999999 108  0 84.2399999999999  0 54  Z " stroke-width="6" stroke="#cf9154" fill="none" transform="matrix(1 0 0 1 8 127 )" mask="url(#clip577)" />
  </g>
</svg>