<?xml version="1.0" encoding="utf-8"?>
<svg version="1.1" xmlns:xlink="http://www.w3.org/1999/xlink" width="360px" height="98px" xmlns="http://www.w3.org/2000/svg">
  <defs>
    <mask fill="white" id="clip28">
      <path d="M 0 49  C 0 21.5600000000001  80.5402506930454 0  180 0  C 250.032154340836 0  311.242592906974 10.6892936723412  340.692016758146 26.5939863412397  C 353.066699862425 33.2771572121954  360 40.8812061009906  360 49  C 360 76.44  280.8 98  180 98  C 79.1999999999999 98  0 76.44  0 49  Z " fill-rule="evenodd" />
    </mask>
  </defs>
  <g transform="matrix(1 0 0 1 -7 -129 )">
    <path d="M 0 49  C 0 21.5600000000001  80.5402506930454 0  180 0  C 250.032154340836 0  311.242592906974 10.6892936723412  340.692016758146 26.5939863412397  C 353.066699862425 33.2771572121954  360 40.8812061009906  360 49  C 360 76.44  280.8 98  180 98  C 79.1999999999999 98  0 76.44  0 49  Z " fill-rule="nonzero" fill="#282828" stroke="none" transform="matrix(1 0 0 1 7 129 )" />
    <path d="M 0 49  C 0 21.5600000000001  80.5402506930454 0  180 0  C 250.032154340836 0  311.242592906974 10.6892936723412  340.692016758146 26.5939863412397  C 353.066699862425 33.2771572121954  360 40.8812061009906  360 49  C 360 76.44  280.8 98  180 98  C 79.1999999999999 98  0 76.44  0 49  Z " stroke-width="6" stroke="#cf9154" fill="none" transform="matrix(1 0 0 1 7 129 )" mask="url(#clip28)" />
  </g>
</svg>