<?xml version="1.0" encoding="utf-8"?>
<svg version="1.1" xmlns:xlink="http://www.w3.org/1999/xlink" width="315px" height="79px" xmlns="http://www.w3.org/2000/svg">
  <g transform="matrix(1 0 0 1 -30 -137 )">
    <path d="M 187.5 139  C 274.58 139  343 155.5  343 176.5  C 343 197.5  274.58 214  187.5 214  C 100.42 214  32 197.5  32 176.5  C 32 155.5  100.42 139  187.5 139  Z " fill-rule="nonzero" fill="#282828" stroke="none" />
    <path d="M 187.5 138.5  C 274.86 138.5  343.5 155.22  343.5 176.5  C 343.5 197.78  274.86 214.5  187.5 214.5  C 100.14 214.5  31.5 197.78  31.5 176.5  C 31.5 155.22  100.14 138.5  187.5 138.5  Z " stroke-width="3" stroke="#cf9154" fill="none" />
  </g>
</svg>