<?xml version="1.0" encoding="utf-8"?>
<svg version="1.1" xmlns:xlink="http://www.w3.org/1999/xlink" width="281px" height="39px" xmlns="http://www.w3.org/2000/svg">
  <g transform="matrix(1 0 0 1 -47 -157 )">
    <path d="M 187.5 159  C 265.06 159  326 166.7  326 176.5  C 326 186.3  265.06 194  187.5 194  C 109.94 194  49 186.3  49 176.5  C 49 166.7  109.94 159  187.5 159  Z " fill-rule="nonzero" fill="#282828" stroke="none" />
    <path d="M 187.5 158.5  C 265.34 158.5  326.5 166.42  326.5 176.5  C 326.5 186.58  265.34 194.5  187.5 194.5  C 109.66 194.5  48.5 186.58  48.5 176.5  C 48.5 166.42  109.66 158.5  187.5 158.5  Z " stroke-width="3" stroke="#cf9154" fill="none" />
  </g>
</svg>