<?xml version="1.0" encoding="utf-8"?>
<svg version="1.1" xmlns:xlink="http://www.w3.org/1999/xlink" width="24px" height="19px" xmlns="http://www.w3.org/2000/svg">
  <g transform="matrix(1 0 0 1 -322 0 )">
    <path d="M 8.57386363636364 7.236328125  C 8.67613636363636 7.310546875  8.72727272727273 7.40538194444444  8.72727272727273 7.52083333333333  L 8.72727272727273 14.6458333333333  C 8.72727272727273 14.7612847222222  8.67613636363636 14.8561197916667  8.57386363636364 14.9303385416667  C 8.47159090909091 15.0045572916667  8.34090909090909 15.0416666666667  8.18181818181818 15.0416666666667  L 7.09090909090909 15.0416666666667  C 6.93181818181818 15.0416666666667  6.80113636363637 15.0045572916667  6.69886363636364 14.9303385416667  C 6.59659090909091 14.8561197916667  6.54545454545455 14.7612847222222  6.54545454545455 14.6458333333333  L 6.54545454545455 7.52083333333333  C 6.54545454545455 7.40538194444444  6.59659090909091 7.310546875  6.69886363636364 7.236328125  C 6.80113636363637 7.162109375  6.93181818181818 7.125  7.09090909090909 7.125  L 8.18181818181818 7.125  C 8.34090909090909 7.125  8.47159090909091 7.162109375  8.57386363636364 7.236328125  Z M 12.9375 7.236328125  C 13.0397727272727 7.310546875  13.0909090909091 7.40538194444444  13.0909090909091 7.52083333333333  L 13.0909090909091 14.6458333333333  C 13.0909090909091 14.7612847222222  13.0397727272727 14.8561197916667  12.9375 14.9303385416667  C 12.8352272727273 15.0045572916667  12.7045454545455 15.0416666666667  12.5454545454545 15.0416666666667  L 11.4545454545455 15.0416666666667  C 11.2954545454545 15.0416666666667  11.1647727272727 15.0045572916667  11.0625 14.9303385416667  C 10.9602272727273 14.8561197916667  10.9090909090909 14.7612847222222  10.9090909090909 14.6458333333333  L 10.9090909090909 7.52083333333333  C 10.9090909090909 7.40538194444444  10.9602272727273 7.310546875  11.0625 7.236328125  C 11.1647727272727 7.162109375  11.2954545454545 7.125  11.4545454545455 7.125  L 12.5454545454545 7.125  C 12.7045454545455 7.125  12.8352272727273 7.162109375  12.9375 7.236328125  Z M 17.3011363636364 7.236328125  C 17.4034090909091 7.310546875  17.4545454545455 7.40538194444444  17.4545454545455 7.52083333333333  L 17.4545454545455 14.6458333333333  C 17.4545454545455 14.7612847222222  17.4034090909091 14.8561197916667  17.3011363636364 14.9303385416667  C 17.1988636363636 15.0045572916667  17.0681818181818 15.0416666666667  16.9090909090909 15.0416666666667  L 15.8181818181818 15.0416666666667  C 15.6590909090909 15.0416666666667  15.5284090909091 15.0045572916667  15.4261363636364 14.9303385416667  C 15.3238636363636 14.8561197916667  15.2727272727273 14.7612847222222  15.2727272727273 14.6458333333333  L 15.2727272727273 7.52083333333333  C 15.2727272727273 7.40538194444444  15.3238636363636 7.310546875  15.4261363636364 7.236328125  C 15.5284090909091 7.162109375  15.6590909090909 7.125  15.8181818181818 7.125  L 16.9090909090909 7.125  C 17.0681818181818 7.125  17.1988636363636 7.162109375  17.3011363636364 7.236328125  Z M 19.5170454545455 16.9775390625  C 19.5965909090909 16.8249782986111  19.6363636363636 16.6579861111111  19.6363636363636 16.4765625  L 19.6363636363636 5  L 4.36363636363636 5  L 4.36363636363636 16.4765625  C 4.36363636363636 16.6579861111111  4.40340909090909 16.8249782986111  4.48295454545455 16.9775390625  C 4.5625 17.1300998263889  4.64488636363636 17.2414279513889  4.73011363636364 17.3115234375  C 4.81534090909091 17.3816189236111  4.875 17.4166666666667  4.90909090909091 17.4166666666667  L 19.0909090909091 17.4166666666667  C 19.125 17.4166666666667  19.1846590909091 17.3816189236111  19.2698863636364 17.3115234375  C 19.3551136363636 17.2414279513889  19.4375 17.1300998263889  19.5170454545455 16.9775390625  Z M 9.01704545454546 1.71940104166667  L 8.18181818181818 3.16666666666667  L 15.8181818181818 3.16666666666667  L 15 1.71940104166667  C 14.9204545454545 1.64518229166667  14.8238636363636 1.59982638888889  14.7102272727273 1.58333333333333  L 9.30681818181818 1.58333333333333  C 9.19318181818182 1.59982638888889  9.09659090909091 1.64518229166667  9.01704545454546 1.71940104166667  Z M 23.8465909090909 3.27799479166667  C 23.9488636363636 3.35221354166667  24 3.44704861111111  24 3.5625  L 24 4.35416666666667  C 24 4.46961805555555  23.9488636363636 4.564453125  23.8465909090909 4.638671875  C 23.7443181818182 4.712890625  23.6136363636364 4.75  23.4545454545455 4.75  L 21.8181818181818 4.75  L 21.8181818181818 16.4765625  C 21.8181818181818 17.1610243055556  21.5511363636364 17.7527126736111  21.0170454545455 18.2516276041667  C 20.4829545454545 18.7505425347222  19.8409090909091 19  19.0909090909091 19  L 4.90909090909091 19  C 4.15909090909091 19  3.51704545454546 18.7587890625  2.98295454545455 18.2763671875  C 2.44886363636364 17.7939453125  2.18181818181818 17.2105034722222  2.18181818181818 16.5260416666667  L 2.18181818181818 4.75  L 0.545454545454545 4.75  C 0.386363636363636 4.75  0.255681818181818 4.712890625  0.153409090909091 4.638671875  C 0.0511363636363636 4.564453125  0 4.46961805555555  0 4.35416666666667  L 0 3.5625  C 0 3.44704861111111  0.0511363636363636 3.35221354166667  0.153409090909091 3.27799479166667  C 0.255681818181818 3.20377604166667  0.386363636363636 3.16666666666667  0.545454545454545 3.16666666666667  L 5.8125 3.16666666666667  L 7.00568181818182 1.10091145833333  C 7.17613636363637 0.795789930555554  7.48295454545455 0.536024305555554  7.92613636363636 0.321614583333334  C 8.36931818181818 0.10720486111111  8.81818181818182 0  9.27272727272727 0  L 14.7272727272727 0  C 15.1818181818182 0  15.6306818181818 0.10720486111111  16.0738636363636 0.321614583333334  C 16.5170454545455 0.536024305555554  16.8238636363636 0.795789930555554  16.9943181818182 1.10091145833333  L 18.1875 3.16666666666667  L 23.4545454545455 3.16666666666667  C 23.6136363636364 3.16666666666667  23.7443181818182 3.20377604166667  23.8465909090909 3.27799479166667  Z " fill-rule="nonzero" fill="#000000" stroke="none" transform="matrix(1 0 0 1 322 0 )" />
  </g>
</svg>