<?xml version="1.0" encoding="utf-8"?>
<svg version="1.1" xmlns:xlink="http://www.w3.org/1999/xlink" width="12px" height="20px" xmlns="http://www.w3.org/2000/svg">
  <g transform="matrix(1 0 0 1 -64 -167 )">
    <path d="M 0.206185567010173 9.53907815631262  C 0.0687285223368897 9.67267869071479  0 9.82631930527718  0 10  C 0 10.1736806947228  0.0687285223368897 10.3273213092852  0.206185567010173 10.4609218436874  L 9.81443298969068 19.7995991983967  C 9.95189003436421 19.9331997327989  10.1099656357388 20  10.2886597938143 20  C 10.4673539518901 20  10.6254295532647 19.9331997327989  10.762886597938 19.7995991983967  L 11.7938144329898 18.7975951903807  C 11.9312714776631 18.6639946559787  12 18.5103540414161  12 18.3366733466933  C 12 18.1629926519707  11.9312714776631 18.0093520374083  11.7938144329898 17.8757515030059  L 3.69072164948458 10  L 11.7938144329898 2.12424849699408  C 11.9312714776631 1.9906479625917  12 1.83700734802931  12 1.6633266533067  C 12 1.48964595858388  11.9312714776631 1.33600534402128  11.7938144329898 1.20240480961932  L 10.762886597938 0.200400801603254  C 10.6254295532647 0.0668002672010847  10.4673539518901 0  10.2886597938143 0  C 10.1099656357388 0  9.95189003436421 0.0668002672010847  9.81443298969068 0.200400801603254  L 0.206185567010173 9.53907815631262  Z " fill-rule="nonzero" fill="#000000" stroke="none" transform="matrix(1 0 0 1 64 167 )" />
  </g>
</svg>