<?xml version="1.0" encoding="utf-8"?>
<svg version="1.1" xmlns:xlink="http://www.w3.org/1999/xlink" width="19px" height="73px" xmlns="http://www.w3.org/2000/svg">
  <g transform="matrix(1 0 0 1 -586 -506 )">
    <path d="M 595.5 515  A 3 3 0 0 0 592.5 518 A 3 3 0 0 0 595.5 521 A 3 3 0 0 0 598.5 518 A 3 3 0 0 0 595.5 515 Z M 595.5 516  A 2 2 0 0 1 597.5 518 A 2 2 0 0 1 595.5 520 A 2 2 0 0 1 593.5 518 A 2 2 0 0 1 595.5 516 Z " fill-rule="nonzero" fill="#555555" stroke="none" />
    <path d="M 595.5 520  L 595.5 578  " stroke-width="1" stroke-dasharray="3,1" stroke="#555555" fill="none" />
  </g>
</svg>