<?xml version="1.0" encoding="utf-8"?>
<svg version="1.1" xmlns:xlink="http://www.w3.org/1999/xlink" width="36px" height="36px" xmlns="http://www.w3.org/2000/svg">
  <defs>
    <mask fill="white" id="clip70">
      <path d="M 764 349  C 754.01 349  746 340.99  746 331  L 746 331  C 746 321.01  754.01 313  764 313  L 764 313  C 773.99 313  782 321.01  782 331  L 782 331  C 782 340.99  773.99 349  764 349  " fill-rule="evenodd" />
    </mask>
  </defs>
  <g transform="matrix(1 0 0 1 -746 -313 )">
    <path d="M 746 313  L 782 313  L 782 349  L 746 349  L 746 313  " fill-rule="nonzero" fill="#cccccc" stroke="none" mask="url(#clip70)" />
    <path d="M 749 316  L 779 316  L 779 346  L 749 346  L 749 316  " fill-rule="nonzero" fill="#ffffff" stroke="none" mask="url(#clip70)" />
    <path d="M 767.42 323.8  C 765.908 323.8  764.72 322.612  764.72 321.1  C 764.72 319.588  765.908 318.4  767.42 318.4  C 768.932 318.4  770.12 319.588  770.12 321.1  C 770.12 322.612  768.932 323.8  767.42 323.8  " fill-rule="nonzero" fill="#cccccc" stroke="none" mask="url(#clip70)" />
    <path d="M 750 345  L 750 329.6  L 757 322.6  L 766.8 328.2  L 772.4 326.8  L 778 328.2  L 778 345  L 750 345  " fill-rule="nonzero" fill="#169bd5" stroke="none" mask="url(#clip70)" />
  </g>
</svg>