<?xml version="1.0" encoding="utf-8"?>
<svg version="1.1" xmlns:xlink="http://www.w3.org/1999/xlink" width="36px" height="36px" xmlns="http://www.w3.org/2000/svg">
  <defs>
    <mask fill="white" id="clip69">
      <path d="M 621 348.5  C 611.2875 348.5  603.5 340.7125  603.5 331  L 603.5 331  C 603.5 321.2875  611.2875 313.5  621 313.5  L 621 313.5  C 630.7125 313.5  638.5 321.2875  638.5 331  L 638.5 331  C 638.5 340.7125  630.7125 348.5  621 348.5  L 621 348.5  " fill-rule="evenodd" />
    </mask>
  </defs>
  <g transform="matrix(1 0 0 1 -603 -313 )">
    <path d="M 603 313  L 639 313  L 639 349  L 603 349  L 603 313  " fill-rule="nonzero" fill="#cccccc" stroke="none" mask="url(#clip69)" />
    <path d="M 606 316  L 636 316  L 636 346  L 606 346  L 606 316  " fill-rule="nonzero" fill="#ffffff" stroke="none" mask="url(#clip69)" />
    <path d="M 624.42 323.8  C 622.908 323.8  621.72 322.612  621.72 321.1  C 621.72 319.588  622.908 318.4  624.42 318.4  C 625.932 318.4  627.12 319.588  627.12 321.1  C 627.12 322.612  625.932 323.8  624.42 323.8  " fill-rule="nonzero" fill="#cccccc" stroke="none" mask="url(#clip69)" />
    <path d="M 607 345  L 607 329.6  L 614 322.6  L 623.8 328.2  L 629.4 326.8  L 635 328.2  L 635 345  L 607 345  " fill-rule="nonzero" fill="#169bd5" stroke="none" mask="url(#clip69)" />
    <path d="M 621 347.5  C 611.8425 347.5  604.5 340.1575  604.5 331  L 604.5 331  C 604.5 321.8425  611.8425 314.5  621 314.5  L 621 314.5  C 630.1575 314.5  637.5 321.8425  637.5 331  L 637.5 331  C 637.5 340.1575  630.1575 347.5  621 347.5  L 621 347.5  Z " stroke-width="3" stroke="#000000" fill="none" mask="url(#clip69)" />
  </g>
</svg>