<?xml version="1.0" encoding="utf-8"?>
<svg version="1.1" xmlns:xlink="http://www.w3.org/1999/xlink" width="19px" height="121px" xmlns="http://www.w3.org/2000/svg">
  <g transform="matrix(1 0 0 1 -1033 -563 )">
    <path d="M 1042.5 572  A 3 3 0 0 0 1039.5 575 A 3 3 0 0 0 1042.5 578 A 3 3 0 0 0 1045.5 575 A 3 3 0 0 0 1042.5 572 Z M 1042.5 573  A 2 2 0 0 1 1044.5 575 A 2 2 0 0 1 1042.5 577 A 2 2 0 0 1 1040.5 575 A 2 2 0 0 1 1042.5 573 Z " fill-rule="nonzero" fill="#555555" stroke="none" />
    <path d="M 1042.5 577  L 1042.5 683  " stroke-width="1" stroke-dasharray="3,1" stroke="#555555" fill="none" />
  </g>
</svg>