<?xml version="1.0" encoding="utf-8"?>
<svg version="1.1" xmlns:xlink="http://www.w3.org/1999/xlink" width="22px" height="22px" preserveAspectRatio="xMinYMid meet" viewBox="1032 691  22 20" xmlns="http://www.w3.org/2000/svg">
  <g transform="matrix(0 -1 1 0 342 1744 )">
    <path d="M 1042.5 698  A 3 3 0 0 0 1039.5 701 A 3 3 0 0 0 1042.5 704 A 3 3 0 0 0 1045.5 701 A 3 3 0 0 0 1042.5 698 Z M 1042.5 699  A 2 2 0 0 1 1044.5 701 A 2 2 0 0 1 1042.5 703 A 2 2 0 0 1 1040.5 701 A 2 2 0 0 1 1042.5 699 Z " fill-rule="nonzero" fill="#555555" stroke="none" transform="matrix(0.999997918822363 0.00204018404627006 -0.00204018404627006 0.999997918822363 1.5078254538339 -2.12535595914039 )" />
    <path d="M 1042.5 703  L 1042.5 778  " stroke-width="1" stroke-dasharray="3,1" stroke="#555555" fill="none" transform="matrix(0.999997918822363 0.00204018404627006 -0.00204018404627006 0.999997918822363 1.5078254538339 -2.12535595914039 )" />
  </g>
</svg>