<?xml version="1.0" encoding="utf-8"?>
<svg version="1.1" xmlns:xlink="http://www.w3.org/1999/xlink" width="22px" height="18px" xmlns="http://www.w3.org/2000/svg">
  <g transform="matrix(1 0 0 1 -1060 -322 )">
    <path d="M 19.2715609408411 0.179743223965763  C 20.2751247327156 -0.0941512125534989  21.0487051556189 -0.042796005706137  21.592302209551 0.333808844507847  C 22.0522689474935 0.778887303851638  22.1149916844856 1.41226818830243  21.7804704205274 2.2339514978602  C 21.4459491565693 3.05563480741797  20.8814445236398 3.79172610556348  20.0869565217391 4.44222539229672  L 17.5623663578047 6.509272467903  L 20.0712758374911 15.4450784593438  C 20.1235447849846 15.6077032810271  20.0608220479924 15.7489300998573  19.8831076265146 15.8687589158345  L 17.8759800427655 17.1012838801712  C 17.8028035162747 17.1526390870185  17.7034925160371 17.1783166904422  17.5780470420527 17.1783166904422  C 17.536231884058 17.1783166904422  17.4996436208125 17.1740370898716  17.4682822523165 17.1654778887304  C 17.3114754098361 17.1398002853067  17.2017106200998 17.0713266761769  17.1389878831076 16.9600570613409  L 12.7640769779045 10.4379457917261  L 8.70277975766215 13.7631954350927  L 9.53385602280827 16.2539229671897  C 9.58612497030174 16.3994293865906  9.54430981230696 16.5320970042796  9.40841054882395 16.6519258202568  L 7.90306486101212 17.8844507845934  C 7.80898075552388 17.9614835948645  7.68876217628891 18  7.5424091233072 18  L 7.51104775481112 18  C 7.35424091233072 17.9828815977175  7.2287954383464 17.9272467902996  7.13471133285816 17.8330955777461  L 4.17106200997862 14.5977175463623  L 0.219529579472559 12.1711840228245  C 0.104537894986933 12.1112696148359  0.0365882632454265 12.0128388017118  0.0156806842480399 11.8758915834522  C 0.00522689474934664 11.7646219686163  0.0522689474934664 11.6576319543509  0.156806842480399 11.5549215406562  L 1.66215253029223 10.3095577746077  C 1.75623663578047 10.2325249643367  1.87645521501544 10.1940085592011  2.02280826799715 10.1940085592011  C 2.08553100498931 10.1940085592011  2.12734616298408 10.1982881597718  2.14825374198147 10.206847360913  L 5.19030648610121 10.8873038516405  L 9.25160370634355 7.56205420827389  L 1.28581610833927 3.98002853067047  C 1.13946305535757 3.91155492154066  1.05060584461867 3.80884450784593  1.01924447612259 3.67189728958631  C 0.998336897125208 3.53495007132668  1.04537894986933 3.41940085592011  1.16037063435495 3.32524964336662  L 3.16749821810406 1.68188302425107  C 3.31385127108577 1.57061340941512  3.47065811356617 1.53637660485021  3.63791874554526 1.57917261055635  L 14.0655737704918 3.62054208273895  L 16.5744832501782 1.56633380884451  C 17.3689712520789 0.915834522111268  18.2679971489665 0.453637660485021  19.2715609408411 0.179743223965763  Z " fill-rule="nonzero" fill="#ffffff" stroke="none" transform="matrix(1 0 0 1 1060 322 )" />
  </g>
</svg>