<?xml version="1.0" encoding="utf-8"?>
<svg version="1.1" xmlns:xlink="http://www.w3.org/1999/xlink" width="4px" height="4px" preserveAspectRatio="xMinYMid meet" viewBox="152 389  4 2" xmlns="http://www.w3.org/2000/svg">
  <path d="M 154.5 319  A 3 3 0 0 0 151.5 322 A 3 3 0 0 0 154.5 325 A 3 3 0 0 0 157.5 322 A 3 3 0 0 0 154.5 319 Z M 154.5 320  A 2 2 0 0 1 156.5 322 A 2 2 0 0 1 154.5 324 A 2 2 0 0 1 152.5 322 A 2 2 0 0 1 154.5 320 Z " fill-rule="nonzero" fill="#7f7f7f" stroke="none" transform="matrix(0.999942165369539 0.0107548089745155 -0.0107548089745155 0.999942165369539 3.82151523187204 -1.64111561006411 )" />
  <path d="M 154.5 324  L 154.5 390  " stroke-width="1" stroke-dasharray="3,1" stroke="#7f7f7f" fill="none" transform="matrix(0.999942165369539 0.0107548089745155 -0.0107548089745155 0.999942165369539 3.82151523187204 -1.64111561006411 )" />
</svg>