<?xml version="1.0" encoding="utf-8"?>
<svg version="1.1" xmlns:xlink="http://www.w3.org/1999/xlink" width="23px" height="29px" xmlns="http://www.w3.org/2000/svg">
  <defs>
    <mask fill="white" id="clip66">
      <path d="M 562.5 569  C 556.1175 569  551 563.8825  551 557.5  L 551 551.5  C 551 545.1175  556.1175 540  562.5 540  L 562.5 540  C 568.8825 540  574 545.1175  574 551.5  L 574 557.5  C 574 563.8825  568.8825 569  562.5 569  " fill-rule="evenodd" />
    </mask>
  </defs>
  <g transform="matrix(1 0 0 1 -551 -540 )">
    <path d="M 551 540  L 574 540  L 574 569  L 551 569  L 551 540  " fill-rule="nonzero" fill="#cccccc" stroke="none" mask="url(#clip66)" />
    <path d="M 553 542  L 572 542  L 572 567  L 553 567  L 553 542  " fill-rule="nonzero" fill="#ffffff" stroke="none" mask="url(#clip66)" />
    <path d="M 564.685 547.8  C 563.719 547.8  562.96 547.041  562.96 546.075  C 562.96 545.109  563.719 544.35  564.685 544.35  C 565.651 544.35  566.41 545.109  566.41 546.075  C 566.41 547.041  565.651 547.8  564.685 547.8  " fill-rule="nonzero" fill="#cccccc" stroke="none" mask="url(#clip66)" />
    <path d="M 554 567  L 554 553.8  L 558.5 547.8  L 564.8 552.6  L 568.4 551.4  L 572 552.6  L 572 567  L 554 567  " fill-rule="nonzero" fill="#169bd5" stroke="none" mask="url(#clip66)" />
  </g>
</svg>