<?xml version="1.0" encoding="utf-8"?>
<svg version="1.1" xmlns:xlink="http://www.w3.org/1999/xlink" width="21px" height="21px" xmlns="http://www.w3.org/2000/svg">
  <g transform="matrix(1 0 0 1 -343 -154 )">
    <path d="M 21 10.5  C 21 4.71001209375036  16.2899879062496 0  10.5 0  C 4.71073781249986 0  0 4.71001209375036  0 10.5  C 0 16.2899879062496  4.71001209375036 21  10.5 21  C 16.2892621875001 21  21 16.2899879062496  21 10.5  Z M 11.5627603828126 10.5029834765633  L 14.7832549453124 13.7340007968751  C 15.0757559531251 14.0279935312496  15.074989921875 14.5020024140631  14.7817632187501 14.7945034218743  C 14.6355328828125 14.9400080624998  14.4442682578127 15.0135062343747  14.2522779375002 15.0135062343747  C 14.0595215859375 15.0135062343747  13.8675312656251 14.940008039062  13.72126059375 14.7930116718752  L 10.4962505156248 11.5582448437499  L 7.26075796875007 14.7592662187497  C 7.11452763281245 14.903279109375  6.92398872656258 14.9760112734367  6.73349013281238 14.9760112734367  C 6.54000806249978 14.9760112734367  6.34725173437498 14.9017470703126  6.2002553437499 14.7532589531257  C 5.90924606249996 14.4585001875001  5.91150382031237 13.9844913046877  6.20626260937483 13.6927563281246  L 9.43800564843707 10.4962504921875  L 6.21823680468769 7.26599917968706  C 5.92573579687498 6.9727321406247  5.92650182812511 6.49799756250009  6.21972853124998 6.20549655468785  C 6.51299557031234 5.9122295156255  6.98696411718779 5.91376157812479  7.28023115624967 6.20698828125014  L 10.5044752031252 9.44098907812527  L 13.7399677499999 6.2400080156247  C 14.0339604843749 5.94827303906259  14.5094610937501 5.95125649218717  14.8004703750001 6.24601528124963  C 15.0922053515627 6.54077404687428  15.0892218984371 7.01550862499985  14.7944631093747 7.30651790624979  L 11.5627603828126 10.5029834765633  Z " fill-rule="nonzero" fill="#999999" stroke="none" transform="matrix(1 0 0 1 343 154 )" />
  </g>
</svg>