<?xml version="1.0" encoding="utf-8"?>
<svg version="1.1" xmlns:xlink="http://www.w3.org/1999/xlink" width="22px" height="22px" xmlns="http://www.w3.org/2000/svg">
  <g transform="matrix(1 0 0 1 392 -587 )">
    <path d="M 21.9999995783325 10.9992362863785  C 22.0007598845581 8.05999700298614  20.8566887784783 5.2975550058332  18.7775502123745 3.22019725163776  C 16.6999745184193 1.14364563411721  13.9387862394742 0  11.0007812252406 0  C 8.06277621100701 0  5.30078536613879 1.14364563411721  3.22320967218366 3.22019725163776  C 1.14487367200296 5.2975550058332  0 8.06076069194306  0 11  C 0 13.9400029970139  1.14487367200296 16.7024449941668  3.22244936595808 18.7798027483622  C 5.30002505991315 20.8563543658828  8.06201588022615 22  11.000020919015 22  C 13.9380259578039 22  16.7000167781169 20.8563543658828  18.7767899061488 18.7798027483622  C 20.8559284722526 16.7016813052099  22.0008021442556 13.938433171382  21.9999995783325 10.9992362863785  Z M 17.2870263956625 11.0000424230535  C 17.2870263956625 11.4357351245979  16.93571610346 11.7892873233523  16.501192955432 11.7892873233523  L 11.7865724303289 11.7892873233523  L 11.7865724303289 16.5248839943059  C 11.7865724303289 16.9613404094717  11.4345440424877 17.3141713176583  11.0007812252406 17.3141713176583  C 10.5670184079935 17.3141713176583  10.2149900201524 16.9613828325252  10.2149900201524 16.5248839943059  L 10.2149900201524 11.7892873233523  L 5.50041173019143 11.7892873233523  C 5.06664891294436 11.7892873233523  4.71462052510313 11.4356927015443  4.71462052510313 11  C 4.71462052510313 10.5643072984557  5.06664891294436 10.2107126766477  5.50041173019143 10.2107126766477  L 10.2150322552946 10.2107126766477  L 10.2150322552946 5.47515842874757  C 10.2150322552946 5.03946572720322  10.5670606431357 4.68587110539523  11.0008234603829 4.68587110539523  C 11.4345862776299 4.68587110539523  11.7866146654711 5.03946572720322  11.7866146654711 5.47515842874757  L 11.7866146654711 10.2107550997012  L 16.5012351905742 10.2107550997012  C 16.9357583386022 10.2107550997012  17.2870263956625 10.5643497215092  17.2870263956625 11.0000424230535  Z " fill-rule="nonzero" fill="#0d0d0d" stroke="none" transform="matrix(1 0 0 1 -392 587 )" />
  </g>
</svg>