<?xml version="1.0" encoding="utf-8"?>
<svg version="1.1" xmlns:xlink="http://www.w3.org/1999/xlink" width="12px" height="12px" viewBox="821 478  12 12" xmlns="http://www.w3.org/2000/svg">
  <path d="M 821.5 483  A 4.5 4.5 0 0 1 826 478.5 L 828 478.5  A 4.5 4.5 0 0 1 832.5 483 L 832.5 485  A 4.5 4.5 0 0 1 828 489.5 L 826 489.5  A 4.5 4.5 0 0 1 821.5 485 L 821.5 483  Z " fill-rule="nonzero" fill="#ffffff" stroke="none" />
  <path d="M 821.5 483  A 4.5 4.5 0 0 1 826 478.5 L 828 478.5  A 4.5 4.5 0 0 1 832.5 483 L 832.5 485  A 4.5 4.5 0 0 1 828 489.5 L 826 489.5  A 4.5 4.5 0 0 1 821.5 485 L 821.5 483  Z " stroke-width="1" stroke="#797979" fill="none" />
</svg>