<?xml version="1.0" encoding="utf-8"?>
<svg version="1.1" xmlns:xlink="http://www.w3.org/1999/xlink" width="12px" height="12px" viewBox="822 516  12 12" xmlns="http://www.w3.org/2000/svg">
  <path d="M 822.5 521  A 4.5 4.5 0 0 1 827 516.5 L 829 516.5  A 4.5 4.5 0 0 1 833.5 521 L 833.5 523  A 4.5 4.5 0 0 1 829 527.5 L 827 527.5  A 4.5 4.5 0 0 1 822.5 523 L 822.5 521  Z " fill-rule="nonzero" fill="#ffffff" stroke="none" />
  <path d="M 822.5 521  A 4.5 4.5 0 0 1 827 516.5 L 829 516.5  A 4.5 4.5 0 0 1 833.5 521 L 833.5 523  A 4.5 4.5 0 0 1 829 527.5 L 827 527.5  A 4.5 4.5 0 0 1 822.5 523 L 822.5 521  Z " stroke-width="1" stroke="#797979" fill="none" />
  <path d="M 824.571428571429 522  L 827.142857142857 524.571428571429  L 831.428571428571 518.571428571429  " stroke-width="2.57142857142857" stroke="#797979" fill="none" />
</svg>