<?xml version="1.0" encoding="utf-8"?>
<svg version="1.1" xmlns:xlink="http://www.w3.org/1999/xlink" width="12px" height="12px" viewBox="821 407  12 12" xmlns="http://www.w3.org/2000/svg">
  <path d="M 821.5 412  A 4.5 4.5 0 0 1 826 407.5 L 828 407.5  A 4.5 4.5 0 0 1 832.5 412 L 832.5 414  A 4.5 4.5 0 0 1 828 418.5 L 826 418.5  A 4.5 4.5 0 0 1 821.5 414 L 821.5 412  Z " fill-rule="nonzero" fill="#ffffff" stroke="none" />
  <path d="M 821.5 412  A 4.5 4.5 0 0 1 826 407.5 L 828 407.5  A 4.5 4.5 0 0 1 832.5 412 L 832.5 414  A 4.5 4.5 0 0 1 828 418.5 L 826 418.5  A 4.5 4.5 0 0 1 821.5 414 L 821.5 412  Z " stroke-width="1" stroke="#797979" fill="none" />
</svg>