<?xml version="1.0" encoding="utf-8"?>
<svg version="1.1" xmlns:xlink="http://www.w3.org/1999/xlink" width="12px" height="12px" viewBox="821 366  12 12" xmlns="http://www.w3.org/2000/svg">
  <path d="M 821.5 371  A 4.5 4.5 0 0 1 826 366.5 L 828 366.5  A 4.5 4.5 0 0 1 832.5 371 L 832.5 373  A 4.5 4.5 0 0 1 828 377.5 L 826 377.5  A 4.5 4.5 0 0 1 821.5 373 L 821.5 371  Z " fill-rule="nonzero" fill="#f0f0f0" stroke="none" />
  <path d="M 821.5 371  A 4.5 4.5 0 0 1 826 366.5 L 828 366.5  A 4.5 4.5 0 0 1 832.5 371 L 832.5 373  A 4.5 4.5 0 0 1 828 377.5 L 826 377.5  A 4.5 4.5 0 0 1 821.5 373 L 821.5 371  Z " stroke-width="1" stroke="#797979" fill="none" />
</svg>