<?xml version="1.0" encoding="utf-8"?>
<svg version="1.1" xmlns:xlink="http://www.w3.org/1999/xlink" width="19px" height="82px" xmlns="http://www.w3.org/2000/svg">
  <g transform="matrix(1 0 0 1 -13 -39 )">
    <path d="M 17.6974256610453 54.1593725158962  A 15.2397059063707 15.2397059063707 0 0 0 20.2674505525733 52.7478238788068 A 5.67022816787241 5.67022816787241 0 0 0 22.5 50.332830094822 A 5.67022816787241 5.67022816787241 0 0 0 24.7325494474268 52.7478238788069 A 15.2397059063707 15.2397059063707 0 0 0 27.3025743389547 54.1593725158962 L 27.6974256610453 53.2406274841038  A 14.2397059063707 14.2397059063707 0 0 1 25.266989050485 51.9018332917076 A 4.67022816787241 4.67022816787241 0 0 1 22.9933034021875 48.6184417178315 A 0.5 0.5 0 0 0 22.5 48.2 A 0.5 0.5 0 0 0 22.0066965978125 48.6184417178315 A 4.67022816787241 4.67022816787241 0 0 1 19.733010949515 51.9018332917076 A 14.2397059063707 14.2397059063707 0 0 1 17.3025743389547 53.2406274841038 L 17.6974256610453 54.1593725158962  Z " fill-rule="nonzero" fill="#70b603" stroke="none" />
    <path d="M 22.5 48  L 22.5 120  " stroke-width="1" stroke="#70b603" fill="none" />
  </g>
</svg>