<?xml version="1.0" encoding="utf-8"?>
<svg version="1.1" xmlns:xlink="http://www.w3.org/1999/xlink" width="22px" height="22px" preserveAspectRatio="xMinYMid meet" viewBox="14 313  22 20" xmlns="http://www.w3.org/2000/svg">
  <g transform="matrix(0.0174524064372835 -0.999847695156391 0.999847695156391 0.0174524064372835 -298.387115696446 342.359065099667 )">
    <path d="M 20.6974256610453 328.159372515896  A 15.2397059063707 15.2397059063707 0 0 0 23.267450552573 326.747823878807 A 5.67022816787241 5.67022816787241 0 0 0 25.5 324.332830094822 A 5.67022816787241 5.67022816787241 0 0 0 27.7325494474269 326.747823878807 A 15.2397059063707 15.2397059063707 0 0 0 30.3025743389547 328.159372515896 L 30.6974256610453 327.240627484104  A 14.2397059063707 14.2397059063707 0 0 1 28.2669890504851 325.901833291708 A 4.67022816787241 4.67022816787241 0 0 1 25.9933034021875 322.618441717831 A 0.5 0.5 0 0 0 25.5 322.2 A 0.5 0.5 0 0 0 25.0066965978125 322.618441717831 A 4.67022816787241 4.67022816787241 0 0 1 22.7330109495149 325.901833291708 A 14.2397059063707 14.2397059063707 0 0 1 20.3025743389547 327.240627484104 L 20.6974256610453 328.159372515896  Z " fill-rule="nonzero" fill="#333333" stroke="none" transform="matrix(0.999954651610978 -0.00952337763438161 0.00952337763438161 0.999954651610978 -3.74153102639192 0.260668046562216 )" />
    <path d="M 25.5 322  L 25.5 464  " stroke-width="1" stroke="#333333" fill="none" transform="matrix(0.999954651610978 -0.00952337763438161 0.00952337763438161 0.999954651610978 -3.74153102639192 0.260668046562216 )" />
  </g>
</svg>