<?xml version="1.0" encoding="utf-8"?>
<svg version="1.1" xmlns:xlink="http://www.w3.org/1999/xlink" width="4px" height="4px" preserveAspectRatio="xMinYMid meet" viewBox="20 409  4 2" xmlns="http://www.w3.org/2000/svg">
  <path d="M 17.6974256610453 319.159372515896  A 15.2397059063707 15.2397059063707 0 0 0 20.267450552573 317.747823878807 A 5.67022816787241 5.67022816787241 0 0 0 22.5 315.332830094822 A 5.67022816787241 5.67022816787241 0 0 0 24.7325494474269 317.747823878807 A 15.2397059063707 15.2397059063707 0 0 0 27.3025743389547 319.159372515896 L 27.6974256610453 318.240627484104  A 14.2397059063707 14.2397059063707 0 0 1 25.2669890504851 316.901833291708 A 4.67022816787241 4.67022816787241 0 0 1 22.9933034021875 313.618441717831 A 0.5 0.5 0 0 0 22.5 313.2 A 0.5 0.5 0 0 0 22.0066965978125 313.618441717831 A 4.67022816787241 4.67022816787241 0 0 1 19.7330109495149 316.901833291708 A 14.2397059063707 14.2397059063707 0 0 1 17.3025743389547 318.240627484104 L 17.6974256610453 319.159372515896  Z " fill-rule="nonzero" fill="#333333" stroke="none" transform="matrix(0.999877048258974 0.0156808279411984 -0.0156808279411984 0.999877048258974 5.67138571491631 -0.308371574296075 )" />
  <path d="M 22.5 313  L 22.5 410  " stroke-width="1" stroke="#333333" fill="none" transform="matrix(0.999877048258974 0.0156808279411984 -0.0156808279411984 0.999877048258974 5.67138571491631 -0.308371574296075 )" />
</svg>