<?xml version="1.0" encoding="utf-8"?>
<svg version="1.1" xmlns:xlink="http://www.w3.org/1999/xlink" width="12px" height="12px" viewBox="17 383  12 12" xmlns="http://www.w3.org/2000/svg">
  <path d="M 17.5 388  A 4.5 4.5 0 0 1 22 383.5 L 24 383.5  A 4.5 4.5 0 0 1 28.5 388 L 28.5 390  A 4.5 4.5 0 0 1 24 394.5 L 22 394.5  A 4.5 4.5 0 0 1 17.5 390 L 17.5 388  Z " fill-rule="nonzero" fill="#ffffff" stroke="none" />
  <path d="M 17.5 388  A 4.5 4.5 0 0 1 22 383.5 L 24 383.5  A 4.5 4.5 0 0 1 28.5 388 L 28.5 390  A 4.5 4.5 0 0 1 24 394.5 L 22 394.5  A 4.5 4.5 0 0 1 17.5 390 L 17.5 388  Z " stroke-width="1" stroke="#797979" fill="none" />
  <path d="M 19.5714285714286 389  L 22.1428571428571 391.571428571429  L 26.4285714285714 385.571428571429  " stroke-width="2.57142857142857" stroke="#797979" fill="none" />
</svg>