<?xml version="1.0" encoding="utf-8"?>
<svg version="1.1" xmlns:xlink="http://www.w3.org/1999/xlink" width="12px" height="12px" viewBox="14 229  12 12" xmlns="http://www.w3.org/2000/svg">
  <path d="M 14.5 234  A 4.5 4.5 0 0 1 19 229.5 L 21 229.5  A 4.5 4.5 0 0 1 25.5 234 L 25.5 236  A 4.5 4.5 0 0 1 21 240.5 L 19 240.5  A 4.5 4.5 0 0 1 14.5 236 L 14.5 234  Z " fill-rule="nonzero" fill="#ffffff" stroke="none" />
  <path d="M 14.5 234  A 4.5 4.5 0 0 1 19 229.5 L 21 229.5  A 4.5 4.5 0 0 1 25.5 234 L 25.5 236  A 4.5 4.5 0 0 1 21 240.5 L 19 240.5  A 4.5 4.5 0 0 1 14.5 236 L 14.5 234  Z " stroke-width="1" stroke="#797979" fill="none" />
</svg>