<?xml version="1.0" encoding="utf-8"?>
<svg version="1.1" xmlns:xlink="http://www.w3.org/1999/xlink" width="64px" height="4px" preserveAspectRatio="xMinYMid meet" viewBox="-10 271  64 2" xmlns="http://www.w3.org/2000/svg">
  <g transform="matrix(-0.017452406437279 -0.999847695156392 0.999847695156391 -0.0174524064372843 -249.574620140918 298.743703844382 )">
    <path d="M 17.6974256610453 249.159372515896  A 15.2397059063707 15.2397059063707 0 0 0 20.2674505525733 247.747823878807 A 5.67022816787241 5.67022816787241 0 0 0 22.5 245.332830094822 A 5.67022816787241 5.67022816787241 0 0 0 24.7325494474267 247.747823878807 A 15.2397059063707 15.2397059063707 0 0 0 27.3025743389547 249.159372515896 L 27.6974256610453 248.240627484104  A 14.2397059063707 14.2397059063707 0 0 1 25.2669890504848 246.901833291708 A 4.67022816787241 4.67022816787241 0 0 1 22.9933034021875 243.618441717831 A 0.5 0.5 0 0 0 22.5 243.2 A 0.5 0.5 0 0 0 22.0066965978125 243.618441717831 A 4.67022816787241 4.67022816787241 0 0 1 19.7330109495152 246.901833291708 A 14.2397059063707 14.2397059063707 0 0 1 17.3025743389547 248.240627484104 L 17.6974256610453 249.159372515896  Z " fill-rule="nonzero" fill="#555555" stroke="none" transform="matrix(0.999893156313747 0.0146176590783993 -0.0146176590783993 0.999893156313747 3.97840725226528 -0.29983584660323 )" />
    <path d="M 22.5 243  L 22.5 301  " stroke-width="1" stroke="#555555" fill="none" transform="matrix(0.999893156313747 0.0146176590783993 -0.0146176590783993 0.999893156313747 3.97840725226528 -0.29983584660323 )" />
  </g>
</svg>