<?xml version="1.0" encoding="utf-8"?>
<svg version="1.1" xmlns:xlink="http://www.w3.org/1999/xlink" width="22px" height="20px" preserveAspectRatio="xMinYMid meet" viewBox="14 131  22 18" xmlns="http://www.w3.org/2000/svg">
  <g transform="matrix(0 -1 1 0 -115 165 )">
    <path d="M 19.6974256610453 145.159372515896  A 15.2397059063707 15.2397059063707 0 0 0 22.2674505525733 143.747823878807 A 5.67022816787241 5.67022816787241 0 0 0 24.5 141.332830094822 A 5.67022816787241 5.67022816787241 0 0 0 26.7325494474267 143.747823878807 A 15.2397059063707 15.2397059063707 0 0 0 29.3025743389547 145.159372515896 L 29.6974256610453 144.240627484104  A 14.2397059063707 14.2397059063707 0 0 1 27.2669890504848 142.901833291708 A 4.67022816787241 4.67022816787241 0 0 1 24.9933034021875 139.618441717831 A 0.5 0.5 0 0 0 24.5 139.2 A 0.5 0.5 0 0 0 24.0066965978125 139.618441717831 A 4.67022816787241 4.67022816787241 0 0 1 21.7330109495152 142.901833291708 A 14.2397059063707 14.2397059063707 0 0 1 19.3025743389547 144.240627484104 L 19.6974256610453 145.159372515896  Z " fill-rule="nonzero" fill="#333333" stroke="none" />
    <path d="M 24.5 139  L 24.5 217  " stroke-width="1" stroke="#333333" fill="none" />
  </g>
</svg>