<?xml version="1.0" encoding="utf-8"?>
<svg version="1.1" xmlns:xlink="http://www.w3.org/1999/xlink" width="12px" height="12px" viewBox="18 309  12 12" xmlns="http://www.w3.org/2000/svg">
  <path d="M 18.5 314  A 4.5 4.5 0 0 1 23 309.5 L 25 309.5  A 4.5 4.5 0 0 1 29.5 314 L 29.5 316  A 4.5 4.5 0 0 1 25 320.5 L 23 320.5  A 4.5 4.5 0 0 1 18.5 316 L 18.5 314  Z " fill-rule="nonzero" fill="#ffffff" stroke="none" />
  <path d="M 18.5 314  A 4.5 4.5 0 0 1 23 309.5 L 25 309.5  A 4.5 4.5 0 0 1 29.5 314 L 29.5 316  A 4.5 4.5 0 0 1 25 320.5 L 23 320.5  A 4.5 4.5 0 0 1 18.5 316 L 18.5 314  Z " stroke-width="1" stroke="#797979" fill="none" />
  <path d="M 20.5714285714286 315  L 23.1428571428571 317.571428571429  L 27.4285714285714 311.571428571429  " stroke-width="2.57142857142857" stroke="#797979" fill="none" />
</svg>