<?xml version="1.0" encoding="utf-8"?>
<svg version="1.1" xmlns:xlink="http://www.w3.org/1999/xlink" width="22px" height="22px" preserveAspectRatio="xMinYMid meet" viewBox="16 205  22 20" xmlns="http://www.w3.org/2000/svg">
  <g transform="matrix(-0.0174524064372835 -0.999847695156391 0.999847695156391 -0.0174524064372835 -187.496039484817 245.748155153239 )">
    <path d="M 21.6974256610453 219.159372515896  A 15.2397059063707 15.2397059063707 0 0 0 24.2674505525733 217.747823878807 A 5.67022816787241 5.67022816787241 0 0 0 26.5 215.332830094822 A 5.67022816787241 5.67022816787241 0 0 0 28.7325494474267 217.747823878807 A 15.2397059063707 15.2397059063707 0 0 0 31.3025743389547 219.159372515896 L 31.6974256610453 218.240627484104  A 14.2397059063707 14.2397059063707 0 0 1 29.2669890504848 216.901833291708 A 4.67022816787241 4.67022816787241 0 0 1 26.9933034021875 213.618441717831 A 0.5 0.5 0 0 0 26.5 213.2 A 0.5 0.5 0 0 0 26.0066965978125 213.618441717831 A 4.67022816787241 4.67022816787241 0 0 1 23.7330109495152 216.901833291708 A 14.2397059063707 14.2397059063707 0 0 1 21.3025743389547 218.240627484104 L 21.6974256610453 219.159372515896  Z " fill-rule="nonzero" fill="#333333" stroke="none" transform="matrix(0.999877048258974 0.0156808279411984 -0.0156808279411984 0.999877048258974 4.10379472776057 -0.383390060163435 )" />
    <path d="M 26.5 213  L 26.5 310  " stroke-width="1" stroke="#333333" fill="none" transform="matrix(0.999877048258974 0.0156808279411984 -0.0156808279411984 0.999877048258974 4.10379472776057 -0.383390060163435 )" />
  </g>
</svg>