<?xml version="1.0" encoding="utf-8"?>
<svg version="1.1" xmlns:xlink="http://www.w3.org/1999/xlink" width="4px" height="4px" preserveAspectRatio="xMinYMid meet" viewBox="20 563  4 2" xmlns="http://www.w3.org/2000/svg">
  <path d="M 16.6974256610453 428.159372515896  A 15.2397059063707 15.2397059063707 0 0 0 19.267450552573 426.747823878807 A 5.67022816787241 5.67022816787241 0 0 0 21.5 424.332830094822 A 5.67022816787241 5.67022816787241 0 0 0 23.7325494474269 426.747823878807 A 15.2397059063707 15.2397059063707 0 0 0 26.3025743389547 428.159372515896 L 26.6974256610453 427.240627484104  A 14.2397059063707 14.2397059063707 0 0 1 24.2669890504851 425.901833291708 A 4.67022816787241 4.67022816787241 0 0 1 21.9933034021875 422.618441717831 A 0.5 0.5 0 0 0 21.5 422.2 A 0.5 0.5 0 0 0 21.0066965978125 422.618441717831 A 4.67022816787241 4.67022816787241 0 0 1 18.7330109495149 425.901833291708 A 14.2397059063707 14.2397059063707 0 0 1 16.3025743389547 427.240627484104 L 16.6974256610453 428.159372515896  Z " fill-rule="nonzero" fill="#333333" stroke="none" transform="matrix(0.999954651610978 -0.00952337763438161 0.00952337763438161 0.999954651610978 -4.69405018338617 0.227109374926897 )" />
  <path d="M 21.5 422  L 21.5 564  " stroke-width="1" stroke="#333333" fill="none" transform="matrix(0.999954651610978 -0.00952337763438161 0.00952337763438161 0.999954651610978 -4.69405018338617 0.227109374926897 )" />
</svg>