<?xml version="1.0" encoding="utf-8"?>
<svg version="1.1" xmlns:xlink="http://www.w3.org/1999/xlink" width="12px" height="12px" viewBox="17 563  12 12" xmlns="http://www.w3.org/2000/svg">
  <path d="M 17.5 568  A 4.5 4.5 0 0 1 22 563.5 L 24 563.5  A 4.5 4.5 0 0 1 28.5 568 L 28.5 570  A 4.5 4.5 0 0 1 24 574.5 L 22 574.5  A 4.5 4.5 0 0 1 17.5 570 L 17.5 568  Z " fill-rule="nonzero" fill="#f0f0f0" stroke="none" />
  <path d="M 17.5 568  A 4.5 4.5 0 0 1 22 563.5 L 24 563.5  A 4.5 4.5 0 0 1 28.5 568 L 28.5 570  A 4.5 4.5 0 0 1 24 574.5 L 22 574.5  A 4.5 4.5 0 0 1 17.5 570 L 17.5 568  Z " stroke-width="1" stroke="#797979" fill="none" />
</svg>