<?xml version="1.0" encoding="utf-8"?>
<svg version="1.1" xmlns:xlink="http://www.w3.org/1999/xlink" width="12px" height="12px" viewBox="14 409  12 12" xmlns="http://www.w3.org/2000/svg">
  <path d="M 14.5 414  A 4.5 4.5 0 0 1 19 409.5 L 21 409.5  A 4.5 4.5 0 0 1 25.5 414 L 25.5 416  A 4.5 4.5 0 0 1 21 420.5 L 19 420.5  A 4.5 4.5 0 0 1 14.5 416 L 14.5 414  Z " fill-rule="nonzero" fill="#f0f0f0" stroke="none" />
  <path d="M 14.5 414  A 4.5 4.5 0 0 1 19 409.5 L 21 409.5  A 4.5 4.5 0 0 1 25.5 414 L 25.5 416  A 4.5 4.5 0 0 1 21 420.5 L 19 420.5  A 4.5 4.5 0 0 1 14.5 416 L 14.5 414  Z " stroke-width="1" stroke="#797979" fill="none" />
</svg>