<?xml version="1.0" encoding="utf-8"?>
<svg version="1.1" xmlns:xlink="http://www.w3.org/1999/xlink" width="12px" height="12px" viewBox="201 668.5  12 12" xmlns="http://www.w3.org/2000/svg">
  <path d="M 207 668.5  C 210.36 668.5  213 671.14  213 674.5  C 213 677.86  210.36 680.5  207 680.5  C 203.64 680.5  201 677.86  201 674.5  C 201 671.14  203.64 668.5  207 668.5  Z " fill-rule="nonzero" fill="#ffffff" stroke="none" />
  <path d="M 207 669  C 210.08 669  212.5 671.42  212.5 674.5  C 212.5 677.58  210.08 680  207 680  C 203.92 680  201.5 677.58  201.5 674.5  C 201.5 671.42  203.92 669  207 669  Z " stroke-width="1" stroke="#797979" fill="none" />
  <path d="M 207 677.5  C 205.32 677.5  204 676.18  204 674.5  C 204 672.82  205.32 671.5  207 671.5  C 208.68 671.5  210 672.82  210 674.5  C 210 676.18  208.68 677.5  207 677.5  " fill-rule="nonzero" fill="#797979" stroke="none" />
</svg>