<?xml version="1.0" encoding="utf-8"?>
<svg version="1.1" xmlns:xlink="http://www.w3.org/1999/xlink" width="12px" height="12px" viewBox="270 668.5  12 12" xmlns="http://www.w3.org/2000/svg">
  <path d="M 276 668.5  C 279.36 668.5  282 671.14  282 674.5  C 282 677.86  279.36 680.5  276 680.5  C 272.64 680.5  270 677.86  270 674.5  C 270 671.14  272.64 668.5  276 668.5  Z " fill-rule="nonzero" fill="#ffffff" stroke="none" />
  <path d="M 276 669  C 279.08 669  281.5 671.42  281.5 674.5  C 281.5 677.58  279.08 680  276 680  C 272.92 680  270.5 677.58  270.5 674.5  C 270.5 671.42  272.92 669  276 669  Z " stroke-width="1" stroke="#797979" fill="none" />
  <path d="M 276 677.5  C 274.32 677.5  273 676.18  273 674.5  C 273 672.82  274.32 671.5  276 671.5  C 277.68 671.5  279 672.82  279 674.5  C 279 676.18  277.68 677.5  276 677.5  " fill-rule="nonzero" fill="#797979" stroke="none" />
</svg>