<?xml version="1.0" encoding="utf-8"?>
<svg version="1.1" xmlns:xlink="http://www.w3.org/1999/xlink" width="38px" height="36px" xmlns="http://www.w3.org/2000/svg">
  <g transform="matrix(1 0 0 1 -356 -236 )">
    <path d="M 375 236  C 385.64 236  394 243.92  394 254  C 394 264.08  385.64 272  375 272  C 364.36 272  356 264.08  356 254  C 356 243.92  364.36 236  375 236  Z " fill-rule="nonzero" fill="#d7d7d7" stroke="none" fill-opacity="0.874509803921569" />
    <path d="M 375 236.5  C 385.36 236.5  393.5 244.2  393.5 254  C 393.5 263.8  385.36 271.5  375 271.5  C 364.64 271.5  356.5 263.8  356.5 254  C 356.5 244.2  364.64 236.5  375 236.5  Z " stroke-width="1" stroke="#d7d7d7" fill="none" />
  </g>
</svg>