<?xml version="1.0" encoding="utf-8"?>
<svg version="1.1" xmlns:xlink="http://www.w3.org/1999/xlink" width="38px" height="36px" xmlns="http://www.w3.org/2000/svg">
  <g transform="matrix(1 0 0 1 -236 -236 )">
    <path d="M 255 236  C 265.64 236  274 243.92  274 254  C 274 264.08  265.64 272  255 272  C 244.36 272  236 264.08  236 254  C 236 243.92  244.36 236  255 236  Z " fill-rule="nonzero" fill="#dfe8e0" stroke="none" />
    <path d="M 255 236.5  C 265.36 236.5  273.5 244.2  273.5 254  C 273.5 263.8  265.36 271.5  255 271.5  C 244.64 271.5  236.5 263.8  236.5 254  C 236.5 244.2  244.64 236.5  255 236.5  Z " stroke-width="1" stroke="#d7d7d7" fill="none" />
  </g>
</svg>