<?xml version="1.0" encoding="utf-8"?>
<svg version="1.1" xmlns:xlink="http://www.w3.org/1999/xlink" width="313px" height="95px" xmlns="http://www.w3.org/2000/svg">
  <g transform="matrix(1 0 0 1 -211 -318 )">
    <path d="M 212 328  A 9 9 0 0 1 221 319 L 514 319  A 9 9 0 0 1 523 328 L 523 403  A 9 9 0 0 1 514 412 L 221 412  A 9 9 0 0 1 212 403 L 212 328  Z " fill-rule="nonzero" fill="#ffffff" stroke="none" />
    <path d="M 211.5 328  A 9.5 9.5 0 0 1 221 318.5 L 514 318.5  A 9.5 9.5 0 0 1 523.5 328 L 523.5 403  A 9.5 9.5 0 0 1 514 412.5 L 221 412.5  A 9.5 9.5 0 0 1 211.5 403 L 211.5 328  Z " stroke-width="1" stroke="#d7d7d7" fill="none" stroke-opacity="0.874509803921569" />
  </g>
</svg>