<?xml version="1.0" encoding="utf-8"?>
<svg version="1.1" xmlns:xlink="http://www.w3.org/1999/xlink" width="20px" height="20px" xmlns="http://www.w3.org/2000/svg">
  <g transform="matrix(1 0 0 1 -350 -6 )">
    <path d="M 360 8  C 364.48 8  368 11.52  368 16  C 368 20.48  364.48 24  360 24  C 355.52 24  352 20.48  352 16  C 352 11.52  355.52 8  360 8  Z " fill-rule="nonzero" fill="#0079fe" stroke="none" />
    <path d="M 360 7.5  C 364.76 7.5  368.5 11.24  368.5 16  C 368.5 20.76  364.76 24.5  360 24.5  C 355.24 24.5  351.5 20.76  351.5 16  C 351.5 11.24  355.24 7.5  360 7.5  Z " stroke-width="3" stroke="#ffffff" fill="none" />
  </g>
</svg>