<?xml version="1.0" encoding="utf-8"?>
<svg version="1.1" xmlns:xlink="http://www.w3.org/1999/xlink" width="12px" height="12px" viewBox="307 351.5  12 12" xmlns="http://www.w3.org/2000/svg">
  <path d="M 313 351.5  C 316.36 351.5  319 354.14  319 357.5  C 319 360.86  316.36 363.5  313 363.5  C 309.64 363.5  307 360.86  307 357.5  C 307 354.14  309.64 351.5  313 351.5  Z " fill-rule="nonzero" fill="#ffffff" stroke="none" />
  <path d="M 313 352  C 316.08 352  318.5 354.42  318.5 357.5  C 318.5 360.58  316.08 363  313 363  C 309.92 363  307.5 360.58  307.5 357.5  C 307.5 354.42  309.92 352  313 352  Z " stroke-width="1" stroke="#797979" fill="none" />
  <path d="M 313 360.5  C 311.32 360.5  310 359.18  310 357.5  C 310 355.82  311.32 354.5  313 354.5  C 314.68 354.5  316 355.82  316 357.5  C 316 359.18  314.68 360.5  313 360.5  " fill-rule="nonzero" fill="#797979" stroke="none" />
</svg>