<?xml version="1.0" encoding="utf-8"?>
<svg version="1.1" xmlns:xlink="http://www.w3.org/1999/xlink" width="61px" height="61px" xmlns="http://www.w3.org/2000/svg">
  <g transform="matrix(1 0 0 1 -22 -1741 )">
    <path d="M 14.7030642320004 0.5  C 14.7030642320004 0.5  45.90323811869 0.5  45.90323811869 0.5  C 54.5182115053132 0.5  60.1063023506904 6.125  60.1063023506904 14.796875  C 60.1063023506904 14.796875  60.1063023506904 46.203125  60.1063023506904 46.203125  C 60.1063023506904 54.875  54.5182115053132 60.5  45.90323811869 60.5  C 45.90323811869 60.5  14.7030642320004 60.5  14.7030642320004 60.5  C 6.08809084537722 60.5  0.5 54.875  0.5 46.203125  C 0.5 46.203125  0.5 14.796875  0.5 14.796875  C 0.5 6.125  6.08809084537722 0.5  14.7030642320004 0.5  Z " fill-rule="nonzero" fill="#d8d8d8" stroke="none" transform="matrix(1 0 0 1 22 1741 )" />
  </g>
</svg>