<?xml version="1.0" encoding="utf-8"?>
<svg version="1.1" xmlns:xlink="http://www.w3.org/1999/xlink" width="60px" height="61px" xmlns="http://www.w3.org/2000/svg">
  <g transform="matrix(1 0 0 1 -23 -1615 )">
    <path d="M 14.2030642320004 0.5  C 14.2030642320004 0.5  45.40323811869 0.5  45.40323811869 0.5  C 54.0182115053132 0.5  59.6063023506904 6.125  59.6063023506904 14.796875  C 59.6063023506904 14.796875  59.6063023506904 46.203125  59.6063023506904 46.203125  C 59.6063023506904 54.875  54.0182115053132 60.5  45.40323811869 60.5  C 45.40323811869 60.5  14.2030642320004 60.5  14.2030642320004 60.5  C 5.58809084537722 60.5  0 54.875  0 46.203125  C 0 46.203125  0 14.796875  0 14.796875  C 0 6.125  5.58809084537722 0.5  14.2030642320004 0.5  Z " fill-rule="nonzero" fill="#d8d8d8" stroke="none" transform="matrix(1 0 0 1 23 1615 )" />
  </g>
</svg>