<?xml version="1.0" encoding="utf-8"?>
<svg version="1.1" xmlns:xlink="http://www.w3.org/1999/xlink" width="149px" height="60px" xmlns="http://www.w3.org/2000/svg">
  <defs>
    <mask fill="white" id="clip220">
      <path d="M 146.304864864865 59  L 119.743936423147 59  C 119.286842293517 57.3001472300037  117.496207032274 55.8073270114089  115.356904927134 55.8073270114089  C 113.217387008814 55.8073270114089  111.426606285085 57.3004484371402  110.969701971895 59  L 2.29513513513513 59  C 1.28985945945948 59.3015113350126  0.5 58.512175793024  0.5 57.5075669214021  L 0.5 2.29394441361055  C 0.5 1.28933554198864  1.28985945945948 0.5  2.29513513513513 0.5  L 111.106831967558 0.499984266889513  C 111.71962901064 2.25688872077117  113.391057384817 3.51744702918904  115.356904927134 3.51744702918904  C 117.322747382362 3.51744702918904  118.994172193204 2.25689524474079  119.606979424902 0.5  L 146.304864864865 0.5  C 147.31014054054 0.5  148.1 1.28933554198864  148 2.29394441361055  L 148 57.5075669214021  C 148.1 58.512175793024  147.31014054054 59.3015113350126  146.304864864865 59  Z " fill-rule="evenodd" />
    </mask>
  </defs>
  <g transform="matrix(1 0 0 1 -311 -38 )">
    <path d="M 146.304864864865 59  L 119.743936423147 59  C 119.286842293517 57.3001472300037  117.496207032274 55.8073270114089  115.356904927134 55.8073270114089  C 113.217387008814 55.8073270114089  111.426606285085 57.3004484371402  110.969701971895 59  L 2.29513513513513 59  C 1.28985945945948 59.3015113350126  0.5 58.512175793024  0.5 57.5075669214021  L 0.5 2.29394441361055  C 0.5 1.28933554198864  1.28985945945948 0.5  2.29513513513513 0.5  L 111.106831967558 0.499984266889513  C 111.71962901064 2.25688872077117  113.391057384817 3.51744702918904  115.356904927134 3.51744702918904  C 117.322747382362 3.51744702918904  118.994172193204 2.25689524474079  119.606979424902 0.5  L 146.304864864865 0.5  C 147.31014054054 0.5  148.1 1.28933554198864  148 2.29394441361055  L 148 57.5075669214021  C 148.1 58.512175793024  147.31014054054 59.3015113350126  146.304864864865 59  Z " fill-rule="nonzero" fill="#ffffff" stroke="none" transform="matrix(1 0 0 1 311 38 )" />
    <path d="M 146.304864864865 59  L 119.743936423147 59  C 119.286842293517 57.3001472300037  117.496207032274 55.8073270114089  115.356904927134 55.8073270114089  C 113.217387008814 55.8073270114089  111.426606285085 57.3004484371402  110.969701971895 59  L 2.29513513513513 59  C 1.28985945945948 59.3015113350126  0.5 58.512175793024  0.5 57.5075669214021  L 0.5 2.29394441361055  C 0.5 1.28933554198864  1.28985945945948 0.5  2.29513513513513 0.5  L 111.106831967558 0.499984266889513  C 111.71962901064 2.25688872077117  113.391057384817 3.51744702918904  115.356904927134 3.51744702918904  C 117.322747382362 3.51744702918904  118.994172193204 2.25689524474079  119.606979424902 0.5  L 146.304864864865 0.5  C 147.31014054054 0.5  148.1 1.28933554198864  148 2.29394441361055  L 148 57.5075669214021  C 148.1 58.512175793024  147.31014054054 59.3015113350126  146.304864864865 59  Z " stroke-width="1" stroke="#c98645" fill="none" transform="matrix(1 0 0 1 311 38 )" mask="url(#clip220)" />
  </g>
</svg>