<?xml version="1.0" encoding="utf-8"?>
<svg version="1.1" xmlns:xlink="http://www.w3.org/1999/xlink" width="149px" height="60px" xmlns="http://www.w3.org/2000/svg">
  <defs>
    <mask fill="white" id="clip232">
      <path d="M 146.7 59.5  L 120.067090895157 59.4994007827191  C 119.608758306473 57.4918805251405  117.813270193479 55.9940208098039  115.66817025214 55.9940208098039  C 113.522854185692 55.9940208098039  111.727220399972 57.4921823678626  111.269077857998 59.5  L 2.3 59.5  C 1.292 59.5  0.5 58.708  0.5 57.7  L 0.5 2.3  C 0.5 1.292  1.292 0.5  2.3 0.5  L 111.406579486173 0.499984232451901  C 112.021037231174 2.26281923197644  113.696995216667 3.52763263528841  115.66817025214 3.52763263528841  C 117.639340192769 3.52763263528841  119.315294609495 2.26282577022761  119.929762566975 0.5  L 146.7 0.5  C 147.708 0.5  148.5 1.292  148 2.3  L 148 57.7  C 148.5 58.708  147.708 59.5  146.7 59.5  Z " fill-rule="evenodd" />
    </mask>
  </defs>
  <g transform="matrix(1 0 0 1 1 -38 )">
    <path d="M 146.7 59.5  L 120.067090895157 59.4994007827191  C 119.608758306473 57.4918805251405  117.813270193479 55.9940208098039  115.66817025214 55.9940208098039  C 113.522854185692 55.9940208098039  111.727220399972 57.4921823678626  111.269077857998 59.5  L 2.3 59.5  C 1.292 59.5  0.5 58.708  0.5 57.7  L 0.5 2.3  C 0.5 1.292  1.292 0.5  2.3 0.5  L 111.406579486173 0.499984232451901  C 112.021037231174 2.26281923197644  113.696995216667 3.52763263528841  115.66817025214 3.52763263528841  C 117.639340192769 3.52763263528841  119.315294609495 2.26282577022761  119.929762566975 0.5  L 146.7 0.5  C 147.708 0.5  148.5 1.292  148 2.3  L 148 57.7  C 148.5 58.708  147.708 59.5  146.7 59.5  Z " fill-rule="nonzero" fill="#ffffff" stroke="none" transform="matrix(1 0 0 1 -1 38 )" />
    <path d="M 146.7 59.5  L 120.067090895157 59.4994007827191  C 119.608758306473 57.4918805251405  117.813270193479 55.9940208098039  115.66817025214 55.9940208098039  C 113.522854185692 55.9940208098039  111.727220399972 57.4921823678626  111.269077857998 59.5  L 2.3 59.5  C 1.292 59.5  0.5 58.708  0.5 57.7  L 0.5 2.3  C 0.5 1.292  1.292 0.5  2.3 0.5  L 111.406579486173 0.499984232451901  C 112.021037231174 2.26281923197644  113.696995216667 3.52763263528841  115.66817025214 3.52763263528841  C 117.639340192769 3.52763263528841  119.315294609495 2.26282577022761  119.929762566975 0.5  L 146.7 0.5  C 147.708 0.5  148.5 1.292  148 2.3  L 148 57.7  C 148.5 58.708  147.708 59.5  146.7 59.5  Z " stroke-width="1" stroke="#d09352" fill="none" transform="matrix(1 0 0 1 -1 38 )" mask="url(#clip232)" />
  </g>
</svg>