<?xml version="1.0" encoding="utf-8"?>
<svg version="1.1" xmlns:xlink="http://www.w3.org/1999/xlink" width="22px" height="19px" xmlns="http://www.w3.org/2000/svg">
  <g transform="matrix(1 0 0 1 -136 -859 )">
    <path d="M 20 0.5  C 21.1200000000008 0.5  22 1.38000000000011  22 2.5  L 21.9999999997435 6.5  L 15 6.5  C 13.3199999999997 6.5  12 7.81999999999971  12 9.5  C 12 11.1800000000003  13.3199999999997 12.5  15 12.5  L 22 12.5000041620888  L 22 16.5  C 22 17.6199999999999  21.1200000000008 18.5  20 18.5  L 2 18.5  C 0.8799999999992 18.5  0 17.6199999999999  0 16.5  L 0 2.5  C 0 1.38000000000011  0.8799999999992 0.5  2 0.5  L 20 0.5  Z M 17.187628237858 8.01399810177281  C 16.3592011131586 8.01399810177281  15.687628237858 8.68557097707253  15.687628237858 9.51399810177281  C 15.687628237858 10.3424252264731  16.3592011131586 11.0139981017728  17.187628237858 11.0139981017728  C 18.0160553625574 11.0139981017728  18.687628237858 10.3424252264731  18.687628237858 9.51399810177281  C 18.687628237858 8.68557097707253  18.0160553625574 8.01399810177281  17.187628237858 8.01399810177281  Z " fill-rule="nonzero" fill="#d8d8d8" stroke="none" transform="matrix(1 0 0 1 136 859 )" />
  </g>
</svg>