<?xml version="1.0" encoding="utf-8"?>
<svg version="1.1" xmlns:xlink="http://www.w3.org/1999/xlink" width="20px" height="12px" xmlns="http://www.w3.org/2000/svg">
  <g transform="matrix(1 0 0 1 -49 -374 )">
    <path d="M 20 1.84649278721193  C 20.0000342777077 2.58319829319518  19.6081570818475 3.21943532217946  19.0426113606117 3.51533300738145  C 18.3215354160032 8.3228159173804  14.5424527893559 12  10.0000171388538 12  C 5.45874729899077 12  1.68268201531055 8.32380351061816  0.961400303934704 3.517346166791  C 0.393865872526006 3.22232211890556  0 2.58486958484107  0 1.84649278721193  C 0 0.825702704826689  0.745900443540971 0  1.66666953431132 0  C 2.58809006906303 0  3.33333906862264 0.825702704826689  3.33333906862264 1.84649278721193  C 3.33333906862264 2.46802987355093  3.05430358387557 3.01819447335187  2.62769268294029 3.35306408139244  C 3.26932342233345 7.2164472024307  6.32897590343996 10.1535452228413  10.0000171388538 10.1535452228413  C 13.6708183632998 10.1535452228413  16.7324595545792 7.2177007175641  17.3755646709947 3.35557103742087  C 16.9472051043615 3.02092934122274  16.6666609313774 2.46954927346079  16.6666609313774 1.84649278721193  C 16.6666609313774 0.825702704826691  17.412595652626 0  18.3333304656887 0  C 19.2547167227327 0  20 0.825702704826693  20 1.84649278721193  Z " fill-rule="nonzero" fill="#3d3b48" stroke="none" transform="matrix(1 0 0 1 49 374 )" />
  </g>
</svg>