<?xml version="1.0" encoding="utf-8"?>
<svg version="1.1" xmlns:xlink="http://www.w3.org/1999/xlink" width="20px" height="5px" xmlns="http://www.w3.org/2000/svg">
  <defs>
    <linearGradient gradientUnits="userSpaceOnUse" x1="10" y1="-7.74700193308738" x2="10" y2="9.43310468633076" id="LinearGradient214">
      <stop id="Stop215" stop-color="#cf9154" offset="0" />
      <stop id="Stop216" stop-color="#e7c296" offset="1" />
    </linearGradient>
  </defs>
  <g transform="matrix(1 0 0 1 -133 -369 )">
    <path d="M 0.257480720990429 3.24739916131284  C 1.64038396915942 4.72855965656026  5.48681977964043 4.58970086013073  8.05236979468623 4.3505551551691  C 6.83949563440683 2.79996526170703  5.35457493350407 1.07965906149775  3.32933957552973 0.250363471710898  C 1.87842469220493 -0.335929224324445  1.03583610110741 0.285078170818224  0.427509808880018 1.31880476645961  C 0.0912300572761069 1.90509746249495  -0.248828118503184 2.6611064652775  0.257480720990429 3.24739916131284  Z M 14.6683905256805 4.3852698542762  C 16.0172879562716 4.31584045606155  18.4468147010057 4.21555354752923  19.2251700811227 3.24739916131284  C 20.2377877601098 1.93981216160228  18.2805640372914 -0.783363123930485  16.1533112265834 0.215648772603572  C 14.128075868609 1.17994597003008  12.6771609852842 2.76525056259948  11.4302810074269 4.31584045606155  C 12.5109103215699 4.41998455338353  13.5915396357128 4.45469925249108  14.6683905256805 4.3852698542762  Z " fill-rule="nonzero" fill="url(#LinearGradient214)" stroke="none" transform="matrix(1 0 0 1 133 369 )" />
  </g>
</svg>