<?xml version="1.0" encoding="utf-8"?>
<svg version="1.1" xmlns:xlink="http://www.w3.org/1999/xlink" width="31px" height="18px" xmlns="http://www.w3.org/2000/svg">
  <defs>
    <linearGradient gradientUnits="userSpaceOnUse" x1="15.5" y1="0" x2="15.5" y2="38.7586797802368" id="LinearGradient222">
      <stop id="Stop223" stop-color="#e7c296" offset="0" />
      <stop id="Stop224" stop-color="#f6bf8d" offset="1" />
    </linearGradient>
  </defs>
  <g transform="matrix(1 0 0 1 -127 -382 )">
    <path d="M 15 0.534397482014356  L 15 17.5  C 14.5332843857072 17.5  2.0339574155654 17.4961780575541  2.0339574155654 17.4961780575541  C 1.20166421928536 17.4961780575541  0.5 16.8120503597122  0.5 15.9253597122301  C 0.5 15.9253597122301  0.5 0.534397482014356  0.5 0.534397482014356  L 15 0.534397482014356  Z M 17 0.5  L 31 0.5  C 31 0.5  31 15.894784172662  31 15.894784172662  C 31 16.781474820144  30.2983357807146 17.4656025179856  29.4660425844346 17.4656025179856  C 29.4660425844346 17.4656025179856  16.9667156142928 17.4656025179856  17 17.4656025179856  L 17 0.5  Z " fill-rule="nonzero" fill="url(#LinearGradient222)" stroke="none" transform="matrix(1 0 0 1 127 382 )" />
  </g>
</svg>