<?xml version="1.0" encoding="utf-8"?>
<svg version="1.1" xmlns:xlink="http://www.w3.org/1999/xlink" width="9px" height="9px" xmlns="http://www.w3.org/2000/svg">
  <defs>
    <linearGradient gradientUnits="userSpaceOnUse" x1="4.49825268417537" y1="8.99997633882597" x2="4.49825268417537" y2="-0.000786040215327871" id="LinearGradient246">
      <stop id="Stop247" stop-color="#808080" stop-opacity="0.250980392156863" offset="0" />
      <stop id="Stop248" stop-color="#808080" stop-opacity="0.12156862745098" offset="0.54" />
      <stop id="Stop249" stop-color="#808080" stop-opacity="0.101960784313725" offset="1" />
    </linearGradient>
  </defs>
  <g transform="matrix(1 0 0 1 -449 -876 )">
    <path d="M 1.94681219195876 8.17904016559237  C 0.727825346023054 7.34264450966567  -0.000222437562410747 5.96168913260497  0 4.48634202842745  C 0.000226082473603528 2.34764608591763  1.5145896991375 0.506459231703024  3.61809423771925 0.0874068053191511  C 5.72159877630101 -0.331645621064722  7.82932976738816 0.787960886575776  8.6538525999444 2.76235339816887  C 9.47837543250064 4.73674590976197  8.79041780105795 7.01691170527377  7.01019484188903 8.21009033450619  C 7.01019484188903 8.21009033450619  7.01019484188903 8.2297806855247  7.01019484188903 8.2297806855247  C 6.86321795540797 8.37041264634932  6.68972382572806 8.48058279899974  6.49975482677455 8.55391415613721  C 6.49975482677455 8.55391415613721  6.49367815992794 8.53422380511869  6.49367815992794 8.53422380511869  C 6.28327357036439 8.71446624905742  5.39608021076064 9.00300562359799  4.37671934724333 8.99997633882591  C 4.37671934724333 8.99997633882591  4.3546914299244 8.99997633882591  4.3546914299244 8.99997633882591  C 3.70904557747305 8.99997633882591  3.00870972340228 8.88637815987293  2.39192803847228 8.55391415613721  C 2.39192803847228 8.55391415613721  2.3866109549815 8.54179701704889  2.37825553806743 8.51983470245131  C 2.22197105616042 8.44658861875283  2.07858677676735 8.34864115955335  1.95364844216119 8.2297806855247  C 1.95364844216119 8.2297806855247  1.94681219195876 8.17904016559237  1.94681219195876 8.17904016559237  Z " fill-rule="nonzero" fill="url(#LinearGradient246)" stroke="none" transform="matrix(1 0 0 1 449 876 )" />
  </g>
</svg>