<?xml version="1.0" encoding="utf-8"?>
<svg version="1.1" xmlns:xlink="http://www.w3.org/1999/xlink" width="8px" height="9px" xmlns="http://www.w3.org/2000/svg">
  <defs>
    <linearGradient gradientUnits="userSpaceOnUse" x1="3.39490517937891" y1="8.92493706348027" x2="4.59196279228263" y2="0.0528112123641201" id="LinearGradient226">
      <stop id="Stop227" stop-color="#808080" stop-opacity="0.250980392156863" offset="0" />
      <stop id="Stop228" stop-color="#808080" stop-opacity="0.12156862745098" offset="0.54" />
      <stop id="Stop229" stop-color="#808080" stop-opacity="0.101960784313725" offset="1" />
    </linearGradient>
  </defs>
  <g transform="matrix(1 0 0 1 -462 -865 )">
    <path d="M 7.95504020844246 5.1398698550403  C 8.23919460564502 3.0314939514522  7.15298637400597 0.991948960913412  5.3598730886184 0.266991943904172  C 3.56675980323083 -0.45796507310507  1.56533143566127 0.333246174768369  0.578063357382918 2.15735270117603  C -0.409204720895435 3.98145922758369  -0.107794459579388 6.33125313409135  1.29819231328732 7.77147686899771  C 1.29819231328732 7.77782573996021  1.29819231328732 7.78496821979303  1.29819231328732 7.79131709075553  C 1.40843756489243 7.95228901330708  1.5461800104037 8.08716741266487  1.70342260626531 8.18812152591195  C 1.70342260626531 8.18812152591195  1.71122914430867 8.16907491302444  1.71122914430867 8.16907491302444  C 1.87232770211253 8.37779404591672  2.61394881623163 8.79364509396066  3.51028132066457 8.94204995270916  C 3.51028132066457 8.94204995270916  3.5301525084113 8.94204995270916  3.5301525084113 8.94204995270916  C 4.09790072974649 9.03887023488733  4.72881094070523 9.03014053731389  5.31430129395715 8.79364509396066  C 5.31430129395715 8.79364509396066  5.32068846144717 8.78253456977628  5.3313337405972 8.76190073914814  C 5.47838187502518 8.71283402166482  5.617377591888 8.63752960267058  5.74295120106521 8.53889664659023  C 5.74295120106521 8.53889664659023  5.75572553604525 8.48969289663083  5.75572553604525 8.48969289663083  C 6.93684404998758 7.84547464459737  7.75916507364625 6.59297997104815  7.95504020844247 5.1398698550403  Z " fill-rule="nonzero" fill="url(#LinearGradient226)" stroke="none" transform="matrix(1 0 0 1 462 865 )" />
  </g>
</svg>