<?xml version="1.0" encoding="utf-8"?>
<svg version="1.1" xmlns:xlink="http://www.w3.org/1999/xlink" width="30px" height="33px" xmlns="http://www.w3.org/2000/svg">
  <defs>
    <linearGradient gradientUnits="userSpaceOnUse" x1="15" y1="0" x2="20.4331560601198" y2="41.309012928617" id="LinearGradient217">
      <stop id="Stop218" stop-color="#e7c296" offset="0" />
      <stop id="Stop219" stop-color="#f6bf8d" offset="1" />
    </linearGradient>
  </defs>
  <g transform="matrix(1 0 0 1 -44 -367 )">
    <path d="M 30 3.66660800547049  C 30 1.6457703625216  28.5063107076947 0  26.666689525957 0  C 26.666689525957 0  3.333310474043 0  3.333310474043 0  C 1.49427218187091 0  0 1.64573265965018  0 3.66664570834192  C 0 3.66664570834192  0 29.3333542916581  0 29.3333542916581  C 0 31.3569073521642  1.49427218187091 33  3.333310474043 33  C 3.333310474043 33  26.666689525957 33  26.666689525957 33  C 28.5063107076947 33  30.0000342777665 31.3569450550356  30 29.3332788490601  C 30 29.3332788490601  30 3.66660800547049  30 3.66660800547049  Z " fill-rule="nonzero" fill="url(#LinearGradient217)" stroke="none" transform="matrix(1 0 0 1 44 367 )" />
  </g>
</svg>