<?xml version="1.0" encoding="utf-8"?>
<svg version="1.1" xmlns:xlink="http://www.w3.org/1999/xlink" width="9px" height="9px" xmlns="http://www.w3.org/2000/svg">
  <defs>
    <linearGradient gradientUnits="userSpaceOnUse" x1="5.23158333218236" y1="8.94376206506882" x2="3.77125823384599" y2="0.0567197342672775" id="LinearGradient242">
      <stop id="Stop243" stop-color="#808080" stop-opacity="0.250980392156863" offset="0" />
      <stop id="Stop244" stop-color="#808080" stop-opacity="0.12156862745098" offset="0.54" />
      <stop id="Stop245" stop-color="#808080" stop-opacity="0.101960784313725" offset="1" />
    </linearGradient>
  </defs>
  <g transform="matrix(1 0 0 1 -429 -873 )">
    <path d="M 8.9400089753776 3.76210980659276  C 8.59272853350358 1.65051582569672  6.79974218442069 0.077040071199187  4.65617854948173 0.00273745276879881  C 2.51261491454278 -0.071565165661585  0.614488001634784 1.37396506120208  0.121144679376611 3.45642039383419  C -0.372198642881563 5.53887572646631  0.676414847695184 7.6792332103731  2.62650807951361 8.57019525137492  C 2.62650807951361 8.57019525137492  2.63272062652061 8.58956394878381  2.63272062652061 8.58956394878381  C 2.80053614277082 8.70447124248174  2.98951972977463 8.78504863265547  3.18874358364713 8.82663680506858  C 3.18874358364713 8.82663680506858  3.18874358364713 8.80571861186699  3.18874358364713 8.80571861186699  C 3.42559693828902 8.94982172058911  4.34816016882855 9.09160058562216  5.35381621558671 8.92425504000937  C 5.35381621558671 8.92425504000937  5.37556013011121 8.92425504000937  5.37556013011121 8.92425504000937  C 6.01312276670461 8.8212135697941  6.68563098021239 8.59498718405829  7.23932423221128 8.16732634527006  C 7.23932423221128 8.16732634527006  7.23932423221128 8.15493037892838  7.24708991597003 8.13168794203771  C 7.38943029662822 8.03417103883929  7.51504121933861 7.91434862195592  7.61906616801417 7.7768534055069  C 7.61906616801417 7.75929245318951  7.61906616801417 7.74224799946969  7.61906616801417 7.72572004434744  C 8.68693269031289 6.70225782570091  9.18101032179199 5.21973250555859  8.9400089753776 3.76210980659276  Z " fill-rule="nonzero" fill="url(#LinearGradient242)" stroke="none" transform="matrix(1 0 0 1 429 873 )" />
  </g>
</svg>