<?xml version="1.0" encoding="utf-8"?>
<svg version="1.1" xmlns:xlink="http://www.w3.org/1999/xlink" width="26px" height="19px" xmlns="http://www.w3.org/2000/svg">
  <defs>
    <mask fill="white" id="clip689">
      <path d="M 0 19  L 0 10  L 0 8  L 0 0  L 26 0  L 26 19  L 0 19  Z " fill-rule="evenodd" />
    </mask>
  </defs>
  <g transform="matrix(1 0 0 1 -235 -36 )">
    <path d="M 0 19  L 0 10  L 0 8  L 0 0  L 26 0  L 26 19  L 0 19  Z " fill-rule="nonzero" fill="#ffffff" stroke="none" transform="matrix(1 0 0 1 235 36 )" />
    <path d="M 0 19  L 0 10  L 0 8  L 0 0  L 26 0  L 26 19  L 0 19  Z " stroke-width="2" stroke="#797979" fill="none" transform="matrix(1 0 0 1 235 36 )" mask="url(#clip689)" />
  </g>
</svg>