<?xml version="1.0" encoding="utf-8"?>
<svg version="1.1" xmlns:xlink="http://www.w3.org/1999/xlink" width="71px" height="43px" xmlns="http://www.w3.org/2000/svg">
  <g transform="matrix(1 0 0 1 -255 -250 )">
    <path d="M 67.5486111111111 43  L 36.9791666666668 43  L 19.2666859276466 43  L 2.46527777777788 43  C 1.79759837962994 43  1.21979890046346 42.6916515700465  0.731879340277747 42.0749547101485  C 0.243959780092172 41.4582578502414  0 40.7279589371963  0 39.8840579710181  C 0 39.0401570048305  0.243959780092172 38.3098580917856  0.731879340277747 37.6931612318877  L 17.9888237847223 15.8815670289866  C 18.4767433449078 15.264870169084  19.0545428240746 14.9565217391305  19.722222222222 14.9565217391305  C 20.3899016203699 14.9565217391305  20.9677010995365 15.264870169084  21.4556206597223 15.8815670289866  L 26.190770454165 21.8664834781603  L 40.9621310763889 1.41840277777732  C 41.6452184606494 0.472800925924122  42.4541377314828 0  43.3888888888889 0  C 44.3236400462949 0  45.1325593171283 0.472800925924122  45.8156467013889 1.41840277777732  L 69.975368923611 34.8628472222227  C 70.6584563078718 35.8084490740712  71 36.9282407407395  71 38.2222222222228  C 71 39.5162037037015  70.6584563078718 40.6359953703697  69.975368923611 41.5815972222227  C 69.2922815393506 42.5271990740712  68.483362268517 43  67.5486111111111 43  Z " fill-rule="nonzero" fill="#7f7f7f" stroke="none" transform="matrix(1 0 0 1 255 250 )" />
  </g>
</svg>