<?xml version="1.0" encoding="utf-8"?>
<svg version="1.1" xmlns:xlink="http://www.w3.org/1999/xlink" width="59px" height="32px" xmlns="http://www.w3.org/2000/svg">
  <defs>
    <mask fill="white" id="clip159">
      <path d="M 56.1319444444445 32  L 30.7291666666667 32  L 16.0103446441007 32  L 2.0486111111112 32  C 1.49377893518545 32  1.01363570601893 31.7705314009648  0.608181423611086 31.3115942029012  C 0.202727141203354 30.8526570048308  0 30.30917874396  0 29.6811594202926  C 0 29.0531400966181  0.202727141203354 28.5096618357474  0.608181423611086 28.0507246376838  L 14.9484592013889 11.8188405797109  C 15.3539134837966 11.3599033816439  15.8340567129634 11.1304347826087  16.3888888888887 11.1304347826087  C 16.9437210648144 11.1304347826087  17.4238642939811 11.3599033816439  17.8293185763889 11.8188405797109  L 21.7641613633202 16.2727318907239  L 34.0389539930555 1.05555555555521  C 34.606589988427 0.35185185185051  35.2787905092604 0  36.0555555555555 0  C 36.8323206018507 0  37.5045211226841 0.35185185185051  38.0721571180555 1.05555555555521  L 58.1485460069443 25.9444444444448  C 58.716182002316 26.648148148146  59 27.4814814814805  59 28.4444444444449  C 59 29.4074074074058  58.716182002316 30.2407407407402  58.1485460069443 30.9444444444448  C 57.580910011573 31.648148148146  56.9087094907395 32  56.1319444444445 32  Z " fill-rule="evenodd" />
    </mask>
  </defs>
  <g transform="matrix(1 0 0 1 -72 -206 )">
    <path d="M 56.1319444444445 32  L 30.7291666666667 32  L 16.0103446441007 32  L 2.0486111111112 32  C 1.49377893518545 32  1.01363570601893 31.7705314009648  0.608181423611086 31.3115942029012  C 0.202727141203354 30.8526570048308  0 30.30917874396  0 29.6811594202926  C 0 29.0531400966181  0.202727141203354 28.5096618357474  0.608181423611086 28.0507246376838  L 14.9484592013889 11.8188405797109  C 15.3539134837966 11.3599033816439  15.8340567129634 11.1304347826087  16.3888888888887 11.1304347826087  C 16.9437210648144 11.1304347826087  17.4238642939811 11.3599033816439  17.8293185763889 11.8188405797109  L 21.7641613633202 16.2727318907239  L 34.0389539930555 1.05555555555521  C 34.606589988427 0.35185185185051  35.2787905092604 0  36.0555555555555 0  C 36.8323206018507 0  37.5045211226841 0.35185185185051  38.0721571180555 1.05555555555521  L 58.1485460069443 25.9444444444448  C 58.716182002316 26.648148148146  59 27.4814814814805  59 28.4444444444449  C 59 29.4074074074058  58.716182002316 30.2407407407402  58.1485460069443 30.9444444444448  C 57.580910011573 31.648148148146  56.9087094907395 32  56.1319444444445 32  Z " fill-rule="nonzero" fill="#7f7f7f" stroke="none" transform="matrix(1 0 0 1 72 206 )" />
    <path d="M 56.1319444444445 32  L 30.7291666666667 32  L 16.0103446441007 32  L 2.0486111111112 32  C 1.49377893518545 32  1.01363570601893 31.7705314009648  0.608181423611086 31.3115942029012  C 0.202727141203354 30.8526570048308  0 30.30917874396  0 29.6811594202926  C 0 29.0531400966181  0.202727141203354 28.5096618357474  0.608181423611086 28.0507246376838  L 14.9484592013889 11.8188405797109  C 15.3539134837966 11.3599033816439  15.8340567129634 11.1304347826087  16.3888888888887 11.1304347826087  C 16.9437210648144 11.1304347826087  17.4238642939811 11.3599033816439  17.8293185763889 11.8188405797109  L 21.7641613633202 16.2727318907239  L 34.0389539930555 1.05555555555521  C 34.606589988427 0.35185185185051  35.2787905092604 0  36.0555555555555 0  C 36.8323206018507 0  37.5045211226841 0.35185185185051  38.0721571180555 1.05555555555521  L 58.1485460069443 25.9444444444448  C 58.716182002316 26.648148148146  59 27.4814814814805  59 28.4444444444449  C 59 29.4074074074058  58.716182002316 30.2407407407402  58.1485460069443 30.9444444444448  C 57.580910011573 31.648148148146  56.9087094907395 32  56.1319444444445 32  Z " stroke-width="2" stroke="#e4e4e4" fill="none" transform="matrix(1 0 0 1 72 206 )" mask="url(#clip159)" />
  </g>
</svg>