<?xml version="1.0" encoding="utf-8"?>
<svg version="1.1" xmlns:xlink="http://www.w3.org/1999/xlink" width="11px" height="11px" xmlns="http://www.w3.org/2000/svg">
  <defs>
    <mask fill="white" id="clip305">
      <path d="M 0 5.5  C 0 8.5375661239  2.4624338761 11  5.5 11  C 8.5375661239 11  11 8.5375661239  11 5.5  C 11 2.4624338761  8.5375661239 0  5.5 0  C 2.4624338761 0  0 2.4624338761  0 5.5  Z " fill-rule="evenodd" />
    </mask>
  </defs>
  <g transform="matrix(1 0 0 1 -223 -191 )">
    <path d="M 0 5.5  C 0 8.5375661239  2.4624338761 11  5.5 11  C 8.5375661239 11  11 8.5375661239  11 5.5  C 11 2.4624338761  8.5375661239 0  5.5 0  C 2.4624338761 0  0 2.4624338761  0 5.5  Z " fill-rule="nonzero" fill="#3e3e3e" stroke="none" transform="matrix(1 0 0 1 223 191 )" />
    <path d="M 0 5.5  C 0 8.5375661239  2.4624338761 11  5.5 11  C 8.5375661239 11  11 8.5375661239  11 5.5  C 11 2.4624338761  8.5375661239 0  5.5 0  C 2.4624338761 0  0 2.4624338761  0 5.5  Z " stroke-width="2" stroke="#7e7e7e" fill="none" transform="matrix(1 0 0 1 223 191 )" mask="url(#clip305)" />
  </g>
</svg>