<?xml version="1.0" encoding="utf-8"?>
<svg version="1.1" xmlns:xlink="http://www.w3.org/1999/xlink" width="240px" height="140px" xmlns="http://www.w3.org/2000/svg">
  <g transform="matrix(1 0 0 1 -52 -40 )">
    <path d="M 1 131.762467466399  L 1 11.7624674663988  C 1.01663584221584 7.2824674663988  4.53663584221585 3.76246746639882  9.01663584221586 3.76246746639882  L 238.599000885812 0.93730985356967  C 241.946394955045 5.21034552965397  232.753076076601 20.2197633566879  210.075627881697 43.509022541287  C 187.398179686793 66.7982817258861  180.20195643901 72.8427800176932  166.603682713696 84.0966438737842  C 153.005408988382 95.3505077298751  126.393065113639 113.762540699242  126.393065113639 113.762540699242  C 126.393065113639 113.762540699242  104.123434418222 129.536860769842  91.6969549106781 135.996213063113  C 79.2704754031342 142.455565356385  90.9443644610722 136.905231101075  90.0570429597917 136.905231101075  L 9.01663584221598 139.762467466399  C 4.53663584221601 139.762467466399  1.01663584221591 136.242467466399  1 131.762467466399  Z " fill-rule="nonzero" fill="#cf9152" stroke="none" transform="matrix(1 0 0 1 52 40 )" />
  </g>
</svg>