<?xml version="1.0" encoding="utf-8"?>
<svg version="1.1" xmlns:xlink="http://www.w3.org/1999/xlink" width="12px" height="12px" xmlns="http://www.w3.org/2000/svg">
  <g transform="matrix(1 0 0 1 -67 -978 )">
    <path d="M 9.890625 5.0859375  C 9.984375 4.9921875  10.03125 4.875  10.03125 4.734375  C 10.03125 4.58854166666667  9.984375 4.46875  9.890625 4.375  L 9.1796875 3.671875  C 9.08072916666667 3.57291666666667  8.96354166666667 3.5234375  8.828125 3.5234375  C 8.69270833333333 3.5234375  8.57552083333333 3.57291666666667  8.4765625 3.671875  L 5.2890625 6.8515625  L 3.5234375 5.0859375  C 3.42447916666667 4.98697916666667  3.30729166666667 4.9375  3.171875 4.9375  C 3.03645833333333 4.9375  2.91927083333333 4.98697916666667  2.8203125 5.0859375  L 2.109375 5.7890625  C 2.015625 5.8828125  1.96875 6.00260416666667  1.96875 6.1484375  C 1.96875 6.2890625  2.015625 6.40625  2.109375 6.5  L 4.9375 9.328125  C 5.03645833333333 9.42708333333333  5.15364583333333 9.4765625  5.2890625 9.4765625  C 5.4296875 9.4765625  5.54947916666667 9.42708333333333  5.6484375 9.328125  L 9.890625 5.0859375  Z M 11.1953125 2.98828125  C 11.7317708333333 3.90755208333333  12 4.91145833333333  12 6  C 12 7.08854166666667  11.7317708333333 8.09244791666666  11.1953125 9.01171875  C 10.6588541666667 9.93098958333333  9.93098958333333 10.6588541666667  9.01171875 11.1953125  C 8.09244791666667 11.7317708333333  7.08854166666667 12  6 12  C 4.91145833333333 12  3.90755208333333 11.7317708333333  2.98828125 11.1953125  C 2.06901041666667 10.6588541666667  1.34114583333333 9.93098958333333  0.8046875 9.01171875  C 0.268229166666667 8.09244791666666  0 7.08854166666667  0 6  C 0 4.91145833333333  0.268229166666667 3.90755208333333  0.8046875 2.98828125  C 1.34114583333333 2.06901041666667  2.06901041666667 1.34114583333333  2.98828125 0.8046875  C 3.90755208333333 0.268229166666666  4.91145833333333 0  6 0  C 7.08854166666667 0  8.09244791666667 0.268229166666666  9.01171875 0.8046875  C 9.93098958333333 1.34114583333333  10.6588541666667 2.06901041666667  11.1953125 2.98828125  Z " fill-rule="nonzero" fill="#000000" stroke="none" transform="matrix(1 0 0 1 67 978 )" />
  </g>
</svg>