<?xml version="1.0" encoding="utf-8"?>
<svg version="1.1" xmlns:xlink="http://www.w3.org/1999/xlink" width="340px" height="94px" xmlns="http://www.w3.org/2000/svg">
  <defs>
    <filter x="16px" y="232px" width="340px" height="94px" filterUnits="userSpaceOnUse" id="filter201">
      <feOffset dx="0" dy="1" in="SourceAlpha" result="shadowOffsetInner" />
      <feGaussianBlur stdDeviation="3.5" in="shadowOffsetInner" result="shadowGaussian" />
      <feComposite in2="shadowGaussian" operator="atop" in="SourceAlpha" result="shadowComposite" />
      <feColorMatrix type="matrix" values="0 0 0 0 0.929411764705882  0 0 0 0 0.929411764705882  0 0 0 0 0.929411764705882  0 0 0 1 0  " in="shadowComposite" />
    </filter>
    <g id="widget202">
      <path d="M 3.07419099262734 75.3982300884955  C 3.07419099262734 74.2757436049363  2.19949803603595 73.3275828863775  0.999996458424903 73.0229623446747  L 0.999993687642018 70.6938498582527  C 2.19949699702283 70.3892323991968  3.07419099262734 69.4410712210343  3.07419099262734 68.3185840707966  C 3.07419099262734 67.1960951595023  2.19949425242703 66.2479327672796  0.999988036320246 65.9433167805665  L 0.999985265551913 63.6142059793566  C 2.19949290268687 63.3095908197193  3.07419099262734 62.3614278304454  3.07419099262734 61.2389380530973  C 3.07419099262734 60.1164465159528  2.19949016004739 59.1682823134887  0.999979614257427 58.863668640883  L 0.999976843503646 56.5345621004261  C 2.19948880836546 56.2299492402121  3.07419099262734 55.28178443984  3.07419099262734 54.1592920353984  C 3.07419099262734 53.036797871902  2.19948606687649 52.0886318588522  0.999971192236444 51.7840204942815  L 0.999968421494486 49.4549182214618  C 2.1994847140586 49.1503076606768  3.07419099262734 48.2021410492193  3.07419099262734 47.0796460176991  C 3.07419099262734 45.9571492276545  2.19948197338999 45.0089814038856  0.999962770248203 44.7043723448848  L 0.999959999518069 42.3752743424654  C 2.19948061976447 42.0706660811168  3.07419099262734 41.1224976585847  3.07419099262734 40.0000000000002  C 3.07419099262734 38.8775005832254  2.19947787961064 37.9293309486143  0.999954348283609 37.6247241929346  L 0.999951577563479 35.2956304634397  C 2.19947652547671 34.9910245015381  3.07419099262734 34.0428542679406  3.07419099262734 32.9203539823014  C 3.07419099262734 31.7978519387305  2.19947378571851 30.8496804932336  0.999945926338114 30.5450760399966  L 0.999943155628898 28.2159865843844  C 2.1994724311935 27.9113829219401  3.07419099262734 26.9632108772858  3.07419099262734 25.840707964602  C 3.07419099262734 24.718203294076  2.19946969156899 23.7700300375853  0.999937504412628 23.4654278848271  L 0.999934733712507 21.1363427053017  C 2.19946833691483 20.8317413423261  3.07419099262734 19.8835674866233  3.07419099262734 18.7610619469032  C 3.07419099262734 17.6385546496687  2.19946559779419 16.6903795823563  0.999929082505332 16.3857797328768  L 0.999926311814306 14.05669882619  C 2.19946424264072 13.7520997626952  3.07419099262734 12.8039240959512  3.07419099262734 11.6814159292039  C 3.07419099262734 10.5589060050708  2.19946150371379 9.61072912680737  0.999920660607131 9.30613157831221  L 0.9999178899252 6.97705494705174  C 2.1994601483666 6.67245818305101  3.07419099262734 5.72428070527277  3.07419099262734 4.60176991150499  C 3.07419099262734 3.5917367602028  2.36597676705605 2.72285026582379  1.35016993422869 2.33696166771073  C 1.97127830682803 0.947529481564738  3.35643058774622 0  5 0  L 322 0  C 324.24 0  326 1.75999999999998  326 3.99999999999998  L 326 76  C 326 78.24  324.24 80  322 80  L 5 80  C 3.35643058774622 80  1.97127830682803 79.0524705184355  1.35016992662804 77.6630383148097  C 2.36597676705605 77.2771497341767  3.07419099262734 76.4082632397976  3.07419099262734 75.3982300884955  Z " fill-rule="nonzero" fill="#ffffff" stroke="none" transform="matrix(1 0 0 1 23 238 )" />
    </g>
  </defs>
  <g transform="matrix(1 0 0 1 -16 -232 )">
    <use xlink:href="#widget202" filter="url(#filter201)" />
    <use xlink:href="#widget202" />
  </g>
</svg>