<?xml version="1.0" encoding="utf-8"?>
<svg version="1.1" xmlns:xlink="http://www.w3.org/1999/xlink" width="45px" height="48px" xmlns="http://www.w3.org/2000/svg">
  <g transform="matrix(1 0 0 1 -164 -51 )">
    <path d="M 2.84952913318895 27.3050219122163  L 0 24.9636302101071  L 0 2.5635834266518  C 0 1.1279767077267  1.12044294984264 0  2.54645767567054 0  L 42.2154499092129 0  C 43.6414646350408 0  44.7619047767624 1.1279767077267  44 2.5635834266518  L 44 24.7033544004773  L 41.5394835281073 27.361777060974  L 37.8761473325387 23.8668150908275  L 34.0901476148612 27.4589639749956  L 29.8278375270582 23.898206212928  L 25.9414317812023 27.390405764329  L 22.1658188940264 23.8552631578948  L 18.3610239592512 27.4790542931401  L 14.3450301376186 23.9537057168009  L 10.5684280284903 27.4798076800701  L 6.53363898976001 23.9308529799121  L 2.84952913318895 27.3050219122163  Z M 0 44.5022060470324  L 0 28.3110314233625  L 2.76000454648894 30.4865749193145  L 6.72703188147225 27.2741330480701  L 10.5528477827382 30.7078195478762  L 14.5606805232623 27.3052730411932  L 18.3454437134992 30.4923508857808  L 22.2573219246321 27.3607725450665  L 26.1424911430464 30.624946985532  L 30.0922070938621 27.3226009405928  L 33.8480355419888 30.6430282718618  L 37.822729347104 27.2593164384389  L 41.8092938156499 30.6219334378104  L 44 28.4713679031345  L 44 44.5022060470324  C 44.7619047767624 45.9378127659575  43.6414646350408 47.0657894736842  42.2154499092129 47  L 2.54645767567054 47  C 1.12044294984264 47.0657894736842  0 45.9378127659575  0 44.5022060470324  Z " fill-rule="nonzero" fill="#ffffff" stroke="none" transform="matrix(1 0 0 1 164 51 )" />
  </g>
</svg>