<?xml version="1.0" encoding="utf-8"?>
<svg version="1.1" xmlns:xlink="http://www.w3.org/1999/xlink" width="13px" height="13px" xmlns="http://www.w3.org/2000/svg">
  <defs>
    <mask fill="white" id="clip210">
      <path d="M 0 6.50000000000006  C 0 10.0898508737001  2.91014912629994 13.0000000000001  6.49999999999994 13.0000000000001  C 10.0898508736999 13.0000000000001  12.9999999999999 10.0898508737001  12.9999999999999 6.50000000000006  C 12.9999999999999 2.91014912630006  10.0898508736999 0  6.49999999999994 0  C 2.91014912629994 0  0 2.91014912630006  0 6.50000000000006  Z " fill-rule="evenodd" />
    </mask>
  </defs>
  <g transform="matrix(1 0 0 1 -198 -87 )">
    <path d="M 0 6.50000000000006  C 0 10.0898508737001  2.91014912629994 13.0000000000001  6.49999999999994 13.0000000000001  C 10.0898508736999 13.0000000000001  12.9999999999999 10.0898508737001  12.9999999999999 6.50000000000006  C 12.9999999999999 2.91014912630006  10.0898508736999 0  6.49999999999994 0  C 2.91014912629994 0  0 2.91014912630006  0 6.50000000000006  Z " fill-rule="nonzero" fill="#ffffff" stroke="none" transform="matrix(1 0 0 1 198 87 )" />
    <path d="M 0 6.50000000000006  C 0 10.0898508737001  2.91014912629994 13.0000000000001  6.49999999999994 13.0000000000001  C 10.0898508736999 13.0000000000001  12.9999999999999 10.0898508737001  12.9999999999999 6.50000000000006  C 12.9999999999999 2.91014912630006  10.0898508736999 0  6.49999999999994 0  C 2.91014912629994 0  0 2.91014912630006  0 6.50000000000006  Z " stroke-width="1.28" stroke="#e2262a" fill="none" transform="matrix(1 0 0 1 198 87 )" mask="url(#clip210)" />
  </g>
</svg>