<?xml version="1.0" encoding="utf-8"?>
<svg version="1.1" xmlns:xlink="http://www.w3.org/1999/xlink" width="45px" height="220px" xmlns="http://www.w3.org/2000/svg">
  <g transform="matrix(1 0 0 1 -371 -655 )">
    <path d="M 371.941176470588 857.217854969744  C 371.941176470588 857.217854969744  371.941176470588 660.416666666667  371.941176470588 660.416666666667  C 371.941176470588 657.931385292428  373.95589509635 655.916666666667  376.441176470588 655.916666666667  C 376.441176470588 655.916666666667  410.558823529412 655.916666666667  410.558823529412 655.916666666667  C 413.04410490365 655.916666666667  415.058823529412 657.931385292428  415.058823529412 660.416666666667  C 415.058823529412 660.416666666667  415.058823529412 857.217854969744  415.058823529412 857.217854969744  C 415.058823529412 859.703136343983  413.04410490365 861.717854969744  410.558823529412 861.717854969744  C 410.558823529412 861.717854969744  402.962087734281 861.717854969744  402.962087734281 861.717854969744  C 402.962087734281 861.717854969744  393.208991678476 873.161778476648  393.208991678476 873.161778476648  C 393.208991678476 873.161778476648  383.423235685469 861.717854969744  383.423235685469 861.717854969744  C 383.423235685469 861.717854969744  376.441176470588 861.717854969744  376.441176470588 861.717854969744  C 373.95589509635 861.717854969744  371.941176470588 859.703136343983  371.941176470588 857.217854969744  Z " fill-rule="nonzero" fill="#ffffff" stroke="none" fill-opacity="0.8" />
    <path d="M 371.441176470588 857.217854969744  C 371.441176470588 857.217854969744  371.441176470588 660.416666666667  371.441176470588 660.416666666667  C 371.441176470588 657.655242917513  373.679752721434 655.416666666667  376.441176470588 655.416666666667  C 376.441176470588 655.416666666667  410.558823529412 655.416666666667  410.558823529412 655.416666666667  C 413.320247278566 655.416666666667  415.558823529412 657.655242917513  415.558823529412 660.416666666667  C 415.558823529412 660.416666666667  415.558823529412 857.217854969744  415.558823529412 857.217854969744  C 415.558823529412 859.979278718898  413.320247278566 862.217854969744  410.558823529412 862.217854969744  C 410.558823529412 862.217854969744  403.192911947388 862.217854969744  403.192911947388 862.217854969744  C 403.192911947388 862.217854969744  393.209627329193 873.931873253228  393.209627329193 873.931873253228  C 393.209627329193 873.931873253228  383.192911947388 862.217854969744  383.192911947388 862.217854969744  C 383.192911947388 862.217854969744  376.441176470588 862.217854969744  376.441176470588 862.217854969744  C 373.679752721434 862.217854969744  371.441176470588 859.979278718898  371.441176470588 857.217854969744  Z M 372.441176470588 857.217854969744  C 372.441176470588 859.426993969068  374.232037471265 861.217854969744  376.441176470588 861.217854969744  C 376.441176470588 861.217854969744  383.653559423549 861.217854969744  383.653559423549 861.217854969744  C 383.653559423549 861.217854969744  393.208356027759 872.391683700068  393.208356027759 872.391683700068  C 393.208356027759 872.391683700068  402.731263521174 861.217854969744  402.731263521174 861.217854969744  C 402.731263521174 861.217854969744  410.558823529412 861.217854969744  410.558823529412 861.217854969744  C 412.767962528735 861.217854969744  414.558823529412 859.426993969068  414.558823529412 857.217854969744  C 414.558823529412 857.217854969744  414.558823529412 660.416666666667  414.558823529412 660.416666666667  C 414.558823529412 658.207527667343  412.767962528735 656.416666666667  410.558823529412 656.416666666667  C 410.558823529412 656.416666666667  376.441176470588 656.416666666667  376.441176470588 656.416666666667  C 374.232037471265 656.416666666667  372.441176470588 658.207527667343  372.441176470588 660.416666666667  C 372.441176470588 660.416666666667  372.441176470588 857.217854969744  372.441176470588 857.217854969744  Z " fill-rule="nonzero" fill="#e9e9e9" stroke="none" />
  </g>
</svg>