<?xml version="1.0" encoding="utf-8"?>
<svg version="1.1" xmlns:xlink="http://www.w3.org/1999/xlink" width="200px" height="50px" xmlns="http://www.w3.org/2000/svg">
  <g transform="matrix(1 0 0 1 -300 -363 )">
    <path d="M 300 398.026036445757  C 300 398.026036445757  300 368  300 368  C 300 365.238576250846  302.238576250846 363  305 363  C 305 363  495 363  495 363  C 497.761423749154 363  500 365.238576250846  500 368  C 500 368  500 398.026036445757  500 398.026036445757  C 500 400.787460194911  497.761423749154 403.026036445757  495 403.026036445757  C 495 403.026036445757  349.006211180124 403.026036445757  349.006211180124 403.026036445757  C 349.006211180124 403.026036445757  338.902691511387 412.642728156539  338.902691511387 412.642728156539  C 338.902691511387 412.642728156539  329.006211180124 403.026036445757  329.006211180124 403.026036445757  C 329.006211180124 403.026036445757  305 403.026036445757  305 403.026036445757  C 302.238576250846 403.026036445757  300 400.787460194911  300 398.026036445757  Z " fill-rule="nonzero" fill="#000000" stroke="none" fill-opacity="0.8" />
  </g>
</svg>