<?xml version="1.0" encoding="utf-8"?>
<svg version="1.1" xmlns:xlink="http://www.w3.org/1999/xlink" width="10px" height="10px" xmlns="http://www.w3.org/2000/svg">
  <g transform="matrix(1 0 0 1 4 -6 )">
    <path d="M 1 6  C 3.8 6  6 8.2  6 11  C 6 13.8  3.8 16  1 16  C -1.8 16  -4 13.8  -4 11  C -4 8.2  -1.8 6  1 6  Z " fill-rule="nonzero" fill="#ffffff" stroke="none" />
    <path d="M 1 6.5  C 3.52 6.5  5.5 8.48  5.5 11  C 5.5 13.52  3.52 15.5  1 15.5  C -1.52 15.5  -3.5 13.52  -3.5 11  C -3.5 8.48  -1.52 6.5  1 6.5  Z " stroke-width="1" stroke="#d9d8d8" fill="none" />
  </g>
</svg>