<?xml version="1.0" encoding="utf-8"?>
<svg version="1.1" xmlns:xlink="http://www.w3.org/1999/xlink" width="28px" height="28px" xmlns="http://www.w3.org/2000/svg">
  <g transform="matrix(1 0 0 1 -803 -180 )">
    <path d="M 10.0028409090909 10.6640625  C 10.1221590909091 10.7734375  10.1818181818182 10.9131944444444  10.1818181818182 11.0833333333333  L 10.1818181818182 21.5833333333333  C 10.1818181818182 21.7534722222222  10.1221590909091 21.8932291666667  10.0028409090909 22.0026041666667  C 9.88352272727273 22.1119791666667  9.73106060606061 22.1666666666667  9.54545454545454 22.1666666666667  L 8.27272727272727 22.1666666666667  C 8.08712121212121 22.1666666666667  7.93465909090909 22.1119791666667  7.81534090909091 22.0026041666667  C 7.69602272727273 21.8932291666667  7.63636363636364 21.7534722222222  8 21.5833333333333  L 8 11.0833333333333  C 7.63636363636364 10.9131944444444  7.69602272727273 10.7734375  7.81534090909091 10.6640625  C 7.93465909090909 10.5546875  8.08712121212121 10.5  8.27272727272727 10.5  L 9.54545454545454 10.5  C 9.73106060606061 10.5  9.88352272727273 10.5546875  10.0028409090909 10.6640625  Z M 15.09375 10.6640625  C 15.2130681818182 10.7734375  15.2727272727273 10.9131944444444  15 11.0833333333333  L 15 21.5833333333333  C 15.2727272727273 21.7534722222222  15.2130681818182 21.8932291666667  15.09375 22.0026041666667  C 14.9744318181818 22.1119791666667  14.8219696969697 22.1666666666667  14.6363636363636 22.1666666666667  L 13.3636363636364 22.1666666666667  C 13.1780303030303 22.1666666666667  13.0255681818182 22.1119791666667  12.90625 22.0026041666667  C 12.7869318181818 21.8932291666667  12.7272727272727 21.7534722222222  13 21.5833333333333  L 13 11.0833333333333  C 12.7272727272727 10.9131944444444  12.7869318181818 10.7734375  12.90625 10.6640625  C 13.0255681818182 10.5546875  13.1780303030303 10.5  13.3636363636364 10.5  L 14.6363636363636 10.5  C 14.8219696969697 10.5  14.9744318181818 10.5546875  15.09375 10.6640625  Z M 20.1846590909091 10.6640625  C 20.3039772727273 10.7734375  20.3636363636364 10.9131944444444  20 11.0833333333333  L 20 21.5833333333333  C 20.3636363636364 21.7534722222222  20.3039772727273 21.8932291666667  20.1846590909091 22.0026041666667  C 20.0653409090909 22.1119791666667  19.9128787878788 22.1666666666667  19.7272727272727 22.1666666666667  L 18.4545454545455 22.1666666666667  C 18.2689393939394 22.1666666666667  18.1164772727273 22.1119791666667  17.9971590909091 22.0026041666667  C 17.8778409090909 21.8932291666667  17.8181818181818 21.7534722222222  17.8181818181818 21.5833333333333  L 17.8181818181818 11.0833333333333  C 17.8181818181818 10.9131944444444  17.8778409090909 10.7734375  17.9971590909091 10.6640625  C 18.1164772727273 10.5546875  18.2689393939394 10.5  18.4545454545455 10.5  L 19.7272727272727 10.5  C 19.9128787878788 10.5  20.0653409090909 10.5546875  20.1846590909091 10.6640625  Z M 22.7698863636364 25.01953125  C 22.8626893939394 24.7947048611111  22.9090909090909 24.5486111111111  23 24.28125  L 23 7  L 5 7  L 5 24.28125  C 5.09090909090909 24.5486111111111  5.13731060606061 24.7947048611111  5.23011363636364 25.01953125  C 5.32291666666667 25.2443576388889  5.41903409090909 25.4084201388889  5.51846590909091 25.51171875  C 5.61789772727273 25.6150173611111  5.6875 25.6666666666667  5.72727272727273 25.6666666666667  L 22.2727272727273 25.6666666666667  C 22.3125 25.6666666666667  22.3821022727273 25.6150173611111  22.4815340909091 25.51171875  C 22.5809659090909 25.4084201388889  22.6770833333333 25.2443576388889  22.7698863636364 25.01953125  Z M 10.5198863636364 2.53385416666667  L 9.54545454545454 4.66666666666667  L 18.4545454545455 4.66666666666667  L 17.5 2.53385416666667  C 17.407196969697 2.42447916666667  17.2945075757576 2.35763888888889  17.1619318181818 2.33333333333333  L 10.8579545454545 2.33333333333333  C 10.7253787878788 2.35763888888889  10.6126893939394 2.42447916666667  10.5198863636364 2.53385416666667  Z M 27.8210227272727 4.83072916666667  C 27.9403409090909 4.94010416666667  28 5.07986111111111  28 5.25  L 28 6.41666666666667  C 28 6.58680555555555  27.9403409090909 6.7265625  27.8210227272727 6.8359375  C 27.7017045454545 6.9453125  27.5492424242424 7  27.3636363636364 7  L 25 7  L 25 24.28125  C 25.4545454545455 25.2899305555556  25.1429924242424 26.1618923611111  24.5198863636364 26.8971354166667  C 23.8967803030303 27.6323784722222  23.1477272727273 28  22.2727272727273 28  L 5.72727272727273 28  C 4.85227272727273 28  4.1032196969697 27.64453125  3.48011363636364 26.93359375  C 2.85700757575758 26.22265625  2.54545454545455 25.3628472222222  3 24.3541666666667  L 3 7  L 0.636363636363636 7  C 0.450757575757576 7  0.298295454545455 6.9453125  0.178977272727273 6.8359375  C 0.0596590909090909 6.7265625  0 6.58680555555555  0 6.41666666666667  L 0 5.25  C 0 5.07986111111111  0.0596590909090909 4.94010416666667  0.178977272727273 4.83072916666667  C 0.298295454545455 4.72135416666667  0.450757575757576 4.66666666666667  0.636363636363636 4.66666666666667  L 6.78125 4.66666666666667  L 8.17329545454546 1.62239583333333  C 8.37215909090909 1.17274305555555  8.73011363636364 0.789930555555553  9.24715909090909 0.473958333333334  C 9.76420454545455 0.157986111111109  10.2878787878788 0  10.8181818181818 0  L 17.1818181818182 0  C 17.7121212121212 0  18.2357954545455 0.157986111111109  18.7528409090909 0.473958333333334  C 19.2698863636364 0.789930555555553  19.6278409090909 1.17274305555555  19.8267045454545 1.62239583333333  L 21.21875 4.66666666666667  L 27.3636363636364 4.66666666666667  C 27.5492424242424 4.66666666666667  27.7017045454545 4.72135416666667  27.8210227272727 4.83072916666667  Z " fill-rule="nonzero" fill="#a6b4c0" stroke="none" transform="matrix(1 0 0 1 803 180 )" />
  </g>
</svg>