<?xml version="1.0" encoding="utf-8"?>
<svg version="1.1" xmlns:xlink="http://www.w3.org/1999/xlink" width="10px" height="10px" xmlns="http://www.w3.org/2000/svg">
  <g transform="matrix(1 0 0 1 -133 -436 )">
    <path d="M 138 436  C 140.8 436  143 438.2  143 441  C 143 443.8  140.8 446  138 446  C 135.2 446  133 443.8  133 441  C 133 438.2  135.2 436  138 436  Z " fill-rule="nonzero" fill="#6a7d8f" stroke="none" />
    <path d="M 138 436.5  C 140.52 436.5  142.5 438.48  142.5 441  C 142.5 443.52  140.52 445.5  138 445.5  C 135.48 445.5  133.5 443.52  133.5 441  C 133.5 438.48  135.48 436.5  138 436.5  Z " stroke-width="1" stroke="#797979" fill="none" />
  </g>
</svg>