<?xml version="1.0" encoding="utf-8"?>
<svg version="1.1" xmlns:xlink="http://www.w3.org/1999/xlink" width="30px" height="30px" xmlns="http://www.w3.org/2000/svg">
  <g transform="matrix(1 0 0 1 -5693 -526 )">
    <path d="M 5708 527  C 5715.84 527  5722 533.16  5722 541  C 5722 548.84  5715.84 555  5708 555  C 5700.16 555  5694 548.84  5694 541  C 5694 533.16  5700.16 527  5708 527  Z " fill-rule="nonzero" fill="#0079fe" stroke="none" />
    <path d="M 5708 527  C 5715.84 527  5722 533.16  5722 541  C 5722 548.84  5715.84 555  5708 555  C 5700.16 555  5694 548.84  5694 541  C 5694 533.16  5700.16 527  5708 527  Z " stroke-width="2" stroke="#0079fe" fill="none" />
  </g>
</svg>