<?xml version="1.0" encoding="utf-8"?>
<svg version="1.1" xmlns:xlink="http://www.w3.org/1999/xlink" width="30px" height="30px" xmlns="http://www.w3.org/2000/svg">
  <g transform="matrix(1 0 0 1 -5693 -590 )">
    <path d="M 5708 591  C 5715.84 591  5722 597.16  5722 605  C 5722 612.84  5715.84 619  5708 619  C 5700.16 619  5694 612.84  5694 605  C 5694 597.16  5700.16 591  5708 591  Z " fill-rule="nonzero" fill="#ffffff" stroke="none" />
    <path d="M 5708 591  C 5715.84 591  5722 597.16  5722 605  C 5722 612.84  5715.84 619  5708 619  C 5700.16 619  5694 612.84  5694 605  C 5694 597.16  5700.16 591  5708 591  Z " stroke-width="2" stroke="#cccccc" fill="none" />
  </g>
</svg>