<?xml version="1.0" encoding="utf-8"?>
<svg version="1.1" xmlns:xlink="http://www.w3.org/1999/xlink" width="30px" height="30px" xmlns="http://www.w3.org/2000/svg">
  <g transform="matrix(1 0 0 1 -5693 -653 )">
    <path d="M 5708 654  C 5715.84 654  5722 660.16  5722 668  C 5722 675.84  5715.84 682  5708 682  C 5700.16 682  5694 675.84  5694 668  C 5694 660.16  5700.16 654  5708 654  Z " fill-rule="nonzero" fill="#ffffff" stroke="none" />
    <path d="M 5708 654  C 5715.84 654  5722 660.16  5722 668  C 5722 675.84  5715.84 682  5708 682  C 5700.16 682  5694 675.84  5694 668  C 5694 660.16  5700.16 654  5708 654  Z " stroke-width="2" stroke="#e4e4e4" fill="none" />
  </g>
</svg>