<?xml version="1.0" encoding="utf-8"?>
<svg version="1.1" xmlns:xlink="http://www.w3.org/1999/xlink" width="30px" height="30px" xmlns="http://www.w3.org/2000/svg">
  <g transform="matrix(1 0 0 1 -1195 -343 )">
    <path d="M 1210 344  C 1217.84 344  1224 350.16  1224 358  C 1224 365.84  1217.84 372  1210 372  C 1202.16 372  1196 365.84  1196 358  C 1196 350.16  1202.16 344  1210 344  Z " fill-rule="nonzero" fill="#ffffff" stroke="none" />
    <path d="M 1210 344  C 1217.84 344  1224 350.16  1224 358  C 1224 365.84  1217.84 372  1210 372  C 1202.16 372  1196 365.84  1196 358  C 1196 350.16  1202.16 344  1210 344  Z " stroke-width="2" stroke="#cccccc" fill="none" />
  </g>
</svg>