<?xml version="1.0" encoding="utf-8"?>
<svg version="1.1" xmlns:xlink="http://www.w3.org/1999/xlink" width="12px" height="12px" viewBox="30 126  12 12" xmlns="http://www.w3.org/2000/svg">
  <path d="M 30.5 131  A 4.5 4.5 0 0 1 35 126.5 L 37 126.5  A 4.5 4.5 0 0 1 41.5 131 L 41.5 133  A 4.5 4.5 0 0 1 37 137.5 L 35 137.5  A 4.5 4.5 0 0 1 30.5 133 L 30.5 131  Z " fill-rule="nonzero" fill="#ffffff" stroke="none" />
  <path d="M 30.5 131  A 4.5 4.5 0 0 1 35 126.5 L 37 126.5  A 4.5 4.5 0 0 1 41.5 131 L 41.5 133  A 4.5 4.5 0 0 1 37 137.5 L 35 137.5  A 4.5 4.5 0 0 1 30.5 133 L 30.5 131  Z " stroke-width="1" stroke="#797979" fill="none" />
  <path d="M 32.5714285714286 132  L 35.1428571428571 134.571428571429  L 39.4285714285714 128.571428571429  " stroke-width="2.57142857142857" stroke="#797979" fill="none" />
</svg>