<?xml version="1.0" encoding="utf-8"?>
<svg version="1.1" xmlns:xlink="http://www.w3.org/1999/xlink" width="12px" height="12px" viewBox="30 218  12 12" xmlns="http://www.w3.org/2000/svg">
  <path d="M 30.5 223  A 4.5 4.5 0 0 1 35 218.5 L 37 218.5  A 4.5 4.5 0 0 1 41.5 223 L 41.5 225  A 4.5 4.5 0 0 1 37 229.5 L 35 229.5  A 4.5 4.5 0 0 1 30.5 225 L 30.5 223  Z " fill-rule="nonzero" fill="#ffffff" stroke="none" />
  <path d="M 30.5 223  A 4.5 4.5 0 0 1 35 218.5 L 37 218.5  A 4.5 4.5 0 0 1 41.5 223 L 41.5 225  A 4.5 4.5 0 0 1 37 229.5 L 35 229.5  A 4.5 4.5 0 0 1 30.5 225 L 30.5 223  Z " stroke-width="1" stroke="#797979" fill="none" />
</svg>