<?xml version="1.0" encoding="utf-8"?>
<svg version="1.1" xmlns:xlink="http://www.w3.org/1999/xlink" width="12px" height="12px" viewBox="940 836  12 12" xmlns="http://www.w3.org/2000/svg">
  <path d="M 940.5 841  A 4.5 4.5 0 0 1 945 836.5 L 947 836.5  A 4.5 4.5 0 0 1 951.5 841 L 951.5 843  A 4.5 4.5 0 0 1 947 847.5 L 945 847.5  A 4.5 4.5 0 0 1 940.5 843 L 940.5 841  Z " fill-rule="nonzero" fill="#f0f0f0" stroke="none" />
  <path d="M 940.5 841  A 4.5 4.5 0 0 1 945 836.5 L 947 836.5  A 4.5 4.5 0 0 1 951.5 841 L 951.5 843  A 4.5 4.5 0 0 1 947 847.5 L 945 847.5  A 4.5 4.5 0 0 1 940.5 843 L 940.5 841  Z " stroke-width="1" stroke="#797979" fill="none" />
</svg>