<?xml version="1.0" encoding="utf-8"?>
<svg version="1.1" xmlns:xlink="http://www.w3.org/1999/xlink" width="40px" height="40px" xmlns="http://www.w3.org/2000/svg">
  <g transform="matrix(1 0 0 1 -54 -641 )">
    <path d="M 74 641.5  C 84.92 641.5  93.5 650.08  93.5 661  C 93.5 671.92  84.92 680.5  74 680.5  C 63.08 680.5  54.5 671.92  54.5 661  C 54.5 650.08  63.08 641.5  74 641.5  Z " fill-rule="nonzero" fill="#ffffff" stroke="none" fill-opacity="0.113725490196078" />
    <path d="M 74 641.5  C 84.92 641.5  93.5 650.08  93.5 661  C 93.5 671.92  84.92 680.5  74 680.5  C 63.08 680.5  54.5 671.92  54.5 661  C 54.5 650.08  63.08 641.5  74 641.5  Z " stroke-width="1" stroke-dasharray="9,4,2,4,2,4" stroke="#aaaaaa" fill="none" stroke-dashoffset="0.5" />
  </g>
</svg>