<?xml version="1.0" encoding="utf-8"?>
<svg version="1.1" xmlns:xlink="http://www.w3.org/1999/xlink" width="55px" height="55px" xmlns="http://www.w3.org/2000/svg">
  <g transform="matrix(1 0 0 1 -46 -632 )">
    <path d="M 73.5 632.5  C 88.62 632.5  100.5 644.38  100.5 659.5  C 100.5 674.62  88.62 686.5  73.5 686.5  C 58.38 686.5  46.5 674.62  46.5 659.5  C 46.5 644.38  58.38 632.5  73.5 632.5  Z " fill-rule="nonzero" fill="#ffffff" stroke="none" fill-opacity="0" />
    <path d="M 73.5 632.5  C 88.62 632.5  100.5 644.38  100.5 659.5  C 100.5 674.62  88.62 686.5  73.5 686.5  C 58.38 686.5  46.5 674.62  46.5 659.5  C 46.5 644.38  58.38 632.5  73.5 632.5  Z " stroke-width="1" stroke-dasharray="3,1" stroke="#d7d7d7" fill="none" stroke-dashoffset="0.5" />
  </g>
</svg>