<?xml version="1.0" encoding="utf-8"?>
<svg version="1.1" xmlns:xlink="http://www.w3.org/1999/xlink" width="133px" height="73px" xmlns="http://www.w3.org/2000/svg">
  <g transform="matrix(1 0 0 1 -19 -92 )">
    <path d="M 40.4541666666667 14.828125  C 43.0402777777778 16.6024305555556  44.3333333333333 18.7569444444444  44.3333333333333 21.2916666666667  C 44.3333333333333 23.8263888888889  43.0402777777778 25.9809027777778  40.4541666666667 27.7552083333333  C 37.8680555555556 29.5295138888889  34.7277777777778 30.4166666666667  31.0333333333333 30.4166666666667  C 27.3388888888889 30.4166666666667  24.1986111111111 29.5295138888889  21.6125 27.7552083333333  C 19.0263888888889 25.9809027777778  17.7333333333333 23.8263888888889  17.7333333333333 21.2916666666667  C 17.7333333333333 18.7569444444444  19.0263888888889 16.6024305555556  21.6125 14.828125  C 24.1986111111111 13.0538194444444  27.3388888888889 12.1666666666667  31.0333333333333 12.1666666666667  C 34.7277777777778 12.1666666666667  37.8680555555556 13.0538194444444  40.4541666666667 14.828125  Z M 86.45 19.7708333333333  L 115 39.5416666666667  L 115 60  L 17.7333333333333 60  L 17.7333333333333 51.7083333333333  L 39.9 36.5  L 50.9833333333333 44.1041666666667  L 86.45 19.7708333333333  Z M 123.475260416667 6.53483072916666  C 123.036545138889 6.23383246527777  122.517013888889 6.08333333333334  121.916666666667 6  L 11.0833333333333 6  C 10.4829861111111 6.08333333333334  9.96345486111111 6.23383246527777  9.52473958333333 6.53483072916666  C 9.08602430555556 6.83582899305555  8.86666666666667 7.19227430555555  9 7.60416666666666  L 9 65.3958333333333  C 8.86666666666667 65.8077256944444  9.08602430555556 66.1641710069444  9.52473958333333 66.4651692708333  C 9.96345486111111 66.7661675347222  10.4829861111111 66.9166666666667  11.0833333333333 67  L 121.916666666667 67  C 122.517013888889 66.9166666666667  123.036545138889 66.7661675347222  123.475260416667 66.4651692708333  C 123.913975694444 66.1641710069444  124.133333333333 65.8077256944444  124 65.3958333333333  L 124 7.60416666666666  C 124.133333333333 7.19227430555555  123.913975694444 6.83582899305555  123.475260416667 6.53483072916666  Z M 129.744270833333 2.23372395833334  C 131.914756944444 3.72287326388889  133 5.51302083333334  133 7.60416666666666  L 133 65.3958333333333  C 133 67.4869791666667  131.914756944444 69.2771267361111  129.744270833333 70.7662760416667  C 127.573784722222 72.2554253472222  124.964583333333 73  121.916666666667 73  L 11.0833333333333 73  C 8.03541666666667 73  5.42621527777778 72.2554253472222  3.25572916666667 70.7662760416667  C 1.08524305555556 69.2771267361111  0 67.4869791666667  0 65.3958333333333  L 0 7.60416666666666  C 0 5.51302083333334  1.08524305555556 3.72287326388889  3.25572916666667 2.23372395833334  C 5.42621527777778 0.744574652777771  8.03541666666667 0  11.0833333333333 0  L 121.916666666667 0  C 124.964583333333 0  127.573784722222 0.744574652777771  129.744270833333 2.23372395833334  Z " fill-rule="nonzero" fill="#bfcdd9" stroke="none" transform="matrix(1 0 0 1 19 92 )" />
  </g>
</svg>