<?xml version="1.0" encoding="utf-8"?>
<svg version="1.1" xmlns:xlink="http://www.w3.org/1999/xlink" width="40px" height="40px" xmlns="http://www.w3.org/2000/svg">
  <g transform="matrix(1 0 0 1 -14 -1318 )">
    <path d="M 34 1318  C 45.2 1318  54 1326.8  54 1338  C 54 1349.2  45.2 1358  34 1358  C 22.8 1358  14 1349.2  14 1338  C 14 1326.8  22.8 1318  34 1318  Z " fill-rule="nonzero" fill="#ffffff" stroke="none" />
    <path d="M 34 1318.5  C 44.92 1318.5  53.5 1327.08  53.5 1338  C 53.5 1348.92  44.92 1357.5  34 1357.5  C 23.08 1357.5  14.5 1348.92  14.5 1338  C 14.5 1327.08  23.08 1318.5  34 1318.5  Z " stroke-width="1" stroke="#e6e6e6" fill="none" />
  </g>
</svg>