<?xml version="1.0" encoding="utf-8"?>
<svg version="1.1" xmlns:xlink="http://www.w3.org/1999/xlink" width="59px" height="39px" xmlns="http://www.w3.org/2000/svg">
  <g transform="matrix(1 0 0 1 -37 -208 )">
    <path d="M 56.1319444444445 39  L 30.7291666666666 39  L 16.0103446441008 39  L 2.04861111111131 39  C 1.49377893518545 39  1.01363570601893 38.7203351449259  0.608181423611086 38.1610054347859  C 0.202727141203241 37.6016757246375  0 36.9393115942013  0 36.1739130434816  C 0 35.4085144927533  0.202727141203241 34.7461503623171  0.608181423611086 34.1868206521772  L 14.9484592013889 14.4042119565227  C 15.3539134837968 13.8448822463786  15.8340567129634 13.5652173913044  16.3888888888887 13.5652173913044  C 16.9437210648143 13.5652173913044  17.4238642939811 13.8448822463786  17.8293185763889 14.4042119565227  L 21.7641613633202 19.8323919918198  L 34.0389539930555 1.28645833333286  C 34.606589988427 0.428819444442865  35.2787905092603 0  36.0555555555555 0  C 36.8323206018508 0  37.5045211226842 0.428819444442865  38.0721571180555 1.28645833333286  L 58.1485460069445 31.6197916666671  C 58.716182002316 32.4774305555529  59 33.4930555555544  59 34.6666666666671  C 59 35.8402777777758  58.716182002316 36.8559027777771  58.1485460069445 37.7135416666671  C 57.580910011573 38.5711805555529  56.9087094907395 39  56.1319444444445 39  Z " fill-rule="nonzero" fill="#cccccc" stroke="none" transform="matrix(1 0 0 1 37 208 )" />
  </g>
</svg>