<?xml version="1.0" encoding="utf-8"?>
<svg version="1.1" xmlns:xlink="http://www.w3.org/1999/xlink" width="18px" height="12px" xmlns="http://www.w3.org/2000/svg">
  <g transform="matrix(1 0 0 1 -304 935 )">
    <path d="M 1.66666666666606 11.3333333333333  C 1.11438191683533 11.3333333333333  0.66666666666606 10.885618083164  0.66666666666606 10.3333333333333  C 0.66666666666606 10.3333333333333  0.66666666666606 8.33333333333326  0.66666666666606 8.33333333333326  C 0.66666666666606 7.78104858350252  1.11438191683533 7.33333333333326  1.66666666666606 7.33333333333326  C 1.66666666666606 7.33333333333326  2.66666666666606 7.33333333333326  2.66666666666606 7.33333333333326  C 3.21895141649679 7.33333333333326  3.66666666666606 7.78104858350252  3.66666666666606 8.33333333333326  C 3.66666666666606 8.33333333333326  3.66666666666606 10.3333333333333  3.66666666666606 10.3333333333333  C 3.66666666666606 10.885618083164  3.21895141649679 11.3333333333333  2.66666666666606 11.3333333333333  C 2.66666666666606 11.3333333333333  1.66666666666606 11.3333333333333  1.66666666666606 11.3333333333333  Z M 7.33333333333258 11.3333333333333  C 7.33333333333258 11.3333333333333  6.33333333333258 11.3333333333333  6.33333333333258 11.3333333333333  C 5.78104858350184 11.3333333333333  5.33333333333258 10.885618083164  5.33333333333258 10.3333333333333  C 5.33333333333258 10.3333333333333  5.33333333333258 6.33333333333326  5.33333333333258 6.33333333333326  C 5.33333333333258 5.78104858350252  5.78104858350184 5.33333333333326  6.33333333333258 5.33333333333326  C 6.33333333333258 5.33333333333326  7.33333333333258 5.33333333333326  7.33333333333258 5.33333333333326  C 7.88561808316331 5.33333333333326  8.33333333333258 5.78104858350252  8.33333333333258 6.33333333333326  C 8.33333333333258 6.33333333333326  8.33333333333258 10.3333333333333  8.33333333333258 10.3333333333333  C 8.33333333333258 10.885618083164  7.88561808316331 11.3333333333333  7.33333333333258 11.3333333333333  Z M 10.9999999999993 11.333333333333  C 10.4477152501686 11.333333333333  9.99999999999932 10.8856180831638  9.99999999999932 10.333333333333  C 9.99999999999932 10.333333333333  9.99999999999932 3.99999999999977  9.99999999999932 3.99999999999977  C 9.99999999999932 3.44771525016904  10.4477152501686 2.99999999999977  10.9999999999993 2.99999999999977  C 10.9999999999993 2.99999999999977  11.9999999999993 2.99999999999977  11.9999999999993 2.99999999999977  C 12.5522847498301 2.99999999999977  12.9999999999993 3.44771525016904  12.9999999999993 3.99999999999977  C 12.9999999999993 3.99999999999977  12.9999999999993 10.333333333333  12.9999999999993 10.333333333333  C 12.9999999999993 10.8856180831638  12.5522847498301 11.333333333333  11.9999999999993 11.333333333333  C 11.9999999999993 11.333333333333  10.9999999999993 11.333333333333  10.9999999999993 11.333333333333  Z M 14.6666666666661 1.66666666666652  C 14.6666666666661 1.11438191683578  15.1143819168353 0.666666666666515  15.6666666666661 0.666666666666515  C 15.6666666666661 0.666666666666515  16.6666666666661 0.666666666666515  16.6666666666661 0.666666666666515  C 17.2189514164968 0.666666666666515  17.6666666666661 1.11438191683578  17.6666666666661 1.66666666666652  C 17.6666666666661 1.66666666666652  17.6666666666661 10.3333333333333  17.6666666666661 10.3333333333333  C 17.6666666666661 10.885618083164  17.2189514164968 11.3333333333333  16.6666666666661 11.3333333333333  C 16.6666666666661 11.3333333333333  15.6666666666661 11.3333333333333  15.6666666666661 11.3333333333333  C 15.1143819168353 11.3333333333333  14.6666666666661 10.885618083164  14.6666666666661 10.3333333333333  C 14.6666666666661 10.3333333333333  14.6666666666661 1.66666666666652  14.6666666666661 1.66666666666652  Z " fill-rule="nonzero" fill="#000000" stroke="none" transform="matrix(1 0 0 1 304 -935 )" />
  </g>
</svg>