<?xml version="1.0" encoding="utf-8"?>
<svg version="1.1" xmlns:xlink="http://www.w3.org/1999/xlink" width="31px" height="23px" xmlns="http://www.w3.org/2000/svg">
  <defs>
    <linearGradient gradientUnits="userSpaceOnUse" x1="15.5" y1="0" x2="15.5" y2="23" id="LinearGradient316">
      <stop id="Stop317" stop-color="#efd3ab" offset="0" />
      <stop id="Stop318" stop-color="#dba873" offset="1" />
    </linearGradient>
  </defs>
  <g transform="matrix(1 0 0 1 -6 -10 )">
    <path d="M 8.90676250980429 19.5531460241329  C 8.20669450377111 20.0830272398191  7.50662649773792 20.6129424343893  6.8065924705886 21.1427897043742  C 5.73334954751168 22.083842458522  4.62064990648604 22.9007186184013  3.2218042292613 22.2134859366517  C -2.79714388235258 19.2559982956261  2.25647306485708 -0.303257197586591  7.86323100150866 0.539391447963938  C 11.0999716440426 1.02523191553558  11.8645897405735 4.82108978280557  15.3408210889898 4.73260080543  C 18.7140642986429 4.64686225942698  19.9798369864257 0.328457604826683  23.3990564132734 0.725197906485809  C 29.1001097677229 1.38662412368038  32.8935567933639 19.5464566968327  27.8854406907998 22.0969154358976  C 26.5475118190049 22.7781718823531  24.6723672699853 22.3089018944194  23.2219765882357 20.9710748929111  C 20.8604822202115 19.1541646425341  18.2559317858224 18.1157943740574  15.2195307420818 17.8694106666668  C 12.8064574238314 17.6731797254903  10.8846235656112 18.2912782865763  8.90676250980429 19.5531460241329  Z M 18.8039454811467 13.5384084072396  C 18.8039454811467 14.3451657285066  19.4580372368028 14.9990877224734  20.2647266666671 14.9990877224734  C 21.0713481719461 14.9990877224734  21.7254399276022 14.3451657285066  21.7254399276022 13.5384084072396  C 21.7254399276022 12.7317869351431  21.0713481719461 12.0777970165911  20.2647266666671 12.0777970165911  C 19.4580372699853 12.0777970165911  18.8039454811467 12.7317869019606  18.8039454811467 13.5384084072396  Z M 22.9648288748118 10.4022110829561  C 23.7715522503774 10.4022110829561  24.425542135747 9.7481532730014  24.425542135747 8.94153176772237  C 24.4255081900456 8.13494420814469  23.7715522503774 7.4809203770738  22.9648288748118 7.4809203770738  C 22.158275294118 7.4809203770738  21.5041835384619 8.13494424132719  21.5041835384619 8.94153176772237  C 21.5041835384619 9.7481532730014  22.158275294118 10.4022110829561  22.9648288748118 10.4022110829561  Z M 11.5917883800909 6.62489307692298  L 9.20679655203657 6.62166727300141  L 9.20679655203657 9.50013964102553  L 6.37806953544532 9.50013964102553  L 6.37806953544532 11.7017019064856  L 9.20679655203657 11.6910737164403  L 9.20679655203657 14.6017022865761  L 11.5917883800909 14.601838102564  L 11.5963045188541 11.6910737164403  L 14.3500230497741 11.6910737164403  L 14.3500230497741 9.50017358672689  L 11.5917884132734 9.50017358672689  L 11.5917883800909 6.62489307692298  Z " fill-rule="nonzero" fill="url(#LinearGradient316)" stroke="none" transform="matrix(1 0 0 1 6 10 )" />
  </g>
</svg>