<?xml version="1.0" encoding="utf-8"?>
<svg version="1.1" xmlns:xlink="http://www.w3.org/1999/xlink" width="24px" height="27px" xmlns="http://www.w3.org/2000/svg">
  <defs>
    <linearGradient gradientUnits="userSpaceOnUse" x1="12" y1="0" x2="12" y2="27" id="LinearGradient96">
      <stop id="Stop97" stop-color="#efd3ab" offset="0" />
      <stop id="Stop98" stop-color="#dba873" offset="1" />
    </linearGradient>
  </defs>
  <g transform="matrix(1 0 0 1 -45 751 )">
    <path d="M 5.63074137290232 1.46411710440498  C 5.60351359486867 0.847682219579838  5.09161478368333 0.36181515020121  4.46938038450207 0.36181515020121  C 3.84714598532128 0.36181515020121  3.33524717413593 0.847682219579838  3.30801939610228 1.46411710440498  C 3.30801939610228 1.46411710440498  3.30801939610228 7.53700120850999  3.30801939610228 7.53700120850999  C 3.30801939610228 8.17520612572071  3.82690168725048 8.68974500969216  4.46826688581132 8.68974500969216  C 5.10941514394472 8.68974619295773  5.62951313391522 8.17498977422702  5.63074137290232 7.5392095041143  C 5.63074137290232 7.5392095041143  5.63074137290232 1.46411710440498  5.63074137290232 1.46411710440498  Z M 9.11705127459118 0.36181515020121  C 8.49481687540992 0.36181515020121  7.98291806422458 0.847682219579838  7.95569028619093 1.46411710440498  C 7.95569028619093 1.46411710440498  7.95569028619093 4.08097807037598  7.95569028619093 4.08097807037598  C 7.95569028619093 4.71697466179057  8.47457257733913 5.23372187155815  9.11816477328193 5.23372190174996  C 9.75931184306 5.23250392728005  10.2784134562771 4.71675949533778  10.278412262991 4.08097807037598  C 10.278412262991 4.08097807037598  10.278412262991 1.46411710440498  10.278412262991 1.46411710440498  C 10.2511844849573 0.847682219579838  9.73928567377197 0.36181515020121  9.11705127459118 0.36181515020121  Z M 13.7658356938168 1.46411710440498  C 13.7658356938168 1.46411710440498  13.7658356938168 4.08097807037598  13.7658356938168 4.08097807037598  C 13.7658356938168 4.71697466179057  14.284717984965 5.23372187155815  14.9283101504611 5.23372190174996  C 15.569457232134 5.23250394390948  16.0885588638707 4.71675950710141  16.0885576706169 4.08097807037598  C 16.0885576706169 4.08097807037598  16.0885576706169 1.46411710440498  16.0885576706169 1.46411710440498  C 16.0613298925832 0.847682219579838  15.5494310813979 0.36181515020121  14.9271966822171 0.36181515020121  C 14.3049622830358 0.36181515020121  13.7930634718505 0.847682219579838  13.7658356938168 1.46411710440498  Z M 17.1708614698296 26.2459007908469  C 17.9725680137008 26.6676902027245  18.8344025125875 26.5373992222887  19.3310151952774 25.9566106852014  C 19.6628326292339 25.5657377740856  19.7875425340285 25.0269073365489  19.6873292046271 24.4328688748767  C 19.6873292046271 24.4328688748767  18.7920902321598 19.219021844908  18.7920902321598 19.219021844908  C 18.7743869923024 18.8824283544536  18.8813021795254 18.5510169482911  19.0927301899173 18.2871101704593  C 19.0927301899173 18.2871101704593  22.880793548054 14.5925883294149  22.880793548054 14.5925883294149  C 23.428626348466 14.0625911648706  23.6245990429516 13.4067197016748  23.4219454476606 12.7928063380293  C 23.2215188193045 12.1833095957845  22.6714590519573 11.7681451612953  21.9209726867011 11.6599374086286  C 21.9209726867011 11.6599374086286  16.6809297183913 10.8980664883704  16.6809297183913 10.8980664883704  C 16.3592580075278 10.809825249381  16.0812395461608 10.6079658345016  15.8992658464899 10.3305278758678  C 15.8992658464899 10.3305278758678  13.5542742307853 5.58263668312338  13.5542742307853 5.58263668312338  C 13.2202298298935 4.90026534056597  12.6523543879593 4.51160075524626  11.9998543547226 4.51160075524626  C 11.3473543214859 4.51160075524626  10.7817058160394 4.90026534056597  10.44543447866 5.58263668312338  C 10.44543447866 5.58263668312338  8.10044286295488 10.3305278758678  8.10044286295488 10.3305278758678  C 7.92024577905204 10.6086852223409  7.64259461318625 10.8108539372568  7.32100595798875 10.8980664883704  C 7.32100595798875 10.8980664883704  2.07873602274367 11.6599374086286  2.07873602274367 11.6599374086286  C 1.32602266010554 11.7703534870914  0.778189859693612 12.1833095957845  0.577763261784639 12.7950146336336  C 0.375109666493245 13.4089279972791  0.573309327914103 14.0647994906667  1.11668819445549 14.5925883294149  C 1.11668819445549 14.5925883294149  4.90920548646272 18.2871101704593  4.90920548646272 18.2871101704593  C 5.11974941772405 18.5506299890349  5.22658851906408 18.8810207695008  5.20984544422026 19.2168135191118  C 5.20984544422026 19.2168135191118  4.314606471753 24.4328688748767  4.314606471753 24.4328688748767  C 4.21216620586347 25.0269073667407  4.33687611065807 25.5657378042774  4.67092048110271 25.9566106852014  C 4.96975379503237 26.3068132378248  5.41089748082823 26.5060964860093  5.87348028168617 26.4998577743304  C 6.18748201060771 26.4998577743304  6.51039157682362 26.4159415450374  6.83107420655051 26.2459007908469  C 6.83107420655051 26.2459007908469  11.5232843744488 23.7836223588772  11.5232843744488 23.7836223588772  C 11.6903065596712 23.6952895081838  12.3138560836442 23.6952895081838  12.4808782688665 23.7836223588772  C 12.4808782688665 23.7836223588772  17.1708614698296 26.2459007908469  17.1708614698296 26.2459007908469  Z M 18.4135066143522 7.22562787509514  C 18.4135066143522 7.86162446650974  18.9346158724356 8.37837167627731  19.5759810709965 8.37837167627731  C 20.2179979854691 8.37837167627731  20.7384555276408 7.86227069694996  20.7384555276408 7.22562787509514  C 20.7384555276408 7.22562787509514  20.7384555276408 1.15274380118217  20.7384555276408 1.15274380118217  C 20.7384555276408 0.516100979327348  20.2179979854691 0  19.5759810709965 0  C 18.9339641565239 0  18.4135066143522 0.516100979327348  18.4135066143522 1.15274380118217  C 18.4135066143522 1.15274380118217  18.4135066143522 7.22562787509514  18.4135066143522 7.22562787509514  Z " fill-rule="nonzero" fill="url(#LinearGradient96)" stroke="none" transform="matrix(1 0 0 1 45 -751 )" />
  </g>
</svg>