<?xml version="1.0" encoding="utf-8"?>
<svg version="1.1" xmlns:xlink="http://www.w3.org/1999/xlink" width="42px" height="40px" xmlns="http://www.w3.org/2000/svg">
  <defs>
    <linearGradient gradientUnits="userSpaceOnUse" x1="21" y1="0" x2="21" y2="40" id="LinearGradient718">
      <stop id="Stop719" stop-color="#efd3ab" offset="0" />
      <stop id="Stop720" stop-color="#dba873" offset="1" />
    </linearGradient>
  </defs>
  <g transform="matrix(1 0 0 1 -317 576 )">
    <path d="M 25.9486912751677 32.0497444071586  C 25.9486912751677 30.9685162192393  26.1613903803132 29.9464278523487  26.5878562639821 28.9828294183444  C 27.0142757270692 28.0246621923936  27.5886840044741 27.1779972035793  28.318601230425 26.4588495525725  C 29.0423909395972 25.7397019015659  29.8945799776286 25.165293624161  30.86342393736 24.7443982102907  C 31.8323607382549 24.323549217002  32.8761275167785 24.1161884787471  33.9940279642058 24.1161884787471  C 35.0859793064876 24.1161884787471  36.1135917225949 24.3235492170022  37.0828070469797 24.7443982102907  C 38.0569893736017 25.1652472035794  38.9038864653244 25.7397019015659  39.6336644295302 26.4588495525725  C 40.3571756152123 27.1779507829976  40.9376185682327 28.024615771812  41.3584675615211 28.9828294183444  C 41.7849334451901 29.9463814317671  41.9972147651006 30.9685626398209  41.9972147651006 32.0497444071586  C 41.9972147651006 33.1573394854584  41.7848870246085 34.1905687919461  41.3584675615211 35.1491073825503  C 40.9376649888143 36.1121951901564  40.3572220357942 36.9535682326621  39.6336644295302 37.678193512304  C 38.9038400447425 38.396784116331  38.0569893736017 38.9606549217001  37.0828070469797 39.3711521252794  C 36.1135917225949 39.7817885906038  35.0859793064876 39.9837181208052  33.9940279642058 39.9837181208052  C 32.8761739373601 39.9837181208052  31.8323607382549 39.7817885906038  30.86342393736 39.3711057046978  C 29.8946263982102 38.9606549217001  29.0423445190156 38.3967376957492  28.318601230425 37.6781470917224  C 27.5887768456375 36.9535682326621  27.0142757270692 36.1121951901564  26.5878562639821 35.1491073825503  C 26.1613439597315 34.1905223713645  25.9486912751677 33.1573394854584  25.9486912751677 32.0497444071586  Z M 33.0465374720359 36.6821935123044  C 33.3872181208055 36.6717953020136  33.6431347874723 36.5703663310962  33.8080206935124 36.3784172259509  C 34.1482835570471 36.0643355704699  34.5378450782998 35.6864256152126  34.9744770693515 35.2390704697989  C 35.410412751678 34.7971465324385  35.8688159955259 34.3443601789711  36.337153243848 33.8866068232662  C 36.8036679010597 33.4409815595195  37.2651639957789 32.9901319226742  37.7215542505594 32.5341431767338  C 38.1691414988816 32.0922656599553  38.5790816554811 31.6980156599554  38.940883668904 31.3627197986577  C 39.0849731543626 31.1975089485459  39.2182002237139 30.9907052572707  39.3405648769576 30.750153803132  C 39.4628831096197 30.5109485458613  39.4252824384789 30.2926325503356  39.2340296420582 30.1010083892618  C 39.2340296420582 30.1010083892618  38.8881034675617 29.738927852349  38.8881034675617 29.738927852349  C 38.7070167785237 29.5471644295303  38.5896655480985 29.4411862416107  38.5418059284118 29.4138909395974  C 38.2963803131993 29.2491907158837  38.067619686801 29.2224524608503  37.8496286353468 29.3448635346756  C 37.630941275168 29.4617505592842  37.4126717002239 29.6322533557047  37.1947270693513 29.8505693512304  C 36.6452619254969 30.3945552006337  36.0931910726345 30.9359027758173  35.5385335570472 31.4745934004475  C 35.0215616473195 31.9764539007631  34.5068758574896 32.4806640042325  33.9944921700226 32.9872080536913  C 33.8242678970919 33.1573394854588  33.6323652125282 33.2587684563759  33.4302035794185 33.2956728187921  C 33.2224714765102 33.3272852348994  33.0572142058168 33.2640139821031  32.9348959731544 33.0931398210291  C 32.9348959731544 33.0931398210291  32.5938439597317 32.7366761744968  32.5938439597317 32.7366761744968  C 32.4267510202321 32.5576536372748  32.2617456424844 32.3766939741984  32.0988612975393 32.1938338926175  C 32.0988612975393 32.1938338926175  31.6091241610741 31.6342337807607  31.6091241610741 31.6342337807607  C 31.4491588366891 31.4531470917227  31.3377030201343 31.3250727069353  31.2624552572709 31.2566487695751  C 31.1190156599555 31.1339591722597  30.9538512304252 31.0590827740493  30.7730430648771 31.0220855704699  C 30.5920027964207 30.9844848993289  30.400100111857 31.0485453020135  30.2088473154363 31.2193730425056  C 30.2088473154363 31.2193730425056  30.0277142058167 31.3840732662193  30.0277142058167 31.3840732662193  C 29.9265173378078 31.4636845637585  29.8308445190157 31.5596359060403  29.7345682326622 31.6718344519018  C 29.638941834452 31.7783232662193  29.5433154362418 31.8739496644296  29.4420721476511 31.9590385906042  C 29.4420721476511 31.9590385906042  29.2610318791947 32.1186325503356  29.2610318791947 32.1186325503356  C 28.8989049217003 32.5077762863536  28.9467181208056 32.9495609619687  29.4100883668905 33.4548954138704  C 29.5535279642058 33.6258159955257  29.7454770693514 33.8339194630873  29.9901599552575 34.0890934004476  C 30.2464449241013 34.3564052981174  30.5001452072386 34.6261833241138  30.751225391499 34.8983898210292  C 31.0226929530202 35.1856403803133  31.2890542505595 35.4681096196869  31.5556012304253 35.7452869127519  C 31.8213590604028 36.0215822147652  32.0509552572707 36.2453294183447  32.2478249440717 36.4108187919464  C 32.4394491051455 36.607317114094  32.7059032438481 36.6927774049218  33.0465374720359 36.6821935123044  Z M 3 17.4209479865772  L 0.520332214765176 17.4209479865772  C 0.520332214765176 17.4209479865772  0.520332214765176 34.979625838926  0.520332214765176 34.979625838926  C 0.520332214765176 36.2462578299776  1.66673489932896 37.2724776286352  3.0142779642058 37.2724776286352  C 3.0142779642058 37.2724776286352  25.8713545861297 37.2724776286352  25.8713545861297 37.2724776286352  C 24.8993540268457 35.7672438478746  24.3344155480984 33.9745274049217  24.3344155480984 32.0499300894853  C 24.3344155480984 26.7275782997763  28.6505083892616 22.411346196868  33.9726744966442 22.411346196868  C 35.3208674496643 22.411346196868  36.603793064877 22.6887555928411  37.7687639821029 23.1884267337807  C 37.7687639821029 23.1884267337807  37.7687639821029 17.4209944071588  37.7687639821029 17.4209944071588  L 35 17.4209944071588  L 35 0  L 3 0  L 3 17.4209479865772  Z M 32 18  L 6 18  L 6 5  L 32 5  L 32 18  Z M 7.98206935123062 10  L 30.3069340044744 10  L 30.3069340044744 8  L 7.98206935123062 8  L 7.98206935123062 10  Z M 7.98206935123062 13  L 7.98206935123062 15  L 30.3069340044744 15  L 30.3069340044744 13  L 7.98206935123062 13  Z " fill-rule="nonzero" fill="url(#LinearGradient718)" stroke="none" transform="matrix(1 0 0 1 317 -576 )" />
  </g>
</svg>