<?xml version="1.0" encoding="utf-8"?>
<svg version="1.1" xmlns:xlink="http://www.w3.org/1999/xlink" width="24px" height="25px" xmlns="http://www.w3.org/2000/svg">
  <defs>
    <linearGradient gradientUnits="userSpaceOnUse" x1="12" y1="0" x2="12" y2="25" id="LinearGradient99">
      <stop id="Stop100" stop-color="#efd3ab" offset="0" />
      <stop id="Stop101" stop-color="#dba873" offset="1" />
    </linearGradient>
  </defs>
  <g transform="matrix(1 0 0 1 -233 751 )">
    <path d="M 24 22.434375  C 24 22.434375  24 2.55312499999991  24 2.55312499999991  C 23.9874065328609 1.14479167480476  22.8886265249903 0  21.537977174341 0  C 21.537977174341 0  2.46202282565901 0  2.46202282565901 0  C 1.11137347500971 0  0 1.14583332519533  0 2.56562499999995  C 0 2.56562499999995  0 22.434375  0 22.434375  C 0 23.840625  1.09878000787103 25  2.46202282565901 25  C 2.46202282565901 25  21.537977174341 25  21.537977174341 25  C 22.8886265249903 25  24 23.8541666748047  24 22.434375  Z M 19.9480519480521 6.09270832519542  C 19.9393341765308 6.50610186253903  19.7200442319377 6.88691302610232  19.3656040928768 7.10416667480467  C 18.8461235733962 10.8687500000001  15.6421356503347 13.7906250000001  11.9942280106256 13.7906250000001  C 8.34422144332939 13.7906250000001  5.21369542011007 10.9468750000001  4.68372033648166 7.19687500000009  C 4.32547992886839 6.9830583391938  4.04149104412681 6.50657791364279  4.03935458480919 6.09166667480486  C 4.03935458480919 5.43437500000005  4.55883510428976 4.89479167480476  5.18850846123587 4.89479167480476  C 5.81923128197559 4.89479167480476  6.33766233766255 5.43437500000005  6.33766233766255 6.09270832519542  C 6.33766233766255 6.43437500000004  6.18654073199514 6.76354165039061  5.90738555194821 7  C 6.3880362062182 10.1572916748046  8.92561983471069 12.5531250000001  11.993178546832 12.5531250000001  C 15.0617866981506 12.5531250000001  17.6245572609209 10.2625  18.1167519431328 7.10520832519546  C 17.8458215184487 6.87989836136808  17.6517286552544 6.44249207037956  17.6497441951988 6.09166667480486  C 17.6497441951988 5.43437500000005  18.1671258116885 4.89479167480476  18.7988980716254 4.89479167480476  C 19.4285714285716 4.89479167480476  19.9480519480521 5.43437500000005  19.9480519480521 6.09270832519542  Z " fill-rule="nonzero" fill="url(#LinearGradient99)" stroke="none" transform="matrix(1 0 0 1 233 -751 )" />
  </g>
</svg>