<?xml version="1.0" encoding="utf-8"?>
<svg version="1.1" xmlns:xlink="http://www.w3.org/1999/xlink" width="27px" height="14px" xmlns="http://www.w3.org/2000/svg">
  <defs>
    <linearGradient gradientUnits="userSpaceOnUse" x1="13.5" y1="0" x2="13.5" y2="14" id="LinearGradient706">
      <stop id="Stop707" stop-color="#efd3ab" offset="0" />
      <stop id="Stop708" stop-color="#dba873" offset="1" />
    </linearGradient>
  </defs>
  <g transform="matrix(1 0 0 1 -7 -19 )">
    <path d="M 3.27181525879237 13.8690262706462  C 3.27181525879237 13.8690262706462  21.6462679978228 13.8690262706462  21.6462679978228 13.8690262706462  C 20.0815335899866 13.0352239216788  19.0532795471585 11.4115035763054  19.0532795471585 9.56836158469174  C 19.0532795471585 6.84753289154895  21.2886144409428 4.6094318725904  24.1051363869232 4.6094318725904  C 25.0886837425633 4.6094318725904  25.9828176941394 4.87273787139236  26.7428315247755 5.35546554557659  C 26.7428315247755 5.35546554557659  26.7428315247755 0.747610508258504  26.7428315247755 1  L 0.5 1  C 0.5 0.747610508258504  0.5 11.1481976066454  0.5 11.1481976066454  C 0.5 12.6402649526178  1.75178753814417 13.8690262997882  3.27181525879237 13.8690262706462  Z M 5.14949656600864 7.9446412393184  L 11.8555012176735 7.9446412393184  L 10.6931270835934 11.1920819300651  L 3.9871224319285 11.1920819300651  L 5.14949656600864 7.9446412393184  Z " fill-rule="nonzero" fill="url(#LinearGradient706)" stroke="none" transform="matrix(1 0 0 1 7 19 )" />
  </g>
</svg>