<?xml version="1.0" encoding="utf-8"?>
<svg version="1.1" xmlns:xlink="http://www.w3.org/1999/xlink" width="59px" height="39px" xmlns="http://www.w3.org/2000/svg">
  <g transform="matrix(1 0 0 1 -37 -339 )">
    <path d="M 56.1319444444445 39  L 30.7291666666667 39  L 16.0103446441007 39  L 2.0486111111112 39  C 1.49377893518545 39  1.01363570601893 38.7203351449259  0.608181423611086 38.1610054347859  C 0.202727141203354 37.6016757246375  0 36.9393115942013  0 36.1739130434815  C 0 35.4085144927533  0.202727141203354 34.7461503623172  0.608181423611086 34.1868206521772  L 14.9484592013889 14.4042119565227  C 15.3539134837966 13.8448822463785  15.8340567129634 13.5652173913044  16.3888888888887 13.5652173913044  C 16.9437210648144 13.5652173913044  17.4238642939811 13.8448822463785  17.8293185763889 14.4042119565227  L 21.7641613633202 19.8323919918198  L 34.0389539930555 1.28645833333292  C 34.606589988427 0.428819444442809  35.2787905092604 0  36.0555555555555 0  C 36.8323206018507 0  37.5045211226841 0.428819444442809  38.0721571180555 1.28645833333292  L 58.1485460069443 31.6197916666671  C 58.716182002316 32.4774305555529  59 33.4930555555544  59 34.6666666666672  C 59 35.8402777777758  58.716182002316 36.8559027777771  58.1485460069443 37.7135416666671  C 57.580910011573 38.5711805555529  56.9087094907395 39  56.1319444444445 39  Z " fill-rule="nonzero" fill="#cccccc" stroke="none" transform="matrix(1 0 0 1 37 339 )" />
  </g>
</svg>