<?xml version="1.0" encoding="utf-8"?>
<svg version="1.1" xmlns:xlink="http://www.w3.org/1999/xlink" width="10px" height="6px" xmlns="http://www.w3.org/2000/svg">
  <g transform="matrix(1 0 0 1 -246 -263 )">
    <path d="M 9.8997995991984 4.90721649484536  C 9.96659986639947 4.97594501718213  10 5.05498281786942  10 5.14432989690722  C 10 5.23367697594502  9.96659986639947 5.3127147766323  9.8997995991984 5.38144329896907  L 9.39879759519038 5.89690721649484  C 9.33199732798931 5.96563573883161  9.25517702070808 6  9.16833667334669 6  C 9.0814963259853 6  9.00467601870407 5.96563573883161  8.93787575150301 5.89690721649484  L 5 1.84536082474227  L 1.06212424849699 5.89690721649484  C 0.995323981295925 5.96563573883161  0.918503674014696 6  0.831663326653307 6  C 0.744822979291917 6  0.668002672010688 5.96563573883161  0.601202404809619 5.89690721649484  L 0.100200400801603 5.38144329896907  C 0.0334001336005345 5.3127147766323  0 5.23367697594502  0 5.14432989690722  C 0 5.05498281786942  0.0334001336005345 4.97594501718213  0.100200400801603 4.90721649484536  L 4.76953907815631 0.103092783505155  C 4.83633934535738 0.0343642611683841  4.91315965263861 0  5 0  C 5.08684034736139 0  5.16366065464262 0.0343642611683841  5.23046092184369 0.103092783505155  L 9.8997995991984 4.90721649484536  Z " fill-rule="nonzero" fill="#a6b4c0" stroke="none" transform="matrix(1 0 0 1 246 263 )" />
  </g>
</svg>