<?xml version="1.0" encoding="utf-8"?>
<svg version="1.1" xmlns:xlink="http://www.w3.org/1999/xlink" width="40px" height="40px" xmlns="http://www.w3.org/2000/svg">
  <g transform="matrix(1 0 0 1 -25 -93 )">
    <path d="M 45 93  C 56.2 93  65 101.8  65 113  C 65 124.2  56.2 133  45 133  C 33.8 133  25 124.2  25 113  C 25 101.8  33.8 93  45 93  Z " fill-rule="nonzero" fill="#f7f7f7" stroke="none" />
    <path d="M 45 93.5  C 55.92 93.5  64.5 102.08  64.5 113  C 64.5 123.92  55.92 132.5  45 132.5  C 34.08 132.5  25.5 123.92  25.5 113  C 25.5 102.08  34.08 93.5  45 93.5  Z " stroke-width="1" stroke="#e4e4e4" fill="none" />
  </g>
</svg>