<?xml version="1.0" encoding="utf-8"?>
<svg version="1.1" xmlns:xlink="http://www.w3.org/1999/xlink" width="16px" height="12px" xmlns="http://www.w3.org/2000/svg">
  <g transform="matrix(1 0 0 1 -326 935 )">
    <path d="M 1.9433333333327 4.98300000000017  C 2.06236176617767 5.1029016794223  2.25580778711492 5.10438972573729  2.3766666666661 4.9863333333335  C 3.98281870325218 3.45943443547139  6.11422309038653 2.60799440959363  8.33033333333265 2.60800000000017  C 10.54622626943 2.60809708382135  12.6773858512774 3.45953465683669  14.2833333333326 4.9863333333335  C 14.4042654033397 5.10420791776983  14.5975622551462 5.10272101890996  14.716666666666 4.98300000000017  C 14.716666666666 4.98300000000017  15.872666666666 3.81633333333343  15.872666666666 3.81633333333343  C 15.9329747249812 3.755611168109  15.9665987244925 3.67335948188975  15.96609825473 3.58777915250653  C 15.9655977849675 3.50219882312331  15.9310141100345 3.42034601219325  15.8699999999994 3.3603333333333  C 11.6549021687647 -0.679214172401089  5.00509783123402 -0.679214172400862  0.789999999999282 3.36033333333353  C 0.72894140232529 3.42030147481364  0.694297497704611 3.50212942636608  0.69373446843133 3.587709875889  C 0.693171439158277 3.6732903254117  0.726735707982471 3.75556701494725  0.786999999999352 3.81633333333343  C 0.786999999999352 3.81633333333343  1.9433333333327 4.98300000000017  1.9433333333327 4.98300000000017  Z M 4.60533333333274 7.66766666666695  C 4.72432200879439 7.78679944952114  4.91660343203284 7.78931389890204  5.03866666666613 7.67333333333363  C 5.94053891817293 6.85666449538166  7.11364878309246 6.40417077634584  8.33033333333265 6.40366666666682  C 9.54782262342792 6.40359206708627  10.7218645387661 6.85612451553038  11.6243333333327 7.67333333333363  C 11.7463965679658 7.78931389890204  11.9386779912045 7.78679944952137  12.0576666666659 7.66766666666695  C 12.0576666666659 7.66766666666695  13.2123333333327 6.5010000000002  13.2123333333327 6.5010000000002  C 13.2731408408422 6.43980501852297  13.3068802563573 6.35678869655931  13.3060031999337 6.27052393260806  C 13.3051261435101 6.18425916865681  13.2697058180988 6.10194599583838  13.207666666666 6.04200000000014  C 10.4594678913816 3.48561767109641  6.20353210861731 3.48561767109641  3.45533333333265 6.04200000000014  C 3.39325557325901 6.10194526757596  3.35783746814013 6.18429968370992  3.35702279543193 6.27059232365605  C 3.35620812272373 6.35688496360217  3.39006506808505 6.43989339255813  3.45099999999934 6.5010000000002  C 3.45099999999934 6.5010000000002  4.60533333333274 7.66766666666695  4.60533333333274 7.66766666666695  Z M 8.33033333333265 11.2962443103315  C 8.41362425554553 11.2962443103315  8.49344986062192 11.2629056648184  8.55199999999923 11.203666666667  C 8.55199999999923 11.203666666667  10.5493333333327 9.18800000000033  10.5493333333327 9.18800000000033  C 10.6110866045042 9.12739397725773  10.6450945221902 9.043991889366  10.6433277885594 8.95748503908635  C 10.6415610549286 8.87097818880648  10.6041762653731 8.78903415766376  10.5399999999993 8.73100000000022  C 9.26442836009596 7.65211615098019  7.39623830656933 7.65211615098019  6.12066666666601 8.73100000000022  C 6.05644587086317 8.78898749616519  6.01899987144907 8.87090573553314  6.01717003079148 8.95741303007048  C 6.01534019013388 9.04392032460783  6.0492887039411 9.12734873238105  6.11099999999919 9.18800000000033  C 6.11099999999919 9.18800000000033  8.10866666666607 11.203666666667  8.10866666666607 11.203666666667  C 8.16721680604314 11.2629056648184  8.24704241111954 11.2962443103315  8.33033333333265 11.2962443103315  Z " fill-rule="nonzero" fill="#000000" stroke="none" transform="matrix(1 0 0 1 326 -935 )" />
  </g>
</svg>