<?xml version="1.0" encoding="utf-8"?>
<svg version="1.1" xmlns:xlink="http://www.w3.org/1999/xlink" width="11px" height="10px" xmlns="http://www.w3.org/2000/svg">
  <g transform="matrix(1 0 0 1 -581 -1696 )">
    <path d="M 5.96555488596277 9.42231438948852  C 5.89556101934267 9.53880374559481  5.80820852436443 9.63386989934259  5.71205476844784 9.70251410860408  C 5.5720587332051 9.87539481445151  5.32534462017566 9.91853897084195  5.07750204073886 9.8358739239427  C 4.97439680616816 9.80148435669923  4.87109627340499 9.74532160255364  4.77520257738956 9.66766841863625  L 1.2780457508332 6.83572665891199  C 0.951644447021295 6.57141209467102  0.850943076525311 6.17139274016404  1.04917899970599 5.92659176230507  L 1.28517414634973 5.63516202675862  C 1.48341006953041 5.39036104889965  1.89562503359605 5.40569315248547  2.22202633740795 5.67000771672645  L 5.07973690304266 7.98415704394404  L 9.05762757164507 1.36383522115557  C 9.27394356310731 1.00382495486065  9.65605503475138 0.848431669169258  9.92606273447257 1.01066866276597  L 10.2475004722359 1.20380794085713  C 10.517508171957 1.36604493445384  10.5596945141605 1.77638206722577  10.3433785226982 2.13639233352069  L 5.96555488596277 9.42231438948852  Z " fill-rule="nonzero" fill="#ffffff" stroke="none" transform="matrix(1 0 0 1 581 1696 )" />
  </g>
</svg>