<?xml version="1.0" encoding="utf-8"?>
<svg version="1.1" xmlns:xlink="http://www.w3.org/1999/xlink" width="327px" height="228px" xmlns="http://www.w3.org/2000/svg">
  <defs>
    <mask fill="white" id="clip182">
      <path d="M 0.5 7.11494892067964  L 279.820001312896 7.5325885115132  L 290.258779130288 0  L 300.741480429951 8  L 325.509847169435 8  L 326.509877468418 228  L 0.5 228  L 0.5 7.11494892067964  Z " fill-rule="evenodd" />
    </mask>
  </defs>
  <g transform="matrix(1 0 0 1 -247 -1336 )">
    <path d="M 0.5 7.11494892067964  L 279.820001312896 7.5325885115132  L 290.258779130288 0  L 300.741480429951 8  L 325.509847169435 8  L 326.509877468418 228  L 0.5 228  L 0.5 7.11494892067964  Z " fill-rule="nonzero" fill="#ffffff" stroke="none" fill-opacity="0" transform="matrix(1 0 0 1 247 1336 )" />
    <path d="M 0.5 7.11494892067964  L 279.820001312896 7.5325885115132  L 290.258779130288 0  L 300.741480429951 8  L 325.509847169435 8  L 326.509877468418 228  L 0.5 228  L 0.5 7.11494892067964  Z " stroke-width="2" stroke="#c98442" fill="none" transform="matrix(1 0 0 1 247 1336 )" mask="url(#clip182)" />
  </g>
</svg>