<?xml version="1.0" encoding="utf-8"?>
<svg version="1.1" xmlns:xlink="http://www.w3.org/1999/xlink" width="24px" height="31px" xmlns="http://www.w3.org/2000/svg">
  <defs>
    <mask fill="white" id="clip183">
      <path d="M 16.0227272727275 0.5  L 23.5 8.34860885701414  L 23.5 28.0483870967742  C 23.5 29.7012903225807  22.2075 31  20.5625 31  L 2.9375 31  C 1.29250000000002 31  0 29.7012903225807  0 28.0483870967742  L 0 3.45161290322585  C 0 1.79870967741931  1.29250000000002 0.5  2.9375 0.5  L 16.0227272727275 0.5  Z " fill-rule="evenodd" />
    </mask>
  </defs>
  <g transform="matrix(1 0 0 1 -176 -324 )">
    <path d="M 16.0227272727275 0.5  L 23.5 8.34860885701414  L 23.5 28.0483870967742  C 23.5 29.7012903225807  22.2075 31  20.5625 31  L 2.9375 31  C 1.29250000000002 31  0 29.7012903225807  0 28.0483870967742  L 0 3.45161290322585  C 0 1.79870967741931  1.29250000000002 0.5  2.9375 0.5  L 16.0227272727275 0.5  Z " fill-rule="nonzero" fill="#ffffff" stroke="none" transform="matrix(1 0 0 1 176 324 )" />
    <path d="M 16.0227272727275 0.5  L 23.5 8.34860885701414  L 23.5 28.0483870967742  C 23.5 29.7012903225807  22.2075 31  20.5625 31  L 2.9375 31  C 1.29250000000002 31  0 29.7012903225807  0 28.0483870967742  L 0 3.45161290322585  C 0 1.79870967741931  1.29250000000002 0.5  2.9375 0.5  L 16.0227272727275 0.5  Z " stroke-width="2" stroke="#303030" fill="none" transform="matrix(1 0 0 1 176 324 )" mask="url(#clip183)" />
  </g>
</svg>