<?xml version="1.0" encoding="utf-8"?>
<svg version="1.1" xmlns:xlink="http://www.w3.org/1999/xlink" width="12px" height="5px" xmlns="http://www.w3.org/2000/svg">
  <defs>
    <mask fill="white" id="clip303">
      <path d="M 9.0571531278656 1.62913404340319  C 9.04099470044093 1.30926089376548  8.96755804490749 0.8856139061766  8.56217943512092 0.410552175823159  C 8.18161449815852 -0.0380676868234739  7.65249246518579 -0.120750987434752  7.00216745647413 0.171001445751293  C 5.76390610217277 0.722713114045107  4.23207536624795 2.60365327491402  3.06122448979659 5  C 3.06122448979659 5  8.08088280251468 5  8.08088280251468 5  C 8.38041928164967 4.46119448142099  9.1228798207776 2.83035031929332  9.05712358777964 1.62918650742657  Z " fill-rule="evenodd" />
    </mask>
  </defs>
  <g transform="matrix(1 0 0 1 -313 -444 )">
    <path d="M 9.0571531278656 1.62913404340319  C 9.04099470044093 1.30926089376548  8.96755804490749 0.8856139061766  8.56217943512092 0.410552175823159  C 8.18161449815852 -0.0380676868234739  7.65249246518579 -0.120750987434752  7.00216745647413 0.171001445751293  C 5.76390610217277 0.722713114045107  4.23207536624795 2.60365327491402  3.06122448979659 5  C 3.06122448979659 5  8.08088280251468 5  8.08088280251468 5  C 8.38041928164967 4.46119448142099  9.1228798207776 2.83035031929332  9.05712358777964 1.62918650742657  Z " fill-rule="nonzero" fill="#ffffff" stroke="none" transform="matrix(1 0 0 1 313 444 )" />
    <path d="M 9.0571531278656 1.62913404340319  C 9.04099470044093 1.30926089376548  8.96755804490749 0.8856139061766  8.56217943512092 0.410552175823159  C 8.18161449815852 -0.0380676868234739  7.65249246518579 -0.120750987434752  7.00216745647413 0.171001445751293  C 5.76390610217277 0.722713114045107  4.23207536624795 2.60365327491402  3.06122448979659 5  C 3.06122448979659 5  8.08088280251468 5  8.08088280251468 5  C 8.38041928164967 4.46119448142099  9.1228798207776 2.83035031929332  9.05712358777964 1.62918650742657  Z " stroke-width="2" stroke="#303030" fill="none" transform="matrix(1 0 0 1 313 444 )" mask="url(#clip303)" />
  </g>
</svg>