<?xml version="1.0" encoding="utf-8"?>
<svg version="1.1" xmlns:xlink="http://www.w3.org/1999/xlink" width="9px" height="13px" xmlns="http://www.w3.org/2000/svg">
  <g transform="matrix(1 0 0 1 -61 -398 )">
    <path d="M 8.99609829608968 7.11695683503405  C 8.99609829608968 7.11695683503405  8.99609829608968 6.13064782315613  8.99609829608968 6.13064782315613  C 8.99609829608968 6.0107435903396  8.94051166861309 5.89083935752307  8.85157306465055 5.77093512470654  C 8.76634023585311 5.65103089189001  8.65146120573482 5.59301271472072  8.50693597429568 5.59301271472072  C 8.50693597429568 5.59301271472072  6.84674870032815 5.59301271472072  6.84674870032815 5.59301271472072  C 6.70222346888901 5.59301271472072  6.56140401261498 5.5620696868971  6.41687878117584 5.53499453755143  C 6.24641312358096 5.50405150972781  6.21676692226011 5.4150903047349  6.30199975105755 5.26424304409474  C 6.3316459523784 5.20622486692545  6.47246540865243 4.99349155063806  6.70222346888901 4.63764673066642  C 6.93198152912559 4.27793403221682  7.18768001551791 3.6513377187885  7.47673047839618 3.26454987099324  C 7.76207516610935 2.87776202319797  8.02147942766678 2.48710629692476  8.2771779140591 2.12739359847516  C 8.53658217561653 1.76768090002557  8.67740163189056 1.53174031287046  8.73669403453225 1.4389112293996  C 8.85157306465054 1.19910276376653  8.7663402358531 0.932219148787801  8.47728977297483 0.603449478161828  C 8.44764357165398 0.545431300992539  8.33276454153569 0.452602217521677  8.16229888394081 0.332697984705144  C 8.01777365250167 0.212793751888612  7.87695419622764 0.123832546895703  7.7324289647885 0.0619464912484603  C 7.50267090455192 0.00392831407917094  7.33220524695705 -0.0270147137444505  7.2469724181596 0.0310034634248389  C 7.16173958936216 0.0890216405941283  7.04686055924387 0.208925873410661  6.90233532780474 0.417791311220102  C 6.84674870032815 0.506752516213012  6.73186967020986 0.746560981846075  6.50211160997328 1.07533065247205  C 6.30199975105755 1.43504335092164  6.07224169082097 1.79088817089328  5.81654320442865 2.1815438971665  C 5.55713894287123 2.56833174496176  5.33108665779975 2.92804444341136  5.13097479888403 3.22587108621371  C 4.9308629399683 3.55464075683968  4.81598390985001 3.7325631668255  4.78633770852916 3.79444922247274  C 4.73075108105257 3.91435345528928  4.61587205093428 3.97237163245857  4.47134681949514 3.9452964831129  C 4.32682158805601 3.91435345528928  4.24158875925856 3.85633527811999  4.18600213178197 3.73643104530346  C 4.15635593046112 3.67841286813417  4.04147690034283 3.52756560749402  3.81542461527136 3.22973896469166  C 3.61531275635563 2.95898747123498  3.35590849479821 2.63408567908696  3.12985620972673 2.27437298063736  C 2.87045194816931 1.8875851328421  2.64439966309784 1.58589061156179  2.41464160286126 1.25712094093582  C 2.18488354262469 0.928351270309848  2.04406408635065 0.719485832500407  1.95512548238811 0.599581599683875  C 1.69572122083068 0.0928895190720796  1.44002273443836 -0.057957741568072  1.18061847288093 0.11996466841775  C 0.980506613965205 0.239868901234282  0.810040956370324 0.390716161874434  0.665515724931187 0.506752516213012  C 0.52099049349205 0.626656749029545  0.380171037218018 0.746560981846075  0.235645805778879 0.835522186838986  C -0.0237584557785476 1.04438762464843  -0.079345083255139 1.31513911810511  0.120766775660589 1.64390878873108  C 0.580282896133744 2.21248692499012  1.00644704012094 2.78106506124916  1.35108413047581 3.28775714186095  C 1.66607501950983 3.70548801747984  2.06629873734129 4.33208433090816  2.35164342505446 4.72274005718138  C 2.61104768661189 5.08245275563097  2.63698811276763 5.31839334278608  2.69628051540932 5.38027939843332  C 2.75186714288592 5.50018363124985  2.69628051540932 5.55820180841914  2.52581485781444 5.55820180841914  C 2.52581485781444 5.55820180841914  2.04035831118554 5.55820180841914  2.04035831118554 5.55820180841914  C 1.89583307974641 5.55820180841914  1.86989265359066 5.55820180841914  1.61048839203324 5.58914483624277  C 1.35108413047581 5.58914483624277  1.12503184540434 5.58914483624277  0.89527378516776 5.55820180841914  C 0.665515724931183 5.55820180841914  0.495050067336301 5.61621998558843  0.350524835897165 5.73612421840497  C 0.235645805778875 5.8560284512215  0.180059178302283 6.00687571186165  0.235645805778875 6.18479812184747  C 0.265292007099724 6.304702354664  0.265292007099724 6.48262476464982  0.265292007099724 6.72243323028289  C 0.265292007099724 6.72243323028289  0.265292007099724 7.17110713372539  0.265292007099724 7.17110713372539  C 0.265292007099724 7.32195439436555  0.294938208420573 7.41091559935846  0.380171037218014 7.41091559935846  C 0.465403866015454 7.44185862718208  0.550636694812895 7.44185862718208  0.665515724931183 7.44185862718208  C 0.665515724931183 7.44185862718208  3.21508903852418 7.44185862718208  3.21508903852418 7.44185862718208  C 3.5300799275582 7.44185862718208  3.70054558515308 7.49987680435137  3.70054558515308 7.65072406499152  C 3.70054558515308 7.65072406499152  3.70054558515308 8.25024522907417  3.70054558515308 8.25024522907417  C 3.70054558515308 8.42816763905999  3.67089938383223 8.49005369470724  3.61531275635564 8.49005369470724  C 3.61531275635564 8.49005369470724  0.695161926252034 8.49005369470724  0.695161926252034 8.49005369470724  C 0.550636694812897 8.45911066688362  0.435757664694607 8.49005369470724  0.380171037218016 8.60995792752377  C 0.350524835897167 8.76080518816392  0.294938208420575 8.88070942098045  0.265292007099726 9.02768880314265  C 0.235645805778877 9.17466818530485  0.235645805778877 9.23655424095209  0.265292007099726 9.35645847376862  C 0.294938208420575 9.47636270658515  0.294938208420575 9.59626693940169  0.294938208420575 9.6852281443946  C 0.294938208420575 10.1029590200135  0.495050067336303 10.2808814299993  0.839687157691171 10.2808814299993  C 0.839687157691171 10.2808814299993  3.5300799275582 10.2808814299993  3.5300799275582 10.2808814299993  C 3.64495895767649 10.2808814299993  3.73019178647392 10.3118244578229  3.75983798779478 10.3388996071686  C 3.75983798779478 10.3969177843379  3.78948418911562 10.4897468678087  3.78948418911562 10.6367262499709  C 3.81913039043647 10.7875735106111  3.84507081659221 11.3522837683922  3.81913039043647 11.7429394946654  C 3.79318996428073 12.1335952209386  3.78948418911562 12.4004788359173  3.78948418911562 12.5203830687339  C 3.78948418911562 12.8491527393598  3.9599498467105 13  4.30458693706537 13  C 4.30458693706537 13  5.24955960416742 13  5.24955960416742 13  C 5.44967146308315 13  5.56455049320144 12.9110387950071  5.56455049320144 12.7601915343669  C 5.56455049320144 12.7601915343669  5.56455049320144 10.6986123056182  5.56455049320144 10.6986123056182  C 5.56455049320144 10.4007856628158  5.70907572464058 10.2499384021757  5.93512800971205 10.2499384021757  C 5.93512800971205 10.2499384021757  6.30570552622266 10.2499384021757  6.30570552622266 10.2499384021757  C 6.47617118381754 10.2499384021757  6.70592924405411 10.2499384021757  6.93568730429069 10.2189953743521  C 7.16544536452727 10.1880523465284  7.39520342476385 10.1880523465284  7.59531528367958 10.1880523465284  C 7.59531528367958 10.1880523465284  8.3957627193425 10.1880523465284  8.3957627193425 10.1880523465284  C 8.76634023585311 10.1880523465284  8.96645209476883 10.0372050858883  8.96645209476883 9.73937844308594  C 8.96645209476883 9.73937844308594  8.96645209476883 8.84203063620093  8.96645209476883 8.84203063620093  C 8.96645209476883 8.57127914274424  8.8219268633297 8.42429976058204  8.56622837693738 8.42429976058204  C 8.56622837693738 8.42429976058204  5.93142223454694 8.42429976058204  5.93142223454694 8.42429976058204  C 5.67201797298952 8.48231793775133  5.53119851671549 8.42429976058204  5.53119851671549 8.24637735059622  C 5.53119851671549 8.15741614560331  5.53119851671549 8.18835917342693  5.50155231539464 8.03751191278678  C 5.47190611407379 7.88666465214663  5.47190611407379 7.7667604193301  5.47190611407379 7.65072406499152  C 5.47190611407379 7.53081983217499  5.52749274155038 7.59270588782223  5.61643134551293 7.53081983217499  C 5.73131037563122 7.4728016550057  5.81654320442866 7.44185862718208  5.93142223454695 7.44185862718208  C 5.93142223454695 7.44185862718208  8.62552077957907 7.44185862718208  8.62552077957907 7.44185862718208  C 8.8849250411365 7.44572650566003  9.02574449741053 7.35676530066712  8.99609829608968 7.11695683503406  Z " fill-rule="nonzero" fill="#303030" stroke="none" transform="matrix(1 0 0 1 61 398 )" />
  </g>
</svg>