<?xml version="1.0" encoding="utf-8"?>
<svg version="1.1" xmlns:xlink="http://www.w3.org/1999/xlink" width="12px" height="5px" xmlns="http://www.w3.org/2000/svg">
  <defs>
    <mask fill="white" id="clip83">
      <path d="M 0.00814272385804075 1.62913404340274  C 0.040459578708118 1.30926089376502  0.187332889781786 0.885613906176922  0.998090109356989 0.410552175822715  C 1.75921998327576 -0.0380676868232068  2.8174640492257 -0.120750987434829  4.11811406663793 0.171001445751228  C 6.59463677524052 0.722713114045522  9.65829824709738 2.60365327491344  12 5  C 12 5  1.9606833745715 5  1.9606833745715 5  C 1.36161041629033 4.46119448142046  -0.123310661958096 2.8303503192934  0.00820180403143986 1.62918650742597  Z " fill-rule="evenodd" />
    </mask>
  </defs>
  <g transform="matrix(1 0 0 1 -301 -444 )">
    <path d="M 0.00814272385804075 1.62913404340274  C 0.040459578708118 1.30926089376502  0.187332889781786 0.885613906176922  0.998090109356989 0.410552175822715  C 1.75921998327576 -0.0380676868232068  2.8174640492257 -0.120750987434829  4.11811406663793 0.171001445751228  C 6.59463677524052 0.722713114045522  9.65829824709738 2.60365327491344  12 5  C 12 5  1.9606833745715 5  1.9606833745715 5  C 1.36161041629033 4.46119448142046  -0.123310661958096 2.8303503192934  0.00820180403143986 1.62918650742597  Z " fill-rule="nonzero" fill="#ffffff" stroke="none" transform="matrix(1 0 0 1 301 444 )" />
    <path d="M 0.00814272385804075 1.62913404340274  C 0.040459578708118 1.30926089376502  0.187332889781786 0.885613906176922  0.998090109356989 0.410552175822715  C 1.75921998327576 -0.0380676868232068  2.8174640492257 -0.120750987434829  4.11811406663793 0.171001445751228  C 6.59463677524052 0.722713114045522  9.65829824709738 2.60365327491344  12 5  C 12 5  1.9606833745715 5  1.9606833745715 5  C 1.36161041629033 4.46119448142046  -0.123310661958096 2.8303503192934  0.00820180403143986 1.62918650742597  Z " stroke-width="2" stroke="#303030" fill="none" transform="matrix(1 0 0 1 301 444 )" mask="url(#clip83)" />
  </g>
</svg>