<?xml version="1.0" encoding="utf-8"?>
<svg version="1.1" xmlns:xlink="http://www.w3.org/1999/xlink" width="38px" height="11px" xmlns="http://www.w3.org/2000/svg">
  <g transform="matrix(1 0 0 1 -530 -1572 )">
    <path d="M 2.26539222835714 10.5  C 3.83805604750495 10.5  5.11391811647047 9.25563909774439  5.11391811647047 7.72180451127815  C 5.11391811647047 6.98120300751873  4.80940722991977 6.30827067669168  4.32373163871239 5.80827067669168  C 3.98838420668818 7.50375939849619  2.55448484217106 8.97368421052624  0.5 9.88721804511283  C 0.985675591207439 10.2669172932331  1.59469736430879 10.5  2.26539222835714 10.5  Z M 34.6553286800709 10.5  C 36.2279924992188 10.5  37.5000000000001 9.25939849624058  37.5000000000001 7.72556390977445  C 37.4961454318159 6.98872180451121  37.1993436816336 6.32706766917295  36.7213772267946 5.83082706766913  C 36.3320658401918 7.50375939849619  34.8750390665695 8.93984962406012  32.8166996562142 9.82706766917295  C 33.3139389519742 10.2406015037594  33.9499427023649 10.5  34.6553286800709 10.5  Z M 18.4584331701219 7.04135338345861  C 20.782737785186 7.04135338345861  22.6676216272529 5.20300751879699  22.6676216272529 2.93609022556393  C 22.6637670590687 1.78571428571422  22.1742368996771 0.744360902255607  21.3879049901032 0  C 21.4765600583394 0.248120300751907  21.5266694447338 0.507518796992485  21.5266694447338 0.770676691729364  C 21.5266694447338 2.70300751879699  19.0558912386707 4.27067669172925  16.0107823731639 4.27067669172925  C 15.4595791228253 4.27067669172925  14.9276487134077 4.21804511278197  14.4265548494635 4.12030075187965  C 14.9469215543286 5.81203007518798  16.5542764871341 7.04135338345861  18.4584331701219 7.04135338345861  Z " fill-rule="nonzero" fill="#c1925d" stroke="none" transform="matrix(1 0 0 1 530 1572 )" />
  </g>
</svg>