<?xml version="1.0" encoding="utf-8"?>
<svg version="1.1" xmlns:xlink="http://www.w3.org/1999/xlink" width="36px" height="17px" xmlns="http://www.w3.org/2000/svg">
  <defs>
    <mask fill="white" id="clip183">
      <path d="M 2 13.3511763416511  L 0 13.3511763416511  L 0 2.13673403096186  L 2 2.13673403096186  L 2 13.3511763416511  Z M 35.4564489252662 6.05017502366536  C 35.6095293858334 5.09632938165487  35.3573300405769 4.17431350369952  34.7271156205202 3.38389863684847  C 33.415281275576 1.73874330664421  31.1768224407269 1.96983010113968  30.0738288474013 2.50203864068158  C 28.2849551973668 3.36539072586197  23.5711273418387 6.02943095372711  22.5806483828296 6.59085249363852  C 22.1785873093017 6.17069034065344  21.7663019113566 5.91624271253409  21.5539109962501 5.8009133725966  C 18.8091127137759 4.3109577600253  10.4928761650622 0.788228087466678  10.1401852250806 0.638975637220256  C 10.1401852250806 0.638975637220256  9.81172959262449 0.5  9.81172959262449 0.5  L 4 1.91901668028891  L 4 13.479922635298  L 7.71854104371459 13.479922635298  L 20.7796570388055 16.0569425418635  C 20.7796570388055 16.0569425418635  21.1240644517093 15.8690566691985  21.1240644517093 15.8690566691985  C 21.5167532513201 15.6548601043767  30.7757553791848 10.6003536653907  33.822359796573 8.61453914555591  C 34.452242865892 8.20394018688353  35.258116461262 7.2860160220971  35.4564489252662 6.05017502366536  Z " fill-rule="evenodd" />
    </mask>
  </defs>
  <g transform="matrix(1 0 0 1 -297 -402 )">
    <path d="M 2 13.3511763416511  L 0 13.3511763416511  L 0 2.13673403096186  L 2 2.13673403096186  L 2 13.3511763416511  Z M 35.4564489252662 6.05017502366536  C 35.6095293858334 5.09632938165487  35.3573300405769 4.17431350369952  34.7271156205202 3.38389863684847  C 33.415281275576 1.73874330664421  31.1768224407269 1.96983010113968  30.0738288474013 2.50203864068158  C 28.2849551973668 3.36539072586197  23.5711273418387 6.02943095372711  22.5806483828296 6.59085249363852  C 22.1785873093017 6.17069034065344  21.7663019113566 5.91624271253409  21.5539109962501 5.8009133725966  C 18.8091127137759 4.3109577600253  10.4928761650622 0.788228087466678  10.1401852250806 0.638975637220256  C 10.1401852250806 0.638975637220256  9.81172959262449 0.5  9.81172959262449 0.5  L 4 1.91901668028891  L 4 13.479922635298  L 7.71854104371459 13.479922635298  L 20.7796570388055 16.0569425418635  C 20.7796570388055 16.0569425418635  21.1240644517093 15.8690566691985  21.1240644517093 15.8690566691985  C 21.5167532513201 15.6548601043767  30.7757553791848 10.6003536653907  33.822359796573 8.61453914555591  C 34.452242865892 8.20394018688353  35.258116461262 7.2860160220971  35.4564489252662 6.05017502366536  Z " fill-rule="nonzero" fill="#ffffff" stroke="none" transform="matrix(1 0 0 1 297 402 )" />
    <path d="M 2 13.3511763416511  L 0 13.3511763416511  L 0 2.13673403096186  L 2 2.13673403096186  L 2 13.3511763416511  Z " stroke-width="2" stroke="#303030" fill="none" transform="matrix(1 0 0 1 297 402 )" mask="url(#clip183)" />
    <path d="M 35.4564489252662 6.05017502366536  C 35.6095293858334 5.09632938165487  35.3573300405769 4.17431350369952  34.7271156205202 3.38389863684847  C 33.415281275576 1.73874330664421  31.1768224407269 1.96983010113968  30.0738288474013 2.50203864068158  C 28.2849551973668 3.36539072586197  23.5711273418387 6.02943095372711  22.5806483828296 6.59085249363852  C 22.1785873093017 6.17069034065344  21.7663019113566 5.91624271253409  21.5539109962501 5.8009133725966  C 18.8091127137759 4.3109577600253  10.4928761650622 0.788228087466678  10.1401852250806 0.638975637220256  C 10.1401852250806 0.638975637220256  9.81172959262449 0.5  9.81172959262449 0.5  L 4 1.91901668028891  L 4 13.479922635298  L 7.71854104371459 13.479922635298  L 20.7796570388055 16.0569425418635  C 20.7796570388055 16.0569425418635  21.1240644517093 15.8690566691985  21.1240644517093 15.8690566691985  C 21.5167532513201 15.6548601043767  30.7757553791848 10.6003536653907  33.822359796573 8.61453914555591  C 34.452242865892 8.20394018688353  35.258116461262 7.2860160220971  35.4564489252662 6.05017502366536  Z " stroke-width="2" stroke="#303030" fill="none" transform="matrix(1 0 0 1 297 402 )" mask="url(#clip183)" />
  </g>
</svg>