<?xml version="1.0" encoding="utf-8"?>
<svg version="1.1" xmlns:xlink="http://www.w3.org/1999/xlink" width="70px" height="70px" xmlns="http://www.w3.org/2000/svg">
  <g transform="matrix(1 0 0 1 -155 -68 )">
    <path d="M 190 68  C 209.6 68  225 83.4  225 103  C 225 122.6  209.6 138  190 138  C 170.4 138  155 122.6  155 103  C 155 83.4  170.4 68  190 68  Z " fill-rule="nonzero" fill="#6a7d8f" stroke="none" />
    <path d="M 190 68.5  C 209.32 68.5  224.5 83.68  224.5 103  C 224.5 122.32  209.32 137.5  190 137.5  C 170.68 137.5  155.5 122.32  155.5 103  C 155.5 83.68  170.68 68.5  190 68.5  Z " stroke-width="1" stroke="#797979" fill="none" />
  </g>
</svg>