<?xml version="1.0" encoding="utf-8"?>
<svg version="1.1" xmlns:xlink="http://www.w3.org/1999/xlink" width="1210px" height="1290px" xmlns="http://www.w3.org/2000/svg">
  <g transform="matrix(1 0 0 1 445 1190 )">
    <path d="M 160 -1190  C 498.8 -1190  765 -906.2  765 -545  C 765 -183.8  498.8 100  160 100  C -178.8 100  -445 -183.8  -445 -545  C -445 -906.2  -178.8 -1190  160 -1190  Z " fill-rule="nonzero" fill="#bfcdda" stroke="none" />
    <path d="M 160 -1189.5  C 498.52 -1189.5  764.5 -905.92  764.5 -545  C 764.5 -184.08  498.52 99.5  160 99.5  C -178.52 99.5  -444.5 -184.08  -444.5 -545  C -444.5 -905.92  -178.52 -1189.5  160 -1189.5  Z " stroke-width="1" stroke="#797979" fill="none" />
  </g>
</svg>