<?xml version="1.0" encoding="utf-8"?>
<svg version="1.1" xmlns:xlink="http://www.w3.org/1999/xlink" width="52px" height="52px" xmlns="http://www.w3.org/2000/svg">
  <g transform="matrix(1 0 0 1 -271 -212 )">
    <path d="M 25.7167492486215 51.170666334619  C 39.7973079078392 51.170666334619  51.2167492486215 39.7512249938369  51.2167492486215 25.670666334619  C 51.2167492486215 11.5901076754011  39.7973079078392 0.170666334619  25.7167492486215 0.170666334619  C 11.6361905894037 0.170666334619  0.216749248621454 11.5901076754011  0.216749248621454 25.670666334619  C 0.216749248621454 39.7512249938369  11.6361905894037 51.170666334619  25.7167492486215 51.170666334619  Z M 40.2277522824434 18.4962296051306  C 40.8787932782548 17.8500626786746  40.8787932782548 16.8071265868508  40.2334631683716 16.155291529461  C 39.5824221725602 15.509124603005  38.5259082758485 15.509124603005  37.8748672800371 16.155291529461  C 37.8748672800371 16.155291529461  22.2384616087056 31.6746340262727  22.2384616087056 31.6746340262727  C 22.2384616087056 31.6746340262727  13.5636258838144 23.0647431377931  13.5636258838144 23.0647431377931  C 12.912584888003 22.4185762113372  11.8560709912913 22.4185762113372  11.2050299954799 23.0647431377931  C 10.5539889996685 23.7109100642491  10.5539889996685 24.7595142870067  11.2050299954799 25.4056812134627  C 11.2050299954799 25.4056812134627  21.0620191075027 35.1832070743101  21.0620191075027 35.1832070743101  C 21.3704069476239 35.4949542756705  21.7987233922368 35.670666334619  22.2384616087056 35.670666334619  C 22.6781998251749 35.670666334619  23.1008053838596 35.4949542756705  23.414904109909 35.1832070743101  C 23.414904109909 35.1832070743101  40.2277522824434 18.4962296051306  40.2277522824434 18.4962296051306  Z " fill-rule="nonzero" fill="#1f8beb" stroke="none" transform="matrix(1 0 0 1 271 212 )" />
  </g>
</svg>