<?xml version="1.0" encoding="utf-8"?>
<svg version="1.1" xmlns:xlink="http://www.w3.org/1999/xlink" width="38px" height="29px" xmlns="http://www.w3.org/2000/svg">
  <g transform="matrix(1 0 0 1 -707 -224 )">
    <path d="M 36.9804443000191 4.8129129345121  C 38.0335416860231 3.71274702525065  38.0227690313214 1.9449448820589  36.9612281926686 0.861293395972035  C 35.8996873540158 -0.225060412188049  34.1827628976039 -0.213950720431967  33.1319946290253 0.883663068491779  L 13.3901295140052 21.4667351877782  L 4.65119664386435 12.2057039431369  C 3.60581474495046 11.096980462457  1.89165625300111 11.0774633137434  0.821963080221032 12.1498549063413  C -0.250495972394354 13.2250990227453  -0.274807161633051 14.9957536024659  0.767808772818296 16.0989222372677  L 11.4322766387432 27.4014459631978  C 11.4376629237805 27.4098533328819  11.4485811377429 27.4098533328819  11.4539675074076 27.4182607025648  C 11.4593537924447 27.4238155484428  11.4621197569073 27.4350754419318  11.4675060419446 27.4406303750845  C 11.6381212136529 27.6137323313479  11.849352158227 27.719875559061  12.0498104480993 27.837278592987  C 12.1553530984423 27.8959801535887  12.2393505240092 27.9937159243416  12.3476591388147 28.0383050676482  C 12.6753509476943 28.1779276596357  13.0247335406108 28.2477389119921  13.3713502536919 28.2477389119921  C 13.715346561571 28.2477389119921  14.0591973101895 28.1779276596357  14.3841231546064 28.0438599135262  C 14.4896658049495 27.9991206557614  14.5710428253144 27.9097921674153  14.6711991906203 27.8539431306198  C 14.8742778010671 27.736690211152  15.0855087456412 27.6332493927868  15.2588898818121 27.4572949127173  C 15.2642761668494 27.4517400668406  15.2670421313119 27.4404801733516  15.2751943808117 27.4349252401976  C 15.2805806658489 27.4265178705147  15.2887329153487 27.4238154611668  15.2968852494759 27.4181105008305  L 29.3544172392486 12.7630768330212  L 36.9804443000191 4.8129129345121  Z " fill-rule="nonzero" fill="#ffffff" stroke="none" transform="matrix(1 0 0 1 707 224 )" />
  </g>
</svg>