<?xml version="1.0" encoding="utf-8"?>
<svg version="1.1" xmlns:xlink="http://www.w3.org/1999/xlink" width="37px" height="22px" xmlns="http://www.w3.org/2000/svg">
  <g transform="matrix(1 0 0 1 -88 -491 )">
    <path d="M 28.0390625 19.97875  C 28.3207131410256 19.8045833333333  28.4615384615385 19.5983333333333  28.4615384615385 19.36  C 28.4615384615385 19.1216666666667  28.3207131410256 18.9154166666667  28.0390625 18.74125  C 27.7574118589744 18.5670833333333  27.4238782051282 18.48  27.0384615384615 18.48  C 26.6530448717949 18.48  26.3195112179487 18.5670833333333  26.0378605769231 18.74125  C 25.7562099358974 18.9154166666667  25.6153846153846 19.1216666666667  25.6153846153846 19.36  C 25.6153846153846 19.5983333333333  25.7562099358974 19.8045833333333  26.0378605769231 19.97875  C 26.3195112179487 20.1529166666667  26.6530448717949 20.24  27.0384615384615 20.24  C 27.4238782051282 20.24  27.7574118589744 20.1529166666667  28.0390625 19.97875  Z M 33.7313701923077 19.97875  C 34.0130208333333 19.8045833333333  34.1538461538462 19.5983333333333  34.1538461538462 19.36  C 34.1538461538462 19.1216666666667  34.0130208333333 18.9154166666667  33.7313701923077 18.74125  C 33.4497195512821 18.5670833333333  33.1161858974359 18.48  32.7307692307692 18.48  C 32.3453525641026 18.48  32.0118189102564 18.5670833333333  31.7301682692308 18.74125  C 31.4485176282051 18.9154166666667  31.3076923076923 19.1216666666667  31.3076923076923 19.36  C 31.3076923076923 19.5983333333333  31.4485176282051 19.8045833333333  31.7301682692308 19.97875  C 32.0118189102564 20.1529166666667  32.3453525641026 20.24  32.7307692307692 20.24  C 33.1161858974359 20.24  33.4497195512821 20.1529166666667  33.7313701923077 19.97875  Z M 36.3774038461538 15.345  C 36.7924679487179 15.6016666666667  37 15.9133333333333  37 16.28  L 37 20.68  C 37 21.0466666666667  36.7924679487179 21.3583333333333  36.3774038461538 21.615  C 35.9623397435897 21.8716666666667  35.4583333333333 22  34.8653846153846 22  L 2.13461538461538 22  C 1.54166666666667 22  1.03766025641026 21.8716666666667  0.622596153846154 21.615  C 0.207532051282051 21.3583333333333  0 21.0466666666667  0 20.68  L 0 16.28  C 0 15.9133333333333  0.207532051282051 15.6016666666667  0.622596153846154 15.345  C 1.03766025641026 15.0883333333333  1.54166666666667 14.96  2.13461538461538 14.96  L 11.6292067307692 14.96  C 11.9405048076923 15.4733333333333  12.4630408653846 15.895  13.1968149038462 16.225  C 13.9305889423077 16.555  14.7495993589744 16.72  15.6538461538462 16.72  L 21.3461538461538 16.72  C 22.2504006410256 16.72  23.0694110576923 16.555  23.8031850961538 16.225  C 24.5369591346154 15.895  25.0594951923077 15.4733333333333  25.3707932692308 14.96  L 34.8653846153846 14.96  C 35.4583333333333 14.96  35.9623397435897 15.0883333333333  36.3774038461538 15.345  Z M 29.4621394230769 6.42125  C 29.9216746794872 6.69625  30.0254407051282 7.0125  29.7734375 7.37  C 29.5214342948718 7.73666666666666  29.0841346153846 7.92  28.4615384615385 7.92  L 22.7692307692308 7.92  L 22.7692307692308 14.08  C 22.7692307692308 14.3183333333333  22.6284054487179 14.5245833333333  22.3467548076923 14.69875  C 22.0651041666667 14.8729166666667  21.7315705128205 14.96  21.3461538461538 14.96  L 15.6538461538462 14.96  C 15.2684294871795 14.96  14.9348958333333 14.8729166666667  14.6532451923077 14.69875  C 14.3715945512821 14.5245833333333  14.2307692307692 14.3183333333333  14.2307692307692 14.08  L 14.2307692307692 7.92  L 8.53846153846154 7.92  C 7.91586538461538 7.92  7.47856570512821 7.73666666666666  7.2265625 7.37  C 6.9745592948718 7.0125  7.07832532051282 6.69625  7.53786057692308 6.42125  L 17.4993990384615 0.261249999999999  C 17.7662259615385 0.0870833333333323  18.0997596153846 0  18.5 0  C 18.9002403846154 0  19.2337740384615 0.0870833333333323  19.5006009615385 0.261249999999999  L 29.4621394230769 6.42125  Z " fill-rule="nonzero" fill="#aaaaaa" stroke="none" transform="matrix(1 0 0 1 88 491 )" />
  </g>
</svg>