<?xml version="1.0" encoding="utf-8"?>
<svg version="1.1" xmlns:xlink="http://www.w3.org/1999/xlink" width="12px" height="12px" viewBox="1243 397  12 12" xmlns="http://www.w3.org/2000/svg">
  <path d="M 1243.5 402  A 4.5 4.5 0 0 1 1248 397.5 L 1250 397.5  A 4.5 4.5 0 0 1 1254.5 402 L 1254.5 404  A 4.5 4.5 0 0 1 1250 408.5 L 1248 408.5  A 4.5 4.5 0 0 1 1243.5 404 L 1243.5 402  Z " fill-rule="nonzero" fill="#ffffff" stroke="none" />
  <path d="M 1243.5 402  A 4.5 4.5 0 0 1 1248 397.5 L 1250 397.5  A 4.5 4.5 0 0 1 1254.5 402 L 1254.5 404  A 4.5 4.5 0 0 1 1250 408.5 L 1248 408.5  A 4.5 4.5 0 0 1 1243.5 404 L 1243.5 402  Z " stroke-width="1" stroke="#797979" fill="none" />
  <path d="M 1245.57142857143 403  L 1248.14285714286 405.571428571429  L 1252.42857142857 399.571428571429  " stroke-width="2.57142857142857" stroke="#797979" fill="none" />
</svg>