<?xml version="1.0" encoding="utf-8"?>
<svg version="1.1" xmlns:xlink="http://www.w3.org/1999/xlink" width="22px" height="19px" xmlns="http://www.w3.org/2000/svg">
  <g transform="matrix(1 0 0 1 -73 -144 )">
    <path d="M 18.333333326172 8.70849167285157  C 18.333333326172 12.6375333457031  14.63275 15.8334916728516  10.083333326172 15.8334916728516  C 5.5339166523436 15.8334916728516  1.83333332617196 12.6375333457031  1.83333332617196 8.70849167285157  C 1.83333332617196 4.77945000000005  5.5339166523436 1.58349167285157  10.083333326172 1.58349167285157  C 14.63275 1.58349167285157  18.333333326172 4.77945000000005  18.333333326172 8.70849167285157  Z M 21.7323333261719 18.7689916728516  C 22.0888736485465 18.4593783617951  22.0888736485465 17.9591883110564  21.7323333261719 17.649575  L 17.8309999999999 14.27945  C 19.2884999999999 12.7697416728515  20.166666673828 10.8277833271485  20.166666673828 8.70849167285157  C 20.166666673828 3.89911667285159  15.6520833476562 0.000158345703059442  10.083333326172 0.000158327148470663  C 4.51458330468745 0.000158308593761881  0 3.89911665429688  0 8.70849167285157  C 0 13.5178666914063  4.51458332617185 17.416825  10.083333326172 17.416825  C 12.53725 17.416825  14.7858333261719 16.6584083271484  16.533916673828 15.3996583271485  L 20.4361666738281 18.7689916728516  C 20.7946662946534 19.0769128480548  21.3738337053466 19.0769128480548  21.7323333261719 18.7689916728516  Z " fill-rule="nonzero" fill="#999999" stroke="none" transform="matrix(1 0 0 1 73 144 )" />
  </g>
</svg>