<?xml version="1.0" encoding="utf-8"?>
<svg version="1.1" xmlns:xlink="http://www.w3.org/1999/xlink" width="12px" height="12px" viewBox="90 482  12 12" xmlns="http://www.w3.org/2000/svg">
  <path d="M 90.5 488  A 5.5 5.5 0 0 1 96 482.5 A 5.5 5.5 0 0 1 101.5 488 A 5.5 5.5 0 0 1 96 493.5 A 5.5 5.5 0 0 1 90.5 488 Z " fill-rule="nonzero" fill="#ffffff" stroke="none" />
  <path d="M 90.5 488  A 5.5 5.5 0 0 1 96 482.5 A 5.5 5.5 0 0 1 101.5 488 A 5.5 5.5 0 0 1 96 493.5 A 5.5 5.5 0 0 1 90.5 488 Z " stroke-width="1" stroke="#797979" fill="none" />
  <path d="M 92.5714285714286 488  L 95.1428571428571 490.571428571429  L 99.4285714285714 484.571428571429  " stroke-width="2.57142857142857" stroke="#797979" fill="none" />
</svg>