<?xml version="1.0" encoding="utf-8"?>
<svg version="1.1" xmlns:xlink="http://www.w3.org/1999/xlink" width="300px" height="264px" xmlns="http://www.w3.org/2000/svg">
  <g transform="matrix(1 0 0 1 -437 -212 )">
    <path d="M 437.5 475.5  C 437.5 475.5  437.5 224.625  437.5 224.625  C 437.5 224.625  667.822284841142 224.625  667.822284841142 224.625  C 667.822284841142 224.625  677.849277894852 213.432362382698  677.849277894852 213.432362382698  C 677.849277894852 213.432362382698  687.367770508438 224.625  687.367770508438 224.625  C 687.367770508438 224.625  736.499999999999 224.625  736.499999999999 224.625  C 736.499999999999 224.625  736.499999999999 475.5  736.499999999999 475.5  C 736.499999999999 475.5  437.5 475.5  437.5 475.5  Z " fill-rule="nonzero" fill="#ffffff" stroke="none" />
    <path d="M 437 476  C 437 476  437 224.125  437 224.125  C 437 224.125  667.598915989161 224.125  667.598915989161 224.125  C 667.598915989161 224.125  677.859078590787 212.672086720868  677.859078590787 212.672086720868  C 677.859078590787 212.672086720868  687.598915989161 224.125  687.598915989161 224.125  C 687.598915989161 224.125  736.999999999999 224.125  736.999999999999 224.125  C 736.999999999999 224.125  736.999999999999 476  736.999999999999 476  C 736.999999999999 476  437 476  437 476  Z M 438 475  C 438 475  735.999999999999 475  735.999999999999 475  C 735.999999999999 475  735.999999999999 225.125  735.999999999999 225.125  C 735.999999999999 225.125  687.136625027714 225.125  687.136625027714 225.125  C 687.136625027714 225.125  677.839477198918 214.192638044527  677.839477198918 214.192638044527  C 677.839477198918 214.192638044527  668.045653693123 225.125  668.045653693123 225.125  C 668.045653693123 225.125  438 225.125  438 225.125  C 438 225.125  438 475  438 475  Z " fill-rule="nonzero" fill="#f59a23" stroke="none" />
  </g>
</svg>