<?xml version="1.0" standalone="no"?><!DOCTYPE svg PUBLIC "-//W3C//DTD SVG 1.1//EN" "http://www.w3.org/Graphics/SVG/1.1/DTD/svg11.dtd"><svg t="1530155959329" class="icon" style="" viewBox="0 0 1692 1024" version="1.1" xmlns="http://www.w3.org/2000/svg" p-id="1342" xmlns:xlink="http://www.w3.org/1999/xlink" width="330.46875" height="200"><defs><style type="text/css"></style></defs><path d="M454.529406 945.631607h31.639427A15.673428 15.673428 0 0 1 501.54969 961.305035c0 8.651732-6.750023 15.673428-15.380857 15.673428H454.529406v31.639426A15.673428 15.673428 0 0 1 438.855979 1023.998746a15.443551 15.443551 0 0 1-15.673428-15.380857V976.978463h-31.639427A15.673428 15.673428 0 0 1 376.162267 961.305035c0-8.651732 6.750023-15.673428 15.380857-15.673428h31.639427v-31.639426A15.673428 15.673428 0 0 1 438.855979 898.611324c8.651732 0 15.673428 6.750023 15.673427 15.380857v31.639426zM52.244759 512.000104h21.106883A10.448952 10.448952 0 0 1 83.591615 522.449056c0 5.767821-4.493049 10.448952-10.239973 10.448952H52.244759v21.106883A10.448952 10.448952 0 0 1 41.795807 564.244864a10.281769 10.281769 0 0 1-10.448951-10.239973V532.898008H10.239973A10.448952 10.448952 0 0 1 0 522.449056c0-5.767821 4.493049-10.448952 10.239973-10.448952H31.346856v-21.106882A10.448952 10.448952 0 0 1 41.795807 480.653249c5.767821 0 10.448952 4.493049 10.448952 10.239973v21.106882z m1567.342781-480.651786V10.241436A10.281769 10.281769 0 0 0 1609.138588 0.001463a10.448952 10.448952 0 0 0-10.448952 10.239973V31.348318h-21.106883A10.281769 10.281769 0 0 0 1567.342781 41.79727c0 5.600638 4.597539 10.448952 10.239972 10.448952h21.106883v21.106883c0 5.746924 4.68113 10.239973 10.448952 10.239973a10.448952 10.448952 0 0 0 10.448952-10.239973V52.246222h21.106883c5.746924 0 10.239973-4.68113 10.239972-10.448952a10.448952 10.448952 0 0 0-10.239972-10.448952H1619.58754zM543.345497 355.265826a20.897904 20.897904 0 0 1 20.877006-20.897903H752.324535a20.897904 20.897904 0 1 1 0 41.795807H564.243401A20.83521 20.83521 0 0 1 543.345497 355.265826z m0 125.387423c0-11.535643 9.299567-20.897904 20.751619-20.897904h251.067415c11.452051 0 20.751618 9.278669 20.751619 20.897904 0 11.535643-9.299567 20.897904-20.751619 20.897904H564.097116A20.772516 20.772516 0 0 1 543.345497 480.653249z m0 125.387422c0-11.535643 9.320465-20.897904 20.856108-20.897903h104.57311c11.514745 0 20.856108 9.278669 20.856108 20.897903 0 11.535643-9.320465 20.897904-20.856108 20.897904h-104.57311A20.814312 20.814312 0 0 1 543.345497 606.040671zM188.081134 229.878404a62.693711 62.693711 0 1 1 0-125.387422 62.693711 62.693711 0 0 1 0 125.387422z m73.142663 417.958075a31.346856 31.346856 0 1 1 0-62.693711 31.346856 31.346856 0 0 1 0 62.693711zM188.081134 198.531548a31.346856 31.346856 0 1 0 0-62.693711 31.346856 31.346856 0 0 0 0 62.693711zM1630.036492 501.551153a62.693711 62.693711 0 1 1 0-125.387423 62.693711 62.693711 0 0 1 0 125.387423z m0-31.346856a31.346856 31.346856 0 1 0 0-62.693711 31.346856 31.346856 0 0 0 0 62.693711zM1295.670032 1003.100842a41.795807 41.795807 0 1 1 0-83.591615 41.795807 41.795807 0 0 1 0 83.591615z m0-20.897903a20.897904 20.897904 0 1 0 0-41.795808 20.897904 20.897904 0 0 0 0 41.795808zM1037.727206 567.839303A167.245924 167.245924 0 0 1 1170.282609 731.428094c0 20.856108 0.543345 20.856108-165.594989 20.856108S835.91615 752.284202 835.91615 731.428094c0-80.456929 56.842298-147.64369 132.555403-163.588791l17.324362 17.303465H982.201476l-16.760119 83.842389c-2.298769 11.36846 2.654034 27.188173 11.034093 35.254764L1004.68762 731.428094l25.704422-26.707521c8.045693-8.359161 12.66413-24.32516 10.36536-35.735416L1023.997283 585.142768h-3.594439l17.324362-17.303465zM1003.09938 543.34696a83.591615 83.591615 0 1 1 0-167.18323 83.591615 83.591615 0 0 1 0 167.18323z m-606.039209 188.081134V292.572115c0-46.184367 37.428146-83.591615 83.758798-83.591615H501.54969V188.082597c0-46.184367 37.428146-83.591615 83.758798-83.591615h710.194361A83.612513 83.612513 0 0 1 1379.261647 188.082597v438.855978c0 46.184367-37.428146 83.591615-83.758798 83.591615H1274.772128v20.897904c0 15.234572-4.075091 29.50784-11.180378 41.795807h115.732591c11.493847 0 20.83521 9.278669 20.83521 20.897904 0 11.535643-9.46675 20.897904-20.83521 20.897904H355.20167A20.814312 20.814312 0 0 1 334.36646 794.121805c0-11.535643 9.46675-20.897904 20.83521-20.897904h53.03888A83.110963 83.110963 0 0 1 397.060171 731.428094z m877.711957-62.693711h20.83521A41.858501 41.858501 0 0 0 1337.465839 627.001269V188.019903A41.795807 41.795807 0 0 0 1295.607338 146.286789H585.203998A41.858501 41.858501 0 0 0 543.345497 188.019903V208.9805h647.667833A83.612513 83.612513 0 0 1 1274.772128 292.572115v376.162268zM438.855979 292.509422v438.981365A41.795807 41.795807 0 0 0 480.71448 773.223901h710.403339A41.858501 41.858501 0 0 0 1232.976321 731.490787V292.509422A41.795807 41.795807 0 0 0 1191.117819 250.776308H480.71448A41.858501 41.858501 0 0 0 438.855979 292.509422zM1441.955358 794.121805c0-11.535643 9.46675-20.897904 20.83521-20.897904h83.717002c11.493847 0 20.83521 9.278669 20.835211 20.897904 0 11.535643-9.46675 20.897904-20.835211 20.897904h-83.717002A20.814312 20.814312 0 0 1 1441.955358 794.121805z" fill="#d2d2d2" p-id="1343"></path></svg>