<?xml version="1.0" encoding="utf-8"?>
<svg version="1.1" xmlns:xlink="http://www.w3.org/1999/xlink" width="49px" height="45px" xmlns="http://www.w3.org/2000/svg">
  <g transform="matrix(1 0 0 1 -388 -775 )">
    <path d="M 412.5 775  C 426.22 775  437 784.9  437 797.5  C 437 810.1  426.22 820  412.5 820  C 398.78 820  388 810.1  388 797.5  C 388 784.9  398.78 775  412.5 775  Z " fill-rule="nonzero" fill="#ffffff" stroke="none" />
    <path d="M 412.5 775.5  C 425.94 775.5  436.5 785.18  436.5 797.5  C 436.5 809.82  425.94 819.5  412.5 819.5  C 399.06 819.5  388.5 809.82  388.5 797.5  C 388.5 785.18  399.06 775.5  412.5 775.5  Z " stroke-width="1" stroke="#aaaaaa" fill="none" />
  </g>
</svg>