<?xml version="1.0" encoding="utf-8"?>
<svg version="1.1" xmlns:xlink="http://www.w3.org/1999/xlink" width="20px" height="18px" xmlns="http://www.w3.org/2000/svg">
  <g transform="matrix(1 0 0 1 -367 -192 )">
    <path d="M 20 9  C 20 4.03715322321459  15.5142741964282 0  10 0  C 4.48641696428558 0  0 4.03715322321459  0 9  C 0 13.9628467767854  4.48572580357177 18  10 18  C 15.5135830357144 18  20 13.9628467767854  20 9  Z M 11.0121527455358 9.00255726562573  L 14.0792904241071 11.7720006830358  C 14.3578628125001 12.0239944553568  14.3571332589286 12.4302877834826  14.077869732143 12.6810029330351  C 13.9386027455357 12.8057211964284  13.7564459598216 12.8687196294641  13.5735980357144 12.8687196294641  C 13.3900205580358 12.8687196294641  13.2071726339286 12.8057211763388  13.0678672321428 12.6797242901787  L 9.99642906249983 9.90706700892852  L 6.91500758928578 12.6507996160712  C 6.77574060267852 12.7742392366072  6.59427497767865 12.8365810915172  6.4128477455356 12.8365810915172  C 6.22857910714265 12.8365810915172  6.0450016517857 12.7729260602679  5.90500508928562 12.6456505312506  C 5.62785339285711 12.3930001607144  5.63000363839274 11.9867068325894  5.9107262946427 11.7366482812497  L 8.9885768080353 8.9967861361607  L 5.92213029017876 6.22799929687462  C 5.6435579017857 5.97662754910689  5.64428745535724 5.56971219642865  5.92355098214284 5.3189970468753  C 6.20285292410699 5.06762529910757  6.65425154017885 5.06893849553553  6.93355348214254 5.32027566964298  L 10.0042620982144 8.0922763526788  L 13.0856835714285 5.34857829910688  C 13.3656766517856 5.09851974776793  13.8185343750001 5.10107699330329  14.0956860714286 5.35372738392825  C 14.3735289062502 5.60637775446367  14.3706875223211 6.01329310714273  14.0899648660711 6.26272963392839  L 11.0121527455358 9.00255726562573  Z " fill-rule="nonzero" fill="#999999" stroke="none" transform="matrix(1 0 0 1 367 192 )" />
  </g>
</svg>