<?xml version="1.0" encoding="utf-8"?>
<svg version="1.1" xmlns:xlink="http://www.w3.org/1999/xlink" width="44px" height="40px" xmlns="http://www.w3.org/2000/svg">
  <g transform="matrix(1 0 0 1 -167 -367 )">
    <path d="M 189 367  C 201.32 367  211 375.8  211 387  C 211 398.2  201.32 407  189 407  C 176.68 407  167 398.2  167 387  C 167 375.8  176.68 367  189 367  Z " fill-rule="nonzero" fill="#ffffff" stroke="none" />
    <path d="M 189 367.5  C 201.04 367.5  210.5 376.08  210.5 387  C 210.5 397.92  201.04 406.5  189 406.5  C 176.96 406.5  167.5 397.92  167.5 387  C 167.5 376.08  176.96 367.5  189 367.5  Z " stroke-width="1" stroke="#797979" fill="none" />
  </g>
</svg>