<?xml version="1.0" encoding="utf-8"?>
<svg version="1.1" xmlns:xlink="http://www.w3.org/1999/xlink" width="43px" height="46px" xmlns="http://www.w3.org/2000/svg">
  <g transform="matrix(1 0 0 1 -35 -686 )">
    <path d="M 53.4 686  C 53.4 686  49.4 688.139534883721  49.4 688.139534883721  C 49.4 688.139534883721  35 709  35 709  C 35 709  49.4 729.860465116279  49.4 729.860465116279  C 49.4 729.860465116279  53.4 732  53.4 732  C 53.4 732  58 732  58 732  C 69.2 732  78 723.2  78 712  C 78 712  78 706  78 706  C 78 694.8  69.2 686  58 686  C 58 686  53.4 686  53.4 686  Z " fill-rule="nonzero" fill="#f2f2f2" stroke="none" />
  </g>
</svg>