<?xml version="1.0" encoding="utf-8"?>
<svg version="1.1" xmlns:xlink="http://www.w3.org/1999/xlink" width="44px" height="40px" xmlns="http://www.w3.org/2000/svg">
  <g transform="matrix(1 0 0 1 -167 -341 )">
    <path d="M 189 341  C 201.32 341  211 349.8  211 361  C 211 372.2  201.32 381  189 381  C 176.68 381  167 372.2  167 361  C 167 349.8  176.68 341  189 341  Z " fill-rule="nonzero" fill="#ffffff" stroke="none" />
    <path d="M 189 341.5  C 201.04 341.5  210.5 350.08  210.5 361  C 210.5 371.92  201.04 380.5  189 380.5  C 176.96 380.5  167.5 371.92  167.5 361  C 167.5 350.08  176.96 341.5  189 341.5  Z " stroke-width="1" stroke="#797979" fill="none" />
  </g>
</svg>