<?xml version="1.0" encoding="utf-8"?>
<svg version="1.1" xmlns:xlink="http://www.w3.org/1999/xlink" width="43px" height="46px" xmlns="http://www.w3.org/2000/svg">
  <g transform="matrix(1 0 0 1 -35 -660 )">
    <path d="M 53.4 660  C 53.4 660  49.4 662.139534883721  49.4 662.139534883721  C 49.4 662.139534883721  35 683  35 683  C 35 683  49.4 703.860465116279  49.4 703.860465116279  C 49.4 703.860465116279  53.4 706  53.4 706  C 53.4 706  58 706  58 706  C 69.2 706  78 697.2  78 686  C 78 686  78 680  78 680  C 78 668.8  69.2 660  58 660  C 58 660  53.4 660  53.4 660  Z " fill-rule="nonzero" fill="#f2f2f2" stroke="none" />
  </g>
</svg>