<?xml version="1.0" encoding="utf-8"?>
<svg version="1.1" xmlns:xlink="http://www.w3.org/1999/xlink" width="43px" height="34px" xmlns="http://www.w3.org/2000/svg">
  <g transform="matrix(1 0 0 1 -13 -859 )">
    <path d="M 28.9037335958133 16.8635178639224  C 28.9277656266199 9.03937502236272  22.7270053379343 2.6138307020633  14.9069651023774 2.35935190549162  C 7.02794398079595 2.37982552008361  0.630199350035127 8.73231644477801  0.553797807758656 16.6109937327215  C 0.487059139686608 20.4433664274127  1.96958350339719 24.1405259660726  4.6655804616139 26.8650690327386  C 7.34070937639945 29.6100997615727  10.9861351878626 31.1958599807649  14.8181302942421 31.2814281854396  C 22.6395862387067 31.0749925963696  28.8797015650066 24.6876607054819  28.9037335958133 16.8635178639224  Z M 40.8594205427462 33.4769171025364  C 41.270768266545 33.5040362359716  41.6736264057431 33.3512279742486  41.963510347035 33.0581244125949  C 42.2447340785875 32.7725320198922  42.3882572932625 32.3790006251943  42.3569216540159 31.9794159912667  C 42.3569216540159 31.9794159912667  42.3569216540159 29.2001554916649  42.3569216540159 29.2001554916649  C 42.3569216540159 27.9310867625863  41.8366034644591 27.4234592645096  40.6182975013016 27.4234592645096  C 40.6182975013016 27.4234592645096  27.9276102427425 27.474221998204  27.9276102427425 27.474221998204  C 25.3471972908887 30.6421184645317  21.7110353683142 32.7733509235022  17.686225601979 33.4769171025364  C 17.686225601979 33.4769171025364  40.8594205427462 33.4769171025364  40.8594205427462 33.4769171025364  Z M 42.4076843877106 13.9205680090279  C 42.4076843877106 13.9205680090279  42.4076843877106 11.141307509426  42.4076843877106 11.141307509426  C 42.5042391923089 10.7003248469305  42.3592669392174 10.2412460372923  42.0269637722095 9.93569220552217  C 41.6951642648301 9.60198316732453  41.2217892910417 9.45050318580957  40.7578950431312 9.52959023928724  C 40.7578950431312 9.52959023928724  30.1484805105733 9.49151816484664  30.1484805105733 9.49151816484664  C 31.0362116238007 11.3791609599593  31.5696127681317 13.4138282593503  31.7221257062715 15.4942132369526  C 31.7221257062715 15.4942132369526  40.846729851266 15.4942132369526  40.846729851266 15.4942132369526  C 41.2813050698596 15.5442389593795  41.7151801556283 15.3949486057584  42.0269637722095 15.0881112384911  C 42.3308777999064 14.7807387200864  42.4719848385084 14.3480104651885  42.4076843877106 13.9205680090279  Z M 19.8944051783296 0.493820902427615  C 22.5489500714466 1.31923758532707  24.9534624880657 2.79860184112613  26.8869738636286 4.79596386403341  C 27.3941525314494 5.33056642452834  27.8647716788078 5.89870125000152  28.295640166763 6.49651597453385  C 28.295640166763 6.49651597453385  34.8694161621206 6.49651597453385  34.8694161621206 6.49651597453385  C 35.2974646184416 6.53539628869157  35.7206391076179 6.3819374038485  36.0242687001032 6.07772328459214  C 36.3205475653967 5.77610276691235  36.461040097231 5.35462517140923  36.4049893156043 4.93556143808928  C 36.4049893156043 4.93556143808928  36.4049893156043 2.08015678960601  36.4049893156043 2.08015678960601  C 36.4735479505803 1.64470760360064  36.3324049735888 1.20245961460228  36.0242687001032 0.887232209408921  C 35.704346068007 0.577561534042616  35.2596524661089 0.432450987387483  34.8186534284259 0.493820902427615  C 34.8186534284259 0.493820902427615  19.8944051783296 0.493820902427615  19.8944051783296 0.493820902427615  Z M 11.3916447225074 17.1566932730125  L 7.5844385352716 10.2148873214078  L 12.4195903779146 10.2148873214078  L 14.8815837194165 15.6338108110087  L 17.3562677523992 10.2148873214078  L 22.2675637116968 10.2148873214078  L 18.5111202903822 17.1566932730125  L 21.6964827884453 17.1566932730125  L 21.6964827884453 19.529851774153  L 17.1151446787276 19.529851774153  L 17.1151446787276 20.9258273858072  L 21.6964827884453 20.9258273858072  L 21.6964827884453 23.2989859191744  L 17.1151446787276 23.2989859191744  L 17.1151446787276 26.2432253435663  L 12.749548259721 26.2432253435663  L 12.749548259721 23.2482231532535  L 8.05399399113412 23.2482231532535  L 8.05399399113412 20.875064652113  L 12.749548259721 20.875064652113  L 12.749548259721 19.4917797319388  L 8.05399399113412 19.4917797319388  L 8.05399399113412 17.1566932730125  L 11.3916447225074 17.1566932730125  Z M 37.9913252350093 24.5046011908516  C 38.7643809379915 24.5046325629717  39.3930270383653 23.8816499429229  39.3999915059171 23.1086256114238  C 39.3999915059171 23.1086256114238  39.3873008144369 19.8725003474394  39.3873008144369 19.8725003474394  C 39.3839502903274 19.5022597724096  39.2336516202499 19.1485160354816  38.9694721036317 18.8890965057435  C 38.7052925870134 18.6296769760054  38.3488748404702 18.4858343133778  37.9786345435286 18.4892154272654  C 37.9786345435286 18.4892154272654  31.6332908981362 18.4892154272654  31.6332908981362 18.4892154272654  C 31.412028214776 20.5857508410843  30.8099282724324 22.6242892427342  29.8565947032075 24.5046011908516  C 29.8565947032075 24.5046011908516  37.9913252350093 24.5046011908516  37.9913252350093 24.5046011908516  Z " fill-rule="nonzero" fill="#ffffff" stroke="none" transform="matrix(1 0 0 1 13 859 )" />
  </g>
</svg>