<?xml version="1.0" encoding="utf-8"?>
<svg version="1.1" xmlns:xlink="http://www.w3.org/1999/xlink" width="29px" height="23px" xmlns="http://www.w3.org/2000/svg">
  <defs>
    <linearGradient gradientUnits="userSpaceOnUse" x1="14.5" y1="0" x2="14.5" y2="23" id="LinearGradient24">
      <stop id="Stop25" stop-color="#efd3ab" offset="0" />
      <stop id="Stop26" stop-color="#dba873" offset="1" />
    </linearGradient>
  </defs>
  <g transform="matrix(1 0 0 1 -8 -11 )">
    <path d="M 19.8583484519954 17.8490139695993  C 19.8583484519954 20.3032533789368  21.8300321030234 22.2666449301125  24.2946366370512 22.2666449301125  C 26.7592411710789 22.2666449301125  28.730924822107 20.3032533789368  28.730924822107 17.8490139695993  C 28.730924822107 15.4393970847406  26.714430189831 13.4313830090862  24.2946366370512 13.4313830090862  C 21.8300321030234 13.4313830090862  19.8583484519954 15.3947745602619  19.8583484519954 17.8490139695993  Z M 24.0257706900487 0  C 24.0257706900487 0  3.27828149203553 0  3.27828149203553 0  C 1.75470777251651 0  0.5 1.24943098172414  0.5 2.76659716958456  C 0.5 2.76659716958456  0.5 5.53319433916913  0.5 5.53319433916913  L 26.8040521523269 5.53319433916913  C 26.8040521523269 5.53319433916913  26.8040521523269 2.76659716958456  26.8040521523269 2.76659716958456  C 26.8040521523269 1.24943098172414  25.5493443798104 0  24.0257706900487 0  Z M 25.2356674515599 17.5812787634631  L 26.1318872848207 17.5812787634631  L 26.1318872848207 18.1613717298465  L 24.9668015045574 18.1613717298465  L 24.9668015045574 18.6522196176404  L 26.1318872848207 18.6522196176404  L 26.1318872848207 19.2323125543916  L 24.9668015045574 19.2323125543916  L 24.9668015045574 20.4817435361158  L 23.8913377165474 20.4817435361158  L 23.8913377165474 19.2323125543916  L 22.7262519065269 19.2323125543916  L 22.7262519065269 18.6522196176404  L 23.8913377165474 18.6522196176404  L 23.8913377165474 18.1613717298465  L 22.7262519065269 18.1613717298465  L 22.7262519065269 17.5812787634631  L 23.6224717397876 17.5812787634631  L 22.4125749782764 15.3501520061511  L 23.6224717397876 15.3501520061511  C 23.6224717397876 15.3501520061511  24.1602036635499 16.5995829878752  24.1602036635499 16.5995829878752  C 24.2946366370512 16.9119407184902  24.3842586293044 17.1796759542586  24.4738805918004 17.4474111603949  C 24.5635025840537 17.1796759542586  24.6531245465496 16.8673181940115  24.7875575498082 16.5995829878752  C 24.7875575498082 16.5995829878752  25.3252894438132 15.3501520061511  25.3252894438132 15.3501520061511  L 26.4903752240764 15.3501520061511  L 25.2356674515599 17.5812787634631  Z " fill-rule="nonzero" fill="url(#LinearGradient24)" stroke="none" transform="matrix(1 0 0 1 8 11 )" />
  </g>
</svg>