<?xml version="1.0" encoding="utf-8"?>
<svg version="1.1" xmlns:xlink="http://www.w3.org/1999/xlink" width="11px" height="10px" xmlns="http://www.w3.org/2000/svg">
  <g transform="matrix(1 0 0 1 -183 -125 )">
    <path d="M 188.5 125  C 191.58 125  194 127.2  194 130  C 194 132.8  191.58 135  188.5 135  C 185.42 135  183 132.8  183 130  C 183 127.2  185.42 125  188.5 125  Z " fill-rule="nonzero" fill="#ffffff" stroke="none" />
    <path d="M 188.5 125.5  C 191.3 125.5  193.5 127.48  193.5 130  C 193.5 132.52  191.3 134.5  188.5 134.5  C 185.7 134.5  183.5 132.52  183.5 130  C 183.5 127.48  185.7 125.5  188.5 125.5  Z " stroke-width="1" stroke="#797979" fill="none" />
  </g>
</svg>