<?xml version="1.0" encoding="utf-8"?>
<svg version="1.1" xmlns:xlink="http://www.w3.org/1999/xlink" width="11px" height="10px" xmlns="http://www.w3.org/2000/svg">
  <g transform="matrix(1 0 0 1 -170 -125 )">
    <path d="M 175.5 125  C 178.58 125  181 127.2  181 130  C 181 132.8  178.58 135  175.5 135  C 172.42 135  170 132.8  170 130  C 170 127.2  172.42 125  175.5 125  Z " fill-rule="nonzero" fill="#000000" stroke="none" />
    <path d="M 175.5 125.5  C 178.3 125.5  180.5 127.48  180.5 130  C 180.5 132.52  178.3 134.5  175.5 134.5  C 172.7 134.5  170.5 132.52  170.5 130  C 170.5 127.48  172.7 125.5  175.5 125.5  Z " stroke-width="1" stroke="#797979" fill="none" />
  </g>
</svg>