<?xml version="1.0" standalone="no"?><!DOCTYPE svg PUBLIC "-//W3C//DTD SVG 1.1//EN" "http://www.w3.org/Graphics/SVG/1.1/DTD/svg11.dtd"><svg xmlns:xlink="http://www.w3.org/1999/xlink" xmlns="http://www.w3.org/2000/svg" version="1.1" width="200" height="200" viewBox="0 0 200 200"><defs><style type="text/css"><![CDATA[
@font-face {
  font-family: "ifont";
  src: url("//at.alicdn.com/t/font_1442373896_4754455.eot?#iefix") format("embedded-opentype"), url("//at.alicdn.com/t/font_1442373896_4754455.woff") format("woff"), url("//at.alicdn.com/t/font_1442373896_4754455.ttf") format("truetype"), url("//at.alicdn.com/t/font_1442373896_4754455.svg#ifont") format("svg");
}

]]></style></defs><g class="transform-group"><g transform="scale(0.1953125, 0.1953125)"><path d="M64 512c0 247.039 200.961 448 448 448s448-200.961 448-448-200.961-448-448-448-448 200.961-448 448zM535.968 362.239l158.496 160.255c6.145 6.239 9.248 14.369 9.248 22.497 0 8.255-3.169 16.512-9.504 22.751-12.576 12.416-32.801 12.32-45.248-0.256l-135.905-137.408-136.672 136.288c-12.513 12.48-32.768 12.447-45.248-0.064-12.513-12.513-12.447-32.768 0.064-45.248l159.359-158.912c0.033-0.033 0.064-0.033 0.096-0.064s0.033-0.064 0.064-0.096c2.976-2.943 6.432-5.056 10.048-6.592 0.127-0.064 0.256-0.223 0.385-0.256 11.618-4.736 25.443-2.367 34.819 7.104z" fill="#272636"></path></g></g></svg>