<?xml version="1.0" encoding="utf-8"?>
<svg version="1.1" xmlns:xlink="http://www.w3.org/1999/xlink" width="5px" height="10px" xmlns="http://www.w3.org/2000/svg">
  <g transform="matrix(1 0 0 1 4 -6 )">
    <path d="M -1.5 6  C -0.0999999999999996 6  1 8.2  1 11  C 1 13.8  -0.0999999999999996 16  -1.5 16  C -2.9 16  -4 13.8  -4 11  C -4 8.2  -2.9 6  -1.5 6  Z " fill-rule="nonzero" fill="#ffffff" stroke="none" />
    <path d="M -1.5 6.5  C -0.38 6.5  0.5 8.48  0.5 11  C 0.5 13.52  -0.38 15.5  -1.5 15.5  C -2.62 15.5  -3.5 13.52  -3.5 11  C -3.5 8.48  -2.62 6.5  -1.5 6.5  Z " stroke-width="1" stroke="#d9d8d8" fill="none" />
  </g>
</svg>