<?xml version="1.0" encoding="utf-8"?>
<svg version="1.1" xmlns:xlink="http://www.w3.org/1999/xlink" width="71px" height="46px" xmlns="http://www.w3.org/2000/svg">
  <g transform="matrix(1 0 0 1 -56 -334 )">
    <path d="M 67.5486111111111 46  L 36.9791666666668 46  L 19.2666859276466 46  L 2.46527777777788 46  C 1.79759837962994 46  1.21979890046346 45.6701388888869  0.731879340277747 45.0104166666705  C 0.243959780092172 44.3506944444443  0 43.5694444444425  0 42.6666666666705  C 0 41.7638888888885  0.243959780092172 40.9826388888869  0.731879340277747 40.3229166666705  L 17.9888237847223 16.9895833333345  C 18.4767433449078 16.3298611111131  19.0545428240746 16  19.722222222222 16  C 20.3899016203699 16  20.9677010995365 16.3298611111131  21.4556206597223 16.9895833333345  L 26.190770454165 23.3920520929156  L 40.9621310763889 1.51736111111062  C 41.6452184606494 0.505787037035108  42.4541377314828 0  43.3888888888889 0  C 44.3236400462949 0  45.1325593171283 0.505787037035108  45.8156467013889 1.51736111111062  L 69.975368923611 37.2951388888894  C 70.6584563078718 38.3067129629599  71 39.5046296296283  71 40.8888888888895  C 71 42.2731481481458  70.6584563078718 43.4710648148141  69.975368923611 44.4826388888894  C 69.2922815393506 45.4942129629599  68.483362268517 46  67.5486111111111 46  Z " fill-rule="nonzero" fill="#cccccc" stroke="none" transform="matrix(1 0 0 1 56 334 )" />
  </g>
</svg>