<?xml version="1.0" encoding="utf-8"?>
<svg version="1.1" xmlns:xlink="http://www.w3.org/1999/xlink" width="54px" height="19px" xmlns="http://www.w3.org/2000/svg">
  <g transform="matrix(1 0 0 1 -9 -1 )">
    <path d="M 9 12.7647058823529  C 9 12.7647058823529  9 6  9 6  C 9 3.23857625084603  11.238576250846 1  14 1  C 14 1  58 1  58 1  C 60.761423749154 1  63 3.23857625084603  63 6  C 63 6  63 12.7647058823529  63 12.7647058823529  C 63 15.5261296315069  60.761423749154 17.7647058823529  58 17.7647058823529  C 58 17.7647058823529  25.45 17.7647058823529  25.45 17.7647058823529  C 25.45 17.7647058823529  20.7 20  20.7 20  C 20.7 20  15.95 17.7647058823529  15.95 17.7647058823529  C 15.95 17.7647058823529  14 17.7647058823529  14 17.7647058823529  C 11.238576250846 17.7647058823529  9 15.5261296315069  9 12.7647058823529  Z " fill-rule="nonzero" fill="#d9001b" stroke="none" />
  </g>
</svg>