<?xml version="1.0" encoding="utf-8"?>
<svg version="1.1" xmlns:xlink="http://www.w3.org/1999/xlink" width="13px" height="13px" xmlns="http://www.w3.org/2000/svg">
  <g transform="matrix(1 0 0 1 -157 -177 )">
    <path d="M 163.5 177  C 167.14 177  170 179.86  170 183.5  C 170 187.14  167.14 190  163.5 190  C 159.86 190  157 187.14  157 183.5  C 157 179.86  159.86 177  163.5 177  Z " fill-rule="nonzero" fill="#ffffff" stroke="none" />
    <path d="M 163.5 177.5  C 166.86 177.5  169.5 180.14  169.5 183.5  C 169.5 186.86  166.86 189.5  163.5 189.5  C 160.14 189.5  157.5 186.86  157.5 183.5  C 157.5 180.14  160.14 177.5  163.5 177.5  Z " stroke-width="1" stroke="#797979" fill="none" />
  </g>
</svg>