<?xml version="1.0" encoding="utf-8"?>
<svg version="1.1" xmlns:xlink="http://www.w3.org/1999/xlink" width="15px" height="15px" xmlns="http://www.w3.org/2000/svg">
  <g transform="matrix(1 0 0 1 -136 -176 )">
    <path d="M 143.5 176  C 147.7 176  151 179.3  151 183.5  C 151 187.7  147.7 191  143.5 191  C 139.3 191  136 187.7  136 183.5  C 136 179.3  139.3 176  143.5 176  Z " fill-rule="nonzero" fill="#333333" stroke="none" />
    <path d="M 143.5 176.5  C 147.42 176.5  150.5 179.58  150.5 183.5  C 150.5 187.42  147.42 190.5  143.5 190.5  C 139.58 190.5  136.5 187.42  136.5 183.5  C 136.5 179.58  139.58 176.5  143.5 176.5  Z " stroke-width="1" stroke="#797979" fill="none" />
  </g>
</svg>