<?xml version="1.0" encoding="utf-8"?>
<svg version="1.1" xmlns:xlink="http://www.w3.org/1999/xlink" width="61px" height="19px" xmlns="http://www.w3.org/2000/svg">
  <g transform="matrix(1 0 0 1 -81 2 )">
    <path d="M 81 9.76470588235294  C 81 9.76470588235294  81 3  81 3  C 81 0.238576250846033  83.238576250846 -2  86 -2  C 86 -2  137 -2  137 -2  C 139.761423749154 -2  142 0.238576250846033  142 3  C 142 3  142 9.76470588235294  142 9.76470588235294  C 142 12.5261296315069  139.761423749154 14.7647058823529  137 14.7647058823529  C 137 14.7647058823529  98.9666666666667 14.7647058823529  98.9666666666667 14.7647058823529  C 98.9666666666667 14.7647058823529  94.2166666666667 17  94.2166666666667 17  C 94.2166666666667 17  89.4666666666667 14.7647058823529  89.4666666666667 14.7647058823529  C 89.4666666666667 14.7647058823529  86 14.7647058823529  86 14.7647058823529  C 83.238576250846 14.7647058823529  81 12.5261296315069  81 9.76470588235294  Z " fill-rule="nonzero" fill="#d9001b" stroke="none" />
  </g>
</svg>