<?xml version="1.0" encoding="utf-8"?>
<svg version="1.1" xmlns:xlink="http://www.w3.org/1999/xlink" width="7px" height="10px" xmlns="http://www.w3.org/2000/svg">
  <g transform="matrix(1 0 0 1 4 -6 )">
    <path d="M -0.5 6  C 1.46 6  3 8.2  3 11  C 3 13.8  1.46 16  -0.5 16  C -2.46 16  -4 13.8  -4 11  C -4 8.2  -2.46 6  -0.5 6  Z " fill-rule="nonzero" fill="#ffffff" stroke="none" />
    <path d="M -0.5 6.5  C 1.18 6.5  2.5 8.48  2.5 11  C 2.5 13.52  1.18 15.5  -0.5 15.5  C -2.18 15.5  -3.5 13.52  -3.5 11  C -3.5 8.48  -2.18 6.5  -0.5 6.5  Z " stroke-width="1" stroke="#dbd7d7" fill="none" />
  </g>
</svg>