<?xml version="1.0" encoding="utf-8"?>
<svg version="1.1" xmlns:xlink="http://www.w3.org/1999/xlink" width="14px" height="11px" xmlns="http://www.w3.org/2000/svg">
  <defs>
    <mask fill="white" id="clip226">
      <path d="M 0 5.5  C 0 2.42  3.08 0  7 0  C 10.92 0  14 2.42  14 5.5  C 14 8.58  10.92 11  7 11  C 3.08 11  0 8.58  0 5.5  Z " fill-rule="evenodd" />
    </mask>
  </defs>
  <g transform="matrix(1 0 0 1 -6 -40 )">
    <path d="M 0 5.5  C 0 2.42  3.08 0  7 0  C 10.92 0  14 2.42  14 5.5  C 14 8.58  10.92 11  7 11  C 3.08 11  0 8.58  0 5.5  Z " fill-rule="nonzero" fill="#d9001b" stroke="none" transform="matrix(1 0 0 1 6 40 )" />
    <path d="M 0 5.5  C 0 2.42  3.08 0  7 0  C 10.92 0  14 2.42  14 5.5  C 14 8.58  10.92 11  7 11  C 3.08 11  0 8.58  0 5.5  Z " stroke-width="2" stroke="#7f7f7f" fill="none" transform="matrix(1 0 0 1 6 40 )" mask="url(#clip226)" />
  </g>
</svg>