<?xml version="1.0" encoding="utf-8"?>
<svg version="1.1" xmlns:xlink="http://www.w3.org/1999/xlink" width="11px" height="19px" xmlns="http://www.w3.org/2000/svg">
  <g transform="matrix(1 0 0 1 -437 -143 )">
    <path d="M 0.189003436425992 9.06212424849699  C 0.0630011454754822 9.18904475617905  0 9.33500334001332  0 9.5  C 0 9.66499665998668  0.0630011454754822 9.81095524382095  0.189003436425992 9.93787575150301  L 8.99656357388312 18.8096192384769  C 9.12256586483386 18.936539746159  9.2674684994272 19  9.43127147766313 19  C 9.59507445589929 19  9.73997709049263 18.936539746159  9.86597938144314 18.8096192384769  L 10.810996563574 17.8577154308616  C 10.9369988545245 17.7307949231798  11 17.5848363393453  11 17.4198396793586  C 11 17.2548430193722  10.9369988545245 17.1088844355379  10.810996563574 16.9819639278556  L 3.38316151202753 9.5  L 10.810996563574 2.01803607214438  C 10.9369988545245 1.89111556446212  11 1.74515698062785  11 1.58016032064136  C 11 1.41516366065468  10.9369988545245 1.26920507682022  10.810996563574 1.14228456913835  L 9.86597938144314 0.190380761523091  C 9.73997709049263 0.0634602538410304  9.59507445589929 0  9.43127147766313 0  C 9.2674684994272 0  9.12256586483386 0.0634602538410304  8.99656357388312 0.190380761523091  L 0.189003436425992 9.06212424849699  Z " fill-rule="nonzero" fill="#666666" stroke="none" transform="matrix(1 0 0 1 437 143 )" />
  </g>
</svg>