<?xml version="1.0" encoding="utf-8"?>
<svg version="1.1" xmlns:xlink="http://www.w3.org/1999/xlink" width="50px" height="50px" xmlns="http://www.w3.org/2000/svg">
  <g transform="matrix(1 0 0 1 -205 -242 )">
    <path d="M 230 242  C 244 242  255 253  255 267  C 255 281  244 292  230 292  C 216 292  205 281  205 267  C 205 253  216 242  230 242  Z " fill-rule="nonzero" fill="#d7d7d7" stroke="none" />
    <path d="M 230 242.5  C 243.72 242.5  254.5 253.28  254.5 267  C 254.5 280.72  243.72 291.5  230 291.5  C 216.28 291.5  205.5 280.72  205.5 267  C 205.5 253.28  216.28 242.5  230 242.5  Z " stroke-width="1" stroke="#d7d7d7" fill="none" />
  </g>
</svg>