<?xml version="1.0" encoding="utf-8"?>
<svg version="1.1" xmlns:xlink="http://www.w3.org/1999/xlink" width="183px" height="121px" xmlns="http://www.w3.org/2000/svg">
  <g transform="matrix(1 0 0 1 -96 -127 )">
    <path d="M 174.104166666667 121  L 95.3125000000002 121  L 49.6592045740749 121  L 6.35416666666694 121  C 4.63324652777859 121  3.14398871527906 120.132321859898  1.88639322916659 118.39696557972  C 0.628797743054472 116.661609299516  0 114.606582125599  0 112.231884057981  C 0 109.857185990337  0.628797743054472 107.80215881642  1.88639322916659 106.066802536242  L 46.3655598958334 44.6899909420319  C 47.6231553819455 42.954634661841  49.1124131944458 42.0869565217392  50.8333333333327 42.0869565217392  C 52.5542534722211 42.0869565217392  54.0435112847209 42.954634661841  55.3011067708334 44.6899909420319  L 67.5057886353831 61.5312674617998  L 105.578450520833 3.99131944444315  C 107.339084201392 1.33043981480974  109.424045138892 0  111.833333333333 0  C 114.242621527774 0  116.327582465274 1.33043981480974  118.088216145833 3.99131944444315  L 180.359049479166 98.1024305555569  C 182.119683159726 100.763310185177  183 103.914351851848  183 107.555555555557  C 183 111.196759259253  182.119683159726 114.347800925924  180.359049479166 117.008680555557  C 178.598415798608 119.669560185177  176.513454861107 121  174.104166666667 121  Z " fill-rule="nonzero" fill="#cccccc" stroke="none" transform="matrix(1 0 0 1 96 127 )" />
  </g>
</svg>