<?xml version="1.0" encoding="utf-8"?>
<svg version="1.1" xmlns:xlink="http://www.w3.org/1999/xlink" width="11px" height="8px" xmlns="http://www.w3.org/2000/svg">
  <g transform="matrix(1 0 0 1 -25 -565 )">
    <path d="M 10.4652777777778 8  L 5.72916666666668 8  L 2.98497950991707 8  L 0.381944444444461 8  C 0.278501157407456 8  0.188982928240818 7.9426328502412  0.11338975694444 7.82789855072531  C 0.037796585648083 7.7131642512077  0 7.57729468599001  0 7.42028985507314  C 0 7.26328502415452  0.037796585648083 7.12741545893685  0.11338975694444 7.01268115942096  L 2.78700086805556 2.95471014492773  C 2.86259403935192 2.83997584541098  2.9521122685186 2.78260869565218  3.05555555555552 2.78260869565218  C 3.15899884259252 2.78260869565218  3.24851707175918 2.83997584541098  3.32411024305556 2.95471014492773  L 4.05772499994106 4.06818297268098  L 6.34624565972222 0.263888888888803  C 6.45207609953724 0.0879629629626274  6.57740162037058 0  6.72222222222222 0  C 6.86704282407386 0  6.9923683449072 0.0879629629626274  7.09819878472222 0.263888888888803  L 10.8412543402778 6.4861111111112  C 10.9470847800928 6.6620370370365  11 6.87037037037013  11 7.11111111111121  C 11 7.35185185185144  10.9470847800928 7.56018518518506  10.8412543402778 7.7361111111112  C 10.7354239004628 7.9120370370365  10.6100983796294 8  10.4652777777778 8  Z " fill-rule="nonzero" fill="#fef3e2" stroke="none" transform="matrix(1 0 0 1 25 565 )" />
  </g>
</svg>