<?xml version="1.0" encoding="utf-8"?>
<svg version="1.1" xmlns:xlink="http://www.w3.org/1999/xlink" width="120px" height="120px" xmlns="http://www.w3.org/2000/svg">
  <g transform="matrix(1 0 0 1 -143 -294 )">
    <path d="M 203 294  C 236.6 294  263 320.4  263 354  C 263 387.6  236.6 414  203 414  C 169.4 414  143 387.6  143 354  C 143 320.4  169.4 294  203 294  Z " fill-rule="nonzero" fill="#f7f7f7" stroke="none" />
    <path d="M 203 294.5  C 236.32 294.5  262.5 320.68  262.5 354  C 262.5 387.32  236.32 413.5  203 413.5  C 169.68 413.5  143.5 387.32  143.5 354  C 143.5 320.68  169.68 294.5  203 294.5  Z " stroke-width="1" stroke="#e4e4e4" fill="none" />
  </g>
</svg>