<?xml version="1.0" encoding="utf-8"?>
<svg version="1.1" xmlns:xlink="http://www.w3.org/1999/xlink" width="120px" height="120px" xmlns="http://www.w3.org/2000/svg">
  <g transform="matrix(1 0 0 1 -555 -170 )">
    <path d="M 615 170  C 648.6 170  675 196.4  675 230  C 675 263.6  648.6 290  615 290  C 581.4 290  555 263.6  555 230  C 555 196.4  581.4 170  615 170  Z " fill-rule="nonzero" fill="#f7f7f7" stroke="none" />
    <path d="M 615 170.5  C 648.32 170.5  674.5 196.68  674.5 230  C 674.5 263.32  648.32 289.5  615 289.5  C 581.68 289.5  555.5 263.32  555.5 230  C 555.5 196.68  581.68 170.5  615 170.5  Z " stroke-width="1" stroke="#e4e4e4" fill="none" />
  </g>
</svg>