<?xml version="1.0" encoding="utf-8"?>
<svg version="1.1" xmlns:xlink="http://www.w3.org/1999/xlink" width="300px" height="160px" xmlns="http://www.w3.org/2000/svg">
  <g transform="matrix(1 0 0 1 -1569 -108 )">
    <path d="M 1569.5 267.5  C 1569.5 267.5  1569.5 118.638888888889  1569.5 118.638888888889  C 1569.5 118.638888888889  1603.10100256562 118.638888888889  1603.10100256562 118.638888888889  C 1603.10100256562 118.638888888889  1611.03292824855 108.796271074482  1611.03292824855 108.796271074482  C 1611.03292824855 108.796271074482  1622.67879906729 118.638888888889  1622.67879906729 118.638888888889  C 1622.67879906729 118.638888888889  1868.5 118.638888888889  1868.5 118.638888888889  C 1868.5 118.638888888889  1868.5 267.5  1868.5 267.5  C 1868.5 267.5  1569.5 267.5  1569.5 267.5  Z " fill-rule="nonzero" fill="#ffffff" stroke="none" />
    <path d="M 1569 268  C 1569 268  1569 118.138888888889  1569 118.138888888889  C 1569 118.138888888889  1602.86178861789 118.138888888889  1602.86178861789 118.138888888889  C 1602.86178861789 118.138888888889  1610.9647696477 108.084010840107  1610.9647696477 108.084010840107  C 1610.9647696477 108.084010840107  1622.86178861789 118.138888888889  1622.86178861789 118.138888888889  C 1622.86178861789 118.138888888889  1869 118.138888888889  1869 118.138888888889  C 1869 118.138888888889  1869 268  1869 268  C 1869 268  1569 268  1569 268  Z M 1570 267  C 1570 267  1868 267  1868 267  C 1868 267  1868 119.138888888889  1868 119.138888888889  C 1868 119.138888888889  1622.49580951669 119.138888888889  1622.49580951669 119.138888888889  C 1622.49580951669 119.138888888889  1611.10108684939 109.508531308856  1611.10108684939 109.508531308856  C 1611.10108684939 109.508531308856  1603.34021651335 119.138888888889  1603.34021651335 119.138888888889  C 1603.34021651335 119.138888888889  1570 119.138888888889  1570 119.138888888889  C 1570 119.138888888889  1570 267  1570 267  Z " fill-rule="nonzero" fill="#f59a23" stroke="none" />
  </g>
</svg>