<?xml version="1.0" encoding="utf-8"?>
<svg version="1.1" xmlns:xlink="http://www.w3.org/1999/xlink" width="300px" height="264px" xmlns="http://www.w3.org/2000/svg">
  <g transform="matrix(1 0 0 1 -1201 -105 )">
    <path d="M 1201.5 368.5  C 1201.5 368.5  1201.5 117.625  1201.5 117.625  C 1201.5 117.625  1431.82228484114 117.625  1431.82228484114 117.625  C 1431.82228484114 117.625  1441.84927789485 106.432362382698  1441.84927789485 106.432362382698  C 1441.84927789485 106.432362382698  1451.36777050844 117.625  1451.36777050844 117.625  C 1451.36777050844 117.625  1500.5 117.625  1500.5 117.625  C 1500.5 117.625  1500.5 368.5  1500.5 368.5  C 1500.5 368.5  1201.5 368.5  1201.5 368.5  Z " fill-rule="nonzero" fill="#ffffff" stroke="none" />
    <path d="M 1201 369  C 1201 369  1201 117.125  1201 117.125  C 1201 117.125  1431.59891598916 117.125  1431.59891598916 117.125  C 1431.59891598916 117.125  1441.85907859079 105.672086720868  1441.85907859079 105.672086720868  C 1441.85907859079 105.672086720868  1451.59891598916 117.125  1451.59891598916 117.125  C 1451.59891598916 117.125  1501 117.125  1501 117.125  C 1501 117.125  1501 369  1501 369  C 1501 369  1201 369  1201 369  Z M 1202 368  C 1202 368  1500 368  1500 368  C 1500 368  1500 118.125  1500 118.125  C 1500 118.125  1451.13662502771 118.125  1451.13662502771 118.125  C 1451.13662502771 118.125  1441.83947719892 107.192638044527  1441.83947719892 107.192638044527  C 1441.83947719892 107.192638044527  1432.04565369312 118.125  1432.04565369312 118.125  C 1432.04565369312 118.125  1202 118.125  1202 118.125  C 1202 118.125  1202 368  1202 368  Z " fill-rule="nonzero" fill="#f59a23" stroke="none" />
  </g>
</svg>