<?xml version="1.0" encoding="utf-8"?>
<svg version="1.1" xmlns:xlink="http://www.w3.org/1999/xlink" width="90px" height="30px" xmlns="http://www.w3.org/2000/svg">
  <g transform="matrix(1 0 0 1 -360 -158 )">
    <path d="M 361 173  A 14 14 0 0 1 375 159 L 435 159  A 14 14 0 0 1 449 173 A 14 14 0 0 1 435 187 L 375 187  A 14 14 0 0 1 361 173 Z " fill-rule="nonzero" fill="#f2f2f2" stroke="none" />
    <path d="M 360.5 173  A 14.5 14.5 0 0 1 375 158.5 L 435 158.5  A 14.5 14.5 0 0 1 449.5 173 A 14.5 14.5 0 0 1 435 187.5 L 375 187.5  A 14.5 14.5 0 0 1 360.5 173 Z " stroke-width="1" stroke="#e4e4e4" fill="none" stroke-opacity="0.498039215686275" />
  </g>
</svg>