<?xml version="1.0" encoding="utf-8"?>
<svg version="1.1" xmlns:xlink="http://www.w3.org/1999/xlink" width="254px" height="229px" xmlns="http://www.w3.org/2000/svg">
  <g transform="matrix(1 0 0 1 9 -17 )">
    <path d="M -8.15562913907285 229.444762237034  C -8.15562913907285 229.444762237034  -8.15562913907285 21.9915611814346  -8.15562913907285 21.9915611814346  C -8.15562913907285 19.506279807196  -6.14091051331142 17.4915611814346  -3.65562913907285 17.4915611814346  C -3.65562913907285 17.4915611814346  239.655629139073 17.4915611814346  239.655629139073 17.4915611814346  C 242.140910513311 17.4915611814346  244.155629139073 19.506279807196  244.155629139073 21.9915611814346  C 244.155629139073 21.9915611814346  244.155629139073 229.444762237034  244.155629139073 229.444762237034  C 244.155629139073 231.930043611272  242.140910513311 233.944762237034  239.655629139073 233.944762237034  C 239.655629139073 233.944762237034  70.3535285928886 233.944762237034  70.3535285928886 233.944762237034  C 70.3535285928886 233.944762237034  53.2540091210672 244.903559535205  53.2540091210672 244.903559535205  C 53.2540091210672 244.903559535205  36.650127894807 233.944762237034  36.650127894807 233.944762237034  C 36.650127894807 233.944762237034  -3.65562913907285 233.944762237034  -3.65562913907285 233.944762237034  C -6.14091051331142 233.944762237034  -8.15562913907285 231.930043611272  -8.15562913907285 229.444762237034  Z " fill-rule="nonzero" fill="#ffffff" stroke="none" fill-opacity="0.8" />
    <path d="M -8.65562913907285 229.444762237034  C -8.65562913907285 229.444762237034  -8.65562913907285 21.9915611814346  -8.65562913907285 21.9915611814346  C -8.65562913907285 19.2301374322806  -6.41705288822681 16.9915611814346  -3.65562913907285 16.9915611814346  C -3.65562913907285 16.9915611814346  239.655629139073 16.9915611814346  239.655629139073 16.9915611814346  C 242.417052888227 16.9915611814346  244.655629139073 19.2301374322806  244.655629139073 21.9915611814346  C 244.655629139073 21.9915611814346  244.655629139073 229.444762237034  244.655629139073 229.444762237034  C 244.655629139073 232.206185986188  242.417052888227 234.444762237034  239.655629139073 234.444762237034  C 239.655629139073 234.444762237034  70.5 234.444762237034  70.5 234.444762237034  C 70.5 234.444762237034  53.25 245.5  53.25 245.5  C 53.25 245.5  36.5 234.444762237034  36.5 234.444762237034  C 36.5 234.444762237034  -3.65562913907285 234.444762237034  -3.65562913907285 234.444762237034  C -6.41705288822681 234.444762237034  -8.65562913907285 232.206185986188  -8.65562913907285 229.444762237034  Z M -7.65562913907285 229.444762237034  C -7.65562913907285 231.653901236357  -5.86476813839602 233.444762237034  -3.65562913907285 233.444762237034  C -3.65562913907285 233.444762237034  36.8002557896115 233.444762237034  36.8002557896115 233.444762237034  C 36.8002557896115 233.444762237034  53.2580182421344 244.30711907041  53.2580182421344 244.30711907041  C 53.2580182421344 244.30711907041  70.2070571857772 233.444762237034  70.2070571857772 233.444762237034  C 70.2070571857772 233.444762237034  239.655629139073 233.444762237034  239.655629139073 233.444762237034  C 241.864768138396 233.444762237034  243.655629139073 231.653901236357  243.655629139073 229.444762237034  C 243.655629139073 229.444762237034  243.655629139073 21.9915611814346  243.655629139073 21.9915611814346  C 243.655629139073 19.7824221821114  241.864768138396 17.9915611814346  239.655629139073 17.9915611814346  C 239.655629139073 17.9915611814346  -3.65562913907285 17.9915611814346  -3.65562913907285 17.9915611814346  C -5.86476813839602 17.9915611814346  -7.65562913907285 19.7824221821114  -7.65562913907285 21.9915611814346  C -7.65562913907285 21.9915611814346  -7.65562913907285 229.444762237034  -7.65562913907285 229.444762237034  Z " fill-rule="nonzero" fill="#e9e9e9" stroke="none" />
  </g>
</svg>