<?xml version="1.0" encoding="utf-8"?>
<svg version="1.1" xmlns:xlink="http://www.w3.org/1999/xlink" width="32px" height="29px" xmlns="http://www.w3.org/2000/svg">
  <g transform="matrix(1 0 0 1 -54 -493 )">
    <path d="M 21.65625 13.083984375  C 23.21875 12.1399739583333  24 11.0008680555556  24 9.66666666666667  C 24 8.33246527777778  23.21875 7.193359375  21.65625 6.24934895833333  C 20.09375 5.30533854166667  18.2083333333333 4.83333333333333  16 4.83333333333333  C 13.7916666666667 4.83333333333333  11.90625 5.30533854166667  10.34375 6.24934895833333  C 8.78125 7.193359375  8 8.33246527777778  8 9.66666666666667  C 8 11.0008680555556  8.78125 12.1399739583333  10.34375 13.083984375  C 11.90625 14.0279947916667  13.7916666666667 14.5  16 14.5  C 18.2083333333333 14.5  20.09375 14.0279947916667  21.65625 13.083984375  Z M 27.3125 2.83203125  C 30.4375 4.72005208333333  32 6.99826388888888  32 9.66666666666667  C 32 11.0386284722222  31.65625 12.1651475694444  30.96875 13.0462239583333  L 19.59375 27.6595052083333  C 19.2604166666667 28.0748697916667  18.765625 28.4021267361111  18.109375 28.6412760416667  C 17.453125 28.8804253472222  16.75 29  16 29  C 15.25 29  14.546875 28.8804253472222  13.890625 28.6412760416667  C 13.234375 28.4021267361111  12.75 28.0748697916667  12.4375 27.6595052083333  L 1.03125 13.0462239583333  C 0.34375 12.1651475694444  0 11.0386284722222  0 9.66666666666667  C 0 6.99826388888888  1.5625 4.72005208333333  4.6875 2.83203125  C 7.8125 0.944010416666668  11.5833333333333 0  16 0  C 20.4166666666667 0  24.1875 0.944010416666668  27.3125 2.83203125  Z " fill-rule="nonzero" fill="#7f7f7f" stroke="none" transform="matrix(1 0 0 1 54 493 )" />
  </g>
</svg>