<?xml version="1.0" encoding="utf-8"?>
<svg version="1.1" xmlns:xlink="http://www.w3.org/1999/xlink" width="12px" height="12px" viewBox="238 351.5  12 12" xmlns="http://www.w3.org/2000/svg">
  <path d="M 244 351.5  C 247.36 351.5  250 354.14  250 357.5  C 250 360.86  247.36 363.5  244 363.5  C 240.64 363.5  238 360.86  238 357.5  C 238 354.14  240.64 351.5  244 351.5  Z " fill-rule="nonzero" fill="#ffffff" stroke="none" />
  <path d="M 244 352  C 247.08 352  249.5 354.42  249.5 357.5  C 249.5 360.58  247.08 363  244 363  C 240.92 363  238.5 360.58  238.5 357.5  C 238.5 354.42  240.92 352  244 352  Z " stroke-width="1" stroke="#797979" fill="none" />
  <path d="M 244 360.5  C 242.32 360.5  241 359.18  241 357.5  C 241 355.82  242.32 354.5  244 354.5  C 245.68 354.5  247 355.82  247 357.5  C 247 359.18  245.68 360.5  244 360.5  " fill-rule="nonzero" fill="#797979" stroke="none" />
</svg>