<?xml version="1.0" encoding="utf-8"?>
<svg version="1.1" xmlns:xlink="http://www.w3.org/1999/xlink" width="23px" height="20px" xmlns="http://www.w3.org/2000/svg">
  <g transform="matrix(1 0 0 1 -104 -464 )">
    <path d="M 22.9509943181818 15.4971590909091  C 22.9836647727273 15.563446969697  23 15.6628787878788  23 15.7954545454545  C 23 16.0511363636364  22.9455492424242 16.3849431818182  22.8366477272727 16.796875  C 22.7277462121212 17.2088068181818  22.6133996212121 17.5331439393939  22.4936079545455 17.7698863636364  C 22.2649147727273 18.2433712121212  21.600615530303 18.7452651515152  20.5007102272727 19.2755681818182  C 19.4770359848485 19.7585227272727  18.4642518939394 20  17.4623579545455 20  C 17.1683238636364 20  16.8797348484849 19.983428030303  16.5965909090909 19.9502840909091  C 16.313446969697 19.9171401515152  16.0003551136364 19.8579545454545  15.6573153409091 19.7727272727273  C 15.3142755681818 19.6875  15.0583570075758 19.6188446969697  14.8895596590909 19.5667613636364  C 14.7207623106061 19.514678030303  14.4185606060606 19.4176136363636  13.9829545454545 19.2755681818182  C 13.5473484848485 19.1335227272727  13.2805397727273 19.0482954545455  13.1825284090909 19.0198863636364  C 12.1152935606061 18.688446969697  11.1624053030303 18.2954545454545  10.3238636363636 17.8409090909091  C 8.94081439393939 17.092803030303  7.50331439393939 16.0700757575758  6.01136363636364 14.7727272727273  C 4.51941287878788 13.4753787878788  3.34327651515152 12.2253787878788  2.48295454545455 11.0227272727273  C 1.96022727272727 10.2935606060606  1.50828598484848 9.46496212121212  1.12713068181818 8.53693181818182  C 1.09446022727273 8.45170454545454  0.996448863636364 8.21969696969697  0.833096590909091 7.84090909090909  C 0.669744318181818 7.46212121212121  0.558120265151515 7.19933712121212  0.498224431818182 7.05255681818182  C 0.438328598484849 6.90577651515151  0.359375 6.68323863636363  0.261363636363636 6.38494318181818  C 0.163352272727273 6.08664772727272  0.0952888257575758 5.81439393939394  0.0571732954545455 5.56818181818182  C 0.0190577651515151 5.3219696969697  0 5.07102272727273  0 4.81534090909091  C 0 3.94412878787879  0.277698863636364 3.06344696969697  0.833096590909091 2.17329545454545  C 1.44294507575758 1.21685606060606  2.02012310606061 0.639204545454546  2.56463068181818 0.440340909090908  C 2.83688446969697 0.336174242424241  3.20987215909091 0.236742424242422  3.68359375 0.142045454545454  C 4.15731534090909 0.047348484848484  4.54119318181818 0  4.83522727272727 0  C 4.98768939393939 0  5.10203598484849 0.0142045454545459  5.17826704545454 0.0426136363636354  C 5.37428977272727 0.0994318181818188  5.66287878787879 0.459280303030303  6.04403409090909 1.12215909090909  C 6.16382575757576 1.30208333333333  6.32717803030303 1.55776515151515  6.53409090909091 1.88920454545455  C 6.74100378787879 2.22064393939394  6.93158143939394 2.52130681818182  7.10582386363636 2.79119318181818  C 7.28006628787879 3.06107954545455  7.44886363636364 3.31439393939394  7.61221590909091 3.55113636363636  C 7.64488636363636 3.58901515151515  7.74017518939394 3.70738636363636  7.89808238636364 3.90625  C 8.05598958333334 4.10511363636363  8.17305871212121 4.27320075757576  8.24928977272727 4.41051136363637  C 8.32552083333333 4.54782196969697  8.36363636363636 4.68276515151515  8.36363636363636 4.81534090909091  C 8.36363636363636 5.00473484848485  8.20845170454546 5.24147727272727  7.89808238636364 5.52556818181818  C 7.58771306818182 5.80965909090909  7.25011837121212 6.07007575757576  6.88529829545455 6.30681818181818  C 6.52047821969697 6.5435606060606  6.18288352272727 6.79450757575758  5.87251420454545 7.05965909090909  C 5.56214488636364 7.32481060606061  5.40696022727273 7.54261363636363  5.40696022727273 7.71306818181818  C 5.40696022727273 7.79829545454545  5.43418560606061 7.90482954545455  5.48863636363636 8.03267045454545  C 5.54308712121212 8.16051136363637  5.58937026515152 8.25757575757576  5.62748579545454 8.32386363636363  C 5.66560132575758 8.39015151515151  5.74183238636364 8.50378787878788  5.85617897727273 8.66477272727273  C 5.97052556818182 8.82575757575758  6.03314393939394 8.9157196969697  6.04403409090909 8.93465909090909  C 6.87168560606061 10.2320075757576  7.81912878787879 11.344696969697  8.88636363636364 12.2727272727273  C 9.95359848484849 13.2007575757576  11.2331912878788 14.0246212121212  12.7251420454545 14.7443181818182  C 12.7469223484848 14.7537878787879  12.8503787878788 14.8082386363636  13.0355113636364 14.9076704545455  C 13.2206439393939 15.0071022727273  13.3513257575758 15.0733901515151  13.4275568181818 15.1065340909091  C 13.5037878787879 15.139678030303  13.6154119318182 15.1799242424242  13.7624289772727 15.2272727272727  C 13.9094460227273 15.2746212121212  14.0319602272727 15.2982954545455  14.1299715909091 15.2982954545455  C 14.3259943181818 15.2982954545455  14.5764678030303 15.1633522727273  14.8813920454545 14.8934659090909  C 15.1863162878788 14.6235795454545  15.4749053030303 14.3300189393939  15.7471590909091 14.0127840909091  C 16.0194128787879 13.6955492424242  16.3188920454545 13.4019886363636  16.6455965909091 13.1321022727273  C 16.9723011363636 12.8622159090909  17.2445549242424 12.7272727272727  17.4623579545455 12.7272727272727  C 17.6148200757576 12.7272727272727  17.7700047348485 12.7604166666667  17.9279119318182 12.8267045454545  C 18.0858191287879 12.8929924242424  18.2791193181818 12.9947916666667  18.5078125 13.1321022727273  C 18.7365056818182 13.2694128787879  18.8726325757576 13.3522727272727  18.9161931818182 13.3806818181818  C 19.188446969697 13.5227272727273  19.4797585227273 13.6695075757576  19.7901278409091 13.8210227272727  C 20.1004971590909 13.9725378787879  20.446259469697 14.1382575757576  20.8274147727273 14.3181818181818  C 21.2085700757576 14.4981060606061  21.5026041666667 14.6401515151515  21.7095170454545 14.7443181818182  C 22.4718276515152 15.0757575757576  22.8856534090909 15.3267045454545  22.9509943181818 15.4971590909091  Z " fill-rule="nonzero" fill="#ffffff" stroke="none" transform="matrix(1 0 0 1 104 464 )" />
  </g>
</svg>