<?xml version="1.0" encoding="utf-8"?>
<svg version="1.1" xmlns:xlink="http://www.w3.org/1999/xlink" width="15px" height="24px" xmlns="http://www.w3.org/2000/svg">
  <g transform="matrix(1 0 0 1 -366 -441 )">
    <path d="M 0.257731958762716 11.4468937875751  C 0.0859106529211121 11.6072144288577  0 11.7915831663326  0 12  C 0 12.2084168336674  0.0859106529211121 12.3927855711423  0.257731958762716 12.5531062124249  L 12.2680412371133 23.7595190380761  C 12.4398625429553 23.9198396793587  12.6374570446734 24  12.8608247422679 24  C 13.0841924398627 24  13.2817869415809 23.9198396793587  13.4536082474225 23.7595190380761  L 14.7422680412373 22.5571142284568  C 14.9140893470789 22.3967935871745  15 22.2124248496993  15 22.004008016032  C 15 21.7955911823648  14.9140893470789 21.61122244489  14.7422680412373 21.4509018036071  L 4.61340206185572 12  L 14.7422680412373 2.5490981963929  C 14.9140893470789 2.38877755511004  15 2.20440881763517  15 1.99599198396804  C 15 1.78757515030065  14.9140893470789 1.60320641282554  14.7422680412373 1.44288577154318  L 13.4536082474225 0.240480961923905  C 13.2817869415809 0.0801603206413016  13.0841924398627 0  12.8608247422679 0  C 12.6374570446734 0  12.4398625429553 0.0801603206413016  12.2680412371133 0.240480961923905  L 0.257731958762716 11.4468937875751  Z " fill-rule="nonzero" fill="#555555" stroke="none" transform="matrix(1 0 0 1 366 441 )" />
  </g>
</svg>