<?xml version="1.0" encoding="utf-8"?>
<svg version="1.1" xmlns:xlink="http://www.w3.org/1999/xlink" width="20px" height="20px" xmlns="http://www.w3.org/2000/svg">
  <g transform="matrix(1 0 0 1 -348 -14 )">
    <path d="M 358 16  C 362.48 16  366 19.52  366 24  C 366 28.48  362.48 32  358 32  C 353.52 32  350 28.48  350 24  C 350 19.52  353.52 16  358 16  Z " fill-rule="nonzero" fill="#0079fe" stroke="none" />
    <path d="M 358 15.5  C 362.76 15.5  366.5 19.24  366.5 24  C 366.5 28.76  362.76 32.5  358 32.5  C 353.24 32.5  349.5 28.76  349.5 24  C 349.5 19.24  353.24 15.5  358 15.5  Z " stroke-width="3" stroke="#ffffff" fill="none" />
  </g>
</svg>