<?xml version="1.0" encoding="utf-8"?>
<svg version="1.1" xmlns:xlink="http://www.w3.org/1999/xlink" width="62px" height="46px" xmlns="http://www.w3.org/2000/svg">
  <g transform="matrix(1 0 0 1 -220 -487 )">
    <path d="M 50.2570257611241 28.7275265214964  C 51.358118657299 26.9039642657733  51.9086651053864 24.9905080960357  51.9086651053864 22.9871580122836  C 51.9086651053864 20.9838079285315  51.358118657299 19.070351758794  50.2570257611241 17.2467895030709  C 49.1559328649492 15.4232272473479  47.6676424668228 13.8479434208078  45.7921545667447 12.5209380234506  C 43.9166666666667 11.1939326260935  41.690281030445 10.1408896333519  39.1129976580796 9.36180904522614  C 36.5357142857143 8.58272845710033  33.8313817330211 8.19318816303743  31 8.19318816303743  C 28.1686182669789 8.19318816303743  25.4642857142857 8.58272845710033  22.8870023419204 9.36180904522614  C 20.309718969555 10.1408896333519  18.0833333333333 11.1939326260935  16.2078454332553 12.5209380234506  C 14.3323575331772 13.8479434208078  12.8440671350507 15.4232272473479  11.7429742388759 17.2467895030709  C 10.641881342701 19.070351758794  10.0913348946136 20.9838079285315  10.0913348946136 22.9871580122836  C 10.0913348946136 24.9905080960357  10.641881342701 26.9039642657733  11.7429742388759 28.7275265214964  C 12.8440671350507 30.5510887772194  14.3323575331772 32.1263726037595  16.2078454332553 33.4533780011167  C 18.0833333333333 34.7803833984738  20.309718969555 35.8334263912154  22.8870023419204 36.6125069793412  C 25.4642857142857 37.391587567467  28.1686182669789 37.7811278615299  31 37.7811278615299  C 33.8313817330211 37.7811278615299  36.5357142857143 37.391587567467  39.1129976580796 36.6125069793412  C 41.690281030445 35.8334263912154  43.9166666666667 34.7803833984738  45.7921545667447 33.4533780011167  C 47.6676424668228 32.1263726037595  49.1559328649492 30.5510887772194  50.2570257611241 28.7275265214964  Z M 61.7822014051522 29.356783919598  C 62 29.5622557230597  62.048399687744 29.8105341522427  61.9274004683841 30.1016192071468  C 61.8306010928962 30.358458961474  61.5886026541764 30.5296854643588  61.2014051522248 30.6152987158012  L 50.6018735362998 33.0809603573423  L 50.6018735362998 40.9402568397543  C 50.6018735362998 41.21421924437  50.4445745511319 41.4368136981202  50.1299765807962 41.608040201005  C 49.7669789227166 41.7792667038899  49.416081186573 41.8135120044668  49.0772833723653 41.7107761027359  L 38.4777517564403 39.2964824120603  L 31.943793911007 45.6661083193747  C 31.7017954722873 45.8887027731248  31.3871975019516 46  31 46  C 30.6128024980484 46  30.2982045277127 45.8887027731248  30.056206088993 45.6661083193747  L 23.5222482435597 39.2964824120603  L 12.9227166276347 41.7107761027359  C 12.583918813427 41.8135120044668  12.2330210772834 41.7792667038899  11.8700234192038 41.608040201005  C 11.5554254488681 41.4368136981202  11.3981264637002 41.21421924437  11.3981264637002 40.9402568397543  L 11.3981264637002 33.0809603573423  L 0.798594847775179 30.6152987158012  C 0.411397345823578 30.5296854643588  0.169398907103841 30.358458961474  0.072599531615932 30.1016192071468  C -0.0483996877439547 29.8105341522427  0 29.5622557230597  0.217798594847759 29.356783919598  L 6.75175644028102 22.9871580122836  L 0.217798594847759 16.6175321049693  C 0 16.3949376512191  -0.0483996877439547 16.1466592220361  0.072599531615932 15.8726968174205  C 0.169398907103841 15.6158570630933  0.411397345823578 15.4446305602085  0.798594847775179 15.359017308766  L 11.3981264637002 12.893355667225  L 11.3981264637002 5.03405918481294  C 11.3981264637002 4.7600967801973  11.5554254488681 4.53750232644705  11.8700234192038 4.36627582356229  C 12.2330210772834 4.19504932067745  12.583918813427 4.16080402010054  12.9227166276347 4.26353992183134  L 23.5222482435597 6.67783361250693  L 30.056206088993 0.308207705192624  C 30.2740046838408 0.102735901730875  30.5886026541764 0  31 0  C 31.4113973458236 0  31.7259953161593 0.102735901730875  31.943793911007 0.308207705192624  L 38.4777517564403 6.67783361250693  L 49.0772833723653 4.26353992183134  C 49.416081186573 4.16080402010054  49.7669789227166 4.19504932067745  50.1299765807962 4.36627582356229  C 50.4445745511319 4.53750232644705  50.6018735362998 4.7600967801973  50.6018735362998 5.03405918481294  L 50.6018735362998 12.893355667225  L 61.2014051522248 15.359017308766  C 61.5886026541764 15.4446305602085  61.8306010928962 15.6158570630933  61.9274004683841 15.8726968174205  C 62.048399687744 16.1466592220361  62 16.3949376512191  61.7822014051522 16.6175321049693  L 55.248243559719 22.9871580122836  L 61.7822014051522 29.356783919598  Z " fill-rule="nonzero" fill="#cccccc" stroke="none" transform="matrix(1 0 0 1 220 487 )" />
  </g>
</svg>