<?xml version="1.0" encoding="utf-8"?>
<svg version="1.1" xmlns:xlink="http://www.w3.org/1999/xlink" width="52px" height="53px" xmlns="http://www.w3.org/2000/svg">
  <g transform="matrix(1 0 0 1 -315 -318 )">
    <path d="M 51.8707386363637 40.4918619791667  C 51.9569128787879 41.6535373263889  52 42.8439670138889  52 44.0631510416667  C 52 46.8235677083333  51.1013257575758 49.0031467013889  49.3039772727273 50.6018880208333  C 47.5066287878788 52.2006293402778  45.1183712121212 53  42.1392045454546 53  L 9.86079545454542 53  C 6.88162878787875 53  4.49337121212125 52.2006293402778  2.69602272727275 50.6018880208333  C 0.898674242424249 49.0031467013889  0 46.8235677083333  0 44.0631510416667  C 0 42.8439670138889  0.0430871212120868 41.6535373263889  0.129261363636336 40.4918619791667  C 0.215435606060585 39.3301866319445  0.387784090909084 38.0764973958334  0.646306818181756 36.7307942708334  C 0.90482954545458 35.3850911458333  1.23106060606059 34.1371527777778  1.625 32.9869791666666  C 2.01893939393941 31.8368055555555  2.54829545454542 30.7153862847222  3.21306818181824 29.6227213541666  C 3.87784090909092 28.5300564236111  4.64109848484842 27.5984157986111  5.50284090909092 26.8277994791666  C 6.36458333333333 26.0571831597222  7.41714015151509 25.4418402777778  8.66051136363633 24.9817708333334  C 9.90388257575758 24.5217013888889  11.2765151515151 24.2916666666666  12.7784090909091 24.2916666666666  C 13 24.2916666666666  13.5170454545454 24.5389539930555  14.3295454545454 25.0335286458334  C 15.1420454545454 25.5281032986111  16.0591856060606 26.0801866319445  17.0809659090909 26.6897786458334  C 18.1027462121212 27.2993706597222  19.4322916666667 27.8514539930555  21.0696022727273 28.3460286458334  C 22.7069128787879 28.8406032986111  24.3503787878788 29.087890625  26 29.087890625  C 27.6496212121212 29.087890625  29.2930871212121 28.8406032986111  30.9303977272727 28.3460286458334  C 32.5677083333333 27.8514539930555  33.8972537878788 27.2993706597222  34.9190340909091 26.6897786458334  C 35.9408143939394 26.0801866319445  36.8579545454546 25.5281032986111  37.6704545454546 25.0335286458334  C 38.4829545454546 24.5389539930555  39 24.2916666666666  39.2215909090909 24.2916666666666  C 40.7234848484848 24.2916666666666  42.0961174242424 24.5217013888889  43.3394886363637 24.9817708333334  C 44.5828598484848 25.4418402777778  45.6354166666667 26.0571831597222  46.4971590909091 26.8277994791666  C 47.3589015151515 27.5984157986111  48.1221590909091 28.5300564236111  48.7869318181818 29.6227213541666  C 49.4517045454546 30.7153862847222  49.9810606060606 31.8368055555555  50.375 32.9869791666666  C 50.7689393939394 34.1371527777778  51.0951704545454 35.3850911458333  51.3536931818182 36.7307942708334  C 51.6122159090909 38.0764973958334  51.7845643939394 39.3301866319445  51.8707386363637 40.4918619791667  Z M 36.0269886363637 3.8818359375  C 38.796875 6.4697265625  40.1818181818182 9.59244791666669  40.1818181818182 13.25  C 40.1818181818182 16.9075520833333  38.796875 20.0302734375  36.0269886363637 22.6181640625  C 33.2571022727273 25.2060546875  29.9147727272727 26.5  26 26.5  C 22.0852272727273 26.5  18.7428977272727 25.2060546875  15.9730113636363 22.6181640625  C 13.203125 20.0302734375  11.8181818181818 16.9075520833333  11.8181818181818 13.25  C 11.8181818181818 9.59244791666669  13.203125 6.4697265625  15.9730113636363 3.8818359375  C 18.7428977272727 1.2939453125  22.0852272727273 0  26 0  C 29.9147727272727 0  33.2571022727273 1.2939453125  36.0269886363637 3.8818359375  Z " fill-rule="nonzero" fill="#cccccc" stroke="none" transform="matrix(1 0 0 1 315 318 )" />
  </g>
</svg>