<?xml version="1.0" encoding="utf-8"?>
<svg version="1.1" xmlns:xlink="http://www.w3.org/1999/xlink" width="62px" height="44px" xmlns="http://www.w3.org/2000/svg">
  <g transform="matrix(1 0 0 1 -220 -648 )">
    <path d="M 50.2570257611241 27.4785036292574  C 51.358118657299 25.7342266890006  51.9086651053864 23.9039642657733  51.9086651053864 21.9877163595756  C 51.9086651053864 20.071468453378  51.358118657299 18.2412060301508  50.2570257611241 16.4969290898939  C 49.1559328649492 14.7526521496371  47.6676424668228 13.2458589242509  45.7921545667447 11.9765494137354  C 43.9166666666667 10.7072399032198  41.690281030445 9.6999813884236  39.1129976580796 8.95477386934674  C 36.5357142857143 8.20956635026988  33.8313817330211 7.83696259073145  31 7.83696259073145  C 28.1686182669789 7.83696259073145  25.4642857142857 8.20956635026988  22.8870023419204 8.95477386934674  C 20.309718969555 9.6999813884236  18.0833333333333 10.7072399032198  16.2078454332553 11.9765494137354  C 14.3323575331772 13.2458589242509  12.8440671350507 14.7526521496371  11.7429742388759 16.4969290898939  C 10.641881342701 18.2412060301508  10.0913348946136 20.071468453378  10.0913348946136 21.9877163595756  C 10.0913348946136 23.9039642657733  10.641881342701 25.7342266890006  11.7429742388759 27.4785036292574  C 12.8440671350507 29.2227805695142  14.3323575331772 30.7295737949004  16.2078454332553 31.998883305416  C 18.0833333333333 33.2681928159315  20.309718969555 34.2754513307277  22.8870023419204 35.0206588498046  C 25.4642857142857 35.7658663688814  28.1686182669789 36.1384701284199  31 36.1384701284199  C 33.8313817330211 36.1384701284199  36.5357142857143 35.7658663688814  39.1129976580796 35.0206588498046  C 41.690281030445 34.2754513307277  43.9166666666667 33.2681928159315  45.7921545667447 31.998883305416  C 47.6676424668228 30.7295737949004  49.1559328649492 29.2227805695142  50.2570257611241 27.4785036292574  Z M 61.7822014051522 28.0804020100503  C 62 28.2769402568398  62.048399687744 28.5144239717104  61.9274004683841 28.7928531546622  C 61.8306010928962 29.0385259631491  61.5886026541764 29.2023078354736  61.2014051522248 29.2841987716359  L 50.6018735362998 31.64265773311  L 50.6018735362998 39.1602456728085  C 50.6018735362998 39.4222966685278  50.4445745511319 39.6352131025498  50.1299765807962 39.7989949748744  C 49.7669789227166 39.962776847199  49.416081186573 39.9955332216639  49.0772833723653 39.8972640982691  L 38.4777517564403 37.5879396984925  L 31.943793911007 43.6806253489671  C 31.7017954722873 43.893541782989  31.3871975019516 44  31 44  C 30.6128024980484 44  30.2982045277127 43.893541782989  30.056206088993 43.6806253489671  L 23.5222482435597 37.5879396984925  L 12.9227166276347 39.8972640982691  C 12.583918813427 39.9955332216639  12.2330210772834 39.962776847199  11.8700234192038 39.7989949748744  C 11.5554254488681 39.6352131025498  11.3981264637002 39.4222966685278  11.3981264637002 39.1602456728085  L 11.3981264637002 31.64265773311  L 0.798594847775179 29.2841987716359  C 0.411397345823578 29.2023078354736  0.169398907103841 29.0385259631491  0.072599531615932 28.7928531546622  C -0.0483996877439547 28.5144239717104  0 28.2769402568398  0.217798594847759 28.0804020100503  L 6.75175644028102 21.9877163595756  L 0.217798594847759 15.8950307091011  C 0 15.6821142750791  -0.0483996877439547 15.4446305602085  0.072599531615932 15.1825795644892  C 0.169398907103841 14.9369067560022  0.411397345823578 14.7731248836777  0.798594847775179 14.6912339475153  L 11.3981264637002 12.3327749860413  L 11.3981264637002 4.81518704634281  C 11.3981264637002 4.5531360506235  11.5554254488681 4.34021961660153  11.8700234192038 4.17643774427697  C 12.2330210772834 4.01265587195234  12.583918813427 3.97989949748747  12.9227166276347 4.07816862088215  L 23.5222482435597 6.38749302065881  L 30.056206088993 0.294807370184249  C 30.2740046838408 0.0982691233947498  30.5886026541764 0  31 0  C 31.4113973458236 0  31.7259953161593 0.0982691233947498  31.943793911007 0.294807370184249  L 38.4777517564403 6.38749302065881  L 49.0772833723653 4.07816862088215  C 49.416081186573 3.97989949748747  49.7669789227166 4.01265587195234  50.1299765807962 4.17643774427697  C 50.4445745511319 4.34021961660153  50.6018735362998 4.5531360506235  50.6018735362998 4.81518704634281  L 50.6018735362998 12.3327749860413  L 61.2014051522248 14.6912339475153  C 61.5886026541764 14.7731248836777  61.8306010928962 14.9369067560022  61.9274004683841 15.1825795644892  C 62.048399687744 15.4446305602085  62 15.6821142750791  61.7822014051522 15.8950307091011  L 55.248243559719 21.9877163595756  L 61.7822014051522 28.0804020100503  Z " fill-rule="nonzero" fill="#cccccc" stroke="none" transform="matrix(1 0 0 1 220 648 )" />
  </g>
</svg>