<?xml version="1.0" encoding="utf-8"?>
<svg version="1.1" xmlns:xlink="http://www.w3.org/1999/xlink" width="22px" height="17px" xmlns="http://www.w3.org/2000/svg">
  <defs>
    <mask fill="white" id="clip161">
      <path d="M 0.5 15  L 0.5 8  L 22 8  L 22 15  C 22 16.12  21.1400000000001 17  20.0454545454545 17  L 2.4545454545455 17  C 1.3599999999999 17  0.5 16.12  0.5 15  Z M 21.9999999927275 4  L 0.5 4  L 0.5 2  C 0.5 0.879999999999995  1.3599999999999 0  2.4545454545455 0  L 20.0454545454545 0  C 21.1400000000001 0  22 0.879999999999995  22 2  L 21.9999999927275 4  Z " fill-rule="evenodd" />
    </mask>
  </defs>
  <g transform="matrix(1 0 0 1 -287 -319 )">
    <path d="M 0.5 15  L 0.5 8  L 22 8  L 22 15  C 22 16.12  21.1400000000001 17  20.0454545454545 17  L 2.4545454545455 17  C 1.3599999999999 17  0.5 16.12  0.5 15  Z M 21.9999999927275 4  L 0.5 4  L 0.5 2  C 0.5 0.879999999999995  1.3599999999999 0  2.4545454545455 0  L 20.0454545454545 0  C 21.1400000000001 0  22 0.879999999999995  22 2  L 21.9999999927275 4  Z " fill-rule="nonzero" fill="#ffffff" stroke="none" transform="matrix(1 0 0 1 287 319 )" />
    <path d="M 0.5 15  L 0.5 8  L 22 8  L 22 15  C 22 16.12  21.1400000000001 17  20.0454545454545 17  L 2.4545454545455 17  C 1.3599999999999 17  0.5 16.12  0.5 15  Z " stroke-width="2" stroke="#fc434a" fill="none" transform="matrix(1 0 0 1 287 319 )" mask="url(#clip161)" />
    <path d="M 21.9999999927275 4  L 0.5 4  L 0.5 2  C 0.5 0.879999999999995  1.3599999999999 0  2.4545454545455 0  L 20.0454545454545 0  C 21.1400000000001 0  22 0.879999999999995  22 2  L 21.9999999927275 4  Z " stroke-width="2" stroke="#fc434a" fill="none" transform="matrix(1 0 0 1 287 319 )" mask="url(#clip161)" />
  </g>
</svg>