<?xml version="1.0" encoding="utf-8"?>
<svg version="1.1" xmlns:xlink="http://www.w3.org/1999/xlink" width="14px" height="13px" xmlns="http://www.w3.org/2000/svg">
  <defs>
    <mask fill="white" id="clip162">
      <path d="M 0 6.5  C 0 10.0898508737  3.1340067514 13  6.99999999999999 13  C 10.8659932486 13  14 10.0898508737  14 6.5  C 14 2.9101491263  10.8659932486 0  6.99999999999999 0  C 3.1340067514 0  0 2.9101491263  0 6.5  Z " fill-rule="evenodd" />
    </mask>
  </defs>
  <g transform="matrix(1 0 0 1 -298 -325 )">
    <path d="M 0 6.5  C 0 10.0898508737  3.1340067514 13  6.99999999999999 13  C 10.8659932486 13  14 10.0898508737  14 6.5  C 14 2.9101491263  10.8659932486 0  6.99999999999999 0  C 3.1340067514 0  0 2.9101491263  0 6.5  Z " fill-rule="nonzero" fill="#ffffff" stroke="none" transform="matrix(1 0 0 1 298 325 )" />
    <path d="M 0 6.5  C 0 10.0898508737  3.1340067514 13  6.99999999999999 13  C 10.8659932486 13  14 10.0898508737  14 6.5  C 14 2.9101491263  10.8659932486 0  6.99999999999999 0  C 3.1340067514 0  0 2.9101491263  0 6.5  Z " stroke-width="2" stroke="#fc434a" fill="none" transform="matrix(1 0 0 1 298 325 )" mask="url(#clip162)" />
  </g>
</svg>