<?xml version="1.0" encoding="utf-8"?>
<svg version="1.1" xmlns:xlink="http://www.w3.org/1999/xlink" width="213px" height="175px" xmlns="http://www.w3.org/2000/svg">
  <defs>
    <linearGradient gradientUnits="userSpaceOnUse" x1="106.5" y1="0" x2="189.610967127659" y2="50.0511989993292" id="LinearGradient168">
      <stop id="Stop169" stop-color="#ffffff" offset="0" />
      <stop id="Stop170" stop-color="#ffffff" offset="1" />
    </linearGradient>
  </defs>
  <g transform="matrix(1 0 0 1 -81 -101 )">
    <path d="M 103.786486507391 0.5  L 105.169959409312 0.5  L 105.169959409312 8.79059855235636  L 103.786486507391 8.79059855235636  L 103.786486507391 0.5  Z M 196.475167122441 164.001751412159  L 195.701538893543 165.148702428464  L 188.828321194669 160.512658552461  L 189.601949423567 159.365707536157  L 196.475167122441 164.001751412159  Z M 156.646587501391 12.9520439093129  L 157.844710179902 13.6437803602735  L 153.699410903724 20.8236493191927  L 152.501288225213 20.1319128682321  L 156.646587501391 12.9520439093129  Z M 34.1686649715134 28.7858243262655  L 35.212785224572 27.8781844375964  L 40.651907260581 34.1351785908408  L 39.6077870075225 35.0428184795099  L 34.1686649715134 28.7858243262655  Z M 4.66077912743651 137.941334750677  L 12.6302139522182 135.656136087565  L 13.0115507647483 136.98601559555  L 5.04211593996661 139.271214258662  L 4.66077912743651 137.941334750677  Z M 10.1694037947025 125.865617998408  L 10.4096413429727 127.228072838303  L 2.24499561150049 128.667720168688  L 2.00475806323027 127.305265328793  L 10.1694037947025 125.865617998408  Z M 8.91663200657285 149.530879767392  L 8.39837393570087 148.248146029499  L 16.0852830581405 145.142433148422  L 16.6035411290125 146.425166886315  L 8.91663200657285 149.530879767392  Z M 127.002004168007 2.47246139146768  L 125.278291805096 10.5818904741022  L 123.925051105401 10.2942502838632  L 125.648763468313 2.18482120122866  L 127.002004168007 2.47246139146768  Z M 71.5033034865387 6.39003340495941  L 72.8190644050288 5.96251676700848  L 75.3810002512473 13.8473445442142  L 74.0652393327572 14.2748611821651  L 71.5033034865387 6.39003340495941  Z M 10.6315628597021 85.6859969896186  L 10.3203491717587 87.0340115706923  L 2.24223812319087 85.1690326851981  L 2.55345181113421 83.8210181041244  L 10.6315628597021 85.6859969896186  Z M 0.72729247112386 94.6309194634465  L 8.95609415906824 95.6412892654579  L 8.78749122489228 97.01444997016  L 0.558689536947895 96.0040801681486  L 0.72729247112386 94.6309194634465  Z M 198.066901990179 142.585276811215  L 198.585160061051 141.302543073323  L 206.27206918349 144.4082559544  L 205.753811112618 145.690989692292  L 198.066901990179 142.585276811215  Z M 194.559403714296 150.565121932733  L 201.879567749459 154.457322191538  L 201.230066564122 155.678856260075  L 193.909902528959 151.78665600127  L 194.559403714296 150.565121932733  Z M 21.1475623590422 155.445623785067  L 13.8273983238798 159.337824043872  L 13.1778971385429 158.116289975335  L 20.4980611737053 154.22408971653  L 21.1475623590422 155.445623785067  Z M 43.7316784994346 20.9673269332235  L 48.4869704723122 27.7585876857656  L 47.3536958164849 28.5521151426379  L 42.5984038436072 21.7608543900958  L 43.7316784994346 20.9673269332235  Z M 56.993528253533 22.1736720178041  L 55.7954055750217 22.8654084687647  L 51.6501062988435 15.6855395098456  L 52.8482289773548 14.993803058885  L 56.993528253533 22.1736720178041  Z M 8.90138790735693 64.3027154286657  L 9.48606882033243 63.0488631645002  L 16.9999028475278 66.552621513487  L 16.4152219345523 67.8064737776525  L 8.90138790735693 64.3027154286657  Z M 14.5188899226664 53.307074505404  L 21.6253199049946 57.5770484236617  L 20.9127786848987 58.7629161565961  L 13.8063487025705 54.4929422383384  L 14.5188899226664 53.307074505404  Z M 189.226933509305 174.000026357092  L 182.875966558142 168.670932330752  L 183.765245797834 167.61113060203  L 190.116212748997 172.94022462837  L 189.226933509305 174.000026357092  Z M 8.8253841200351 117.254618946091  L 0.554981049068147 117.832941866332  L 0.45847485790955 116.452839034866  L 8.7288779288765 115.874516114626  L 8.8253841200351 117.254618946091  Z M 27.1496044591794 49.1237197360922  L 26.3170096826794 50.2286103227548  L 19.6958432792209 45.2392035630241  L 20.5284380557208 44.1343129763616  L 27.1496044591794 49.1237197360922  Z M 176.773333130678 38.2399259023726  L 182.836693070582 32.5857512857291  L 183.780219320883 33.5975593136392  L 177.716859380979 39.2517339302827  L 176.773333130678 38.2399259023726  Z M 114.761081226182 0.779231842991237  L 116.136975318792 0.923844139401524  L 115.270371792545 9.16902592542834  L 113.894477699936 9.02441362901811  L 114.761081226182 0.779231842991237  Z M 197.163910246921 50.9391165311163  L 190.057480264593 55.2090904493741  L 189.344939044497 54.0232227164397  L 196.451369026825 49.7532487981821  L 197.163910246921 50.9391165311163  Z M 190.087285989292 40.8187399340829  L 190.919880765793 41.9236305207456  L 184.298714362334 46.9130372804764  L 183.466119585834 45.8081466938137  L 190.087285989292 40.8187399340829  Z M 204.710457981304 102.955286218442  L 204.686313049925 101.572024026145  L 212.975648903966 101.427333130601  L 212.999793835345 102.810595322898  L 204.710457981304 102.955286218442  Z M 212.015268150532 91.8930928848827  L 203.786466462587 92.9034626868941  L 203.617863528411 91.530301982192  L 211.846665216356 90.5199321801806  L 212.015268150532 91.8930928848827  Z M 32.5707364694023 42.2939084085518  L 26.5073765294979 36.6397337919083  L 27.4509027797992 35.6279257639983  L 33.5142627197035 41.2821003806418  L 32.5707364694023 42.2939084085518  Z M 211.846196774191 123.22712839223  L 211.60595922592 124.589583232124  L 203.441313494448 123.149935901739  L 203.681551042718 121.787481061845  L 211.846196774191 123.22712839223  Z M 198.420942069949 72.0402536526601  L 206.259857004038 69.3410987826242  L 206.710271723458 70.6491981102292  L 198.871356789369 73.348352980265  L 198.420942069949 72.0402536526601  Z M 64.7087279269698 18.1002301947827  L 61.3366377026954 10.5263915461392  L 62.6005030880173 9.96368242222536  L 65.9725933122919 17.5375210708688  L 64.7087279269698 18.1002301947827  Z M 0.000206164655310204 106.954520297703  L 0.024351096034593 105.571258105406  L 8.31368695007495 105.71594900095  L 8.28954201869578 107.099211193247  L 0.000206164655310204 106.954520297703  Z M 209.224731089383 135.291105682308  L 201.255296264601 133.005907019197  L 201.636633077131 131.676027511211  L 209.606067901913 133.961226174323  L 209.224731089383 135.291105682308  Z M 170.381565598566 32.3062903715239  L 169.337445345507 31.3986504828548  L 174.776567381516 25.1416563296104  L 175.820687634575 26.0492962182796  L 170.381565598566 32.3062903715239  Z M 167.125751921103 19.3589805311061  L 162.370459948225 26.150241283648  L 161.237185292397 25.3567138267758  L 165.992477265275 18.5654530742337  L 167.125751921103 19.3589805311061  Z M 12.8719193855814 77.2635434966999  L 5.03300445149148 74.564388626664  L 5.48341917091147 73.2562892990591  L 13.3223341050013 75.9554441690949  L 12.8719193855814 77.2635434966999  Z M 209.600112509908 79.7865460002943  L 209.911326197851 81.1345605813681  L 201.833215149283 82.9995394668624  L 201.52200146134 81.6515248857886  L 209.600112509908 79.7865460002943  Z M 204.69829717523 111.741580083902  L 212.968700246197 112.319903004142  L 212.872194055039 113.700005835608  L 204.601790984072 113.121682915367  L 204.69829717523 111.741580083902  Z M 135.087789585452 13.0142141878428  L 133.772028666962 12.5866975498919  L 136.33396451318 4.70186977268617  L 137.649725431671 5.1293864106371  L 135.087789585452 13.0142141878428  Z M 143.331172489387 15.8775197856299  L 146.703262713661 8.30368113698643  L 147.967128098983 8.86639026090023  L 144.595037874708 16.4402289095437  L 143.331172489387 15.8775197856299  Z M 194.932220471073 64.052066842072  L 194.347539558097 62.7982145779063  L 201.861373585293 59.2944562289194  L 202.446054498268 60.5483084930852  L 194.932220471073 64.052066842072  Z M 25.821860385176 162.804967059898  L 26.5954886140744 163.951918076203  L 19.7222709152006 168.587961952205  L 18.948642686302 167.441010935901  L 25.821860385176 162.804967059898  Z M 83.3954402084897 3.03275073288262  L 85.1191525714015 11.1421798155171  L 83.7659118717071 11.4298200057561  L 82.0421995087953 3.32039092312158  L 83.3954402084897 3.03275073288262  Z M 95.0839659521566 9.45063743402739  L 93.7080718595472 9.59524973043767  L 92.8414683333003 1.35006794441074  L 94.2173624259098 1.20545564800045  L 95.0839659521566 9.45063743402739  Z " fill-rule="nonzero" fill="url(#LinearGradient168)" stroke="none" transform="matrix(1 0 0 1 81 101 )" />
  </g>
</svg>