<?xml version="1.0" encoding="utf-8"?>
<svg version="1.1" xmlns:xlink="http://www.w3.org/1999/xlink" width="19px" height="23px" xmlns="http://www.w3.org/2000/svg">
  <g transform="matrix(1 0 0 1 -224 -531 )">
    <path d="M 11.0939956315069 22  L 9.02139183025438 22  C 9.02139183025438 22  2.8421052631579 22  2.8421052631579 22  C 1.27245386890197 22  0 20.8412075877974  0 19.4117647058824  C 0 19.4117647058824  0 2.58823529411765  0 2.58823529411765  C 0 1.15879241220266  1.27245386890197 0  2.8421052631579 0  C 2.8421052631579 0  15.1578947368421 0  15.1578947368421 0  C 16.727546131098 0  18 1.15879241220266  18 2.58823529411765  C 18 2.58823529411765  18 10.0709019892179  18 10.0709019892179  " stroke-width="1" stroke="#fc434a" fill="none" transform="matrix(1 0 0 1 224 531 )" />
  </g>
</svg>