<?xml version="1.0" encoding="utf-8"?>
<svg version="1.1" xmlns:xlink="http://www.w3.org/1999/xlink" width="8px" height="5px" xmlns="http://www.w3.org/2000/svg">
  <g transform="matrix(1 0 0 1 -109 -722 )">
    <path d="M 3.98176714559559 4.6171386534295  C 4.2497000128437 5.04173107337255  4.75451605411352 5.12599647696304  5.10930885850675 4.80535046569357  C 5.13978676385776 4.77780560428711  5.16858795760442 4.74769985234952  5.1954946781865 4.71526182722061  C 5.1954946781865 4.71526182722061  7.76146483208609 1.64370632929906  7.76146483208609 1.64370632929906  C 8.07706780219378 1.27011920560333  8.07985107532461 0.661082925849286  7.76768172248584 0.283386068948334  C 7.76685355705993 0.282384064863306  7.76602355074959 0.281384240326304  7.76519171338161 0.280386603177432  C 7.44999234242787 -0.0948531594694636  6.94028878575435 -0.0932533868975784  6.62673899888532 0.283959700502458  C 6.62649337609609 0.284255193902284  6.62624791512126 0.284550879384579  6.62600261235767 0.284846753029296  C 6.62600261235767 0.284846753029296  4.06003245845808 3.35640225095084  4.06003245845808 3.35640225095084  C 4.03495948962918 3.38628984209333  4.01151461445259 3.41807176838529  3.9898426223516 3.45155213491793  C 3.96595948922123 3.4134127105958  3.9398030436899 3.37738995616995  3.91157789609221 3.3437657237873  C 3.91157789609221 3.3437657237873  1.34498537912936 0.272210225865752  1.34498537912936 0.272210225865752  C 1.01679367656309 -0.0855041803266406  0.508427872916092 -0.0570920469677163  0.209523271604251 0.335670347664857  C -0.0698410948780472 0.70275484409874  -0.0698410948780472 1.26398532510573  0.209523297664034 1.63106668549929  C 0.209523297664034 1.63106668549929  2.77611581462689 4.70262218342084  2.77611581462689 4.70262218342084  C 3.08951322411181 5.08001751352769  3.59921383274975 5.08191364191049  3.9145651969072 4.70685693895996  C 3.9382947540513 4.67863473204335  3.96053129496257 4.64866967071492  3.9811449422965 4.61713600121536  Z " fill-rule="nonzero" fill="#ffffff" stroke="none" transform="matrix(1 0 0 1 109 722 )" />
  </g>
</svg>