<?xml version="1.0" encoding="utf-8"?>
<svg version="1.1" xmlns:xlink="http://www.w3.org/1999/xlink" width="17px" height="24px" xmlns="http://www.w3.org/2000/svg">
  <defs>
    <mask fill="white" id="clip175">
      <path d="M 16.3490853658536 21.0219298245614  C 16.3490853658536 22.4089912280702  15.0285823170732 23.5438596491229  13.4565548780488 23.5438596491229  C 13.4565548780488 23.5438596491229  2.89253048780483 23.5438596491229  2.89253048780483 23.5438596491229  C 1.32050304878044 23.5438596491229  0 22.4089912280702  0 21.0219298245614  C 0 21.0219298245614  0 18.5  0 18.5  L 16.3490853658536 18.5  C 16.3490853658536 18.5  16.3490853658536 21.0219298245614  16.3490853658536 21.0219298245614  Z M 0 16.8925438596491  C 0 16.8925438596491  0 3.02192982456143  0 3.02192982456143  C 0 1.6348684210526  1.32050304878044 0.5  2.89253048780483 0.5  C 2.89253048780483 0.5  13.4565548780488 0.5  13.4565548780488 0.5  C 15.0285823170732 0.5  16.3490853658536 1.6348684210526  16.3490853658536 3.02192982456143  C 16.3490853658536 3.02192982456143  16.3490853658536 16.8925438596491  16.3490853658536 16.8925438596491  L 0 16.8925438596491  Z " fill-rule="evenodd" />
    </mask>
  </defs>
  <g transform="matrix(1 0 0 1 -38 -530 )">
    <path d="M 16.3490853658536 21.0219298245614  C 16.3490853658536 22.4089912280702  15.0285823170732 23.5438596491229  13.4565548780488 23.5438596491229  C 13.4565548780488 23.5438596491229  2.89253048780483 23.5438596491229  2.89253048780483 23.5438596491229  C 1.32050304878044 23.5438596491229  0 22.4089912280702  0 21.0219298245614  C 0 21.0219298245614  0 18.5  0 18.5  L 16.3490853658536 18.5  C 16.3490853658536 18.5  16.3490853658536 21.0219298245614  16.3490853658536 21.0219298245614  Z M 0 16.8925438596491  C 0 16.8925438596491  0 3.02192982456143  0 3.02192982456143  C 0 1.6348684210526  1.32050304878044 0.5  2.89253048780483 0.5  C 2.89253048780483 0.5  13.4565548780488 0.5  13.4565548780488 0.5  C 15.0285823170732 0.5  16.3490853658536 1.6348684210526  16.3490853658536 3.02192982456143  C 16.3490853658536 3.02192982456143  16.3490853658536 16.8925438596491  16.3490853658536 16.8925438596491  L 0 16.8925438596491  Z " fill-rule="nonzero" fill="#ffffff" stroke="none" fill-opacity="0" transform="matrix(1 0 0 1 38 530 )" />
    <path d="M 16.3490853658536 21.0219298245614  C 16.3490853658536 22.4089912280702  15.0285823170732 23.5438596491229  13.4565548780488 23.5438596491229  C 13.4565548780488 23.5438596491229  2.89253048780483 23.5438596491229  2.89253048780483 23.5438596491229  C 1.32050304878044 23.5438596491229  0 22.4089912280702  0 21.0219298245614  C 0 21.0219298245614  0 18.5  0 18.5  L 16.3490853658536 18.5  C 16.3490853658536 18.5  16.3490853658536 21.0219298245614  16.3490853658536 21.0219298245614  Z " stroke-width="2" stroke="#fc434a" fill="none" transform="matrix(1 0 0 1 38 530 )" mask="url(#clip175)" />
    <path d="M 0 16.8925438596491  C 0 16.8925438596491  0 3.02192982456143  0 3.02192982456143  C 0 1.6348684210526  1.32050304878044 0.5  2.89253048780483 0.5  C 2.89253048780483 0.5  13.4565548780488 0.5  13.4565548780488 0.5  C 15.0285823170732 0.5  16.3490853658536 1.6348684210526  16.3490853658536 3.02192982456143  C 16.3490853658536 3.02192982456143  16.3490853658536 16.8925438596491  16.3490853658536 16.8925438596491  L 0 16.8925438596491  Z " stroke-width="2" stroke="#fc434a" fill="none" transform="matrix(1 0 0 1 38 530 )" mask="url(#clip175)" />
  </g>
</svg>