<?xml version="1.0" encoding="utf-8"?>
<svg version="1.1" xmlns:xlink="http://www.w3.org/1999/xlink" width="22px" height="22px" xmlns="http://www.w3.org/2000/svg">
  <defs>
    <mask fill="white" id="clip174">
      <path d="M 22 11  C 22 17.05  17.05 22  11 22  C 4.95 22  0 17.05  0 11  C 0 4.95  4.95 0  11 0  C 17.05 0  22 4.95  22 11  Z " fill-rule="evenodd" />
    </mask>
  </defs>
  <g transform="matrix(1 0 0 1 -177 -316 )">
    <path d="M 22 11  C 22 17.05  17.05 22  11 22  C 4.95 22  0 17.05  0 11  C 0 4.95  4.95 0  11 0  C 17.05 0  22 4.95  22 11  Z " fill-rule="nonzero" fill="#ffffff" stroke="none" fill-opacity="0" transform="matrix(1 0 0 1 177 316 )" />
    <path d="M 22 11  C 22 17.05  17.05 22  11 22  C 4.95 22  0 17.05  0 11  C 0 4.95  4.95 0  11 0  C 17.05 0  22 4.95  22 11  Z " stroke-width="2" stroke="#fc434a" fill="none" transform="matrix(1 0 0 1 177 316 )" mask="url(#clip174)" />
  </g>
</svg>