<?xml version="1.0" encoding="utf-8"?>
<svg version="1.1" xmlns:xlink="http://www.w3.org/1999/xlink" width="25px" height="26px" xmlns="http://www.w3.org/2000/svg">
  <g transform="matrix(1 0 0 1 -378 -471 )">
    <path d="M 390.5 471.5  C 397.22 471.5  402.5 477  402.5 484  C 402.5 491  397.22 496.5  390.5 496.5  C 383.78 496.5  378.5 491  378.5 484  C 378.5 477  383.78 471.5  390.5 471.5  Z " fill-rule="nonzero" fill="#ffffff" stroke="none" />
    <path d="M 390.5 471.5  C 397.22 471.5  402.5 477  402.5 484  C 402.5 491  397.22 496.5  390.5 496.5  C 383.78 496.5  378.5 491  378.5 484  C 378.5 477  383.78 471.5  390.5 471.5  Z " stroke-width="1" stroke-dasharray="9,4" stroke="#797979" fill="none" stroke-dashoffset="0.5" />
  </g>
</svg>