<?xml version="1.0" encoding="utf-8"?>
<svg version="1.1" xmlns:xlink="http://www.w3.org/1999/xlink" width="12px" height="12px" viewBox="4 36  12 12" xmlns="http://www.w3.org/2000/svg">
  <path d="M 4.5 41  A 4.5 4.5 0 0 1 9 36.5 L 11 36.5  A 4.5 4.5 0 0 1 15.5 41 L 15.5 43  A 4.5 4.5 0 0 1 11 47.5 L 9 47.5  A 4.5 4.5 0 0 1 4.5 43 L 4.5 41  Z " fill-rule="nonzero" fill="#f0f0f0" stroke="none" />
  <path d="M 4.5 41  A 4.5 4.5 0 0 1 9 36.5 L 11 36.5  A 4.5 4.5 0 0 1 15.5 41 L 15.5 43  A 4.5 4.5 0 0 1 11 47.5 L 9 47.5  A 4.5 4.5 0 0 1 4.5 43 L 4.5 41  Z " stroke-width="1" stroke="#797979" fill="none" />
</svg>