<?xml version="1.0" encoding="utf-8"?>
<svg version="1.1" xmlns:xlink="http://www.w3.org/1999/xlink" width="12px" height="12px" viewBox="17 244  12 12" xmlns="http://www.w3.org/2000/svg">
  <path d="M 17.5 249  A 4.5 4.5 0 0 1 22 244.5 L 24 244.5  A 4.5 4.5 0 0 1 28.5 249 L 28.5 251  A 4.5 4.5 0 0 1 24 255.5 L 22 255.5  A 4.5 4.5 0 0 1 17.5 251 L 17.5 249  Z " fill-rule="nonzero" fill="#f0f0f0" stroke="none" />
  <path d="M 17.5 249  A 4.5 4.5 0 0 1 22 244.5 L 24 244.5  A 4.5 4.5 0 0 1 28.5 249 L 28.5 251  A 4.5 4.5 0 0 1 24 255.5 L 22 255.5  A 4.5 4.5 0 0 1 17.5 251 L 17.5 249  Z " stroke-width="1" stroke="#797979" fill="none" />
</svg>