<?xml version="1.0" encoding="utf-8"?>
<svg version="1.1" xmlns:xlink="http://www.w3.org/1999/xlink" width="22px" height="22px" preserveAspectRatio="xMinYMid meet" viewBox="10 95  22 20" xmlns="http://www.w3.org/2000/svg">
  <g transform="matrix(0.0174524064372835 -0.999847695156391 0.999847695156391 0.0174524064372835 -84.350508526604 124.164298922369 )">
    <path d="M 16.6974256610453 109.159372515896  A 15.2397059063707 15.2397059063707 0 0 0 19.267450552573 107.747823878807 A 5.67022816787241 5.67022816787241 0 0 0 21.5 105.332830094822 A 5.67022816787241 5.67022816787241 0 0 0 23.7325494474269 107.747823878807 A 15.2397059063707 15.2397059063707 0 0 0 26.3025743389547 109.159372515896 L 26.6974256610453 108.240627484104  A 14.2397059063707 14.2397059063707 0 0 1 24.2669890504851 106.901833291708 A 4.67022816787241 4.67022816787241 0 0 1 21.9933034021875 103.618441717831 A 0.5 0.5 0 0 0 21.5 103.2 A 0.5 0.5 0 0 0 21.0066965978125 103.618441717831 A 4.67022816787241 4.67022816787241 0 0 1 18.7330109495149 106.901833291708 A 14.2397059063707 14.2397059063707 0 0 1 16.3025743389547 108.240627484104 L 16.6974256610453 109.159372515896  Z " fill-rule="nonzero" fill="#70b603" stroke="none" transform="matrix(0.999954651610978 -0.00952337763438161 0.00952337763438161 0.999954651610978 -1.65609271801843 0.212643238829003 )" />
    <path d="M 21.5 103  L 21.5 245  " stroke-width="1" stroke="#70b603" fill="none" transform="matrix(0.999954651610978 -0.00952337763438161 0.00952337763438161 0.999954651610978 -1.65609271801843 0.212643238829003 )" />
  </g>
</svg>