<?xml version="1.0" encoding="utf-8"?>
<svg version="1.1" xmlns:xlink="http://www.w3.org/1999/xlink" width="24px" height="22px" preserveAspectRatio="xMinYMid meet" viewBox="12 29  24 20" xmlns="http://www.w3.org/2000/svg">
  <g transform="matrix(-0.0174524064372835 -0.999847695156391 0.999847695156391 -0.0174524064372834 -14.5752023566044 63.6769885348074 )">
    <path d="M 18.6974256610453 44.1593725158962  A 15.2397059063707 15.2397059063707 0 0 0 21.2674505525733 42.7478238788068 A 5.67022816787241 5.67022816787241 0 0 0 23.5 40.332830094822 A 5.67022816787241 5.67022816787241 0 0 0 25.7325494474268 42.7478238788069 A 15.2397059063707 15.2397059063707 0 0 0 28.3025743389547 44.1593725158962 L 28.6974256610453 43.2406274841038  A 14.2397059063707 14.2397059063707 0 0 1 26.266989050485 41.9018332917076 A 4.67022816787241 4.67022816787241 0 0 1 23.9933034021875 38.6184417178315 A 0.5 0.5 0 0 0 23.5 38.2 A 0.5 0.5 0 0 0 23.0066965978125 38.6184417178315 A 4.67022816787241 4.67022816787241 0 0 1 20.733010949515 41.9018332917076 A 14.2397059063707 14.2397059063707 0 0 1 18.3025743389547 43.2406274841038 L 18.6974256610453 44.1593725158962  Z " fill-rule="nonzero" fill="#70b603" stroke="none" transform="matrix(0.999896574934909 0.0143819134136344 -0.0143819134136344 0.999896574934909 1.10983782187948 -0.330011235208431 )" />
    <path d="M 23.5 38  L 23.5 116  " stroke-width="1" stroke="#70b603" fill="none" transform="matrix(0.999896574934909 0.0143819134136344 -0.0143819134136344 0.999896574934909 1.10983782187948 -0.330011235208431 )" />
  </g>
</svg>