<?xml version="1.0" encoding="utf-8"?>
<svg version="1.1" xmlns:xlink="http://www.w3.org/1999/xlink" width="12px" height="12px" viewBox="17 447  12 12" xmlns="http://www.w3.org/2000/svg">
  <path d="M 17.5 452  A 4.5 4.5 0 0 1 22 447.5 L 24 447.5  A 4.5 4.5 0 0 1 28.5 452 L 28.5 454  A 4.5 4.5 0 0 1 24 458.5 L 22 458.5  A 4.5 4.5 0 0 1 17.5 454 L 17.5 452  Z " fill-rule="nonzero" fill="#f0f0f0" stroke="none" />
  <path d="M 17.5 452  A 4.5 4.5 0 0 1 22 447.5 L 24 447.5  A 4.5 4.5 0 0 1 28.5 452 L 28.5 454  A 4.5 4.5 0 0 1 24 458.5 L 22 458.5  A 4.5 4.5 0 0 1 17.5 454 L 17.5 452  Z " stroke-width="1" stroke="#797979" fill="none" />
</svg>