<?xml version="1.0" encoding="utf-8"?>
<svg version="1.1" xmlns:xlink="http://www.w3.org/1999/xlink" width="12px" height="12px" viewBox="18 24  12 12" xmlns="http://www.w3.org/2000/svg">
  <path d="M 18.5 29  A 4.5 4.5 0 0 1 23 24.5 L 25 24.5  A 4.5 4.5 0 0 1 29.5 29 L 29.5 31  A 4.5 4.5 0 0 1 25 35.5 L 23 35.5  A 4.5 4.5 0 0 1 18.5 31 L 18.5 29  Z " fill-rule="nonzero" fill="#ffffff" stroke="none" />
  <path d="M 18.5 29  A 4.5 4.5 0 0 1 23 24.5 L 25 24.5  A 4.5 4.5 0 0 1 29.5 29 L 29.5 31  A 4.5 4.5 0 0 1 25 35.5 L 23 35.5  A 4.5 4.5 0 0 1 18.5 31 L 18.5 29  Z " stroke-width="1" stroke="#70b603" fill="none" />
</svg>