<?xml version="1.0" encoding="utf-8"?>
<svg version="1.1" xmlns:xlink="http://www.w3.org/1999/xlink" width="12px" height="12px" viewBox="16 184  12 12" xmlns="http://www.w3.org/2000/svg">
  <path d="M 16.5 189  A 4.5 4.5 0 0 1 21 184.5 L 23 184.5  A 4.5 4.5 0 0 1 27.5 189 L 27.5 191  A 4.5 4.5 0 0 1 23 195.5 L 21 195.5  A 4.5 4.5 0 0 1 16.5 191 L 16.5 189  Z " fill-rule="nonzero" fill="#ffffff" stroke="none" />
  <path d="M 16.5 189  A 4.5 4.5 0 0 1 21 184.5 L 23 184.5  A 4.5 4.5 0 0 1 27.5 189 L 27.5 191  A 4.5 4.5 0 0 1 23 195.5 L 21 195.5  A 4.5 4.5 0 0 1 16.5 191 L 16.5 189  Z " stroke-width="1" stroke="#797979" fill="none" />
  <path d="M 18.5714285714286 190  L 21.1428571428571 192.571428571429  L 25.4285714285714 186.571428571429  " stroke-width="2.57142857142857" stroke="#797979" fill="none" />
</svg>