<?xml version="1.0" encoding="utf-8"?>
<svg version="1.1" xmlns:xlink="http://www.w3.org/1999/xlink" width="12px" height="12px" viewBox="15 48  12 12" xmlns="http://www.w3.org/2000/svg">
  <path d="M 15.5 53  A 4.5 4.5 0 0 1 20 48.5 L 22 48.5  A 4.5 4.5 0 0 1 26.5 53 L 26.5 55  A 4.5 4.5 0 0 1 22 59.5 L 20 59.5  A 4.5 4.5 0 0 1 15.5 55 L 15.5 53  Z " fill-rule="nonzero" fill="#ffffff" stroke="none" />
  <path d="M 15.5 53  A 4.5 4.5 0 0 1 20 48.5 L 22 48.5  A 4.5 4.5 0 0 1 26.5 53 L 26.5 55  A 4.5 4.5 0 0 1 22 59.5 L 20 59.5  A 4.5 4.5 0 0 1 15.5 55 L 15.5 53  Z " stroke-width="1" stroke="#797979" fill="none" />
  <path d="M 17.5714285714286 54  L 20.1428571428571 56.5714285714286  L 24.4285714285714 50.5714285714286  " stroke-width="2.57142857142857" stroke="#797979" fill="none" />
</svg>