<?xml version="1.0" encoding="utf-8"?>
<svg version="1.1" xmlns:xlink="http://www.w3.org/1999/xlink" width="12px" height="12px" viewBox="14 392  12 12" xmlns="http://www.w3.org/2000/svg">
  <path d="M 14.5 397  A 4.5 4.5 0 0 1 19 392.5 L 21 392.5  A 4.5 4.5 0 0 1 25.5 397 L 25.5 399  A 4.5 4.5 0 0 1 21 403.5 L 19 403.5  A 4.5 4.5 0 0 1 14.5 399 L 14.5 397  Z " fill-rule="nonzero" fill="#ffffff" stroke="none" />
  <path d="M 14.5 397  A 4.5 4.5 0 0 1 19 392.5 L 21 392.5  A 4.5 4.5 0 0 1 25.5 397 L 25.5 399  A 4.5 4.5 0 0 1 21 403.5 L 19 403.5  A 4.5 4.5 0 0 1 14.5 399 L 14.5 397  Z " stroke-width="1" stroke="#797979" fill="none" />
  <path d="M 16.5714285714286 398  L 19.1428571428571 400.571428571429  L 23.4285714285714 394.571428571429  " stroke-width="2.57142857142857" stroke="#797979" fill="none" />
</svg>