<?xml version="1.0" encoding="utf-8"?>
<svg version="1.1" xmlns:xlink="http://www.w3.org/1999/xlink" width="12px" height="12px" viewBox="16 211  12 12" xmlns="http://www.w3.org/2000/svg">
  <path d="M 16.5 216  A 4.5 4.5 0 0 1 21 211.5 L 23 211.5  A 4.5 4.5 0 0 1 27.5 216 L 27.5 218  A 4.5 4.5 0 0 1 23 222.5 L 21 222.5  A 4.5 4.5 0 0 1 16.5 218 L 16.5 216  Z " fill-rule="nonzero" fill="#ffffff" stroke="none" />
  <path d="M 16.5 216  A 4.5 4.5 0 0 1 21 211.5 L 23 211.5  A 4.5 4.5 0 0 1 27.5 216 L 27.5 218  A 4.5 4.5 0 0 1 23 222.5 L 21 222.5  A 4.5 4.5 0 0 1 16.5 218 L 16.5 216  Z " stroke-width="1" stroke="#555555" fill="none" />
  <path d="M 18.5714285714286 217  L 21.1428571428571 219.571428571429  L 25.4285714285714 213.571428571429  " stroke-width="2.57142857142857" stroke="#555555" fill="none" />
</svg>