<?xml version="1.0" encoding="utf-8"?>
<svg version="1.1" xmlns:xlink="http://www.w3.org/1999/xlink" width="12px" height="12px" viewBox="17 546  12 12" xmlns="http://www.w3.org/2000/svg">
  <path d="M 17.5 551  A 4.5 4.5 0 0 1 22 546.5 L 24 546.5  A 4.5 4.5 0 0 1 28.5 551 L 28.5 553  A 4.5 4.5 0 0 1 24 557.5 L 22 557.5  A 4.5 4.5 0 0 1 17.5 553 L 17.5 551  Z " fill-rule="nonzero" fill="#ffffff" stroke="none" />
  <path d="M 17.5 551  A 4.5 4.5 0 0 1 22 546.5 L 24 546.5  A 4.5 4.5 0 0 1 28.5 551 L 28.5 553  A 4.5 4.5 0 0 1 24 557.5 L 22 557.5  A 4.5 4.5 0 0 1 17.5 553 L 17.5 551  Z " stroke-width="1" stroke="#797979" fill="none" />
</svg>