<?xml version="1.0" encoding="utf-8"?>
<svg version="1.1" xmlns:xlink="http://www.w3.org/1999/xlink" width="22px" height="22px" preserveAspectRatio="xMinYMid meet" viewBox="10 397  22 20" xmlns="http://www.w3.org/2000/svg">
  <g transform="matrix(0.0174524064372835 -0.999847695156391 0.999847695156391 0.0174524064372835 -386.304512463834 420.89367217831 )">
    <path d="M 16.6974256610453 411.159372515896  A 15.2397059063707 15.2397059063707 0 0 0 19.267450552573 409.747823878807 A 5.67022816787241 5.67022816787241 0 0 0 21.5 407.332830094822 A 5.67022816787241 5.67022816787241 0 0 0 23.7325494474269 409.747823878807 A 15.2397059063707 15.2397059063707 0 0 0 26.3025743389547 411.159372515896 L 26.6974256610453 410.240627484104  A 14.2397059063707 14.2397059063707 0 0 1 24.2669890504851 408.901833291708 A 4.67022816787241 4.67022816787241 0 0 1 21.9933034021875 405.618441717831 A 0.5 0.5 0 0 0 21.5 405.2 A 0.5 0.5 0 0 0 21.0066965978125 405.618441717831 A 4.67022816787241 4.67022816787241 0 0 1 18.7330109495149 408.901833291708 A 14.2397059063707 14.2397059063707 0 0 1 16.3025743389547 410.240627484104 L 16.6974256610453 411.159372515896  Z " fill-rule="nonzero" fill="#333333" stroke="none" transform="matrix(0.999954651610978 -0.00952337763438161 0.00952337763438161 0.999954651610978 -4.53215276360168 0.226338452313541 )" />
    <path d="M 21.5 405  L 21.5 547  " stroke-width="1" stroke="#333333" fill="none" transform="matrix(0.999954651610978 -0.00952337763438161 0.00952337763438161 0.999954651610978 -4.53215276360168 0.226338452313541 )" />
  </g>
</svg>