<?xml version="1.0" encoding="utf-8"?>
<svg version="1.1" xmlns:xlink="http://www.w3.org/1999/xlink" width="22px" height="20px" preserveAspectRatio="xMinYMid meet" viewBox="14 35  22 18" xmlns="http://www.w3.org/2000/svg">
  <g transform="matrix(0 -1 1 0 -19 69 )">
    <path d="M 19.6974256610453 49.1593725158962  A 15.2397059063707 15.2397059063707 0 0 0 22.2674505525733 47.7478238788068 A 5.67022816787241 5.67022816787241 0 0 0 24.5 45.332830094822 A 5.67022816787241 5.67022816787241 0 0 0 26.7325494474268 47.7478238788069 A 15.2397059063707 15.2397059063707 0 0 0 29.3025743389547 49.1593725158962 L 29.6974256610453 48.2406274841038  A 14.2397059063707 14.2397059063707 0 0 1 27.266989050485 46.9018332917076 A 4.67022816787241 4.67022816787241 0 0 1 24.9933034021875 43.6184417178315 A 0.5 0.5 0 0 0 24.5 43.2 A 0.5 0.5 0 0 0 24.0066965978125 43.6184417178315 A 4.67022816787241 4.67022816787241 0 0 1 21.733010949515 46.9018332917076 A 14.2397059063707 14.2397059063707 0 0 1 19.3025743389547 48.2406274841038 L 19.6974256610453 49.1593725158962  Z " fill-rule="nonzero" fill="#70b603" stroke="none" />
    <path d="M 24.5 43  L 24.5 121  " stroke-width="1" stroke="#70b603" fill="none" />
  </g>
</svg>