<?xml version="1.0" encoding="utf-8"?>
<svg version="1.1" xmlns:xlink="http://www.w3.org/1999/xlink" width="19px" height="88px" xmlns="http://www.w3.org/2000/svg">
  <g transform="matrix(1 0 0 1 -14 -128 )">
    <path d="M 18.6974256610453 143.159372515896  A 15.2397059063707 15.2397059063707 0 0 0 21.2674505525733 141.747823878807 A 5.67022816787241 5.67022816787241 0 0 0 23.5 139.332830094822 A 5.67022816787241 5.67022816787241 0 0 0 25.7325494474267 141.747823878807 A 15.2397059063707 15.2397059063707 0 0 0 28.3025743389547 143.159372515896 L 28.6974256610453 142.240627484104  A 14.2397059063707 14.2397059063707 0 0 1 26.2669890504848 140.901833291708 A 4.67022816787241 4.67022816787241 0 0 1 23.9933034021875 137.618441717831 A 0.5 0.5 0 0 0 23.5 137.2 A 0.5 0.5 0 0 0 23.0066965978125 137.618441717831 A 4.67022816787241 4.67022816787241 0 0 1 20.7330109495152 140.901833291708 A 14.2397059063707 14.2397059063707 0 0 1 18.3025743389547 142.240627484104 L 18.6974256610453 143.159372515896  Z " fill-rule="nonzero" fill="#555555" stroke="none" />
    <path d="M 23.5 137  L 23.5 215  " stroke-width="1" stroke="#555555" fill="none" />
  </g>
</svg>