<?xml version="1.0" encoding="utf-8"?>
<svg version="1.1" xmlns:xlink="http://www.w3.org/1999/xlink" width="12px" height="12px" viewBox="16 283  12 12" xmlns="http://www.w3.org/2000/svg">
  <path d="M 16.5 288  A 4.5 4.5 0 0 1 21 283.5 L 23 283.5  A 4.5 4.5 0 0 1 27.5 288 L 27.5 290  A 4.5 4.5 0 0 1 23 294.5 L 21 294.5  A 4.5 4.5 0 0 1 16.5 290 L 16.5 288  Z " fill-rule="nonzero" fill="#ffffff" stroke="none" />
  <path d="M 16.5 288  A 4.5 4.5 0 0 1 21 283.5 L 23 283.5  A 4.5 4.5 0 0 1 27.5 288 L 27.5 290  A 4.5 4.5 0 0 1 23 294.5 L 21 294.5  A 4.5 4.5 0 0 1 16.5 290 L 16.5 288  Z " stroke-width="1" stroke="#797979" fill="none" />
  <path d="M 18.5714285714286 289  L 21.1428571428571 291.571428571429  L 25.4285714285714 285.571428571429  " stroke-width="2.57142857142857" stroke="#797979" fill="none" />
</svg>