<?xml version="1.0" encoding="utf-8"?>
<svg version="1.1" xmlns:xlink="http://www.w3.org/1999/xlink" width="180px" height="180px" xmlns="http://www.w3.org/2000/svg">
  <g transform="matrix(1 0 0 1 -934 -306 )">
    <path d="M 1024.50014936732 306.501368086597  C 1073.69950294474 306.770580860462  1113.5 346.737338342628  1113.5 396  C 1113.5 445.429485109856  1073.42948510986 485.5  1024 485.5  C 1017.38898163951 485.5  1010.79883127376 484.767512091321  1004.35011693292 483.316276247179  L 1024.48717954062 396.112499312019  A 0.5 0.5 0 0 0 1024.5 396 L 1024.50014900788 306.50136808463  Z " fill-rule="nonzero" fill="#1890ff" stroke="none" />
    <path d="M 1024.50014936732 306.501368086597  C 1073.69950294474 306.770580860462  1113.5 346.737338342628  1113.5 396  C 1113.5 445.429485109856  1073.42948510986 485.5  1024 485.5  C 1017.38898163951 485.5  1010.79883127376 484.767512091321  1004.35011693292 483.316276247179  L 1024.48717954062 396.112499312019  A 0.5 0.5 0 0 0 1024.5 396 L 1024.50014900788 306.50136808463  Z " stroke-width="1" stroke="#ffffff" fill="none" />
  </g>
</svg>