<?xml version="1.0" encoding="utf-8"?>
<svg version="1.1" xmlns:xlink="http://www.w3.org/1999/xlink" width="91px" height="30px" xmlns="http://www.w3.org/2000/svg">
  <g transform="matrix(1 0 0 1 -327 -93 )">
    <path d="M 328 108  A 14 14 0 0 1 342 94 L 403 94  A 14 14 0 0 1 417 108 A 14 14 0 0 1 403 122 L 342 122  A 14 14 0 0 1 328 108 Z " fill-rule="nonzero" fill="#f2f2f2" stroke="none" />
    <path d="M 327.5 108  A 14.5 14.5 0 0 1 342 93.5 L 403 93.5  A 14.5 14.5 0 0 1 417.5 108 A 14.5 14.5 0 0 1 403 122.5 L 342 122.5  A 14.5 14.5 0 0 1 327.5 108 Z " stroke-width="1" stroke="#e4e4e4" fill="none" stroke-opacity="0.498039215686275" />
  </g>
</svg>