<?xml version="1.0" encoding="utf-8"?>
<svg version="1.1" xmlns:xlink="http://www.w3.org/1999/xlink" width="16px" height="16px" xmlns="http://www.w3.org/2000/svg">
  <g transform="matrix(1 0 0 1 -389 -101 )">
    <path d="M 397 102  C 400.92 102  404 105.08  404 109  C 404 112.92  400.92 116  397 116  C 393.08 116  390 112.92  390 109  C 390 105.08  393.08 102  397 102  Z " fill-rule="nonzero" fill="#f2f2f2" stroke="none" />
    <path d="M 397 102  C 400.92 102  404 105.08  404 109  C 404 112.92  400.92 116  397 116  C 393.08 116  390 112.92  390 109  C 390 105.08  393.08 102  397 102  Z " stroke-width="2" stroke="#000000" fill="none" />
  </g>
</svg>