<?xml version="1.0" encoding="utf-8"?>
<svg version="1.1" xmlns:xlink="http://www.w3.org/1999/xlink" width="23px" height="21px" xmlns="http://www.w3.org/2000/svg">
  <g transform="matrix(1 0 0 1 -375 -145 )">
    <path d="M 23 10.5  C 23 4.71001209375036  17.8414153258925 0  11.5 0  C 5.15937950892842 0  0 4.71001209375036  0 10.5  C 0 16.2899879062496  5.15858467410753 21  11.5 21  C 17.8406204910716 21  23 16.2899879062496  23 10.5  Z M 12.6639756573662 10.5029834765633  L 16.1911839877231 13.7340007968751  C 16.5115422343751 14.0279935312496  16.5107032477679 14.5020024140631  16.1895501919644 14.7945034218743  C 16.0293931573661 14.9400080624998  15.8199128537948 15.0135062343747  15.6096377410716 15.0135062343747  C 15.3985236417411 15.0135062343747  15.1882485290179 14.940008039062  15.0280473169642 14.7930116718752  L 11.4958934218748 11.5582448437499  L 7.95225872767865 14.7592662187497  C 7.7921016930803 14.903279109375  7.58341622433045 14.9760112734367  7.37477490736594 14.9760112734367  C 7.16286597321405 14.9760112734367  6.95175189955355 14.9017470703126  6.79075585267847 14.7532589531257  C 6.47203140178567 14.4585001875001  6.47450418415165 13.9844913046877  6.7973352388391 13.6927563281246  L 10.3368633292406 10.4962504921875  L 6.81044983370557 7.26599917968706  C 6.49009158705355 6.9727321406247  6.49093057366083 6.49799756250009  6.81208362946427 6.20549655468785  C 7.13328086272304 5.9122295156255  7.65238927120568 5.91376157812479  7.97358650446392 6.20698828125014  L 11.5049014129466 9.44098907812527  L 15.0485361071428 6.2400080156247  C 15.3705281495535 5.94827303906259  15.8913145312501 5.95125649218717  16.2100389821429 6.24601528124963  C 16.5295582421877 6.54077404687428  16.5262906506692 7.01550862499985  16.2034595959818 7.30651790624979  L 12.6639756573662 10.5029834765633  Z " fill-rule="nonzero" fill="#999999" stroke="none" transform="matrix(1 0 0 1 375 145 )" />
  </g>
</svg>