<?xml version="1.0" encoding="utf-8"?>
<svg version="1.1" xmlns:xlink="http://www.w3.org/1999/xlink" width="200px" height="50px" xmlns="http://www.w3.org/2000/svg">
  <g transform="matrix(1 0 0 1 -521 -446 )">
    <path d="M 521.5 481.026036445757  C 521.5 481.026036445757  521.5 451  521.5 451  C 521.5 448.514718625761  523.514718625761 446.5  526 446.5  C 526 446.5  716 446.5  716 446.5  C 718.485281374239 446.5  720.5 448.514718625761  720.5 451  C 720.5 451  720.5 481.026036445757  720.5 481.026036445757  C 720.5 483.511317819996  718.485281374239 485.526036445757  716 485.526036445757  C 716 485.526036445757  631.104242209376 485.526036445757  631.104242209376 485.526036445757  C 631.104242209376 485.526036445757  621.630336099981 494.948945951432  621.630336099981 494.948945951432  C 621.630336099981 494.948945951432  611.507254411356 485.526036445757  611.507254411356 485.526036445757  C 611.507254411356 485.526036445757  526 485.526036445757  526 485.526036445757  C 523.514718625761 485.526036445757  521.5 483.511317819996  521.5 481.026036445757  Z " fill-rule="nonzero" fill="#ffffff" stroke="none" fill-opacity="0.8" />
    <path d="M 521 481.026036445757  C 521 481.026036445757  521 451  521 451  C 521 448.238576250846  523.238576250846 446  526 446  C 526 446  716 446  716 446  C 718.761423749154 446  721 448.238576250846  721 451  C 721 451  721 481.026036445757  721 481.026036445757  C 721 483.787460194911  718.761423749154 486.026036445757  716 486.026036445757  C 716 486.026036445757  631.310559006211 486.026036445757  631.310559006211 486.026036445757  C 631.310559006211 486.026036445757  621.64182194617 495.642728156539  621.64182194617 495.642728156539  C 621.64182194617 495.642728156539  611.310559006211 486.026036445757  611.310559006211 486.026036445757  C 611.310559006211 486.026036445757  526 486.026036445757  526 486.026036445757  C 523.238576250846 486.026036445757  521 483.787460194911  521 481.026036445757  Z M 522 481.026036445757  C 522 483.23517544508  523.790861000677 485.026036445757  526 485.026036445757  C 526 485.026036445757  611.703949816501 485.026036445757  611.703949816501 485.026036445757  C 611.703949816501 485.026036445757  621.618850253792 494.255163746326  621.618850253792 494.255163746326  C 621.618850253792 494.255163746326  630.89792541254 485.026036445757  630.89792541254 485.026036445757  C 630.89792541254 485.026036445757  716 485.026036445757  716 485.026036445757  C 718.209138999323 485.026036445757  720 483.23517544508  720 481.026036445757  C 720 481.026036445757  720 451  720 451  C 720 448.790861000677  718.209138999323 447  716 447  C 716 447  526 447  526 447  C 523.790861000677 447  522 448.790861000677  522 451  C 522 451  522 481.026036445757  522 481.026036445757  Z " fill-rule="nonzero" fill="#e9e9e9" stroke="none" />
  </g>
</svg>