<?xml version="1.0" encoding="utf-8"?>
<svg version="1.1" xmlns:xlink="http://www.w3.org/1999/xlink" width="29px" height="35px" xmlns="http://www.w3.org/2000/svg">
  <g transform="matrix(1 0 0 1 -62 -151 )">
    <path d="M 28.9922892847644 9.81380542834813  C 28.9922892847644 9.81380542834813  28.9922892847644 32.5992963252543  28.9922892847644 32.5992963252543  C 28.9961446423822 33.8902044007596  27.874235575644 35  26.5672693432589 35  C 26.5672693432589 35  2.4327306567393 35  2.4327306567393 35  C 1.12190906673823 35  0 33.8940578577012  0 32.6031497821959  C 0 32.6031497821959  0 9.90628839495139  0 9.90628839495139  C 2.05876096782777 12.0295431698873  4.49149162456706 13.6903831118061  7.29433661260373 14.7038422875016  C 7.29433661260373 18.6690494806212  10.5675352299913 21.8982463978555  14.4961446423822 21.9907293644587  C 18.5172826375965 21.9907293644587  21.6979526721607 18.7615324472245  21.7904812549859 14.7963252541049  C 21.7904812549859 14.7038422875016  21.6979526721607 14.7038422875016  21.6979526721607 14.6113593208979  C 24.4121244349899 13.5979001452029  26.9373836745544 11.9370602032841  28.9922892847644 9.81380542834813  Z M 10.8142781175211 14.7847648832794  L 14.4537357085865 11.1971964704567  L 18.0931932996536 14.7847648832794  L 14.4498803509705 18.3723332961017  L 10.8142781175211 14.7847648832794  Z M 29 2.89685021780406  C 29 2.89685021780406  29 6.12604713503833  29 6.12604713503833  C 27.2188247806444 8.89282921925587  24.5085083754329 11.0122305372497  21.3278383408669 12.3069920696971  C 20.2984578569522 9.54020998547958  17.5881414517407 7.69440411035384  14.5 7.69440411035384  C 11.5082424887005 7.69440411035384  8.79407072587128 9.54020998547958  7.76469024195649 12.3069920696971  C 4.58402020739231 11.0160839941918  1.8737038021809 8.80034625265262  0 6.12604713503833  C 0 6.12604713503833  0 2.89685021780406  0 2.89685021780406  C 0 1.60594214229877  1.12190906673823 0.5  2.43273065674111 0.5  C 2.43273065674111 0.5  26.5672693432589 0.5  26.5672693432589 0.5  C 27.8780909332618 0.5  29 1.60594214229877  29 2.89685021780406  Z " fill-rule="nonzero" fill="#f75a53" stroke="none" transform="matrix(1 0 0 1 62 151 )" />
  </g>
</svg>