<?xml version="1.0" encoding="utf-8"?>
<svg version="1.1" xmlns:xlink="http://www.w3.org/1999/xlink" width="53px" height="47px" xmlns="http://www.w3.org/2000/svg">
  <g transform="matrix(1 0 0 1 -178 -132 )">
    <path d="M 204.5 132  C 219.34 132  231 142.34  231 155.5  C 231 168.66  219.34 179  204.5 179  C 189.66 179  178 168.66  178 155.5  C 178 142.34  189.66 132  204.5 132  Z " fill-rule="nonzero" fill="#ffffff" stroke="none" />
    <path d="M 204.5 132.5  C 219.06 132.5  230.5 142.62  230.5 155.5  C 230.5 168.38  219.06 178.5  204.5 178.5  C 189.94 178.5  178.5 168.38  178.5 155.5  C 178.5 142.62  189.94 132.5  204.5 132.5  Z " stroke-width="1" stroke="#aaaaaa" fill="none" />
  </g>
</svg>