<?xml version="1.0" encoding="utf-8"?>
<svg version="1.1" xmlns:xlink="http://www.w3.org/1999/xlink" width="36px" height="25px" xmlns="http://www.w3.org/2000/svg">
  <defs>
    <mask fill="white" id="clip117">
      <path d="M 31.5 12.5  C 31.5 14.7091389991999  33.2908610007999 16.5  35.5 16.4999957749949  L 35.5 21.5  C 35.5 23.1800000000001  34.1799999999998 24.5  32.5 24.5  L 3.5 24.5  C 1.82000000000016 24.5  0.5 23.1800000000001  0.5 21.5  L 0.5 16.5  C 2.70913899920015 16.5  4.5 14.7091389991999  4.5 12.5  C 4.5 10.2908610008001  2.70913899920015 8.5  0.5 8.50000422500511  L 0.5 3.5  C 0.5 1.81999999999994  1.82000000000016 0.5  3.5 0.5  L 32.5 0.5  C 34.1799999999998 0.5  35.5 1.81999999999994  35.5 3.5  L 35.5 8.5  C 33.2908610007999 8.5  31.5 10.2908610008001  31.5 12.5  Z " fill-rule="evenodd" />
    </mask>
  </defs>
  <g transform="matrix(1 0 0 1 -44 -391 )">
    <path d="M 31.5 12.5  C 31.5 14.7091389991999  33.2908610007999 16.5  35.5 16.4999957749949  L 35.5 21.5  C 35.5 23.1800000000001  34.1799999999998 24.5  32.5 24.5  L 3.5 24.5  C 1.82000000000016 24.5  0.5 23.1800000000001  0.5 21.5  L 0.5 16.5  C 2.70913899920015 16.5  4.5 14.7091389991999  4.5 12.5  C 4.5 10.2908610008001  2.70913899920015 8.5  0.5 8.50000422500511  L 0.5 3.5  C 0.5 1.81999999999994  1.82000000000016 0.5  3.5 0.5  L 32.5 0.5  C 34.1799999999998 0.5  35.5 1.81999999999994  35.5 3.5  L 35.5 8.5  C 33.2908610007999 8.5  31.5 10.2908610008001  31.5 12.5  Z " fill-rule="nonzero" fill="#ffffff" stroke="none" transform="matrix(1 0 0 1 44 391 )" />
    <path d="M 31.5 12.5  C 31.5 14.7091389991999  33.2908610007999 16.5  35.5 16.4999957749949  L 35.5 21.5  C 35.5 23.1800000000001  34.1799999999998 24.5  32.5 24.5  L 3.5 24.5  C 1.82000000000016 24.5  0.5 23.1800000000001  0.5 21.5  L 0.5 16.5  C 2.70913899920015 16.5  4.5 14.7091389991999  4.5 12.5  C 4.5 10.2908610008001  2.70913899920015 8.5  0.5 8.50000422500511  L 0.5 3.5  C 0.5 1.81999999999994  1.82000000000016 0.5  3.5 0.5  L 32.5 0.5  C 34.1799999999998 0.5  35.5 1.81999999999994  35.5 3.5  L 35.5 8.5  C 33.2908610007999 8.5  31.5 10.2908610008001  31.5 12.5  Z " stroke-width="2" stroke="#303030" fill="none" transform="matrix(1 0 0 1 44 391 )" mask="url(#clip117)" />
  </g>
</svg>