<?xml version="1.0" encoding="utf-8"?>
<svg version="1.1" xmlns:xlink="http://www.w3.org/1999/xlink" width="8px" height="11px" xmlns="http://www.w3.org/2000/svg">
  <g transform="matrix(1 0 0 1 -56 -519 )">
    <path d="M 7.9965318187464 6.02204039887497  C 7.9965318187464 6.02204039887497  7.9965318187464 5.18747123497827  7.9965318187464 5.18747123497827  C 7.9965318187464 5.08601380721043  7.94712148321165 4.9845563794426  7.86806494635605 4.88309895167477  C 7.79230243186944 4.78164152390693  7.69018773843096 4.7325492201483  7.56172086604061 4.7325492201483  C 7.56172086604061 4.7325492201483  6.08599884473614 4.7325492201483  6.08599884473614 4.7325492201483  C 5.9575319723458 4.7325492201483  5.83235912232443 4.7063666581437  5.70389224993409 4.68345691638967  C 5.55236722096086 4.65727435438507  5.526015042009 4.58199948862184  5.60177755649561 4.4543594988494  C 5.62812973544747 4.40526719509077  5.75330258546884 4.22526208130913  5.95753197234579 3.9241626182562  C 6.16176135922275 3.6197903349527  6.38904890268259 3.0895934543595  6.64598264746328 2.76231142930197  C 6.89962236987499 2.43502940424444  7.13020393570381 2.10447455893633  7.35749147916365 1.80010227563283  C 7.58807304499248 1.49572999232933  7.71324589501384 1.29608795704424  7.76595025291757 1.21754027103043  C 7.86806494635605 1.01462541549476  7.79230243186943 0.788800818205063  7.53536868708874 0.510611096906162  C 7.50901650813688 0.461518793147533  7.4069018146984 0.382971107133726  7.25537678572517 0.281513679365891  C 7.12690991333483 0.180056251598056  7.00173706331346 0.104781385834826  6.87327019092312 0.0524162618256203  C 6.66904080404616 0.00332395806699079  6.51751577507294 -0.022858603937612  6.44175326058632 0.0262336998210175  C 6.36599074609971 0.0753260035796471  6.26387605266123 0.176783431347482  6.13540918027088 0.353515724878548  C 6.08599884473614 0.42879059064178  5.98388415129766 0.631705446177448  5.7796547644207 0.909895167476349  C 5.60177755649561 1.21426745077985  5.39754816961865 1.51536691383278  5.17026062615881 1.84592175914089  C 4.93967906032998 2.17320378419842  4.73874369582201 2.47757606750192  4.56086648789692 2.72958322679622  C 4.38298927997182 3.00777294809512  4.28087458653334 3.15832267962158  4.25452240758148 3.21068780363079  C 4.20511207204673 3.31214523139862  4.10299737860825 3.36123753515725  3.97453050621791 3.33832779340322  C 3.84606363382756 3.31214523139862  3.77030111934095 3.26305292763999  3.7208907838062 3.16159549987216  C 3.69453860485434 3.11250319611353  3.59242391141586 2.98486320634109  3.39148854690788 2.73285604704679  C 3.21361133898279 2.50375862950652  2.98302977315397 2.2288417284582  2.78209440864599 1.92446944515469  C 2.55151284281717 1.59718742009716  2.35057747830919 1.34190744055229  2.14634809143223 1.06371771925339  C 1.94211870455528 0.785527997954487  1.81694585453391 0.608795704423422  1.73788931767832 0.507338276655586  C 1.50730775184949 0.0785988238302213  1.28002020838965 -0.0490411659422148  1.04943864256083 0.10150856558425  C 0.871561434635738 0.202965993352085  0.720036405662511 0.330605983124521  0.591569533272167 0.42879059064178  C 0.463102660881823 0.530248018409615  0.337929810860461 0.631705446177448  0.209462938470115 0.70698031194068  C -0.021118627358709 0.883712605471746  -0.070528962893457 1.11281002301202  0.107348245031635 1.39099974431092  C 0.515807018785551 1.87210432114549  0.894619591218618 2.35320889798006  1.20096367153406 2.78194835080542  C 1.48095557289763 3.13541293786755  1.83670998874781 3.66560981846075  2.09034971115952 3.99616466376886  C 2.32093127698835 4.30053694707236  2.34398943357123 4.50017898235745  2.39669379147496 4.55254410636666  C 2.44610412700971 4.65400153413449  2.39669379147496 4.70309383789312  2.24516876250173 4.70309383789312  C 2.24516876250173 4.70309383789312  1.81365183216493 4.70309383789312  1.81365183216493 4.70309383789312  C 1.68518495977459 4.70309383789312  1.6621268031917 4.70309383789312  1.43154523736288 4.72927639989773  C 1.20096367153405 4.72927639989773  1.00002830702608 4.72927639989773  0.795798920149121 4.70309383789312  C 0.591569533272163 4.70309383789312  0.440044504298935 4.75218614165175  0.311577631908591 4.85364356941959  C 0.209462938470111 4.95510099718742  0.160052602935363 5.08274098695986  0.209462938470111 5.23329071848632  C 0.235815117421977 5.33474814625416  0.235815117421977 5.48529787778062  0.235815117421977 5.68821273331629  C 0.235815117421977 5.68821273331629  0.235815117421977 6.06785988238303  0.235815117421977 6.06785988238303  C 0.235815117421977 6.19549987215546  0.262167296373843 6.2707747379187  0.337929810860457 6.2707747379187  C 0.413692325347071 6.2969572999233  0.489454839833685 6.2969572999233  0.591569533272163 6.2969572999233  C 0.591569533272163 6.2969572999233  2.85785692313261 6.2969572999233  2.85785692313261 6.2969572999233  C 3.13784882449618 6.2969572999233  3.28937385346941 6.34604960368193  3.28937385346941 6.47368959345437  C 3.28937385346941 6.47368959345437  3.28937385346941 6.98097673229353  3.28937385346941 6.98097673229353  C 3.28937385346941 7.13152646382  3.26302167451754 7.1838915878292  3.21361133898279 7.1838915878292  C 3.21361133898279 7.1838915878292  0.617921712224031 7.1838915878292  0.617921712224031 7.1838915878292  C 0.489454839833687 7.1577090258246  0.387340146395207 7.1838915878292  0.337929810860459 7.28534901559704  C 0.311577631908593 7.41298900536947  0.262167296373845 7.51444643313731  0.235815117421979 7.63881360265917  C 0.209462938470113 7.76318077218103  0.209462938470113 7.81554589619024  0.235815117421979 7.91700332395807  C 0.262167296373845 8.0184607517259  0.262167296373845 8.11991817949374  0.262167296373845 8.19519304525697  C 0.262167296373845 8.5486576323191  0.440044504298937 8.69920736384556  0.746388584614375 8.69920736384556  C 0.746388584614375 8.69920736384556  3.13784882449618 8.69920736384556  3.13784882449618 8.69920736384556  C 3.23996351793466 8.69920736384556  3.31572603242127 8.72538992585017  3.34207821137314 8.7482996676042  C 3.34207821137314 8.79739197136282  3.368430390325 8.87593965737663  3.368430390325 9.00030682689849  C 3.39478256927686 9.12794681667093  3.41784072585975 9.60577857325493  3.39478256927686 9.93633341856303  C 3.37172441269398 10.2668882638711  3.368430390325 10.4927128611608  3.368430390325 10.5941702889287  C 3.368430390325 10.8723600102276  3.51995541929823 11  3.82629949961367 11  C 3.82629949961367 11  4.66627520370438 11  4.66627520370438 11  C 4.84415241162947 11  4.94626710506795 10.9247251342368  4.94626710506795 10.7970851444643  C 4.94626710506795 10.7970851444643  4.94626710506795 9.0526719509077  4.94626710506795 9.0526719509077  C 4.94626710506795 8.8006647916134  5.0747339774583 8.67302480184097  5.27566934196627 8.67302480184097  C 5.27566934196627 8.67302480184097  5.60507157886459 8.67302480184097  5.60507157886459 8.67302480184097  C 5.75659660783782 8.67302480184097  5.96082599471478 8.67302480184097  6.16505538159174 8.64684223983636  C 6.3692847684687 8.62065967783176  6.57351415534565 8.62065967783176  6.75139136327074 8.62065967783176  C 6.75139136327074 8.62065967783176  7.46290019497112 8.62065967783176  7.46290019497112 8.62065967783176  C 7.79230243186944 8.62065967783176  7.97017963979453 8.49301968805933  7.97017963979453 8.24101252876503  C 7.97017963979453 8.24101252876503  7.97017963979453 7.48171823063156  7.97017963979453 7.48171823063156  C 7.97017963979453 7.25262081309129  7.84171276740418 7.12825364356943  7.61442522394434 7.12825364356943  C 7.61442522394434 7.12825364356943  5.27237531959729 7.12825364356943  5.27237531959729 7.12825364356943  C 5.04179375376846 7.17734594732805  4.9166209037471 7.12825364356943  4.9166209037471 6.97770391204296  C 4.9166209037471 6.90242904627973  4.9166209037471 6.92861160828433  4.89026872479524 6.80097161851189  C 4.86391654584338 6.67333162873946  4.86391654584338 6.57187420097162  4.86391654584338 6.47368959345437  C 4.86391654584338 6.37223216568653  4.91332688137812 6.42459728969573  4.99238341823372 6.37223216568653  C 5.0944981116722 6.3231398619279  5.17026062615881 6.2969572999233  5.27237531959729 6.2969572999233  C 5.27237531959729 6.2969572999233  7.66712958184808 6.2969572999233  7.66712958184808 6.2969572999233  C 7.8977111476769 6.30023012017388  8.02288399769826 6.22495525441064  7.9965318187464 6.02204039887497  Z " fill-rule="nonzero" fill="#303030" stroke="none" transform="matrix(1 0 0 1 56 519 )" />
  </g>
</svg>