<?xml version="1.0" encoding="utf-8"?>
<svg version="1.1" xmlns:xlink="http://www.w3.org/1999/xlink" width="21px" height="16px" xmlns="http://www.w3.org/2000/svg">
  <g transform="matrix(1 0 0 1 -2 -3 )">
    <path d="M 10.1613591400225 4.90248155871404  L 11.9290866226275 4.90248155871404  L 14.2328656572565 4.90248155871404  C 14.3347114584518 4.90248155871404  14.420714450586 4.90248155871404  14.4873348163047 4.90248155871404  C 13.9139094444621 7.04360095364185  12.7017018761638 9.26107352105011  12.7017018761638 9.26107352105011  L 20.3303099826684 11.9243951871614  L 20.5945945945946 15.0440342266403  C 20.5945945945946 15.0440342266403  11.5574608608136 11.030491507556  11.5574608608136 11.030491507556  C 11.3003206996932 11.2361915515615  8.51743532581484 13.9724755968058  5.73150878390004 14.3737540168017  C 1.0780030530702 15.0440342266403  0.530173689189928 12.3201083947401  0.423627157855756 11.5366341407523  C 0.317080626521585 10.7531598867645  -0.0463579787233246 6.93279877046945  5.73150856165637 7.31012260534335  C 7.87887969429449 7.45035677395938  10.8287189393987 8.56187353758287  10.8287189393987 8.56187353758287  C 10.8287189393987 8.56187353758287  11.5868099416289 7.17390074874225  11.8548972618889 5.66588903100028  L 4.05409936172751 5.66588903100028  L 4.05409936172751 4.90248155871404  L 8.12560588255066 4.90247770388966  L 8.12560589629334 3.1211974567123  L 3.03622273201239 3.1211974567123  L 3.03622273201239 2.35778998442606  L 8.12560588058739 2.35778450891604  L 8.12560588058739 0.0675675675670391  L 10.1613591400174 0.0675675675670391  L 10.1613591243114 2.35778998442606  L 15.2507422885922 2.35778998442606  L 15.2507422885922 3.1211974567123  L 10.1613591400174 3.12119178804208  L 10.1613591400225 4.90248155871404  Z M 1.28761704231641 10.8287151260895  C 1.2876170422362 12.2474303787765  2.46384957266975 13.4009305683862  4.6388317127318 13.1885713719888  C 7.16302162150376 12.9421165019888  9.83420225939594 10.1770009602801  9.83420225939594 10.1770009602801  C 9.83420225939594 10.1770009602801  6.86369730497746 8.40926038277098  4.6388317127318 8.40926038277098  C 2.42285017554285 8.40926038277098  1.28761704239663 9.40999987340248  1.28761704231641 10.8287151260895  Z " fill-rule="nonzero" fill="#ffffff" stroke="none" transform="matrix(1 0 0 1 2 3 )" />
  </g>
</svg>