<?xml version="1.0" encoding="utf-8"?>
<svg version="1.1" xmlns:xlink="http://www.w3.org/1999/xlink" width="22px" height="24px" xmlns="http://www.w3.org/2000/svg">
  <g transform="matrix(1 0 0 1 -22 -19 )">
    <path d="M 1.3691604519372 0.682858939803737  C 1.3691604519372 0.682858939803737  1.39175872297346 0.592592592592609  1.39175872297346 0.592592592592609  C 1.39175872297346 0.592592592592609  1.61774139360932 0.660292353000841  1.61774139360932 0.660292353000841  C 2.63466339160823 0.931091354966384  3.65158538960713 1.24702349086988  4.66850738760604 1.54038903997025  C 6.95093232527506 2.26251965898791  9.16556244983622 3.16518297242783  11.3123977612904 4.2032457670166  C 13.165455628724 5.12847562759157  15.0185134961584 6.03113894103149  16.8037765504841 7.06920173562025  C 17.7303054643398 7.58823311308083  18.6342361468824 8.15239770381459  19.4929702873533 8.76169542848629  C 20.2613113436801 9.25816025881181  20.894062813516 9.91259111742102  21.4138229281716 10.6572883629094  C 21.8431899984071 11.3117192611865  21.8883865404787 12.1241162274152  21.5720108254227 12.8236802596302  C 21.120045484151 13.7714767070079  20.1935165702962 14.3807744316794  19.3799789321738 15.0126387431537  C 16.8489730528327 16.817965330366  14.1823776267229 18.397626089218  11.3801925743983 19.7516210593778  C 8.75879365063702 21.0604828559322  6.02440337169628 22.075979063718  3.19962004833542 22.8206762695386  C 2.52167203642784 22.9786423374901  1.86632233528053 23.1817415790474  1.18837432337386 23.3397076469992  C 1.18837432337386 23.3397076469992  0.804203795210015 23.4074074074074  0.804203795210015 23.4074074074074  C 0.781605524173756 23.2494413394556  0.759007253138407 23.0914752715041  0.736408982102148 22.9109425770819  C 0.487828040430941 21.0604828162643  0.352238453938298 19.1874564686439  0.284443640830432 17.3369967474941  C 0.148854054338699 16.118401298151  0.194050556687216 14.8772392620049  0.194050596410307 13.6586438126617  C 0.171452325374958 12.8462468464329  0.194050596410307 12.0112832934014  0.239247138482824 11.1988863271727  C 0.261845409518173 10.363922774141  0.307041951589781 9.50639263430662  0.329640182902949 8.64886249447227  C 0.442631498358423 7.92673187545461  0.420033267046165 7.18203462996621  0.533024582502549 6.45990401094855  C 0.600819395610415 5.89573945988263  0.668614168994282 5.30900832201382  0.69121244003054 4.72227718414501  C 0.894596839630139 3.36828225365298  1.05278469715813 2.0142872834931  1.3691604519372 0.682858939803737  Z M 6.02440337169628 5.69264021832532  C 5.79842070106042 5.53467415037358  5.52724148835296 5.46697438996534  5.25606231536858 5.48954097676801  C 4.89449005824099 5.62494045791686  4.66850738760513 5.96343922029087  4.69110565864139 6.3245045297997  C 4.66850738760513 6.86610249406294  4.66850738760513 7.40770049799403  4.71370392967765 7.94929846225727  C 4.736302200713 9.55152580791219  4.69110565864139 11.1763197403698  4.73630216098991 12.7785470860247  C 4.73630216098991 12.7785470860247  4.73630216098991 17.0661977455286  4.73630216098991 17.0661977455286  C 4.6911056189183 17.4272630550374  4.84929347644629 17.7883283645463  5.16566923122537 17.9914276061036  C 5.52724148835296 18.0816939533147  5.93401028755216 18.0139941929062  6.22778777129588 17.7657618174114  C 8.82658842402088 16.0281349906077  11.4479873477821 14.2905081241361  14.0467880402311 12.5528812576647  C 14.3631637552871 12.3272154293047  14.7247360521378 11.9887167065986  14.6795395100662 11.5373850498786  C 14.6117446969583 11.1311865667642  14.340565523974 10.7701212572554  13.956394956087 10.589588602501  C 13.956394956087 10.589588602501  6.02440337169628 5.69264021832532  6.02440337169628 5.69264021832532  Z " fill-rule="nonzero" fill="#7de621" stroke="none" transform="matrix(1 0 0 1 22 19 )" />
  </g>
</svg>