<?xml version="1.0" encoding="utf-8"?>
<svg version="1.1" xmlns:xlink="http://www.w3.org/1999/xlink" width="10px" height="13px" xmlns="http://www.w3.org/2000/svg">
  <g transform="matrix(1 0 0 1 -27 -24 )">
    <path d="M 0.549918028516023 0.0043862001465749  C 0.820454845558462 -0.0190068668735433  1.09099162297149 0.0511723341868113  1.31643896390195 0.214923762207016  C 1.31643896390195 0.214923762207016  9.27472995211849 5.31461138569784  9.27472995211849 5.31461138569784  C 9.65799041981145 5.50175588073817  9.92852723685389 5.8526518037987  9.99616141139244 6.29711999493969  C 10.0412508875044 6.74158818608069  9.68053515786744 7.09248410914123  9.36490886471302 7.3498078052419  C 6.77226450345681 9.1276805698059  4.15707540414461 10.9289463602694  1.5644310428884 12.7302121918535  C 1.27134948778997 12.9641428209341  0.86554428204102 13.0577150478939  0.504828552404044 12.9641427798135  C 0.211746997305617 12.753605217753  0.0539338705431178 12.4027092946925  0.0764786085991039 12.0284203046118  C 0.0764786085991039 12.0284203046118  0.0764786085991039 7.58373843432246  0.0764786085991039 7.58373843432246  C 0.0313891324871272 5.92283100485905  0.0764786085991039 4.23853050837552  0.0539338705431155 2.57762307891211  C 0.00884439443113884 2.01618959379114  -0.0137003436248473 1.45475606754955  0.00884443406055336 0.869929515408459  C -0.0362450420514233 0.495640525327812  0.211747036935029 0.144744561146664  0.549918028516017 0.00438620014657724  Z " fill-rule="nonzero" fill="#ffffff" stroke="none" transform="matrix(1 0 0 1 27 24 )" />
  </g>
</svg>