<?xml version="1.0" encoding="utf-8"?>
<svg version="1.1" xmlns:xlink="http://www.w3.org/1999/xlink" width="6px" height="23px" xmlns="http://www.w3.org/2000/svg">
  <g transform="matrix(1 0 0 1 -18 -20 )">
    <path d="M 1.40581575240165 1.85345950254767  C 1.6438563906779 1.19394629011657  2.14374173524233 0.625400433872879  2.78645144603527 0.307014767168697  C 3.78622209332105 -0.147821933816605  4.95262121669035 -0.0113708995354863  6 0.170563732887578  C 5.69054715768795 1.51233195682075  5.50011465543557 2.87684205977666  5.28587808517125 4.24135216273256  C 5.26207401715932 4.8326398580231  5.19066181312352 5.40118571426679  5.1192496509308 5.99247340955733  C 5.00022935271422 6.72021209915311  5.02403337888307 7.47069266777162  4.90501308066649 8.1984313573674  C 4.88120901265455 9.03987924219744  4.83360087663069 9.90406896607434  4.80979685046184 10.7682586899512  C 4.71458057841411 11.5869647357344  4.76218871443797 12.4284126205645  4.76218871443797 13.2471186663477  C 4.76218871443797 14.4751777350225  4.73838464642604 15.7259786427441  4.83360087663069 16.954037671443  C 4.90501308066649 18.8416099525489  5.047837446895 20.7064403946079  5.30968215318319 22.571270836667  C 5.30968215318319 22.571270836667  5.30968215318319 22.8441728652533  5.30968215318319 22.8441728652533  C 4.30991150589741 23.0261075376523  3.1435123825281 23.1625585319575  2.21515393927813 22.571270836667  C 1.28679549602815 21.9799831413764  1.04875481590882 20.8883750670069  0.810714177632571 19.9332180269184  C 0.263220738887357 16.8630703552315  -0.0224280354127563 13.7474390054508  0.001376032599177 10.6090658166233  C 0.0489841686230425 8.97165372505688  0.215612602863492 7.35698347253735  0.453653241139739 5.74231322001782  C 0.644085743392122 4.42328679515562  0.953538585704168 3.12700224931616  1.40581575240165 1.85345950254767  Z " fill-rule="nonzero" fill="#ff8f21" stroke="none" transform="matrix(1 0 0 1 18 20 )" />
  </g>
</svg>