<?xml version="1.0" encoding="utf-8"?>
<svg version="1.1" xmlns:xlink="http://www.w3.org/1999/xlink" width="27px" height="29px" xmlns="http://www.w3.org/2000/svg">
  <g transform="matrix(1 0 0 1 -23 -16 )">
    <path d="M 0.87788696259273 1.95822563040446  C 1.39561514593702 0.931443117741368  2.36354181323391 0.194838287906948  3.51154781080269 0.0385887844930968  C 4.52449429088345 -0.0730179924491514  5.55995069714024 0.0609101477288996  6.50536739869287 0.395730517792407  C 8.5987901373825 1.06537129715618  10.6471930237201 1.91358290393285  12.6280661315295 2.8734013661253  C 15.9595345724921 4.50286056844475  19.1559434563984 6.40017605112031  22.2172928228167 8.49838380291809  C 23.5678881164016 9.39123817540313  24.8284437448506 10.4180206488294  25.9539398162434 11.5787313409073  C 26.5842176304679 12.293014807506  27.0794358876361 13.185869179991  26.9893962225002 14.1456876029467  C 26.8543367050121 15.3063982557878  26.0439795209475 16.2215739915087  25.2336223368829 17.0028215478147  C 21.9021538959203 20.1278117730388  18.2330366810218 22.8956603042003  14.2938003520108 25.2394029731184  C 12.2679073918493 26.4447563524312  10.1069549141997 27.4268961386226  7.87847261845384 28.2081436949287  C 6.43783762016475 28.6992136076428  4.92967288291575 29.1233193914127  3.3989982194907 28.9670698879989  C 2.47609144411412 28.9001057982915  1.62071440769743 28.4983213385206  0.990436553904713 27.8510019616294  C 0.472708370560427 27.248325271973  0.135059517488028 26.5340418053744  0 25.7751155730674  C 0 25.7751155730674  0.0450198523520827 25.70815148336  0.0450198523520827 25.70815148336  C 0.720317518928661 25.5519019799461  1.37310521976097 25.3510097500607  2.04840288633755 25.1947602466468  C 4.86214310438762 24.4804767800482  7.58584365730175 23.4536942673851  10.1744846531596 22.1590554351292  C 12.9657149450337 20.8197739156384  15.6218857194197 19.2572787637896  18.1429969763176 17.4715700580562  C 18.9533541603822 16.8688933683999  19.853751049151 16.2662166787435  20.3264593801432 15.3063982557878  C 20.6415982674713 14.6144361131882  20.5965784546875 13.8108671936464  20.1688899364791 13.1635478167552  C 19.6736716397427 12.404621623685  19.0208839389104 11.7796235707928  18.2555465676296 11.2662322948429  C 17.4001695312129 10.6635556051865  16.4997726820124 10.1055216420017  15.5768658670676 9.59213036605182  C 13.8210919814503 8.54302649015293  11.9752783911289 7.65017215690466  10.1069548746315 6.75731782365638  C 7.96851232315801 5.7305353109933  5.76253995358817 4.86000230174406  3.48903788462665 4.14571883514544  C 2.47609140454589 3.85554115231678  1.46314492446514 3.54304214548907  0.450198444384386 3.27518582589621  C 0.562748035696372 2.82875863965369  0.697807592752619 2.38233145341117  0.87788696259273 1.95822563040446  Z " fill-rule="nonzero" fill="#10abf2" stroke="none" transform="matrix(1 0 0 1 23 16 )" />
  </g>
</svg>