<?xml version="1.0" encoding="utf-8"?>
<svg version="1.1" xmlns:xlink="http://www.w3.org/1999/xlink" width="47px" height="49px" xmlns="http://www.w3.org/2000/svg">
  <g transform="matrix(1 0 0 1 -455 -304 )">
    <path d="M 478.5 304  C 491.66 304  502 314.78  502 328.5  C 502 342.22  491.66 353  478.5 353  C 465.34 353  455 342.22  455 328.5  C 455 314.78  465.34 304  478.5 304  Z " fill-rule="nonzero" fill="#f7f7f7" stroke="none" />
    <path d="M 478.5 304.5  C 491.38 304.5  501.5 315.06  501.5 328.5  C 501.5 341.94  491.38 352.5  478.5 352.5  C 465.62 352.5  455.5 341.94  455.5 328.5  C 455.5 315.06  465.62 304.5  478.5 304.5  Z " stroke-width="1" stroke="#e4e4e4" fill="none" />
  </g>
</svg>