<?xml version="1.0" encoding="utf-8"?>
<svg version="1.1" xmlns:xlink="http://www.w3.org/1999/xlink" width="23px" height="14px" xmlns="http://www.w3.org/2000/svg">
  <g transform="matrix(1 0 0 1 -467 -319 )">
    <path d="M 21.8819444444445 14  L 11.9791666666667 14  L 6.24132079346301 14  L 0.79861111111119 14  C 0.582320601851954 14  0.395146122685346 13.8996074879221  0.237087673611101 13.6988224637693  C 0.0790292245368565 13.4980374396135  0 13.2602657004825  0 12.985507246378  C 0 12.7107487922704  0.0790292245368565 12.4729770531395  0.237087673611101 12.2721920289867  L 5.8273654513889 5.17074275362352  C 5.98542390046314 4.96995772946923  6.1725983796298 4.86956521739133  6.38888888888881 4.86956521739133  C 6.60517939814796 4.86956521739133  6.79235387731465 4.96995772946923  6.9504123263889 5.17074275362352  L 8.48433409078585 7.11932020219172  L 13.2694227430556 0.461805555555385  C 13.4907045717597 0.153935185184618  13.752748842593 0  14.0555555555556 0  C 14.3583622685181 0  14.6204065393515 0.153935185184618  14.8416883680556 0.461805555555385  L 22.6680772569445 11.3506944444446  C 22.8893590856486 11.6585648148139  23 12.0231481481477  23 12.4444444444446  C 23 12.86574074074  22.8893590856486 13.2303240740738  22.6680772569445 13.5381944444446  C 22.4467954282403 13.8460648148139  22.1847511574069 14  21.8819444444445 14  Z " fill-rule="nonzero" fill="#cccccc" stroke="none" transform="matrix(1 0 0 1 467 319 )" />
  </g>
</svg>