<?xml version="1.0" encoding="utf-8"?>
<svg version="1.1" xmlns:xlink="http://www.w3.org/1999/xlink" width="22px" height="21px" xmlns="http://www.w3.org/2000/svg">
  <g transform="matrix(1 0 0 1 -635 -225 )">
    <path d="M 22 10.5  C 22 4.71001209375036  17.0657016160711 0  11 0  C 4.93505866071414 0  0 4.71001209375036  0 10.5  C 0 16.2899879062496  4.93429838392894 21  11 21  C 17.0649413392859 21  22 16.2899879062496  22 10.5  Z M 12.1133680200894 10.5029834765633  L 15.4872194665178 13.7340007968751  C 15.7936490937501 14.0279935312496  15.7928465848214 14.5020024140631  15.4856567053573 14.7945034218743  C 15.3324630200893 14.9400080624998  15.1320905558037 15.0135062343747  14.9309578392859 15.0135062343747  C 14.7290226138393 15.0135062343747  14.5278898973215 14.940008039062  14.3746539553571 14.7930116718752  L 10.9960719687498 11.5582448437499  L 7.60650834821436 14.7592662187497  C 7.45331466294638 14.903279109375  7.25370247544652 14.9760112734367  7.05413252008916 14.9760112734367  C 6.85143701785691 14.9760112734367  6.64950181696427 14.9017470703126  6.49550559821419 14.7532589531257  C 6.19063873214282 14.4585001875001  6.19300400223201 13.9844913046877  6.50179892410697 13.6927563281246  L 9.88743448883884 10.4962504921875  L 6.51434331919663 7.26599917968706  C 6.20791369196427 6.9727321406247  6.20871620089297 6.49799756250009  6.51590608035713 6.20549655468785  C 6.82313821651769 5.9122295156255  7.31967669419673 5.91376157812479  7.6269088303568 6.20698828125014  L 11.0046883080359 9.44098907812527  L 14.3942519285713 6.2400080156247  C 14.7022443169642 5.94827303906259  15.2003878125001 5.95125649218717  15.5052546785715 6.24601528124963  C 15.8108817968752 6.54077404687428  15.8077562745532 7.01550862499985  15.4989613526782 7.30651790624979  L 12.1133680200894 10.5029834765633  Z " fill-rule="nonzero" fill="#999999" stroke="none" transform="matrix(1 0 0 1 635 225 )" />
  </g>
</svg>