<?xml version="1.0" encoding="utf-8"?>
<svg version="1.1" xmlns:xlink="http://www.w3.org/1999/xlink" width="17px" height="16px" xmlns="http://www.w3.org/2000/svg">
  <defs>
    <mask fill="white" id="clip199">
      <path d="M 2.518125 13.140625  C 2.65270833333333 13.0121527777778  2.72 12.8541666666667  2.72 12.6666666666667  C 2.72 12.4861111111111  2.65270833333333 12.3298611111111  2.518125 12.1979166666667  C 2.38354166666667 12.0659722222222  2.22416666666667 12  2.04 12  C 1.84875 12  1.68760416666667 12.0659722222222  1.5565625 12.1979166666667  C 1.42552083333333 12.3298611111111  1.36 12.4861111111111  1.36 12.6666666666667  C 1.36 12.8541666666667  1.42552083333333 13.0121527777778  1.5565625 13.140625  C 1.68760416666667 13.2690972222222  1.84875 13.3333333333333  2.04 13.3333333333333  C 2.22416666666667 13.3333333333333  2.38354166666667 13.2690972222222  2.518125 13.140625  Z M 4.218125 6.86458333333333  C 4.35270833333333 6.99652777777778  4.42 7.15277777777778  4.42 7.33333333333333  L 4.42 14  C 4.42 14.1805555555556  4.35270833333333 14.3368055555556  4.218125 14.46875  C 4.08354166666667 14.6006944444444  3.92416666666667 14.6666666666667  3.74 14.6666666666667  L 0.68 14.6666666666667  C 0.495833333333333 14.6666666666667  0.336458333333333 14.6006944444444  0.201875 14.46875  C 0.0672916666666667 14.3368055555556  0 14.1805555555556  0 14  L 0 7.33333333333333  C 0 7.15277777777778  0.0672916666666667 6.99652777777778  0.201875 6.86458333333333  C 0.336458333333333 6.73263888888889  0.495833333333333 6.66666666666667  0.68 6.66666666666667  L 3.74 6.66666666666667  C 3.92416666666667 6.66666666666667  4.08354166666667 6.73263888888889  4.218125 6.86458333333333  Z M 16.394375 5.92708333333333  C 16.798125 6.32291666666667  17 6.79166666666667  17 7.33333333333333  C 17 7.93055555555556  16.8052083333333 8.44791666666667  16.415625 8.88541666666667  C 16.521875 9.19097222222222  16.575 9.45486111111111  16.575 9.67708333333333  C 16.59625 10.2048611111111  16.4439583333333 10.6805555555556  16.118125 11.1041666666667  C 16.2385416666667 11.4930555555556  16.2385416666667 11.8993055555556  16.118125 12.3229166666667  C 16.011875 12.71875  15.820625 13.0451388888889  15.544375 13.3020833333333  C 15.608125 14.0798611111111  15.4345833333333 14.7083333333333  15.02375 15.1875  C 14.5704166666667 15.7152777777778  13.8727083333333 15.9861111111111  12.930625 16  L 12.548125 16  L 11.740625 16  L 11.56 16  C 11.0925 16  10.5825 15.9461805555556  10.03 15.8385416666667  C 9.4775 15.7309027777778  9.0471875 15.6302083333333  8.7390625 15.5364583333333  C 8.4309375 15.4427083333333  8.00416666666667 15.3055555555556  7.45875 15.125  C 6.5875 14.8263888888889  6.02791666666667 14.6736111111111  5.78 14.6666666666667  C 5.59583333333333 14.6597222222222  5.43645833333333 14.5920138888889  5.301875 14.4635416666667  C 5.16729166666667 14.3350694444444  5.1 14.1805555555556  5.1 14  L 5.1 7.32291666666667  C 5.1 7.14930555555556  5.16375 6.99826388888889  5.29125 6.86979166666667  C 5.41875 6.74131944444444  5.57104166666667 6.67013888888889  5.748125 6.65625  C 5.918125 6.64236111111111  6.18729166666667 6.4375  6.555625 6.04166666666667  C 6.92395833333333 5.64583333333333  7.28166666666667 5.22569444444444  7.62875 4.78125  C 8.11041666666667 4.17708333333333  8.468125 3.76041666666667  8.701875 3.53125  C 8.829375 3.40625  8.93916666666667 3.23958333333333  9.03125 3.03125  C 9.12333333333333 2.82291666666667  9.1853125 2.65451388888889  9.2171875 2.52604166666667  C 9.2490625 2.39756944444444  9.296875 2.1875  9.360625 1.89583333333333  C 9.41020833333333 1.625  9.45447916666667 1.41319444444444  9.4934375 1.26041666666667  C 9.53239583333333 1.10763888888889  9.60145833333333 0.927083333333334  9.700625 0.71875  C 9.79979166666667 0.510416666666666  9.92020833333333 0.336805555555555  10.061875 0.197916666666666  C 10.1964583333333 0.0659722222222214  10.3558333333333 0  10.54 0  C 10.8658333333333 0  11.1580208333333 0.0364583333333339  11.4165625 0.109375  C 11.6751041666667 0.182291666666666  11.8876041666667 0.272569444444443  12.0540625 0.380208333333334  C 12.2205208333333 0.487847222222221  12.3621875 0.628472222222221  12.4790625 0.802083333333334  C 12.5959375 0.975694444444443  12.6809375 1.13194444444444  12.7340625 1.27083333333333  C 12.7871875 1.40972222222222  12.8296875 1.58333333333333  12.8615625 1.79166666666667  C 12.8934375 2  12.9111458333333 2.15625  12.9146875 2.26041666666667  C 12.9182291666667 2.36458333333333  12.92 2.5  12.92 2.66666666666667  C 12.92 2.93055555555556  12.8863541666667 3.19444444444444  12.8190625 3.45833333333333  C 12.7517708333333 3.72222222222222  12.6844791666667 3.93055555555556  12.6171875 4.08333333333333  C 12.5498958333333 4.23611111111111  12.4525 4.43055555555556  12.325 4.66666666666667  C 12.30375 4.70833333333333  12.2683333333333 4.77083333333333  12.21875 4.85416666666667  C 12.1691666666667 4.9375  12.1302083333333 5.01388888888889  12.101875 5.08333333333333  C 12.0735416666667 5.15277777777778  12.0452083333333 5.23611111111111  12.016875 5.33333333333333  L 14.96 5.33333333333333  C 15.5125 5.33333333333333  15.990625 5.53125  16.394375 5.92708333333333  Z " fill-rule="evenodd" />
    </mask>
  </defs>
  <g transform="matrix(1 0 0 1 -136 -368 )">
    <path d="M 2.518125 13.140625  C 2.65270833333333 13.0121527777778  2.72 12.8541666666667  2.72 12.6666666666667  C 2.72 12.4861111111111  2.65270833333333 12.3298611111111  2.518125 12.1979166666667  C 2.38354166666667 12.0659722222222  2.22416666666667 12  2.04 12  C 1.84875 12  1.68760416666667 12.0659722222222  1.5565625 12.1979166666667  C 1.42552083333333 12.3298611111111  1.36 12.4861111111111  1.36 12.6666666666667  C 1.36 12.8541666666667  1.42552083333333 13.0121527777778  1.5565625 13.140625  C 1.68760416666667 13.2690972222222  1.84875 13.3333333333333  2.04 13.3333333333333  C 2.22416666666667 13.3333333333333  2.38354166666667 13.2690972222222  2.518125 13.140625  Z M 4.218125 6.86458333333333  C 4.35270833333333 6.99652777777778  4.42 7.15277777777778  4.42 7.33333333333333  L 4.42 14  C 4.42 14.1805555555556  4.35270833333333 14.3368055555556  4.218125 14.46875  C 4.08354166666667 14.6006944444444  3.92416666666667 14.6666666666667  3.74 14.6666666666667  L 0.68 14.6666666666667  C 0.495833333333333 14.6666666666667  0.336458333333333 14.6006944444444  0.201875 14.46875  C 0.0672916666666667 14.3368055555556  0 14.1805555555556  0 14  L 0 7.33333333333333  C 0 7.15277777777778  0.0672916666666667 6.99652777777778  0.201875 6.86458333333333  C 0.336458333333333 6.73263888888889  0.495833333333333 6.66666666666667  0.68 6.66666666666667  L 3.74 6.66666666666667  C 3.92416666666667 6.66666666666667  4.08354166666667 6.73263888888889  4.218125 6.86458333333333  Z M 16.394375 5.92708333333333  C 16.798125 6.32291666666667  17 6.79166666666667  17 7.33333333333333  C 17 7.93055555555556  16.8052083333333 8.44791666666667  16.415625 8.88541666666667  C 16.521875 9.19097222222222  16.575 9.45486111111111  16.575 9.67708333333333  C 16.59625 10.2048611111111  16.4439583333333 10.6805555555556  16.118125 11.1041666666667  C 16.2385416666667 11.4930555555556  16.2385416666667 11.8993055555556  16.118125 12.3229166666667  C 16.011875 12.71875  15.820625 13.0451388888889  15.544375 13.3020833333333  C 15.608125 14.0798611111111  15.4345833333333 14.7083333333333  15.02375 15.1875  C 14.5704166666667 15.7152777777778  13.8727083333333 15.9861111111111  12.930625 16  L 12.548125 16  L 11.740625 16  L 11.56 16  C 11.0925 16  10.5825 15.9461805555556  10.03 15.8385416666667  C 9.4775 15.7309027777778  9.0471875 15.6302083333333  8.7390625 15.5364583333333  C 8.4309375 15.4427083333333  8.00416666666667 15.3055555555556  7.45875 15.125  C 6.5875 14.8263888888889  6.02791666666667 14.6736111111111  5.78 14.6666666666667  C 5.59583333333333 14.6597222222222  5.43645833333333 14.5920138888889  5.301875 14.4635416666667  C 5.16729166666667 14.3350694444444  5.1 14.1805555555556  5.1 14  L 5.1 7.32291666666667  C 5.1 7.14930555555556  5.16375 6.99826388888889  5.29125 6.86979166666667  C 5.41875 6.74131944444444  5.57104166666667 6.67013888888889  5.748125 6.65625  C 5.918125 6.64236111111111  6.18729166666667 6.4375  6.555625 6.04166666666667  C 6.92395833333333 5.64583333333333  7.28166666666667 5.22569444444444  7.62875 4.78125  C 8.11041666666667 4.17708333333333  8.468125 3.76041666666667  8.701875 3.53125  C 8.829375 3.40625  8.93916666666667 3.23958333333333  9.03125 3.03125  C 9.12333333333333 2.82291666666667  9.1853125 2.65451388888889  9.2171875 2.52604166666667  C 9.2490625 2.39756944444444  9.296875 2.1875  9.360625 1.89583333333333  C 9.41020833333333 1.625  9.45447916666667 1.41319444444444  9.4934375 1.26041666666667  C 9.53239583333333 1.10763888888889  9.60145833333333 0.927083333333334  9.700625 0.71875  C 9.79979166666667 0.510416666666666  9.92020833333333 0.336805555555555  10.061875 0.197916666666666  C 10.1964583333333 0.0659722222222214  10.3558333333333 0  10.54 0  C 10.8658333333333 0  11.1580208333333 0.0364583333333339  11.4165625 0.109375  C 11.6751041666667 0.182291666666666  11.8876041666667 0.272569444444443  12.0540625 0.380208333333334  C 12.2205208333333 0.487847222222221  12.3621875 0.628472222222221  12.4790625 0.802083333333334  C 12.5959375 0.975694444444443  12.6809375 1.13194444444444  12.7340625 1.27083333333333  C 12.7871875 1.40972222222222  12.8296875 1.58333333333333  12.8615625 1.79166666666667  C 12.8934375 2  12.9111458333333 2.15625  12.9146875 2.26041666666667  C 12.9182291666667 2.36458333333333  12.92 2.5  12.92 2.66666666666667  C 12.92 2.93055555555556  12.8863541666667 3.19444444444444  12.8190625 3.45833333333333  C 12.7517708333333 3.72222222222222  12.6844791666667 3.93055555555556  12.6171875 4.08333333333333  C 12.5498958333333 4.23611111111111  12.4525 4.43055555555556  12.325 4.66666666666667  C 12.30375 4.70833333333333  12.2683333333333 4.77083333333333  12.21875 4.85416666666667  C 12.1691666666667 4.9375  12.1302083333333 5.01388888888889  12.101875 5.08333333333333  C 12.0735416666667 5.15277777777778  12.0452083333333 5.23611111111111  12.016875 5.33333333333333  L 14.96 5.33333333333333  C 15.5125 5.33333333333333  15.990625 5.53125  16.394375 5.92708333333333  Z " fill-rule="nonzero" fill="#ffffff" stroke="none" transform="matrix(1 0 0 1 136 368 )" />
    <path d="M 2.518125 13.140625  C 2.65270833333333 13.0121527777778  2.72 12.8541666666667  2.72 12.6666666666667  C 2.72 12.4861111111111  2.65270833333333 12.3298611111111  2.518125 12.1979166666667  C 2.38354166666667 12.0659722222222  2.22416666666667 12  2.04 12  C 1.84875 12  1.68760416666667 12.0659722222222  1.5565625 12.1979166666667  C 1.42552083333333 12.3298611111111  1.36 12.4861111111111  1.36 12.6666666666667  C 1.36 12.8541666666667  1.42552083333333 13.0121527777778  1.5565625 13.140625  C 1.68760416666667 13.2690972222222  1.84875 13.3333333333333  2.04 13.3333333333333  C 2.22416666666667 13.3333333333333  2.38354166666667 13.2690972222222  2.518125 13.140625  Z " stroke-width="2" stroke="#333333" fill="none" transform="matrix(1 0 0 1 136 368 )" mask="url(#clip199)" />
    <path d="M 4.218125 6.86458333333333  C 4.35270833333333 6.99652777777778  4.42 7.15277777777778  4.42 7.33333333333333  L 4.42 14  C 4.42 14.1805555555556  4.35270833333333 14.3368055555556  4.218125 14.46875  C 4.08354166666667 14.6006944444444  3.92416666666667 14.6666666666667  3.74 14.6666666666667  L 0.68 14.6666666666667  C 0.495833333333333 14.6666666666667  0.336458333333333 14.6006944444444  0.201875 14.46875  C 0.0672916666666667 14.3368055555556  0 14.1805555555556  0 14  L 0 7.33333333333333  C 0 7.15277777777778  0.0672916666666667 6.99652777777778  0.201875 6.86458333333333  C 0.336458333333333 6.73263888888889  0.495833333333333 6.66666666666667  0.68 6.66666666666667  L 3.74 6.66666666666667  C 3.92416666666667 6.66666666666667  4.08354166666667 6.73263888888889  4.218125 6.86458333333333  Z " stroke-width="2" stroke="#333333" fill="none" transform="matrix(1 0 0 1 136 368 )" mask="url(#clip199)" />
    <path d="M 16.394375 5.92708333333333  C 16.798125 6.32291666666667  17 6.79166666666667  17 7.33333333333333  C 17 7.93055555555556  16.8052083333333 8.44791666666667  16.415625 8.88541666666667  C 16.521875 9.19097222222222  16.575 9.45486111111111  16.575 9.67708333333333  C 16.59625 10.2048611111111  16.4439583333333 10.6805555555556  16.118125 11.1041666666667  C 16.2385416666667 11.4930555555556  16.2385416666667 11.8993055555556  16.118125 12.3229166666667  C 16.011875 12.71875  15.820625 13.0451388888889  15.544375 13.3020833333333  C 15.608125 14.0798611111111  15.4345833333333 14.7083333333333  15.02375 15.1875  C 14.5704166666667 15.7152777777778  13.8727083333333 15.9861111111111  12.930625 16  L 12.548125 16  L 11.740625 16  L 11.56 16  C 11.0925 16  10.5825 15.9461805555556  10.03 15.8385416666667  C 9.4775 15.7309027777778  9.0471875 15.6302083333333  8.7390625 15.5364583333333  C 8.4309375 15.4427083333333  8.00416666666667 15.3055555555556  7.45875 15.125  C 6.5875 14.8263888888889  6.02791666666667 14.6736111111111  5.78 14.6666666666667  C 5.59583333333333 14.6597222222222  5.43645833333333 14.5920138888889  5.301875 14.4635416666667  C 5.16729166666667 14.3350694444444  5.1 14.1805555555556  5.1 14  L 5.1 7.32291666666667  C 5.1 7.14930555555556  5.16375 6.99826388888889  5.29125 6.86979166666667  C 5.41875 6.74131944444444  5.57104166666667 6.67013888888889  5.748125 6.65625  C 5.918125 6.64236111111111  6.18729166666667 6.4375  6.555625 6.04166666666667  C 6.92395833333333 5.64583333333333  7.28166666666667 5.22569444444444  7.62875 4.78125  C 8.11041666666667 4.17708333333333  8.468125 3.76041666666667  8.701875 3.53125  C 8.829375 3.40625  8.93916666666667 3.23958333333333  9.03125 3.03125  C 9.12333333333333 2.82291666666667  9.1853125 2.65451388888889  9.2171875 2.52604166666667  C 9.2490625 2.39756944444444  9.296875 2.1875  9.360625 1.89583333333333  C 9.41020833333333 1.625  9.45447916666667 1.41319444444444  9.4934375 1.26041666666667  C 9.53239583333333 1.10763888888889  9.60145833333333 0.927083333333334  9.700625 0.71875  C 9.79979166666667 0.510416666666666  9.92020833333333 0.336805555555555  10.061875 0.197916666666666  C 10.1964583333333 0.0659722222222214  10.3558333333333 0  10.54 0  C 10.8658333333333 0  11.1580208333333 0.0364583333333339  11.4165625 0.109375  C 11.6751041666667 0.182291666666666  11.8876041666667 0.272569444444443  12.0540625 0.380208333333334  C 12.2205208333333 0.487847222222221  12.3621875 0.628472222222221  12.4790625 0.802083333333334  C 12.5959375 0.975694444444443  12.6809375 1.13194444444444  12.7340625 1.27083333333333  C 12.7871875 1.40972222222222  12.8296875 1.58333333333333  12.8615625 1.79166666666667  C 12.8934375 2  12.9111458333333 2.15625  12.9146875 2.26041666666667  C 12.9182291666667 2.36458333333333  12.92 2.5  12.92 2.66666666666667  C 12.92 2.93055555555556  12.8863541666667 3.19444444444444  12.8190625 3.45833333333333  C 12.7517708333333 3.72222222222222  12.6844791666667 3.93055555555556  12.6171875 4.08333333333333  C 12.5498958333333 4.23611111111111  12.4525 4.43055555555556  12.325 4.66666666666667  C 12.30375 4.70833333333333  12.2683333333333 4.77083333333333  12.21875 4.85416666666667  C 12.1691666666667 4.9375  12.1302083333333 5.01388888888889  12.101875 5.08333333333333  C 12.0735416666667 5.15277777777778  12.0452083333333 5.23611111111111  12.016875 5.33333333333333  L 14.96 5.33333333333333  C 15.5125 5.33333333333333  15.990625 5.53125  16.394375 5.92708333333333  Z " stroke-width="2" stroke="#333333" fill="none" transform="matrix(1 0 0 1 136 368 )" mask="url(#clip199)" />
  </g>
</svg>