<?xml version="1.0" encoding="utf-8"?>
<svg version="1.1" xmlns:xlink="http://www.w3.org/1999/xlink" width="11px" height="24px" xmlns="http://www.w3.org/2000/svg">
  <g transform="matrix(1 0 0 1 -61 -983 )">
    <path d="M 0.189003436425992 11.4468937875751  C 0.0630011454754822 11.6072144288577  0 11.7915831663326  0 12  C 0 12.2084168336674  0.0630011454754822 12.3927855711423  0.189003436425992 12.5531062124249  L 8.99656357388312 23.7595190380761  C 9.12256586483386 23.9198396793587  9.2674684994272 24  9.43127147766313 24  C 9.59507445589929 24  9.73997709049263 23.9198396793587  9.86597938144314 23.7595190380761  L 10.810996563574 22.5571142284568  C 10.9369988545245 22.3967935871745  11 22.2124248496993  11 22.004008016032  C 11 21.7955911823648  10.9369988545245 21.61122244489  10.810996563574 21.4509018036071  L 3.38316151202753 12  L 10.810996563574 2.5490981963929  C 10.9369988545245 2.38877755511004  11 2.20440881763517  11 1.99599198396804  C 11 1.78757515030065  10.9369988545245 1.60320641282554  10.810996563574 1.44288577154318  L 9.86597938144314 0.240480961923905  C 9.73997709049263 0.0801603206413016  9.59507445589929 0  9.43127147766313 0  C 9.2674684994272 0  9.12256586483386 0.0801603206413016  8.99656357388312 0.240480961923905  L 0.189003436425992 11.4468937875751  Z " fill-rule="nonzero" fill="#666666" stroke="none" transform="matrix(1 0 0 1 61 983 )" />
  </g>
</svg>