<?xml version="1.0" encoding="utf-8"?>
<svg version="1.1" xmlns:xlink="http://www.w3.org/1999/xlink" width="33px" height="33px" xmlns="http://www.w3.org/2000/svg">
  <g transform="matrix(1 0 0 1 -77 -724 )">
    <path d="M 93.5 724  C 102.74 724  110 731.26  110 740.5  C 110 749.74  102.74 757  93.5 757  C 84.26 757  77 749.74  77 740.5  C 77 731.26  84.26 724  93.5 724  Z " fill-rule="nonzero" fill="#ffffff" stroke="none" />
    <path d="M 93.5 724.5  C 102.46 724.5  109.5 731.54  109.5 740.5  C 109.5 749.46  102.46 756.5  93.5 756.5  C 84.54 756.5  77.5 749.46  77.5 740.5  C 77.5 731.54  84.54 724.5  93.5 724.5  Z " stroke-width="1" stroke="#797979" fill="none" />
  </g>
</svg>