<?xml version="1.0" encoding="utf-8"?>
<svg version="1.1" xmlns:xlink="http://www.w3.org/1999/xlink" width="38px" height="39px" xmlns="http://www.w3.org/2000/svg">
  <g transform="matrix(1 0 0 1 -65 -174 )">
    <path d="M 84 174  C 94.64 174  103 182.58  103 193.5  C 103 204.42  94.64 213  84 213  C 73.36 213  65 204.42  65 193.5  C 65 182.58  73.36 174  84 174  Z " fill-rule="nonzero" fill="#ffffff" stroke="none" />
    <path d="M 84 174.5  C 94.36 174.5  102.5 182.86  102.5 193.5  C 102.5 204.14  94.36 212.5  84 212.5  C 73.64 212.5  65.5 204.14  65.5 193.5  C 65.5 182.86  73.64 174.5  84 174.5  Z " stroke-width="1" stroke="#797979" fill="none" />
  </g>
</svg>