<?xml version="1.0" encoding="utf-8"?>
<svg version="1.1" xmlns:xlink="http://www.w3.org/1999/xlink" width="12px" height="12px" viewBox="1243 353  12 12" xmlns="http://www.w3.org/2000/svg">
  <path d="M 1243.5 358  A 4.5 4.5 0 0 1 1248 353.5 L 1250 353.5  A 4.5 4.5 0 0 1 1254.5 358 L 1254.5 360  A 4.5 4.5 0 0 1 1250 364.5 L 1248 364.5  A 4.5 4.5 0 0 1 1243.5 360 L 1243.5 358  Z " fill-rule="nonzero" fill="#ffffff" stroke="none" />
  <path d="M 1243.5 358  A 4.5 4.5 0 0 1 1248 353.5 L 1250 353.5  A 4.5 4.5 0 0 1 1254.5 358 L 1254.5 360  A 4.5 4.5 0 0 1 1250 364.5 L 1248 364.5  A 4.5 4.5 0 0 1 1243.5 360 L 1243.5 358  Z " stroke-width="1" stroke="#797979" fill="none" />
  <path d="M 1245.57142857143 359  L 1248.14285714286 361.571428571429  L 1252.42857142857 355.571428571429  " stroke-width="2.57142857142857" stroke="#797979" fill="none" />
</svg>