<?xml version="1.0" encoding="utf-8"?>
<svg version="1.1" xmlns:xlink="http://www.w3.org/1999/xlink" width="43px" height="39px" xmlns="http://www.w3.org/2000/svg">
  <g transform="matrix(1 0 0 1 -290 -639 )">
    <path d="M 311.5 639  C 323.54 639  333 647.58  333 658.5  C 333 669.42  323.54 678  311.5 678  C 299.46 678  290 669.42  290 658.5  C 290 647.58  299.46 639  311.5 639  Z " fill-rule="nonzero" fill="#000000" stroke="none" />
    <path d="M 311.5 639.5  C 323.26 639.5  332.5 647.86  332.5 658.5  C 332.5 669.14  323.26 677.5  311.5 677.5  C 299.74 677.5  290.5 669.14  290.5 658.5  C 290.5 647.86  299.74 639.5  311.5 639.5  Z " stroke-width="1" stroke="#ffffff" fill="none" />
  </g>
</svg>