<?xml version="1.0" encoding="utf-8"?>
<svg version="1.1" xmlns:xlink="http://www.w3.org/1999/xlink" width="43px" height="39px" xmlns="http://www.w3.org/2000/svg">
  <g transform="matrix(1 0 0 1 -290 -802 )">
    <path d="M 311.5 802  C 323.54 802  333 810.58  333 821.5  C 333 832.42  323.54 841  311.5 841  C 299.46 841  290 832.42  290 821.5  C 290 810.58  299.46 802  311.5 802  Z " fill-rule="nonzero" fill="#000000" stroke="none" />
    <path d="M 311.5 802.5  C 323.26 802.5  332.5 810.86  332.5 821.5  C 332.5 832.14  323.26 840.5  311.5 840.5  C 299.74 840.5  290.5 832.14  290.5 821.5  C 290.5 810.86  299.74 802.5  311.5 802.5  Z " stroke-width="1" stroke="#ffffff" fill="none" />
  </g>
</svg>