<?xml version="1.0" encoding="utf-8"?>
<svg version="1.1" xmlns:xlink="http://www.w3.org/1999/xlink" width="90px" height="30px" xmlns="http://www.w3.org/2000/svg">
  <g transform="matrix(1 0 0 1 -324 -93 )">
    <path d="M 325 108  A 14 14 0 0 1 339 94 L 399 94  A 14 14 0 0 1 413 108 A 14 14 0 0 1 399 122 L 339 122  A 14 14 0 0 1 325 108 Z " fill-rule="nonzero" fill="#f2f2f2" stroke="none" />
    <path d="M 324.5 108  A 14.5 14.5 0 0 1 339 93.5 L 399 93.5  A 14.5 14.5 0 0 1 413.5 108 A 14.5 14.5 0 0 1 399 122.5 L 339 122.5  A 14.5 14.5 0 0 1 324.5 108 Z " stroke-width="1" stroke="#e4e4e4" fill="none" stroke-opacity="0.498039215686275" />
  </g>
</svg>