<?xml version="1.0" encoding="utf-8"?>
<svg version="1.1" xmlns:xlink="http://www.w3.org/1999/xlink" width="53px" height="51px" xmlns="http://www.w3.org/2000/svg">
  <g transform="matrix(1 0 0 1 -27 -610 )">
    <path d="M 53.5 610  C 68.34 610  80 621.22  80 635.5  C 80 649.78  68.34 661  53.5 661  C 38.66 661  27 649.78  27 635.5  C 27 621.22  38.66 610  53.5 610  Z " fill-rule="nonzero" fill="#ffffff" stroke="none" />
    <path d="M 53.5 610.5  C 68.06 610.5  79.5 621.5  79.5 635.5  C 79.5 649.5  68.06 660.5  53.5 660.5  C 38.94 660.5  27.5 649.5  27.5 635.5  C 27.5 621.5  38.94 610.5  53.5 610.5  Z " stroke-width="1" stroke="#d7d7d7" fill="none" />
  </g>
</svg>