<?xml version="1.0" encoding="utf-8"?>
<svg version="1.1" xmlns:xlink="http://www.w3.org/1999/xlink" width="66px" height="50px" xmlns="http://www.w3.org/2000/svg">
  <g transform="matrix(1 0 0 1 -579 -501 )">
    <path d="M 612 501  C 630.48 501  645 512  645 526  C 645 540  630.48 551  612 551  C 593.52 551  579 540  579 526  C 579 512  593.52 501  612 501  Z " fill-rule="nonzero" fill="#ffffff" stroke="none" />
    <path d="M 612 501.5  C 630.2 501.5  644.5 512.28  644.5 526  C 644.5 539.72  630.2 550.5  612 550.5  C 593.8 550.5  579.5 539.72  579.5 526  C 579.5 512.28  593.8 501.5  612 501.5  Z " stroke-width="1" stroke="#797979" fill="none" />
  </g>
</svg>