<?xml version="1.0" encoding="utf-8"?>
<svg version="1.1" xmlns:xlink="http://www.w3.org/1999/xlink" width="31px" height="31px" xmlns="http://www.w3.org/2000/svg">
  <defs>
    <mask fill="white" id="clip53">
      <path d="M 0 15.5  C 0 24.0604136219  6.9395863781 31  15.5 31  C 24.0604136219 31  31 24.0604136219  31 15.5  C 31 6.9395863781  24.0604136219 0  15.5 0  C 6.9395863781 0  0 6.9395863781  0 15.5  Z " fill-rule="evenodd" />
    </mask>
  </defs>
  <g transform="matrix(1 0 0 1 -281 -208 )">
    <path d="M 0 15.5  C 0 24.0604136219  6.9395863781 31  15.5 31  C 24.0604136219 31  31 24.0604136219  31 15.5  C 31 6.9395863781  24.0604136219 0  15.5 0  C 6.9395863781 0  0 6.9395863781  0 15.5  Z " fill-rule="nonzero" fill="#ffffff" stroke="none" fill-opacity="0" transform="matrix(1 0 0 1 281 208 )" />
    <path d="M 0 15.5  C 0 24.0604136219  6.9395863781 31  15.5 31  C 24.0604136219 31  31 24.0604136219  31 15.5  C 31 6.9395863781  24.0604136219 0  15.5 0  C 6.9395863781 0  0 6.9395863781  0 15.5  Z " stroke-width="1.6" stroke="#242424" fill="none" transform="matrix(1 0 0 1 281 208 )" mask="url(#clip53)" />
  </g>
</svg>