<?xml version="1.0" encoding="utf-8"?>
<svg version="1.1" xmlns:xlink="http://www.w3.org/1999/xlink" width="14px" height="11px" xmlns="http://www.w3.org/2000/svg">
  <g transform="matrix(1 0 0 1 -5 -188 )">
    <path d="M 12 188  C 15.92 188  19 190.42  19 193.5  C 19 196.58  15.92 199  12 199  C 8.08 199  5 196.58  5 193.5  C 5 190.42  8.08 188  12 188  Z " fill-rule="nonzero" fill="#aaaaaa" stroke="none" />
    <path d="M 12 188.5  C 15.64 188.5  18.5 190.7  18.5 193.5  C 18.5 196.3  15.64 198.5  12 198.5  C 8.36 198.5  5.5 196.3  5.5 193.5  C 5.5 190.7  8.36 188.5  12 188.5  Z " stroke-width="1" stroke="#7f7f7f" fill="none" />
  </g>
</svg>