<?xml version="1.0" encoding="utf-8"?>
<svg version="1.1" xmlns:xlink="http://www.w3.org/1999/xlink" width="12px" height="12px" viewBox="30 206  12 12" xmlns="http://www.w3.org/2000/svg">
  <path d="M 30.5 211  A 4.5 4.5 0 0 1 35 206.5 L 37 206.5  A 4.5 4.5 0 0 1 41.5 211 L 41.5 213  A 4.5 4.5 0 0 1 37 217.5 L 35 217.5  A 4.5 4.5 0 0 1 30.5 213 L 30.5 211  Z " fill-rule="nonzero" fill="#ffffff" stroke="none" />
  <path d="M 30.5 211  A 4.5 4.5 0 0 1 35 206.5 L 37 206.5  A 4.5 4.5 0 0 1 41.5 211 L 41.5 213  A 4.5 4.5 0 0 1 37 217.5 L 35 217.5  A 4.5 4.5 0 0 1 30.5 213 L 30.5 211  Z " stroke-width="1" stroke="#797979" fill="none" />
  <path d="M 32.5714285714286 212  L 35.1428571428571 214.571428571429  L 39.4285714285714 208.571428571429  " stroke-width="2.57142857142857" stroke="#797979" fill="none" />
</svg>