<?xml version="1.0" encoding="utf-8"?>
<svg version="1.1" xmlns:xlink="http://www.w3.org/1999/xlink" width="11px" height="15px" xmlns="http://www.w3.org/2000/svg">
  <g transform="matrix(1 0 0 1 -167 -200 )">
    <path d="M 0.189003436425992 7.15430861723446  C 0.0630011454754822 7.25450901803609  0 7.36973947895788  0 7.5  C 0 7.63026052104212  0.0630011454754822 7.74549098196391  0.189003436425992 7.84569138276554  L 8.99656357388312 14.8496993987976  C 9.12256586483386 14.9498997995992  9.2674684994272 15  9.43127147766313 15  C 9.59507445589929 15  9.73997709049263 14.9498997995992  9.86597938144314 14.8496993987976  L 10.810996563574 14.0981963927855  C 10.9369988545245 13.997995991984  11 13.8827655310621  11 13.75250501002  C 11 13.622244488978  10.9369988545245 13.5070140280562  10.810996563574 13.4068136272544  L 3.38316151202753 7.5  L 10.810996563574 1.59318637274556  C 10.9369988545245 1.49298597194378  11 1.37775551102198  11 1.24749498998002  C 11 1.11723446893791  10.9369988545245 1.00200400801596  10.810996563574 0.901803607214488  L 9.86597938144314 0.150300601202441  C 9.73997709049263 0.0501002004008135  9.59507445589929 0  9.43127147766313 0  C 9.2674684994272 0  9.12256586483386 0.0501002004008135  8.99656357388312 0.150300601202441  L 0.189003436425992 7.15430861723446  Z " fill-rule="nonzero" fill="#aaaaaa" stroke="none" transform="matrix(1 0 0 1 167 200 )" />
  </g>
</svg>