<?xml version="1.0" encoding="utf-8"?>
<svg version="1.1" xmlns:xlink="http://www.w3.org/1999/xlink" width="12px" height="12px" viewBox="31 33  12 12" xmlns="http://www.w3.org/2000/svg">
  <path d="M 31.5 38  A 4.5 4.5 0 0 1 36 33.5 L 38 33.5  A 4.5 4.5 0 0 1 42.5 38 L 42.5 40  A 4.5 4.5 0 0 1 38 44.5 L 36 44.5  A 4.5 4.5 0 0 1 31.5 40 L 31.5 38  Z " fill-rule="nonzero" fill="#f0f0f0" stroke="none" />
  <path d="M 31.5 38  A 4.5 4.5 0 0 1 36 33.5 L 38 33.5  A 4.5 4.5 0 0 1 42.5 38 L 42.5 40  A 4.5 4.5 0 0 1 38 44.5 L 36 44.5  A 4.5 4.5 0 0 1 31.5 40 L 31.5 38  Z " stroke-width="1" stroke="#797979" fill="none" />
</svg>