<?xml version="1.0" encoding="utf-8"?>
<svg version="1.1" xmlns:xlink="http://www.w3.org/1999/xlink" width="12px" height="12px" viewBox="52 860  12 12" xmlns="http://www.w3.org/2000/svg">
  <path d="M 52.5 865  A 4.5 4.5 0 0 1 57 860.5 L 59 860.5  A 4.5 4.5 0 0 1 63.5 865 L 63.5 867  A 4.5 4.5 0 0 1 59 871.5 L 57 871.5  A 4.5 4.5 0 0 1 52.5 867 L 52.5 865  Z " fill-rule="nonzero" fill="#ffffff" stroke="none" />
  <path d="M 52.5 865  A 4.5 4.5 0 0 1 57 860.5 L 59 860.5  A 4.5 4.5 0 0 1 63.5 865 L 63.5 867  A 4.5 4.5 0 0 1 59 871.5 L 57 871.5  A 4.5 4.5 0 0 1 52.5 867 L 52.5 865  Z " stroke-width="1" stroke="#797979" fill="none" />
  <path d="M 54.5714285714286 866  L 57.1428571428571 868.571428571429  L 61.4285714285714 862.571428571429  " stroke-width="2.57142857142857" stroke="#797979" fill="none" />
</svg>