<?xml version="1.0" encoding="utf-8"?>
<svg version="1.1" xmlns:xlink="http://www.w3.org/1999/xlink" width="12px" height="12px" viewBox="617 773  12 12" xmlns="http://www.w3.org/2000/svg">
  <path d="M 617.5 778  A 4.5 4.5 0 0 1 622 773.5 L 624 773.5  A 4.5 4.5 0 0 1 628.5 778 L 628.5 780  A 4.5 4.5 0 0 1 624 784.5 L 622 784.5  A 4.5 4.5 0 0 1 617.5 780 L 617.5 778  Z " fill-rule="nonzero" fill="#f0f0f0" stroke="none" />
  <path d="M 617.5 778  A 4.5 4.5 0 0 1 622 773.5 L 624 773.5  A 4.5 4.5 0 0 1 628.5 778 L 628.5 780  A 4.5 4.5 0 0 1 624 784.5 L 622 784.5  A 4.5 4.5 0 0 1 617.5 780 L 617.5 778  Z " stroke-width="1" stroke="#797979" fill="none" />
</svg>