<?xml version="1.0" encoding="utf-8"?>
<svg version="1.1" xmlns:xlink="http://www.w3.org/1999/xlink" width="12px" height="12px" viewBox="22 159  12 12" xmlns="http://www.w3.org/2000/svg">
  <path d="M 22.5 164  A 4.5 4.5 0 0 1 27 159.5 L 29 159.5  A 4.5 4.5 0 0 1 33.5 164 L 33.5 166  A 4.5 4.5 0 0 1 29 170.5 L 27 170.5  A 4.5 4.5 0 0 1 22.5 166 L 22.5 164  Z " fill-rule="nonzero" fill="#f0f0f0" stroke="none" />
  <path d="M 22.5 164  A 4.5 4.5 0 0 1 27 159.5 L 29 159.5  A 4.5 4.5 0 0 1 33.5 164 L 33.5 166  A 4.5 4.5 0 0 1 29 170.5 L 27 170.5  A 4.5 4.5 0 0 1 22.5 166 L 22.5 164  Z " stroke-width="1" stroke="#797979" fill="none" />
</svg>