<?xml version="1.0" encoding="utf-8"?>
<svg version="1.1" xmlns:xlink="http://www.w3.org/1999/xlink" width="11px" height="10px" xmlns="http://www.w3.org/2000/svg">
  <g transform="matrix(1 0 0 1 -348 -1135 )">
    <path d="M 5.96555488596277 9.42231438948875  C 5.89556101934272 9.53880374559503  5.80820852436455 9.63386989934293  5.71205476844762 9.70251410860396  C 5.57205873320504 9.87539481445151  5.32534462017543 9.91853897084184  5.07750204073841 9.8358739239427  C 4.97439680616776 9.80148435669912  4.87109627340465 9.74532160255353  4.77520257738934 9.66766841863637  L 1.27804575083292 6.83572665891188  C 0.951644447020954 6.57141209467113  0.8509430765248 6.17139274016404  1.04917899970565 5.92659176230495  L 1.28517414634939 5.63516202675874  C 1.48341006953024 5.39036104889965  1.89562503359571 5.40569315248558  2.22202633740767 5.67000771672656  L 5.07973690304266 7.98415704394415  L 9.05762757164507 1.36383522115557  C 9.27394356310742 1.00382495486065  9.65605503475149 0.848431669169258  9.92606273447245 1.01066866276597  L 10.247500472236 1.20380794085713  C 10.5175081719569 1.36604493445384  10.5596945141606 1.77638206722577  10.3433785226982 2.13639233352069  L 5.96555488596277 9.42231438948875  Z " fill-rule="nonzero" fill="#ffffff" stroke="none" transform="matrix(1 0 0 1 348 1135 )" />
  </g>
</svg>