<?xml version="1.0" encoding="utf-8"?>
<svg version="1.1" xmlns:xlink="http://www.w3.org/1999/xlink" width="20px" height="5px" xmlns="http://www.w3.org/2000/svg">
  <g transform="matrix(1 0 0 1 -136 -1011 )">
    <path d="M 0.757480720990316 3.24739916131261  C 2.14038396915953 4.72855965656004  5.98681977964043 4.58970086013051  8.55236979468623 4.35055515516888  C 7.33949563440683 2.7999652617068  5.85457493350395 1.07965906149752  3.82933957552973 0.250363471710671  C 2.37842469220482 -0.335929224324673  1.53583610110741 0.285078170817997  0.927509808880131 1.31880476645938  C 0.591230057276107 1.90509746249472  0.25117188149693 2.66110646527727  0.757480720990316 3.24739916131261  Z M 15.1683905256805 4.3852698542762  C 16.5172879562717 4.31584045606155  18.9468147010059 4.21555354752923  19.7251700811228 3.24739916131284  C 20.73778776011 1.93981216160228  18.7805640372915 -0.783363123930485  16.6533112265834 0.215648772603572  C 14.6280758686091 1.17994597003008  13.1771609852842 2.76525056259948  11.9302810074269 4.31584045606155  C 13.0109103215698 4.41998455338353  14.0915396357129 4.45469925249108  15.1683905256805 4.3852698542762  Z " fill-rule="nonzero" fill="#ecc193" stroke="none" transform="matrix(1 0 0 1 136 1011 )" />
  </g>
</svg>