<?xml version="1.0" encoding="utf-8"?>
<svg version="1.1" xmlns:xlink="http://www.w3.org/1999/xlink" width="38px" height="11px" xmlns="http://www.w3.org/2000/svg">
  <g transform="matrix(1 0 0 1 -297 -1011 )">
    <path d="M 2.26539222835709 10.5  C 3.83805604750478 10.5  5.11391811647036 9.25563909774428  5.11391811647036 7.72180451127815  C 5.11391811647036 6.98120300751884  4.80940722991977 6.30827067669179  4.32373163871239 5.80827067669179  C 3.98838420668812 7.50375939849619  2.55448484217095 8.97368421052624  0.5 9.88721804511283  C 0.985675591207382 10.2669172932331  1.59469736430879 10.5  2.26539222835709 10.5  Z M 34.6553286800711 10.5  C 36.2279924992188 10.5  37.5000000000002 9.25939849624069  37.5000000000002 7.72556390977434  C 37.4961454318161 6.98872180451121  37.1993436816338 6.32706766917295  36.7213772267946 5.83082706766913  C 36.3320658401919 7.50375939849619  34.8750390665696 8.93984962406012  32.8166996562143 9.82706766917295  C 33.3139389519743 10.2406015037593  33.949942702365 10.5  34.6553286800711 10.5  Z M 18.4584331701221 7.04135338345873  C 20.7827377851861 7.04135338345873  22.6676216272531 5.20300751879699  22.6676216272531 2.93609022556393  C 22.663767059069 1.78571428571422  22.1742368996772 0.744360902255721  21.3879049901034 0  C 21.4765600583396 0.248120300751907  21.5266694447341 0.507518796992599  21.5266694447341 0.77067669172925  C 21.5266694447341 2.70300751879699  19.0558912386709 4.27067669172948  16.0107823731641 4.27067669172948  C 15.4595791228255 4.27067669172948  14.9276487134077 4.21804511278197  14.4265548494636 4.12030075187977  C 14.9469215543288 5.81203007518798  16.5542764871343 7.04135338345873  18.4584331701221 7.04135338345873  Z " fill-rule="nonzero" fill="#c1925d" stroke="none" transform="matrix(1 0 0 1 297 1011 )" />
  </g>
</svg>