<?xml version="1.0" encoding="utf-8"?>
<svg version="1.1" xmlns:xlink="http://www.w3.org/1999/xlink" width="40px" height="40px" xmlns="http://www.w3.org/2000/svg">
  <g transform="matrix(1 0 0 1 -21 -2146 )">
    <path d="M 41 2146  C 52.2 2146  61 2154.8  61 2166  C 61 2177.2  52.2 2186  41 2186  C 29.8 2186  21 2177.2  21 2166  C 21 2154.8  29.8 2146  41 2146  Z " fill-rule="nonzero" fill="#ffffff" stroke="none" />
    <path d="M 41 2146.5  C 51.92 2146.5  60.5 2155.08  60.5 2166  C 60.5 2176.92  51.92 2185.5  41 2185.5  C 30.08 2185.5  21.5 2176.92  21.5 2166  C 21.5 2155.08  30.08 2146.5  41 2146.5  Z " stroke-width="1" stroke="#e6e6e6" fill="none" />
  </g>
</svg>