<?xml version="1.0" encoding="utf-8"?>
<svg version="1.1" xmlns:xlink="http://www.w3.org/1999/xlink" width="80px" height="29px" xmlns="http://www.w3.org/2000/svg">
  <defs>
    <mask fill="white" id="clip56">
      <path d="M 14.5 29  C 6.38 29  0 22.62  0 14.5  C 0 6.38  6.38 0  14.5 0  L 47 0  L 65.5 0  C 73.62 0  80 6.38  80 14.5  C 80 22.62  73.62 29  65.5 29  L 14.5 29  Z " fill-rule="evenodd" />
    </mask>
  </defs>
  <g transform="matrix(1 0 0 1 -328 -545 )">
    <path d="M 14.5 29  C 6.38 29  0 22.62  0 14.5  C 0 6.38  6.38 0  14.5 0  L 47 0  L 65.5 0  C 73.62 0  80 6.38  80 14.5  C 80 22.62  73.62 29  65.5 29  L 14.5 29  Z " fill-rule="nonzero" fill="#ffffff" stroke="none" transform="matrix(1 0 0 1 328 545 )" />
    <path d="M 14.5 29  C 6.38 29  0 22.62  0 14.5  C 0 6.38  6.38 0  14.5 0  L 47 0  L 65.5 0  C 73.62 0  80 6.38  80 14.5  C 80 22.62  73.62 29  65.5 29  L 14.5 29  Z " stroke-width="2" stroke="#797979" fill="none" transform="matrix(1 0 0 1 328 545 )" mask="url(#clip56)" />
  </g>
</svg>