<?xml version="1.0" encoding="utf-8"?>
<svg version="1.1" xmlns:xlink="http://www.w3.org/1999/xlink" width="15px" height="15px" xmlns="http://www.w3.org/2000/svg">
  <g transform="matrix(1 0 0 1 -348 -317 )">
    <path d="M 355.5 319  C 358.58 319  361 321.42  361 324.5  C 361 327.58  358.58 330  355.5 330  C 352.42 330  350 327.58  350 324.5  C 350 321.42  352.42 319  355.5 319  Z " fill-rule="nonzero" fill="#0079fe" stroke="none" />
    <path d="M 355.5 318.5  C 358.86 318.5  361.5 321.14  361.5 324.5  C 361.5 327.86  358.86 330.5  355.5 330.5  C 352.14 330.5  349.5 327.86  349.5 324.5  C 349.5 321.14  352.14 318.5  355.5 318.5  Z " stroke-width="3" stroke="#ffffff" fill="none" />
  </g>
</svg>