<?xml version="1.0" encoding="utf-8"?>
<svg version="1.1" xmlns:xlink="http://www.w3.org/1999/xlink" width="23px" height="18px" xmlns="http://www.w3.org/2000/svg">
  <g transform="matrix(1 0 0 1 -130 -766 )">
    <path d="M 20.5 0  C 21.6199999999999 0  22.5 0.879999999999995  22.5 2  L 22.4999999997426 6  L 15.5 6  C 13.8200000000002 6  12.5 7.32000000000005  12.5 9  C 12.5 10.68  13.8200000000002 12  15.5 12  L 22.5 12.0000041620881  L 22.5 16  C 22.5 17.12  21.6199999999999 18  20.5 18  L 2.5 18  C 1.38000000000011 18  0.5 17.12  0.5 16  L 0.5 2  C 0.5 0.879999999999995  1.38000000000011 0  2.5 0  L 20.5 0  Z M 17.687628237858 7.51399810177281  C 16.8592011131582 7.51399810177281  16.187628237858 8.18557097707276  16.187628237858 9.01399810177281  C 16.187628237858 9.84242522647287  16.8592011131582 10.5139981017728  17.687628237858 10.5139981017728  C 18.5160553625578 10.5139981017728  19.187628237858 9.84242522647287  19.187628237858 9.01399810177281  C 19.187628237858 8.18557097707276  18.5160553625578 7.51399810177281  17.687628237858 7.51399810177281  Z " fill-rule="nonzero" fill="#303030" stroke="none" transform="matrix(1 0 0 1 130 766 )" />
  </g>
</svg>