<?xml version="1.0" encoding="utf-8"?>
<svg version="1.1" xmlns:xlink="http://www.w3.org/1999/xlink" width="24px" height="19px" xmlns="http://www.w3.org/2000/svg">
  <g transform="matrix(1 0 0 1 -215 -765 )">
    <path d="M 24 7.12505124166648  C 23.9998619165976 5.81504095737412  22.9244683789008 4.75003416111099  21.5998342999171 4.75003416111099  C 20.275062137531 4.75003416111099  19.1998066832367 5.81504095737412  19.1998066832367 7.12505124166648  C 19.1998066832367 7.43769372945838  19.2616680475007 7.73544197285809  19.3713062689864 8.00818428301221  C 19.3713062689864 8.00818428301221  15.5998342999171 9.49993167777801  15.5998342999171 9.49993167777801  C 15.5998342999171 9.49993167777801  13.0723557028445 4.49765187310765  13.0723557028445 4.49765187310765  C 13.8866205380309 4.09734194823006  14.4010815655315 3.27475434153356  14.3998895332781 2.37501708055549  C 14.3998895332781 1.0651434407071  13.3244959955813 0  11.9998619165976 0  C 10.6750897542115 0  9.59997238331952 1.0651434407071  9.59997238331952 2.37501708055549  C 9.59997238331952 3.30460923284932  10.1398784866059 4.11176796335052  10.9275062137531 4.49765187310765  C 10.9275062137531 4.49765187310765  8.40002761668047 9.49993167777801  8.40002761668047 9.49993167777801  C 8.40002761668047 9.49993167777801  4.62758906379453 8.00818428301221  4.62758906379453 8.00818428301221  C 4.74163109304757 7.72743289311007  4.80017821657862 7.42763555084866  4.80005523336095 7.12505124166648  C 4.80005523336095 5.81517760181809  3.72479977906655 4.75003416111099  2.40002761668047 4.75003416111099  C 1.07525545429439 4.75003416111099  0 5.81517760181809  0 7.12505124166648  C 0 8.43779441483814  1.07525545429439 9.50006832222197  2.40002761668047 9.50006832222197  C 2.53507318420326 9.50006832222197  2.67011875172604 9.49077650003236  2.8003314001657 9.46672707789452  C 2.8003314001657 9.46672707789452  4.07898370615852 16.9831280070767  4.07898370615852 16.9831280070767  C 4.19994476663905 18.1705682251325  5.27892847279757 19  6.35901684617508 19  C 6.35901684617508 19  17.5208505937586 19  17.5208505937586 19  C 18.7207953603977 19  19.678956089478 18.1705682251325  19.9208782104391 16.9831280070767  C 19.9208782104391 16.9831280070767  21.1996685998343 9.46672707789452  21.1996685998343 9.46672707789452  C 21.3298812482739 9.49091314447632  21.4649268157967 9.50006832222197  21.5999723833195 9.50006832222197  C 22.9246064623032 9.50006832222197  24 8.43779441483814  24 7.12505124166648  Z " fill-rule="nonzero" fill="#d8d8d8" stroke="none" transform="matrix(1 0 0 1 215 765 )" />
  </g>
</svg>