<?xml version="1.0" encoding="utf-8"?>
<svg version="1.1" xmlns:xlink="http://www.w3.org/1999/xlink" width="18px" height="18px" xmlns="http://www.w3.org/2000/svg">
  <g transform="matrix(1 0 0 1 -25 -47 )">
    <path d="M 14.9999999941407 8.25015000585938  C 14.9999999941407 11.9724000117187  11.97225 15.0001500058594  8.24999999414069 15.0001500058594  C 4.52774998828113 15.0001500058594  1.49999999414069 11.9724000117187  1.49999999414069 8.25015000585938  C 1.49999999414069 4.52790000000005  4.52774998828113 1.50015000585938  8.24999999414069 1.50015000585938  C 11.97225 1.50015000585938  14.9999999941407 4.52790000000005  14.9999999941407 8.25015000585938  Z M 17.7809999941406 17.7811500058594  C 18.0727148033562 17.4878321322269  18.0727148033562 17.0139678736324  17.7809999941406 16.72065  L 14.5889999999999 13.5279  C 15.7814999999999 12.0976500058594  16.5000000058593 10.2578999941406  16.5000000058593 8.25015000585938  C 16.5000000058593 3.6939000058594  12.8062500117187 0.000150011718687892  8.24999999414069 0.000149994140656418  C 3.69374997656246 0.000149976562511256  0 3.69389998828126  0 8.25015000585938  C 0 12.8064000234375  3.6937499941406 16.50015  8.24999999414069 16.50015  C 10.25775 16.50015  12.0974999941407 15.7816499941406  13.5277500058593 14.5891499941407  L 16.7205000058593 17.7811500058594  C 17.0138178774437 18.0728648034203  17.4876821225563 18.0728648034203  17.7809999941406 17.7811500058594  Z " fill-rule="nonzero" fill="#999999" stroke="none" transform="matrix(1 0 0 1 25 47 )" />
  </g>
</svg>