<?xml version="1.0" encoding="utf-8"?>
<svg version="1.1" xmlns:xlink="http://www.w3.org/1999/xlink" width="50px" height="22px" xmlns="http://www.w3.org/2000/svg">
  <g transform="matrix(1 0 0 1 -1228 -171 )">
    <path d="M 49.7106481481481 10.2704811443433  C 49.9035493827161 10.4612050281751  50 10.6805374945817  50 10.9284785435631  C 50 11.1954919809276  49.9035493827161 11.4243606415258  49.7106481481481 11.6150845253576  L 38.599537037037 21.742522756827  C 38.2908950617284 22.0095361941916  37.9533179012346 22.0667533593411  37.5868055555556 21.9141742522757  C 37.2202932098766 21.742522756827  37.037037037037 21.4659731252709  37.037037037037 21.0845253576073  L 37.037037037037 14.6762028608583  L 0.925925925925926 14.6762028608583  C 0.655864197530864 14.6762028608583  0.434027777777778 14.5903771131339  0.260416666666667 14.4187256176853  C 0.0868055555555556 14.2470741222367  0 14.0277416558301  0 13.7607282184655  L 0 8.26788036410923  C 0 8.00086692674469  0.0868055555555556 7.7815344603381  0.260416666666667 7.60988296488947  C 0.434027777777778 7.43823146944083  0.655864197530864 7.35240572171652  0.925925925925926 7.35240572171652  L 37.037037037037 7.35240572171652  L 37.037037037037 0.944083224967491  C 37.037037037037 0.543563068920677  37.2202932098766 0.267013437364541  37.5868055555556 0.11443433029909  C 37.9533179012346 -0.0381447767663659  38.2908950617284 0.00953619419158902  38.599537037037 0.257477243172952  L 49.7106481481481 10.2704811443433  Z " fill-rule="nonzero" fill="#ffffff" stroke="none" transform="matrix(1 0 0 1 1228 171 )" />
  </g>
</svg>