<?xml version="1.0" encoding="utf-8"?>
<svg version="1.1" xmlns:xlink="http://www.w3.org/1999/xlink" width="19px" height="19px" xmlns="http://www.w3.org/2000/svg">
  <g transform="matrix(1 0 0 1 -70 -144 )">
    <path d="M 15.8333333271485 8.70849167285157  C 15.8333333271485 12.6375333457031  12.637375 15.8334916728516  8.70833332714851 15.8334916728516  C 4.77929165429675 15.8334916728516  1.58333332714851 12.6375333457031  1.58333332714851 8.70849167285157  C 1.58333332714851 4.77945000000005  4.77929165429675 1.58349167285157  8.70833332714851 1.58349167285157  C 12.637375 1.58349167285157  15.8333333271485 4.77945000000005  15.8333333271485 8.70849167285157  Z M 18.7688333271485 18.7689916728516  C 19.0767545146538 18.4593783617951  19.0767545146538 17.9591883110564  18.7688333271485 17.649575  L 15.3994999999999 14.27945  C 16.6582499999999 12.7697416728515  17.4166666728515 10.8277833271485  17.4166666728515 8.70849167285157  C 17.4166666728515 3.89911667285159  13.5177083457031 0.000158345703059442  8.70833332714851 0.000158327148470663  C 3.89895830859371 0.000158308593761881  0 3.89911665429688  0 8.70849167285157  C 0 13.5178666914063  3.89895832714841 17.416825  8.70833332714851 17.416825  C 10.827625 17.416825  12.7695833271485 16.6584083271484  14.2792916728515 15.3996583271485  L 17.6494166728515 18.7689916728516  C 17.9590299817461 19.0769128480548  18.4592200182539 19.0769128480548  18.7688333271485 18.7689916728516  Z " fill-rule="nonzero" fill="#999999" stroke="none" transform="matrix(1 0 0 1 70 144 )" />
  </g>
</svg>