<?xml version="1.0" encoding="utf-8"?>
<svg version="1.1" xmlns:xlink="http://www.w3.org/1999/xlink" width="33px" height="32px" xmlns="http://www.w3.org/2000/svg">
  <g transform="matrix(1 0 0 1 111 16 )">
    <path d="M 8.2177734375 2.14583333333333  C 10.7457682291667 0.715277777777775  13.5065104166667 0  16.5 0  C 19.4934895833333 0  22.2542317708333 0.715277777777775  24.7822265625 2.14583333333333  C 27.3102213541667 3.57638888888889  29.3118489583333 5.51736111111111  30.787109375 7.96875  C 32.2623697916667 10.4201388888889  33 13.0972222222222  33 16  C 33 18.9027777777778  32.2623697916667 21.5798611111111  30.787109375 24.03125  C 29.3118489583333 26.4826388888889  27.3102213541667 28.4236111111111  24.7822265625 29.8541666666667  C 22.2542317708333 31.2847222222222  19.4934895833333 32  16.5 32  C 13.5065104166667 32  10.7457682291667 31.2847222222222  8.2177734375 29.8541666666667  C 5.68977864583333 28.4236111111111  3.68815104166667 26.4826388888889  2.212890625 24.03125  C 0.737630208333333 21.5798611111111  0 18.9027777777778  0 16  C 0 13.0972222222222  0.737630208333333 10.4201388888889  2.212890625 7.96875  C 3.68815104166667 5.51736111111111  5.68977864583333 3.57638888888889  8.2177734375 2.14583333333333  Z M 13.0625 23.8125  L 24.75 17.1458333333333  C 25.2083333333333 16.8958333333333  25.4375 16.5138888888889  25.4375 16  C 25.4375 15.4861111111111  25.2083333333333 15.1041666666667  24.75 14.8541666666667  L 13.0625 8.1875  C 12.6184895833333 7.92361111111111  12.16015625 7.91666666666667  11.6875 8.16666666666667  C 11.2291666666667 8.43055555555555  11 8.81944444444444  11 9.33333333333333  L 11 22.6666666666667  C 11 23.1805555555556  11.2291666666667 23.5694444444444  11.6875 23.8333333333333  C 11.9166666666667 23.9444444444444  12.1458333333333 24  12.375 24  C 12.6184895833333 24  12.84765625 23.9375  13.0625 23.8125  Z " fill-rule="nonzero" fill="#000000" stroke="none" transform="matrix(1 0 0 1 -111 -16 )" />
  </g>
</svg>