<?xml version="1.0" encoding="utf-8"?>
<svg version="1.1" xmlns:xlink="http://www.w3.org/1999/xlink" width="36px" height="42px" xmlns="http://www.w3.org/2000/svg">
  <g transform="matrix(1 0 0 1 -771 -111 )">
    <path d="M 15.8149038461538 3.92578125  C 15.28125 3.30859375  14.625 3  13.8461538461538 3  C 13.0817307692308 3  12.4290865384615 3.29296875  11.8882211538462 3.87890625  C 11.3473557692308 4.46484375  11.0769230769231 5.17187499999999  11 6  L 11 18  L 11.0769230769231 27  L 7.81009615384615 22.265625  C 7.21875 21.421875  6.44711538461539 21  5.49519230769231 21  C 4.74519230769231 21  4.10336538461539 21.296875  3.56971153846154 21.890625  C 3.03605769230769 22.484375  2.76923076923077 23.1875  2.76923076923077 24  C 2.76923076923077 24.671875  2.95673076923077 25.2734375  3.33173076923077 25.8046875  L 11.6394230769231 37.8046875  C 12.1875 38.6015625  12.9230769230769 39  13.8461538461538 39  L 29.3798076923077 39  C 29.6971153846154 39  29.9819711538462 38.89453125  30.234375 38.68359375  C 30.4867788461538 38.47265625  30.6490384615385 38.203125  30.7211538461538 37.875  L 32.7115384615385 29.25  C 33.0576923076923 27.75  33.2307692307692 26.234375  33.2307692307692 24.703125  L 33.2307692307692 19.6171875  C 33.2307692307692 18.9765625  33.0288461538462 18.421875  32.625 17.953125  C 32.2211538461538 17.484375  31.7307692307692 17.25  31.1538461538462 17.25  C 30.5769230769231 17.25  30.0865384615385 17.46875  29.6826923076923 17.90625  C 29.2788461538462 18.34375  29.0769230769231 18.875  29.0769230769231 19.5  L 28.3846153846154 19.5  L 28.3846153846154 18.0703125  C 28.3846153846154 17.3203125  28.1538461538462 16.68359375  27.6923076923077 16.16015625  C 27.2307692307692 15.63671875  26.6538461538462 15.375  25.9615384615385 15.375  C 25.2980769230769 15.375  24.7283653846154 15.6328125  24.2524038461538 16.1484375  C 23.7764423076923 16.6640625  23.5384615384615 17.28125  23.5384615384615 18  L 23.5384615384615 19.5  L 22.8461538461538 19.5  L 22.8461538461538 17.390625  C 22.8461538461538 16.53125  22.5793269230769 15.79296875  22.0456730769231 15.17578125  C 21.5120192307692 14.55859375  20.8557692307692 14.25  20.0769230769231 14.25  C 19.3125 14.25  18.6598557692308 14.54296875  18.1189903846154 15.12890625  C 17.578125 15.71484375  17.3076923076923 16.421875  17.3076923076923 17.25  L 17.3076923076923 19.5  L 17 19.5  L 17 6.140625  C 16.6153846153846 5.28125  16.3485576923077 4.54296875  15.8149038461538 3.92578125  Z M 9.93028846153846 1.7578125  C 11.0120192307692 0.585937500000002  12.3173076923077 0  13.8461538461538 0  C 15.3894230769231 0  16.6983173076923 0.605468750000002  17.7728365384615 1.81640625  C 18.8473557692308 3.02734375  19.3846153846154 4.46875  19.3846153846154 6.140625  L 19.3846153846154 11.296875  C 19.7019230769231 11.265625  19.9326923076923 11.25  20.0769230769231 11.25  C 21.5048076923077 11.25  22.7524038461538 11.7890625  23.8197115384615 12.8671875  C 24.4975961538462 12.5390625  25.2115384615385 12.375  25.9615384615385 12.375  C 27.5913461538462 12.375  28.9182692307692 13.0546875  29.9423076923077 14.4140625  C 30.3317307692308 14.3046875  30.7355769230769 14.25  31.1538461538462 14.25  C 32.5096153846154 14.25  33.65625 14.77734375  34.59375 15.83203125  C 35.53125 16.88671875  36 18.1484375  36 19.6171875  L 36 24.703125  C 36 26.515625  35.7980769230769 28.2734375  35.3942307692308 29.9765625  L 33.4038461538462 38.6015625  C 33.1730769230769 39.6015625  32.6826923076923 40.41796875  31.9326923076923 41.05078125  C 31.1826923076923 41.68359375  30.3317307692308 42  29.3798076923077 42  L 13.8461538461538 42  C 12.9807692307692 42  12.1550480769231 41.78515625  11.3689903846154 41.35546875  C 10.5829326923077 40.92578125  9.93028846153846 40.34375  9.41105769230769 39.609375  L 1.10336538461538 27.609375  C 0.367788461538462 26.546875  0 25.34375  0 24  C 0 22.359375  0.537259615384615 20.94921875  1.61177884615385 19.76953125  C 2.68629807692308 18.58984375  3.98076923076923 18  5.49519230769231 18  C 6.51923076923077 18  7.45673076923077 18.2734375  9 18.8203125  L 9 6  C 8.30769230769231 4.34375  8.84855769230769 2.9296875  9.93028846153846 1.7578125  Z M 15.9230769230769 33  L 16.6153846153846 33  L 16.6153846153846 24  L 15.9230769230769 24  L 15.9230769230769 33  Z M 21.4615384615385 33  L 22.1538461538462 33  L 22.1538461538462 24  L 21.4615384615385 24  L 21.4615384615385 33  Z M 27 33  L 27.6923076923077 33  L 27.6923076923077 24  L 27 24  L 27 33  Z " fill-rule="nonzero" fill="#ffffff" stroke="none" transform="matrix(1 0 0 1 771 111 )" />
  </g>
</svg>