<?xml version="1.0" encoding="utf-8"?>
<svg version="1.1" xmlns:xlink="http://www.w3.org/1999/xlink" width="20px" height="21px" xmlns="http://www.w3.org/2000/svg">
  <g transform="matrix(1 0 0 1 -332 -143 )">
    <path d="M 20 10.5  C 20 4.71001209375036  15.5142741964282 0  10 0  C 4.48641696428558 0  0 4.71001209375036  0 10.5  C 0 16.2899879062496  4.48572580357177 21  10 21  C 15.5135830357144 21  20 16.2899879062496  20 10.5  Z M 11.0121527455358 10.5029834765633  L 14.0792904241071 13.7340007968751  C 14.3578628125001 14.0279935312496  14.3571332589286 14.5020024140631  14.077869732143 14.7945034218743  C 13.9386027455357 14.9400080624998  13.7564459598216 15.0135062343747  13.5735980357144 15.0135062343747  C 13.3900205580358 15.0135062343747  13.2071726339286 14.940008039062  13.0678672321428 14.7930116718752  L 9.99642906249983 11.5582448437499  L 6.91500758928578 14.7592662187497  C 6.77574060267852 14.903279109375  6.59427497767865 14.9760112734367  6.4128477455356 14.9760112734367  C 6.22857910714265 14.9760112734367  6.0450016517857 14.9017470703126  5.90500508928562 14.7532589531257  C 5.62785339285711 14.4585001875001  5.63000363839274 13.9844913046877  5.9107262946427 13.6927563281246  L 8.9885768080353 10.4962504921875  L 5.92213029017876 7.26599917968706  C 5.6435579017857 6.9727321406247  5.64428745535724 6.49799756250009  5.92355098214284 6.20549655468785  C 6.20285292410699 5.9122295156255  6.65425154017885 5.91376157812479  6.93355348214254 6.20698828125014  L 10.0042620982144 9.44098907812527  L 13.0856835714285 6.2400080156247  C 13.3656766517856 5.94827303906259  13.8185343750001 5.95125649218717  14.0956860714286 6.24601528124963  C 14.3735289062502 6.54077404687428  14.3706875223211 7.01550862499985  14.0899648660711 7.30651790624979  L 11.0121527455358 10.5029834765633  Z " fill-rule="nonzero" fill="#999999" stroke="none" transform="matrix(1 0 0 1 332 143 )" />
  </g>
</svg>