<?xml version="1.0" encoding="utf-8"?>
<svg version="1.1" xmlns:xlink="http://www.w3.org/1999/xlink" width="168px" height="66px" xmlns="http://www.w3.org/2000/svg">
  <g transform="matrix(1 0 0 1 -104 -515 )">
    <path d="M 159.833333333333 66  L 87.5000000000002 66  L 45.5887779696426 66  L 5.83333333333359 66  C 4.25347222222297 66  2.8862847222234 65.5267210144899  1.73177083333326 64.5801630434838  C 0.577256944443449 63.6336050724635  0 62.5126811594176  0 61.2173913043534  C 0 59.9221014492748  0.577256944443449 58.8011775362291  1.73177083333326 57.8546195652229  L 42.5651041666667 24.3763586956538  C 43.7196180555566 23.4298007246406  45.0868055555568 22.9565217391305  46.6666666666661 22.9565217391305  C 48.2465277777767 22.9565217391305  49.6137152777766 23.4298007246406  50.7682291666667 24.3763586956538  L 61.9725272718271 33.5625095246181  L 96.9244791666666 2.17708333333263  C 98.5407986111142 0.725694444441676  100.454861111114 0  102.666666666667 0  C 104.878472222219 0  106.792534722219 0.725694444441676  108.408854166667 2.17708333333263  L 165.575520833333 53.5104166666674  C 167.191840277781 54.9618055555511  168 56.6805555555536  168 58.6666666666675  C 168 60.6527777777744  167.191840277781 62.3715277777767  165.575520833333 63.8229166666674  C 163.959201388886 65.2743055555511  162.045138888885 66  159.833333333333 66  Z " fill-rule="nonzero" fill="#ffffff" stroke="none" transform="matrix(1 0 0 1 104 515 )" />
  </g>
</svg>