<?xml version="1.0" encoding="utf-8"?>
<svg version="1.1" xmlns:xlink="http://www.w3.org/1999/xlink" width="18px" height="18px" xmlns="http://www.w3.org/2000/svg">
  <g transform="matrix(1 0 0 1 -23 -15 )">
    <path d="M 32 15  C 37.04 15  41 18.96  41 24  C 41 29.04  37.04 33  32 33  C 26.96 33  23 29.04  23 24  C 23 18.96  26.96 15  32 15  Z " fill-rule="nonzero" fill="#ffffff" stroke="none" />
    <path d="M 32 15.5  C 36.76 15.5  40.5 19.24  40.5 24  C 40.5 28.76  36.76 32.5  32 32.5  C 27.24 32.5  23.5 28.76  23.5 24  C 23.5 19.24  27.24 15.5  32 15.5  Z " stroke-width="1" stroke="#e4e4e4" fill="none" />
  </g>
</svg>