<?xml version="1.0" encoding="utf-8"?>
<svg version="1.1" xmlns:xlink="http://www.w3.org/1999/xlink" width="53px" height="20px" xmlns="http://www.w3.org/2000/svg">
  <g transform="matrix(1 0 0 1 -111 -14 )">
    <path d="M 156.0561611461 14.5  C 156.0561611461 14.5  157.713314887215 14.8126705171914  157.713314887215 14.8126705171914  C 157.713314887215 14.8126705171914  163.441885035319 24  163.441885035319 24  C 163.441885035319 24  157.713314887215 33.1873294828086  157.713314887215 33.1873294828086  C 157.713314887215 33.1873294828086  156.0561611461 33.5  156.0561611461 33.5  C 156.0561611461 33.5  111.5 33.5  111.5 33.5  C 111.5 33.5  111.5 14.5  111.5 14.5  C 111.5 14.5  156.0561611461 14.5  156.0561611461 14.5  Z " fill-rule="nonzero" fill="#ffffff" stroke="none" />
    <path d="M 156.0561611461 14.5  C 156.0561611461 14.5  157.713314887215 14.8126705171914  157.713314887215 14.8126705171914  C 157.713314887215 14.8126705171914  163.441885035319 24  163.441885035319 24  C 163.441885035319 24  157.713314887215 33.1873294828086  157.713314887215 33.1873294828086  C 157.713314887215 33.1873294828086  156.0561611461 33.5  156.0561611461 33.5  C 156.0561611461 33.5  111.5 33.5  111.5 33.5  C 111.5 33.5  111.5 14.5  111.5 14.5  C 111.5 14.5  156.0561611461 14.5  156.0561611461 14.5  Z " stroke-width="1" stroke="#e4e4e4" fill="none" />
  </g>
</svg>