<?xml version="1.0" encoding="utf-8"?>
<svg version="1.1" xmlns:xlink="http://www.w3.org/1999/xlink" width="37px" height="19px" xmlns="http://www.w3.org/2000/svg">
  <g transform="matrix(1 0 0 1 1 -8 )">
    <path d="M 0 19.4928932188133  C 0 19.4928932188133  0 9.2928932188133  0 9.2928932188133  C 0 9.2928932188133  34.9999999999999 9.2928932188133  34.9999999999999 9.2928932188133  C 34.9999999999999 9.2928932188133  34.9999999999999 19.4928932188133  34.9999999999999 19.4928932188133  C 34.9999999999999 19.4928932188133  24.5721513238345 19.4928932188133  24.5721513238345 19.4928932188133  C 24.5721513238345 19.4928932188133  13.4203486532635 25.5948167437551  13.4203486532635 25.5948167437551  C 13.4203486532635 25.5948167437551  6.89740900181345 19.4928932188133  6.89740900181345 19.4928932188133  C 6.89740900181345 19.4928932188133  0 19.4928932188133  0 19.4928932188133  Z " fill-rule="nonzero" fill="#ffffff" stroke="none" />
    <path d="M -0.500000000000155 19.9928932188133  C -0.500000000000155 19.9928932188133  -0.500000000000155 8.7928932188133  -0.500000000000155 8.7928932188133  C -0.500000000000155 8.7928932188133  35.4999999999999 8.7928932188133  35.4999999999999 8.7928932188133  C 35.4999999999999 8.7928932188133  35.4999999999999 19.9928932188133  35.4999999999999 19.9928932188133  C 35.4999999999999 19.9928932188133  24.6999999999999 19.9928932188133  24.6999999999999 19.9928932188133  C 24.6999999999999 19.9928932188133  13.3429773960447 26.2071067811864  13.3429773960447 26.2071067811864  C 13.3429773960447 26.2071067811864  6.69999999999986 19.9928932188133  6.69999999999986 19.9928932188133  C 6.69999999999986 19.9928932188133  -0.500000000000155 19.9928932188133  -0.500000000000155 19.9928932188133  Z M 0.499999999999845 18.9928932188133  C 0.499999999999845 18.9928932188133  7.09481800362689 18.9928932188133  7.09481800362689 18.9928932188133  C 7.09481800362689 18.9928932188133  13.4977199104824 24.9825267063238  13.4977199104824 24.9825267063238  C 13.4977199104824 24.9825267063238  24.444302647669 18.9928932188133  24.444302647669 18.9928932188133  C 24.444302647669 18.9928932188133  34.4999999999999 18.9928932188133  34.4999999999999 18.9928932188133  C 34.4999999999999 18.9928932188133  34.4999999999999 9.7928932188133  34.4999999999999 9.7928932188133  C 34.4999999999999 9.7928932188133  0.499999999999845 9.7928932188133  0.499999999999845 9.7928932188133  C 0.499999999999845 9.7928932188133  0.499999999999845 18.9928932188133  0.499999999999845 18.9928932188133  Z " fill-rule="nonzero" fill="#d7d7d7" stroke="none" />
  </g>
</svg>