<?xml version="1.0" encoding="utf-8"?>
<svg version="1.1" xmlns:xlink="http://www.w3.org/1999/xlink" width="26px" height="28px" xmlns="http://www.w3.org/2000/svg">
  <g transform="matrix(1 0 0 1 -132 -657 )">
    <path d="M 0.84537263064485 1.89070060866637  C 1.3439256960875 0.899324389543388  2.27600322755858 0.188119726254983  3.38149048447666 0.0372581367519544  C 4.35692042825812 -0.070500130640561  5.35402659724615 0.0588097978072122  6.26442786540794 0.382084637868529  C 8.28031642859054 1.02863435587493  10.25285254136 1.84759728655585  12.1603599785098 2.77431856039683  C 15.3684406994368 4.34758951436045  18.4464640691243 6.1794803252196  21.3944301256753 8.20533608557608  C 22.6950033713497 9.06740237625128  23.9088717543006 10.0587785574905  24.9926827860121 11.179464742945  C 25.5996169774875 11.8691177451782  26.0764938177236 12.7311840358534  25.9897889550001 13.6579052718106  C 25.8597316418635 14.7785914193813  25.0793876868383 15.6622093711118  24.2990437318131 16.4165173565107  C 21.0909630108862 19.4337492981064  17.5577390261691 22.1061547764693  13.7644003389733 24.369078732666  C 11.8135404514104 25.5328682023473  9.73262325071083 26.4811410993598  7.58667733628887 27.2354490847587  C 6.19939918978826 27.7095855522068  4.74709240577071 28.1190669986054  3.2731093965466 27.9682054091023  C 2.38438435359137 27.9035504259366  1.56068794815308 27.5156206027095  0.953753718574908 26.8906225836421  C 0.455200653132262 26.3087278488015  0.130057313136619 25.6190748465683  0 24.8863184843409  C 0 24.8863184843409  0.0433524504131166 24.8216635011751  0.0433524504131166 24.8216635011751  C 0.693639092301672 24.6708019116721  1.32224947088094 24.4768370000585  1.97253611276949 24.3259754105555  C 4.68206373015103 23.6363224083224  7.30488648480908 22.6449461891994  9.79765188822777 21.3949500752971  C 12.4855032804028 20.1018506771681  15.0432973594411 18.5932346684864  17.4710341253429 16.8691021250198  C 18.251378080368 16.2872073901792  19.1184269362195 15.7053126553385  19.573627551249 14.7785914193813  C 19.8770946279353 14.1104900403197  19.833742215625 13.3346303938655  19.4218940129058 12.7096323747981  C 18.945017134567 11.9768760504544  18.3164067559877 11.3734296545586  17.5794152132729 10.8777415260552  C 16.7557188078346 10.2958467912146  15.888669990086 9.75705537848443  14.999944909028 9.26136724998106  C 13.3091996858411 8.24843936980282  11.5317495618279 7.38637311701138  9.7326232126081 6.52430686421995  C 7.67338223711511 5.53293064509697  5.54911254789971 4.69241601547702  3.3598142592701 4.00276301324387  C 2.38438431548864 3.7225914574093  1.40895437170717 3.42086827840324  0.433524427925704 3.16224838362392  C 0.541905515855764 2.73121523828632  0.671962867095113 2.30018209294871  0.84537263064485 1.89070060866637  Z " fill-rule="nonzero" fill="#10abf2" stroke="none" transform="matrix(1 0 0 1 132 657 )" />
  </g>
</svg>