<?xml version="1.0" encoding="utf-8"?>
<svg version="1.1" xmlns:xlink="http://www.w3.org/1999/xlink" width="21px" height="22px" xmlns="http://www.w3.org/2000/svg">
  <g transform="matrix(1 0 0 1 -132 -660 )">
    <path d="M 1.12406571208794 0.585064309344261  C 1.12406571208794 0.585064309344261  1.14552050285693 0.5  1.14552050285693 0.5  C 1.14552050285693 0.5  1.36006837283458 0.563798232008139  1.36006837283458 0.563798232008139  C 2.32553376887608 0.818991122659099  3.2909991649185 1.11671613060048  4.25646456096001 1.39317506120574  C 6.42339801379057 2.07368938643253  8.52596709431327 2.92433233034808  10.564171802529 3.90257170089808  C 12.3234643061733 4.7744806847677  14.0827568098175 5.62512362868301  15.7776849411548 6.60336299923301  C 16.6573311741204 7.09248266581722  17.5155226540301 7.62413452445503  18.3308045524018 8.19831850038349  C 19.0602672876967 8.6661721270134  19.6610013160907 9.28288822023205  20.1544613906399 9.98466866017679  C 20.5621023398253 10.6013847907773  20.6050119213642 11.3669634253483  20.3046449260237 12.0262116732392  C 19.8755491860684 12.919386734445  18.9959029531028 13.4935707103732  18.223530598556 14.0890207636376  C 15.8205944849797 15.7903066140866  13.2889297022148 17.2789317285569  10.628536174836 18.5548961444299  C 8.13978093589685 19.7883284056309  5.54375174311099 20.7453016988447  2.8619034249632 21.4470821014077  C 2.21825981503116 21.5959446053785  1.59607103358121 21.7873392640211  0.952427423649169 21.9362017679919  C 0.952427423649169 21.9362017679919  0.587696056000823 22  0.587696056000823 22  C 0.566241265231838 21.8511374960294  0.544786474462853 21.7022749920586  0.523331683693868 21.5321463733701  C 0.287329022947233 19.788328368249  0.158600316046432 18.0232442857919  0.0942359437385676 16.2794263180526  C -0.034492763162234 15.1310583661959  0.0084167806626283 13.9614243370031  0.0084168183757356 12.8130563851464  C -0.0130379723932492 12.0474777505751  0.0084168183757356 11.2606330386679  0.0513263999146147 10.4950544040969  C 0.0727811906835996 9.70820969218971  0.115690772221569 8.90009890294641  0.137145525277447 8.09198811370311  C 0.244419441409264 7.41147378847632  0.222964688353386 6.70969334853157  0.330238604485203 6.02917902330478  C 0.394602976793067 5.49752720204856  0.458967311386914 4.94460930345622  0.480422102155899 4.39169140486388  C 0.673515181363655 3.1157270263725  0.823698679034351 1.83976261049952  1.12406571208794 0.585064309344261  Z M 5.5437517431119 5.30613254340551  C 5.32920387313425 5.15727003943493  5.07174642161863 5.09347180742679  4.81428900781611 5.11473788476269  C 4.47101243093766 5.24233431139737  4.25646456096092 5.56132543405647  4.27791935172991 5.90158259666987  C 4.25646456096092 6.41196834059019  4.25646456096092 6.92235412189211  4.29937414249889 7.43273986581221  C 4.32082893326788 8.94263105761843  4.27791935172991 10.4737883267608  4.32082889555477 11.983679518567  C 4.32082889555477 11.983679518567  4.32082889555477 16.0242334274014  4.32082889555477 16.0242334274014  C 4.27791931401589 16.3644905900148  4.42810281168659 16.7047477526282  4.72846984474018 16.8961424112711  C 5.07174642161863 16.9812067206153  5.45793258003505 16.9174084886072  5.73684482232056 16.6834817126739  C 8.2041452704907 15.0459940942333  10.6929005094307 13.4085064384105  13.1602009953149 11.771018782588  C 13.4605679906554 11.5583580466091  13.8038446052469 11.2393669613318  13.760935023709 10.8140454893742  C 13.696570651402 10.4312561720885  13.4391132375995 10.0909990094751  13.074381832238 9.92087042816843  C 13.074381832238 9.92087042816843  5.5437517431119 5.30613254340551  5.5437517431119 5.30613254340551  Z " fill-rule="nonzero" fill="#7de621" stroke="none" transform="matrix(1 0 0 1 132 660 )" />
  </g>
</svg>