<?xml version="1.0" encoding="utf-8"?>
<svg version="1.1" xmlns:xlink="http://www.w3.org/1999/xlink" width="10px" height="12px" xmlns="http://www.w3.org/2000/svg">
  <g transform="matrix(1 0 0 1 -136 -664 )">
    <path d="M 0.549918028516023 0.0040488001352989  C 0.820454845558463 -0.0175448001909639  1.09099162297149 0.0472360007878246  1.31643896390195 0.198391165114167  C 1.31643896390195 0.198391165114167  9.27472995211851 4.90579512525953  9.27472995211851 4.90579512525953  C 9.65799041981147 5.07854388991213  9.92852723685392 5.40244781889109  9.99616141139246 5.81272614917508  C 10.0412508875044 6.22300447945908  9.68053515786746 6.54690840843803  9.36490886471304 6.78443797406942  C 6.77226450345682 8.42555129520542  4.15707540414462 10.0882581787102  1.5644310428884 11.7509651001724  C 1.27134948778997 11.9669010654776  0.86554428204102 12.0532754288251  0.504828552404044 11.9669010275201  C 0.211746997305616 11.7725586625412  0.0539338705431162 11.4486547335623  0.0764786085991024 11.103157204257  C 0.0764786085991024 11.103157204257  0.0764786085991024 7.00037393937455  0.0764786085991024 7.00037393937455  C 0.0313891324871255 5.46722861986987  0.0764786085991024 3.91248970003892  0.053933870543114 2.37934438053424  C 0.00884439443113715 1.86109808657643  -0.013700343624849 1.34285175466111  0.00884443406055168 0.803011860377035  C -0.0362450420514251 0.457514331071824  0.211747036935028 0.133610364135381  0.549918028516016 0.00404880013530106  Z " fill-rule="nonzero" fill="#ffffff" stroke="none" transform="matrix(1 0 0 1 136 664 )" />
  </g>
</svg>