<?xml version="1.0" encoding="utf-8"?>
<svg version="1.1" xmlns:xlink="http://www.w3.org/1999/xlink" width="29px" height="27px" xmlns="http://www.w3.org/2000/svg">
  <g transform="matrix(1 0 0 1 -6 -7 )">
    <path d="M 11.6402877831329 2.58375000252318  C 11.6402877831329 2.58375000252318  11.6402877831329 22.8562500223205  11.6402877831329 22.8562500223205  C 11.6402877831329 23.4966666982389  11.38968825385 24.1150000364892  10.9112710143604 24.5566666733951  C 10.4328537348246 25.0204166867875  9.81774582115557 25.2633333234993  9.15707434942671 25.2633333623177  C 9.15707434942671 25.2633333623177  7.01558756112297 25.2633333623177  7.01558756112297 25.2633333623177  C 8.2230216094312 25.0645833621236  9.11151083141299 24.0487500234851  9.15707434942671 22.8562500223205  C 9.15707434942671 22.8562500223205  9.15707434942671 3.75416666601968  9.15707434942671 3.75416666601968  C 9.15707434942671 3.1137499901013  8.61031177284735 2.58375000252317  7.94964030111848 2.58375000252317  C 7.94964030111848 2.58375000252317  4.25899281910409 2.58375000252317  4.25899281910409 2.58375000252317  C 3.59832134737522 2.58375000252317  3.05155877079586 3.1137499901013  3.05155877079586 3.75416666601968  C 3.05155877079586 3.75416666601968  3.05155877079586 21.685833358824  3.05155877079586 21.685833358824  C 3.05155877079586 21.99500000854  3.18824940492918 22.3041666970744  3.41606715518211 22.5029166584501  C 3.64388490543503 22.7016666198258  3.94004795273156 22.8562499835022  4.25899281910409 22.8562500223205  C 4.25899281910409 22.8562500223205  5.46642686741232 22.8562500223205  5.46642686741232 22.8562500223205  C 5.92206236791817 22.8341666846525  6.35491608939411 23.0550000225146  6.60551561867694 23.4304166852347  C 6.83333336892986 23.8058333479549  6.83333336892986 24.2916666990153  6.60551561867694 24.6670833617354  C 6.37769786842401 25.0425000244555  5.92206236791817 25.2854166999857  5.46642686741232 25.2412500246496  C 5.46642686741232 25.2412500246496  2.98321343370616 25.2412500246496  2.98321343370616 25.2412500246496  C 2.32254196197729 25.2412500246496  1.68465226927833 24.9983333491194  1.22901680881857 24.5345833357271  C 0.750599529282824 24.0708333223348  0.500000040046088 23.4745833217525  0.5 22.8341666846525  C 0.5 22.8341666846525  0.5 2.51749998951903  0.5 2.51749998951903  C 0.522781779029901 1.19250000116454  1.61630697223471 0.132499987189931  2.98321343370616 0.110416649521881  C 2.98321343370616 0.110416649521881  9.15707434942671 0.110416649521881  9.15707434942671 0.110416649521881  C 10.5467625899281 0.154583324857981  11.6402877831329 1.25874997535033  11.6402877831329 2.58375000252318  Z M 16.4700240164118 0  C 16.4700240164118 0  28.9772182610161 0  28.9772182610161 0  C 28.9772182610161 0.640416675918376  28.7494004707171 1.30291665068644  28.2709832312275 1.74458332641072  C 27.7925659516917 2.20833333980306  27.1774580380227 2.45124997651489  26.5167866063399 2.45124997651489  C 26.5167866063399 2.45124997651489  17.8369304778833 2.45124997651489  17.8369304778833 2.45124997651489  C 17.1306954480946 2.45124997651489  16.6294964295751 2.93708332757528  16.6294964295751 3.75416666601969  C 16.6294964295751 3.75416666601969  16.6294964295751 8.4358333200057  16.6294964295751 8.4358333200057  C 16.6294964295751 8.4358333200057  28.8633093658666 8.4358333200057  28.8633093658666 8.4358333200057  C 28.8405275868367 9.5620833081661  28.0203837019446 10.5337499714685  26.8812949907261 10.7766666469987  C 26.8812949907261 10.7766666469987  26.8812949907261 24.0266666858171  26.8812949907261 24.0266666858171  C 26.8812949907261 24.6670833617355  26.6306954614433 25.2854166999858  26.1522781819075 25.7270833368917  C 25.6966426814017 26.168750012616  25.0587529887027 26.4337499869959  24.39808155702 26.4337500258142  C 24.39808155702 26.4337500258142  24.39808155702 10.7987499846668  24.39808155702 10.7987499846668  L 16.4700240164118 10.7987499846668  C 16.4700240164118 10.7987499846668  16.4700240164118 24.0929166600029  16.4700240164118 24.0929166600029  C 16.4700240164118 24.7333333359212  16.1966427080991 25.3516666741716  15.7410072075933 25.7933333498959  C 15.2853717070874 26.2350000256201  14.6474820143885 26.5  13.9868105827057 26.5  C 13.9868105827057 26.5  13.9868105827057 2.47333331418294  13.9868105827057 2.47333331418294  C 14.0095923617356 1.14833332582845  15.1031175549404 0.0662499741857907  16.4700240164118 0  Z " fill-rule="nonzero" fill="#ffffff" stroke="none" transform="matrix(1 0 0 1 6 7 )" />
  </g>
</svg>