<?xml version="1.0" encoding="utf-8"?>
<svg version="1.1" xmlns:xlink="http://www.w3.org/1999/xlink" width="21px" height="20px" xmlns="http://www.w3.org/2000/svg">
  <g transform="matrix(1 0 0 1 -133 -482 )">
    <path d="M 0 20  L 1.78500002446531 0  L 7.03500001418577 0  L 7.03500001418577 6.77083332143572  L 13.6499999814968 0  C 13.6499999814968 0  21 0  21 0  C 21 0  11.9699999995888 8.33333334693061  11.5499999938323 8.74999997960409  C 11.1299999880757 9.1666666530694  10.9199999851975 9.89583333163368  11.4449999923932 10.7291666785643  C 12.075000001028 11.5625000254949  19.3199999769739 19.8958333316337  19.3199999769739 19.8958333316337  C 19.3199999769739 19.8958333316337  12.7050000096628 19.7916666632674  12.7050000096628 19.7916666632674  L 6.09000000123356 11.9791666581684  L 5.45999999259874 19.8958333316337  L 0 20  Z " fill-rule="nonzero" fill="#2f94fd" stroke="none" transform="matrix(1 0 0 1 133 482 )" />
  </g>
</svg>