<?xml version="1.0" encoding="utf-8"?>
<svg version="1.1" xmlns:xlink="http://www.w3.org/1999/xlink" width="10px" height="17px" xmlns="http://www.w3.org/2000/svg">
  <g transform="matrix(1 0 0 1 -235 -258 )">
    <path d="M 0.500023928103474 3.05852249616987  C 0.514071251612222 6.42326753809402  0.508295225031361 9.78814963627838  0.503766810740672 13.1529860638796  C 0.502703931287215 14.0064614475737  0.893764921356706 14.6148401427017  1.65583244262325 14.9815942392306  C 2.90710739638598 15.5837142189166  4.2396165079399 15.7349294522851  5.61177241008681 15.6227286467188  C 5.78034033907261 15.6090233304146  5.91323546665171 15.585313139587  5.96193899652735 15.8151968870993  C 6.11562782984311 16.5394311604623  6.51121723457436 16.8694093627851  7.25401587476063 16.9552046034596  C 7.8729300219502 17.0266092884633  8.49272213492804 16.9903815766274  9.11209840740412 16.9937621904257  C 9.36582824397556 16.9951327133012  9.48643198036643 16.8699118742043  9.493871505877 16.6180539584091  C 9.50251244893479 16.3267704445589  9.50103377362848 16.034847317783  9.49548880969087 15.7433353608919  C 9.48971278273802 15.4389860987851  9.37539339295836 15.3331354395841  9.06006788115701 15.3311253041506  C 8.70467973714494 15.3287497135586  8.34919915936825 15.3325872127032  7.99376482098432 15.3288867701867  C 7.87561015982465 15.3276989752587  7.75089393968665 15.3423636441858  7.63468003447178 15.2500355737095  C 7.68647954309563 15.1614992876519  7.76937728911435 15.1565196637946  7.83476204098133 15.1237639966803  C 8.6206730523636 14.7292794829673  9.17766807256339 14.1658084762926  9.17937776549297 13.2360859293863  C 9.18575450159187 9.80400214464407  9.18339790514528 6.37187264480826  9.18067161754789 2.93974314497245  C 9.18011710314568 2.27512694518737  8.89565872070307 1.74637607121258  8.36634250739007 1.33736394483276  C 7.96220459448159 1.02479150169825  7.49046391600223 0.872479814200688  7.00601596044089 0.746528021011272  C 5.83925601111878 0.443183826620952  4.65456727216406 0.45949313204801  3.46964747130914 0.584028731778517  C 2.83479143941076 0.650819292226061  2.21541521195559 0.816242354421547  1.66391896132063 1.1453525456559  C 0.94269960391739 1.57574498699705  0.496234851466397 2.16799710464534  0.500023928103474 3.05852249616987  Z M 3.79287449810181 13.1958379911941  C 3.78381766952134 13.0993525928552  3.78464939554488 13.0017251146817  3.78464939554488 12.9046458188786  C 3.78432598880772 9.68334971537729  3.78423355541599 6.46191655561574  3.78525014971183 3.24052902119115  C 3.78525014971183 3.12129282915794  3.78469563530962 2.99963533180653  3.80747633601186 2.88350568519331  C 3.85548676799954 2.63845475696689  3.99854770831371 2.46225015142977  4.24419111660154 2.3839014222292  C 4.63585277042239 2.2591374243359  5.03342912509743 2.25351823169535  5.42790950028029 2.36247543594868  C 5.72558347983522 2.44475296131827  5.84937553906911 2.60492237542053  5.86439321822581 2.91644408025491  C 5.87636115765417 3.16259146224297  5.87067756483702 3.40956113985794  5.87067756483702 3.65616536304992  C 5.87113964510354 5.12857254290839  5.87086238808843 6.60102539371792  5.87086238808843 8.07343257320872  C 5.87076995395182 9.71030346300722  5.87123203421834 11.347128681487  5.87067756483702 12.9839995712857  C 5.87040030782191 13.6072713783815  5.70686911352914 13.7940290853228  5.07686494767859 13.867489576711  C 4.74291745831488 13.9064583339298  4.41211214169743 13.8898292446631  4.11185050342465 13.7102439804496  C 3.91629691120488 13.593246322748  3.81380687773981 13.4177269558418  3.79287449810181 13.1958379911941  Z " fill-rule="nonzero" fill="#42bd56" stroke="none" transform="matrix(1 0 0 1 235 258 )" />
  </g>
</svg>