<?xml version="1.0" encoding="utf-8"?>
<svg version="1.1" xmlns:xlink="http://www.w3.org/1999/xlink" width="56px" height="56px" xmlns="http://www.w3.org/2000/svg">
  <g transform="matrix(1 0 0 1 7 8 )">
    <path d="M 0 8.55555553125  C 0.0311111171875 3.8266666484375  3.8888888828125 0  8.617777765625 0  C 8.617777765625 0  47.382222234375 0  47.382222234375 0  C 52.1111111171875 0  55.9688888828125 3.8266666484375  56 8.55555553125  C 56 8.55555553125  56 47.44444446875  56 47.44444446875  C 55.9688888828125 52.1733333515625  52.1111111171875 56  47.382222234375 56  C 47.382222234375 56  8.617777765625 56  8.617777765625 56  C 3.8888888828125 56  0.0311111171875 52.1733333515625  0 47.44444446875  C 0 47.44444446875  0 8.55555553125  0 8.55555553125  Z " fill-rule="nonzero" fill="#fc4514" stroke="none" transform="matrix(1 0 0 1 -7 -8 )" />
  </g>
</svg>