<?xml version="1.0" encoding="utf-8"?>
<svg version="1.1" xmlns:xlink="http://www.w3.org/1999/xlink" width="27px" height="28px" xmlns="http://www.w3.org/2000/svg">
  <g transform="matrix(1 0 0 1 -138 -252 )">
    <path d="M 1.45306055465062 0.110781426122685  C 1.45306055465062 0.110781426122685  1.48079479637636 0  1.48079479637636 0  C 1.48079479637636 0  1.75813716488392 0.0830860695921274  1.75813716488392 0.0830860695921274  C 3.00617779879121 0.415430299276977  4.25421843269942 0.803165193340192  5.50225906660671 1.16320473087262  C 8.30341694465551 2.04945594512151  11.0213720975271 3.15727001161599  13.6561245252205 4.4312561686113  C 15.93033190798 5.56676554295314  18.2045392907403 6.67457960944762  20.3955439483216 7.94856576644293  C 21.5326476153259 8.58555882059909  22.6420170893562 9.2779426364998  23.695918079934 10.0257171167784  C 24.638882103608 10.635014863087  25.4154407256792 11.438180007744  26.0533281391199 12.3521266272069  C 26.5802786344084 13.1552918205471  26.6357471178608 14.1523244609189  26.247467831201 15.010880318637  C 25.6927830941859 16.1740850495096  24.5556794271824 16.9218595297884  23.5572468713044 17.6973293665978  C 20.4510123830223 19.9129574509036  17.1783725418882 21.8516320185856  13.7393272503978 23.5133531183274  C 10.5221558439634 25.1196835050075  7.16631322890043 26.3659743054723  3.69953369568429 27.2799208762519  C 2.86750659016161 27.4737883232835  2.06321377511722 27.7230464833765  1.23118666959454 27.9169139304079  C 1.23118666959454 27.9169139304079  0.759704657757538 28  0.759704657757538 28  C 0.7319704160318 27.8061325529684  0.704236174306061 27.6122651059368  0.676501932579413 27.3907022536914  C 0.371425322346113 25.1196834563243  0.205019920742416 22.8209693024266  0.1218171955652 20.5499505537427  C -0.0445882060384974 19.0544015931853  0.0108802286613354 17.531157276097  0.0108802774129799 16.0356083155395  C -0.0168539643127588 15.0385756751677  0.0108802774129799 14.0138476782654  0.0663487608644573 13.0168150378936  C 0.094083002590196 11.9920870409912  0.149551486042583 10.9396636875581  0.177285679016677 9.88724033412518  C 0.315956838894635 9.00098911987607  0.288222645920541 8.08704250041319  0.4268938057985 7.2007912861643  C 0.510096530975716 6.5084075189468  0.593299207402197 5.78832839519873  0.621033449127935 5.06824927145067  C 0.870641575909758 3.40652822039215  1.06478121923919 1.74480712065042  1.45306055465062 0.110781426122685  Z M 7.16631322890043 6.25914935885407  C 6.88897086039287 6.06528191182247  6.55616000843384 5.98219584223034  6.22334920522553 6.00989119876112  C 5.77960143511427 6.17606328926195  5.50225906660671 6.59149358853892  5.52999330833336 7.03461919566348  C 5.50225906660671 7.6993076063502  5.50225906660671 8.36399606572013  5.5577275500591 9.02868447640685  C 5.58546179178484 10.9950544006197  5.52999330833336 12.989119681363  5.58546174303319 14.9554896055758  C 5.58546174303319 14.9554896055758  5.58546174303319 20.2176063240579  5.58546174303319 20.2176063240579  C 5.52999325958172 20.6607319311825  5.72413290291115 21.103857538307  6.11241223832258 21.3531156984  C 6.55616000843384 21.4638971245226  7.05537626199657 21.3808110549305  7.41592135568135 21.0761622304594  C 10.6053585203899 18.9436202157458  13.8225299268242 16.811078152349  17.0119671402845 14.6785360889521  C 17.4002464269433 14.4015825723286  17.8439942458062 13.9861523217348  17.7885257623548 13.4322452884876  C 17.7053230371766 12.9337289683017  17.3725122339692 12.4906033611771  16.9010301733806 12.269040557615  C 16.9010301733806 12.269040557615  7.16631322890043 6.25914935885407  7.16631322890043 6.25914935885407  Z " fill-rule="nonzero" fill="#7de621" stroke="none" transform="matrix(1 0 0 1 138 252 )" />
  </g>
</svg>