<?xml version="1.0" encoding="utf-8"?>
<svg version="1.1" xmlns:xlink="http://www.w3.org/1999/xlink" width="41px" height="42px" xmlns="http://www.w3.org/2000/svg">
  <g transform="matrix(1 0 0 1 -121 -470 )">
    <path d="M 20.5 0.5  C 31.7750000160559 0.5  41 9.72499998394437  41 21  C 41 32.3775000176613  31.7750000160559 41.5  20.5 41.5  C 9.22499998394414 41.5  0 32.2750000160556  0 21  C 0 9.72499998394437  9.22499998394414 0.5  20.5 0.5  Z M 20.5 39.3475000064223  C 30.6474999983939 39.3475000064223  38.8475000064218 31.0449999967889  38.8475000064218 21  C 38.8475000064218 10.8525000016057  30.6474999983939 2.65249999357775  20.5 2.65249999357775  C 10.3525000016052 2.65249999357775  2.15249999357729 10.9550000032111  2.15249999357729 21  C 2.15249999357729 31.1474999983943  10.4550000032104 39.3475000064223  20.5 39.3475000064223  Z " fill-rule="nonzero" fill="#2f94fd" stroke="none" transform="matrix(1 0 0 1 121 470 )" />
  </g>
</svg>