<?xml version="1.0" encoding="utf-8"?>
<svg version="1.1" xmlns:xlink="http://www.w3.org/1999/xlink" width="5px" height="22px" xmlns="http://www.w3.org/2000/svg">
  <g transform="matrix(1 0 0 1 -128 -660 )">
    <path d="M 1.17151312700138 1.77287430678472  C 1.36988032556492 1.14203558185063  1.78645144603527 0.598209110661015  2.32204287169606 0.293666299030927  C 3.15518507776754 -0.141394893215883  4.12718434724196 -0.0108765125991609  5 0.163147918414205  C 4.74212263140662 1.44657839348072  4.58342887952964 2.75176197022115  4.40489840430938 4.05694554696158  C 4.3850616809661 4.62252508158731  4.32555151093627 5.16635155277693  4.26604137577567 5.73193108740266  C 4.16685779392852 6.42802896440732  4.18669448240256 7.1458799430859  4.08751090055541 7.84197782009056  C 4.06767417721213 8.64684101427582  4.02800073052557 9.4734572718972  4.00816404205153 10.3000735295186  C 3.92881714867842 11.0831836602677  3.96849059536498 11.888046854453  3.96849059536498 12.6711569852021  C 3.96849059536498 13.8458221813258  3.9486538720217 15.0422404408857  4.02800073052557 16.2169055987716  C 4.08751090055541 18.0224095198294  4.20653120574584 19.806160377451  4.42473512765266 21.5899112350727  C 4.42473512765266 21.5899112350727  4.42473512765266 21.8509479580684  4.42473512765266 21.8509479580684  C 3.59159292158118 22.0249724273196  2.61959365210675 22.1554907696985  1.8459616160651 21.5899112350727  C 1.07232958002346 21.024331700447  0.873962346590683 19.9801848467022  0.675595148027142 19.0665563735742  C 0.219350615739464 16.1298933832649  -0.0186900295106303 13.1497242660834  0.0011466938326475 10.1478020854657  C 0.0408201405192021 8.58158182396745  0.17967716905291 7.03711462590529  0.37804436761645 5.49264742784314  C 0.536738119493435 4.23096997797494  0.794615488086806 2.99104562978067  1.17151312700138 1.77287430678472  Z " fill-rule="nonzero" fill="#ff8f21" stroke="none" transform="matrix(1 0 0 1 128 660 )" />
  </g>
</svg>