<?xml version="1.0" encoding="utf-8"?>
<svg version="1.1" xmlns:xlink="http://www.w3.org/1999/xlink" width="30px" height="29px" xmlns="http://www.w3.org/2000/svg">
  <g transform="matrix(1 0 0 1 -244 -333 )">
    <path d="M 259 333.5  C 267.12 333.5  273.5 339.66  273.5 347.5  C 273.5 355.34  267.12 361.5  259 361.5  C 250.88 361.5  244.5 355.34  244.5 347.5  C 244.5 339.66  250.88 333.5  259 333.5  Z " fill-rule="nonzero" fill="#ffffff" stroke="none" />
    <path d="M 259 333.5  C 267.12 333.5  273.5 339.66  273.5 347.5  C 273.5 355.34  267.12 361.5  259 361.5  C 250.88 361.5  244.5 355.34  244.5 347.5  C 244.5 339.66  250.88 333.5  259 333.5  Z " stroke-width="1" stroke-dasharray="9,4" stroke="#797979" fill="none" stroke-dashoffset="0.5" />
  </g>
</svg>