<?xml version="1.0" encoding="utf-8"?>
<svg version="1.1" xmlns:xlink="http://www.w3.org/1999/xlink" width="30px" height="29px" xmlns="http://www.w3.org/2000/svg">
  <g transform="matrix(1 0 0 1 -244 -346 )">
    <path d="M 259 346.5  C 267.12 346.5  273.5 352.66  273.5 360.5  C 273.5 368.34  267.12 374.5  259 374.5  C 250.88 374.5  244.5 368.34  244.5 360.5  C 244.5 352.66  250.88 346.5  259 346.5  Z " fill-rule="nonzero" fill="#ffffff" stroke="none" />
    <path d="M 259 346.5  C 267.12 346.5  273.5 352.66  273.5 360.5  C 273.5 368.34  267.12 374.5  259 374.5  C 250.88 374.5  244.5 368.34  244.5 360.5  C 244.5 352.66  250.88 346.5  259 346.5  Z " stroke-width="1" stroke-dasharray="9,4" stroke="#797979" fill="none" stroke-dashoffset="0.5" />
  </g>
</svg>