<?xml version="1.0" encoding="utf-8"?>
<svg version="1.1" xmlns:xlink="http://www.w3.org/1999/xlink" width="30px" height="29px" xmlns="http://www.w3.org/2000/svg">
  <g transform="matrix(1 0 0 1 -242 -346 )">
    <path d="M 257 346.5  C 265.12 346.5  271.5 352.66  271.5 360.5  C 271.5 368.34  265.12 374.5  257 374.5  C 248.88 374.5  242.5 368.34  242.5 360.5  C 242.5 352.66  248.88 346.5  257 346.5  Z " fill-rule="nonzero" fill="#ffffff" stroke="none" />
    <path d="M 257 346.5  C 265.12 346.5  271.5 352.66  271.5 360.5  C 271.5 368.34  265.12 374.5  257 374.5  C 248.88 374.5  242.5 368.34  242.5 360.5  C 242.5 352.66  248.88 346.5  257 346.5  Z " stroke-width="1" stroke-dasharray="9,4" stroke="#797979" fill="none" stroke-dashoffset="0.5" />
  </g>
</svg>