<?xml version="1.0" encoding="utf-8"?>
<svg version="1.1" xmlns:xlink="http://www.w3.org/1999/xlink" width="44px" height="40px" xmlns="http://www.w3.org/2000/svg">
  <g transform="matrix(1 0 0 1 -164 -367 )">
    <path d="M 186 367  C 198.32 367  208 375.8  208 387  C 208 398.2  198.32 407  186 407  C 173.68 407  164 398.2  164 387  C 164 375.8  173.68 367  186 367  Z " fill-rule="nonzero" fill="#ffffff" stroke="none" />
    <path d="M 186 367.5  C 198.04 367.5  207.5 376.08  207.5 387  C 207.5 397.92  198.04 406.5  186 406.5  C 173.96 406.5  164.5 397.92  164.5 387  C 164.5 376.08  173.96 367.5  186 367.5  Z " stroke-width="1" stroke="#797979" fill="none" />
  </g>
</svg>