<?xml version="1.0" encoding="utf-8"?>
<svg version="1.1" xmlns:xlink="http://www.w3.org/1999/xlink" width="16px" height="16px" xmlns="http://www.w3.org/2000/svg">
  <g transform="matrix(1 0 0 1 -385 -100 )">
    <path d="M 393 101  C 396.92 101  400 104.08  400 108  C 400 111.92  396.92 115  393 115  C 389.08 115  386 111.92  386 108  C 386 104.08  389.08 101  393 101  Z " fill-rule="nonzero" fill="#f2f2f2" stroke="none" />
    <path d="M 393 101  C 396.92 101  400 104.08  400 108  C 400 111.92  396.92 115  393 115  C 389.08 115  386 111.92  386 108  C 386 104.08  389.08 101  393 101  Z " stroke-width="2" stroke="#000000" fill="none" />
  </g>
</svg>