<?xml version="1.0" encoding="utf-8"?>
<svg version="1.1" xmlns:xlink="http://www.w3.org/1999/xlink" width="12px" height="12px" viewBox="821 442  12 12" xmlns="http://www.w3.org/2000/svg">
  <path d="M 821.5 447  A 4.5 4.5 0 0 1 826 442.5 L 828 442.5  A 4.5 4.5 0 0 1 832.5 447 L 832.5 449  A 4.5 4.5 0 0 1 828 453.5 L 826 453.5  A 4.5 4.5 0 0 1 821.5 449 L 821.5 447  Z " fill-rule="nonzero" fill="#ffffff" stroke="none" />
  <path d="M 821.5 447  A 4.5 4.5 0 0 1 826 442.5 L 828 442.5  A 4.5 4.5 0 0 1 832.5 447 L 832.5 449  A 4.5 4.5 0 0 1 828 453.5 L 826 453.5  A 4.5 4.5 0 0 1 821.5 449 L 821.5 447  Z " stroke-width="1" stroke="#797979" fill="none" />
</svg>