<?xml version="1.0" encoding="utf-8"?>
<svg version="1.1" xmlns:xlink="http://www.w3.org/1999/xlink" width="14px" height="25px" xmlns="http://www.w3.org/2000/svg">
  <g transform="matrix(1 0 0 1 -399 -299 )">
    <path d="M 0.240549828178535 11.9238476953908  C 0.0801832760597046 12.0908483633935  0 12.2828991315965  0 12.5  C 0 12.7171008684035  0.0801832760597046 12.9091516366065  0.240549828178535 13.0761523046092  L 11.4501718213058 24.7494989979959  C 11.6105383734249 24.9164996659986  11.7949599083619 25  12.0034364261167 25  C 12.2119129438718 25  12.3963344788088 24.9164996659986  12.5567010309276 24.7494989979959  L 13.7594501718215 23.4969939879759  C 13.9198167239403 23.3299933199734  14 23.1379425517702  14 22.9208416833666  C 14 22.7037408149634  13.9198167239403 22.5116900467604  13.7594501718215 22.3446893787574  L 4.30584192439867 12.5  L 13.7594501718215 2.6553106212426  C 13.9198167239403 2.48830995323963  14 2.29625918503664  14 2.07915831663337  C 14 1.86205744822985  13.9198167239403 1.6700066800266  13.7594501718215 1.50300601202415  L 12.5567010309276 0.250501002004068  C 12.3963344788088 0.0835003340013559  12.2119129438718 0  12.0034364261167 0  C 11.7949599083619 0  11.6105383734249 0.0835003340013559  11.4501718213058 0.250501002004068  L 0.240549828178535 11.9238476953908  Z " fill-rule="nonzero" fill="#555555" stroke="none" transform="matrix(1 0 0 1 399 299 )" />
  </g>
</svg>