<?xml version="1.0" encoding="utf-8"?>
<svg version="1.1" xmlns:xlink="http://www.w3.org/1999/xlink" width="300px" height="160px" xmlns="http://www.w3.org/2000/svg">
  <g transform="matrix(1 0 0 1 -805 -215 )">
    <path d="M 805.5 374.5  C 805.5 374.5  805.5 225.638888888889  805.5 225.638888888889  C 805.5 225.638888888889  839.101002565619 225.638888888889  839.101002565619 225.638888888889  C 839.101002565619 225.638888888889  847.032928248546 215.796271074482  847.032928248546 215.796271074482  C 847.032928248546 215.796271074482  858.678799067288 225.638888888889  858.678799067288 225.638888888889  C 858.678799067288 225.638888888889  1104.5 225.638888888889  1104.5 225.638888888889  C 1104.5 225.638888888889  1104.5 374.5  1104.5 374.5  C 1104.5 374.5  805.5 374.5  805.5 374.5  Z " fill-rule="nonzero" fill="#ffffff" stroke="none" />
    <path d="M 805 375  C 805 375  805 225.138888888889  805 225.138888888889  C 805 225.138888888889  838.861788617886 225.138888888889  838.861788617886 225.138888888889  C 838.861788617886 225.138888888889  846.964769647697 215.084010840107  846.964769647697 215.084010840107  C 846.964769647697 215.084010840107  858.861788617886 225.138888888889  858.861788617886 225.138888888889  C 858.861788617886 225.138888888889  1105 225.138888888889  1105 225.138888888889  C 1105 225.138888888889  1105 375  1105 375  C 1105 375  805 375  805 375  Z M 806 374  C 806 374  1104 374  1104 374  C 1104 374  1104 226.138888888889  1104 226.138888888889  C 1104 226.138888888889  858.49580951669 226.138888888889  858.49580951669 226.138888888889  C 858.49580951669 226.138888888889  847.101086849394 216.508531308856  847.101086849394 216.508531308856  C 847.101086849394 216.508531308856  839.340216513352 226.138888888889  839.340216513352 226.138888888889  C 839.340216513352 226.138888888889  806 226.138888888889  806 226.138888888889  C 806 226.138888888889  806 374  806 374  Z " fill-rule="nonzero" fill="#f59a23" stroke="none" />
  </g>
</svg>