<?xml version="1.0" encoding="utf-8"?>
<svg version="1.1" xmlns:xlink="http://www.w3.org/1999/xlink" width="154px" height="97px" xmlns="http://www.w3.org/2000/svg">
  <defs>
    <linearGradient gradientUnits="userSpaceOnUse" x1="67" y1="0" x2="46.4051571129789" y2="94.5374913491365" id="LinearGradient327">
      <stop id="Stop328" stop-color="#6e5a35" offset="0" />
      <stop id="Stop329" stop-color="#d3b263" offset="1" />
    </linearGradient>
    <filter x="215px" y="264px" width="154px" height="97px" filterUnits="userSpaceOnUse" id="filter330">
      <feOffset dx="0" dy="8" in="SourceAlpha" result="shadowOffsetInner" />
      <feGaussianBlur stdDeviation="5" in="shadowOffsetInner" result="shadowGaussian" />
      <feComposite in2="shadowGaussian" operator="atop" in="SourceAlpha" result="shadowComposite" />
      <feColorMatrix type="matrix" values="0 0 0 0 0.0980392156862745  0 0 0 0 0.0431372549019608  0 0 0 0 0.0392156862745098  0 0 0 1 0  " in="shadowComposite" />
    </filter>
    <g id="widget331">
      <path d="M 127.330513035682 53.7089094701109  C 132.253627352251 68.6382491899972  125.28433717369 30.4394945718475  125.28433717369 30.4394945718475  L 129.166753878402 28.4094894657599  C 129.166753878402 28.4094894657599  125.829201417709 19.8259787157208  120.482764184034 19.8259787157208  C 115.136326950298 19.8259787157208  111.608866166323 24.7909641039003  109.597219090371 30.4394945718475  C 107.58557201448 36.0880250397947  97.7512604693543 60.1365624468535  93.6409537766376 57.0420424680674  C 92.164871183707 55.9307465440133  91.5664955793072 54.9344039148921  90.8035473379568 53.7089094701109  C 89.4419862344012 51.521886185627  88.9237146598953 47.6950582143186  88.4904627469632 33.6467926120752  C 87.8144389273666 11.7266074118359  86.6224554210521 6.49616198931926  82.3871545227694 1.54630536546415  C 78.1518536245476 -3.40355125837345  70.2247349206068 3.23109957614361  68.4064490466189 25.7867118659556  C 66.5881631726616 48.342324155785  62.3685411387337 51.2783720053249  62.3685411387337 51.2783720053249  L 74.5097394405921 45.0116500927186  C 74.5097394405921 45.0116500927186  78.2742477152433 37.5534497908809  77.7199071866244 30.4394945718475  C 77.6524568070449 29.5738912916133  77.5834928412319 20.4973854535813  77.7199071866244 19.107412165602  C 78.6109559928332 10.0282054651077  79.7681529165002 5.26298084067821  81.1914979577168 4.81173829233103  C 81.3618036035659 4.75774635684002  81.4680483543925 4.86573022780453  81.927601438581 4.81173829233103  C 82.3871545227694 4.75774635684002  82.6109979024677 4.42179367653057  82.7574770347369 4.36559885550901  C 85.2808714273697 3.3975312947141  85.7764166281477 10.3921160236341  84.2441126371623 25.3493530422866  C 84.2441126371623 25.3493530422866  76.7064786400297 80.5734689126164  96.8298551564303 76.7527682454738  C 96.8298551564303 76.7527682454738  105.71204008281 75.0665986926022  116.44496794202 46.3288231562665  C 116.44496794202 46.3288231562665  122.407398719082 38.7795697502247  127.330513035682 53.7089094701109  Z " fill-rule="nonzero" fill="url(#LinearGradient327)" stroke="none" transform="matrix(1 0 0 1 225 266 )" />
    </g>
  </defs>
  <g transform="matrix(1 0 0 1 -215 -264 )">
    <use xlink:href="#widget331" filter="url(#filter330)" />
    <use xlink:href="#widget331" />
  </g>
</svg>