<?xml version="1.0" encoding="utf-8"?>
<svg version="1.1" xmlns:xlink="http://www.w3.org/1999/xlink" width="4px" height="7px" xmlns="http://www.w3.org/2000/svg">
  <g transform="matrix(1 0 0 1 -179 -213 )">
    <path d="M 1.49103942013257 5.02576601983715  L 0.176139277243513 5.02576601983715  L 0.176139277243513 4.0947075121665  L 1.49103942013257 4.0947075121665  L 1.49103942013257 3.59018105932609  L 0.176139277243513 3.59018105932609  L 0.176139277243513 2.65912257186334  L 1.10189451871915 2.65912257186334  L 0 0  L 1.09165387056873 0  C 1.09165387056873 0  1.80030722521809 1.79630919781543  1.80030722521809 1.79630919781543  C 1.89042498667749 2.02054318808222  1.95391704936093 2.220403896133  1.99283153610606 2.39101670998193  C 2.0378904253263 2.20577993892812  2.10138248800974 2.00591921066944  2.18535586397511 1.79630919781543  C 2.18535586397511 1.79630919781543  2.90834612943128 0  2.90834612943128 0  L 4.00000000000001 0  L 2.88376855349296 2.65912257186334  L 3.82181259991885 2.65912257186334  L 3.82181259991885 3.59018105932609  L 2.49052738942316 3.59018105932609  L 2.49052738942316 4.0947075121665  L 3.82181259991885 4.0947075121665  L 3.82181259991885 5.02576601983715  L 2.49052738942316 5.02576601983715  L 2.49052738942316 6.99999999999999  L 1.49513568278896 6.99999999999999  L 1.49103942013257 5.02576601983715  Z " fill-rule="nonzero" fill="#d3830d" stroke="none" transform="matrix(1 0 0 1 179 213 )" />
  </g>
</svg>