<?xml version="1.0" encoding="utf-8"?>
<svg version="1.1" xmlns:xlink="http://www.w3.org/1999/xlink" width="20px" height="22px" xmlns="http://www.w3.org/2000/svg">
  <g transform="matrix(1 0 0 1 -13 -12 )">
    <path d="M 13.5714428968974 12.4089417475481  C 13.5714428968974 11.806665184186  14.0506453115717 11.3180637987087  14.6428651462301 11.3180637987087  C 14.6428651462301 11.3180637987087  19.9999999769237 11.3180637987087  19.9999999769237 11.3180637987087  C 19.9999999769237 11.3180637987087  20 7.68177993346141  20 7.68177993346141  C 20 6.47655359336624  19.0408867497604 5.5  17.8571555013347 5.5  C 17.8571555013347 5.5  2.14286810577205 5.5  2.14286810577205 5.5  C 0.959136857346392 5.5  0 6.47655359336624  0 7.68177993346141  C 0 7.68177993346141  0 19.3182200665386  0 19.3182200665386  C 0 20.5227491574803  0.959113250239595 21.5  2.14286810577205 21.5  C 2.14286810577205 21.5  17.8571555013347 21.5  17.8571555013347 21.5  C 19.0408867497604 21.5  20 20.5227491574803  20 19.3182200665386  C 20 19.3182200665386  20 15.6819602605693  20 15.6819602605693  C 20 15.6819602605693  14.6428651462301 15.6819602605693  14.6428651462301 15.6819602605693  C 14.0506453115717 15.6819602605693  13.5714428968974 15.1933348393094  13.5714428968974 14.5910582759473  C 13.5714428968974 14.5910582759473  13.5714428968974 12.4089417475481  13.5714428968974 12.4089417475481  Z M 17.5 13.9996281569235  C 17.5 13.9996281569235  17.5 12.9998760523078  17.5 12.9998760523078  C 17.5 12.7235956936421  17.2763525600637 12.5  17.0000082623996 12.5  C 17.0000082623996 12.5  15.9999917376004 12.5  15.9999917376004 12.5  C 15.7236474399363 12.5  15.5 12.7235956936421  15.5 12.9998760523078  C 15.5 12.9998760523078  15.5 13.9996281569235  15.5 13.9996281569235  C 15.5 14.2754457667721  15.7236474399363 14.5  15.9999917376004 14.5  C 15.9999917376004 14.5  17.0000082623996 14.5  17.0000082623996 14.5  C 17.2763525600637 14.5  17.5 14.2754457990712  17.5 13.9996281569235  Z M 6 3.98891311498607  L 8.81194160983092 4  C 8.81194160983092 4  11.6335451935987 2.3680485905612  11.6335451935987 2.3680485905612  C 12.6487086138847 1.78020949744306  12.9804211368892 1.86951395950437  13.5671118089574 2.88664742696312  C 13.5671118089574 2.88664742696312  14.2029078275115 3.99029604368943  14.2029078275115 3.99029604368943  L 15.5 3.99444482979952  C 15.5 3.99444482979952  14.4385385953425 1.56348792867054  14.4385385953425 1.56348792867054  C 13.851824535639 0.546377916598818  12.5540071178403 0.198113910392038  11.5381652732383 0.785249822917812  C 11.5381652732383 0.785249822917812  6 3.98891311498607  6 3.98891311498607  Z " fill-rule="nonzero" fill="#ffffff" stroke="none" transform="matrix(1 0 0 1 13 12 )" />
  </g>
</svg>