<?xml version="1.0" encoding="utf-8"?>
<svg version="1.1" xmlns:xlink="http://www.w3.org/1999/xlink" width="9px" height="14px" xmlns="http://www.w3.org/2000/svg">
  <g transform="matrix(1 0 0 1 -302 -573 )">
    <path d="M 6.14137931034483 6.42074153680817  C 6.14137931034483 6.42074153680817  8.31034482758621 6.42074153680817  8.31034482758621 6.42074153680817  C 8.68965517241379 6.42074153680817  9 6.08221386351424  9 5.66845781837722  C 9 5.66845781837722  9 5.10048361096185  9 5.10048361096185  C 9 4.68672756582482  8.68965517241379 4.3481998925309  8.31034482758621 4.3481998925309  C 8.31034482758621 4.3481998925309  7.12068965517241 4.3481998925309  7.12068965517241 4.3481998925309  C 6.74137931034483 4.3481998925309  6.58620689655172 4.05480924234283  6.77931034482759 3.69747447608812  C 6.77931034482759 3.69747447608812  8.40344827586207 0.650725416442773  8.40344827586207 0.650725416442773  C 8.59310344827586 0.293390650188071  8.44137931034483 0  8.06206896551724 0  C 8.06206896551724 0  7.54137931034483 0  7.54137931034483 0  C 7.16206896551724 0  6.69655172413793 0.293390650188071  6.50344827586207 0.650725416442773  C 6.50344827586207 0.650725416442773  4.87931034482759 3.69747447608812  4.87931034482759 3.69747447608812  C 4.68965517241379 4.05480924234283  4.51724137931035 4.3481998925309  4.5 4.3481998925309  C 4.48275862068965 4.3481998925309  4.31034482758621 4.05480924234283  4.12068965517241 3.69747447608812  C 4.12068965517241 3.69747447608812  2.49655172413793 0.650725416442773  2.49655172413793 0.650725416442773  C 2.30689655172414 0.293390650188071  1.83793103448276 0  1.45862068965517 0  C 1.45862068965517 0  0.937931034482756 0  0.937931034482756 0  C 0.55862068965517 0  0.403448275862067 0.293390650188071  0.596551724137929 0.650725416442773  C 0.596551724137929 0.650725416442773  2.22068965517241 3.69747447608812  2.22068965517241 3.69747447608812  C 2.41034482758621 4.05480924234283  2.25862068965517 4.3481998925309  1.87931034482759 4.3481998925309  C 1.87931034482759 4.3481998925309  0.689655172413793 4.3481998925309  0.689655172413793 4.3481998925309  C 0.310344827586207 4.3481998925309  0 4.68672756582482  0 5.10048361096185  C 0 5.10048361096185  0 5.66845781837722  0 5.66845781837722  C 0 6.08221386351424  0.310344827586207 6.42074153680817  0.689655172413793 6.42074153680817  C 0.689655172413793 6.42074153680817  2.86206896551724 6.42074153680817  2.86206896551724 6.42074153680817  C 3.24137931034483 6.42074153680817  3.55172413793103 6.7592692101021  3.55172413793103 7.17302525523912  C 3.55172413793103 7.17302525523912  3.55172413793103 7.28210639441161  3.55172413793103 7.28210639441161  C 3.55172413793103 7.69586243954863  3.24137931034483 8.03439011284256  2.86206896551724 8.03439011284256  C 2.86206896551724 8.03439011284256  0.720689655172413 8.03439011284256  0.720689655172413 8.03439011284256  C 0.341379310344827 8.03439011284256  0.0310344827586199 8.37291778613649  0.0310344827586199 8.78667383127351  C 0.0310344827586199 8.78667383127351  0.0310344827586199 9.35464803868888  0.0310344827586199 9.35464803868888  C 0.0310344827586199 9.7684040838259  0.341379310344827 10.1069317571198  0.720689655172413 10.1069317571198  C 0.720689655172413 10.1069317571198  2.86206896551724 10.1069317571198  2.86206896551724 10.1069317571198  C 3.24137931034483 10.1069317571198  3.55172413793103 10.4454594304138  3.55172413793103 10.8592154755508  C 3.55172413793103 10.8592154755508  3.55172413793103 13.247716281569  3.55172413793103 13.247716281569  C 3.55172413793103 13.6614723267061  3.86206896551724 14  4.24137931034483 14  C 4.24137931034483 14  4.76206896551724 14  4.76206896551724 14  C 5.14137931034483 14  5.45172413793104 13.6614723267061  5.45172413793104 13.247716281569  C 5.45172413793104 13.247716281569  5.45172413793104 10.8592154755508  5.45172413793104 10.8592154755508  C 5.45172413793104 10.4454594304138  5.76206896551724 10.1069317571198  6.14137931034483 10.1069317571198  C 6.14137931034483 10.1069317571198  8.28275862068966 10.1069317571198  8.28275862068966 10.1069317571198  C 8.66206896551724 10.1069317571198  8.97241379310345 9.7684040838259  8.97241379310345 9.35464803868888  C 8.97241379310345 9.35464803868888  8.97241379310345 8.78667383127351  8.97241379310345 8.78667383127351  C 8.97241379310345 8.37291778613649  8.66206896551724 8.03439011284256  8.28275862068966 8.03439011284256  C 8.28275862068966 8.03439011284256  6.14137931034483 8.03439011284256  6.14137931034483 8.03439011284256  C 5.76206896551724 8.03439011284256  5.45172413793104 7.69586243954863  5.45172413793104 7.28210639441161  C 5.45172413793104 7.28210639441161  5.45172413793104 7.17302525523912  5.45172413793104 7.17302525523912  C 5.45172413793104 6.7592692101021  5.76206896551724 6.42074153680817  6.14137931034483 6.42074153680817  Z " fill-rule="nonzero" fill="#dcac78" stroke="none" transform="matrix(1 0 0 1 302 573 )" />
  </g>
</svg>