<?xml version="1.0" encoding="utf-8"?>
<svg version="1.1" xmlns:xlink="http://www.w3.org/1999/xlink" width="36px" height="36px" xmlns="http://www.w3.org/2000/svg">
  <defs>
    <linearGradient gradientUnits="userSpaceOnUse" x1="34.8964227157482" y1="18.1490419354014" x2="1.10357728425183" y2="18.1490419354014" id="LinearGradient356">
      <stop id="Stop357" stop-color="#fc434a" offset="0" />
      <stop id="Stop358" stop-color="#ff7446" offset="1" />
    </linearGradient>
  </defs>
  <g transform="matrix(1 0 0 1 -170 -400 )">
    <path d="M 17.75 35.5  C 27.5511731843576 35.5  35.5 27.5511731843576  35.5 17.75  C 35.5 7.94882681564241  27.5511731843576 0  17.75 0  C 7.94882681564241 0  0 7.94882681564241  0 17.75  C 0 27.5511731843576  7.94882681564241 35.5  17.75 35.5  Z M 27.8507962294252 12.7560293353561  C 28.3039718245491 12.3062464747838  28.3039718245491 11.5802811559652  27.8547714539436 11.1265528317037  C 27.4015958588202 10.6767699711313  26.6661793228736 10.6767699711313  26.2130037277502 11.1265528317037  C 26.2130037277502 11.1265528317037  15.3288389957452 21.9292324128178  15.3288389957452 21.9292324128178  C 15.3288389957452 21.9292324128178  9.29047295194823 15.9360730688761  9.29047295194823 15.9360730688761  C 8.83729735682437 15.4862902083039  8.10188082087825 15.4862902083039  7.64870522575438 15.9360730688761  C 7.19552963063097 16.3858559294483  7.19552963063097 17.1157667119562  7.64870522575438 17.5655495725284  C 7.64870522575438 17.5655495725284  14.5099427449077 24.3714744364518  14.5099427449077 24.3714744364518  C 14.7246048689135 24.5884749393595  15.0227467078107 24.7107843137255  15.3288389957452 24.7107843137255  C 15.6349312836792 24.7107843137255  15.929097898058 24.5884749393595  16.1477352465827 24.3714744364518  C 16.1477352465827 24.3714744364518  27.8507962294252 12.7560293353561  27.8507962294252 12.7560293353561  Z " fill-rule="nonzero" fill="url(#LinearGradient356)" stroke="none" transform="matrix(1 0 0 1 170 400 )" />
  </g>
</svg>