<?xml version="1.0" encoding="utf-8"?>
<svg version="1.1" xmlns:xlink="http://www.w3.org/1999/xlink" width="21px" height="22px" xmlns="http://www.w3.org/2000/svg">
  <g transform="matrix(1 0 0 1 -13 -12 )">
    <path d="M 14.0714428968974 12.4089417475481  C 14.0714428968974 11.806665184186  14.5506453115717 11.3180637987087  15.1428651462301 11.3180637987087  C 15.1428651462301 11.3180637987087  20.4999999769237 11.3180637987087  20.4999999769237 11.3180637987087  C 20.4999999769237 11.3180637987087  20.5 7.68177993346141  20.5 7.68177993346141  C 20.5 6.47655359336624  19.5408867497604 5.5  18.3571555013347 5.5  C 18.3571555013347 5.5  2.64286810577205 5.5  2.64286810577205 5.5  C 1.45913685734639 5.5  0.5 6.47655359336624  0.5 7.68177993346141  C 0.5 7.68177993346141  0.5 19.3182200665386  0.5 19.3182200665386  C 0.5 20.5227491574803  1.45911325023959 21.5  2.64286810577205 21.5  C 2.64286810577205 21.5  18.3571555013347 21.5  18.3571555013347 21.5  C 19.5408867497604 21.5  20.5 20.5227491574803  20.5 19.3182200665386  C 20.5 19.3182200665386  20.5 15.6819602605693  20.5 15.6819602605693  C 20.5 15.6819602605693  15.1428651462301 15.6819602605693  15.1428651462301 15.6819602605693  C 14.5506453115717 15.6819602605693  14.0714428968974 15.1933348393094  14.0714428968974 14.5910582759473  C 14.0714428968974 14.5910582759473  14.0714428968974 12.4089417475481  14.0714428968974 12.4089417475481  Z M 18 13.9996281569235  C 18 13.9996281569235  18 12.9998760523078  18 12.9998760523078  C 18 12.7235956936421  17.7763525600637 12.5  17.5000082623996 12.5  C 17.5000082623996 12.5  16.4999917376004 12.5  16.4999917376004 12.5  C 16.2236474399363 12.5  16 12.7235956936421  16 12.9998760523078  C 16 12.9998760523078  16 13.9996281569235  16 13.9996281569235  C 16 14.2754457667721  16.2236474399363 14.5  16.4999917376004 14.5  C 16.4999917376004 14.5  17.5000082623996 14.5  17.5000082623996 14.5  C 17.7763525600637 14.5  18 14.2754457990712  18 13.9996281569235  Z M 6.5 3.98891311498607  L 9.31194160983092 4  C 9.31194160983092 4  12.1335451935987 2.3680485905612  12.1335451935987 2.3680485905612  C 13.1487086138847 1.78020949744306  13.4804211368892 1.86951395950437  14.0671118089574 2.88664742696312  C 14.0671118089574 2.88664742696312  14.7029078275115 3.99029604368943  14.7029078275115 3.99029604368943  L 16 3.99444482979952  C 16 3.99444482979952  14.9385385953425 1.56348792867054  14.9385385953425 1.56348792867054  C 14.351824535639 0.546377916598818  13.0540071178403 0.198113910392038  12.0381652732383 0.785249822917812  C 12.0381652732383 0.785249822917812  6.5 3.98891311498607  6.5 3.98891311498607  Z " fill-rule="nonzero" fill="#ffffff" stroke="none" transform="matrix(1 0 0 1 13 12 )" />
  </g>
</svg>