<?xml version="1.0" encoding="utf-8"?>
<svg version="1.1" xmlns:xlink="http://www.w3.org/1999/xlink" width="27px" height="27px" xmlns="http://www.w3.org/2000/svg">
  <defs>
    <mask fill="white" id="clip284">
      <path d="M 22.6946800790079 13.6469443599878  C 22.3283140645286 13.6469443599879  22.0285600526819 13.3514138035877  22.0285600526819 12.9902097902098  C 22.0285600526819 12.9902097902098  22.0318906528136 0.656734569778049  22.0318906528136 0.656734569778049  C 22.0318906528136 0.295530556400122  21.7321366409669 0  21.3657706264876 0  C 21.3657706264876 0  5.4255183965062 0  5.4255183965062 0  C 5.0591523820269 0  4.75939837018019 0.295530556400122  4.75939837018019 0.656734569778049  C 4.75939837018019 0.656734569778049  4.76272897031182 12.9902097902098  4.76272897031182 12.9902097902098  C 4.76272897031182 13.3514138035877  4.46297495846512 13.6469443599879  4.09660894398581 13.6469443599879  C 4.09660894398581 13.6469443599879  0.343022595638761 13.6469443599879  0.343022595638761 13.6469443599879  C -0.0233434188405437 13.6469443599879  -0.109939022262924 13.8570994223168  0.149847788004218 14.1099422316814  C 0.149847788004218 14.1099422316814  13.0459314976757 26.8079051383399  13.0459314976757 26.8079051383399  C 13.3057183079429 27.0640316205534  13.7287045246599 27.0640316205534  13.988491334927 26.8079051383399  C 13.988491334927 26.8079051383399  26.8512690432822 14.1000912131347  26.8512690432822 14.1000912131347  C 27.1110558535494 13.8439647309213  27.0211296499954 13.6370933414412  26.6547636355161 13.6370933414412  C 26.6547636355161 13.6370933414412  22.6946800790079 13.6469443599878  22.6946800790079 13.6469443599878  Z " fill-rule="evenodd" />
    </mask>
  </defs>
  <g transform="matrix(1 0 0 1 -293 -567 )">
    <path d="M 22.6946800790079 13.6469443599878  C 22.3283140645286 13.6469443599879  22.0285600526819 13.3514138035877  22.0285600526819 12.9902097902098  C 22.0285600526819 12.9902097902098  22.0318906528136 0.656734569778049  22.0318906528136 0.656734569778049  C 22.0318906528136 0.295530556400122  21.7321366409669 0  21.3657706264876 0  C 21.3657706264876 0  5.4255183965062 0  5.4255183965062 0  C 5.0591523820269 0  4.75939837018019 0.295530556400122  4.75939837018019 0.656734569778049  C 4.75939837018019 0.656734569778049  4.76272897031182 12.9902097902098  4.76272897031182 12.9902097902098  C 4.76272897031182 13.3514138035877  4.46297495846512 13.6469443599879  4.09660894398581 13.6469443599879  C 4.09660894398581 13.6469443599879  0.343022595638761 13.6469443599879  0.343022595638761 13.6469443599879  C -0.0233434188405437 13.6469443599879  -0.109939022262924 13.8570994223168  0.149847788004218 14.1099422316814  C 0.149847788004218 14.1099422316814  13.0459314976757 26.8079051383399  13.0459314976757 26.8079051383399  C 13.3057183079429 27.0640316205534  13.7287045246599 27.0640316205534  13.988491334927 26.8079051383399  C 13.988491334927 26.8079051383399  26.8512690432822 14.1000912131347  26.8512690432822 14.1000912131347  C 27.1110558535494 13.8439647309213  27.0211296499954 13.6370933414412  26.6547636355161 13.6370933414412  C 26.6547636355161 13.6370933414412  22.6946800790079 13.6469443599878  22.6946800790079 13.6469443599878  Z " fill-rule="nonzero" fill="#ffffff" stroke="none" transform="matrix(1 0 0 1 293 567 )" />
    <path d="M 22.6946800790079 13.6469443599878  C 22.3283140645286 13.6469443599879  22.0285600526819 13.3514138035877  22.0285600526819 12.9902097902098  C 22.0285600526819 12.9902097902098  22.0318906528136 0.656734569778049  22.0318906528136 0.656734569778049  C 22.0318906528136 0.295530556400122  21.7321366409669 0  21.3657706264876 0  C 21.3657706264876 0  5.4255183965062 0  5.4255183965062 0  C 5.0591523820269 0  4.75939837018019 0.295530556400122  4.75939837018019 0.656734569778049  C 4.75939837018019 0.656734569778049  4.76272897031182 12.9902097902098  4.76272897031182 12.9902097902098  C 4.76272897031182 13.3514138035877  4.46297495846512 13.6469443599879  4.09660894398581 13.6469443599879  C 4.09660894398581 13.6469443599879  0.343022595638761 13.6469443599879  0.343022595638761 13.6469443599879  C -0.0233434188405437 13.6469443599879  -0.109939022262924 13.8570994223168  0.149847788004218 14.1099422316814  C 0.149847788004218 14.1099422316814  13.0459314976757 26.8079051383399  13.0459314976757 26.8079051383399  C 13.3057183079429 27.0640316205534  13.7287045246599 27.0640316205534  13.988491334927 26.8079051383399  C 13.988491334927 26.8079051383399  26.8512690432822 14.1000912131347  26.8512690432822 14.1000912131347  C 27.1110558535494 13.8439647309213  27.0211296499954 13.6370933414412  26.6547636355161 13.6370933414412  C 26.6547636355161 13.6370933414412  22.6946800790079 13.6469443599878  22.6946800790079 13.6469443599878  Z " stroke-width="3" stroke="#ddae7b" fill="none" transform="matrix(1 0 0 1 293 567 )" mask="url(#clip284)" />
  </g>
</svg>