<?xml version="1.0" encoding="utf-8"?>
<svg version="1.1" xmlns:xlink="http://www.w3.org/1999/xlink" width="8px" height="12px" xmlns="http://www.w3.org/2000/svg">
  <g transform="matrix(1 0 0 1 -188 -198 )">
    <path d="M 2.98207884026514 8.6155988911494  L 0.352278554487026 8.6155988911494  L 0.352278554487026 7.01949859228542  L 2.98207884026514 7.01949859228542  L 2.98207884026514 6.15459610170186  L 0.352278554487026 6.15459610170186  L 0.352278554487026 4.55849583748001  L 2.20378903743831 4.55849583748001  L 0 0  L 2.18330774113746 0  C 2.18330774113746 0  3.60061445043617 3.07938719625502  3.60061445043617 3.07938719625502  C 3.78084997335498 3.46378832242667  3.90783409872186 3.80640667908513  3.98566307221211 4.09888578854045  C 4.0757808506526 3.7813370381625  4.20276497601949 3.4387186468619  4.37071172795023 3.07938719625502  C 4.37071172795023 3.07938719625502  5.81669225886255 0  5.81669225886255 0  L 8.00000000000002 0  L 5.76753710698592 4.55849583748001  L 7.64362519983769 4.55849583748001  L 7.64362519983769 6.15459610170186  L 4.98105477884632 6.15459610170186  L 4.98105477884632 7.01949859228542  L 7.64362519983769 7.01949859228542  L 7.64362519983769 8.6155988911494  L 4.98105477884632 8.6155988911494  L 4.98105477884632 12  L 2.99027136557791 12  L 2.98207884026514 8.6155988911494  Z " fill-rule="nonzero" fill="#d3830d" stroke="none" transform="matrix(1 0 0 1 188 198 )" />
  </g>
</svg>