<?xml version="1.0" encoding="utf-8"?>
<svg version="1.1" xmlns:xlink="http://www.w3.org/1999/xlink" width="25px" height="19px" xmlns="http://www.w3.org/2000/svg">
  <g transform="matrix(1 0 0 1 -176 -409 )">
    <path d="M 24.3292396710652 3.15328778468034  C 25.0220668986994 2.43248943033663  25.0149796258694 1.27427423307307  24.3165974951767 0.564295673223057  C 23.6182153644841 -0.147453373502515  22.4886598010552 -0.140174609938185  21.7973648875166 0.578951665563579  L 8.80929573289816 14.064412709234  L 3.05999779201602 7.99684051446897  C 2.37224654273057 7.27043547540288  1.24451069276389 7.25764837796982  0.540765184355942 7.96024976622363  C -0.164799981838391 8.66472004938487  -0.180794185284902 9.82480408437419  0.505137350538353 10.5475697416581  L 7.52123463075213 17.9526714931296  C 7.5247782393293 17.9581797698192  7.53196127483086 17.9581797698192  7.53550493908396 17.963688046508  C 7.53904854766101 17.9673274282901  7.54086826112321 17.9747045998864  7.54441186970038 17.9783440388485  C 7.65665869319269 18.0917556653659  7.79562641988616 18.1612977800744  7.92750687374955 18.2382170091984  C 7.99694282792253 18.2766766523512  8.05220429211132 18.3407104331893  8.1234599597465 18.3699240098385  C 8.33904667611469 18.461400880451  8.56890364513868 18.5071392871673  8.79694095637622 18.5071392871673  C 9.02325431682304 18.5071392871673  9.24947191459838 18.461400880451  9.4632389175042 18.3735633916206  C 9.5326748716773 18.3442514641195  9.58621238507525 18.2857259027894  9.65210473067123 18.249135154544  C 9.78570907964942 18.172314276272  9.9246768063429 18.1045427056189  10.0387433432974 17.9892621841941  C 10.0422869518746 17.9856228024128  10.0441066653368 17.9782456308166  10.0494699873761 17.9746061918536  C 10.0530135959532 17.9690979151648  10.0583769179926 17.9673273711093  10.0637402957078 17.9635896384752  L 19.3121166047688 8.36201585611735  L 24.3292396710652 3.15328778468034  Z " fill-rule="nonzero" fill="#ffffff" stroke="none" transform="matrix(1 0 0 1 176 409 )" />
  </g>
</svg>