<?xml version="1.0" encoding="utf-8"?>
<svg version="1.1" xmlns:xlink="http://www.w3.org/1999/xlink" width="13px" height="24px" xmlns="http://www.w3.org/2000/svg">
  <g transform="matrix(1 0 0 1 -365 -493 )">
    <path d="M 0.223367697594354 11.4468937875751  C 0.0744558991982971 11.6072144288577  0 11.7915831663326  0 12  C 0 12.2084168336674  0.0744558991982971 12.3927855711423  0.223367697594354 12.5531062124249  L 10.6323024054982 23.7595190380761  C 10.7812142038946 23.9198396793587  10.9524627720503 24  11.1460481099655 24  C 11.339633447881 24  11.5108820160367 23.9198396793587  11.6597938144328 23.7595190380761  L 12.7766323024056 22.5571142284568  C 12.9255441008017 22.3967935871745  13 22.2124248496993  13 22.004008016032  C 13 21.7955911823648  12.9255441008017 21.61122244489  12.7766323024056 21.4509018036071  L 3.99828178694162 12  L 12.7766323024056 2.5490981963929  C 12.9255441008017 2.38877755511004  13 2.20440881763517  13 1.99599198396804  C 13 1.78757515030065  12.9255441008017 1.60320641282554  12.7766323024056 1.44288577154318  L 11.6597938144328 0.240480961923905  C 11.5108820160367 0.0801603206413016  11.339633447881 0  11.1460481099655 0  C 10.9524627720503 0  10.7812142038946 0.0801603206413016  10.6323024054982 0.240480961923905  L 0.223367697594354 11.4468937875751  Z " fill-rule="nonzero" fill="#555555" stroke="none" transform="matrix(1 0 0 1 365 493 )" />
  </g>
</svg>