<?xml version="1.0" encoding="utf-8"?>
<svg version="1.1" xmlns:xlink="http://www.w3.org/1999/xlink" width="4px" height="4px" preserveAspectRatio="xMinYMid meet" viewBox="594 577  4 2" xmlns="http://www.w3.org/2000/svg">
  <path d="M 595.5 515  A 3 3 0 0 0 592.5 518 A 3 3 0 0 0 595.5 521 A 3 3 0 0 0 598.5 518 A 3 3 0 0 0 595.5 515 Z M 595.5 516  A 2 2 0 0 1 597.5 518 A 2 2 0 0 1 595.5 520 A 2 2 0 0 1 593.5 518 A 2 2 0 0 1 595.5 516 Z " fill-rule="nonzero" fill="#555555" stroke="none" transform="matrix(0.999999777090374 0.000667696938819085 -0.000667696938819085 0.999999777090374 0.36502911974685 -0.397491706956203 )" />
  <path d="M 595.5 520  L 595.5 578  " stroke-width="1" stroke-dasharray="3,1" stroke="#555555" fill="none" transform="matrix(0.999999777090374 0.000667696938819085 -0.000667696938819085 0.999999777090374 0.36502911974685 -0.397491706956203 )" />
</svg>