<?xml version="1.0" encoding="utf-8"?>
<svg version="1.1" xmlns:xlink="http://www.w3.org/1999/xlink" width="4px" height="4px" preserveAspectRatio="xMinYMid meet" viewBox="594 673  4 2" xmlns="http://www.w3.org/2000/svg">
  <path d="M 595.5 593  A 3 3 0 0 0 592.5 596 A 3 3 0 0 0 595.5 599 A 3 3 0 0 0 598.5 596 A 3 3 0 0 0 595.5 593 Z M 595.5 594  A 2 2 0 0 1 597.5 596 A 2 2 0 0 1 595.5 598 A 2 2 0 0 1 593.5 596 A 2 2 0 0 1 595.5 594 Z " fill-rule="nonzero" fill="#555555" stroke="none" transform="matrix(0.999997918822363 0.00204018404627006 -0.00204018404627006 0.999997918822363 1.29267584257173 -1.21361221410962 )" />
  <path d="M 595.5 598  L 595.5 673  " stroke-width="1" stroke-dasharray="3,1" stroke="#555555" fill="none" transform="matrix(0.999997918822363 0.00204018404627006 -0.00204018404627006 0.999997918822363 1.29267584257173 -1.21361221410962 )" />
</svg>