<?xml version="1.0" encoding="utf-8"?>
<svg version="1.1" xmlns:xlink="http://www.w3.org/1999/xlink" width="36px" height="36px" xmlns="http://www.w3.org/2000/svg">
  <defs>
    <mask fill="white" id="clip71">
      <path d="M 1287 348.5  C 1277.2875 348.5  1269.5 340.7125  1269.5 331  L 1269.5 331  C 1269.5 321.2875  1277.2875 313.5  1287 313.5  L 1287 313.5  C 1296.7125 313.5  1304.5 321.2875  1304.5 331  L 1304.5 331  C 1304.5 340.7125  1296.7125 348.5  1287 348.5  L 1287 348.5  " fill-rule="evenodd" />
    </mask>
  </defs>
  <g transform="matrix(1 0 0 1 -1269 -313 )">
    <path d="M 1269 313  L 1305 313  L 1305 349  L 1269 349  L 1269 313  " fill-rule="nonzero" fill="#cccccc" stroke="none" mask="url(#clip71)" />
    <path d="M 1272 316  L 1302 316  L 1302 346  L 1272 346  L 1272 316  " fill-rule="nonzero" fill="#ffffff" stroke="none" mask="url(#clip71)" />
    <path d="M 1290.42 323.8  C 1288.908 323.8  1287.72 322.612  1287.72 321.1  C 1287.72 319.588  1288.908 318.4  1290.42 318.4  C 1291.932 318.4  1293.12 319.588  1293.12 321.1  C 1293.12 322.612  1291.932 323.8  1290.42 323.8  " fill-rule="nonzero" fill="#cccccc" stroke="none" mask="url(#clip71)" />
    <path d="M 1273 345  L 1273 329.6  L 1280 322.6  L 1289.8 328.2  L 1295.4 326.8  L 1301 328.2  L 1301 345  L 1273 345  " fill-rule="nonzero" fill="#169bd5" stroke="none" mask="url(#clip71)" />
    <path d="M 1287 348.5  C 1277.2875 348.5  1269.5 340.7125  1269.5 331  L 1269.5 331  C 1269.5 321.2875  1277.2875 313.5  1287 313.5  L 1287 313.5  C 1296.7125 313.5  1304.5 321.2875  1304.5 331  L 1304.5 331  C 1304.5 340.7125  1296.7125 348.5  1287 348.5  L 1287 348.5  Z " stroke-width="1" stroke="#d7d7d7" fill="none" mask="url(#clip71)" />
  </g>
</svg>