<?xml version="1.0" encoding="utf-8"?>
<svg version="1.1" xmlns:xlink="http://www.w3.org/1999/xlink" width="19px" height="90px" xmlns="http://www.w3.org/2000/svg">
  <g transform="matrix(1 0 0 1 -101 -311 )">
    <path d="M 110.5 320  A 3 3 0 0 0 107.5 323 A 3 3 0 0 0 110.5 326 A 3 3 0 0 0 113.5 323 A 3 3 0 0 0 110.5 320 Z M 110.5 321  A 2 2 0 0 1 112.5 323 A 2 2 0 0 1 110.5 325 A 2 2 0 0 1 108.5 323 A 2 2 0 0 1 110.5 321 Z " fill-rule="nonzero" fill="#555555" stroke="none" />
    <path d="M 110.5 325  L 110.5 400  " stroke-width="1" stroke-dasharray="3,1" stroke="#555555" fill="none" />
  </g>
</svg>