<?xml version="1.0" encoding="utf-8"?>
<svg version="1.1" xmlns:xlink="http://www.w3.org/1999/xlink" width="4px" height="4px" preserveAspectRatio="xMinYMid meet" viewBox="108 399  4 2" xmlns="http://www.w3.org/2000/svg">
  <path d="M 110.5 320  A 3 3 0 0 0 107.5 323 A 3 3 0 0 0 110.5 326 A 3 3 0 0 0 113.5 323 A 3 3 0 0 0 110.5 320 Z M 110.5 321  A 2 2 0 0 1 112.5 323 A 2 2 0 0 1 110.5 325 A 2 2 0 0 1 108.5 323 A 2 2 0 0 1 110.5 321 Z " fill-rule="nonzero" fill="#555555" stroke="none" transform="matrix(0.999997918822363 0.00204018404627006 -0.00204018404627006 0.999997918822363 0.734696226786099 -0.224691113163544 )" />
  <path d="M 110.5 325  L 110.5 400  " stroke-width="1" stroke-dasharray="3,1" stroke="#555555" fill="none" transform="matrix(0.999997918822363 0.00204018404627006 -0.00204018404627006 0.999997918822363 0.734696226786099 -0.224691113163544 )" />
</svg>