<?xml version="1.0" encoding="utf-8"?>
<svg version="1.1" xmlns:xlink="http://www.w3.org/1999/xlink" width="44px" height="40px" xmlns="http://www.w3.org/2000/svg">
  <g transform="matrix(1 0 0 1 -188 -339 )">
    <path d="M 210 339  C 222.32 339  232 347.8  232 359  C 232 370.2  222.32 379  210 379  C 197.68 379  188 370.2  188 359  C 188 347.8  197.68 339  210 339  Z " fill-rule="nonzero" fill="#ffffff" stroke="none" />
    <path d="M 210 339.5  C 222.04 339.5  231.5 348.08  231.5 359  C 231.5 369.92  222.04 378.5  210 378.5  C 197.96 378.5  188.5 369.92  188.5 359  C 188.5 348.08  197.96 339.5  210 339.5  Z " stroke-width="1" stroke="#797979" fill="none" />
  </g>
</svg>