<?xml version="1.0" encoding="utf-8"?>
<svg version="1.1" xmlns:xlink="http://www.w3.org/1999/xlink" width="45px" height="220px" xmlns="http://www.w3.org/2000/svg">
  <g transform="matrix(1 0 0 1 -425 -733 )">
    <path d="M 425.941176470588 935.217854969744  C 425.941176470588 935.217854969744  425.941176470588 738.416666666667  425.941176470588 738.416666666667  C 425.941176470588 735.931385292428  427.95589509635 733.916666666667  430.441176470588 733.916666666667  C 430.441176470588 733.916666666667  464.558823529412 733.916666666667  464.558823529412 733.916666666667  C 467.04410490365 733.916666666667  469.058823529412 735.931385292428  469.058823529412 738.416666666667  C 469.058823529412 738.416666666667  469.058823529412 935.217854969744  469.058823529412 935.217854969744  C 469.058823529412 937.703136343983  467.04410490365 939.717854969744  464.558823529412 939.717854969744  C 464.558823529412 939.717854969744  456.962087734281 939.717854969744  456.962087734281 939.717854969744  C 456.962087734281 939.717854969744  447.208991678476 951.161778476648  447.208991678476 951.161778476648  C 447.208991678476 951.161778476648  437.423235685469 939.717854969744  437.423235685469 939.717854969744  C 437.423235685469 939.717854969744  430.441176470588 939.717854969744  430.441176470588 939.717854969744  C 427.95589509635 939.717854969744  425.941176470588 937.703136343983  425.941176470588 935.217854969744  Z " fill-rule="nonzero" fill="#ffffff" stroke="none" fill-opacity="0.8" />
    <path d="M 425.441176470588 935.217854969744  C 425.441176470588 935.217854969744  425.441176470588 738.416666666667  425.441176470588 738.416666666667  C 425.441176470588 735.655242917513  427.679752721434 733.416666666667  430.441176470588 733.416666666667  C 430.441176470588 733.416666666667  464.558823529412 733.416666666667  464.558823529412 733.416666666667  C 467.320247278566 733.416666666667  469.558823529412 735.655242917513  469.558823529412 738.416666666667  C 469.558823529412 738.416666666667  469.558823529412 935.217854969744  469.558823529412 935.217854969744  C 469.558823529412 937.979278718898  467.320247278566 940.217854969744  464.558823529412 940.217854969744  C 464.558823529412 940.217854969744  457.192911947388 940.217854969744  457.192911947388 940.217854969744  C 457.192911947388 940.217854969744  447.209627329193 951.931873253228  447.209627329193 951.931873253228  C 447.209627329193 951.931873253228  437.192911947388 940.217854969744  437.192911947388 940.217854969744  C 437.192911947388 940.217854969744  430.441176470588 940.217854969744  430.441176470588 940.217854969744  C 427.679752721434 940.217854969744  425.441176470588 937.979278718898  425.441176470588 935.217854969744  Z M 426.441176470588 935.217854969744  C 426.441176470588 937.426993969068  428.232037471265 939.217854969744  430.441176470588 939.217854969744  C 430.441176470588 939.217854969744  437.653559423549 939.217854969744  437.653559423549 939.217854969744  C 437.653559423549 939.217854969744  447.208356027759 950.391683700068  447.208356027759 950.391683700068  C 447.208356027759 950.391683700068  456.731263521174 939.217854969744  456.731263521174 939.217854969744  C 456.731263521174 939.217854969744  464.558823529412 939.217854969744  464.558823529412 939.217854969744  C 466.767962528735 939.217854969744  468.558823529412 937.426993969068  468.558823529412 935.217854969744  C 468.558823529412 935.217854969744  468.558823529412 738.416666666667  468.558823529412 738.416666666667  C 468.558823529412 736.207527667343  466.767962528735 734.416666666667  464.558823529412 734.416666666667  C 464.558823529412 734.416666666667  430.441176470588 734.416666666667  430.441176470588 734.416666666667  C 428.232037471265 734.416666666667  426.441176470588 736.207527667343  426.441176470588 738.416666666667  C 426.441176470588 738.416666666667  426.441176470588 935.217854969744  426.441176470588 935.217854969744  Z " fill-rule="nonzero" fill="#e9e9e9" stroke="none" />
  </g>
</svg>