<?xml version="1.0" encoding="utf-8"?>
<svg version="1.1" xmlns:xlink="http://www.w3.org/1999/xlink" width="200px" height="50px" xmlns="http://www.w3.org/2000/svg">
  <g transform="matrix(1 0 0 1 -575 -524 )">
    <path d="M 575.5 559.026036445757  C 575.5 559.026036445757  575.5 529  575.5 529  C 575.5 526.514718625761  577.514718625761 524.5  580 524.5  C 580 524.5  770 524.5  770 524.5  C 772.485281374239 524.5  774.5 526.514718625761  774.5 529  C 774.5 529  774.5 559.026036445757  774.5 559.026036445757  C 774.5 561.511317819995  772.485281374239 563.526036445757  770 563.526036445757  C 770 563.526036445757  685.104242209376 563.526036445757  685.104242209376 563.526036445757  C 685.104242209376 563.526036445757  675.630336099981 572.948945951432  675.630336099981 572.948945951432  C 675.630336099981 572.948945951432  665.507254411356 563.526036445757  665.507254411356 563.526036445757  C 665.507254411356 563.526036445757  580 563.526036445757  580 563.526036445757  C 577.514718625761 563.526036445757  575.5 561.511317819995  575.5 559.026036445757  Z " fill-rule="nonzero" fill="#ffffff" stroke="none" fill-opacity="0.8" />
    <path d="M 575 559.026036445757  C 575 559.026036445757  575 529  575 529  C 575 526.238576250846  577.238576250846 524  580 524  C 580 524  770 524  770 524  C 772.761423749154 524  775 526.238576250846  775 529  C 775 529  775 559.026036445757  775 559.026036445757  C 775 561.787460194911  772.761423749154 564.026036445757  770 564.026036445757  C 770 564.026036445757  685.310559006211 564.026036445757  685.310559006211 564.026036445757  C 685.310559006211 564.026036445757  675.64182194617 573.642728156539  675.64182194617 573.642728156539  C 675.64182194617 573.642728156539  665.310559006211 564.026036445757  665.310559006211 564.026036445757  C 665.310559006211 564.026036445757  580 564.026036445757  580 564.026036445757  C 577.238576250846 564.026036445757  575 561.787460194911  575 559.026036445757  Z M 576 559.026036445757  C 576 561.23517544508  577.790861000677 563.026036445757  580 563.026036445757  C 580 563.026036445757  665.703949816501 563.026036445757  665.703949816501 563.026036445757  C 665.703949816501 563.026036445757  675.618850253792 572.255163746326  675.618850253792 572.255163746326  C 675.618850253792 572.255163746326  684.89792541254 563.026036445757  684.89792541254 563.026036445757  C 684.89792541254 563.026036445757  770 563.026036445757  770 563.026036445757  C 772.209138999323 563.026036445757  774 561.23517544508  774 559.026036445757  C 774 559.026036445757  774 529  774 529  C 774 526.790861000677  772.209138999323 525  770 525  C 770 525  580 525  580 525  C 577.790861000677 525  576 526.790861000677  576 529  C 576 529  576 559.026036445757  576 559.026036445757  Z " fill-rule="nonzero" fill="#e9e9e9" stroke="none" />
  </g>
</svg>