<?xml version="1.0" encoding="utf-8"?>
<svg version="1.1" xmlns:xlink="http://www.w3.org/1999/xlink" width="200px" height="50px" xmlns="http://www.w3.org/2000/svg">
  <g transform="matrix(1 0 0 1 -521 -363 )">
    <path d="M 521 398.026036445757  C 521 398.026036445757  521 368  521 368  C 521 365.238576250846  523.238576250846 363  526 363  C 526 363  716 363  716 363  C 718.761423749154 363  721 365.238576250846  721 368  C 721 368  721 398.026036445757  721 398.026036445757  C 721 400.787460194911  718.761423749154 403.026036445757  716 403.026036445757  C 716 403.026036445757  631.310559006211 403.026036445757  631.310559006211 403.026036445757  C 631.310559006211 403.026036445757  621.64182194617 412.642728156539  621.64182194617 412.642728156539  C 621.64182194617 412.642728156539  611.310559006211 403.026036445757  611.310559006211 403.026036445757  C 611.310559006211 403.026036445757  526 403.026036445757  526 403.026036445757  C 523.238576250846 403.026036445757  521 400.787460194911  521 398.026036445757  Z " fill-rule="nonzero" fill="#000000" stroke="none" fill-opacity="0.8" />
  </g>
</svg>