<?xml version="1.0" encoding="utf-8"?>
<svg version="1.1" xmlns:xlink="http://www.w3.org/1999/xlink" width="16px" height="16px" xmlns="http://www.w3.org/2000/svg">
  <g transform="matrix(1 0 0 1 -421 -165 )">
    <path d="M 429 166  C 432.92 166  436 169.08  436 173  C 436 176.92  432.92 180  429 180  C 425.08 180  422 176.92  422 173  C 422 169.08  425.08 166  429 166  Z " fill-rule="nonzero" fill="#f2f2f2" stroke="none" />
    <path d="M 429 166  C 432.92 166  436 169.08  436 173  C 436 176.92  432.92 180  429 180  C 425.08 180  422 176.92  422 173  C 422 169.08  425.08 166  429 166  Z " stroke-width="2" stroke="#000000" fill="none" />
  </g>
</svg>