<?xml version="1.0" encoding="utf-8"?>
<svg version="1.1" xmlns:xlink="http://www.w3.org/1999/xlink" width="305px" height="50px" xmlns="http://www.w3.org/2000/svg">
  <g transform="matrix(1 0 0 1 -559 -505 )">
    <path d="M 560 530  A 24 24 0 0 1 584 506 L 839 506  A 24 24 0 0 1 863 530 A 24 24 0 0 1 839 554 L 584 554  A 24 24 0 0 1 560 530 Z " fill-rule="nonzero" fill="#ffffff" stroke="none" />
    <path d="M 559.5 530  A 24.5 24.5 0 0 1 584 505.5 L 839 505.5  A 24.5 24.5 0 0 1 863.5 530 A 24.5 24.5 0 0 1 839 554.5 L 584 554.5  A 24.5 24.5 0 0 1 559.5 530 Z " stroke-width="1" stroke="#0066ff" fill="none" stroke-opacity="0.8" />
  </g>
</svg>