<?xml version="1.0" encoding="utf-8"?>
<svg version="1.1" xmlns:xlink="http://www.w3.org/1999/xlink" width="11px" height="23px" xmlns="http://www.w3.org/2000/svg">
  <g transform="matrix(1 0 0 1 -68 -354 )">
    <path d="M 0.189003436425992 10.9699398797595  C 0.0630011454754822 11.123580494322  0 11.3002672010688  0 11.5  C 0 11.6997327989312  0.0630011454754822 11.876419505678  0.189003436425992 12.0300601202405  L 8.99656357388312 22.7695390781563  C 9.12256586483386 22.9231796927188  9.2674684994272 23  9.43127147766313 23  C 9.59507445589929 23  9.73997709049263 22.9231796927188  9.86597938144314 22.7695390781563  L 10.810996563574 21.6172344689378  C 10.9369988545245 21.4635938543755  11 21.2869071476285  11 21.0871743486973  C 11 20.8874415497663  10.9369988545245 20.7107548430195  10.810996563574 20.5571142284568  L 3.38316151202753 11.5  L 10.810996563574 2.44288577154319  C 10.9369988545245 2.28924515698046  11 2.11255845023371  11 1.9128256513027  C 11 1.71309285237146  10.9369988545245 1.53640614562447  10.810996563574 1.38276553106222  L 9.86597938144314 0.230460921843742  C 9.73997709049263 0.0768203072812474  9.59507445589929 0  9.43127147766313 0  C 9.2674684994272 0  9.12256586483386 0.0768203072812474  8.99656357388312 0.230460921843742  L 0.189003436425992 10.9699398797595  Z " fill-rule="nonzero" fill="#666666" stroke="none" transform="matrix(1 0 0 1 68 354 )" />
  </g>
</svg>