<?xml version="1.0" encoding="utf-8"?>
<svg version="1.1" xmlns:xlink="http://www.w3.org/1999/xlink" width="55px" height="52px" xmlns="http://www.w3.org/2000/svg">
  <g transform="matrix(1 0 0 1 -195 -891 )">
    <path d="M 40.5696614583333 30.9765625  C 41.0232204861111 31.4053819444444  41.25 31.9131944444444  41.25 32.5  C 41.25 33.0868055555556  41.0232204861111 33.5946180555556  40.5696614583333 34.0234375  C 40.1161024305556 34.4522569444445  39.5789930555556 34.6666666666667  38.9583333333333 34  L 16.0416666666667 34  C 15.4210069444444 34.6666666666667  14.8838975694444 34.4522569444445  14.4303385416667 34.0234375  C 13.9767795138889 33.5946180555556  13.75 33.0868055555556  13.75 32.5  C 13.75 31.9131944444444  13.9767795138889 31.4053819444444  14.4303385416667 30.9765625  C 14.8838975694444 30.5477430555556  15.4210069444444 30.3333333333333  16.0416666666667 30  L 38.9583333333333 30  C 39.5789930555556 30.3333333333333  40.1161024305556 30.5477430555556  40.5696614583333 30.9765625  Z M 21.5738932291667 14.26953125  C 22.4690755208333 15.1158854166667  22.9166666666667 16.1371527777778  22.9166666666667 17.3333333333333  C 22.9166666666667 18.5295138888889  22.4690755208333 19.55078125  21.5738932291667 20.3971354166667  C 20.6787109375 21.2434895833333  19.5985243055556 21.6666666666667  18.3333333333333 21.6666666666667  C 17.0681423611111 21.6666666666667  15.9879557291667 21.2434895833333  15.0927734375 20.3971354166667  C 14.1975911458333 19.55078125  13.75 18.5295138888889  13.75 17.3333333333333  C 13.75 16.1371527777778  14.1975911458333 15.1158854166667  15.0927734375 14.26953125  C 15.9879557291667 13.4231770833333  17.0681423611111 13  18.3333333333333 13  C 19.5985243055556 13  20.6787109375 13.4231770833333  21.5738932291667 14.26953125  Z M 39.9072265625 14.26953125  C 40.8024088541667 15.1158854166667  41.25 16.1371527777778  41.25 17.3333333333333  C 41.25 18.5295138888889  40.8024088541667 19.55078125  39.9072265625 20.3971354166667  C 39.0120442708333 21.2434895833333  37.9318576388889 21.6666666666667  36.6666666666667 21.6666666666667  C 35.4014756944445 21.6666666666667  34.3212890625 21.2434895833333  33.4261067708333 20.3971354166667  C 32.5309244791667 19.55078125  32.0833333333333 18.5295138888889  32.0833333333333 17.3333333333333  C 32.0833333333333 16.1371527777778  32.5309244791667 15.1158854166667  33.4261067708333 14.26953125  C 34.3212890625 13.4231770833333  35.4014756944445 13  36.6666666666667 13  C 37.9318576388889 13  39.0120442708333 13.4231770833333  39.9072265625 14.26953125  Z M 48.5904947916667 34.4127604166667  C 49.8079427083333 31.73828125  50.4166666666667 28.9340277777778  50.4166666666667 26  C 50.4166666666667 23.0659722222222  49.8079427083333 20.26171875  48.5904947916667 17.5872395833333  C 47.373046875 14.9127604166667  45.7438151041667 12.6106770833333  43.7027994791667 10.6809895833333  C 41.6617838541667 8.75130208333334  39.2268880208333 7.2109375  36.3981119791667 6.05989583333334  C 33.5693359375 4.90885416666666  30.6032986111111 4.33333333333334  27.5 4.33333333333334  C 24.3967013888889 4.33333333333334  21.4306640625 4.90885416666666  18.6018880208333 6.05989583333334  C 15.7731119791667 7.2109375  13.3382161458333 8.75130208333334  11.2972005208333 10.6809895833333  C 9.25618489583333 12.6106770833333  7.626953125 14.9127604166667  6.40950520833333 17.5872395833333  C 5.19205729166667 20.26171875  4.58333333333333 23.0659722222222  4.58333333333333 26  C 4.58333333333333 28.9340277777778  5.19205729166667 31.73828125  6.40950520833333 34.4127604166667  C 7.626953125 37.0872395833333  9.25618489583333 39.3893229166667  11.2972005208333 41.3190104166667  C 13.3382161458333 43.2486979166667  15.7731119791667 44.7890625  18.6018880208333 45.9401041666667  C 21.4306640625 47.0911458333333  24.3967013888889 47.6666666666667  27.5 47.6666666666667  C 30.6032986111111 47.6666666666667  33.5693359375 47.0911458333333  36.3981119791667 45.9401041666667  C 39.2268880208333 44.7890625  41.6617838541667 43.2486979166667  43.7027994791667 41.3190104166667  C 45.7438151041667 39.3893229166667  47.373046875 37.0872395833333  48.5904947916667 34.4127604166667  Z M 51.3118489583333 12.94921875  C 53.7706163194444 16.9327256944444  55 21.2829861111111  55 26  C 55 30.7170138888889  53.7706163194444 35.0672743055556  51.3118489583333 39.05078125  C 48.8530815972222 43.0342881944444  45.5170355902778 46.1883680555556  41.3037109375 48.5130208333333  C 37.0903862847222 50.8376736111111  32.4891493055556 52  27.5 52  C 22.5108506944444 52  17.9096137152778 50.8376736111111  13.6962890625 48.5130208333333  C 9.48296440972222 46.1883680555556  6.14691840277778 43.0342881944444  3.68815104166667 39.05078125  C 1.22938368055556 35.0672743055556  0 30.7170138888889  0 26  C 0 21.2829861111111  1.22938368055556 16.9327256944444  3.68815104166667 12.94921875  C 6.14691840277778 8.96571180555556  9.48296440972222 5.81163194444444  13.6962890625 3.48697916666666  C 17.9096137152778 1.16232638888888  22.5108506944444 0  27.5 0  C 32.4891493055556 0  37.0903862847222 1.16232638888888  41.3037109375 3.48697916666666  C 45.5170355902778 5.81163194444444  48.8530815972222 8.96571180555556  51.3118489583333 12.94921875  Z " fill-rule="nonzero" fill="#cccccc" stroke="none" transform="matrix(1 0 0 1 195 891 )" />
  </g>
</svg>