<?xml version="1.0" encoding="utf-8"?>
<svg version="1.1" xmlns:xlink="http://www.w3.org/1999/xlink" width="48px" height="50px" xmlns="http://www.w3.org/2000/svg">
  <g transform="matrix(1 0 0 1 -237 -585 )">
    <path d="M 47.8806818181818 38.1998697916667  C 47.9602272727273 39.2957899305556  48 40.4188368055556  48 41.5690104166667  C 48 44.1731770833333  47.1704545454545 46.2293836805556  45.5113636363636 47.7376302083333  C 43.8522727272727 49.2458767361111  41.6477272727273 50  38.8977272727273 50  L 9.10227272727273 50  C 6.35227272727273 50  4.14772727272727 49.2458767361111  2.48863636363636 47.7376302083333  C 0.829545454545454 46.2293836805556  0 44.1731770833333  0 41.5690104166667  C 0 40.4188368055556  0.0397727272727273 39.2957899305556  0.119318181818182 38.1998697916667  C 0.198863636363636 37.1039496527778  0.357954545454545 35.9212239583333  0.596590909090909 34.6516927083333  C 0.835227272727273 33.3821614583333  1.13636363636364 32.2048611111111  1.5 31.1197916666667  C 1.86363636363636 30.0347222222222  2.35227272727273 28.9767795138889  2.96590909090909 27.9459635416667  C 3.57954545454546 26.9151475694444  4.28409090909091 26.0362413194444  5.07954545454545 25.3092447916667  C 5.875 24.5822482638889  6.84659090909091 24.0017361111111  7.99431818181818 23.5677083333333  C 9.14204545454546 23.1336805555556  10.4090909090909 22.9166666666667  11.7954545454545 22.9166666666667  C 12 22.9166666666667  12.4772727272727 23.1499565972222  13.2272727272727 23.6165364583333  C 13.9772727272727 24.0831163194444  14.8238636363636 24.6039496527778  15.7670454545455 25.1790364583333  C 16.7102272727273 25.7541232638889  17.9375 26.2749565972222  19.4488636363636 26.7415364583333  C 20.9602272727273 27.2081163194444  22.4772727272727 27.44140625  24 27.44140625  C 25.5227272727273 27.44140625  27.0397727272727 27.2081163194444  28.5511363636364 26.7415364583333  C 30.0625 26.2749565972222  31.2897727272727 25.7541232638889  32.2329545454545 25.1790364583333  C 33.1761363636364 24.6039496527778  34.0227272727273 24.0831163194444  34.7727272727273 23.6165364583333  C 35.5227272727273 23.1499565972222  36 22.9166666666667  36.2045454545455 22.9166666666667  C 37.5909090909091 22.9166666666667  38.8579545454546 23.1336805555556  40.0056818181818 23.5677083333333  C 41.1534090909091 24.0017361111111  42.125 24.5822482638889  42.9204545454545 25.3092447916667  C 43.7159090909091 26.0362413194444  44.4204545454545 26.9151475694444  45.0340909090909 27.9459635416667  C 45.6477272727273 28.9767795138889  46.1363636363636 30.0347222222222  46.5 31.1197916666667  C 46.8636363636364 32.2048611111111  47.1647727272727 33.3821614583333  47.4034090909091 34.6516927083333  C 47.6420454545455 35.9212239583333  47.8011363636364 37.1039496527778  47.8806818181818 38.1998697916667  Z M 33.2556818181818 3.662109375  C 35.8125 6.103515625  37.0909090909091 9.04947916666667  37.0909090909091 12.5  C 37.0909090909091 15.9505208333333  35.8125 18.896484375  33.2556818181818 21.337890625  C 30.6988636363636 23.779296875  27.6136363636364 25  24 25  C 20.3863636363636 25  17.3011363636364 23.779296875  14.7443181818182 21.337890625  C 12.1875 18.896484375  10.9090909090909 15.9505208333333  10.9090909090909 12.5  C 10.9090909090909 9.04947916666667  12.1875 6.103515625  14.7443181818182 3.662109375  C 17.3011363636364 1.220703125  20.3863636363636 0  24 0  C 27.6136363636364 0  30.6988636363636 1.220703125  33.2556818181818 3.662109375  Z " fill-rule="nonzero" fill="#cccccc" stroke="none" transform="matrix(1 0 0 1 237 585 )" />
  </g>
</svg>