<?xml version="1.0" encoding="utf-8"?>
<svg version="1.1" xmlns:xlink="http://www.w3.org/1999/xlink" width="59px" height="44px" xmlns="http://www.w3.org/2000/svg">
  <g transform="matrix(1 0 0 1 -151 -729 )">
    <path d="M 47.8252341920375 27.4785036292574  C 48.8730483996878 25.7342266890006  49.3969555035129 23.9039642657733  49.3969555035129 21.9877163595757  C 49.3969555035129 20.071468453378  48.8730483996878 18.2412060301508  47.8252341920375 16.4969290898939  C 46.7774199843872 14.7526521496371  45.361143637783 13.2458589242509  43.5764051522248 11.9765494137353  C 41.7916666666667 10.7072399032198  39.6730093676815 9.69998138842359  37.2204332552693 8.95477386934674  C 34.7678571428571 8.20956635026986  32.1943793911007 7.83696259073144  29.5 7.83696259073144  C 26.8056206088993 7.83696259073144  24.2321428571429 8.20956635026986  21.7795667447307 8.95477386934674  C 19.3269906323185 9.69998138842359  17.2083333333333 10.7072399032198  15.4235948477752 11.9765494137353  C 13.638856362217 13.2458589242509  12.2225800156128 14.7526521496371  11.1747658079625 16.4969290898939  C 10.1269516003123 18.2412060301508  9.60304449648712 20.071468453378  9.60304449648712 21.9877163595757  C 9.60304449648712 23.9039642657733  10.1269516003123 25.7342266890006  11.1747658079625 27.4785036292574  C 12.2225800156128 29.2227805695142  13.638856362217 30.7295737949004  15.4235948477752 31.998883305416  C 17.2083333333333 33.2681928159315  19.3269906323185 34.2754513307277  21.7795667447307 35.0206588498046  C 24.2321428571429 35.7658663688814  26.8056206088993 36.1384701284199  29.5 36.1384701284199  C 32.1943793911007 36.1384701284199  34.7678571428571 35.7658663688814  37.2204332552693 35.0206588498046  C 39.6730093676815 34.2754513307277  41.7916666666667 33.2681928159315  43.5764051522248 31.998883305416  C 45.361143637783 30.7295737949004  46.7774199843872 29.2227805695142  47.8252341920375 27.4785036292574  Z M 58.7927400468384 28.0804020100503  C 59 28.2769402568398  59.0460577673692 28.5144239717104  58.9309133489461 28.7928531546622  C 58.8387978142077 29.0385259631491  58.6085089773614 29.2023078354737  58.2400468384075 29.284198771636  L 48.1533957845433 31.64265773311  L 48.1533957845433 39.1602456728085  C 48.1533957845433 39.4222966685278  48.0037080405933 39.6352131025498  47.7043325526932 39.7989949748744  C 47.3588992974239 39.962776847199  47.0249804839969 39.9955332216639  46.7025761124122 39.8972640982691  L 36.615925058548 37.5879396984925  L 30.3981264637002 43.6806253489671  C 30.167837626854 43.893541782989  29.8684621389539 44  29.5 44  C 29.1315378610461 44  28.832162373146 43.893541782989  28.6018735362998 43.6806253489671  L 22.384074941452 37.5879396984925  L 12.2974238875878 39.8972640982691  C 11.9750195160031 39.9955332216639  11.6411007025761 39.962776847199  11.2956674473068 39.7989949748744  C 10.9962919594067 39.6352131025498  10.8466042154567 39.4222966685278  10.8466042154567 39.1602456728085  L 10.8466042154567 31.64265773311  L 0.759953161592506 29.284198771636  C 0.391491022638563 29.2023078354737  0.16120218579235 29.0385259631491  0.0690866510538642 28.7928531546622  C -0.0460577673692426 28.5144239717104  0 28.2769402568398  0.207259953161593 28.0804020100503  L 6.42505854800937 21.9877163595757  L 0.207259953161593 15.8950307091011  C 0 15.6821142750791  -0.0460577673692426 15.4446305602084  0.0690866510538642 15.1825795644891  C 0.16120218579235 14.9369067560022  0.391491022638563 14.7731248836776  0.759953161592506 14.6912339475154  L 10.8466042154567 12.3327749860413  L 10.8466042154567 4.81518704634283  C 10.8466042154567 4.55313605062348  10.9962919594067 4.34021961660152  11.2956674473068 4.17643774427694  C 11.6411007025761 4.01265587195235  11.9750195160031 3.97989949748743  12.2974238875878 4.07816862088219  L 22.384074941452 6.38749302065885  L 28.6018735362998 0.294807370184253  C 28.8091334894614 0.0982691233947492  29.1085089773614 0  29.5 0  C 29.8914910226386 0  30.1908665105386 0.0982691233947492  30.3981264637002 0.294807370184253  L 36.615925058548 6.38749302065885  L 46.7025761124122 4.07816862088219  C 47.0249804839969 3.97989949748743  47.3588992974239 4.01265587195235  47.7043325526932 4.17643774427694  C 48.0037080405933 4.34021961660152  48.1533957845433 4.55313605062348  48.1533957845433 4.81518704634283  L 48.1533957845433 12.3327749860413  L 58.2400468384075 14.6912339475154  C 58.6085089773614 14.7731248836776  58.8387978142077 14.9369067560022  58.9309133489461 15.1825795644891  C 59.0460577673692 15.4446305602084  59 15.6821142750791  58.7927400468384 15.8950307091011  L 52.5749414519906 21.9877163595757  L 58.7927400468384 28.0804020100503  Z " fill-rule="nonzero" fill="#cccccc" stroke="none" transform="matrix(1 0 0 1 151 729 )" />
  </g>
</svg>