<?xml version="1.0" encoding="utf-8"?>
<svg version="1.1" xmlns:xlink="http://www.w3.org/1999/xlink" width="62px" height="45px" xmlns="http://www.w3.org/2000/svg">
  <g transform="matrix(1 0 0 1 -587 -741 )">
    <path d="M 50.2570257611241 28.1030150753769  C 51.358118657299 26.3190954773869  51.9086651053864 24.4472361809045  51.9086651053864 22.4874371859296  C 51.9086651053864 20.5276381909548  51.358118657299 18.6557788944724  50.2570257611241 16.8718592964824  C 49.1559328649493 15.0879396984925  47.6676424668228 13.5469011725293  45.7921545667447 12.248743718593  C 43.9166666666667 10.9505862646566  41.690281030445 9.92043551088777  39.1129976580796 9.15829145728643  C 36.5357142857143 8.39614740368509  33.8313817330211 8.01507537688442  31 8.01507537688442  C 28.1686182669789 8.01507537688442  25.4642857142857 8.39614740368509  22.8870023419204 9.15829145728643  C 20.309718969555 9.92043551088777  18.0833333333333 10.9505862646566  16.2078454332553 12.248743718593  C 14.3323575331772 13.5469011725293  12.8440671350507 15.0879396984925  11.7429742388759 16.8718592964824  C 10.641881342701 18.6557788944724  10.0913348946136 20.5276381909548  10.0913348946136 22.4874371859296  C 10.0913348946136 24.4472361809045  10.641881342701 26.3190954773869  11.7429742388759 28.1030150753769  C 12.8440671350507 29.8869346733668  14.3323575331772 31.42797319933  16.2078454332553 32.7261306532663  C 18.0833333333333 34.0242881072027  20.309718969555 35.0544388609715  22.8870023419204 35.8165829145729  C 25.4642857142857 36.5787269681742  28.1686182669789 36.9597989949749  31 36.9597989949749  C 33.8313817330211 36.9597989949749  36.5357142857143 36.5787269681742  39.1129976580796 35.8165829145729  C 41.690281030445 35.0544388609715  43.9166666666667 34.0242881072027  45.7921545667447 32.7261306532663  C 47.6676424668228 31.42797319933  49.1559328649493 29.8869346733668  50.2570257611241 28.1030150753769  Z M 61.7822014051522 28.7185929648241  C 62 28.9195979899498  62.048399687744 29.1624790619765  61.9274004683841 29.4472361809045  C 61.8306010928962 29.6984924623116  61.5886026541764 29.8659966499162  61.2014051522248 29.9497487437186  L 50.6018735362998 32.3618090452261  L 50.6018735362998 40.0502512562814  C 50.6018735362998 40.3182579564489  50.4445745511319 40.536013400335  50.1299765807963 40.7035175879397  C 49.7669789227166 40.8710217755444  49.416081186573 40.9045226130653  49.0772833723653 40.8040201005025  L 38.4777517564403 38.4422110552764  L 31.943793911007 44.6733668341709  C 31.7017954722873 44.8911222780569  31.3871975019516 45  31 45  C 30.6128024980484 45  30.2982045277127 44.8911222780569  30.056206088993 44.6733668341709  L 23.5222482435597 38.4422110552764  L 12.9227166276347 40.8040201005025  C 12.583918813427 40.9045226130653  12.2330210772834 40.8710217755444  11.8700234192037 40.7035175879397  C 11.5554254488681 40.536013400335  11.3981264637002 40.3182579564489  11.3981264637002 40.0502512562814  L 11.3981264637002 32.3618090452261  L 0.798594847775176 29.9497487437186  C 0.411397345823575 29.8659966499162  0.169398907103825 29.6984924623116  0.0725995316159251 29.4472361809045  C -0.0483996877439499 29.1624790619765  0 28.9195979899498  0.217798594847775 28.7185929648241  L 6.75175644028103 22.4874371859296  L 0.217798594847775 16.2562814070352  C 0 16.0385259631491  -0.0483996877439499 15.7956448911223  0.0725995316159251 15.5276381909548  C 0.169398907103825 15.2763819095477  0.411397345823575 15.108877721943  0.798594847775176 15.0251256281407  L 11.3981264637002 12.6130653266332  L 11.3981264637002 4.92462311557789  C 11.3981264637002 4.65661641541038  11.5554254488681 4.43886097152428  11.8700234192037 4.2713567839196  C 12.2330210772834 4.1038525963149  12.583918813427 4.07035175879397  12.9227166276347 4.17085427135678  L 23.5222482435597 6.53266331658291  L 30.056206088993 0.30150753768844  C 30.2740046838408 0.100502512562812  30.5886026541764 0  31 0  C 31.4113973458236 0  31.7259953161593 0.100502512562812  31.943793911007 0.30150753768844  L 38.4777517564403 6.53266331658291  L 49.0772833723653 4.17085427135678  C 49.416081186573 4.07035175879397  49.7669789227166 4.1038525963149  50.1299765807963 4.2713567839196  C 50.4445745511319 4.43886097152428  50.6018735362998 4.65661641541038  50.6018735362998 4.92462311557789  L 50.6018735362998 12.6130653266332  L 61.2014051522248 15.0251256281407  C 61.5886026541764 15.108877721943  61.8306010928962 15.2763819095477  61.9274004683841 15.5276381909548  C 62.048399687744 15.7956448911223  62 16.0385259631491  61.7822014051522 16.2562814070352  L 55.248243559719 22.4874371859296  L 61.7822014051522 28.7185929648241  Z " fill-rule="nonzero" fill="#cccccc" stroke="none" transform="matrix(1 0 0 1 587 741 )" />
  </g>
</svg>