<?xml version="1.0" encoding="utf-8"?>
<svg version="1.1" xmlns:xlink="http://www.w3.org/1999/xlink" width="49px" height="48px" xmlns="http://www.w3.org/2000/svg">
  <g transform="matrix(1 0 0 1 -676 -578 )">
    <path d="M 48.8781960227273 36.671875  C 48.9593986742424 37.7239583333333  49 38.8020833333333  49 39.90625  C 49 42.40625  48.1531723484849 44.3802083333333  46.4595170454545 45.828125  C 44.7658617424242 47.2760416666667  42.5153882575758 48  39.7080965909091 48  L 9.29190340909091 48  C 6.48461174242424 48  4.23413825757576 47.2760416666667  2.54048295454545 45.828125  C 0.846827651515151 44.3802083333333  0 42.40625  0 39.90625  C 0 38.8020833333333  0.0406013257575758 37.7239583333333  0.121803977272727 36.671875  C 0.203006628787879 35.6197916666667  0.365411931818182 34.484375  0.609019886363636 33.265625  C 0.852627840909091 32.046875  1.16003787878788 30.9166666666667  1.53125 29.875  C 1.90246212121212 28.8333333333333  2.40127840909091 27.8177083333333  3.02769886363636 26.828125  C 3.65411931818182 25.8385416666667  4.3733428030303 24.9947916666667  5.18536931818182 24.296875  C 5.99739583333333 23.5989583333333  6.98922821969697 23.0416666666667  8.16086647727273 22.625  C 9.33250473484848 22.2083333333333  10.625946969697 22  12.0411931818182 22  C 12.25 22  12.7372159090909 22.2239583333333  13.5028409090909 22.671875  C 14.2684659090909 23.1197916666667  15.1326941287879 23.6197916666667  16.0955255681818 24.171875  C 17.0583570075758 24.7239583333333  18.3111979166667 25.2239583333333  19.8540482954545 25.671875  C 21.3968986742424 26.1197916666667  22.9455492424242 26.34375  24.5 26.34375  C 26.0544507575758 26.34375  27.6031013257576 26.1197916666667  29.1459517045455 25.671875  C 30.6888020833333 25.2239583333333  31.9416429924242 24.7239583333333  32.9044744318182 24.171875  C 33.8673058712121 23.6197916666667  34.7315340909091 23.1197916666667  35.4971590909091 22.671875  C 36.2627840909091 22.2239583333333  36.75 22  36.9588068181818 22  C 38.374053030303 22  39.6674952651515 22.2083333333333  40.8391335227273 22.625  C 42.010771780303 23.0416666666667  43.0026041666667 23.5989583333333  43.8146306818182 24.296875  C 44.6266571969697 24.9947916666667  45.3458806818182 25.8385416666667  45.9723011363636 26.828125  C 46.5987215909091 27.8177083333333  47.0975378787879 28.8333333333333  47.46875 29.875  C 47.8399621212121 30.9166666666667  48.1473721590909 32.046875  48.3909801136364 33.265625  C 48.6345880681818 34.484375  48.7969933712121 35.6197916666667  48.8781960227273 36.671875  Z M 33.9485085227273 3.515625  C 36.55859375 5.859375  37.8636363636364 8.6875  37.8636363636364 12  C 37.8636363636364 15.3125  36.55859375 18.140625  33.9485085227273 20.484375  C 31.3384232954545 22.828125  28.1889204545455 24  24.5 24  C 20.8110795454545 24  17.6615767045455 22.828125  15.0514914772727 20.484375  C 12.44140625 18.140625  11.1363636363636 15.3125  11.1363636363636 12  C 11.1363636363636 8.6875  12.44140625 5.859375  15.0514914772727 3.515625  C 17.6615767045455 1.171875  20.8110795454545 0  24.5 0  C 28.1889204545455 0  31.3384232954545 1.171875  33.9485085227273 3.515625  Z " fill-rule="nonzero" fill="#cccccc" stroke="none" transform="matrix(1 0 0 1 676 578 )" />
  </g>
</svg>