<?xml version="1.0" encoding="utf-8"?>
<svg version="1.1" xmlns:xlink="http://www.w3.org/1999/xlink" width="27px" height="15px" xmlns="http://www.w3.org/2000/svg">
  <g transform="matrix(1 0 0 1 -323 -225 )">
    <path d="M 0.5 7.92753949619691  C 0.5 7.92753949619691  5.35887661247216 14.9738489543724  13.4874125545666 14.9738489543724  C 21.6165410534522 14.9738489543724  26.4759509554569 7.92753949619691  26.4759509554569 7.92753949619691  C 26.4759509554569 7.92753949619691  22.4838124276175 0  13.4874125545666 0  C 5.00002206458885 0  0.5 7.92753949619691  0.5 7.92753949619691  Z M 8.80932610244963 7.49395728136915  C 8.80932610244963 5.00691467680554  10.9074046436526 2.99039837452438  13.4953824810691 2.99039837452438  C 16.0833603184856 2.99039837452438  18.1814388596886 5.00691467680554  18.1814388596886 7.49395728136915  C 18.1814388886414 9.98102905893393  16.0833306993318 11.9975161882121  13.4953824810691 11.9975161882121  C 10.9074046436526 11.9975161882121  8.80932610244963 9.98102905893393  8.80932610244963 7.49395728136915  Z M 13.4879754922058 9.66554535171053  C 14.6210398285075 9.66554535171053  15.5395380356349 8.76817779467638  15.5395380356349 7.66154800380173  C 15.5395380356349 6.55491821292708  14.6210398285075 5.65755065589292  13.4879754922058 5.65755065589292  C 12.3549111559023 5.65755065589292  11.4364129487749 6.55491821292708  11.4364129487749 7.66154800380173  C 11.4364129487749 8.76817779467638  12.3549111559023 9.66554535171053  13.4879754922058 9.66554535171053  Z " fill-rule="nonzero" fill="#c5c5c5" stroke="none" transform="matrix(1 0 0 1 323 225 )" />
  </g>
</svg>