<?xml version="1.0" encoding="utf-8"?>
<svg version="1.1" xmlns:xlink="http://www.w3.org/1999/xlink" width="11px" height="7px" xmlns="http://www.w3.org/2000/svg">
  <g transform="matrix(1 0 0 1 -322 -356 )">
    <path d="M 0 6  L 0 0  C 0 0  6.84210526315789 0  6.84210526315789 0  C 8.5861623678867 0  10 1.34314575050763  10 3  C 10 4.65685424949237  8.5861623678867 6  6.84210526315789 6  C 6.84210526315789 6  0 6  0 6  Z " fill-rule="nonzero" fill="#ffffff" stroke="none" transform="matrix(1 0 0 1 322 356 )" />
    <path d="M 0 0  C 0 0  6.84210526315789 0  6.84210526315789 0  C 8.5861623678867 0  10 1.34314575050763  10 3  C 10 4.65685424949237  8.5861623678867 6  6.84210526315789 6  C 6.84210526315789 6  0 6  0 6  " stroke-width="1" stroke="#242424" fill="none" transform="matrix(1 0 0 1 322 356 )" />
  </g>
</svg>