<?xml version="1.0" encoding="utf-8"?>
<svg version="1.1" xmlns:xlink="http://www.w3.org/1999/xlink" width="220px" height="143px" xmlns="http://www.w3.org/2000/svg">
  <g transform="matrix(1 0 0 1 0 -29 )">
    <path d="M 0.5 153.116546869557  C 0.5 153.116546869557  0.5 34  0.5 34  C 0.5 31.5147186257614  2.51471862576143 29.5  5 29.5  C 5 29.5  215 29.5  215 29.5  C 217.485281374239 29.5  219.5 31.5147186257614  219.5 34  C 219.5 34  219.5 153.116546869557  219.5 153.116546869557  C 219.5 155.601828243796  217.485281374239 157.616546869557  215 157.616546869557  C 215 157.616546869557  184.829576195642 157.616546869557  184.829576195642 157.616546869557  C 184.829576195642 157.616546869557  166.991885623279 171.374810259376  166.991885623279 171.374810259376  C 166.991885623279 171.374810259376  148.16321224134 157.616546869557  148.16321224134 157.616546869557  C 148.16321224134 157.616546869557  5 157.616546869557  5 157.616546869557  C 2.51471862576143 157.616546869557  0.5 155.601828243796  0.5 153.116546869557  Z " fill-rule="nonzero" fill="#ffffff" stroke="none" fill-opacity="0.8" />
    <path d="M 0 153.116546869557  C 0 153.116546869557  0 34  0 34  C 0 31.238576250846  2.23857625084603 29  5 29  C 5 29  215 29  215 29  C 217.761423749154 29  220 31.238576250846  220 34  C 220 34  220 153.116546869557  220 153.116546869557  C 220 155.877970618711  217.761423749154 158.116546869557  215 158.116546869557  C 215 158.116546869557  185 158.116546869557  185 158.116546869557  C 185 158.116546869557  167 172  167 172  C 167 172  148 158.116546869557  148 158.116546869557  C 148 158.116546869557  5 158.116546869557  5 158.116546869557  C 2.23857625084603 158.116546869557  0 155.877970618711  0 153.116546869557  Z M 1 153.116546869557  C 1 155.32568586888  2.79086100067683 157.116546869557  5 157.116546869557  C 5 157.116546869557  148.326424482681 157.116546869557  148.326424482681 157.116546869557  C 148.326424482681 157.116546869557  166.983771246559 170.749620518753  166.983771246559 170.749620518753  C 166.983771246559 170.749620518753  184.659152391285 157.116546869557  184.659152391285 157.116546869557  C 184.659152391285 157.116546869557  215 157.116546869557  215 157.116546869557  C 217.209138999323 157.116546869557  219 155.32568586888  219 153.116546869557  C 219 153.116546869557  219 34  219 34  C 219 31.7908610006768  217.209138999323 30  215 30  C 215 30  5 30  5 30  C 2.79086100067683 30  1 31.7908610006768  1 34  C 1 34  1 153.116546869557  1 153.116546869557  Z " fill-rule="nonzero" fill="#e9e9e9" stroke="none" />
  </g>
</svg>