<?xml version="1.0" encoding="utf-8"?>
<svg version="1.1" xmlns:xlink="http://www.w3.org/1999/xlink" width="30px" height="30px" xmlns="http://www.w3.org/2000/svg">
  <g transform="matrix(1 0 0 1 -2303 -1514 )">
    <path d="M 2318 1515  C 2325.84 1515  2332 1521.16  2332 1529  C 2332 1536.84  2325.84 1543  2318 1543  C 2310.16 1543  2304 1536.84  2304 1529  C 2304 1521.16  2310.16 1515  2318 1515  Z " fill-rule="nonzero" fill="#ffffff" stroke="none" />
    <path d="M 2318 1515  C 2325.84 1515  2332 1521.16  2332 1529  C 2332 1536.84  2325.84 1543  2318 1543  C 2310.16 1543  2304 1536.84  2304 1529  C 2304 1521.16  2310.16 1515  2318 1515  Z " stroke-width="2" stroke="#0079fe" fill="none" />
  </g>
</svg>