<?xml version="1.0" encoding="utf-8"?>
<svg version="1.1" xmlns:xlink="http://www.w3.org/1999/xlink" width="30px" height="30px" xmlns="http://www.w3.org/2000/svg">
  <g transform="matrix(1 0 0 1 -2303 -1688 )">
    <path d="M 2318 1689  C 2325.84 1689  2332 1695.16  2332 1703  C 2332 1710.84  2325.84 1717  2318 1717  C 2310.16 1717  2304 1710.84  2304 1703  C 2304 1695.16  2310.16 1689  2318 1689  Z " fill-rule="nonzero" fill="#ffffff" stroke="none" />
    <path d="M 2318 1689  C 2325.84 1689  2332 1695.16  2332 1703  C 2332 1710.84  2325.84 1717  2318 1717  C 2310.16 1717  2304 1710.84  2304 1703  C 2304 1695.16  2310.16 1689  2318 1689  Z " stroke-width="2" stroke="#f95e5a" fill="none" />
  </g>
</svg>