<?xml version="1.0" encoding="utf-8"?>
<svg version="1.1" xmlns:xlink="http://www.w3.org/1999/xlink" width="15px" height="15px" xmlns="http://www.w3.org/2000/svg">
  <g transform="matrix(1 0 0 1 -1618 -2530 )">
    <path d="M 1625.5 2533.5  C 1627.74 2533.5  1629.5 2535.26  1629.5 2537.5  C 1629.5 2539.74  1627.74 2541.5  1625.5 2541.5  C 1623.26 2541.5  1621.5 2539.74  1621.5 2537.5  C 1621.5 2535.26  1623.26 2533.5  1625.5 2533.5  Z " fill-rule="nonzero" fill="#0079fe" stroke="none" />
    <path d="M 1625.5 2532  C 1628.58 2532  1631 2534.42  1631 2537.5  C 1631 2540.58  1628.58 2543  1625.5 2543  C 1622.42 2543  1620 2540.58  1620 2537.5  C 1620 2534.42  1622.42 2532  1625.5 2532  Z " stroke-width="4" stroke="#0079fe" fill="none" stroke-opacity="0.498039215686275" />
  </g>
</svg>