<?xml version="1.0" encoding="utf-8"?>
<svg version="1.1" xmlns:xlink="http://www.w3.org/1999/xlink" width="48px" height="49px" xmlns="http://www.w3.org/2000/svg">
  <g transform="matrix(1 0 0 1 -240 -540 )">
    <path d="M 39.7252028205603 22.4301516404844  C 39.8970629630157 22.861370039763  39.9829930104534 23.3788321475496  40.3267132953642 23.8100505468282  C 42.9905454796331 23.8100505468282  44.7950769516251 26.5698484072697  47.5448391833315 25.4486805309423  C 47.5448391833315 25.4486805309423  47.5448391833315 25.8798989302207  47.5448391833315 25.8798989302207  C 47.5448391833315 26.4836046987615  47.6307692307691 27.0010668065481  47.3729790408761 27.604772622843  C 44.8810069990627 28.2947220998919  43.3342657645439 25.7074116087126  40.9282238177484 26.1386300079911  C 40.9282238177484 26.1386300079911  41.1860140076415 27.5185289143349  41.1860140076415 27.5185289143349  C 43.4201958119816 27.6047725750889  44.7950769516251 29.6746210062356  47.0292587559652 29.5883773454816  C 46.6855384710543 30.1920831140224  47.2011188984206 31.9169568066445  45.7403077113399 31.2270073295956  C 44.2794965242588 30.8820325910712  43.1624056220885 29.5883773454816  41.5297342925523 29.5883773454816  C 41.3578741500969 29.933352084006  41.4438042451147 30.4508141917927  41.4438041975345 30.8820325910712  C 43.1624055745083 31.1407636210874  44.3654265716964 32.6069062359394  46.0840279962508 32.8656373137097  C 45.9121678537954 33.4693430822505  45.7403077113399 34.1592925592994  45.3106573789914 34.5042672978238  C 43.9357762393479 34.1592925592994  42.8186853371776 32.9518809744638  41.3578741500969 32.9518809744638  C 41.3578741500969 32.9518809744638  41.1000839126236 34.1592925592994  41.1000839126236 34.1592925592994  C 42.4749650522667 34.1592925592994  43.4201958119816 35.4529478048891  44.7091468566073 35.7979225434135  C 44.7091468566073 36.3153846512001  44.2794965242588 36.7466030504787  44.0217063343657 37.2640651582653  C 42.9046154321959 36.9190904197409  42.0453147199187 35.9704099126757  40.756363675293 36.0566535734298  C 40.756363675293 35.5391914656432  41.014153865186 35.0217293578564  40.9282238177484 34.5042672978238  C 39.4674126306672 34.9354856971024  38.5221818709529 33.5555867907586  37.4050909212024 32.7793936052016  C 37.4050909212024 30.1058394055142  34.5693985944777 28.380965760646  34.48346854704 25.9661426387289  C 34.48346854704 25.4486805309423  34.5693985944777 24.9312184231555  34.7412587369331 24.4137563153689  C 35.6864894966479 22.3439079319762  35.3427692117371 19.5841100715347  34.3975384996029 17.6005053488961  C 34.053818214692 17.0830432411095  33.5382377873257 16.6518248418309  33.0226573599593 16.3930937640606  C 33.7960279772187 17.9454800874206  34.6553286894955 19.7565973930429  34.2256783571474 21.7402021634355  C 34.1397483097098 23.2063447782874  33.2804475974326 24.6724873931392  33.2804475498524 26.052386299483  C 33.2804475498524 26.5698484072697  33.3663775972896 27.0873105150563  33.7100979297811 27.604772622843  C 34.9131189269692 29.6746210062356  36.9754405888539 31.6582257288742  36.2020699715945 34.3317799285617  C 35.9442797817019 35.1079730663646  35.3427692593173 35.7979225434135  35.1709091168618 36.5741156812164  C 36.5457902565054 37.6952835575439  37.8347413011311 38.9889388031336  39.6392727255425 39.0751825116417  C 40.2407832003464 38.6439641123632  39.8970629154355 36.8328467589869  41.2719440550791 37.6952835575439  C 41.2719440550791 37.6952835575439  43.2483356695261 38.6439640646091  43.2483356695261 38.6439640646091  C 43.0764755270707 39.1614261723958  42.6468251947222 39.5926445716743  42.3031049098113 40.0238630187069  C 41.5297342925523 39.6788882801825  40.8422937227306 39.2476698809039  39.8970629630157 39.2476698809039  C 39.6392727731227 39.5064009109202  39.3814825356494 39.8513756494447  39.3814825356494 40.2825940487232  C 39.9829930104534 40.3688377094772  40.5845035328375 40.6275687872477  41.1860140076415 41.0587872342802  C 40.9282238177484 41.5762493420669  40.4126433903821 41.9212240805914  39.9829930104534 42.3524424798699  C 39.9829930104534 42.3524424798699  38.5221818233722 41.8349803720832  38.5221818233722 41.8349803720832  C 38.2643916334796 42.1799551106077  37.7488112061133 42.6111735098862  37.9206713485687 42.9561482484106  C 38.2643916334796 43.1286356176729  38.6081119183905 43.3011229869351  38.8659021082831 43.5598540169514  C 38.1784615384613 44.2498034940003  37.4050909212024 44.767265601787  36.5457902089252 45.1984840010655  C 35.8583496391034 42.9561482484106  33.538237739745 41.3175182642965  33.7960279772187 38.7302077731173  C 33.7960279772187 38.7302077731173  33.7100979297811 38.6439640646091  33.7100979297811 38.6439640646091  C 33.1945175024148 39.2476698331499  33.3663776448702 40.1963503879691  33.3663776448702 40.9725435257722  C 34.053818214692 42.6111735098862  35.5146294017727 43.9048287554758  35.7724195916658 45.7159461088522  C 35.5146294017727 46.1471645081307  34.9131188793885 46.2334082166389  34.3975384996029 46.4921392466551  C 34.48346854704 43.2148792784269  29.4995245109935 40.8000561565099  32.6789370750485 37.4365525275276  C 33.7100979297811 35.7979225434135  35.5146294017727 34.2455362678076  34.9131188793885 32.0894441759068  C 34.3116084045851 29.933352084006  31.9914965052267 28.6396968384164  31.9914965052267 26.2248736687452  C 31.9914965052267 26.2248736687452  31.9914965052267 26.052386299483  31.9914965052267 26.052386299483  C 32.507076932593 23.5513194690577  34.0538181671113 20.8777653171244  32.7648671700663 18.2042111174369  C 32.4211468851554 17.1692869018636  31.5618461728782 15.875631656274  30.5306853181455 15.4444132569954  C 32.1633566476821 17.3417742711258  32.7648671224861 20.3603032093378  31.9055664577891 22.861370039763  C 31.4759161254406 23.8962942553363  30.7884755556192 25.0174621316637  30.702545460601 26.2248736687452  C 30.702545460601 26.828579437286  30.7884755080386 27.4322852535807  31.2181258879673 28.0359910221215  C 32.4211468851554 30.0195957447601  34.5693985944777 32.2619314974149  33.3663776448702 34.8492420363483  C 31.9914965052267 36.9190904197409  29.4995245109935 39.0751825116417  30.8744056030564 41.8349803720832  C 31.8196363627712 43.4736103561974  33.3663776448702 45.1122403403115  32.9367273125217 47.1820887237041  C 32.9367273125217 47.1820887237041  31.2181258879673 47.2683324322122  31.2181258879673 47.2683324322122  C 32.2492867427 43.4736103561974  27.0075524691797 41.2312746035425  29.2417342735203 37.5227961882816  C 30.6166154131638 35.5391914656432  33.0226573599593 33.6418304515128  31.6477762203158 30.8820325910712  C 30.7884755080386 29.2434026069571  29.1558041785024 28.2084783913838  29.1558042260826 26.1386300079911  C 29.1558042260826 26.1386300079911  29.2417342735203 25.7936552694666  29.2417342735203 25.7936552694666  C 29.7573147008866 22.861370039763  32.0774266002445 20.0153284708133  30.4447552707084 16.9105558718472  C 30.0151049383599 15.961875364782  29.2417342735203 15.0131948577169  28.2965035138054 14.4957327499302  C 28.2965035138054 14.4957327499302  28.2105734663678 14.5819764584384  28.2105734663678 14.5819764584384  C 30.0151049383599 16.3930938118147  30.6166154131638 19.2391353807643  29.5854545584311 21.6539584549273  C 29.1558042260826 23.0338574090251  28.12464337135 24.4137563153689  27.9527832288945 25.8798989302207  C 27.8668531814569 26.5698484072697  27.9527832288945 27.2597978843186  28.2965035138054 28.0359910221215  C 29.4995245109935 29.8471083754979  31.4759160778603 31.8307130981364  30.1869650332346 34.2455362200535  C 28.8120838935915 36.229140942692  26.577902089251 38.1265019568224  27.523132896546 40.7138124957557  C 28.4683636562609 42.9561482484106  30.5306853657262 45.1122403403115  29.4135944159757 47.872038200753  C 29.4135944159757 47.872038200753  27.9527832288945 48.1307692307693  27.9527832288945 48.1307692307693  C 29.2417342735203 45.4572150310818  27.2653426590728 42.7836608791484  26.1482517569029 40.3688377572314  C 24.7733706172594 37.005334128249  29.1558042260826 35.3667041441349  29.2417342735203 32.3481752059231  C 29.2417342735203 30.3645704832845  27.0934825166173 29.2434026069571  26.6638321842688 27.4322852535807  C 25.7186014245544 26.6560921157778  24.7733706648396 27.7772599921052  23.7422098101069 27.5185289143349  C 22.968839192848 27.691016283597  21.6798881482223 26.3973610380075  21.2502377682936 27.7772599921052  C 20.6487272934896 29.7608647147438  18.0708252042386 31.3132509903497  19.1879161064085 33.6418304515128  C 20.3050070085787 35.7979225434135  22.8829090978297 37.3503088190195  22.0236084331332 40.110106679461  C 21.2502378158738 42.6974171706403  18.6723357266228 45.1122402925573  20.2190769611411 48.1307692307693  C 19.5316363913194 47.958281861507  18.3286154417119 48.3032566000314  18.3286153941317 47.2683324322122  C 17.297454539399 43.6460977254595  21.6798881006416 41.5762493420669  20.3050070085787 37.9540146353143  C 19.7034965337748 35.7116788826594  16.8678042070505 34.5042672978238  17.4693146818545 31.9169568066445  C 17.8989650142025 29.7608647147438  20.3909370560164 28.2084784391378  20.0472168186857 25.7936552694667  C 20.0472168186857 25.6211679002045  19.9612867712485 25.3624368701882  19.8753566762302 25.1899495009259  C 18.9301259165159 22.6026390097467  17.1255944445238 20.0153285185673  18.2426853466941 16.9967995803554  C 18.586405631605 16.1343627340443  19.1879161064085 15.4444132569954  19.7034965337748 14.6682201191925  C 17.8989650617832 15.6169006262577  17.039664349506 17.6005053488961  17.039664349506 19.6703537322888  C 16.9537343020684 21.9126894849437  18.586405631605 23.8100505468282  18.8441958214976 25.7936552694667  C 18.9301258689352 26.6560921157778  18.8441958214976 27.4322852535807  18.2426853466941 28.380965760646  C 17.039664349506 29.9333520840061  15.5788531624248 31.6582257288742  16.2662937322466 33.7280741600209  C 16.9537343020684 35.7979225434135  19.5316363913194 37.0915777890032  19.3597762488639 39.5064009109202  C 19.3597762488639 42.3524424798699  16.0085035423535 44.1635598332463  16.9537343020684 47.4408198014744  C 16.9537343020684 47.4408198014744  15.3210629725322 46.9233576936878  15.3210629725322 46.9233576936878  C 14.6336224027104 44.0773161247381  17.7271049193278 42.6111735098862  17.7271049193278 39.9376193579528  C 18.1567552516763 36.9190904197409  14.2899021177996 35.7979225434135  14.5476923076922 32.7793936052016  C 14.5476923076922 30.5370578525467  16.5240839221397 29.0709152376949  17.3833846344169 27.1735542235645  C 17.5552447768723 26.742335824286  17.5552447768723 26.3111173772534  17.5552447768723 25.8798989302207  C 17.4693147294347 23.8100505468282  15.5788531624248 22.171420562714  15.8366433523179 19.756597440797  C 15.9225733997555 18.0317237959288  16.5240839221397 16.4793374725688  17.6411748243099 15.1856822269791  C 16.0944335422109 15.7893879955199  15.4069930199694 17.6005053488961  14.9773426876213 19.0666479637481  C 14.2039720703619 21.4814710856651  16.0085035423535 23.6375631775659  16.1803636372288 25.7936552694666  C 16.2662936846664 26.7423357765318  16.0085034947733 27.691016283597  15.1492028300768 28.6396968384164  C 13.8602517854511 30.1920831617764  12.5713007408253 32.0894441759068  13.5165315005402 34.1592925592994  C 14.461762260255 36.4016283119543  17.6411748718901 38.1265020045765  16.2662937322466 40.9725435257722  C 15.4929231149877 42.7836608791484  13.7743216904332 44.0773161247381  13.8602517854511 46.1471645558847  C 13.4306014531026 45.9746771866226  12.9150210257362 45.7159461566063  12.4853706458075 45.3709713703278  C 12.4853706458075 42.6974171706403  16.2662937322466 41.0587871865262  14.461762260255 38.2127456653305  C 14.2899021177996 38.7302077731173  14.2899021177996 39.5064009109202  14.1180419753441 40.110106679461  C 13.5165315005402 41.7487366635751  12.1416503608966 43.0423919091647  11.6260699335303 44.767265601787  C 10.7667692212531 44.4222908632626  9.90746855655652 43.7323413862136  9.22002798673475 43.0423919569188  C 9.22002798673475 43.0423919569188  10.1652587464496 42.438686140624  10.1652587464496 42.438686140624  C 10.079328699012 42.0937114020995  9.73560841410108 41.7487366635751  9.56374827164564 41.4900056335588  C 8.96223779684169 41.4037619728047  8.53258741691297 41.8349803720832  8.01700698954664 42.0074677413454  C 7.58735665719814 41.5762493420669  7.15770627726943 41.2312746035425  6.81398603993921 40.8000561565099  C 7.1577063248501 39.8513756494447  9.64967836666347 40.6275687872477  8.36072727445753 39.1614261723958  C 7.50142656218031 38.6439640646091  6.64212589748377 39.420157202412  5.86875528022438 39.7651319886907  C 5.86875528022438 39.7651319886907  4.83759442549172 38.4714766953468  4.83759442549172 38.4714766953468  C 5.69689513776893 37.9540145875602  6.55619580246548 37.1778214497572  7.67328675221597 37.4365525275276  C 7.93107694210903 37.9540146353143  7.93107694210903 38.6439641123632  8.44665736947536 38.9026951423795  C 10.2511888414674 38.9026951423795  11.6260699335303 37.4365525275276  13.0009510731738 36.4016283119543  C 12.055720313459 34.9354856971024  11.1964196011818 32.9518809744638  12.055720313459 31.1407636210874  C 12.7431608832808 29.3296462677112  14.5476923552728 27.8635036528593  14.6336224027104 25.8798989302207  C 14.6336224027104 25.4486805309423  14.5476923552728 24.9312184231555  14.3758321652367 24.4137563153689  C 13.4306014055223 21.9126894849437  13.0868811206115 18.5491858559614  14.891412592603 16.3930937640606  C 13.8602517378704 16.6518247940769  13.2587412630669 17.9454800874206  12.915020978156 18.8941605944858  C 11.7979300759857 21.308983716403  13.1728111680491 23.5513195168119  13.2587412630669 25.8798989302207  C 13.2587412630669 26.3111173294993  13.2587412630669 26.7423357765318  13.1728112156293 27.1735542235645  C 12.2275804559144 29.0709152376949  10.6808391738159 30.7957889303171  10.4230489839229 32.9518809744638  C 9.30595808175258 33.6418304515128  8.44665736947536 34.8492419885943  6.89991608737637 34.4180235893157  C 6.81398603993921 34.8492419885943  6.98584613481398 35.4529478048891  7.07177622983181 35.8841662041676  C 5.86875523264371 35.7979225434135  5.00945456794716 36.7466030504787  3.9782937132145 37.1778214497572  C 3.46271328584817 37.005334080495  3.29085314339272 36.3153846034461  3.03306295349967 35.7979225434135  C 4.23608395068777 35.3667041441349  5.09538461538477 34.1592925592994  6.55619580246548 34.1592925592994  C 6.72805594492093 33.7280741600209  6.47026575502832 33.2968557129883  6.38433570759071 32.8656373137097  C 4.66573433061694 32.0894441759068  1.91597205132985 36.6603593897246  1.65818186143679 32.6931499444476  C 3.37678323841055 32.6069062836934  4.4938741881615 30.9682762995793  6.21247556513526 30.7957888825631  C 6.21247556513526 30.7957888825631  6.29840561257288 29.5021336369734  6.29840561257288 29.5021336369734  C 4.32201399812539 29.3296462677112  3.11899304851795 31.3132509903497  1.14260143407046 31.1407636210874  C 1.14260143407046 31.1407636210874  0.71295105414174 29.4158899762193  0.71295105414174 29.4158899762193  C 2.94713285848184 29.5883773454816  4.32201399812539 27.5185289620889  6.47026575502832 27.4322852535807  C 6.72805594492093 27.0873105150563  6.81398603993921 26.4836047465155  6.81398603993921 25.9661426387289  C 4.66573428303627 25.7074116087126  3.03306295349967 28.2947220998919  0.541090911686297 27.5185289143349  C 0.541090911686297 27.5185289143349  0.455160864248683 26.3973610380074  0.369230769230853 25.7936552694666  C 0.369230769230853 25.7936552694666  0.369230769230853 25.3624368701882  0.369230769230853 25.3624368701882  C 2.60341257357095 26.2248737164993  4.57980418801844 24.5862437323851  6.47026575502832 23.8100505468282  C 6.98584618239465 23.6375631775659  7.67328675221643 23.8962942075822  7.93107694210903 23.3788321475496  C 7.93107694210903 22.9476137482711  8.70444755936842 22.5163953012385  8.01700698954664 22.171420562714  C 5.26724475784022 21.8264458241896  3.37678319083034 25.1037057924178  0.541090911686297 23.6375631775659  C 0.541090911686297 23.6375631775659  0.369230769230853 23.2063447782874  0.369230769230853 23.2063447782874  C 0.884811196597184 15.1856822269791  5.43910490029566 7.33750704493309  13.0868811206115 3.54278496891823  C 16.1803636372288 1.81791132404999  19.9612867236679 0.869230769230739  23.8281398575446 0.869230769230739  C 28.4683636562609 0.869230769230739  33.108587407397 2.07664235406628  36.631720303943 4.49146547598343  C 39.9829930104534 6.56131385937601  43.2483356695261 10.0110611968664  44.9669370940805 13.4608085343568  C 46.6855384710543 16.4793374725688  47.4589091358939 19.9290847623051  47.6307692307691 23.5513195168119  C 44.7091468566073 25.7936552694666  42.7327552421598 21.4814711334192  39.7252028205603 22.4301516404844  Z M 25.7186014245544 19.6703537322887  C 25.2889510922059 19.7565973930427  25.2889510922059 20.3603032093376  24.8593007122772 20.4465469178458  C 24.8593007122772 20.4465469178458  24.6015105223842 20.1878158400754  24.6015105223842 20.1878158400754  C 24.3437203324916 19.2391353330102  24.2577902374733 17.7729927181583  25.1170909497505 17.1692869496176  C 26.1482518044832 16.7380685503391  27.351272754091 16.5655811810768  28.3824336088232 16.9105558718472  C 28.6402237987163 16.5655811333228  28.3824336088232 16.3068501033065  28.2965035138054 15.961875364782  C 27.7809230864391 14.8407074884545  26.6638321842693 14.409489041422  25.6326713295366 14.1507580114057  C 25.1170909021703 14.0645143506516  24.6015104748039 14.0645143506516  24.0859300950178 14.0645143506516  C 24.0859300950178 14.0645143506516  23.8281398575446 14.0645143506516  23.8281398575446 14.0645143506516  C 22.3673286704638 14.0645143506516  20.9924475308203 14.4957327499302  20.1331468661233 15.7031443347657  C 20.0472168186861 16.0481190732902  19.4457062963015 16.5655811810768  19.9612867236679 16.8243122110931  C 21.0783776258381 16.7380685503391  22.3673286704638 16.6518248418309  23.1406993353035 17.6005053488961  C 23.1406993353035 18.4629421952072  23.6562797626698 19.5841100715346  22.7969790503926 20.0153284708132  C 22.0236084331332 19.3253789937643  21.0783776734188 20.3603032093376  20.3050070085787 19.7565974407969  C 19.8753566762307 19.4978664107806  19.7034965337753 19.7565974407969  19.5316363913198 20.1015721793214  C 19.2738462014268 22.3439079319761  20.4768671510342 24.7587311016473  22.5391888129193 25.9661426387288  C 23.3984895251965 26.3111173772533  24.5155804273663 26.5698484072696  25.3748811396435 26.138630007991  C 27.5231328965465 25.1899495009258  28.3824336088232 22.8613700397628  28.7261538461539 20.7915216563702  C 28.5542937036985 20.4465469178458  28.5542937036985 19.6703537800428  27.9527832288945 19.6703537322887  C 27.351272754091 20.1015721315672  26.406041946796 19.8428411015509  25.7186014245544 19.6703537322887  Z M 46.6855384710548 21.7402021634355  C 44.966937094081 18.9804043029939  42.4749650522672 16.3930938118147  43.162405622089 12.6846153965538  C 43.2483356695266 12.4258843665375  43.0764755746513 12.1671532887672  42.8186853371781 12.1671532887672  C 41.7015944350078 12.5983716880457  40.8422937227306 13.7195396121272  40.4126433903825 14.7544638277005  C 40.2407832479271 15.3581695962413  40.1548532004895 16.0481190732902  39.8970629630162 16.6518248418309  C 38.6081119183905 15.961875364782  37.2332307787469 15.2719258877331  35.6005594492103 15.4444132569954  C 34.9990489744068 15.5306569177494  34.2256783095672 15.5306569177494  34.053818214692 16.1343627340442  C 35.8583496866841 17.0830432411094  37.3191608737648 18.7216732252235  38.436251775935 20.4465469178458  C 39.3814825356499 20.2740595485835  40.3267132953642 20.3603032570917  41.1000839126236 20.5327905785998  C 42.9046153846157 21.0502526863866  44.7950769040449 23.0338574090251  46.6855384710548 21.7402021634355  Z M 3.548643380866 21.9126895326978  C 5.43910490029566 21.1364963948947  7.24363637228726 19.8428411493051  9.47781822420802 20.2740595485836  C 10.1652587940298 19.1528916722561  11.2823496962001 18.0317237959288  12.1416503608966 17.1692869496177  C 12.657230788263 16.7380685503391  13.4306014055223 16.3930938118147  13.8602517854511 15.875631704028  C 11.9697902660218 14.6682201191925  9.64967836666347 15.7893880432739  7.93107694210903 16.4793374725688  C 7.75921679965359 14.8407074884547  7.07177622983181 13.3745648736028  5.69689513776893 12.2533969972753  C 5.69689513776893 12.2533969972753  5.1813147104026 11.994665919505  5.1813147104026 11.994665919505  C 5.09538466296499 11.994665919505  5.00945456794716 11.994665919505  4.92352447292933 12.1671532887672  C 5.52503494773282 16.0481190255362  3.03306295349967 18.7216732252236  1.3144615765259 21.6539584549273  C 1.91597205132985 22.171420562714  2.86120285862489 22.0851768542059  3.548643380866 21.9126895326978  Z M 15.7507133048803 8.11370018273601  C 16.1803636372288 9.06238068980122  16.7818741596129 10.1835485661286  16.6959440645951 11.218472781702  C 16.0944335897912 11.132229120948  15.6647832098624 10.7010106739153  15.0632727350585 10.528523304653  C 14.3758321652367 10.3560359353909  13.6024615479778 10.0110611968664  13.0009510731738 10.1835485661286  C 14.1180419753441 11.6496911809805  14.9773426876213 13.2883211650947  15.2351328775139 15.0994385184709  C 18.7582657264797 13.3745648736028  22.968839192848 12.4258843187835  27.2653426590732 13.2020775043405  C 29.3276643209579 13.547052242865  31.1321957929499 14.3232453806679  32.9367273125222 15.0131948577168  C 33.0226573599593 13.2020775043405  34.2256783571474 11.7359348894887  34.9990489744068 10.1835485661286  C 33.7100979297811 10.0973049053746  32.5930070276113 10.8734980431775  31.3899860304232 11.218472781702  C 31.3040559829856 10.1835485661286  32.077426600245 9.06238068980122  32.2492867427004 8.02745652198189  C 30.2728951282529 8.11370018273601  28.7261538937346 9.32111176757155  27.0934825166178 10.2697922746368  C 26.6638321842693 9.40735542832567  26.3201118993584 8.45867492126047  25.9763916144475 7.59623807494938  C 25.9763916144475 7.59623807494938  28.12464337135 5.52638969155669  28.12464337135 5.52638969155669  L 28.2105734663683 5.26765866154039  C 28.2105734663683 5.26765866154039  25.2889510446257 5.09517129227822  25.2889510446257 5.09517129227822  C 24.7733706172594 4.23273444596703  24.6015104748039 3.19781027814781  24 2.33537338408257  C 23.4844195726337 3.28405389114778  23.2266293827411 4.23273439821298  22.7110489553747 5.09517129227822  C 22.7110489553747 5.09517129227822  19.7894265812124 5.26765866154039  19.7894265812124 5.26765866154039  L 19.7894265812124 5.44014598304852  C 19.7894265812124 5.44014598304852  22.0236084331332 7.4237507056871  22.0236084331332 7.4237507056871  C 21.7658182432401 8.45867492126047  21.5080280057668 9.57984279758784  20.8205874359451 10.3560359353909  C 19.5316363913198 9.57984279758784  18.2426853466941 8.71740595127676  16.8678042070505 8.19994389124417  C 16.5240839221397 8.11370023049005  16.0085034947733 7.94121286122788  15.7507133048803 8.11370018273601  Z M 24 21.3089837164028  C 24.3437203324911 21.3089837164028  24.687440617402 21.395227424911  24.945230807295 21.6539584549273  C 24.6874405698218 22.3439079319762  23.6562797150891 21.9126895326976  23.0547692402852 21.9989331934518  C 22.8829091454104 21.9126895326976  22.9688391928476 21.7402021634355  22.9688391928476 21.5677147941732  C 23.3125594301782 21.395227377157  23.6562797150891 21.2227400556487  24 21.3089837164028  Z M 22.1095384805708 23.3788321475496  C 22.1095384805708 23.3788321475496  22.0236084331332 23.0338574090251  22.0236084331332 23.0338574090251  C 23.3125594777589 23.2063447782874  24.6874405698218 22.947613748271  25.8904615670099 23.2063447782874  C 25.4608111870812 23.8100505468282  24.8593007122772 24.6724873453852  24 24.5862436846311  C 23.0547692402852 24.6724873931392  22.7969790503926 23.8100505468282  22.1095384805708 23.3788321475496  Z M 28.4683636562613 18.204211117437  C 28.2105734663683 17.7729927181584  27.6949930390019 17.7729927181584  27.1794126116356 17.7729927181584  C 27.1794126116356 17.7729927181584  27.0075524691802 17.7729927181584  27.0075524691802 17.7729927181584  C 26.6638321842693 18.0317237481747  25.546741282099 17.8592363789126  25.9763916144475 18.7216732252236  C 26.6638321842693 18.204211117437  27.6090629439841 18.5491858559615  28.2965035138059 18.8079169337318  C 28.5542937036989 18.7216732729777  28.4683636562613 18.4629421952073  28.4683636562613 18.204211117437  Z M 22.0236084331332 18.7216732252235  C 22.0236084331332 18.7216732252235  22.0236084331332 18.4629421952072  22.0236084331332 18.4629421952072  C 21.6798881482223 17.9454800874206  20.9924475784005 17.6867490574043  20.3050070085787 17.6867490574043  C 20.1331468661233 17.6867490574043  19.9612867236679 17.6867490574043  19.7894265812124 17.7729927181584  C 19.617566438757 17.7729927181584  19.4457062963015 18.0317237481747  19.5316363913194 18.2904548259451  C 19.5316363913194 18.5491858559614  19.5316363913194 18.8941605944858  19.8753566762302 18.8079169337317  C 20.3909371035966 18.0317237959288  21.4220979583292 18.6354295644695  22.0236084331332 18.7216732252235  Z M 21.7658181956599 10.7872543824235  C 21.7658181956599 10.7872543824235  23.8281398575446 9.14862439830938  23.8281398575446 9.14862439830938  C 24.6874405698218 9.66608650609601  25.5467412345188 10.2697922746368  26.2341818519208 10.9597417516857  C 26.2341818519208 10.9597417516857  25.9763916144475 11.218472781702  25.9763916144475 11.218472781702  C 24.6015104748039 11.0459854124398  23.2266293827411 11.218472781702  21.9376783381153 11.3047164902101  C 21.7658181956599 11.132229120948  21.5080280057668 10.9597417516857  21.7658181956599 10.7872543824235  Z " fill-rule="nonzero" fill="#106e33" stroke="none" transform="matrix(1 0 0 1 240 540 )" />
  </g>
</svg>