<?xml version="1.0" encoding="utf-8"?>
<svg version="1.1" xmlns:xlink="http://www.w3.org/1999/xlink" width="48px" height="48px" xmlns="http://www.w3.org/2000/svg">
  <g transform="matrix(1 0 0 1 -19 -438 )">
    <path d="M 39.8559720513294 21.5609208712538  C 40.0278321937849 21.9921392705323  40.1137622412225 22.509601378319  40.4574825261334 22.9408197775975  C 43.1213147104022 22.9408197775975  44.9258461823943 25.700617638039  47.6756084141007 24.5794497617117  C 47.6756084141007 24.5794497617117  47.6756084141007 25.0106681609901  47.6756084141007 25.0106681609901  C 47.6756084141007 25.6143739295309  47.7615384615383 26.1318360373175  47.5037482716452 26.7355418536124  C 45.0117762298319 27.4254913306613  43.4650349953131 24.838180839482  41.0589930485176 25.2693992387605  C 41.0589930485176 25.2693992387605  41.3167832384106 26.6492981451042  41.3167832384106 26.6492981451042  C 43.5509650427507 26.7355418058582  44.9258461823943 28.805390237005  47.1600279867343 28.719146576251  C 46.8163077018235 29.3228523447917  47.3318881291898 31.0477260374139  45.8710769421091 30.357776560365  C 44.4102657550279 30.0128018218405  43.2931748528576 28.719146576251  41.6605035233215 28.719146576251  C 41.4886433808661 29.0641213147753  41.5745734758839 29.5815834225621  41.5745734283037 30.0128018218405  C 43.2931748052774 30.2715328518568  44.4961958024655 31.7376754667088  46.21479722702 31.9964065444791  C 46.0429370845645 32.6001123130198  45.8710769421091 33.2900617900688  45.4414266097606 33.6350365285932  C 44.066545470117 33.2900617900688  42.9494545679468 32.0826502052332  41.4886433808661 32.0826502052332  C 41.4886433808661 32.0826502052332  41.2308531433928 33.2900617900688  41.2308531433928 33.2900617900688  C 42.6057342830359 33.2900617900688  43.5509650427507 34.5837170356584  44.8399160873764 34.9286917741829  C 44.8399160873764 35.4461538819695  44.4102657550279 35.8773722812481  44.1524755651349 36.3948343890347  C 43.035384662965 36.0498596505103  42.1760839506878 35.1011791434451  40.8871329060621 35.1874228041992  C 40.8871329060621 34.6699606964125  41.1449230959552 34.1524985886258  41.0589930485176 33.6350365285932  C 39.5981818614364 34.0662549278718  38.652951101722 32.686356021528  37.5358601519715 31.9101628359709  C 37.5358601519715 29.2366086362836  34.7001678252468 27.5117349914153  34.6142377778092 25.0969118694983  C 34.6142377778092 24.5794497617117  34.7001678252468 24.0619876539249  34.8720279677023 23.5445255461383  C 35.8172587274171 21.4746771627456  35.4735384425062 18.7148793023041  34.528307730372 16.7312745796655  C 34.1845874454611 16.2138124718789  33.6690070180948 15.7825940726003  33.1534265907285 15.52386299483  C 33.9267972079879 17.07624931819  34.7860979202646 18.8873666238122  34.3564475879166 20.8709713942048  C 34.270517540479 22.3371140090568  33.4112168282018 23.8032566239086  33.4112167806215 25.1831555302524  C 33.4112167806215 25.700617638039  33.4971468280587 26.2180797458257  33.8408671605503 26.7355418536124  C 35.0438881577384 28.805390237005  37.106209819623 30.7889949596436  36.3328392023636 33.462549159331  C 36.075049012471 34.238742297134  35.4735384900864 34.9286917741829  35.301678347631 35.7048849119858  C 36.6765594872745 36.8260527883133  37.9655105319002 38.119708033903  39.7700419563116 38.2059517424111  C 40.3715524311156 37.7747333431325  40.0278321462047 35.9636159897562  41.4027132858482 36.8260527883133  C 41.4027132858482 36.8260527883133  43.3791049002953 37.7747332953785  43.3791049002953 37.7747332953785  C 43.2072447578398 38.2921954031651  42.7775944254913 38.7234138024437  42.4338741405804 39.1546322494763  C 41.6605035233215 38.8096575109519  40.9730629534997 38.3784391116733  40.0278321937849 38.3784391116733  C 39.7700420038918 38.6371701416896  39.5122517664186 38.982144880214  39.5122517664186 39.4133632794926  C 40.1137622412225 39.4996069402466  40.7152727636067 39.7583380180171  41.3167832384106 40.1895564650496  C 41.0589930485176 40.7070185728363  40.5434126211512 41.0519933113608  40.1137622412225 41.4832117106392  C 40.1137622412225 41.4832117106392  38.6529510541413 40.9657496028526  38.6529510541413 40.9657496028526  C 38.3951608642487 41.3107243413771  37.8795804368824 41.7419427406555  38.0514405793379 42.08691747918  C 38.3951608642487 42.2594048484423  38.7388811491596 42.4318922177044  38.9966713390522 42.6906232477207  C 38.3092307692305 43.3805727247697  37.5358601519715 43.8980348325564  36.6765594396943 44.3292532318349  C 35.9891188698725 42.08691747918  33.6690069705141 40.4482874950659  33.9267972079879 37.8609770038867  C 33.9267972079879 37.8609770038867  33.8408671605503 37.7747332953785  33.8408671605503 37.7747332953785  C 33.3252867331839 38.3784390639192  33.4971468756394 39.3271196187385  33.4971468756394 40.1033127565415  C 34.1845874454611 41.7419427406555  35.6453986325419 43.0355979862452  35.9031888224349 44.8467153396216  C 35.6453986325419 45.2779337389001  35.0438881101577 45.3641774474082  34.528307730372 45.6229084774245  C 34.6142377778092 42.3456485091963  29.6302937417627 39.9308253872792  32.8097063058176 36.567321758297  C 33.8408671605503 34.9286917741829  35.6453986325419 33.3763054985769  35.0438881101577 31.2202134066762  C 34.4423776353542 29.0641213147753  32.1222657359958 27.7704660691858  32.1222657359958 25.3556428995146  C 32.1222657359958 25.3556428995146  32.1222657359958 25.1831555302524  32.1222657359958 25.1831555302524  C 32.6378461633622 22.6820886998271  34.1845873978805 20.0085345478938  32.8956364008354 17.3349803482063  C 32.5519161159245 16.300056132633  31.6926154036473 15.0064008870434  30.6614545489147 14.5751824877648  C 32.2941258784513 16.4725435018952  32.8956363532552 19.4910724401071  32.0363356885582 21.9921392705323  C 31.6066853562097 23.0270634861057  30.9192447863884 24.1482313624331  30.8333146913701 25.3556428995146  C 30.8333146913701 25.9593486680553  30.9192447388077 26.5630544843501  31.3488951187364 27.1667602528909  C 32.5519161159245 29.1503649755294  34.7001678252468 31.3927007281843  33.4971468756394 33.9800112671177  C 32.1222657359958 36.0498596505103  29.6302937417627 38.2059517424111  31.0051748338255 40.9657496028526  C 31.9504055935404 42.6043795869667  33.4971468756394 44.2430095710808  33.0674965432909 46.3128579544734  C 33.0674965432909 46.3128579544734  31.3488951187364 46.3991016629816  31.3488951187364 46.3991016629816  C 32.3800559734691 42.6043795869667  27.1383216999488 40.3620438343119  29.3725035042894 36.653565419051  C 30.7473846439329 34.6699606964125  33.1534265907285 32.7725996822821  31.7785454510849 30.0128018218405  C 30.9192447388077 28.3741718377265  29.2865734092716 27.3392476221532  29.2865734568518 25.2693992387605  C 29.2865734568518 25.2693992387605  29.3725035042894 24.924424500236  29.3725035042894 24.924424500236  C 29.8880839316557 21.9921392705323  32.2081958310137 19.1460977015827  30.5755245014775 16.0413251026166  C 30.145874169129 15.0926445955514  29.3725035042894 14.1439640884863  28.4272727445746 13.6265019806996  C 28.4272727445746 13.6265019806996  28.341342697137 13.7127456892077  28.341342697137 13.7127456892077  C 30.145874169129 15.523863042584  30.7473846439329 18.3699046115337  29.7162237892003 20.7847276856967  C 29.2865734568518 22.1646266397945  28.2554126021191 23.5445255461383  28.0835524596637 25.0106681609901  C 27.9976224122261 25.700617638039  28.0835524596637 26.3905671150879  28.4272727445746 27.1667602528909  C 29.6302937417627 28.9778776062673  31.6066853086295 30.9614823289057  30.3177342640038 33.3763054508229  C 28.9428531243607 35.3599101734613  26.7086713200201 37.2572711875918  27.6539021273152 39.8445817265251  C 28.59913288703 42.08691747918  30.6614545964953 44.2430095710808  29.5443636467448 47.0028074315223  C 29.5443636467448 47.0028074315223  28.0835524596637 47.2615384615386  28.0835524596637 47.2615384615386  C 29.3725035042894 44.5879842618511  27.3961118898419 41.9144301099178  26.2790209876721 39.4996069880008  C 24.9041398480285 36.1361033590184  29.2865734568518 34.4974733749043  29.3725035042894 31.4789444366925  C 29.3725035042894 29.4953397140539  27.2242517473865 28.3741718377265  26.794601415038 26.5630544843501  C 25.8493706553236 25.7868613465472  24.9041398956088 26.9080292228746  23.8729790408761 26.6492981451042  C 23.0996084236172 26.8217855143664  21.8106573789914 25.5281302687769  21.3810069990627 26.9080292228746  C 20.7794965242588 28.8916339455131  18.2015944350078 30.4440202211191  19.3186853371776 32.7725996822821  C 20.4357762393479 34.9286917741829  23.0136783285989 36.4810780497888  22.1543776639023 39.2408759102303  C 21.3810070466429 41.8281864014097  18.803104957392 44.2430095233267  20.3498461919103 47.2615384615386  C 19.6624056220885 47.0890510922764  18.4593846724811 47.4340258308008  18.4593846249008 46.3991016629816  C 17.4282237701682 42.7768669562289  21.8106573314108 40.7070185728363  20.4357762393479 37.0847838660836  C 19.8342657645439 34.8424481134288  16.9985734378197 33.6350365285932  17.6000839126236 31.0477260374139  C 18.0297342449717 28.8916339455131  20.5217062867855 27.3392476699072  20.1779860494548 24.9244245002361  C 20.1779860494548 24.7519371309738  20.0920560020177 24.4932061009575  20.0061259069994 24.3207187316953  C 19.060895147285 21.733408240516  17.256363675293 19.1460977493367  18.3734545774632 16.1275688111248  C 18.7171748623741 15.2651319648137  19.3186853371776 14.5751824877648  19.8342657645439 13.7989893499619  C 18.0297342925523 14.7476698570271  17.1704335802751 16.7312745796655  17.1704335802751 18.8011229630582  C 17.0845035328375 21.0434587157131  18.7171748623741 22.9408197775975  18.9749650522667 24.9244245002361  C 19.0608950997043 25.7868613465472  18.9749650522667 26.5630544843501  18.3734545774632 27.5117349914153  C 17.1704335802751 29.0641213147754  15.709622393194 30.7889949596436  16.3970629630157 32.8588433907903  C 17.0845035328375 34.9286917741829  19.6624056220885 36.2223470197725  19.4905454796331 38.6371701416896  C 19.4905454796331 41.4832117106392  16.1392727731227 43.2943290640156  17.0845035328375 46.5715890322438  C 17.0845035328375 46.5715890322438  15.4518322033014 46.0541269244571  15.4518322033014 46.0541269244571  C 14.7643916334796 43.2080853555075  17.8578741500969 41.7419427406555  17.8578741500969 39.0683885887222  C 18.2875244824454 36.0498596505103  14.4206713485687 34.9286917741829  14.6784615384613 31.9101628359709  C 14.6784615384613 29.6678270833161  16.6548531529088 28.2016844684642  17.514153865186 26.3043234543338  C 17.6860140076415 25.8731050550554  17.6860140076415 25.4418866080227  17.6860140076415 25.0106681609901  C 17.6000839602038 22.9408197775975  15.709622393194 21.3021897934834  15.967412583087 18.8873666715664  C 16.0533426305246 17.1624930266981  16.6548531529088 15.6101067033381  17.7719440550791 14.3164514577485  C 16.2252027729801 14.9201572262892  15.5377622507385 16.7312745796655  15.1081119183905 18.1974171945175  C 14.3347413011311 20.6122403164345  16.1392727731227 22.7683324083353  16.3111328679979 24.924424500236  C 16.3970629154355 25.8731050073012  16.1392727255425 26.8217855143664  15.2799720608459 27.7704660691858  C 13.9910210162202 29.3228523925458  12.7020699715945 31.2202134066762  13.6473007313093 33.2900617900688  C 14.5925314910241 35.5323975427236  17.7719441026593 37.2572712353459  16.3970629630157 40.1033127565415  C 15.6236923457568 41.9144301099178  13.9050909212024 43.2080853555075  13.9910210162202 45.2779337866541  C 13.5613706838717 45.1054464173919  13.0457902565054 44.8467153873756  12.6161398765767 44.5017406010971  C 12.6161398765767 41.8281864014097  16.3970629630157 40.1895564172955  14.5925314910241 37.3435148960999  C 14.4206713485687 37.8609770038867  14.4206713485687 38.6371701416896  14.2488112061133 39.2408759102303  C 13.6473007313093 40.8795058943444  12.2724195916658 42.1731611399341  11.7568391642994 43.8980348325564  C 10.8975384520222 43.5530600940319  10.0382377873257 42.863110616983  9.3507972175039 42.1731611876882  C 9.3507972175039 42.1731611876882  10.2960279772187 41.5694553713934  10.2960279772187 41.5694553713934  C 10.2100979297811 41.2244806328689  9.86637764487023 40.8795058943444  9.69451750241478 40.6207748643282  C 9.09300702761084 40.534531203574  8.66335664768212 40.9657496028526  8.14777622031579 41.1382369721148  C 7.71812588796729 40.7070185728363  7.28847550803857 40.3620438343119  6.94475527070836 39.9308253872792  C 7.28847555561924 38.982144880214  9.78044759743261 39.7583380180171  8.49149650522668 38.2921954031651  C 7.63219579294946 37.7747332953785  6.77289512825291 38.5509264331814  5.99952451099352 38.89590121946  C 5.99952451099352 38.89590121946  4.96836365626086 37.6022459261162  4.96836365626086 37.6022459261162  C 5.82766436853808 37.0847838183296  6.68696503323463 36.3085906805265  7.80405598298512 36.567321758297  C 8.06184617287818 37.0847838660836  8.06184617287818 37.7747333431325  8.57742660024451 38.0334643731488  C 10.3819580722366 38.0334643731488  11.7568391642994 36.567321758297  13.131720303943 35.5323975427236  C 12.1864895442282 34.0662549278718  11.3271888319509 32.0826502052332  12.1864895442282 30.2715328518568  C 12.8739301140499 28.4604154984805  14.678461586042 26.9942728836287  14.7643916334796 25.0106681609901  C 14.7643916334796 24.5794497617117  14.678461586042 24.0619876539249  14.5066013960059 23.5445255461383  C 13.5613706362915 21.0434587157131  13.2176503513806 17.6799550867307  15.0221818233722 15.52386299483  C 13.9910209686395 15.7825940248463  13.389510493836 17.07624931819  13.0457902089252 18.0249298252552  C 11.9286993067549 20.4397529471723  13.3035803988182 22.6820887475812  13.389510493836 25.0106681609901  C 13.389510493836 25.4418865602687  13.389510493836 25.8731050073012  13.3035804463984 26.3043234543338  C 12.3583496866836 28.2016844684642  10.8116084045851 29.9265581610865  10.553818214692 32.0826502052332  C 9.43672731252173 32.7725996822821  8.57742660024451 33.9800112193636  7.03068531814552 33.5487928200851  C 6.94475527070836 33.9800112193636  7.11661536558313 34.5837170356584  7.20254546060096 35.014935434937  C 5.99952446341285 34.9286917741829  5.14022379871631 35.8773722812481  4.10906294398364 36.3085906805265  C 3.59348251661731 36.1361033112644  3.42162237416187 35.4461538342155  3.16383218426881 34.9286917741829  C 4.36685318145692 34.4974733749043  5.22615384615392 33.2900617900688  6.68696503323463 33.2900617900688  C 6.85882517569007 32.8588433907903  6.60103498579747 32.4276249437577  6.51510493835985 31.9964065444791  C 4.79650356138609 31.2202134066762  2.04674128209899 35.791128620494  1.78895109220593 31.8239191752169  C 3.5075524691797 31.7376755144628  4.62464341893065 30.0990455303487  6.34324479590441 29.9265581133325  C 6.34324479590441 29.9265581133325  6.42917484334203 28.6329028677428  6.42917484334203 28.6329028677428  C 4.45278322889453 28.4604154984805  3.2497622792871 30.4440202211191  1.2733706648396 30.2715328518568  C 1.2733706648396 30.2715328518568  0.843720284910887 28.5466592069887  0.843720284910887 28.5466592069887  C 3.07790208925098 28.719146576251  4.45278322889453 26.6492981928583  6.60103498579747 26.5630544843501  C 6.85882517569007 26.2180797458257  6.94475527070836 25.6143739772849  6.94475527070836 25.0969118694983  C 4.79650351380542 24.838180839482  3.16383218426881 27.4254913306613  0.671860142455444 26.6492981451042  C 0.671860142455444 26.6492981451042  0.585930095017829 25.5281302687767  0.5 24.924424500236  C 0.5 24.924424500236  0.5 24.4932061009575  0.5 24.4932061009575  C 2.7341818043401 25.3556429472686  4.71057341878759 23.7170129631545  6.60103498579747 22.9408197775975  C 7.1166154131638 22.7683324083353  7.80405598298557 23.0270634383515  8.06184617287818 22.509601378319  C 8.06184617287818 22.0783829790405  8.83521679013757 21.6471645320079  8.14777622031579 21.3021897934834  C 5.39801398860936 20.957215054959  3.50755242159948 24.2344750231872  0.671860142455444 22.7683324083353  C 0.671860142455444 22.7683324083353  0.5 22.3371140090568  0.5 22.3371140090568  C 1.01558042736633 14.3164514577485  5.56987413106481 6.46827627570246  13.2176503513806 2.6735541996876  C 16.3111328679979 0.948680554819362  20.092055954437 0  23.9589090883137 0  C 28.59913288703 0  33.2393566381661 1.20741158483565  36.7624895347121 3.62223470675281  C 40.1137622412225 5.69208309014539  43.3791049002953 9.1418304276358  45.0977063248497 12.5915777651262  C 46.8163077018235 15.6101067033381  47.5896783666631 19.0598539930745  47.7615384615383 22.6820887475812  C 44.8399160873764 24.924424500236  42.8635244729289 20.6122403641886  39.8559720513294 21.5609208712538  Z M 25.8493706553236 18.8011229630581  C 25.4197203229751 18.8873666238121  25.4197203229751 19.491072440107  24.9900699430464 19.5773161486152  C 24.9900699430464 19.5773161486152  24.7322797531533 19.3185850708447  24.7322797531533 19.3185850708447  C 24.4744895632607 18.3699045637795  24.3885594682424 16.9037619489277  25.2478601805196 16.3000561803869  C 26.2790210352523 15.8688377811085  27.4820419848602 15.6963504118462  28.5132028395924 16.0413251026166  C 28.7709930294855 15.6963503640922  28.5132028395924 15.4376193340759  28.4272727445746 15.0926445955514  C 27.9116923172082 13.9714767192239  26.7946014150384 13.5402582721914  25.7634405603058 13.2815272421751  C 25.2478601329394 13.195283581421  24.7322797055731 13.195283581421  24.216699325787 13.195283581421  C 24.216699325787 13.195283581421  23.9589090883137 13.195283581421  23.9589090883137 13.195283581421  C 22.498097901233 13.195283581421  21.1232167615894 13.6265019806996  20.2639160968924 14.8339135655351  C 20.1779860494553 15.1788883040596  19.5764755270707 15.6963504118462  20.092055954437 15.9550814418625  C 21.2091468566073 15.8688377811085  22.498097901233 15.7825940726003  23.2714685660726 16.7312745796655  C 23.2714685660726 17.5937114259766  23.7870489934389 18.714879302304  22.9277482811617 19.1460977015826  C 22.1543776639023 18.4561482245336  21.2091469041879 19.491072440107  20.4357762393479 18.8873666715663  C 20.0061259069998 18.62863564155  19.8342657645444 18.8873666715663  19.662405622089 19.2323414100907  C 19.4046154321959 21.4746771627455  20.6076363818033 23.8895003324167  22.6699580436884 25.0969118694982  C 23.5292587559657 25.4418866080226  24.6463496581355 25.7006176380389  25.5056503704127 25.2693992387603  C 27.6539021273156 24.3207187316951  28.5132028395924 21.9921392705322  28.8569230769231 19.9222908871395  C 28.6850629344676 19.5773161486152  28.6850629344676 18.8011230108121  28.0835524596637 18.8011229630581  C 27.4820419848602 19.2323413623366  26.5368111775651 18.9736103323203  25.8493706553236 18.8011229630581  Z M 46.8163077018239 20.8709713942048  C 45.0977063248502 18.1111735337632  42.6057342830363 15.523863042584  43.2931748528581 11.8153846273232  C 43.3791049002957 11.5566535973069  43.2072448054205 11.2979225195365  42.9494545679472 11.2979225195365  C 41.8323636657769 11.7291409188151  40.9730629534997 12.8503088428965  40.5434126211517 13.8852330584699  C 40.3715524786962 14.4889388270107  40.2856224312586 15.1788883040596  40.0278321937853 15.7825940726003  C 38.7388811491596 15.0926445955514  37.3640000095161 14.4026951185025  35.7313286799795 14.5751824877648  C 35.129818205176 14.6614261485188  34.3564475403364 14.6614261485188  34.1845874454611 15.2651319648136  C 35.9891189174532 16.2138124718788  37.4499301045339 17.8524424559929  38.5670210067042 19.5773161486152  C 39.512251766419 19.4048287793529  40.4574825261334 19.4910724878611  41.2308531433928 19.6635598093692  C 43.0353846153848 20.1810219171559  44.925846134814 22.1646266397945  46.8163077018239 20.8709713942048  Z M 3.67941261163514 21.043458763467  C 5.56987413106481 20.267265625664  7.3744056030564 18.9736103800743  9.60858745497717 19.4048287793529  C 10.2960280247989 18.2836609030254  11.4131189269692 17.162493026698  12.2724195916658 16.3000561803869  C 12.7880000190321 15.8688377811084  13.5613706362915 15.5238630425839  13.9910210162202 15.0064009347973  C 12.100559496791 13.7989893499617  9.78044759743261 14.9201572740432  8.06184617287818 15.610106703338  C 7.88998603042273 13.9714767192239  7.20254546060096 12.5053341043721  5.82766436853808 11.3841662280446  C 5.82766436853808 11.3841662280446  5.31208394117175 11.1254351502743  5.31208394117175 11.1254351502743  C 5.22615389373414 11.1254351502743  5.14022379871631 11.1254351502743  5.05429370369848 11.2979225195364  C 5.65580417850197 15.1788882563054  3.16383218426881 17.8524424559929  1.44523080729505 20.7847276856966  C 2.04674128209899 21.3021897934833  2.99197208939404 21.2159460849751  3.67941261163514 21.043458763467  Z M 15.8814825356494 7.24446941350527  C 16.3111328679979 8.19314992057048  16.9126433903821 9.31431779689785  16.8267132953642 10.3492420124712  C 16.2252028205603 10.2629983517172  15.7955524406316 9.83177990468459  15.1940419658276 9.65929253542231  C 14.5066013960059 9.48680516616014  13.7332307787469 9.14183042763568  13.131720303943 9.31431779689785  C 14.2488112061133 10.7804604117498  15.1081119183905 12.4190903958639  15.3659021082831 14.2302077492402  C 18.8890349572489 12.5053341043721  23.0996084236172 11.5566535495527  27.3961118898424 12.3328467351098  C 29.458433551727 12.6778214736343  31.2629650237191 13.4540146114373  33.0674965432913 14.1439640884861  C 33.1534265907285 12.3328467351098  34.3564475879166 10.866704120258  35.129818205176 9.31431779689785  C 33.8408671605503 9.22807413614385  32.7237762583804 10.0042672739468  31.5207552611923 10.3492420124712  C 31.4348252137547 9.31431779689785  32.2081958310141 8.19314992057048  32.3800559734696 7.15822575275115  C 30.4036643590221 7.24446941350527  28.8569231245037 8.45188099834081  27.2242517473869 9.40056150540602  C 26.7946014150384 8.53812465909493  26.4508811301275 7.58944415202973  26.1071608452166 6.72700730571864  C 26.1071608452166 6.72700730571864  28.2554126021191 4.65715892232595  28.2554126021191 4.65715892232595  L 28.3413426971374 4.39842789230966  C 28.3413426971374 4.39842789230966  25.4197202753949 4.22594052304748  25.4197202753949 4.22594052304748  C 24.9041398480285 3.36350367673629  24.7322797055731 2.32857950891707  24.1307692307691 1.46614261485183  C 23.6151888034028 2.41482312191704  23.3573986135102 3.36350362898224  22.8418181861439 4.22594052304748  C 22.8418181861439 4.22594052304748  19.9201958119816 4.39842789230966  19.9201958119816 4.39842789230966  L 19.9201958119816 4.57091521381778  C 19.9201958119816 4.57091521381778  22.1543776639023 6.55451993645636  22.1543776639023 6.55451993645636  C 21.8965874740093 7.58944415202973  21.638797236536 8.7106120283571  20.9513566667142 9.48680516616014  C 19.662405622089 8.7106120283571  18.3734545774632 7.84817518204602  16.9985734378197 7.33071312201344  C 16.6548531529088 7.24446946125931  16.1392727255425 7.07198209199714  15.8814825356494 7.24446941350527  Z M 24.1307692307691 20.4397529471722  C 24.4744895632602 20.4397529471722  24.8182098481711 20.5259966556804  25.0760000380642 20.7847276856967  C 24.8182098005909 21.4746771627456  23.7870489458583 21.043458763467  23.1855384710543 21.1297024242211  C 23.0136783761795 21.043458763467  23.0996084236167 20.8709713942048  23.0996084236167 20.6984840249426  C 23.4433286609474 20.5259966079263  23.7870489458583 20.3535092864181  24.1307692307691 20.4397529471722  Z M 22.2403077113399 22.5096013783188  C 22.2403077113399 22.5096013783188  22.1543776639023 22.1646266397944  22.1543776639023 22.1646266397944  C 23.443328708528 22.3371140090567  24.8182098005909 22.0783829790403  26.021230797779 22.3371140090567  C 25.5915804178503 22.9408197775974  24.9900699430464 23.8032565761545  24.1307692307691 23.7170129154003  C 23.1855384710543 23.8032566239085  22.9277482811617 22.9408197775974  22.2403077113399 22.5096013783188  Z M 28.5991328870305 17.3349803482063  C 28.3413426971374 16.9037619489277  27.8257622697711 16.9037619489277  27.3101818424047 16.9037619489277  C 27.3101818424047 16.9037619489277  27.1383216999493 16.9037619489277  27.1383216999493 16.9037619489277  C 26.7946014150384 17.162492978944  25.6775105128681 16.9900056096818  26.1071608452166 17.8524424559929  C 26.7946014150384 17.3349803482063  27.7398321747532 17.6799550867307  28.427272744575 17.9386861645011  C 28.6850629344681 17.8524425037469  28.5991328870305 17.5937114259766  28.5991328870305 17.3349803482063  Z M 22.1543776639023 17.8524424559929  C 22.1543776639023 17.8524424559929  22.1543776639023 17.5937114259766  22.1543776639023 17.5937114259766  C 21.8106573789914 17.07624931819  21.1232168091697 16.8175182881737  20.4357762393479 16.8175182881737  C 20.2639160968924 16.8175182881737  20.092055954437 16.8175182881737  19.9201958119816 16.9037619489278  C 19.7483356695261 16.9037619489278  19.5764755270707 17.1624929789441  19.6624056220885 17.4212240567144  C 19.6624056220885 17.6799550867307  19.6624056220885 18.0249298252552  20.0061259069994 17.9386861645011  C 20.5217063343657 17.1624930266981  21.5528671890984 17.7661987952389  22.1543776639023 17.8524424559929  Z M 21.8965874264291 9.91802361319276  C 21.8965874264291 9.91802361319276  23.9589090883137 8.27939362907864  23.9589090883137 8.27939362907864  C 24.8182098005909 8.79685573686527  25.6775104652879 9.40056150540602  26.3649510826899 10.0905109824549  C 26.3649510826899 10.0905109824549  26.1071608452166 10.3492420124712  26.1071608452166 10.3492420124712  C 24.7322797055731 10.1767546432091  23.3573986135102 10.3492420124712  22.0684475688845 10.4354857209794  C 21.8965874264291 10.2629983517172  21.638797236536 10.0905109824549  21.8965874264291 9.91802361319276  Z " fill-rule="nonzero" fill="#106e33" stroke="none" transform="matrix(1 0 0 1 19 438 )" />
  </g>
</svg>