<?xml version="1.0" encoding="utf-8"?>
<svg version="1.1" xmlns:xlink="http://www.w3.org/1999/xlink" width="13px" height="6px" xmlns="http://www.w3.org/2000/svg">
  <g transform="matrix(1 0 0 1 -332 -694 )">
    <path d="M 12.8697394789579 4.90721649484536  C 12.9565798263193 4.97594501718213  13 5.05498281786942  13 5.14432989690722  C 13 5.23367697594502  12.9565798263193 5.3127147766323  12.8697394789579 5.38144329896907  L 12.2184368737475 5.89690721649484  C 12.1315965263861 5.96563573883161  12.0317301269205 6  11.9188376753507 6  C 11.8059452237809 6  11.7060788243153 5.96563573883161  11.6192384769539 5.89690721649484  L 6.5 1.84536082474227  L 1.38076152304609 5.89690721649484  C 1.2939211756847 5.96563573883161  1.19405477621911 6  1.0811623246493 6  C 0.968269873079492 6  0.868403473613895 5.96563573883161  0.781563126252505 5.89690721649484  L 0.130260521042084 5.38144329896907  C 0.0434201736806948 5.3127147766323  0 5.23367697594502  0 5.14432989690722  C 0 5.05498281786942  0.0434201736806948 4.97594501718213  0.130260521042084 4.90721649484536  L 6.20040080160321 0.103092783505155  C 6.2872411489646 0.0343642611683841  6.38710754843019 0  6.5 0  C 6.61289245156981 0  6.7127588510354 0.0343642611683841  6.79959919839679 0.103092783505155  L 12.8697394789579 4.90721649484536  Z " fill-rule="nonzero" fill="#f5f9fd" stroke="none" transform="matrix(1 0 0 1 332 694 )" />
  </g>
</svg>