<?xml version="1.0" encoding="utf-8"?>
<svg version="1.1" xmlns:xlink="http://www.w3.org/1999/xlink" width="55px" height="36px" xmlns="http://www.w3.org/2000/svg">
  <g transform="matrix(1 0 0 1 -163 1366 )">
    <path d="M 52.3263888888889 36  L 28.6458333333334 36  L 14.9248975495854 36  L 1.9097222222223 36  C 1.39250578703728 36  0.944914641204088 35.7418478260854  0.566948784722199 35.2255434782639  C 0.188982928240415 34.7092391304346  0 34.097826086955  0 33.3913043478291  C 0 32.6847826086953  0.188982928240415 32.0733695652158  0.566948784722199 31.5570652173943  L 13.9350043402778 13.2961956521748  C 14.3129701967596 12.7798913043494  14.760561342593 12.5217391304348  15.2777777777776 12.5217391304348  C 15.7949942129626 12.5217391304348  16.2425853587959 12.7798913043494  16.6205512152778 13.2961956521748  L 20.2886249997053 18.3068233770644  L 31.7312282986111 1.18749999999962  C 32.2603804976862 0.395833333331823  32.8870081018529 0  33.6111111111111 0  C 34.3352141203693 0  34.961841724536 0.395833333331823  35.4909939236111 1.18749999999962  L 54.2062717013888 29.1875000000004  C 54.7354239004641 29.9791666666642  55 30.9166666666656  55 32.0000000000005  C 55 33.0833333333315  54.7354239004641 34.0208333333327  54.2062717013888 34.8125000000004  C 53.6771195023138 35.6041666666642  53.050491898147 36  52.3263888888889 36  Z " fill-rule="nonzero" fill="#cccccc" stroke="none" transform="matrix(1 0 0 1 163 -1366 )" />
  </g>
</svg>