<?xml version="1.0" encoding="utf-8"?>
<svg version="1.1" xmlns:xlink="http://www.w3.org/1999/xlink" width="12px" height="12px" viewBox="22 39  12 12" xmlns="http://www.w3.org/2000/svg">
  <path d="M 22.5 44  A 4.5 4.5 0 0 1 27 39.5 L 29 39.5  A 4.5 4.5 0 0 1 33.5 44 L 33.5 46  A 4.5 4.5 0 0 1 29 50.5 L 27 50.5  A 4.5 4.5 0 0 1 22.5 46 L 22.5 44  Z " fill-rule="nonzero" fill="#ffffff" stroke="none" />
  <path d="M 22.5 44  A 4.5 4.5 0 0 1 27 39.5 L 29 39.5  A 4.5 4.5 0 0 1 33.5 44 L 33.5 46  A 4.5 4.5 0 0 1 29 50.5 L 27 50.5  A 4.5 4.5 0 0 1 22.5 46 L 22.5 44  Z " stroke-width="1" stroke="#797979" fill="none" />
</svg>