<?xml version="1.0" encoding="utf-8"?>
<svg version="1.1" xmlns:xlink="http://www.w3.org/1999/xlink" width="12px" height="12px" viewBox="86 773  12 12" xmlns="http://www.w3.org/2000/svg">
  <path d="M 86.5 778  A 4.5 4.5 0 0 1 91 773.5 L 93 773.5  A 4.5 4.5 0 0 1 97.5 778 L 97.5 780  A 4.5 4.5 0 0 1 93 784.5 L 91 784.5  A 4.5 4.5 0 0 1 86.5 780 L 86.5 778  Z " fill-rule="nonzero" fill="#ffffff" stroke="none" />
  <path d="M 86.5 778  A 4.5 4.5 0 0 1 91 773.5 L 93 773.5  A 4.5 4.5 0 0 1 97.5 778 L 97.5 780  A 4.5 4.5 0 0 1 93 784.5 L 91 784.5  A 4.5 4.5 0 0 1 86.5 780 L 86.5 778  Z " stroke-width="1" stroke="#797979" fill="none" />
  <path d="M 88.5714285714286 779  L 91.1428571428571 781.571428571429  L 95.4285714285714 775.571428571429  " stroke-width="2.57142857142857" stroke="#797979" fill="none" />
</svg>