<?xml version="1.0" encoding="utf-8"?>
<svg version="1.1" xmlns:xlink="http://www.w3.org/1999/xlink" width="25px" height="25px" xmlns="http://www.w3.org/2000/svg">
  <g transform="matrix(1 0 0 1 -287 -352 )">
    <path d="M 299.5 352  C 306.5 352  312 357.5  312 364.5  C 312 371.5  306.5 377  299.5 377  C 292.5 377  287 371.5  287 364.5  C 287 357.5  292.5 352  299.5 352  Z " fill-rule="nonzero" fill="#facd91" stroke="none" />
    <path d="M 299.5 352.5  C 306.22 352.5  311.5 357.78  311.5 364.5  C 311.5 371.22  306.22 376.5  299.5 376.5  C 292.78 376.5  287.5 371.22  287.5 364.5  C 287.5 357.78  292.78 352.5  299.5 352.5  Z " stroke-width="1" stroke="#797979" fill="none" />
  </g>
</svg>