<?xml version="1.0" encoding="utf-8"?>
<svg version="1.1" xmlns:xlink="http://www.w3.org/1999/xlink" width="12px" height="12px" viewBox="1243 428  12 12" xmlns="http://www.w3.org/2000/svg">
  <path d="M 1243.5 433  A 4.5 4.5 0 0 1 1248 428.5 L 1250 428.5  A 4.5 4.5 0 0 1 1254.5 433 L 1254.5 435  A 4.5 4.5 0 0 1 1250 439.5 L 1248 439.5  A 4.5 4.5 0 0 1 1243.5 435 L 1243.5 433  Z " fill-rule="nonzero" fill="#f0f0f0" stroke="none" />
  <path d="M 1243.5 433  A 4.5 4.5 0 0 1 1248 428.5 L 1250 428.5  A 4.5 4.5 0 0 1 1254.5 433 L 1254.5 435  A 4.5 4.5 0 0 1 1250 439.5 L 1248 439.5  A 4.5 4.5 0 0 1 1243.5 435 L 1243.5 433  Z " stroke-width="1" stroke="#797979" fill="none" />
</svg>