<?xml version="1.0" encoding="utf-8"?>
<svg version="1.1" xmlns:xlink="http://www.w3.org/1999/xlink" width="12px" height="12px" viewBox="1244 502  12 12" xmlns="http://www.w3.org/2000/svg">
  <path d="M 1244.5 507  A 4.5 4.5 0 0 1 1249 502.5 L 1251 502.5  A 4.5 4.5 0 0 1 1255.5 507 L 1255.5 509  A 4.5 4.5 0 0 1 1251 513.5 L 1249 513.5  A 4.5 4.5 0 0 1 1244.5 509 L 1244.5 507  Z " fill-rule="nonzero" fill="#ffffff" stroke="none" />
  <path d="M 1244.5 507  A 4.5 4.5 0 0 1 1249 502.5 L 1251 502.5  A 4.5 4.5 0 0 1 1255.5 507 L 1255.5 509  A 4.5 4.5 0 0 1 1251 513.5 L 1249 513.5  A 4.5 4.5 0 0 1 1244.5 509 L 1244.5 507  Z " stroke-width="1" stroke="#797979" fill="none" />
  <path d="M 1246.57142857143 508  L 1249.14285714286 510.571428571429  L 1253.42857142857 504.571428571429  " stroke-width="2.57142857142857" stroke="#797979" fill="none" />
</svg>