<?xml version="1.0" encoding="utf-8"?>
<svg version="1.1" xmlns:xlink="http://www.w3.org/1999/xlink" width="30px" height="26px" xmlns="http://www.w3.org/2000/svg">
  <g transform="matrix(1 0 0 1 -398 -106 )">
    <path d="M 11.3097303859024 16.461016138753  C 11.3097881529682 11.627353451965  15.3032953374681 7.70510088254339  20.3598624697913 7.70510088254339  C 20.7048473865065 7.70510088254339  21.0462446644008 7.73077520818058  21.38472622566 7.77015894108204  C 20.4636546851017 3.312221869838  15.878594504994 0  10.6446125522361 0  C 4.79297905163526 0  0 4.14506046037116  0 9.40931167420753  C 0 12.4490456433694  1.59463248694112 14.9431433072343  4.25946371488453 16.8790329686837  L 3.19482581405475 20.2072333454666  L 6.91599776796158 18.2679305535778  C 8.24744046293097 18.5414265918552  9.31584538452319 18.8235155020443  10.6445547851704 18.8235155020443  C 10.9786004438538 18.8235155020443  11.3096999821837 18.8061780635357  11.6383064155698 18.7794260735653  C 11.4304179477613 18.0401641425736  11.3097303859024 17.2654973038873  11.3097303859024 16.461016138753  Z M 12.9156639351291 6.1911721128653  C 12.9156639351291 5.24643972943315  13.65248285889 4.48055222070984  14.561371629317 4.48055222070984  C 15.470260399744 4.48055222070984  16.2070185160675 5.24640812637352  16.2070185160675 6.1911721128653  C 16.2070185160675 7.13593609935708  15.470257359372 7.9017604019614  14.561371629317 7.9017604019614  C 13.6524220514526 7.9017604019614  12.9156639351291 7.13590449629767  12.9156639351291 6.1911721128653  Z M 8.75944516861614 6.22566053183131  C 8.75944516861614 7.17036131220362  8.02265664857396 7.93624882092698  7.11370707070921 7.93624882092698  C 6.20481830028223 7.93624882092698  5.46799937652133 7.17039291526325  5.46799937652133 6.22566053183131  C 5.46799937652133 5.28092814839916  6.20482134065423 4.51507224273547  7.11370707070921 4.51507224273547  C 8.02265664857396 4.51507224273547  8.75944516861614 5.28092814839916  8.75944516861614 6.22566053183131  Z M 26.2715341939477 22.7349629853813  C 28.408255866347 21.0688117584203  30 18.8594228983872  30 16.3640958755034  C 30 11.9405808567999  25.7416004152744 8.33477920429466  20.9585846622967 8.33477920429466  C 15.8938450103547 8.33477920429466  11.9050169581809 11.9405808567999  11.9050169581809 16.3640958755034  C 11.9050169581809 20.7952525140234  15.8938450103547 24.3931913252947  20.9585846622967 24.3931913252947  C 22.0184826233626 24.3931913252947  23.0877996565189 24.1150844006182  24.152437557349 23.8377011860071  L 27.0722830172733 25.5  L 26.2715341939477 22.7349629853813  Z M 19.3490330705305 13.9058740049221  C 19.3490969183399 14.5786272969383  18.8243591352129 15.1240423808184  18.1771399708164 15.1240423808184  C 17.5298934430734 15.1240423808184  17.0052468711026 14.5785956938787  17.0052468711026 13.9058740049221  C 17.0052468711026 13.2330891098459  17.5299238467918 12.6877688351448  18.1771399708164 12.6877688351448  C 18.8243560948409 12.6877688351448  19.3490330705305 13.2331207129055  19.3490330705305 13.9058740049221  Z M 25.2007273785691 13.9750373009054  C 25.2007608226598 14.6477273868026  24.6760534432516 15.1931424706825  24.0288342788554 15.1931424706825  C 23.3815269436743 15.1931424706825  22.8569107754225 14.6477273868026  22.8569107754225 13.9750373009054  C 22.8569107754225 13.30222080277  23.381557347393 12.7569321311282  24.0288342788554 12.7569321311282  C 24.6760504028796 12.7569321311282  25.2007273785691 13.3022524058294  25.2007273785691 13.9750373009054  Z " fill-rule="nonzero" fill="#ffffff" stroke="none" transform="matrix(1 0 0 1 398 106 )" />
  </g>
</svg>