<?xml version="1.0" encoding="utf-8"?>
<svg version="1.1" xmlns:xlink="http://www.w3.org/1999/xlink" width="380px" height="210px" xmlns="http://www.w3.org/2000/svg">
  <defs>
    <mask fill="white" id="clip232">
      <path d="M 369.331613132842 101.685164861099  L 355 112.614500012102  L 355 195  C 355 197.8  352.8 200  350 200  L 5 200  C 2.2 200  0 197.8  0 195  L 0 5  C 0 2.2  2.2 0  5 0  L 350 0  C 352.8 0  355 2.2  355 5  L 355 88.3862801700488  L 369.331613132842 99.3152327677583  C 370.222795622386 99.9948571227531  370.222795622386 101.005608359974  369.331613132842 101.685164861099  Z " fill-rule="evenodd" />
    </mask>
    <filter x="-3px" y="16px" width="380px" height="210px" filterUnits="userSpaceOnUse" id="filter233">
      <feOffset dx="2" dy="2" in="SourceAlpha" result="shadowOffsetInner" />
      <feGaussianBlur stdDeviation="2.5" in="shadowOffsetInner" result="shadowGaussian" />
      <feComposite in2="shadowGaussian" operator="atop" in="SourceAlpha" result="shadowComposite" />
      <feColorMatrix type="matrix" values="0 0 0 0 0.894117647058823  0 0 0 0 0.894117647058823  0 0 0 0 0.894117647058823  0 0 0 0.349019607843137 0  " in="shadowComposite" />
    </filter>
    <g id="widget234">
      <path d="M 369.331613132842 101.685164861099  L 355 112.614500012102  L 355 195  C 355 197.8  352.8 200  350 200  L 5 200  C 2.2 200  0 197.8  0 195  L 0 5  C 0 2.2  2.2 0  5 0  L 350 0  C 352.8 0  355 2.2  355 5  L 355 88.3862801700488  L 369.331613132842 99.3152327677583  C 370.222795622386 99.9948571227531  370.222795622386 101.005608359974  369.331613132842 101.685164861099  Z " fill-rule="nonzero" fill="#ffffff" stroke="none" transform="matrix(1 0 0 1 0 19 )" />
      <path d="M 369.331613132842 101.685164861099  L 355 112.614500012102  L 355 195  C 355 197.8  352.8 200  350 200  L 5 200  C 2.2 200  0 197.8  0 195  L 0 5  C 0 2.2  2.2 0  5 0  L 350 0  C 352.8 0  355 2.2  355 5  L 355 88.3862801700488  L 369.331613132842 99.3152327677583  C 370.222795622386 99.9948571227531  370.222795622386 101.005608359974  369.331613132842 101.685164861099  Z " stroke-width="2" stroke="#f2f2f2" fill="none" transform="matrix(1 0 0 1 0 19 )" mask="url(#clip232)" />
    </g>
  </defs>
  <g transform="matrix(1 0 0 1 3 -16 )">
    <use xlink:href="#widget234" filter="url(#filter233)" />
    <use xlink:href="#widget234" />
  </g>
</svg>