<?xml version="1.0" encoding="utf-8"?>
<svg version="1.1" xmlns:xlink="http://www.w3.org/1999/xlink" width="313px" height="118px" xmlns="http://www.w3.org/2000/svg">
  <g transform="matrix(1 0 0 1 -23 -722 )">
    <path d="M 297.784722222222 118  L 163.020833333334 118  L 84.9362351458221 118  L 10.868055555556 118  C 7.92462384259398 118  5.37742332176145 117.153834541058  3.22645399305542 115.461503623198  C 1.07548466435 113.769172705314  0 111.765096618353  0 109.449275362329  C 0 107.133454106279  1.07548466435 105.129378019319  3.22645399305542 103.437047101459  L 79.3028428819446 43.581974637684  C 81.45381221065 41.8896437198119  84.0010127314837 41.0434782608696  86.9444444444434 41.0434782608696  C 89.8878761574054 41.0434782608696  92.4350766782385 41.8896437198119  94.5860460069446 43.581974637684  L 115.460720452868 60.0056988470444  L 180.579535590278 3.89236111110985  C 183.590892650469 1.29745370369875  187.156973379636 0  191.277777777778 0  C 195.39858217592 0  198.964662905087 1.29745370369875  201.976019965278 3.89236111110985  L 308.482964409722 95.6701388888902  C 311.494321469914 98.2650462962883  313 101.337962962959  313 104.88888888889  C 313 108.439814814809  311.494321469914 111.51273148148  308.482964409722 114.10763888889  C 305.471607349531 116.702546296288  301.905526620364 118  297.784722222222 118  Z " fill-rule="nonzero" fill="#f2f2f2" stroke="none" transform="matrix(1 0 0 1 23 722 )" />
  </g>
</svg>