<?xml version="1.0" encoding="utf-8"?>
<svg version="1.1" xmlns:xlink="http://www.w3.org/1999/xlink" width="119px" height="116px" xmlns="http://www.w3.org/2000/svg">
  <g transform="matrix(1 0 0 1 -216 -136 )">
    <path d="M 275.5 136.5  C 308.54 136.5  334.5 161.8  334.5 194  C 334.5 226.2  308.54 251.5  275.5 251.5  C 242.46 251.5  216.5 226.2  216.5 194  C 216.5 161.8  242.46 136.5  275.5 136.5  Z " fill-rule="nonzero" fill="#000000" stroke="none" />
    <path d="M 275.5 136.5  C 308.54 136.5  334.5 161.8  334.5 194  C 334.5 226.2  308.54 251.5  275.5 251.5  C 242.46 251.5  216.5 226.2  216.5 194  C 216.5 161.8  242.46 136.5  275.5 136.5  Z " stroke-width="1" stroke-dasharray="9,4" stroke="#aaaaaa" fill="none" stroke-dashoffset="0.5" />
  </g>
</svg>