<?xml version="1.0" encoding="utf-8"?>
<svg version="1.1" xmlns:xlink="http://www.w3.org/1999/xlink" width="143px" height="144px" xmlns="http://www.w3.org/2000/svg">
  <g transform="matrix(1 0 0 1 -204 -121 )">
    <path d="M 275.5 122.5  C 314.7 122.5  345.5 153.52  345.5 193  C 345.5 232.48  314.7 263.5  275.5 263.5  C 236.3 263.5  205.5 232.48  205.5 193  C 205.5 153.52  236.3 122.5  275.5 122.5  Z " fill-rule="nonzero" fill="#000000" stroke="none" />
    <path d="M 275.5 122  C 314.98 122  346 153.24  346 193  C 346 232.76  314.98 264  275.5 264  C 236.02 264  205 232.76  205 193  C 205 153.24  236.02 122  275.5 122  Z " stroke-width="2" stroke-dasharray="6,2" stroke="#ffffff" fill="none" />
  </g>
</svg>