<?xml version="1.0" encoding="utf-8"?>
<svg version="1.1" xmlns:xlink="http://www.w3.org/1999/xlink" width="17px" height="17px" xmlns="http://www.w3.org/2000/svg">
  <defs>
    <linearGradient gradientUnits="userSpaceOnUse" x1="723.5" y1="303" x2="723.5" y2="320" id="LinearGradient371">
      <stop id="Stop372" stop-color="#bccbfb" offset="0" />
      <stop id="Stop373" stop-color="#879bf5" offset="1" />
    </linearGradient>
  </defs>
  <g transform="matrix(1 0 0 1 -715 -303 )">
    <path d="M 715 305  A 2 2 0 0 1 717 303 L 730 303  A 2 2 0 0 1 732 305 L 732 318  A 2 2 0 0 1 730 320 L 717 320  A 2 2 0 0 1 715 318 L 715 305  Z " fill-rule="nonzero" fill="#ffffff" stroke="none" />
    <path d="M 715.25 305  A 1.75 1.75 0 0 1 717 303.25 L 730 303.25  A 1.75 1.75 0 0 1 731.75 305 L 731.75 318  A 1.75 1.75 0 0 1 730 319.75 L 717 319.75  A 1.75 1.75 0 0 1 715.25 318 L 715.25 305  Z " stroke-width="0.5" stroke="url(#LinearGradient371)" fill="none" />
  </g>
</svg>