<?xml version="1.0" encoding="utf-8"?>
<svg version="1.1" xmlns:xlink="http://www.w3.org/1999/xlink" width="30px" height="30px" xmlns="http://www.w3.org/2000/svg">
  <g transform="matrix(1 0 0 1 -1195 -279 )">
    <path d="M 1210 280  C 1217.84 280  1224 286.16  1224 294  C 1224 301.84  1217.84 308  1210 308  C 1202.16 308  1196 301.84  1196 294  C 1196 286.16  1202.16 280  1210 280  Z " fill-rule="nonzero" fill="#0079fe" stroke="none" />
    <path d="M 1210 280  C 1217.84 280  1224 286.16  1224 294  C 1224 301.84  1217.84 308  1210 308  C 1202.16 308  1196 301.84  1196 294  C 1196 286.16  1202.16 280  1210 280  Z " stroke-width="2" stroke="#0079fe" fill="none" />
  </g>
</svg>