<?xml version="1.0" encoding="utf-8"?>
<svg version="1.1" xmlns:xlink="http://www.w3.org/1999/xlink" width="30px" height="30px" xmlns="http://www.w3.org/2000/svg">
  <g transform="matrix(1 0 0 1 -1195 -406 )">
    <path d="M 1210 407  C 1217.84 407  1224 413.16  1224 421  C 1224 428.84  1217.84 435  1210 435  C 1202.16 435  1196 428.84  1196 421  C 1196 413.16  1202.16 407  1210 407  Z " fill-rule="nonzero" fill="#ffffff" stroke="none" />
    <path d="M 1210 407  C 1217.84 407  1224 413.16  1224 421  C 1224 428.84  1217.84 435  1210 435  C 1202.16 435  1196 428.84  1196 421  C 1196 413.16  1202.16 407  1210 407  Z " stroke-width="2" stroke="#e4e4e4" fill="none" />
  </g>
</svg>