<?xml version="1.0" encoding="utf-8"?>
<svg version="1.1" xmlns:xlink="http://www.w3.org/1999/xlink" width="90px" height="30px" xmlns="http://www.w3.org/2000/svg">
  <g transform="matrix(1 0 0 1 -319 -205 )">
    <path d="M 320 220  A 14 14 0 0 1 334 206 L 394 206  A 14 14 0 0 1 408 220 A 14 14 0 0 1 394 234 L 334 234  A 14 14 0 0 1 320 220 Z " fill-rule="nonzero" fill="#f2f2f2" stroke="none" />
    <path d="M 319.5 220  A 14.5 14.5 0 0 1 334 205.5 L 394 205.5  A 14.5 14.5 0 0 1 408.5 220 A 14.5 14.5 0 0 1 394 234.5 L 334 234.5  A 14.5 14.5 0 0 1 319.5 220 Z " stroke-width="1" stroke="#e4e4e4" fill="none" stroke-opacity="0.498039215686275" />
  </g>
</svg>