<?xml version="1.0" encoding="utf-8"?>
<svg version="1.1" xmlns:xlink="http://www.w3.org/1999/xlink" width="16px" height="16px" xmlns="http://www.w3.org/2000/svg">
  <g transform="matrix(1 0 0 1 -380 -212 )">
    <path d="M 388 213  C 391.92 213  395 216.08  395 220  C 395 223.92  391.92 227  388 227  C 384.08 227  381 223.92  381 220  C 381 216.08  384.08 213  388 213  Z " fill-rule="nonzero" fill="#f2f2f2" stroke="none" />
    <path d="M 388 213  C 391.92 213  395 216.08  395 220  C 395 223.92  391.92 227  388 227  C 384.08 227  381 223.92  381 220  C 381 216.08  384.08 213  388 213  Z " stroke-width="2" stroke="#000000" fill="none" />
  </g>
</svg>