<?xml version="1.0" encoding="utf-8"?>
<svg version="1.1" xmlns:xlink="http://www.w3.org/1999/xlink" width="11px" height="8px" xmlns="http://www.w3.org/2000/svg">
  <g transform="matrix(1 0 0 1 -39 -183 )">
    <path d="M 1.35665898065554 3.35117982075485  L 3.95989169905488 5.95441273734991  L 9.26914420452067 0.645160231884574  C 9.4671341032531 0.447170333152371  9.77922731984381 0.448136566020821  9.9784469694996 0.647356215676837  C 10.1776666191558 0.846575865332852  10.1786328520247 1.15866908192356  9.98064295329232 1.35665898065577  L 4.32378870380035 7.01351323014774  C 4.12579880506792 7.21150312887994  3.81370558847721 7.21053689601126  3.57932430094206 6.97253608885285  C 3.54167277328315 6.95075309484196  3.50609232886063 6.92361066650278  3.47358735663011 6.89110569427226  L 0.645160231883438 4.0626785695265  C 0.447170333151007 3.86468867079429  0.448136566019912 3.55259545420336  0.647356215676155 3.35337580454734  C 0.846575865332397 3.15415615489133  1.15866908192311 3.15318992202265  1.35665898065554 3.35117982075485  Z " fill-rule="nonzero" fill="#7e7e7e" stroke="none" transform="matrix(1 0 0 1 39 183 )" />
  </g>
</svg>