<?xml version="1.0" encoding="utf-8"?>
<svg version="1.1" xmlns:xlink="http://www.w3.org/1999/xlink" width="327px" height="210px" xmlns="http://www.w3.org/2000/svg">
  <defs>
    <mask fill="white" id="clip206">
      <path d="M 0.5 6.55324242694178  L 279.820001312896 6.93791047113058  L 290.258779130288 0  L 300.741480429951 7  L 325.509847169435 7  L 326.509877468418 210  L 0.5 210  L 0.5 6.55324242694178  Z " fill-rule="evenodd" />
    </mask>
  </defs>
  <g transform="matrix(1 0 0 1 -26 -822 )">
    <path d="M 0.5 6.55324242694178  L 279.820001312896 6.93791047113058  L 290.258779130288 0  L 300.741480429951 7  L 325.509847169435 7  L 326.509877468418 210  L 0.5 210  L 0.5 6.55324242694178  Z " fill-rule="nonzero" fill="#ffffff" stroke="none" fill-opacity="0" transform="matrix(1 0 0 1 26 822 )" />
    <path d="M 0.5 6.55324242694178  L 279.820001312896 6.93791047113058  L 290.258779130288 0  L 300.741480429951 7  L 325.509847169435 7  L 326.509877468418 210  L 0.5 210  L 0.5 6.55324242694178  Z " stroke-width="2" stroke="#c98442" fill="none" transform="matrix(1 0 0 1 26 822 )" mask="url(#clip206)" />
  </g>
</svg>