<?xml version="1.0" encoding="utf-8"?>
<svg version="1.1" xmlns:xlink="http://www.w3.org/1999/xlink" width="22px" height="22px" xmlns="http://www.w3.org/2000/svg">
  <g transform="matrix(1 0 0 1 -14 -1197 )">
    <path d="M 20.4645911734519 15.2993303571429  L 18.036036036036 18.7638392857143  L 4.75424791880488 18.7638392857143  L 2.14505644885392 15.5792410714286  L 7.88026000684229 1.09017857142857  L 11.1367316683772 8.67723214285714  L 14.2376553768959 1.0140625  L 17.208119511917 7.81540178571429  C 17.208119511917 7.81540178571429  22 7.81540178571429  22 7.81540178571429  C 20.605086098757 3.29263392857143  16.3149732010491 0  11.2395940244042 0  C 5.03272893146311 0  0 4.92544642857143  0 11  C 0 17.0745535714286  5.03272893146311 22  11.2395940244042 22  C 16.0941954612841 22  20.2312692439275 18.9872767857143  21.8018018018018 14.7689732142857  C 21.8018018018018 14.7689732142857  20.2312692439275 14.7689732142857  20.2312692439275 14.7689732142857  L 20.4645911734519 15.2993303571429  Z " fill-rule="nonzero" fill="#a61f23" stroke="none" transform="matrix(1 0 0 1 14 1197 )" />
  </g>
</svg>