<?xml version="1.0" encoding="utf-8"?>
<svg version="1.1" xmlns:xlink="http://www.w3.org/1999/xlink" width="43px" height="46px" xmlns="http://www.w3.org/2000/svg">
  <g transform="matrix(1 0 0 1 -33 -712 )">
    <path d="M 51.4 712  C 51.4 712  47.4 714.139534883721  47.4 714.139534883721  C 47.4 714.139534883721  33 735  33 735  C 33 735  47.4 755.860465116279  47.4 755.860465116279  C 47.4 755.860465116279  51.4 758  51.4 758  C 51.4 758  56 758  56 758  C 67.2 758  76 749.2  76 738  C 76 738  76 732  76 732  C 76 720.8  67.2 712  56 712  C 56 712  51.4 712  51.4 712  Z " fill-rule="nonzero" fill="#f2f2f2" stroke="none" />
  </g>
</svg>