<?xml version="1.0" encoding="utf-8"?>
<svg version="1.1" xmlns:xlink="http://www.w3.org/1999/xlink" width="25px" height="25px" xmlns="http://www.w3.org/2000/svg">
  <g transform="matrix(1 0 0 1 -379 -174 )">
    <path d="M 10.9825721153846 2.33677455357143  C 10.6119791666667 1.96940104166667  10.15625 1.78571428571428  9.61538461538462 1.78571428571428  C 9.08453525641026 1.78571428571428  8.63131009615385 1.96010044642857  8.25570913461538 2.30887276785714  C 7.88010817307692 2.65764508928572  7.69230769230769 3.07849702380952  7.69230769230769 3.57142857142857  L 7.69230769230769 10.7142857142857  L 7.69230769230769 16.0714285714286  L 5.42367788461539 13.2533482142857  C 5.01302083333333 12.7511160714286  4.47716346153846 12.5  3.81610576923077 12.5  C 3.29527243589744 12.5  2.8495592948718 12.6767113095238  2.47896634615385 13.0301339285714  C 2.1083733974359 13.383556547619  1.92307692307692 13.8020833333333  1.92307692307692 14.2857142857143  C 1.92307692307692 14.6856398809524  2.05328525641026 15.043712797619  2.31370192307692 15.3599330357143  L 8.08293269230769 22.5027901785714  C 8.46354166666667 22.9771205357143  8.97435897435897 23.2142857142857  9.61538461538462 23  L 20.4026442307692 23  C 20.6229967948718 23.2142857142857  20.8208133012821 23.1515066964286  20.99609375 23.0259486607143  C 21.1713741987179 22.900390625  21.2840544871795 22.7399553571429  21.3341346153846 22.5446428571429  L 22.7163461538462 17.4107142857143  C 22.9567307692308 16.5178571428571  23.0769230769231 15.6156994047619  23.0769230769231 14.7042410714286  L 23.0769230769231 11.6768973214286  C 23.0769230769231 11.2955729166667  22.9366987179487 10.9654017857143  22.65625 10.6863839285714  C 22.3758012820513 10.4073660714286  22.0352564102564 10.2678571428571  21.6346153846154 10.2678571428571  C 21.2339743589744 10.2678571428571  20.8934294871795 10.3980654761905  20.6129807692308 10.6584821428571  C 20.3325320512821 10.9188988095238  20.1923076923077 11.235119047619  20.1923076923077 11.6071428571429  L 19.7115384615385 11.6071428571429  L 19.7115384615385 10.7561383928571  C 19.7115384615385 10.3097098214286  19.5512820512821 9.93071056547619  19.2307692307692 9.619140625  C 18.9102564102564 9.30757068452381  18.5096153846154 9.15178571428572  18.0288461538462 9.15178571428572  C 17.568108974359 9.15178571428572  17.1724759615385 9.30524553571428  16.8419471153846 9.61216517857143  C 16.5114182692308 9.91908482142857  16.3461538461538 10.2864583333333  16.3461538461538 10.7142857142857  L 16.3461538461538 11.6071428571429  L 15.8653846153846 11.6071428571429  L 15.8653846153846 10.3515625  C 15.8653846153846 9.84002976190476  15.6800881410256 9.40057663690476  15.3094951923077 9.033203125  C 14.9389022435897 8.66582961309524  14.4831730769231 8.48214285714286  13.9423076923077 8.48214285714286  C 13.4114583333333 8.48214285714286  12.9582331730769 8.65652901785714  12.5826322115385 9.00530133928572  C 12.20703125 9.35407366071428  12.0192307692308 9.77492559523809  12.0192307692308 10.2678571428571  L 12.0192307692308 11.6071428571429  L 11.5384615384615 11.6071428571429  L 11.5384615384615 3.65513392857143  C 11.5384615384615 3.14360119047619  11.3531650641026 2.70414806547619  10.9825721153846 2.33677455357143  Z M 6.89603365384615 1.04631696428572  C 7.64723557692308 0.348772321428573  8.5536858974359 0  9.61538461538462 0  C 10.6870993589744 0  11.5960536858974 0.360398065476192  12.3422475961538 1.08119419642857  C 13.0884415064103 1.80199032738095  13.4615384615385 2.65997023809524  13.4615384615385 3.65513392857143  L 13.4615384615385 6.72433035714286  C 13.681891025641 6.70572916666667  13.8421474358974 6.69642857142857  13.9423076923077 6.69642857142857  C 14.9338942307692 6.69642857142857  15.8002804487179 7.01729910714286  16.5414663461538 7.65904017857143  C 17.0122195512821 7.46372767857143  17.5080128205128 7.36607142857143  18.0288461538462 7.36607142857143  C 19.1606570512821 7.36607142857143  20.0821314102564 7.77064732142857  20.7932692307692 8.57979910714286  C 21.0637019230769 8.51469494047619  21.3441506410256 8.48214285714286  21.6346153846154 8.48214285714286  C 22.5761217948718 8.48214285714286  23.3723958333333 8.79603794642857  24.0234375 9.423828125  C 24.6744791666667 10.0516183035714  25 10.8026413690476  25 11.6768973214286  L 25 14.7042410714286  C 25 15.7831101190476  24.8597756410256 16.8294270833333  24.5793269230769 17.8431919642857  L 23.1971153846154 22.9771205357143  C 23.036858974359 23.5723586309524  22.6963141025641 24.0583147321429  22.1754807692308 24.4349888392857  C 21.6546474358974 24.8116629464286  21.0637019230769 25  20.4026442307692 25  L 9.61538461538462 25  C 9.01442307692308 25  8.44100560897436 24.8721168154762  7.89513221153846 24.6163504464286  C 7.34925881410256 24.360584077381  6.89603365384616 24.0141369047619  6.53545673076923 23.5770089285714  L 0.766225961538461 16.4341517857143  C 0.255408653846154 15.8017113095238  0 15.0855654761905  0 14.2857142857143  C 0 13.3091517857143  0.373096955128205 12.4697730654762  1.11929086538462 11.767578125  C 1.86548477564103 11.0653831845238  2.76442307692308 10.7142857142857  3.81610576923077 10.7142857142857  C 4.52724358974359 10.7142857142857  5.17828525641026 10.8770461309524  5.76923076923077 11.2025669642857  L 5.76923076923077 3.57142857142857  C 5.76923076923077 2.58556547619047  6.14483173076923 1.74386160714286  6.89603365384615 1.04631696428572  Z M 11.0576923076923 19.6428571428571  L 11.5384615384615 19.6428571428571  L 11.5384615384615 14.2857142857143  L 11.0576923076923 14.2857142857143  L 11.0576923076923 19.6428571428571  Z M 14.9038461538462 19.6428571428571  L 15.3846153846154 19.6428571428571  L 15.3846153846154 14.2857142857143  L 14.9038461538462 14.2857142857143  L 14.9038461538462 19.6428571428571  Z M 18.75 19.6428571428571  L 19.2307692307692 19.6428571428571  L 19.2307692307692 14.2857142857143  L 18.75 14.2857142857143  L 18.75 19.6428571428571  Z " fill-rule="nonzero" fill="#555555" stroke="none" transform="matrix(1 0 0 1 379 174 )" />
  </g>
</svg>