<?xml version="1.0" encoding="utf-8"?>
<svg version="1.1" xmlns:xlink="http://www.w3.org/1999/xlink" width="15px" height="15px" xmlns="http://www.w3.org/2000/svg">
  <g transform="matrix(1 0 0 1 -1722 -1514 )">
    <path d="M 1729.5 1515  C 1733.14 1515  1736 1517.86  1736 1521.5  C 1736 1525.14  1733.14 1528  1729.5 1528  C 1725.86 1528  1723 1525.14  1723 1521.5  C 1723 1517.86  1725.86 1515  1729.5 1515  Z " fill-rule="nonzero" fill="#ffffff" stroke="none" />
    <path d="M 1729.5 1515  C 1733.14 1515  1736 1517.86  1736 1521.5  C 1736 1525.14  1733.14 1528  1729.5 1528  C 1725.86 1528  1723 1525.14  1723 1521.5  C 1723 1517.86  1725.86 1515  1729.5 1515  Z " stroke-width="2" stroke="#0079fe" fill="none" />
  </g>
</svg>