<?xml version="1.0" encoding="utf-8"?>
<svg version="1.1" xmlns:xlink="http://www.w3.org/1999/xlink" width="10px" height="10px" xmlns="http://www.w3.org/2000/svg">
  <g transform="matrix(1 0 0 1 -2178 -2601 )">
    <path d="M 2183 2602  C 2185.24 2602  2187 2603.76  2187 2606  C 2187 2608.24  2185.24 2610  2183 2610  C 2180.76 2610  2179 2608.24  2179 2606  C 2179 2603.76  2180.76 2602  2183 2602  Z " fill-rule="nonzero" fill="#ffffff" stroke="none" />
    <path d="M 2183 2602  C 2185.24 2602  2187 2603.76  2187 2606  C 2187 2608.24  2185.24 2610  2183 2610  C 2180.76 2610  2179 2608.24  2179 2606  C 2179 2603.76  2180.76 2602  2183 2602  Z " stroke-width="2" stroke="#0079fe" fill="none" />
  </g>
</svg>