<?xml version="1.0" encoding="utf-8"?>
<svg version="1.1" xmlns:xlink="http://www.w3.org/1999/xlink" width="64px" height="4px" preserveAspectRatio="xMinYMid meet" viewBox="-10 155  64 2" xmlns="http://www.w3.org/2000/svg">
  <g transform="matrix(-0.0174524064372825 -0.999847695156392 0.999847695156391 -0.0174524064372834 -133.592287502777 180.719224697657 )">
    <path d="M 17.6974256610453 133.159372515896  A 15.2397059063707 15.2397059063707 0 0 0 20.2674505525732 131.747823878807 A 5.67022816787241 5.67022816787241 0 0 0 22.5 129.332830094822 A 5.67022816787243 5.67022816787243 0 0 0 24.7325494474268 131.747823878807 A 15.2397059063707 15.2397059063707 0 0 0 27.3025743389547 133.159372515896 L 27.6974256610453 132.240627484104  A 14.2397059063707 14.2397059063707 0 0 1 25.2669890504849 130.901833291708 A 4.67022816787243 4.67022816787243 0 0 1 22.9933034021875 127.618441717831 A 0.5 0.5 0 0 0 22.5 127.2 A 0.5 0.5 0 0 0 22.0066965978125 127.618441717831 A 4.67022816787241 4.67022816787241 0 0 1 19.733010949515 130.901833291708 A 14.2397059063707 14.2397059063707 0 0 1 17.3025743389547 132.240627484104 L 17.6974256610453 133.159372515896  Z " fill-rule="nonzero" fill="#555555" stroke="none" transform="matrix(0.999893156313747 0.0146176590783993 -0.0146176590783993 0.999893156313747 2.28275879917097 -0.312229714208542 )" />
    <path d="M 22.5 127  L 22.5 185  " stroke-width="1" stroke="#555555" fill="none" transform="matrix(0.999893156313747 0.0146176590783993 -0.0146176590783993 0.999893156313747 2.28275879917097 -0.312229714208542 )" />
  </g>
</svg>