<?xml version="1.0" encoding="utf-8"?>
<svg version="1.1" xmlns:xlink="http://www.w3.org/1999/xlink" width="22px" height="22px" preserveAspectRatio="xMinYMid meet" viewBox="12 189  22 20" xmlns="http://www.w3.org/2000/svg">
  <g transform="matrix(-0.0174524064372835 -0.999847695156391 0.999847695156392 -0.0174524064372835 -175.568285988065 225.469525869616 )">
    <path d="M 17.6974256610453 203.159372515896  A 15.2397059063707 15.2397059063707 0 0 0 20.2674505525733 201.747823878807 A 5.67022816787241 5.67022816787241 0 0 0 22.5 199.332830094822 A 5.67022816787241 5.67022816787241 0 0 0 24.7325494474267 201.747823878807 A 15.2397059063707 15.2397059063707 0 0 0 27.3025743389547 203.159372515896 L 27.6974256610453 202.240627484104  A 14.2397059063707 14.2397059063707 0 0 1 25.2669890504848 200.901833291708 A 4.67022816787241 4.67022816787241 0 0 1 22.9933034021875 197.618441717831 A 0.5 0.5 0 0 0 22.5 197.2 A 0.5 0.5 0 0 0 22.0066965978125 197.618441717831 A 4.67022816787241 4.67022816787241 0 0 1 19.7330109495152 200.901833291708 A 14.2397059063707 14.2397059063707 0 0 1 17.3025743389547 202.240627484104 L 17.6974256610453 203.159372515896  Z " fill-rule="nonzero" fill="#333333" stroke="none" transform="matrix(0.999877048258974 0.0156808279411984 -0.0156808279411984 0.999877048258974 3.85240967373729 -0.322633976255077 )" />
    <path d="M 22.5 197  L 22.5 294  " stroke-width="1" stroke="#333333" fill="none" transform="matrix(0.999877048258974 0.0156808279411984 -0.0156808279411984 0.999877048258974 3.85240967373729 -0.322633976255077 )" />
  </g>
</svg>