<?xml version="1.0" encoding="utf-8"?>
<svg version="1.1" xmlns:xlink="http://www.w3.org/1999/xlink" width="84px" height="4px" preserveAspectRatio="xMinYMid meet" viewBox="-18 175  84 2" xmlns="http://www.w3.org/2000/svg">
  <g transform="matrix(-0.017452406437279 -0.999847695156392 0.999847695156391 -0.0174524064372834 -151.55433659303 203.067968216715 )">
    <path d="M 18.6974256610453 143.159372515896  A 15.2397059063707 15.2397059063707 0 0 0 21.2674505525733 141.747823878807 A 5.67022816787241 5.67022816787241 0 0 0 23.5 139.332830094822 A 5.67022816787241 5.67022816787241 0 0 0 25.7325494474267 141.747823878807 A 15.2397059063707 15.2397059063707 0 0 0 28.3025743389547 143.159372515896 L 28.6974256610453 142.240627484104  A 14.2397059063707 14.2397059063707 0 0 1 26.2669890504848 140.901833291708 A 4.67022816787241 4.67022816787241 0 0 1 23.9933034021875 137.618441717831 A 0.5 0.5 0 0 0 23.5 137.2 A 0.5 0.5 0 0 0 23.0066965978125 137.618441717831 A 4.67022816787241 4.67022816787241 0 0 1 20.7330109495152 140.901833291708 A 14.2397059063707 14.2397059063707 0 0 1 18.3025743389547 142.240627484104 L 18.6974256610453 143.159372515896  Z " fill-rule="nonzero" fill="#555555" stroke="none" transform="matrix(0.999896574934909 0.0143819134136344 -0.0143819134136344 0.999896574934909 2.53364724982929 -0.319772153764461 )" />
    <path d="M 23.5 137  L 23.5 215  " stroke-width="1" stroke="#555555" fill="none" transform="matrix(0.999896574934909 0.0143819134136344 -0.0143819134136344 0.999896574934909 2.53364724982929 -0.319772153764461 )" />
  </g>
</svg>