<?xml version="1.0" encoding="utf-8"?>
<svg version="1.1" xmlns:xlink="http://www.w3.org/1999/xlink" width="12px" height="12px" viewBox="18 123  12 12" xmlns="http://www.w3.org/2000/svg">
  <path d="M 18.5 128  A 4.5 4.5 0 0 1 23 123.5 L 25 123.5  A 4.5 4.5 0 0 1 29.5 128 L 29.5 130  A 4.5 4.5 0 0 1 25 134.5 L 23 134.5  A 4.5 4.5 0 0 1 18.5 130 L 18.5 128  Z " fill-rule="nonzero" fill="#f0f0f0" stroke="none" />
  <path d="M 18.5 128  A 4.5 4.5 0 0 1 23 123.5 L 25 123.5  A 4.5 4.5 0 0 1 29.5 128 L 29.5 130  A 4.5 4.5 0 0 1 25 134.5 L 23 134.5  A 4.5 4.5 0 0 1 18.5 130 L 18.5 128  Z " stroke-width="1" stroke="#555555" fill="none" />
</svg>