<?xml version="1.0" encoding="utf-8"?>
<svg version="1.1" xmlns:xlink="http://www.w3.org/1999/xlink" width="4px" height="4px" preserveAspectRatio="xMinYMid meet" viewBox="20 283  4 2" xmlns="http://www.w3.org/2000/svg">
  <path d="M 17.6974256610453 232.159372515896  A 15.2397059063707 15.2397059063707 0 0 0 20.2674505525733 230.747823878807 A 5.67022816787241 5.67022816787241 0 0 0 22.5 228.332830094822 A 5.67022816787241 5.67022816787241 0 0 0 24.7325494474267 230.747823878807 A 15.2397059063707 15.2397059063707 0 0 0 27.3025743389547 232.159372515896 L 27.6974256610453 231.240627484104  A 14.2397059063707 14.2397059063707 0 0 1 25.2669890504848 229.901833291708 A 4.67022816787241 4.67022816787241 0 0 1 22.9933034021875 226.618441717831 A 0.5 0.5 0 0 0 22.5 226.2 A 0.5 0.5 0 0 0 22.0066965978125 226.618441717831 A 4.67022816787241 4.67022816787241 0 0 1 19.7330109495152 229.901833291708 A 14.2397059063707 14.2397059063707 0 0 1 17.3025743389547 231.240627484104 L 17.6974256610453 232.159372515896  Z " fill-rule="nonzero" fill="#555555" stroke="none" transform="matrix(0.999893156313747 0.0146176590783993 -0.0146176590783993 0.999893156313747 3.7299070479325 -0.301652189269504 )" />
  <path d="M 22.5 226  L 22.5 284  " stroke-width="1" stroke="#555555" fill="none" transform="matrix(0.999893156313747 0.0146176590783993 -0.0146176590783993 0.999893156313747 3.7299070479325 -0.301652189269504 )" />
</svg>