<?xml version="1.0" encoding="utf-8"?>
<svg version="1.1" xmlns:xlink="http://www.w3.org/1999/xlink" width="51px" height="52px" xmlns="http://www.w3.org/2000/svg">
  <g transform="matrix(1 0 0 1 -700 -212 )">
    <path d="M 25.5 51.5  C 39.5805586592178 51.5  51 40.0805586592178  51 26  C 51 11.9194413407822  39.5805586592178 0.5  25.5 0.5  C 11.4194413407822 0.5  0 11.9194413407822  0 26  C 0 40.0805586592178  11.4194413407822 51.5  25.5 51.5  Z M 40.0110030338219 18.8255632705116  C 40.6620440296333 18.1793963440555  40.6620440296333 17.1364602522319  40.0167139197501 16.484625194842  C 39.3656729239387 15.8384582683859  38.309159027227 15.8384582683859  37.6581180314156 16.484625194842  C 37.6581180314156 16.484625194842  22.0217123600842 32.0039676916538  22.0217123600842 32.0039676916538  C 22.0217123600842 32.0039676916538  13.346876635193 23.3940768031741  13.346876635193 23.3940768031741  C 12.6958356393816 22.7479098767183  11.6393217426698 22.7479098767183  10.9882807468584 23.3940768031741  C 10.337239751047 24.0402437296302  10.337239751047 25.0888479523876  10.9882807468584 25.7350148788437  C 10.9882807468584 25.7350148788437  20.8452698588812 35.5125407396911  20.8452698588812 35.5125407396911  C 21.1536576990025 35.8242879410514  21.5819741436153 36  22.0217123600842 36  C 22.4614505765535 36  22.8840561352381 35.8242879410514  23.1981548612875 35.5125407396911  C 23.1981548612875 35.5125407396911  40.0110030338219 18.8255632705116  40.0110030338219 18.8255632705116  Z " fill-rule="nonzero" fill="#1f8beb" stroke="none" transform="matrix(1 0 0 1 700 212 )" />
  </g>
</svg>