<?xml version="1.0" encoding="utf-8"?>
<svg version="1.1" xmlns:xlink="http://www.w3.org/1999/xlink" width="15px" height="19px" xmlns="http://www.w3.org/2000/svg">
  <g transform="matrix(1 0 0 1 -456 -627 )">
    <path d="M 463.5 627  C 467.7 627  471 631.18  471 636.5  C 471 641.82  467.7 646  463.5 646  C 459.3 646  456 641.82  456 636.5  C 456 631.18  459.3 627  463.5 627  Z " fill-rule="nonzero" fill="#facd91" stroke="none" />
    <path d="M 463.5 627.5  C 467.42 627.5  470.5 631.46  470.5 636.5  C 470.5 641.54  467.42 645.5  463.5 645.5  C 459.58 645.5  456.5 641.54  456.5 636.5  C 456.5 631.46  459.58 627.5  463.5 627.5  Z " stroke-width="1" stroke="#797979" fill="none" />
  </g>
</svg>