<?xml version="1.0" encoding="utf-8"?>
<svg version="1.1" xmlns:xlink="http://www.w3.org/1999/xlink" width="30px" height="30px" xmlns="http://www.w3.org/2000/svg">
  <g transform="matrix(1 0 0 1 -931 -818 )">
    <path d="M 946 819  C 953.84 819  960 825.16  960 833  C 960 840.84  953.84 847  946 847  C 938.16 847  932 840.84  932 833  C 932 825.16  938.16 819  946 819  Z " fill-rule="nonzero" fill="#0079fe" stroke="none" />
    <path d="M 946 819  C 953.84 819  960 825.16  960 833  C 960 840.84  953.84 847  946 847  C 938.16 847  932 840.84  932 833  C 932 825.16  938.16 819  946 819  Z " stroke-width="2" stroke="#0079fe" fill="none" />
  </g>
</svg>