<?xml version="1.0" encoding="utf-8"?>
<svg version="1.1" xmlns:xlink="http://www.w3.org/1999/xlink" width="20px" height="17px" xmlns="http://www.w3.org/2000/svg">
  <g transform="matrix(1 0 0 1 -110 -193 )">
    <path d="M 16.6666666601563 7.79180833886719  C 16.6666666601563 11.3072666777343  13.3025 14.1668083388672  9.16666666015633 14.1668083388672  C 5.03083332031237 14.1668083388672  1.66666666015633 11.3072666777343  1.66666666015633 7.79180833886719  C 1.66666666015633 4.27635000000004  5.03083332031237 1.41680833886719  9.16666666015633 1.41680833886719  C 13.3025 1.41680833886719  16.6666666601563 4.27635000000004  16.6666666601563 7.79180833886719  Z M 19.7566666601563 16.7933083388673  C 20.0807942259514 16.5162859026588  20.0807942259514 16.0687474362084  19.7566666601563 15.791725  L 16.2099999999999 12.77635  C 17.5349999999999 11.4255583388672  18.3333333398437 9.68801666113283  18.3333333398437 7.79180833886719  C 18.3333333398437 3.48868333886722  14.2291666796874 0.000141677734316343  9.16666666015633 0.000141661132842172  C 4.10416664062495 0.000141644531260631  0 3.48868332226563  0 7.79180833886719  C 0 12.0949333554688  4.10416666015623 15.583475  9.16666666015633 15.583475  C 11.3975 15.583475  13.4416666601563 14.9048916611328  15.0308333398436 13.7786416611329  L 18.5783333398437 16.7933083388673  C 18.9042420860485 17.0688167587859  19.4307579139514 17.0688167587859  19.7566666601563 16.7933083388673  Z " fill-rule="nonzero" fill="#999999" stroke="none" transform="matrix(1 0 0 1 110 193 )" />
  </g>
</svg>