<?xml version="1.0" encoding="utf-8"?>
<svg version="1.1" xmlns:xlink="http://www.w3.org/1999/xlink" width="90px" height="30px" xmlns="http://www.w3.org/2000/svg">
  <g transform="matrix(1 0 0 1 -416 -183 )">
    <path d="M 417 198  A 14 14 0 0 1 431 184 L 491 184  A 14 14 0 0 1 505 198 A 14 14 0 0 1 491 212 L 431 212  A 14 14 0 0 1 417 198 Z " fill-rule="nonzero" fill="#ffffff" stroke="none" />
    <path d="M 416.5 198  A 14.5 14.5 0 0 1 431 183.5 L 491 183.5  A 14.5 14.5 0 0 1 505.5 198 A 14.5 14.5 0 0 1 491 212.5 L 431 212.5  A 14.5 14.5 0 0 1 416.5 198 Z " stroke-width="1" stroke="#e4e4e4" fill="none" stroke-opacity="0.498039215686275" />
  </g>
</svg>