<?xml version="1.0" encoding="utf-8"?>
<svg version="1.1" xmlns:xlink="http://www.w3.org/1999/xlink" width="305px" height="50px" xmlns="http://www.w3.org/2000/svg">
  <g transform="matrix(1 0 0 1 -559 -570 )">
    <path d="M 559.5 595  A 24.5 24.5 0 0 1 584 570.5 L 839 570.5  A 24.5 24.5 0 0 1 863.5 595 A 24.5 24.5 0 0 1 839 619.5 L 584 619.5  A 24.5 24.5 0 0 1 559.5 595 Z " fill-rule="nonzero" fill="#ffffff" stroke="none" />
    <path d="M 559.5 595  A 24.5 24.5 0 0 1 584 570.5 L 839 570.5  A 24.5 24.5 0 0 1 863.5 595 A 24.5 24.5 0 0 1 839 619.5 L 584 619.5  A 24.5 24.5 0 0 1 559.5 595 Z " stroke-width="1" stroke="#0066ff" fill="none" />
  </g>
</svg>