<?xml version="1.0" encoding="utf-8"?>
<svg version="1.1" xmlns:xlink="http://www.w3.org/1999/xlink" width="21px" height="16px" xmlns="http://www.w3.org/2000/svg">
  <defs>
    <mask fill="white" id="clip276">
      <path d="M 0.5 14.5  L 0.499999218423909 10.7736133725375  C 1.73378801195122 10.5504521140535  2.67391304347802 9.39359230447076  2.67391304347802 8  C 2.67391304347802 6.60640769552924  1.73378801195122 5.44954788594646  0.5 5.22638231656651  L 0.5 1.5  C 0.5 0.940000000000055  0.9399999999996 0.5  1.5 0.5  L 19.5 0.5  C 20.0600000000004 0.5  20.5 0.940000000000055  20.5 1.5  L 20.5000007815761 5.22638662746249  C 19.2662119880488 5.44954788594646  18.326086956522 6.60640769552924  18.326086956522 8  C 18.326086956522 9.39359230447076  19.2662119880488 10.5504521140535  20.5 10.7736176834335  L 20.5 14.5  C 20.5 15.0599999999999  20.0600000000004 15.5  19.5 15.5  L 1.5 15.5  C 0.9399999999996 15.5  0.5 15.0599999999999  0.5 14.5  Z " fill-rule="evenodd" />
    </mask>
  </defs>
  <g transform="matrix(1 0 0 1 -13 -564 )">
    <path d="M 0.5 14.5  L 0.499999218423909 10.7736133725375  C 1.73378801195122 10.5504521140535  2.67391304347802 9.39359230447076  2.67391304347802 8  C 2.67391304347802 6.60640769552924  1.73378801195122 5.44954788594646  0.5 5.22638231656651  L 0.5 1.5  C 0.5 0.940000000000055  0.9399999999996 0.5  1.5 0.5  L 19.5 0.5  C 20.0600000000004 0.5  20.5 0.940000000000055  20.5 1.5  L 20.5000007815761 5.22638662746249  C 19.2662119880488 5.44954788594646  18.326086956522 6.60640769552924  18.326086956522 8  C 18.326086956522 9.39359230447076  19.2662119880488 10.5504521140535  20.5 10.7736176834335  L 20.5 14.5  C 20.5 15.0599999999999  20.0600000000004 15.5  19.5 15.5  L 1.5 15.5  C 0.9399999999996 15.5  0.5 15.0599999999999  0.5 14.5  Z " fill-rule="nonzero" fill="#ffffff" stroke="none" transform="matrix(1 0 0 1 13 564 )" />
    <path d="M 0.5 14.5  L 0.499999218423909 10.7736133725375  C 1.73378801195122 10.5504521140535  2.67391304347802 9.39359230447076  2.67391304347802 8  C 2.67391304347802 6.60640769552924  1.73378801195122 5.44954788594646  0.5 5.22638231656651  L 0.5 1.5  C 0.5 0.940000000000055  0.9399999999996 0.5  1.5 0.5  L 19.5 0.5  C 20.0600000000004 0.5  20.5 0.940000000000055  20.5 1.5  L 20.5000007815761 5.22638662746249  C 19.2662119880488 5.44954788594646  18.326086956522 6.60640769552924  18.326086956522 8  C 18.326086956522 9.39359230447076  19.2662119880488 10.5504521140535  20.5 10.7736176834335  L 20.5 14.5  C 20.5 15.0599999999999  20.0600000000004 15.5  19.5 15.5  L 1.5 15.5  C 0.9399999999996 15.5  0.5 15.0599999999999  0.5 14.5  Z " stroke-width="2" stroke="#c5c5c5" fill="none" transform="matrix(1 0 0 1 13 564 )" mask="url(#clip276)" />
  </g>
</svg>