<?xml version="1.0" encoding="utf-8"?>
<svg version="1.1" xmlns:xlink="http://www.w3.org/1999/xlink" width="20px" height="21px" xmlns="http://www.w3.org/2000/svg">
  <defs>
    <mask fill="white" id="clip259">
      <path d="M 17.8997085710689 4.57007294733785  C 17.9925163361004 4.66288071236852  17.9876549769797 4.81358284510895  17.8886600276137 4.91257779447506  L 15.761400686145 7.03984079500935  C 16.1647751316277 7.66081047166006  16.4675719355309 8.35314204715178  16.6467045852032 9.09375  L 19.75 9.09375  C 19.8900000000003 9.09375  20 9.19687499999998  20 9.328125  L 20 11.671875  C 20 11.803125  19.8900000000003 11.90625  19.75 11.90625  L 16.7183045572092 11.9062481273791  C 16.5419245541161 12.8442469610079  16.169085153997 13.712925288939  15.6441536449629 14.4679158228751  L 17.8886600276128 16.7124222055249  C 17.9876549769788 16.811417154891  17.9925163360995 16.9621192876315  17.899708571068 17.0549270526622  L 16.2424270526626 18.7122085710675  C 16.1496192876311 18.8050163360982  15.9989171548914 18.8001549769775  15.8999222055254 18.7011600276114  L 13.5882494920106 16.3894930126878  C 12.9267034897039 16.785872067923  12.1907195092517 17.070793370009  11.40625 17.2183024113181  L 11.40625 20.25  C 11.40625 20.39  11.3031250000004 20.5  11.171875 20.5  L 8.828125 20.5  C 8.69687499999964 20.5  8.59375 20.39  8.59375 20.25  L 8.59374663391736 17.1467046158866  C 7.85313918773136 16.9675708573418  7.16080793595847 16.664773834405  6.53983857603453 16.2613992460535  L 4.10007779447551 18.7011600276123  C 4.00108284510952 18.8001549769784  3.85038071236977 18.8050163360991  3.7575729473383 18.7122085710685  L 2.10029142893291 17.0549270526631  C 2.00748366390144 16.9621192876324  2.01234502302214 16.811417154892  2.11133997238812 16.7124222055259  L 4.55557517619764 14.2681863748758  C 4.10082335096195 13.561157339714  3.77605481607861 12.7625921200686  3.61503097734294 11.90625  L 0.25 11.90625  C 0.109999999999673 11.90625  0 11.803125  0 11.671875  L 0 9.328125  C 0 9.19687499999998  0.109999999999673 9.09375  0.25 9.09375  L 3.68662642582603 9.09375610838526  C 3.84626529905199 8.43374371879202  4.10411708635638 7.81207199822734  4.44384246176378 7.24508028385094  L 2.11133997238721 4.91257779447415  C 2.01234502302123 4.81358284510804  2.00748366390053 4.66288071236761  2.100291428932 4.57007294733694  L 3.75757294733739 2.91279142893154  C 3.85038071236886 2.81998366390087  4.00108284510861 2.82484502302157  4.1000777944746 2.92383997238767  L 6.3654079801463 5.18918631447514  C 7.03014988838368 4.7270013595604  7.78302483829339 4.38272089762279  8.59375 4.18662873908625  L 8.59375 0.75  C 8.59375 0.610000000000014  8.69687499999964 0.5  8.828125 0.5  L 11.171875 0.5  C 11.3031250000004 0.5  11.40625 0.610000000000014  11.40625 0.75  L 11.4062825967058 4.11503525778312  C 12.2626123302925 4.27606300172772  13.0611665055894 4.60082917840157  13.7681867564115 5.05557542150325  L 15.8999222055263 2.92383997238858  C 15.9989171548923 2.82484502302248  16.149619287632 2.81998366390178  16.2424270526635 2.91279142893245  L 17.8997085710689 4.57007294733785  Z M 10 7  C 8.06700337569964 7  6.5 8.56700337569998  6.5 10.5  C 6.5 12.4329966243  8.06700337569964 14  10 14  C 11.9329966243004 14  13.5 12.4329966243  13.5 10.5  C 13.5 8.56700337569998  11.9329966243004 7  10 7  Z " fill-rule="evenodd" />
    </mask>
  </defs>
  <g transform="matrix(1 0 0 1 -14 -12 )">
    <path d="M 17.8997085710689 4.57007294733785  C 17.9925163361004 4.66288071236852  17.9876549769797 4.81358284510895  17.8886600276137 4.91257779447506  L 15.761400686145 7.03984079500935  C 16.1647751316277 7.66081047166006  16.4675719355309 8.35314204715178  16.6467045852032 9.09375  L 19.75 9.09375  C 19.8900000000003 9.09375  20 9.19687499999998  20 9.328125  L 20 11.671875  C 20 11.803125  19.8900000000003 11.90625  19.75 11.90625  L 16.7183045572092 11.9062481273791  C 16.5419245541161 12.8442469610079  16.169085153997 13.712925288939  15.6441536449629 14.4679158228751  L 17.8886600276128 16.7124222055249  C 17.9876549769788 16.811417154891  17.9925163360995 16.9621192876315  17.899708571068 17.0549270526622  L 16.2424270526626 18.7122085710675  C 16.1496192876311 18.8050163360982  15.9989171548914 18.8001549769775  15.8999222055254 18.7011600276114  L 13.5882494920106 16.3894930126878  C 12.9267034897039 16.785872067923  12.1907195092517 17.070793370009  11.40625 17.2183024113181  L 11.40625 20.25  C 11.40625 20.39  11.3031250000004 20.5  11.171875 20.5  L 8.828125 20.5  C 8.69687499999964 20.5  8.59375 20.39  8.59375 20.25  L 8.59374663391736 17.1467046158866  C 7.85313918773136 16.9675708573418  7.16080793595847 16.664773834405  6.53983857603453 16.2613992460535  L 4.10007779447551 18.7011600276123  C 4.00108284510952 18.8001549769784  3.85038071236977 18.8050163360991  3.7575729473383 18.7122085710685  L 2.10029142893291 17.0549270526631  C 2.00748366390144 16.9621192876324  2.01234502302214 16.811417154892  2.11133997238812 16.7124222055259  L 4.55557517619764 14.2681863748758  C 4.10082335096195 13.561157339714  3.77605481607861 12.7625921200686  3.61503097734294 11.90625  L 0.25 11.90625  C 0.109999999999673 11.90625  0 11.803125  0 11.671875  L 0 9.328125  C 0 9.19687499999998  0.109999999999673 9.09375  0.25 9.09375  L 3.68662642582603 9.09375610838526  C 3.84626529905199 8.43374371879202  4.10411708635638 7.81207199822734  4.44384246176378 7.24508028385094  L 2.11133997238721 4.91257779447415  C 2.01234502302123 4.81358284510804  2.00748366390053 4.66288071236761  2.100291428932 4.57007294733694  L 3.75757294733739 2.91279142893154  C 3.85038071236886 2.81998366390087  4.00108284510861 2.82484502302157  4.1000777944746 2.92383997238767  L 6.3654079801463 5.18918631447514  C 7.03014988838368 4.7270013595604  7.78302483829339 4.38272089762279  8.59375 4.18662873908625  L 8.59375 0.75  C 8.59375 0.610000000000014  8.69687499999964 0.5  8.828125 0.5  L 11.171875 0.5  C 11.3031250000004 0.5  11.40625 0.610000000000014  11.40625 0.75  L 11.4062825967058 4.11503525778312  C 12.2626123302925 4.27606300172772  13.0611665055894 4.60082917840157  13.7681867564115 5.05557542150325  L 15.8999222055263 2.92383997238858  C 15.9989171548923 2.82484502302248  16.149619287632 2.81998366390178  16.2424270526635 2.91279142893245  L 17.8997085710689 4.57007294733785  Z M 10 7  C 8.06700337569964 7  6.5 8.56700337569998  6.5 10.5  C 6.5 12.4329966243  8.06700337569964 14  10 14  C 11.9329966243004 14  13.5 12.4329966243  13.5 10.5  C 13.5 8.56700337569998  11.9329966243004 7  10 7  Z " fill-rule="nonzero" fill="#ffffff" stroke="none" fill-opacity="0" transform="matrix(1 0 0 1 14 12 )" />
    <path d="M 17.8997085710689 4.57007294733785  C 17.9925163361004 4.66288071236852  17.9876549769797 4.81358284510895  17.8886600276137 4.91257779447506  L 15.761400686145 7.03984079500935  C 16.1647751316277 7.66081047166006  16.4675719355309 8.35314204715178  16.6467045852032 9.09375  L 19.75 9.09375  C 19.8900000000003 9.09375  20 9.19687499999998  20 9.328125  L 20 11.671875  C 20 11.803125  19.8900000000003 11.90625  19.75 11.90625  L 16.7183045572092 11.9062481273791  C 16.5419245541161 12.8442469610079  16.169085153997 13.712925288939  15.6441536449629 14.4679158228751  L 17.8886600276128 16.7124222055249  C 17.9876549769788 16.811417154891  17.9925163360995 16.9621192876315  17.899708571068 17.0549270526622  L 16.2424270526626 18.7122085710675  C 16.1496192876311 18.8050163360982  15.9989171548914 18.8001549769775  15.8999222055254 18.7011600276114  L 13.5882494920106 16.3894930126878  C 12.9267034897039 16.785872067923  12.1907195092517 17.070793370009  11.40625 17.2183024113181  L 11.40625 20.25  C 11.40625 20.39  11.3031250000004 20.5  11.171875 20.5  L 8.828125 20.5  C 8.69687499999964 20.5  8.59375 20.39  8.59375 20.25  L 8.59374663391736 17.1467046158866  C 7.85313918773136 16.9675708573418  7.16080793595847 16.664773834405  6.53983857603453 16.2613992460535  L 4.10007779447551 18.7011600276123  C 4.00108284510952 18.8001549769784  3.85038071236977 18.8050163360991  3.7575729473383 18.7122085710685  L 2.10029142893291 17.0549270526631  C 2.00748366390144 16.9621192876324  2.01234502302214 16.811417154892  2.11133997238812 16.7124222055259  L 4.55557517619764 14.2681863748758  C 4.10082335096195 13.561157339714  3.77605481607861 12.7625921200686  3.61503097734294 11.90625  L 0.25 11.90625  C 0.109999999999673 11.90625  0 11.803125  0 11.671875  L 0 9.328125  C 0 9.19687499999998  0.109999999999673 9.09375  0.25 9.09375  L 3.68662642582603 9.09375610838526  C 3.84626529905199 8.43374371879202  4.10411708635638 7.81207199822734  4.44384246176378 7.24508028385094  L 2.11133997238721 4.91257779447415  C 2.01234502302123 4.81358284510804  2.00748366390053 4.66288071236761  2.100291428932 4.57007294733694  L 3.75757294733739 2.91279142893154  C 3.85038071236886 2.81998366390087  4.00108284510861 2.82484502302157  4.1000777944746 2.92383997238767  L 6.3654079801463 5.18918631447514  C 7.03014988838368 4.7270013595604  7.78302483829339 4.38272089762279  8.59375 4.18662873908625  L 8.59375 0.75  C 8.59375 0.610000000000014  8.69687499999964 0.5  8.828125 0.5  L 11.171875 0.5  C 11.3031250000004 0.5  11.40625 0.610000000000014  11.40625 0.75  L 11.4062825967058 4.11503525778312  C 12.2626123302925 4.27606300172772  13.0611665055894 4.60082917840157  13.7681867564115 5.05557542150325  L 15.8999222055263 2.92383997238858  C 15.9989171548923 2.82484502302248  16.149619287632 2.81998366390178  16.2424270526635 2.91279142893245  L 17.8997085710689 4.57007294733785  Z " stroke-width="2" stroke="#ffffff" fill="none" transform="matrix(1 0 0 1 14 12 )" mask="url(#clip259)" />
    <path d="M 10 7  C 8.06700337569964 7  6.5 8.56700337569998  6.5 10.5  C 6.5 12.4329966243  8.06700337569964 14  10 14  C 11.9329966243004 14  13.5 12.4329966243  13.5 10.5  C 13.5 8.56700337569998  11.9329966243004 7  10 7  Z " stroke-width="2" stroke="#ffffff" fill="none" transform="matrix(1 0 0 1 14 12 )" mask="url(#clip259)" />
  </g>
</svg>