<?xml version="1.0" encoding="utf-8"?>
<svg version="1.1" xmlns:xlink="http://www.w3.org/1999/xlink" width="22px" height="18px" xmlns="http://www.w3.org/2000/svg">
  <g transform="matrix(1 0 0 1 -136 -862 )">
    <path d="M 20 0  C 21.1199999999999 0  22 0.880000000000109  22 2  L 21.9999999997426 6  L 15 6  C 13.3199999999997 6  12 7.31999999999994  12 9  C 12 10.6800000000001  13.3199999999997 12  15 12  L 22 12.0000041620881  L 22 16  C 22 17.1199999999999  21.1199999999999 18  20 18  L 2 18  C 0.880000000000109 18  0 17.1199999999999  0 16  L 0 2  C 0 0.880000000000109  0.880000000000109 0  2 0  L 20 0  Z M 17.187628237858 7.51399810177281  C 16.3592011131577 7.51399810177281  15.687628237858 8.18557097707276  15.687628237858 9.01399810177281  C 15.687628237858 9.84242522647287  16.3592011131577 10.5139981017728  17.187628237858 10.5139981017728  C 18.0160553625583 10.5139981017728  18.687628237858 9.84242522647287  18.687628237858 9.01399810177281  C 18.687628237858 8.18557097707276  18.0160553625583 7.51399810177281  17.187628237858 7.51399810177281  Z " fill-rule="nonzero" fill="#d8d8d8" stroke="none" transform="matrix(1 0 0 1 136 862 )" />
  </g>
</svg>