<?xml version="1.0" encoding="utf-8"?>
<svg version="1.1" xmlns:xlink="http://www.w3.org/1999/xlink" width="18px" height="23px" xmlns="http://www.w3.org/2000/svg">
  <defs>
    <mask fill="white" id="clip274">
      <path d="M 8.91949585496968 22.4667057823362  L 15.5681144128484 13.7921091442381  C 16.7752321692824 12.3353647884048  17.5 10.4699943275434  17.5 8.43660773487863  C 17.5 3.77719794286054  13.6944203733001 0  9 0  C 4.30557962669991 0  0.5 3.77719794286054  0.5 8.43660773487863  C 0.5 10.5553894236677  1.28692151474024 12.4917464747512  2.56511655123722 13.9737624586858  L 8.91949585496968 22.4667057823362  Z " fill-rule="evenodd" />
    </mask>
  </defs>
  <g transform="matrix(1 0 0 1 -14 -517 )">
    <path d="M 8.91949585496968 22.4667057823362  L 15.5681144128484 13.7921091442381  C 16.7752321692824 12.3353647884048  17.5 10.4699943275434  17.5 8.43660773487863  C 17.5 3.77719794286054  13.6944203733001 0  9 0  C 4.30557962669991 0  0.5 3.77719794286054  0.5 8.43660773487863  C 0.5 10.5553894236677  1.28692151474024 12.4917464747512  2.56511655123722 13.9737624586858  L 8.91949585496968 22.4667057823362  Z " fill-rule="nonzero" fill="#ffffff" stroke="none" transform="matrix(1 0 0 1 14 517 )" />
    <path d="M 8.91949585496968 22.4667057823362  L 15.5681144128484 13.7921091442381  C 16.7752321692824 12.3353647884048  17.5 10.4699943275434  17.5 8.43660773487863  C 17.5 3.77719794286054  13.6944203733001 0  9 0  C 4.30557962669991 0  0.5 3.77719794286054  0.5 8.43660773487863  C 0.5 10.5553894236677  1.28692151474024 12.4917464747512  2.56511655123722 13.9737624586858  L 8.91949585496968 22.4667057823362  Z " stroke-width="2" stroke="#c5c5c5" fill="none" transform="matrix(1 0 0 1 14 517 )" mask="url(#clip274)" />
  </g>
</svg>