<?xml version="1.0" encoding="utf-8"?>
<svg version="1.1" xmlns:xlink="http://www.w3.org/1999/xlink" width="9px" height="12px" xmlns="http://www.w3.org/2000/svg">
  <g transform="matrix(1 0 0 1 -335 -460 )">
    <path d="M 0 0.682809502167358  C 0 0.30570422708077  0.32594858644341 0  0.728026544372172 0  C 0.728026544372172 0  8.27197345562783 0  8.27197345562783 0  C 8.67405141355659 0  9 0.30570422708077  9 0.682809502167358  C 9 0.682809502167358  9 11.3171904978326  9 11.3171904978326  C 9 11.6942957729192  8.67405141355659 12  8.27197345562783 12  C 8.27197345562783 12  0.728026544372172 12  0.728026544372172 12  C 0.32594858644341 12  0 11.6942957729192  0 11.3171904978326  C 0 11.3171904978326  0 0.682809502167358  0 0.682809502167358  Z " fill-rule="nonzero" fill="#ef232b" stroke="none" transform="matrix(1 0 0 1 335 460 )" />
  </g>
</svg>