<?xml version="1.0" encoding="utf-8"?>
<svg version="1.1" xmlns:xlink="http://www.w3.org/1999/xlink" width="12px" height="17px" xmlns="http://www.w3.org/2000/svg">
  <g transform="matrix(1 0 0 1 -241 -475 )">
    <path d="M 0 0.967313461403757  C 0 0.433080988364424  0.43459811525788 0  0.970702059162896 0  C 0.970702059162896 0  11.0292979408371 0  11.0292979408371 0  C 11.5654018847421 0  12 0.433080988364424  12 0.967313461403757  C 12 0.967313461403757  12 16.0326865385962  12 16.0326865385962  C 12 16.5669190116356  11.5654018847421 17  11.0292979408371 17  C 11.0292979408371 17  0.970702059162896 17  0.970702059162896 17  C 0.43459811525788 17  0 16.5669190116356  0 16.0326865385962  C 0 16.0326865385962  0 0.967313461403757  0 0.967313461403757  Z " fill-rule="nonzero" fill="#ef232b" stroke="none" transform="matrix(1 0 0 1 241 475 )" />
  </g>
</svg>