<?xml version="1.0" encoding="utf-8"?>
<svg version="1.1" xmlns:xlink="http://www.w3.org/1999/xlink" width="12px" height="12px" xmlns="http://www.w3.org/2000/svg">
  <defs>
    <mask fill="white" id="clip277">
      <path d="M 0 6  C 0 9.3137084988  2.6862915012 12  6.00000000000001 12  C 9.31370849880001 12  12 9.3137084988  12 6  C 12 2.6862915012  9.31370849880001 0  6.00000000000001 0  C 2.6862915012 0  0 2.6862915012  0 6  Z " fill-rule="evenodd" />
    </mask>
  </defs>
  <g transform="matrix(1 0 0 1 -18 -374 )">
    <path d="M 0 6  C 0 9.3137084988  2.6862915012 12  6.00000000000001 12  C 9.31370849880001 12  12 9.3137084988  12 6  C 12 2.6862915012  9.31370849880001 0  6.00000000000001 0  C 2.6862915012 0  0 2.6862915012  0 6  Z " fill-rule="nonzero" fill="#ffffff" stroke="none" transform="matrix(1 0 0 1 18 374 )" />
    <path d="M 0 6  C 0 9.3137084988  2.6862915012 12  6.00000000000001 12  C 9.31370849880001 12  12 9.3137084988  12 6  C 12 2.6862915012  9.31370849880001 0  6.00000000000001 0  C 2.6862915012 0  0 2.6862915012  0 6  Z " stroke-width="2" stroke="#c5c5c5" fill="none" transform="matrix(1 0 0 1 18 374 )" mask="url(#clip277)" />
  </g>
</svg>