<?xml version="1.0" encoding="utf-8"?>
<svg version="1.1" xmlns:xlink="http://www.w3.org/1999/xlink" width="25px" height="8px" xmlns="http://www.w3.org/2000/svg">
  <g transform="matrix(1 0 0 1 -1 -15 )">
    <path d="M 2.03603388878034 7.34272116583094  C 3.04764029065254 7.34272116583094  3.86833077844591 6.53538495774625  3.86833077844591 5.54023942028837  C 3.86833077844591 5.05974022695699  3.67245600945595 4.62314451321935  3.36004815005425 4.29874658066568  C 3.14433796141973 5.39877265270858  2.22199094794802 6.35245379277237  0.900456114129689 6.94515076728772  C 1.2128639735314 7.19149806945254  1.60461351151132 7.34272116583094  2.03603388878034 7.34272116583094  Z M 22.8706627979276 7.34272116583095  C 23.8822691997998 7.34272116583095  24.7004802601376 6.5378240399459  24.7004802601376 5.54267850248803  C 24.6980008326821 5.06461839135631  24.5070849186032 4.63533992421761  24.1996359141127 4.3133810738636  C 23.9492137411002 5.39877265270858  23.011990162895 6.33050205297551  21.6879759016211 6.9061254520933  C 22.0078220433895 7.17442449405499  22.4169275735584 7.34272116583095  22.8706627979276 7.34272116583095  Z M 12.4521086296262 5.09876554215142  C 13.9472033853344 5.09876554215142  15.1596434111077 3.90605434652176  15.1596434111077 2.43528778013181  C 15.1571639836521 1.68892862703841  14.8422766967948 1.0133028577349  14.3364734958587 0.530364582203873  C 14.3935003273368 0.691344007380883  14.4257328842592 0.859640679156847  14.4257328842592 1.03037643313246  C 14.4257328842592 2.28406468375341  12.8364198852394 3.30116196100815  10.8776721953398 3.30116196100815  C 10.5231140691934 3.30116196100815  10.1809530803249 3.26701481021303  9.85862751110089 3.20359867302208  C 10.1933502176027 4.30118566286533  11.227271466575 5.09876554215142  12.4521086296262 5.09876554215142  Z " fill-rule="nonzero" fill="#9c9a9a" stroke="none" transform="matrix(1 0 0 1 1 15 )" />
  </g>
</svg>