<?xml version="1.0" encoding="utf-8"?>
<svg version="1.1" xmlns:xlink="http://www.w3.org/1999/xlink" width="4px" height="6px" xmlns="http://www.w3.org/2000/svg">
  <g transform="matrix(1 0 0 1 -88 -354 )">
    <path d="M 1.49405494054941 4.30910609857978  L 1.49241492414924 4.30910609857978  L 0.177121771217712 4.30910609857978  L 0.177121771217712 3.51044277360067  L 1.49241492414924 3.51044277360067  L 1.49241492414924 3.07769423558897  L 0.177121771217712 3.07769423558897  L 0.177121771217712 2.27903091060986  L 1.10209102091021 2.27903091060986  L 0 0  L 1.09225092250922 0  C 1.09225092250922 0  1.80073800738007 1.53884711779449  1.80073800738007 1.53884711779449  C 1.89093890938909 1.73099415204678  1.95489954899549 1.90142021720969  1.99261992619926 2.0484544695071  C 2.03690036900369 1.88972431077694  2.10086100861009 1.71929824561404  2.18450184501845 1.53884711779449  C 2.18450184501845 1.53884711779449  2.90774907749077 0  2.90774907749077 0  L 4 0  L 2.88314883148831 2.27903091060986  L 3.82287822878229 2.27903091060986  L 3.82287822878229 3.07769423558897  L 2.48954489544895 3.07769423558897  L 2.48954489544895 3.51044277360067  L 3.82287822878229 3.51044277360067  L 3.82287822878229 4.30910609857978  L 2.48954489544895 4.30910609857978  L 2.48954489544895 6  L 1.49405494054941 6  L 1.49405494054941 4.30910609857978  Z " fill-rule="nonzero" fill="#d3830d" stroke="none" transform="matrix(1 0 0 1 88 354 )" />
  </g>
</svg>