<?xml version="1.0" encoding="utf-8"?>
<svg version="1.1" xmlns:xlink="http://www.w3.org/1999/xlink" width="26px" height="21px" xmlns="http://www.w3.org/2000/svg">
  <g transform="matrix(1 0 0 1 -284 -860 )">
    <path d="M 26 7.87505663552612  C 25.9998504096474 6.42715053183456  24.8348407438093 5.25003775701741  23.3998204915769 5.25003775701741  C 21.964650648992 5.25003775701741  20.7997905735064 6.42715053183456  20.7997905735064 7.87505663552612  C 20.7997905735064 8.22060885887506  20.8668070514591 8.54969902263264  20.985581791402 8.85115104964509  C 20.985581791402 8.85115104964509  16.8998204915769 10.4999244859652  16.8998204915769 10.4999244859652  C 16.8998204915769 10.4999244859652  14.1617186780816 4.97108891238214  14.1617186780816 4.97108891238214  C 15.0438389162001 4.52864110067533  15.6011716959925 3.61946532485289  15.5998803277179 2.6250188785087  C 15.5998803277179 1.17726380288679  14.4348706618798 0  12.9998504096474 0  C 11.5646805670625 0  10.3999700819295 1.17726380288679  10.3999700819295 2.6250188785087  C 10.3999700819295 3.65246283630715  10.9848683604897 4.54458564370321  11.8381317315659 4.97108891238214  C 11.8381317315659 4.97108891238214  9.10002991807051 10.4999244859652  9.10002991807051 10.4999244859652  C 9.10002991807051 10.4999244859652  5.01322148577741 8.85115104964508  5.01322148577741 8.85115104964508  C 5.13676701746821 8.5408468818585  5.20019306796017 8.20949192462221  5.20005983614103 7.87505663552612  C 5.20005983614103 6.4273015599042  4.03519976065544 5.25003775701741  2.60002991807051 5.25003775701741  C 1.16486007548559 5.25003775701741  0 6.4273015599042  0 7.87505663552612  C 0 9.32598330061059  1.16486007548559 10.5000755140348  2.60002991807051 10.5000755140348  C 2.74632928288686 10.5000755140348  2.89262864770321 10.4898056052989  3.03369235017951 10.4632246650413  C 3.03369235017951 10.4632246650413  4.41889901500506 18.7708256920322  4.41889901500506 18.7708256920322  C 4.54994016385897 20.0832596172517  5.71883917886403 21  6.88893491668968 21  C 6.88893491668968 21  18.9809214765718 21  18.9809214765718 21  C 20.2808616404308 21  21.3188690969345 20.0832596172517  21.5809513946424 18.7708256920322  C 21.5809513946424 18.7708256920322  22.9663076498205 10.4632246650413  22.9663076498205 10.4632246650413  C 23.1073713522968 10.4899566333686  23.2536707171131 10.5000755140348  23.3999700819295 10.5000755140348  C 24.8349903341618 10.5000755140348  26 9.32598330061058  26 7.87505663552612  Z " fill-rule="nonzero" fill="#d8d8d8" stroke="none" transform="matrix(1 0 0 1 284 860 )" />
  </g>
</svg>