<?xml version="1.0" encoding="utf-8"?>
<svg version="1.1" xmlns:xlink="http://www.w3.org/1999/xlink" width="15px" height="24px" xmlns="http://www.w3.org/2000/svg">
  <g transform="matrix(1 0 0 1 -195 -326 )">
    <path d="M 14.8987926136364 22.4129464285714  C 14.9662642045455 22.4977678571429  15 22.5982142857143  15 22.7142857142857  L 15 23.5714285714286  C 15 23.6875  14.9662642045455 23.7879464285714  14.8987926136364 23.8727678571429  C 14.8313210227273 23.9575892857143  14.7514204545455 24  14.6590909090909 24  L 0.340909090909091 24  C 0.248579545454545 24  0.168678977272727 23.9575892857143  0.101207386363636 23.8727678571429  C 0.0337357954545454 23.7879464285714  0 23.6875  0 23.5714285714286  L 0 22.7142857142857  C 0 22.5982142857143  0.0337357954545454 22.4977678571429  0.101207386363636 22.4129464285714  C 0.168678977272727 22.328125  0.248579545454545 22.2857142857143  0.340909090909091 22  L 14.6590909090909 22  C 14.7514204545455 22.2857142857143  14.8313210227273 22.328125  14.8987926136364 22.4129464285714  Z M 11.9797585227273 6.10714285714286  C 12.1750710227273 6.875  12.2727272727273 7.69642857142857  12.2727272727273 8.57142857142857  C 12.2727272727273 9.26785714285714  12.1857244318182 9.91071428571429  12.01171875 10.5  C 11.8377130681818 11.0892857142857  11.6104403409091 11.5915178571429  11.3299005681818 12.0066964285714  C 11.0493607954545 12.421875  10.7386363636364 12.8147321428571  10.3977272727273 13.1852678571429  C 10.0568181818182 13.5558035714286  9.71590909090909 13.9017857142857  9.375 14.2232142857143  C 9.03409090909091 14.5446428571429  8.72336647727273 14.8660714285714  8.44282670454546 15.1875  C 8.16228693181818 15.5089285714286  7.93501420454546 15.8727678571429  7.76100852272727 16.2790178571429  C 7.58700284090909 16.6852678571429  7.5 17.1160714285714  7.5 17.5714285714286  C 7.5 18.4285714285714  7.73792613636364 19.4285714285714  8.21377840909091 20.5714285714286  L 8.17116477272727 20.5580357142857  L 8.18181818181818 20.5714285714286  C 7.54261363636364 20.2053571428571  6.97443181818182 19.8348214285714  6.47727272727273 19.4598214285714  C 5.98011363636364 19.0848214285714  5.48828125 18.6383928571429  5.00177556818182 18.1205357142857  C 4.51526988636364 17.6026785714286  4.11221590909091 17.0558035714286  3.79261363636364 16.4799107142857  C 3.47301136363636 15.9040178571429  3.21555397727273 15.2321428571429  3.02024147727273 14.4642857142857  C 2.82492897727273 13.6964285714286  2.72727272727273 12.875  2.72727272727273 12  C 2.72727272727273 11.3035714285714  2.81427556818182 10.6607142857143  2.98828125 10.0714285714286  C 3.16228693181818 9.48214285714286  3.38955965909091 8.97991071428571  3.67009943181818 8.56473214285714  C 3.95063920454545 8.14955357142857  4.26136363636364 7.75669642857143  4.60227272727273 7.38616071428571  C 4.94318181818182 7.015625  5.28409090909091 6.66964285714286  5.625 6.34821428571429  C 5.96590909090909 6.02678571428571  6.27663352272727 5.70535714285714  6.55717329545455 5.38392857142857  C 6.83771306818182 5.0625  7.06498579545455 4.69866071428571  7.23899147727273 4.29241071428571  C 7.41299715909091 3.88616071428571  7.5 3.45535714285714  7.5 3  C 7.5 2.16071428571428  7.265625 1.16071428571428  6.796875 0  L 6.82883522727273 0.0133928571428568  L 6.81818181818182 0  C 7.45738636363636 0.366071428571428  8.02556818181818 0.736607142857143  8.52272727272727 1.11160714285714  C 9.01988636363637 1.48660714285714  9.51171875 1.93303571428571  9.99822443181818 2.45089285714286  C 10.4847301136364 2.96875  10.8877840909091 3.515625  11.2073863636364 4.09151785714286  C 11.5269886363636 4.66741071428571  11.7844460227273 5.33928571428571  11.9797585227273 6.10714285714286  Z " fill-rule="nonzero" fill="#ec808d" stroke="none" transform="matrix(1 0 0 1 195 326 )" />
  </g>
</svg>