<?xml version="1.0" encoding="utf-8"?>
<svg version="1.1" xmlns:xlink="http://www.w3.org/1999/xlink" width="316px" height="86px" xmlns="http://www.w3.org/2000/svg">
  <defs>
    <mask fill="white" id="clip221">
      <path d="M 312.624556962025 85  L 218.721759113499 85.0009925894637  C 217.696433156762 82.1928125550728  213.95658498113 80.1111111111111  209.5 80.1111111111111  C 205.043813591479 80.1111111111111  201.304235792142 82.1924402197189  200.277861364903 85  L 2.87544303797468 85  C 1.26519493670886 85  0 83.7328  0 82.12  L 0 3.88  C 0 2.2672  1.26519493670886 1  2.87544303797468 1  L 200.466228356043 0.999703433148568  C 201.706588759391 3.57994736193996  205.282318072875 5.4444444444444  209.5 5.4444444444444  C 213.718209663676 5.4444444444444  217.294306055291 3.57948074315055  218.536870364659 1  L 312.624556962025 1  C 314.234805063291 1  315.5 2.2672  315.5 3.88  L 315.5 82.12  C 315.5 83.7328  314.234805063291 85  312.624556962025 85  Z " fill-rule="evenodd" />
    </mask>
  </defs>
  <g transform="matrix(1 0 0 1 -30 -853 )">
    <path d="M 312.624556962025 85  L 218.721759113499 85.0009925894637  C 217.696433156762 82.1928125550728  213.95658498113 80.1111111111111  209.5 80.1111111111111  C 205.043813591479 80.1111111111111  201.304235792142 82.1924402197189  200.277861364903 85  L 2.87544303797468 85  C 1.26519493670886 85  0 83.7328  0 82.12  L 0 3.88  C 0 2.2672  1.26519493670886 1  2.87544303797468 1  L 200.466228356043 0.999703433148568  C 201.706588759391 3.57994736193996  205.282318072875 5.4444444444444  209.5 5.4444444444444  C 213.718209663676 5.4444444444444  217.294306055291 3.57948074315055  218.536870364659 1  L 312.624556962025 1  C 314.234805063291 1  315.5 2.2672  315.5 3.88  L 315.5 82.12  C 315.5 83.7328  314.234805063291 85  312.624556962025 85  Z " fill-rule="nonzero" fill="#ffffff" stroke="none" transform="matrix(1 0 0 1 30 853 )" />
    <path d="M 312.624556962025 85  L 218.721759113499 85.0009925894637  C 217.696433156762 82.1928125550728  213.95658498113 80.1111111111111  209.5 80.1111111111111  C 205.043813591479 80.1111111111111  201.304235792142 82.1924402197189  200.277861364903 85  L 2.87544303797468 85  C 1.26519493670886 85  0 83.7328  0 82.12  L 0 3.88  C 0 2.2672  1.26519493670886 1  2.87544303797468 1  L 200.466228356043 0.999703433148568  C 201.706588759391 3.57994736193996  205.282318072875 5.4444444444444  209.5 5.4444444444444  C 213.718209663676 5.4444444444444  217.294306055291 3.57948074315055  218.536870364659 1  L 312.624556962025 1  C 314.234805063291 1  315.5 2.2672  315.5 3.88  L 315.5 82.12  C 315.5 83.7328  314.234805063291 85  312.624556962025 85  Z " stroke-width="2" stroke="#d09352" fill="none" transform="matrix(1 0 0 1 30 853 )" mask="url(#clip221)" />
  </g>
</svg>