<?xml version="1.0" encoding="utf-8"?>
<svg version="1.1" xmlns:xlink="http://www.w3.org/1999/xlink" width="316px" height="86px" xmlns="http://www.w3.org/2000/svg">
  <defs>
    <mask fill="white" id="clip176">
      <path d="M 313.124556962025 85  L 219.221759113499 85  C 218.196433156761 82.192812555073  214.45658498113 80.1111111111113  210 80.1111111111113  C 205.543813591479 80.1111111111113  201.804235792142 82.1924402197187  200.777861364903 85  L 3.37544303797449 85  C 1.76519493670867 85  0.5 83.7327999999998  0.5 82.1199999999999  L 0.5 3.88000000000011  C 0.5 2.2672  1.76519493670867 1  3.37544303797449 1  L 200.966228356043 1  C 202.206588759391 3.57994736193996  205.782318072875 5.44444444444457  210 5.44444444444457  C 214.218209663676 5.44444444444457  217.794306055292 3.57948074315073  219.036870364659 1  L 313.124556962025 1  C 314.734805063291 1  316 2.2672  316 3.88000000000011  L 316 82.1199999999999  C 316 83.7327999999998  314.734805063291 85  313.124556962025 85  Z " fill-rule="evenodd" />
    </mask>
  </defs>
  <g transform="matrix(1 0 0 1 -28 -730 )">
    <path d="M 313.124556962025 85  L 219.221759113499 85  C 218.196433156761 82.192812555073  214.45658498113 80.1111111111113  210 80.1111111111113  C 205.543813591479 80.1111111111113  201.804235792142 82.1924402197187  200.777861364903 85  L 3.37544303797449 85  C 1.76519493670867 85  0.5 83.7327999999998  0.5 82.1199999999999  L 0.5 3.88000000000011  C 0.5 2.2672  1.76519493670867 1  3.37544303797449 1  L 200.966228356043 1  C 202.206588759391 3.57994736193996  205.782318072875 5.44444444444457  210 5.44444444444457  C 214.218209663676 5.44444444444457  217.794306055292 3.57948074315073  219.036870364659 1  L 313.124556962025 1  C 314.734805063291 1  316 2.2672  316 3.88000000000011  L 316 82.1199999999999  C 316 83.7327999999998  314.734805063291 85  313.124556962025 85  Z " fill-rule="nonzero" fill="#ffffff" stroke="none" transform="matrix(1 0 0 1 28 730 )" />
    <path d="M 313.124556962025 85  L 219.221759113499 85  C 218.196433156761 82.192812555073  214.45658498113 80.1111111111113  210 80.1111111111113  C 205.543813591479 80.1111111111113  201.804235792142 82.1924402197187  200.777861364903 85  L 3.37544303797449 85  C 1.76519493670867 85  0.5 83.7327999999998  0.5 82.1199999999999  L 0.5 3.88000000000011  C 0.5 2.2672  1.76519493670867 1  3.37544303797449 1  L 200.966228356043 1  C 202.206588759391 3.57994736193996  205.782318072875 5.44444444444457  210 5.44444444444457  C 214.218209663676 5.44444444444457  217.794306055292 3.57948074315073  219.036870364659 1  L 313.124556962025 1  C 314.734805063291 1  316 2.2672  316 3.88000000000011  L 316 82.1199999999999  C 316 83.7327999999998  314.734805063291 85  313.124556962025 85  Z " stroke-width="1" stroke="#d09352" fill="none" transform="matrix(1 0 0 1 28 730 )" mask="url(#clip176)" />
  </g>
</svg>