<?xml version="1.0" encoding="utf-8"?>
<svg version="1.1" xmlns:xlink="http://www.w3.org/1999/xlink" width="16px" height="16px" xmlns="http://www.w3.org/2000/svg">
  <defs>
    <mask fill="white" id="clip338">
      <path d="M 0 8  C 0 12.4182779984  3.5817220016 16  8 16  C 12.4182779984 16  16 12.4182779984  16 8  C 16 3.5817220016  12.4182779984 0  8 0  C 3.5817220016 0  0 3.5817220016  0 8  Z " fill-rule="evenodd" />
    </mask>
  </defs>
  <g transform="matrix(1 0 0 1 -36 -269 )">
    <path d="M 0 8  C 0 12.4182779984  3.5817220016 16  8 16  C 12.4182779984 16  16 12.4182779984  16 8  C 16 3.5817220016  12.4182779984 0  8 0  C 3.5817220016 0  0 3.5817220016  0 8  Z " fill-rule="nonzero" fill="#ffffff" stroke="none" fill-opacity="0" transform="matrix(1 0 0 1 36 269 )" />
    <path d="M 0 8  C 0 12.4182779984  3.5817220016 16  8 16  C 12.4182779984 16  16 12.4182779984  16 8  C 16 3.5817220016  12.4182779984 0  8 0  C 3.5817220016 0  0 3.5817220016  0 8  Z " stroke-width="2" stroke="#7e7e7e" fill="none" transform="matrix(1 0 0 1 36 269 )" mask="url(#clip338)" />
  </g>
</svg>