<?xml version="1.0" encoding="utf-8"?>
<svg version="1.1" xmlns:xlink="http://www.w3.org/1999/xlink" width="6px" height="8px" xmlns="http://www.w3.org/2000/svg">
  <g transform="matrix(1 0 0 1 -316 -406 )">
    <path d="M 5.99739886405979 4.37966574463634  C 5.99739886405979 4.37966574463634  5.99739886405979 3.77270635271147  5.99739886405979 3.77270635271147  C 5.99739886405979 3.69891913251668  5.96034111240873 3.62513191232189  5.90104870976703 3.5513446921271  C 5.84422682390207 3.47755747193231  5.76764080382321 3.44185397828967  5.67129064953046 3.44185397828967  C 5.67129064953046 3.44185397828967  4.5644991335521 3.44185397828967  4.5644991335521 3.44185397828967  C 4.46814897925934 3.44185397828967  4.37426934174332 3.4228121150136  4.27791918745056 3.40615048464703  C 4.16427541572064 3.38710862137096  4.14451128150674 3.33236326445224  4.2013331673717 3.23953418098138  C 4.2210973015856 3.20383068733874  4.31497693910162 3.07291787731573  4.46814897925934 2.85393644964087  C 4.62132101941706 2.63257478905651  4.79178667701194 2.246977057716  4.98448698559745 2.00895376676507  C 5.17471677740624 1.77093047581414  5.34765295177785 1.5305269519537  5.51811860937273 1.30916529136933  C 5.69105478374435 1.08780363078497  5.78493442126037 0.942609423304899  5.82446268968817 0.885483833476674  C 5.90104870976703 0.737909393087098  5.84422682390207 0.573673322330955  5.65152651531655 0.371353525022663  C 5.63176238110265 0.335650031380024  5.55517636102379 0.278524441551801  5.44153258929387 0.204737221357012  C 5.34518243500111 0.130950001162223  5.25130279748509 0.0762046442435097  5.15495264319233 0.0381209176913602  C 5.00178060303461 0.00241742404872058  4.8881368313047 -0.0166244392273542  4.83131494543973 0.0190790544152855  C 4.77449305957478 0.0547825480579251  4.69790703949592 0.128569768252714  4.60155688520316 0.257102345366216  C 4.5644991335521 0.311847702284931  4.48791311347324 0.459422142674508  4.33474107331552 0.661741939982799  C 4.2013331673717 0.883103600567165  4.04816112721398 1.10208502824202  3.8776954696191 1.34248855210246  C 3.70475929524748 1.58051184305339  3.5540577718665 1.80187350363776  3.42064986592268 1.98515143766998  C 3.28724195997887 2.18747123497827  3.21065593990001 2.2969619488157  3.19089180568611 2.33504567536784  C 3.15383405403505 2.40883289556263  3.07724803395619 2.44453638920527  2.98089787966343 2.42787475883871  C 2.88454772537067 2.40883289556263  2.82772583950571 2.37312940191999  2.79066808785465 2.2993421817252  C 2.77090395364075 2.26363868808256  2.69431793356189 2.1708096046117  2.54361641018091 1.98753167057948  C 2.41020850423709 1.82091536691383  2.23727232986547 1.62097580251505  2.08657080648449 1.39961414193068  C 1.91363463211287 1.16159085097975  1.76293310873189 0.975932684038027  1.60976106857417 0.773612886729736  C 1.45658902841646 0.571293089421445  1.36270939090043 0.442760512307943  1.30341698825874 0.368973292113154  C 1.13048081388712 0.0571627809674336  0.96001515629224 -0.0356663025034289  0.787078981920622 0.0738244113339998  C 0.653671075976803 0.147611631528789  0.540027304246882 0.240440714999651  0.443677149954124 0.311847702284931  C 0.347326995661367 0.38563492247972  0.253447358145345 0.459422142674508  0.157097203852586 0.514167499593222  C -0.0158389705190317 0.642700076706724  -0.0528967221700927 0.809316380372376  0.0805111837737262 1.01163617768067  C 0.386855264089163 1.36153041537854  0.670964693413963 1.7114246530764  0.900722753650543 2.02323516422212  C 1.11071667967322 2.28030031844913  1.37753249156086 2.66589804978964  1.56776228336964 2.90630157365008  C 1.74069845774126 3.12766323423444  1.75799207517842 3.27285744171451  1.79752034360622 3.31094116826666  C 1.83457809525728 3.38472838846145  1.79752034360622 3.42043188210409  1.6838765718763 3.42043188210409  C 1.6838765718763 3.42043188210409  1.3602388741237 3.42043188210409  1.3602388741237 3.42043188210409  C 1.26388871983094 3.42043188210409  1.24659510239378 3.42043188210409  1.07365892802216 3.43947374538016  C 0.90072275365054 3.43947374538016  0.750021230269558 3.43947374538016  0.59684919011184 3.42043188210409  C 0.443677149954122 3.42043188210409  0.330033378224201 3.45613537574673  0.233683223931443 3.52992259594152  C 0.157097203852583 3.60370981613631  0.120039452201522 3.69653889960717  0.157097203852583 3.8060296134446  C 0.176861338066483 3.87981683363939  0.176861338066483 3.98930754747681  0.176861338066483 4.13688198786639  C 0.176861338066483 4.13688198786639  0.176861338066483 4.41298900536947  0.176861338066483 4.41298900536947  C 0.176861338066483 4.50581808884034  0.196625472280382 4.56056344575905  0.253447358145342 4.56056344575905  C 0.310269244010303 4.57960530903512  0.367091129875263 4.57960530903512  0.443677149954122 4.57960530903512  C 0.443677149954122 4.57960530903512  2.14339269234945 4.57960530903512  2.14339269234945 4.57960530903512  C 2.35338661837213 4.57960530903512  2.46703039010205 4.61530880267776  2.46703039010205 4.70813788614863  C 2.46703039010205 4.70813788614863  2.46703039010205 5.07707398712257  2.46703039010205 5.07707398712257  C 2.46703039010205 5.18656470096  2.44726625588815 5.22464842751215  2.41020850423709 5.22464842751215  C 2.41020850423709 5.22464842751215  0.463441284168023 5.22464842751215  0.463441284168023 5.22464842751215  C 0.367091129875265 5.20560656423607  0.290505109796405 5.22464842751215  0.253447358145344 5.29843564770693  C 0.233683223931444 5.3912647311778  0.196625472280383 5.46505195137259  0.176861338066484 5.55550080193394  C 0.157097203852585 5.64594965249529  0.157097203852585 5.68403337904744  0.176861338066484 5.75782059924223  C 0.196625472280383 5.83160781943702  0.196625472280383 5.90539503963181  0.196625472280383 5.96014039655052  C 0.196625472280383 6.21720555077753  0.330033378224202 6.32669626461495  0.55979143846078 6.32669626461495  C 0.55979143846078 6.32669626461495  2.35338661837213 6.32669626461495  2.35338661837213 6.32669626461495  C 2.42997263845099 6.32669626461495  2.48679452431595 6.34573812789103  2.50655865852985 6.36239975825759  C 2.50655865852985 6.39810325190023  2.52632279274375 6.45522884172846  2.52632279274375 6.54567769228981  C 2.54608692695765 6.63850677576067  2.56338054439481 6.98602078054903  2.54608692695765 7.22642430440947  C 2.52879330952048 7.46682782826992  2.52632279274375 7.63106389902606  2.52632279274375 7.70485111922085  C 2.52632279274375 7.90717091652914  2.63996656447367 8  2.86972462471025 8  C 2.86972462471025 8  3.49970640277828 8  3.49970640277828 8  C 3.6331143087221 8  3.70970032880096 7.94525464308129  3.70970032880096 7.85242555961042  C 3.70970032880096 7.85242555961042  3.70970032880096 6.58376141884196  3.70970032880096 6.58376141884196  C 3.70970032880096 6.40048348480974  3.80605048309372 6.30765440133888  3.9567520064747 6.30765440133888  C 3.9567520064747 6.30765440133888  4.20380368414844 6.30765440133888  4.20380368414844 6.30765440133888  C 4.31744745587836 6.30765440133888  4.47061949603608 6.30765440133888  4.6237915361938 6.28861253806281  C 4.77696357635152 6.26957067478673  4.93013561650923 6.26957067478673  5.06354352245305 6.26957067478673  C 5.06354352245305 6.26957067478673  5.59717514622833 6.26957067478673  5.59717514622833 6.26957067478673  C 5.84422682390207 6.26957067478673  5.97763472984589 6.17674159131587  5.97763472984589 5.99346365728365  C 5.97763472984589 5.99346365728365  5.97763472984589 5.44124962227749  5.97763472984589 5.44124962227749  C 5.97763472984589 5.27463331861184  5.88128457555313 5.18418446805049  5.71081891795825 5.18418446805049  C 5.71081891795825 5.18418446805049  3.95428148969796 5.18418446805049  3.95428148969796 5.18418446805049  C 3.78134531532634 5.21988796169313  3.68746567781032 5.18418446805049  3.68746567781032 5.07469375421306  C 3.68746567781032 5.01994839729435  3.68746567781032 5.03899026057042  3.66770154359643 4.94616117709956  C 3.64793740938253 4.8533320936287  3.64793740938253 4.77954487343391  3.64793740938253 4.70813788614863  C 3.64793740938253 4.63435066595384  3.68499516103359 4.67243439250599  3.74428756367529 4.63435066595384  C 3.82087358375415 4.5986471723112  3.8776954696191 4.57960530903512  3.95428148969796 4.57960530903512  C 3.95428148969796 4.57960530903512  5.75034718638605 4.57960530903512  5.75034718638605 4.57960530903512  C 5.92328336075767 4.58198554194463  6.01716299827369 4.52724018502592  5.99739886405979 4.37966574463634  Z " fill-rule="nonzero" fill="#303030" stroke="none" transform="matrix(1 0 0 1 316 406 )" />
  </g>
</svg>