<?xml version="1.0" encoding="utf-8"?>
<svg version="1.1" xmlns:xlink="http://www.w3.org/1999/xlink" width="34px" height="14px" xmlns="http://www.w3.org/2000/svg">
  <defs>
    <linearGradient gradientUnits="userSpaceOnUse" x1="17" y1="0" x2="17" y2="30.1456398290731" id="LinearGradient182">
      <stop id="Stop183" stop-color="#e7c296" offset="0" />
      <stop id="Stop184" stop-color="#f6bf8d" offset="1" />
    </linearGradient>
  </defs>
  <g transform="matrix(1 0 0 1 -130 -1017 )">
    <path d="M 33.9999999999999 14  L 18.3082774049217 14  C 18.3082774049217 14  18.3082774049217 6.70598892126117  18.3082774049217 6.70598892126117  C 17.9355704697986 6.67316587140684  17.5286353467561 6.64034282155252  17.220581655481 6.57469672184387  C 17.220581655481 6.57469672184387  17.152125279642 6.57469672184387  17.152125279642 6.57469672184387  L 17.220581655481 6.57469672184387  C 17.220581655481 6.57469672184387  17.1178970917226 6.57469672184387  17.1178970917226 6.57469672184387  C 16.7109619686801 6.64034282155252  16.2013422818792 6.70598892126117  15.6232662192393 6.73881197111549  C 15.6232662192393 6.73881197111549  15.6232662192393 14  15.6232662192393 14  L 0 14  C 0 14  0 8.204908197942  0 8.204908197942  C 0 7.29315681309964  0.745413870246084 6.54552067752891  1.73042505592841 6.54552067752891  C 1.73042505592841 6.54552067752891  8.86510067114092 6.54552067752891  8.86510067114092 6.54552067752891  C 6.9635346756152 6.15529108481639  5.50313199105144 5.37118489385196  5.46890380313198 3.94155872241914  C 5.40044742729305 2.24205414107299  7.43892617449663 -0.526023063308398  10.3597315436241 0.0939678783844036  C 13.38322147651 0.74678186993153  15.524384787472 2.99333728218309  17.1178970917226 4.91530920143078  C 18.7494407158836 2.96051423232877  21.0579418344519 0.418551371388282  24.2525727069351 0.0283217786757536  C 26.9033557046979 -0.296261714328125  29.0749440715883 2.24205414107299  28.8049217002237 3.90508866702545  C 28.5653243847874 5.37118489385196  27.1049217002237 6.15164407927701  25.2375838926174 6.54187367198954  C 25.2375838926174 6.54187367198954  32.2695749440715 6.54187367198954  32.2695749440715 6.54187367198954  C 33.2203579418344 6.54187367198954  33.9999999999999 7.25668675770595  33.9999999999999 8.17208514808767  C 33.9999999999999 8.17208514808767  33.9999999999999 14  33.9999999999999 14  Z " fill-rule="nonzero" fill="url(#LinearGradient182)" stroke="none" transform="matrix(1 0 0 1 130 1017 )" />
  </g>
</svg>