<?xml version="1.0" encoding="utf-8"?>
<svg version="1.1" xmlns:xlink="http://www.w3.org/1999/xlink" width="20px" height="5px" xmlns="http://www.w3.org/2000/svg">
  <g transform="matrix(1 0 0 1 -136 -1018 )">
    <path d="M 0.757480720990401 3.24739916131284  C 2.14038396915942 4.72855965656026  5.98681977964043 4.58970086013085  8.55236979468623 4.35055515516899  C 7.33949563440686 2.79996526170692  5.85457493350407 1.07965906149775  3.82933957552976 0.250363471710898  C 2.3784246922049 -0.335929224324559  1.53583610110741 0.285078170818224  0.927509808880046 1.31880476645961  C 0.591230057276107 1.90509746249495  0.251171881496845 2.6611064652775  0.757480720990401 3.24739916131284  Z M 15.1683905256806 4.38526985427643  C 16.5172879562717 4.31584045606166  18.9468147010058 4.21555354752934  19.7251700811227 3.24739916131296  C 20.7377877601099 1.93981216160239  18.7805640372914 -0.783363123930485  16.6533112265834 0.215648772603572  C 14.6280758686091 1.17994597003019  13.1771609852842 2.76525056259959  11.9302810074269 4.31584045606166  C 13.0109103215699 4.41998455338376  14.0915396357129 4.45469925249108  15.1683905256806 4.38526985427643  Z " fill-rule="nonzero" fill="#ecc193" stroke="none" transform="matrix(1 0 0 1 136 1018 )" />
  </g>
</svg>