<?xml version="1.0" encoding="utf-8"?>
<svg version="1.1" xmlns:xlink="http://www.w3.org/1999/xlink" width="38px" height="36px" xmlns="http://www.w3.org/2000/svg">
  <g transform="matrix(1 0 0 1 -1364 -182 )">
    <path d="M 1383 182  C 1393.64 182  1402 189.92  1402 200  C 1402 210.08  1393.64 218  1383 218  C 1372.36 218  1364 210.08  1364 200  C 1364 189.92  1372.36 182  1383 182  Z " fill-rule="nonzero" fill="#d7d7d7" stroke="none" />
    <path d="M 1383 182.5  C 1393.36 182.5  1401.5 190.2  1401.5 200  C 1401.5 209.8  1393.36 217.5  1383 217.5  C 1372.64 217.5  1364.5 209.8  1364.5 200  C 1364.5 190.2  1372.64 182.5  1383 182.5  Z " stroke-width="1" stroke="#d7d7d7" fill="none" />
  </g>
</svg>