<?xml version="1.0" encoding="utf-8"?>
<svg version="1.1" xmlns:xlink="http://www.w3.org/1999/xlink" width="38px" height="36px" xmlns="http://www.w3.org/2000/svg">
  <g transform="matrix(1 0 0 1 -454 -186 )">
    <path d="M 473 186  C 483.64 186  492 193.92  492 204  C 492 214.08  483.64 222  473 222  C 462.36 222  454 214.08  454 204  C 454 193.92  462.36 186  473 186  Z " fill-rule="nonzero" fill="#ffffff" stroke="none" />
    <path d="M 473 186.5  C 483.36 186.5  491.5 194.2  491.5 204  C 491.5 213.8  483.36 221.5  473 221.5  C 462.64 221.5  454.5 213.8  454.5 204  C 454.5 194.2  462.64 186.5  473 186.5  Z " stroke-width="1" stroke="#d7d7d7" fill="none" />
  </g>
</svg>