<?xml version="1.0" encoding="utf-8"?>
<svg version="1.1" xmlns:xlink="http://www.w3.org/1999/xlink" width="38px" height="36px" xmlns="http://www.w3.org/2000/svg">
  <g transform="matrix(1 0 0 1 -321 -186 )">
    <path d="M 340 186  C 350.64 186  359 193.92  359 204  C 359 214.08  350.64 222  340 222  C 329.36 222  321 214.08  321 204  C 321 193.92  329.36 186  340 186  Z " fill-rule="nonzero" fill="#e4e4e4" stroke="none" />
    <path d="M 340 186.5  C 350.36 186.5  358.5 194.2  358.5 204  C 358.5 213.8  350.36 221.5  340 221.5  C 329.64 221.5  321.5 213.8  321.5 204  C 321.5 194.2  329.64 186.5  340 186.5  Z " stroke-width="1" stroke="#d7d7d7" fill="none" />
  </g>
</svg>