<?xml version="1.0" encoding="utf-8"?>
<svg version="1.1" xmlns:xlink="http://www.w3.org/1999/xlink" width="15px" height="15px" xmlns="http://www.w3.org/2000/svg">
  <g transform="matrix(1 0 0 1 -263 -746 )">
    <path d="M 270.5 746  C 274.7 746  278 749.3  278 753.5  C 278 757.7  274.7 761  270.5 761  C 266.3 761  263 757.7  263 753.5  C 263 749.3  266.3 746  270.5 746  Z " fill-rule="nonzero" fill="#ffffff" stroke="none" />
    <path d="M 270.5 746.5  C 274.42 746.5  277.5 749.58  277.5 753.5  C 277.5 757.42  274.42 760.5  270.5 760.5  C 266.58 760.5  263.5 757.42  263.5 753.5  C 263.5 749.58  266.58 746.5  270.5 746.5  Z " stroke-width="1" stroke="#797979" fill="none" />
  </g>
</svg>