<?xml version="1.0" encoding="utf-8"?>
<svg version="1.1" xmlns:xlink="http://www.w3.org/1999/xlink" width="12px" height="23px" xmlns="http://www.w3.org/2000/svg">
  <g transform="matrix(1 0 0 1 -270 -982 )">
    <path d="M 0.206185567010173 10.9699398797595  C 0.0687285223368897 11.123580494322  0 11.3002672010688  0 11.5  C 0 11.6997327989312  0.0687285223368897 11.876419505678  0.206185567010173 12.0300601202405  L 9.81443298969068 22.7695390781563  C 9.95189003436421 22.9231796927188  10.1099656357388 23  10.2886597938143 23  C 10.4673539518901 23  10.6254295532647 22.9231796927188  10.762886597938 22.7695390781563  L 11.7938144329898 21.6172344689378  C 11.9312714776631 21.4635938543755  12 21.2869071476285  12 21.0871743486973  C 12 20.8874415497663  11.9312714776631 20.7107548430195  11.7938144329898 20.5571142284568  L 3.69072164948458 11.5  L 11.7938144329898 2.44288577154319  C 11.9312714776631 2.28924515698046  12 2.11255845023371  12 1.9128256513027  C 12 1.71309285237146  11.9312714776631 1.53640614562447  11.7938144329898 1.38276553106222  L 10.762886597938 0.230460921843742  C 10.6254295532647 0.0768203072812474  10.4673539518901 0  10.2886597938143 0  C 10.1099656357388 0  9.95189003436421 0.0768203072812474  9.81443298969068 0.230460921843742  L 0.206185567010173 10.9699398797595  Z " fill-rule="nonzero" fill="#666666" stroke="none" transform="matrix(1 0 0 1 270 982 )" />
  </g>
</svg>