<?xml version="1.0" encoding="utf-8"?>
<svg version="1.1" xmlns:xlink="http://www.w3.org/1999/xlink" width="328px" height="13px" xmlns="http://www.w3.org/2000/svg">
  <defs>
    <mask fill="white" id="clip14">
      <path d="M 0 9.38888888888889  L 0 3.61111111111111  C 0 1.58888888888888  2.19999999999999 0  5 0  C 5 0  102.096774193549 0  150.645161290323 0  C 162.114695340503 0  185.053763440861 0  185.053763440861 0  L 192.950819672131 0  L 323 0  C 325.8 0  328 1.58888888888888  328 3.61111111111111  L 328 9.38888888888889  C 328 11.4111111111111  325.8 13  323 13  L 183.77049180328 13  L 5 13  C 2.19999999999999 13  0 11.4111111111111  0 9.38888888888889  Z " fill-rule="evenodd" />
    </mask>
  </defs>
  <g transform="matrix(1 0 0 1 -13 -82 )">
    <path d="M 0 9.38888888888889  L 0 3.61111111111111  C 0 1.58888888888888  2.19999999999999 0  5 0  C 5 0  102.096774193549 0  150.645161290323 0  C 162.114695340503 0  185.053763440861 0  185.053763440861 0  L 192.950819672131 0  L 323 0  C 325.8 0  328 1.58888888888888  328 3.61111111111111  L 328 9.38888888888889  C 328 11.4111111111111  325.8 13  323 13  L 183.77049180328 13  L 5 13  C 2.19999999999999 13  0 11.4111111111111  0 9.38888888888889  Z " fill-rule="nonzero" fill="#aaaaaa" stroke="none" transform="matrix(1 0 0 1 13 82 )" />
    <path d="M 0 9.38888888888889  L 0 3.61111111111111  C 0 1.58888888888888  2.19999999999999 0  5 0  C 5 0  102.096774193549 0  150.645161290323 0  C 162.114695340503 0  185.053763440861 0  185.053763440861 0  L 192.950819672131 0  L 323 0  C 325.8 0  328 1.58888888888888  328 3.61111111111111  L 328 9.38888888888889  C 328 11.4111111111111  325.8 13  323 13  L 183.77049180328 13  L 5 13  C 2.19999999999999 13  0 11.4111111111111  0 9.38888888888889  Z " stroke-width="2" stroke="#d7d7d7" fill="none" transform="matrix(1 0 0 1 13 82 )" mask="url(#clip14)" />
  </g>
</svg>