<?xml version="1.0" encoding="utf-8"?>
<svg version="1.1" xmlns:xlink="http://www.w3.org/1999/xlink" width="282px" height="12px" xmlns="http://www.w3.org/2000/svg">
  <defs>
    <mask fill="white" id="clip152">
      <path d="M 0 8.66666666666667  L 0 3.33333333333333  C 0 1.46666666666666  1.89146341463414 0  4.29878048780488 0  C 4.29878048780488 0  87.7783241542097 0  129.518095987412 0  C 139.379097823237 0  159.101101494887 0  159.101101494887 0  L 165.890643742503 0  L 277.701219512195 0  C 280.108536585366 0  282 1.46666666666666  282 3.33333333333333  L 282 8.66666666666667  C 282 10.5333333333333  280.108536585366 12  277.701219512195 12  L 157.99780087965 12  L 4.29878048780488 12  C 1.89146341463414 12  0 10.5333333333333  0 8.66666666666667  Z " fill-rule="evenodd" />
    </mask>
  </defs>
  <g transform="matrix(1 0 0 1 -13 -82 )">
    <path d="M 0 8.66666666666667  L 0 3.33333333333333  C 0 1.46666666666666  1.89146341463414 0  4.29878048780488 0  C 4.29878048780488 0  87.7783241542097 0  129.518095987412 0  C 139.379097823237 0  159.101101494887 0  159.101101494887 0  L 165.890643742503 0  L 277.701219512195 0  C 280.108536585366 0  282 1.46666666666666  282 3.33333333333333  L 282 8.66666666666667  C 282 10.5333333333333  280.108536585366 12  277.701219512195 12  L 157.99780087965 12  L 4.29878048780488 12  C 1.89146341463414 12  0 10.5333333333333  0 8.66666666666667  Z " fill-rule="nonzero" fill="#d9001b" stroke="none" transform="matrix(1 0 0 1 13 82 )" />
    <path d="M 0 8.66666666666667  L 0 3.33333333333333  C 0 1.46666666666666  1.89146341463414 0  4.29878048780488 0  C 4.29878048780488 0  87.7783241542097 0  129.518095987412 0  C 139.379097823237 0  159.101101494887 0  159.101101494887 0  L 165.890643742503 0  L 277.701219512195 0  C 280.108536585366 0  282 1.46666666666666  282 3.33333333333333  L 282 8.66666666666667  C 282 10.5333333333333  280.108536585366 12  277.701219512195 12  L 157.99780087965 12  L 4.29878048780488 12  C 1.89146341463414 12  0 10.5333333333333  0 8.66666666666667  Z " stroke-width="2" stroke="#d7d7d7" fill="none" transform="matrix(1 0 0 1 13 82 )" mask="url(#clip152)" />
  </g>
</svg>