<?xml version="1.0" encoding="utf-8"?>
<svg version="1.1" xmlns:xlink="http://www.w3.org/1999/xlink" width="43px" height="44px" xmlns="http://www.w3.org/2000/svg">
  <g transform="matrix(1 0 0 1 -505 -594 )">
    <path d="M 31.7180989583333 26.2109375  C 32.0726996527778 26.5737847222222  32.25 27.0034722222222  32.25 27.5  C 32.25 27.9965277777778  32.0726996527778 28.4262152777778  31.7180989583333 28.7890625  C 31.3634982638889 29.1519097222222  30.9435763888889 29.3333333333333  30.4583333333333 29  L 12.5416666666667 29  C 12.0564236111111 29.3333333333333  11.6365017361111 29.1519097222222  11.2819010416667 28.7890625  C 10.9273003472222 28.4262152777778  10.75 27.9965277777778  10.75 27.5  C 10.75 27.0034722222222  10.9273003472222 26.5737847222222  11.2819010416667 26.2109375  C 11.6365017361111 25.8480902777778  12.0564236111111 25.6666666666667  12.5416666666667 25  L 30.4583333333333 25  C 30.9435763888889 25.6666666666667  31.3634982638889 25.8480902777778  31.7180989583333 26.2109375  Z M 16.8668619791667 12.07421875  C 17.5667317708333 12.7903645833333  17.9166666666667 13.6545138888889  17.9166666666667 14.6666666666667  C 17.9166666666667 15.6788194444444  17.5667317708333 16.54296875  16.8668619791667 17.2591145833333  C 16.1669921875 17.9752604166667  15.3224826388889 18.3333333333333  14.3333333333333 18.3333333333333  C 13.3441840277778 18.3333333333333  12.4996744791667 17.9752604166667  11.7998046875 17.2591145833333  C 11.0999348958333 16.54296875  10.75 15.6788194444444  10.75 14.6666666666667  C 10.75 13.6545138888889  11.0999348958333 12.7903645833333  11.7998046875 12.07421875  C 12.4996744791667 11.3580729166667  13.3441840277778 11  14.3333333333333 11  C 15.3224826388889 11  16.1669921875 11.3580729166667  16.8668619791667 12.07421875  Z M 31.2001953125 12.07421875  C 31.9000651041667 12.7903645833333  32.25 13.6545138888889  32.25 14.6666666666667  C 32.25 15.6788194444444  31.9000651041667 16.54296875  31.2001953125 17.2591145833333  C 30.5003255208333 17.9752604166667  29.6558159722222 18.3333333333333  28.6666666666667 18.3333333333333  C 27.6775173611111 18.3333333333333  26.8330078125 17.9752604166667  26.1331380208333 17.2591145833333  C 25.4332682291667 16.54296875  25.0833333333333 15.6788194444444  25.0833333333333 14.6666666666667  C 25.0833333333333 13.6545138888889  25.4332682291667 12.7903645833333  26.1331380208333 12.07421875  C 26.8330078125 11.3580729166667  27.6775173611111 11  28.6666666666667 11  C 29.6558159722222 11  30.5003255208333 11.3580729166667  31.2001953125 12.07421875  Z M 37.9889322916667 29.1184895833333  C 38.9407552083333 26.85546875  39.4166666666667 24.4826388888889  39.4166666666667 22  C 39.4166666666667 19.5173611111111  38.9407552083333 17.14453125  37.9889322916667 14.8815104166667  C 37.037109375 12.6184895833333  35.7633463541667 10.6705729166667  34.1676432291667 9.03776041666667  C 32.5719401041667 7.40494791666667  30.6682942708333 6.1015625  28.4567057291667 5.12760416666667  C 26.2451171875 4.15364583333333  23.9262152777778 3.66666666666667  21.5 3.66666666666667  C 19.0737847222222 3.66666666666667  16.7548828125 4.15364583333333  14.5432942708333 5.12760416666667  C 12.3317057291667 6.1015625  10.4280598958333 7.40494791666667  8.83235677083333 9.03776041666667  C 7.23665364583333 10.6705729166667  5.962890625 12.6184895833333  5.01106770833333 14.8815104166667  C 4.05924479166667 17.14453125  3.58333333333333 19.5173611111111  3.58333333333333 22  C 3.58333333333333 24.4826388888889  4.05924479166667 26.85546875  5.01106770833333 29.1184895833333  C 5.962890625 31.3815104166667  7.23665364583333 33.3294270833333  8.83235677083333 34.9622395833333  C 10.4280598958333 36.5950520833333  12.3317057291667 37.8984375  14.5432942708333 38.8723958333333  C 16.7548828125 39.8463541666667  19.0737847222222 40.3333333333333  21.5 40.3333333333333  C 23.9262152777778 40.3333333333333  26.2451171875 39.8463541666667  28.4567057291667 38.8723958333333  C 30.6682942708333 37.8984375  32.5719401041667 36.5950520833333  34.1676432291667 34.9622395833333  C 35.7633463541667 33.3294270833333  37.037109375 31.3815104166667  37.9889322916667 29.1184895833333  Z M 40.1165364583333 10.95703125  C 42.0388454861111 14.3276909722222  43 18.0086805555556  43 22  C 43 25.9913194444444  42.0388454861111 29.6723090277778  40.1165364583333 33.04296875  C 38.1942274305556 36.4136284722222  35.5860460069444 39.0824652777778  32.2919921875 41.0494791666667  C 28.9979383680556 43.0164930555556  25.4006076388889 44  21.5 44  C 17.5993923611111 44  14.0020616319444 43.0164930555556  10.7080078125 41.0494791666667  C 7.41395399305556 39.0824652777778  4.80577256944444 36.4136284722222  2.88346354166667 33.04296875  C 0.961154513888889 29.6723090277778  0 25.9913194444444  0 22  C 0 18.0086805555556  0.961154513888889 14.3276909722222  2.88346354166667 10.95703125  C 4.80577256944444 7.58637152777778  7.41395399305556 4.91753472222222  10.7080078125 2.95052083333333  C 14.0020616319444 0.983506944444441  17.5993923611111 0  21.5 0  C 25.4006076388889 0  28.9979383680556 0.983506944444441  32.2919921875 2.95052083333333  C 35.5860460069444 4.91753472222222  38.1942274305556 7.58637152777778  40.1165364583333 10.95703125  Z " fill-rule="nonzero" fill="#cccccc" stroke="none" transform="matrix(1 0 0 1 505 594 )" />
  </g>
</svg>