<?xml version="1.0" encoding="utf-8"?>
<svg version="1.1" xmlns:xlink="http://www.w3.org/1999/xlink" width="22px" height="26px" xmlns="http://www.w3.org/2000/svg">
  <g transform="matrix(1 0 0 1 -331 -2007 )">
    <path d="M 19.2715609408411 0.25962910128388  C 20.2751247327156 -0.13599619591061  21.0487051556189 -0.0618164526866423  21.592302209551 0.482168330955778  C 22.0522689474935 1.12505943889681  22.1149916844856 2.03994293865906  21.7804704205274 3.22681883024251  C 21.4459491565693 4.41369472182596  20.8814445236398 5.47693770803614  20.0869565217391 6.41654778887304  L 17.5623663578047 9.40228245363766  L 20.0712758374911 22.3095577746077  C 20.1235447849846 22.5444602948169  20.0608220479924 22.7484545886828  19.8831076265146 22.9215406562054  L 17.8759800427655 24.7018544935806  C 17.8028035162747 24.7760342368046  17.7034925160371 24.8131241084165  17.5780470420527 24.8131241084165  C 17.536231884058 24.8131241084165  17.4996436208125 24.8069424631479  17.4682822523165 24.7945791726106  C 17.3114754098361 24.7574893009986  17.2017106200998 24.6585829767  17.1389878831076 24.4978601997147  L 12.7640769779045 15.077032810271  L 8.70277975766215 19.8801711840228  L 9.53385602280827 23.4778887303852  C 9.58612497030174 23.6880646695197  9.54430981230696 23.8796956728483  9.40841054882395 24.0527817403709  L 7.90306486101212 25.8330955777461  C 7.80898075552388 25.944365192582  7.68876217628891 26  7.5424091233072 26  L 7.51104775481112 26  C 7.35424091233072 25.9752734189253  7.2287954383464 25.8949120304327  7.13471133285816 25.7589158345221  L 4.17106200997862 21.0855920114123  L 0.219529579472559 17.5805991440799  C 0.104537894986933 17.4940561103186  0.0365882632454265 17.3518782691393  0.0156806842480399 17.1540656205421  C 0.00522689474934664 16.9933428435568  0.0522689474934664 16.8388017118402  0.156806842480399 16.6904422253923  L 1.66215253029223 14.8915834522111  C 1.75623663578047 14.7803138373752  1.87645521501544 14.7246790299572  2.02280826799715 14.7246790299572  C 2.08553100498931 14.7246790299572  2.12734616298408 14.7308606752259  2.14825374198147 14.7432239657632  L 5.19030648610121 15.7261055634807  L 9.25160370634355 10.922967189729  L 1.28581610833927 5.74893009985735  C 1.13946305535757 5.65002377555872  1.05060584461867 5.50166428911079  1.01924447612259 5.30385164051355  C 0.998336897125208 5.10603899191631  1.04537894986933 4.93913456966239  1.16037063435495 4.80313837375178  L 3.16749821810406 2.42938659058488  C 3.31385127108577 2.26866381359962  3.47065811356617 2.21921065145031  3.63791874554526 2.28102710413695  L 14.0655737704918 5.22967189728959  L 16.5744832501782 2.26248216833095  C 17.3689712520789 1.32287208749405  18.2679971489665 0.655254398478363  19.2715609408411 0.25962910128388  Z " fill-rule="nonzero" fill="#333333" stroke="none" transform="matrix(1 0 0 1 331 2007 )" />
  </g>
</svg>