<?xml version="1.0" encoding="utf-8"?>
<svg version="1.1" xmlns:xlink="http://www.w3.org/1999/xlink" width="43px" height="38px" xmlns="http://www.w3.org/2000/svg">
  <g transform="matrix(1 0 0 1 -36 -2001 )">
    <path d="M 57.5 2001  C 69.54 2001  79 2009.36  79 2020  C 79 2030.64  69.54 2039  57.5 2039  C 45.46 2039  36 2030.64  36 2020  C 36 2009.36  45.46 2001  57.5 2001  Z " fill-rule="nonzero" fill="#ffffff" stroke="none" />
    <path d="M 57.5 2001.5  C 69.26 2001.5  78.5 2009.64  78.5 2020  C 78.5 2030.36  69.26 2038.5  57.5 2038.5  C 45.74 2038.5  36.5 2030.36  36.5 2020  C 36.5 2009.64  45.74 2001.5  57.5 2001.5  Z " stroke-width="1" stroke="#797979" fill="none" />
  </g>
</svg>