<?xml version="1.0" encoding="utf-8"?>
<svg version="1.1" xmlns:xlink="http://www.w3.org/1999/xlink" width="90px" height="30px" xmlns="http://www.w3.org/2000/svg">
  <g transform="matrix(1 0 0 1 -341 -107 )">
    <path d="M 342 122  A 14 14 0 0 1 356 108 L 416 108  A 14 14 0 0 1 430 122 A 14 14 0 0 1 416 136 L 356 136  A 14 14 0 0 1 342 122 Z " fill-rule="nonzero" fill="#f2f2f2" stroke="none" />
    <path d="M 341.5 122  A 14.5 14.5 0 0 1 356 107.5 L 416 107.5  A 14.5 14.5 0 0 1 430.5 122 A 14.5 14.5 0 0 1 416 136.5 L 356 136.5  A 14.5 14.5 0 0 1 341.5 122 Z " stroke-width="1" stroke="#e4e4e4" fill="none" stroke-opacity="0.498039215686275" />
  </g>
</svg>