<?xml version="1.0" encoding="utf-8"?>
<svg version="1.1" xmlns:xlink="http://www.w3.org/1999/xlink" width="12px" height="12px" viewBox="12 106  12 12" xmlns="http://www.w3.org/2000/svg">
  <path d="M 18 106  C 21.36 106  24 108.64  24 112  C 24 115.36  21.36 118  18 118  C 14.64 118  12 115.36  12 112  C 12 108.64  14.64 106  18 106  Z " fill-rule="nonzero" fill="#ffffff" stroke="none" />
  <path d="M 18 106.5  C 21.08 106.5  23.5 108.92  23.5 112  C 23.5 115.08  21.08 117.5  18 117.5  C 14.92 117.5  12.5 115.08  12.5 112  C 12.5 108.92  14.92 106.5  18 106.5  Z " stroke-width="1" stroke="#797979" fill="none" />
  <path d="M 18 115  C 16.32 115  15 113.68  15 112  C 15 110.32  16.32 109  18 109  C 19.68 109  21 110.32  21 112  C 21 113.68  19.68 115  18 115  " fill-rule="nonzero" fill="#797979" stroke="none" />
</svg>