<?xml version="1.0" encoding="utf-8"?>
<svg version="1.1" xmlns:xlink="http://www.w3.org/1999/xlink" width="375px" height="812px" xmlns="http://www.w3.org/2000/svg">
  <g transform="matrix(1 0 0 1 -11 952 )">
    <path d="M 39.9999573333789 811.999999999997  C 18.553980209088 811.999999999997  1.05299887680121 795.15424819435  0 773.999999999997  L 0 811.999999999997  C 0 811.999999999997  39.9999573333789 811.999999999997  39.9999573333789 811.999999999997  Z M 375 811.999999999997  L 375 773.999999999997  C 373.996001070932 795.15424819435  356.446019790912 811.999999999997  335.000042666621 811.999999999997  C 335.000042666621 811.999999999997  375 811.999999999997  375 811.999999999997  Z M 40 0  L 0 0  C 0 0  0 40  0 40  C 0 17.9090000000001  17.9090000000001 0  40 0  Z M 375 0  C 375 0  335 0  335 0  C 357.091 0  375 17.9090000000001  375 40  L 375 0  Z M 78.8914 0.216399999999794  C 80.7793999999999 0.674399999999878  82.3334 2.08639999999991  83.0043999999998 3.90039999999999  C 83.0194000000001 3.94039999999995  83.0333999999998 3.9864  83.0463999999997 4.03739999999993  C 83.0463999999997 4.03739999999993  83.0394000000001 7.96139999999991  83.0394000000001 7.96139999999991  C 83.0394000000001 20.7023999999999  93.3363999999997 31.0003999999999  106.0394 31.0003999999999  C 106.0394 31.0003999999999  268.9614 31.0003999999999  268.9614 31.0003999999999  C 281.6634 31.0003999999999  291.9614 20.7023999999999  291.9614 8.0003999999999  C 291.9614 7.99139999999989  291.9594 6.71439999999984  291.9544 4.1694  C 291.9544 4.0773999999999  291.9704 3.9864  292.0024 3.90039999999999  C 292.6684 2.07339999999999  294.2114 0.67639999999983  296.1084 0.216399999999794  C 296.1084 0.216399999999794  297.0004 0.000399999999899592  297.0004 0  L 78.0003999999999 0  C 78.0003999999999 0.000399999999899592  78.8914 0.216399999999794  78.8914 0.216399999999794  Z " fill-rule="nonzero" fill="#000000" stroke="none" transform="matrix(1 0 0 1 11 -952 )" />
  </g>
</svg>