<?xml version="1.0" encoding="utf-8"?>
<svg version="1.1" xmlns:xlink="http://www.w3.org/1999/xlink" width="10px" height="7px" xmlns="http://www.w3.org/2000/svg">
  <g transform="matrix(1 0 0 1 -136 -405 )">
    <path d="M 9.51388888888889 7  L 5.20833333333335 7  L 2.71361773628825 7  L 0.347222222222237 7  C 0.253182870370415 7  0.171802662037107 6.94980374396105  0.103081597222218 6.84941123188464  C 0.0343605324073482 6.74901871980673  0 6.63013285024126  0 6.492753623189  C 0 6.3553743961352  0.0343605324073482 6.23648852656975  0.103081597222218 6.13609601449334  L 2.53363715277778 2.58537137681176  C 2.60235821759265 2.48497886473461  2.683738425926 2.43478260869566  2.77777777777774 2.43478260869566  C 2.87181712962957 2.43478260869566  2.95319733796289 2.48497886473461  3.02191840277778 2.58537137681176  L 3.68884090903733 3.55966010109586  L 5.76931423611111 0.230902777777703  C 5.86552372685203 0.076967592592299  5.97945601851871 0  6.11111111111111 0  C 6.24276620370351 0  6.35669849537018 0.076967592592299  6.45290798611111 0.230902777777703  L 9.85568576388887 5.6753472222223  C 9.95189525462984 5.82928240740694  10 6.01157407407387  10 6.22222222222231  C 10 6.43287037037001  9.95189525462984 6.61516203703692  9.85568576388887 6.7690972222223  C 9.75947627314797 6.92303240740694  9.64554398148127 7  9.51388888888889 7  Z " fill-rule="nonzero" fill="#282828" stroke="none" transform="matrix(1 0 0 1 136 405 )" />
  </g>
</svg>