<?xml version="1.0" encoding="utf-8"?>
<svg version="1.1" xmlns:xlink="http://www.w3.org/1999/xlink" width="34px" height="6px" xmlns="http://www.w3.org/2000/svg">
  <g transform="matrix(1 0 0 1 -132 -1133 )">
    <path d="M 33.9977243389379 0.27956070544556  C 34.0166220214526 0.0599959209374562  33.9171821657688 0.00111562685011445  33.7232540749163 0.00438155141272232  C 32.8239346586229 0.0191716114474191  31.924433543945 0.0344282317045653  31.02529586993 0.0313955650880195  C 30.8134240903529 0.0306957010864541  30.7530061178381 0.0987206853828983  30.7222974283773 0.30844096113772  C 30.6251289555797 0.971754277995386  30.3923153104882 1.56195713170686  29.7783232167296 1.9114131734856  C 29.4419813056951 2.10279751934305  29.0814267833814 2.21934508723012  28.7048819275489 2.27981172424295  C 26.6331810920901 2.61237820564842  24.5492149369685 2.83446240844524  22.4569810453811 2.96468029912133  C 21.3150357463357 3.03569126230462  20.1708190636726 3.08402723059719  19.0271929783965 3.09909723630765  C 17.6523431629376 3.11729319355499  16.27712990645 3.10870844090615  14.9015987111672 3.08342069697334  C 13.0726600431308 3.04978145833774  11.2482640969727 2.96309395619583  9.4267754566483 2.79480452317922  C 8.03502677258587 2.66621961732527  6.64718480003236 2.50250250574533  5.26788313328559 2.27332651701439  C 4.79716798144535 2.19513048335234  4.34198889539854 2.05166218708599  3.96185531111203 1.72464783679452  C 3.50812989956319 1.33432079742035  3.34609155906898 0.802998284004954  3.26218781270673 0.234117431119495  C 3.24229076767909 0.0992805759830516  3.209310739226 0.02691657290202  3.05858376922984 0.0333551374825687  C 2.42669344362313 0.0606957387302782  1.7959387655656 -0.0250119537343089  1.24286436928927 0.00746086067726557  C 0.843923973810195 0.00746086067726557  0.524253775386795 0.00900051549738413  0.204492749535199 0.00680768515676426  C 0.0520395353345008 0.00578123358278657  -0.00924155928256944 0.0784251815882201  0.00111581779112073 0.23365087052136  C 0.0513126979026284 0.990836759999705  0.151706503116879 1.73934461228455  0.421134363820786 2.45052733683667  C 0.838972397189052 3.55362339785539  1.56094460891009 4.3227066988593  2.70234476854231 4.64827467887531  C 3.74439598843827 4.94556893644735  4.80648053803228 5.12552247758609  5.87410717274923 5.275429338433  C 7.98028716986442 5.57118394118491  10.0992775806985 5.72827587251058  12.21944905243 5.86913137427745  C 13.7033692189549 5.9677162417362  15.1901513214931 5.98236632912085  16.6756614471863 5.9962232675836  C 18.2134580943303 6.01059340966818  19.7521179082021 5.98637875995735  21.2881428974275 5.88149530056809  C 22.1404907217663 5.82326818200125  22.99470107498 5.79102862516005  23.846412933209 5.72496325984259  C 25.1499422603979 5.62371900106941  26.4518362589639 5.49984638967786  27.7485969386304 5.32656467106572  C 28.9580014274195 5.16494706020004  30.1605918553379 4.97314284072281  31.3386971019047 4.63497758593102  C 32.4036435428866 4.32923850252713  33.0893649357642 3.60634502758056  33.5198771431722 2.5993610580042  C 33.834868334681 1.8629838748153  33.9289932173404 1.0729985826016  33.9977243389379 0.27956070544556  Z " fill-rule="nonzero" fill="#42bd56" stroke="none" transform="matrix(1 0 0 1 132 1133 )" />
  </g>
</svg>