<?xml version="1.0" encoding="utf-8"?>
<svg version="1.1" xmlns:xlink="http://www.w3.org/1999/xlink" width="3px" height="10px" xmlns="http://www.w3.org/2000/svg">
  <g transform="matrix(1 0 0 1 -132 -1122 )">
    <path d="M 0.000952595765326286 9.59245881572399  C 0.00129126913439478 9.885054385558  0.0857101939924284 9.99545838061385  0.329144828272131 9.997091977455  C 1.11211537682669 10.0022196772758  1.89508592572215 9.99904321201631  2.67809879762437 9.99886171095919  C 2.87123774555863 9.99877093832483  2.97208318480817 9.88718712117644  2.99265871369977 9.6887957581307  C 3.00188807315884 9.60062684487209  2.9995595605411 9.51077897001287  2.9995595605411 9.42179323641057  C 2.99989823356927 7.94379551058483  2.99981358585125 6.46584314878776  2.99981358619215 4.9878907869907  C 2.99981358619215 3.47281947076898  3.000490973497 1.95774811033565  2.99926321120148 0.442631429719855  C 2.99905150957989 0.0748904022700744  2.92767224372254 0.000970086198545252  2.58267241795139 0.000561676209397192  C 1.8620634777576 -0.000209735893995113  1.14141221353435 -0.000164371499921998  0.420803273340564 0.000561676209397192  C 0.0619594291755067 0.000970086563930698  0.000275208460478959 0.0679476041855738  0.000275208460478959 0.457333802020932  C -2.11408791341038E-05 2.22497754171858  6.35068388831838E-05 3.99257587244516  0.000190519153064547 5.76017420390251  C 0.000190519153064547 7.03755701421812  -0.000571557459197193 8.3149852331394  0.000952595765326286 9.59245881572399  Z " fill-rule="nonzero" fill="#42bd56" stroke="none" transform="matrix(1 0 0 1 132 1122 )" />
  </g>
</svg>