<?xml version="1.0" encoding="utf-8"?>
<svg version="1.1" xmlns:xlink="http://www.w3.org/1999/xlink" width="10px" height="15px" xmlns="http://www.w3.org/2000/svg">
  <g transform="matrix(1 0 0 1 -152 -1117 )">
    <path d="M 6.75346662516762 9.33912215808995  C 6.99833471487324 8.67407194357478  7.23974521320414 8.00769060842146  7.4818760729105 7.34154692358673  C 8.30407405458584 5.07991054108968  9.12708846100382 2.81846437195198  9.94678930168813 0.555877108331169  C 10.0833660940208 0.179040724024071  9.95831474573442 0.00412514757509067  9.55674828670847 0.00246108273436345  C 8.71582139339842 -0.000819470254568071  7.87489450086174 -0.000391559871256082  7.0338235822973 0.0026988256980341  C 6.71154270699522 0.00383987385860416  6.64118936218608 0.0559009510314628  6.54336694870654 0.363370142084441  C 6.23400418357705 1.33536648311858  5.9252657620845 2.30760052117668  5.62248212013311 3.28168883820051  C 5.41511976763538 3.94916373784979  5.21822634543305 4.61982408380833  4.99996284573729 5.34444726918724  C 4.96457004206708 5.22358959213294  4.94651348313193 5.16477724194541  4.92989759899898 5.10558455730143  C 4.48583098003031 3.51565450818352  3.97837425407991 1.94474221668012  3.4776887788153 0.371880632559221  C 3.37962627555415 0.0638884244432539  3.29986042062309 0.00455310351527634  2.98900897240215 0.00322188946638974  C 2.13237863666695 -0.000534103893005047  1.27565223717791 -0.00172272836326682  0.418925884477554 0.00360222354001002  C 0.0521278854848544 0.00588436580085936  -0.0780138557128279 0.200911216889277  0.0451646012554307 0.538000537844844  C 0.162772392945176 0.859923201990636  0.28081240115086 1.18160816872963  0.398035984613908 1.50367347030791  C 1.19415760976047 3.6922341961786  1.97049385708351 5.88821184879377  2.79576531587096 8.06597998825137  C 3.1316846623344 8.95206373441991  3.3384707266598 9.83001736974416  3.2982756737778 10.7867995235985  C 3.24660318552542 12.0140613877857  3.28415697781126 13.2451743527775  3.28684624630998 14.4746232525459  C 3.28771067934185 14.8976251691327  3.39422519671256 14.999322498611  3.81413635875983 14.9996077719447  C 4.60800093192361 15.0001307426851  5.40191351298995 15.0001307426851  6.19568202201319 14.9996077719447  C 6.62226837060573 14.999322498611  6.69036466304541 14.9326653572354  6.69046072679926 14.5137522377116  C 6.69094095160444 12.9419365950716  6.69108502403421 11.3700734228273  6.69007656536125 9.79821025058293  C 6.68998050160741 9.64183694428979  6.69828844406056 9.48898188839238  6.75346662516762 9.33912215808995  Z " fill-rule="nonzero" fill="#42bd56" stroke="none" transform="matrix(1 0 0 1 152 1117 )" />
  </g>
</svg>