<?xml version="1.0" encoding="utf-8"?>
<svg version="1.1" xmlns:xlink="http://www.w3.org/1999/xlink" width="16px" height="9px" xmlns="http://www.w3.org/2000/svg">
  <g transform="matrix(1 0 0 1 -1142 -287 )">
    <path d="M 15.5707133894817 1.49366263484858  C 16.0141228151676 1.15223183542261  16.0095869605564 0.603603584087245  15.5626223969131 0.26729795047408  C 15.1156578332698 -0.0698463348169807  14.3927422726753 -0.0663984994444036  13.9503135280106 0.27424026263538  L 5.63794926905482 6.66209023068978  L 1.95839858689025 3.78797708580109  C 1.51823778734756 3.44389048834873  0.796486843368888 3.43783344219623  0.346089717987803 3.77064462610593  C -0.10547198837657 4.10434107602441  -0.115708278582337 4.65385456628251  0.323287904344546 4.99621724604858  L 4.81359016368136 8.50389702306138  C 4.81585807317075 8.50650620675646  4.82045521589175 8.50650620675646  4.82272316101373 8.50911539045114  C 4.82499107050305 8.51083930813743  4.82615568711885 8.51433375784091  4.82842359660824 8.51605770261244  C 4.90026156364332 8.56977899938383  4.98920090872715 8.6027200010879  5.07360439919971 8.63915542540976  C 5.11804340987042 8.65737315111374  5.15341074695124 8.68770494203704  5.19901437423776 8.70154295202874  C 5.3369898727134 8.74487410126625  5.48409833288876 8.76653966234239  5.63004221208078 8.76653966234239  C 5.77488276276674 8.76653966234239  5.91966202534296 8.74487410126625  6.05647290720269 8.70326686971503  C 6.10091191787347 8.68938227247768  6.13517592644816 8.66165963816338  6.17734702762959 8.64432717846821  C 6.26285381097563 8.60793834139199  6.35179315605945 8.57583601845108  6.42479573971034 8.52122945567089  C 6.42706364919973 8.51950553798502  6.42822826581553 8.51601108828154  6.43166079192073 8.51428714350959  C 6.43392870141004 8.51167795981491  6.43736122751524 8.51083928105177  6.44079378925302 8.50906877611982  L 12.359754627052 3.96095487921348  L 15.5707133894817 1.49366263484858  Z " fill-rule="nonzero" fill="#ffffff" stroke="none" transform="matrix(1 0 0 1 1142 287 )" />
  </g>
</svg>