<?xml version="1.0" encoding="utf-8"?>
<svg version="1.1" xmlns:xlink="http://www.w3.org/1999/xlink" width="25px" height="17px" xmlns="http://www.w3.org/2000/svg">
  <g transform="matrix(1 0 0 1 -2093 -292 )">
    <path d="M 14.1494988864143 14.2875600961538  C 14.2376577579807 14.2228565705128  14.2817371937639 14.142828525641  14.2817371937639 14.0474759615385  L 14.2817371937639 12.1063701923077  C 14.2817371937639 12.0110176282051  14.2376577579807 11.9309895833333  14.1494988864143 11.8662860576923  C 14.0613400148478 11.8015825320513  13.9569413511507 11.7692307692308  13.8363028953229 11.7692307692308  L 11.1636971046771 11.7692307692308  C 11.0430586488493 11.7692307692308  10.9386599851522 11.8015825320513  10.8505011135857 11.8662860576923  C 10.7623422420193 11.9309895833333  10.7182628062361 12.0110176282051  10.7182628062361 12.1063701923077  L 10.7182628062361 14.0474759615385  C 10.7182628062361 14.142828525641  10.7623422420193 14.2228565705128  10.8505011135857 14.2875600961538  C 10.9386599851522 14.3522636217949  11.0430586488493 14.3846153846154  11.1636971046771 14.3846153846154  L 13.8363028953229 14.3846153846154  C 13.9569413511507 14.3846153846154  14.0613400148478 14.3522636217949  14.1494988864143 14.2875600961538  Z M 14.1077394209354 10.3951322115385  C 14.1958982925019 10.3508613782051  14.2446176688938 10.294671474359  14.2538975501114 10.2265625  L 14.5044543429844 5.53725961538462  C 14.5044543429844 5.45552884615385  14.4580549368968 5.39082532051282  14.3652561247216 5.34314903846154  C 14.2446176688938 5.26822916666667  14.1332590942836 5.23076923076923  14.0311804008909 5.23076923076923  L 10.9688195991091 5.23076923076923  C 10.8667409057164 5.23076923076923  10.7553823311062 5.26822916666667  10.6347438752784 5.34314903846154  C 10.5419450631032 5.39082532051282  10.4955456570156 5.46233974358974  10.4955456570156 5.55769230769231  L 10.7321826280624 10.2265625  C 10.7321826280624 10.294671474359  10.77858203415 10.3508613782051  10.8713808463252 10.3951322115385  C 10.9641796585004 10.4394030448718  11.0755382331106 10.4615384615385  11.2054565701559 10.4615384615385  L 13.7806236080178 10.4615384615385  C 13.9105419450631 10.4615384615385  14.019580549369 10.4394030448718  14.1077394209354 10.3951322115385  Z M 13.4047884187082 0.183894230769231  C 13.6831848552339 0.306490384615384  13.9012620638456 0.473357371794871  14.0590200445434 0.684495192307693  L 24.7494432071269 15.0691105769231  C 25.0742390497402 15.4981971153846  25.0649591685226 15.9272836538462  24.7216035634744 16.3563701923077  C 24.5638455827765 16.5538862179487  24.3480883444692 16.7105368589744  24.0743318485523 16.8263221153846  C 23.8005753526355 16.9421073717949  23.5059391239792 17  23.1904231625835 17  L 1.80957683741648 17  C 1.49406087602079 17  1.19942464736451 16.9421073717949  0.925668151447661 16.8263221153846  C 0.651911655530809 16.7105368589744  0.43615441722346 16.5538862179487  0.278396436525612 16.3563701923077  C -0.0649591685226429 15.9272836538462  -0.0742390497401633 15.4981971153846  0.250556792873051 15.0691105769231  L 10.9409799554566 0.684495192307693  C 11.0987379361544 0.473357371794871  11.3168151447661 0.306490384615384  11.5952115812918 0.183894230769231  C 11.8736080178174 0.0612980769230776  12.1752041573868 0  12.5 0  C 12.8247958426132 0  13.1263919821826 0.0612980769230776  13.4047884187082 0.183894230769231  Z " fill-rule="nonzero" fill="#f59a23" stroke="none" transform="matrix(1 0 0 1 2093 292 )" />
  </g>
</svg>