<?xml version="1.0" encoding="utf-8"?>
<svg version="1.1" xmlns:xlink="http://www.w3.org/1999/xlink" width="370px" height="326px" xmlns="http://www.w3.org/2000/svg">
  <defs>
    <filter x="3px" y="517px" width="370px" height="326px" filterUnits="userSpaceOnUse" id="filter421">
      <feOffset dx="0" dy="1" in="SourceAlpha" result="shadowOffsetInner" />
      <feGaussianBlur stdDeviation="4.5" in="shadowOffsetInner" result="shadowGaussian" />
      <feComposite in2="shadowGaussian" operator="atop" in="SourceAlpha" result="shadowComposite" />
      <feColorMatrix type="matrix" values="0 0 0 0 0.666666666666667  0 0 0 0 0.768627450980392  0 0 0 0 0.870588235294118  0 0 0 1 0  " in="shadowComposite" />
    </filter>
    <g id="widget422">
      <path d="M 344 60.25  C 344 63.97792206115  347.5817220016 67  352 66.9964989046753  L 352 299.5  C 352 303.98  348.48 307.5  344 307  L 9 307  C 4.52000000000044 307.5  1 303.98  1 299.5  L 1 66.9870213194603  C 1.16523627440802 66.9956313380453  1.33201348199145 67  1.5 67  C 5.9182779984003 67  9.5 63.97792206115  9.5 60.25  C 9.5 56.52207793885  5.9182779984003 53.5  1.5 53.5  C 1.3320737555041 53.5  1.16535595378809 53.504365527568  1 53.5130209045345  L 1 8.5  C 1 4.01999999999998  4.52000000000044 0.5  9 1  L 344 1  C 348.48 0.5  352 4.01999999999998  352 8.5  L 352 53.5  C 347.5817220016 53.5  344 56.52207793885  344 60.25  Z " fill-rule="nonzero" fill="#ffffff" stroke="none" transform="matrix(1 0 0 1 12 525 )" />
    </g>
  </defs>
  <g transform="matrix(1 0 0 1 -3 -517 )">
    <use xlink:href="#widget422" filter="url(#filter421)" />
    <use xlink:href="#widget422" />
  </g>
</svg>