<?xml version="1.0" encoding="utf-8"?>
<svg version="1.1" xmlns:xlink="http://www.w3.org/1999/xlink" width="19px" height="10px" xmlns="http://www.w3.org/2000/svg">
  <g transform="matrix(1 0 0 1 -43 -270 )">
    <path d="M 15.1550685168501 2.43374859362709  L 12.1216894537508 0.556122359205108  C 11.1491759271967 0.19645649554239  10.097530400139 0  9 0  C 4.0294372518 0  0 4.02943725180002  0 9  C 0 9  18 9  18 9  C 18 6.41013000185579  16.9060708250167 4.07576085246478  15.1550685168501 2.43374859362709  Z " fill-rule="nonzero" fill="#ffffff" stroke="none" transform="matrix(1 0 0 1 43 270 )" />
    <path d="M 12.1216894537508 0.556122359205108  C 11.1491759271967 0.19645649554239  10.097530400139 0  9 0  C 4.0294372518 0  0 4.02943725180002  0 9  C 0 9  18 9  18 9  C 18 6.41013000185579  16.9060708250167 4.07576085246478  15.1550685168501 2.43374859362709  " stroke-width="1" stroke="#7e7e7e" fill="none" transform="matrix(1 0 0 1 43 270 )" />
  </g>
</svg>