<?xml version="1.0" encoding="utf-8"?>
<svg version="1.1" xmlns:xlink="http://www.w3.org/1999/xlink" width="54px" height="62px" xmlns="http://www.w3.org/2000/svg">
  <defs>
    <linearGradient gradientUnits="userSpaceOnUse" x1="28.2839834220846" y1="57.3293289424889" x2="28.2839834220846" y2="4.17575761637127" id="LinearGradient416">
      <stop id="Stop417" stop-color="#3fc1e2" offset="0" />
      <stop id="Stop418" stop-color="#342da1" offset="1" />
    </linearGradient>
  </defs>
  <g transform="matrix(1 0 0 1 -256 -122 )">
    <path d="M 0 4.83398646068847  L 0 4.83398646068846  L 6.45942723105126 0  C 6.45942723105126 0  16.463274824735 8.3734033786143  29.4887957392853 4.83398646068846  C 29.4887957392853 4.83398646068846  37.5791611707398 20.812065883617  52.2217780743063 24.1429450672381  C 52.2217780743063 24.1429450672381  53 54.1566760120841  53 54.1566760120841  C 53 54.1566760120841  50.4968600458781 58.0362458691132  46.1124773665567 61  C 46.1124773665567 61  46.1124773665567 29.0145500996051  46.1124773665567 29.0145500996051  C 46.1124773665567 29.0145500996051  34.327869990406 25.0605110981791  22.3934410321911 10.8954832711474  C 22.3934410321911 10.8954832711474  11.0638952315598 13.0981276133143  0 4.83398646068847  Z " fill-rule="nonzero" fill="url(#LinearGradient416)" stroke="none" transform="matrix(1 0 0 1 256 122 )" />
  </g>
</svg>