<?xml version="1.0" encoding="utf-8"?>
<svg version="1.1" xmlns:xlink="http://www.w3.org/1999/xlink" width="153px" height="113px" xmlns="http://www.w3.org/2000/svg">
  <defs>
    <linearGradient gradientUnits="userSpaceOnUse" x1="76.5" y1="0" x2="-12.656286992913" y2="102.722497387897" id="LinearGradient401">
      <stop id="Stop402" stop-color="#c9dffa" offset="0" />
      <stop id="Stop403" stop-color="#dcecfd" offset="1" />
    </linearGradient>
  </defs>
  <g transform="matrix(1 0 0 1 -222 -137 )">
    <path d="M 49.0682531432059 37.6223318993504  C 57.7591513456886 37.6223318993504  92.6962101596622 -0.984896542979587  92.6962101596622 -0.984896542979587  C 92.6962101596622 -0.984896542979587  133.543683111339 20.8497199341894  149.997813494691 17.2131355981996  C 162.819878273152 14.3792866592382  131.945037378684 53.6680016071806  106.998836702902 71.0866646360929  C 105.890631590949 71.8604678962729  105.520051021003 71.6659829259064  104.43959658086 72.3478560316739  C 100.118746100827 75.0747380055102  95.3286665988273 77.9467747744603  91.7994607568217 78.7548991245306  C 90.4397868304109 79.0662398785921  87.2778790347824 80.6094086807989  85.23023476977 81.6545195804747  C 85.23023476977 81.6545195804747  81.8687061586843 83.5267361873573  80.8641790451789 84.2670886834223  C 60.7467743100521 99.0939366696617  59.2438085231668 104.348747738012  70.5327856432927 110.978584349982  C 88.3117940575133 121.419913059826  0 88.6075464991529  0 76.5418432070979  C 0 64.4761399150429  40.3773549407231 37.6223318993504  49.0682531432059 37.6223318993504  Z " fill-rule="nonzero" fill="url(#LinearGradient401)" stroke="none" transform="matrix(1 0 0 1 222 137 )" />
  </g>
</svg>