<?xml version="1.0" encoding="utf-8"?>
<svg version="1.1" xmlns:xlink="http://www.w3.org/1999/xlink" width="15px" height="19px" xmlns="http://www.w3.org/2000/svg">
  <defs>
    <filter x="209px" y="179px" width="15px" height="19px" filterUnits="userSpaceOnUse" id="filter408">
      <feOffset dx="0" dy="2" in="SourceAlpha" result="shadowOffsetInner" />
      <feGaussianBlur stdDeviation="1" in="shadowOffsetInner" result="shadowGaussian" />
      <feComposite in2="shadowGaussian" operator="atop" in="SourceAlpha" result="shadowComposite" />
      <feColorMatrix type="matrix" values="0 0 0 0 0.870588235294118  0 0 0 0 0.592156862745098  0 0 0 0 0  0 0 0 1 0  " in="shadowComposite" />
    </filter>
    <g id="widget409">
      <path d="M 10.9952312507763 8.21187327119314  C 10.9952312507763 8.21187327119314  10.9952312507763 7.073824411334  10.9952312507763 7.073824411334  C 10.9952312507763 6.93547337346877  10.927292039416 6.79712233560355  10.8185893012395 6.65877129773832  C 10.7144158438205 6.52042025987309  10.5740081403425 6.45347620929314  10.3973661908058 6.45347620929314  C 10.3973661908058 6.45347620929314  8.36824841151218 6.45347620929314  8.36824841151218 6.45347620929314  C 8.19160646197545 6.45347620929314  8.01949379319608 6.4177727156505  7.84285184365936 6.38653215871319  C 7.63450492882117 6.35082866507055  7.59827068276235 6.24818112084796  7.70244414018145 6.07412658934009  C 7.73867838624026 6.00718253876014  7.91079105501963 5.76172101996699  8.19160646197545 5.35113084307664  C 8.47242186893127 4.93607772948095  8.78494224118855 4.2130819832175  9.13822614026199 3.76678831268451  C 9.48698075857809 3.32049464215151  9.80403041159272 2.86973803491318  10.11655078385 2.4546849213175  C 10.4336004368646 2.03963180772181  10.605713105644 1.76739266869669  10.6781815977616 1.66028218776877  C 10.8185893012395 1.38358011203831  10.7144158438204 1.07563747937054  10.361131944747 0.696287859417494  C 10.3248976986882 0.629343808837545  10.1844899952103 0.522233327909627  9.97614308037209 0.383882290044397  C 9.79950113083537 0.245531252179168  9.62738846205599 0.142883707956581  9.45074651251927 0.0714767206713004  C 9.16993110556345 0.00453267009135108  8.96158419072527 -0.0311708235512891  8.85741073330617 0.0357732270286603  C 8.75323727588708 0.10271727760861  8.61282957240917 0.241068315473839  8.43618762287245 0.482066897561656  C 8.36824841151217 0.584714441784245  8.22784070803426 0.861416517514702  7.94702530107845 1.24076613746775  C 7.70244414018145 1.65581925106344  7.42162873322563 2.06640942795379  7.10910836096835 2.51716603519212  C 6.79205870795372 2.96345970572511  6.51577258175525 3.3785128193208  6.27119142085825 3.7221589456312  C 6.02661025996125 4.10150856558425  5.88620255648334 4.30680365402943  5.84996831042452 4.37821064131471  C 5.78202909906425 4.51656167917994  5.64162139558634 4.58350572975989  5.46497944604961 4.55226517282258  C 5.28833749651289 4.51656167917993  5.18416403909379 4.44961762859999  5.11622482773352 4.31126659073476  C 5.0799905816747 4.24432254015481  4.93958287819679 4.07026800864694  4.66329675199833 3.72662188233653  C 4.41871559110133 3.41421631296344  4.1016659380867 3.03932962971572  3.82537981188823 2.62427651612004  C 3.5083301588736 2.17798284558704  3.23204403267513 1.8298737825713  2.95122862571932 1.45052416261826  C 2.6704132187635 1.07117454266521  2.49830054998413 0.830175960577393  2.38959781180768 0.691824922712163  C 2.07254815879305 0.107180214313938  1.76002778653577 -0.0668743171939292  1.44297813352114 0.13842077125125  C 1.19839697262414 0.276771809116479  0.99005005778595 0.450826340624347  0.813408108249227 0.584714441784245  C 0.636766158712505 0.723065479649475  0.464653489933133 0.861416517514702  0.288011540396407 0.964064061737292  C -0.0290381126182248 1.20506264382511  -0.0969773239785031 1.5174682131982  0.147603836918498 1.89681783315125  C 0.709234650830131 2.55286952883475  1.2301019379256 3.20892122451826  1.65132504835933 3.79356593291648  C 2.03631391273424 4.27556309709212  2.52547623452824 4.99855884335557  2.87423085284434 5.4493154505939  C 3.19128050585897 5.86436856418958  3.22298547116043 6.13660770321471  3.29545396327806 6.20801469049999  C 3.36339317463834 6.34636572836522  3.29545396327806 6.41330977894517  3.08710704843987 6.41330977894517  C 3.08710704843987 6.41330977894517  2.49377126922677 6.41330977894517  2.49377126922677 6.41330977894517  C 2.31712931969005 6.41330977894517  2.28542435438859 6.41330977894517  1.96837470137395 6.44901327258781  C 1.65132504835932 6.44901327258781  1.37503892216086 6.44901327258781  1.09422351520504 6.41330977894517  C 0.813408108249222 6.41330977894517  0.605061193411034 6.48025382952512  0.428419243874312 6.61860486739035  C 0.288011540396402 6.75695590525558  0.220072329036124 6.93101043676345  0.288011540396402 7.13630552520863  C 0.324245786455218 7.27465656307385  0.324245786455218 7.47995165151903  0.324245786455218 7.75665372724949  C 0.324245786455218 7.75665372724949  0.324245786455218 8.27435438506777  0.324245786455218 8.27435438506777  C 0.324245786455218 8.44840891657563  0.360480032514034 8.55105646079822  0.464653489933128 8.55105646079822  C 0.568826947352222 8.58675995444086  0.673000404771315 8.58675995444086  0.813408108249222 8.58675995444086  C 0.813408108249222 8.58675995444086  3.92955326930733 8.58675995444086  3.92955326930733 8.58675995444086  C 4.31454213368224 8.58675995444086  4.52288904852042 8.65370400502081  4.52288904852042 8.82775853652868  C 4.52288904852042 8.82775853652868  4.52288904852042 9.51951372585482  4.52288904852042 9.51951372585482  C 4.52288904852042 9.7248088143  4.48665480246161 9.79621580158528  4.41871559110133 9.79621580158528  C 4.41871559110133 9.79621580158528  0.84964235430804 9.79621580158528  0.84964235430804 9.79621580158528  C 0.673000404771318 9.76051230794264  0.532592701293408 9.79621580158528  0.46465348993313 9.93456683945051  C 0.428419243874314 10.1086213709584  0.360480032514036 10.2469724088236  0.32424578645522 10.4165640036261  C 0.288011540396405 10.5861555984287  0.288011540396405 10.657562585714  0.32424578645522 10.7959136235792  C 0.360480032514036 10.9342646614444  0.360480032514036 11.0726156993096  0.360480032514036 11.1752632435322  C 0.360480032514036 11.6572604077079  0.605061193411037 11.862555496153  1.02628430384476 11.862555496153  C 1.02628430384476 11.862555496153  4.31454213368224 11.862555496153  4.31454213368224 11.862555496153  C 4.45494983716014 11.862555496153  4.55912329457924 11.8982589897957  4.59535754063805 11.929499546733  C 4.59535754063805 11.9964435973129  4.63159178669687 12.1035540782409  4.63159178669687 12.2731456730434  C 4.66782603275568 12.4472002045513  4.69953099805715 13.0987889635294  4.66782603275568 13.5495455707678  C 4.63612106745421 14.0003021780061  4.63159178669687 14.3082448106739  4.63159178669687 14.4465958485391  C 4.63159178669687 14.8259454684921  4.83993870153506 15  5.26116181196878 15  C 5.26116181196878 15  6.41612840509351 15  6.41612840509351 15  C 6.66070956599051 15  6.80111726946842 14.8973524557774  6.80111726946842 14.7232979242695  C 6.80111726946842 14.7232979242695  6.80111726946842 12.3445526603287  6.80111726946842 12.3445526603287  C 6.80111726946842 12.0009065340183  6.97775921900514 11.8268520025104  7.25404534520361 11.8268520025104  C 7.25404534520361 11.8268520025104  7.7069734209388 11.8268520025104  7.7069734209388 11.8268520025104  C 7.91532033577699 11.8268520025104  8.1961357427328 11.8268520025104  8.47695114968862 11.7911485088678  C 8.75776655664444 11.7554450152251  9.03858196360025 11.7554450152251  9.28316312449725 11.7554450152251  C 9.28316312449725 11.7554450152251  10.2614877680853 11.7554450152251  10.2614877680853 11.7554450152251  C 10.7144158438205 11.7554450152251  10.9589970047175 11.5813904837173  10.9589970047175 11.2377443574069  C 10.9589970047175 11.2377443574069  10.9589970047175 10.2023430417703  10.9589970047175 10.2023430417703  C 10.9589970047175 9.88993747239721  10.7823550551807 9.72034587759467  10.4698346829234 9.72034587759467  C 10.4698346829234 9.72034587759467  7.24951606444626 9.72034587759467  7.24951606444626 9.72034587759467  C 6.93246641143162 9.78728992817462  6.76035374265226 9.72034587759467  6.76035374265226 9.51505078914949  C 6.76035374265226 9.41240324492691  6.76035374265226 9.44810673856954  6.72411949659344 9.27405220706167  C 6.68788525053463 9.09999767555381  6.68788525053463 8.96164663768858  6.68788525053463 8.82775853652868  C 6.68788525053463 8.68940749866345  6.75582446189491 8.76081448594873  6.86452720007135 8.68940749866345  C 7.00493490354926 8.6224634480835  7.10910836096835 8.58675995444086  7.24951606444626 8.58675995444086  C 7.24951606444626 8.58675995444086  10.5423031750411 8.58675995444086  10.5423031750411 8.58675995444086  C 10.8593528280557 8.59122289114619  11.0314654968351 8.4885753469236  10.9952312507763 8.21187327119315  Z " fill-rule="nonzero" fill="#ffd885" stroke="none" transform="matrix(1 0 0 1 211 179 )" />
    </g>
  </defs>
  <g transform="matrix(1 0 0 1 -209 -179 )">
    <use xlink:href="#widget409" filter="url(#filter408)" />
    <use xlink:href="#widget409" />
  </g>
</svg>