<?xml version="1.0" encoding="utf-8"?>
<svg version="1.1" xmlns:xlink="http://www.w3.org/1999/xlink" width="13px" height="10px" xmlns="http://www.w3.org/2000/svg">
  <defs>
    <linearGradient gradientUnits="userSpaceOnUse" x1="6.5" y1="0.649980460846444" x2="6.5" y2="9.73485129198598" id="LinearGradient469">
      <stop id="Stop470" stop-color="#ffc54f" offset="0" />
      <stop id="Stop471" stop-color="#ff7446" offset="1" />
    </linearGradient>
  </defs>
  <g transform="matrix(1 0 0 1 -217 -755 )">
    <path d="M 0 1  C 0 0.445747800586511  0.432015638575153 0  0.962858384013902 0  C 0.962858384013902 0  12.0371416159861 0  12.0371416159861 0  C 12.5679843614249 0  13 0.44868035190616  13 1  C 13 1  13 9  13 9  C 13 9.55131964809384  12.5679843614249 10  12.0371416159861 10  C 12.0371416159861 10  0.962858384013902 10  0.962858384013902 10  C 0.432015638575153 10  0 9.55131964809384  0 9  C 0 9  0 1  0 1  Z " fill-rule="nonzero" fill="url(#LinearGradient469)" stroke="none" transform="matrix(1 0 0 1 217 755 )" />
  </g>
</svg>