<?xml version="1.0" encoding="utf-8"?>
<svg version="1.1" xmlns:xlink="http://www.w3.org/1999/xlink" width="19px" height="17px" xmlns="http://www.w3.org/2000/svg">
  <defs>
    <linearGradient gradientUnits="userSpaceOnUse" x1="18.4175564333115" y1="8.57038091393953" x2="1.70872898456618" y2="8.57038091393953" id="LinearGradient453">
      <stop id="Stop454" stop-color="#87e0f6" offset="0" />
      <stop id="Stop455" stop-color="#8179f8" offset="1" />
    </linearGradient>
  </defs>
  <g transform="matrix(1 0 0 1 -55 -643 )">
    <path d="M 10.4070878790853 16.7839796590414  C 11.0706363619074 16.8960996950533  11.7525892582153 16.7793269388361  12.3410312342048 16.4528249749455  C 15.7291116067536 14.5689227766884  17.729285898693 13.3914838976035  18.3415541100221 12.9205083376906  C 18.6638779956429 12.6335076045751  19.3085257875819 11.1808424041394  18.7919244803925 10.1917937407408  C 18.5160090450518 9.55932345210806  17.9335760113618 9.11373715238631  17.2509513366012 9.01288306535946  C 16.2442410969497 8.77445169281043  15.0476688384169 9.10854997639797  13.6612345610019 10.015177916122  C 13.7649328694079 10.511704746089  13.7649328694079 11.0243010567432  13.6612345610019 11.5208278867102  C 13.5111111111109 12.0815831448801  12.8973710827886 12.9558315108932  11.0738126361657 12.6202614379084  C 11.0738126361657 12.6202614379084  5.83715323856177 11.6356281633987  5.83715323856177 11.6356281633987  C 5.53123710802629 11.5672829481293  5.33543029678367 11.2676985362907  5.39561364596921 10.9600726078431  C 5.48255615033304 10.625098199229  5.81557912130938 10.3806676036306  6.15506173529411 10.4478867102397  C 6.15506173529411 10.4478867102397  11.5992447418303 11.538489462963  11.5992447418303 11.538489462963  C 11.7846913649237 11.6047203997821  12.7428322440092 11.7151052875817  12.9017864923744 11.1985039803922  C 13.1187752870956 10.6946353821418  12.8983322948889 10.1093885082704  12.402846761438 9.87388524400876  C 12.402846761438 9.87388524400876  7.06463325381264 8.27109657298479  7.06463325381264 8.27109657298479  C 6.49146556026062 8.09943749106935  5.89678217782421 8.01023498335542  5.2984749455336 8.00617282570806  C 5.2984749455336 8.00617282570806  2.94948439324617 8.00617282570806  2.94948439324617 8.00617282570806  C 2.53980702587705 8.00617282570806  2.20769790087161 8.33828195071374  2.20769790087161 8.74795931808274  C 2.20769790087161 8.74795931808274  2.20769790087161 14.8014669433551  2.20769790087161 14.8014669433551  C 2.21752842864862 15.1556483386578  2.47646821249964 15.4534290996232  2.82585329738595 15.5123456721133  C 2.82585329738595 15.5123456721133  10.4070878790853 16.7839796590414  10.4070878790853 16.7839796590414  Z M 0.883079164487754 15.9538852440087  C 0.39536801713075 15.9538852440087  0 15.5585172475752  0 15.0708061002179  C 0 15.0708061002179  0 8.88925199019604  0 8.88925199019604  C 0 8.40154083475602  0.39536800904807 8.00617282570806  0.883079164487754 8.00617282570806  C 1.37079031184567 8.00617283713882  1.76615830827905 8.40154084283881  1.76615830827905 8.88925199019604  C 1.76615830827905 8.88925199019604  1.76615830827905 15.0708061002179  1.76615830827905 15.0708061002179  C 1.76615829684852 15.5585172394924  1.37079030376299 15.9538852325779  0.883079164487754 15.9538852440087  Z M 9.85633049210901 6.47727879656247  C 9.19968895636248 5.82063726081594  8.83079158278906 4.93004021841136  8.83079158278906 4.00140885294115  C 8.83079158278906 2.06763414053921  10.3984257233278 0.5  12.3322004357296 0.5  C 14.2659751481324 0.5  15.8336092886711 2.06763414053921  15.8336092886711 4.00140885294115  C 15.8336092886711 5.9351835653431  14.2659751481324 7.50281770588231  12.3322004357306 7.50281770588231  C 11.4035690702603 7.50281770588231  10.5129720278555 7.13392033230889  9.85633049210901 6.47727879656247  Z M 13.7815754487301 4.6272698525388  C 13.7285804160765 4.57427482376659  13.656703727992 4.5445025293692  13.5817574368193 4.54450253485845  C 13.5817574368193 4.54450253485845  12.7295860566446 4.54450253485845  12.7295860566446 4.54450253485845  L 12.7295860566446 4.26633260021788  C 12.7295860566446 4.26633260021788  13.57734204793 4.26633260021788  13.57734204793 4.26633260021788  C 13.7334096126415 4.26633260021788  13.8599273714599 4.13981484139981  13.8599273714599 3.98374727668852  C 13.8599273769487 3.90880098551577  13.8301550825518 3.8369242974311  13.777160053779 3.78392926477738  C 13.7241650250071 3.73093423212367  13.6522883391026 3.7011619324619  13.57734204793 3.7011619324619  C 13.57734204793 3.7011619324619  13.096063913943 3.7011619324619  13.096063913943 3.7011619324619  C 13.096063913943 3.7011619324619  13.8731735588235 2.23966593355124  13.8731735588235 2.23966593355124  C 13.924206191371 2.15019987949108  13.9225201932941 2.04005364844443  13.8687732136787 1.95219144612736  C 13.8150262340623 1.86432924381018  13.7177318261265 1.81266849480505  13.6148411473268 1.81736025672524  C 13.5119504685272 1.82205201864554  13.4197614629693 1.88235311364019  13.3742338485836 1.97474218627451  C 13.3742338485836 1.97474218627451  12.6059549814818 3.41857660893254  12.6059549814818 3.41857660893254  L 12.433754545752 3.41857660893254  C 12.433754545752 3.41857660893254  11.6698910675377 1.97474218627451  11.6698910675377 1.97474218627451  C 11.5942132908358 1.84207003493123  11.4268094820791 1.7935425425743  11.2919083262959 1.86517147385825  C 11.1570071705119 1.93680040514232  11.1034368389564 2.10265929781269  11.1709513366013 2.23966593355124  C 11.1709513366013 2.23966593355124  11.9480610021783 3.7011619324619  11.9480610021783 3.7011619324619  C 11.9480610021783 3.7011619324619  11.3210748071897 3.7011619324619  11.3210748071897 3.7011619324619  C 11.1650072367629 3.7011619324619  11.0384894733115 3.82767969591328  11.0384894733115 3.98374726633983  C 11.0384894733115 4.1398148367665  11.1650072367629 4.26633260021788  11.3210748071897 4.26633260021788  C 11.3210748071897 4.26633260021788  12.168830798475 4.26633260021788  12.168830798475 4.26633260021788  L 12.168830798475 4.54891792374724  C 12.168830798475 4.54891792374724  11.3210748071897 4.54891792374724  11.3210748071897 4.54891792374724  C 11.1650072367629 4.54891792374724  11.0384894733115 4.67543568719861  11.0384894733115 4.83150325762529  C 11.0384894733115 4.98757082805196  11.1650072367629 5.11408859150322  11.3210748071897 5.11408859150322  C 11.3210748071897 5.11408859150322  12.168830798475 5.11408859150322  12.168830798475 5.11408859150322  C 12.168830798475 5.11408859150322  12.168830798475 5.96184458278867  12.168830798475 5.96184458278867  C 12.1688308116309 6.11791213819765  12.2953485665957 6.24442988249791  12.451416122004 6.24442988249791  C 12.6074836774133 6.24442988249791  12.7340014323781 6.11791213819765  12.734001445534 5.96184458278867  C 12.734001445534 5.96184458278867  12.734001445534 5.10967320261443  12.734001445534 5.10967320261443  C 12.734001445534 5.10967320261443  13.5817574368193 5.10967320261443  13.5817574368193 5.10967320261443  C 13.6567037315781 5.10967320810357  13.7285804227995 5.07990091086504  13.7815754560479 5.0269058776164  C 13.8345704892963 4.97391084436777  13.8643427865354 4.90203415314647  13.8643427810457 4.82708785838781  C 13.8643427810457 4.75214156721518  13.8345704813837 4.68026488131102  13.7815754487301 4.6272698525388  Z " fill-rule="nonzero" fill="url(#LinearGradient453)" stroke="none" transform="matrix(1 0 0 1 55 643 )" />
  </g>
</svg>