<?xml version="1.0" encoding="utf-8"?>
<svg version="1.1" xmlns:xlink="http://www.w3.org/1999/xlink" width="16px" height="17px" xmlns="http://www.w3.org/2000/svg">
  <defs>
    <linearGradient gradientUnits="userSpaceOnUse" x1="7.23254273192753" y1="18.2974460307977" x2="7.23254273192753" y2="-0.176346629087473" id="LinearGradient432">
      <stop id="Stop433" stop-color="#99a8fb" offset="0" />
      <stop id="Stop434" stop-color="#6683eb" offset="1" />
    </linearGradient>
  </defs>
  <g transform="matrix(1 0 0 1 -214 -715 )">
    <path d="M 6.18461539062537 11.2076923124999  L 6.98461539062555 10.315384609375  L 4.12307692187551 7.82307692187499  L 3.32307692187533 8.71538460937495  L 6.18461539062537 11.2076923124999  Z M 9.63076923437529 7.1769230781249  L 10.4307692343755 6.28461539062494  L 7.56923076562543 3.79230768749994  L 6.76923076562525 4.68461539062491  L 9.63076923437529 7.1769230781249  Z M 6.86153846875004 5.11538460937504  L 4.49230768750022 7.85384615625003  L 6.89230768750076 9.915384609375  L 9.26153846875059 7.17692307812501  L 6.86153846875004 5.11538460937504  Z M 12.4000000000005 11.4846153906251  L 8.70769231250051 8.28461539062505  L 7.90769231250033 9.17692307812501  L 11.6000000000004 12.3769230781251  L 12.4000000000005 11.4846153906251  Z M 0 16.5  L 6.73846153125032 16.5  L 6.73846153125032 15.115384609375  L 0 15.115384609375  L 0 16.5  Z M 0 12.25384615625  L 0 13.63846153125  L 4.76923076562525 13.63846153125  L 4.76923076562525 12.25384615625  L 0 12.25384615625  Z M 8 16.5  C 12.4307692343746 16.5  16 12.930769234375  16 8.5  C 16 4.06923076562498  12.4307692343746 0.5  8 0.5  C 3.56923076562543 0.5  0 4.06923076562498  0 8.5  C 0 9.39230768749997  0.153846156250438 10.25384615625  0.399999999999636 11.05384615625  C 0.399999999999636 11.05384615625  1.8769230781254 11.05384615625  1.8769230781254 11.05384615625  C 1.5384615312496 10.25384615625  1.38461539062519 9.39230768749997  1.38461539062519 8.5  C 1.38461539062519 4.83846153125  4.33846153124978 1.88461539062496  8 1.88461539062496  C 11.6615384687502 1.88461539062496  14.6153846093748 4.83846153125  14.6153846093748 8.5  C 14.6153846093748 12.16153846875  11.6615384687502 15.115384609375  8 15.115384609375  C 8 15.115384609375  8 16.5  8 16.5  Z " fill-rule="nonzero" fill="url(#LinearGradient432)" stroke="none" transform="matrix(1 0 0 1 214 715 )" />
  </g>
</svg>