<?xml version="1.0" encoding="utf-8"?>
<svg version="1.1" xmlns:xlink="http://www.w3.org/1999/xlink" width="14px" height="4px" xmlns="http://www.w3.org/2000/svg">
  <defs>
    <linearGradient gradientUnits="userSpaceOnUse" x1="7" y1="0.259992184338578" x2="7" y2="3.89394051679439" id="LinearGradient475">
      <stop id="Stop476" stop-color="#ffab00" offset="0" />
      <stop id="Stop477" stop-color="#ff7446" offset="1" />
    </linearGradient>
  </defs>
  <g transform="matrix(1 0 0 1 -215 -750 )">
    <path d="M 10.4926686217009 1.76768332251785  L 10.5014662756598 1.76768332251785  C 10.5014662756598 1.76768332251785  13 1.76768332251785  13 1.76768332251785  C 13.5513196480939 1.76768332251785  14 2.16482803374432  14 2.65282284231019  C 14 2.65282284231019  14 4  14 4  L 0 4  C 0 4  0 2.65282284231019  0 2.65282284231019  C 0 2.16482803374432  0.448680351906159 1.76768332251785  1 1.76768332251785  C 1 1.76768332251785  3.49853372434018 1.76768332251785  3.49853372434018 1.76768332251785  C 3.49853372434018 1.76768332251785  3.49853372434018 0.441271901362752  3.49853372434018 0.441271901362752  C 3.49853372434018 0.197274497079819  3.72140762463344 0  3.99706744868036 0  C 3.99706744868036 0  4.49853372434018 0  4.49853372434018 0  C 4.7741935483871 0  4.99706744868036 0.197274497079819  4.99706744868036 0.441271901362752  C 4.99706744868036 0.441271901362752  4.99706744868036 1.76768332251785  4.99706744868036 1.76768332251785  L 8.99706744868036 1.76768332251785  C 8.99706744868036 1.76768332251785  8.99706744868036 0.441271901362752  8.99706744868036 0.441271901362752  C 8.99706744868036 0.197274497079819  9.21994134897362 0  9.49560117302054 0  C 9.49560117302054 0  9.99413489736071 0  9.99413489736071 0  C 10.2697947214076 0  10.4926686217009 0.197274497079819  10.4926686217009 0.441271901362752  C 10.4926686217009 0.441271901362752  10.4926686217009 1.76768332251785  10.4926686217009 1.76768332251785  Z " fill-rule="nonzero" fill="url(#LinearGradient475)" stroke="none" transform="matrix(1 0 0 1 215 750 )" />
  </g>
</svg>