<?xml version="1.0" encoding="utf-8"?>
<svg version="1.1" xmlns:xlink="http://www.w3.org/1999/xlink" width="17px" height="19px" xmlns="http://www.w3.org/2000/svg">
  <defs>
    <linearGradient gradientUnits="userSpaceOnUse" x1="16.4788662824366" y1="9.57866102146183" x2="0.521133717563362" y2="9.57866102146183" id="LinearGradient418">
      <stop id="Stop419" stop-color="#fc434a" offset="0" />
      <stop id="Stop420" stop-color="#ff7446" offset="1" />
    </linearGradient>
  </defs>
  <g transform="matrix(1 0 0 1 -56 -783 )">
    <path d="M 10.5774680851064 3.7521276595744  C 13.8229148936171 4.88061702127652  16.4998936170214 8.45761702127652  16.4998936170214 11.8852340425531  C 16.4998936170214 16.022659574468  14.1390000000001 18.035914893617  8.51053191489427 18.035914893617  C 2.88208510638378 18.035914893617  0.521212765957898 16.022659574468  0.521212765957898 11.8852340425531  C 0.521212765957898 8.4575957446807  3.19829787234085 4.88059574468071  6.44363829787289 3.7521276595744  C 6.44363829787289 3.7521276595744  10.5774680851064 3.7521276595744  10.5774680851064 3.7521276595744  Z M 9.35165957446861 11.9143829787236  L 9.35165957446861 11.2371063829789  L 10.7246808510645 11.2371063829789  C 11.0982127659581 11.2351702127662  11.4003617021281 10.9303617021278  11.4003617021281 10.5565319148936  C 11.4003617021281 10.1823191489364  11.0982553191498 9.87921276595762  10.7247021276598 9.87687234042573  C 10.7247021276598 9.87687234042573  9.35434042553243 9.87525531914912  9.35434042553243 9.87525531914912  C 9.35434042553243 9.87525531914912  10.959872340426 8.18938297872342  10.959872340426 8.18938297872342  C 11.2218297872341 7.89425531914912  11.0885531914901 7.65014893617035  10.8237872340433 7.3826170212767  C 10.5573617021282 7.11363829787251  10.121914893617 7.05725531914914  9.90661702127727 7.29161702127681  C 9.90661702127727 7.29161702127681  8.52563829787232 8.76372340425542  8.52563829787232 8.76372340425542  C 8.52563829787232 8.76372340425542  7.03400000000056 7.27200000000016  7.03400000000056 7.27200000000016  C 6.84521276595751 7.08342553191505  6.47802127659634 7.14487234042554  6.21378723404268 7.40912765957455  C 5.94927659574478 7.6737659574469  5.88804255319155 8.04127659574488  6.07665957446807 8.22982978723417  C 6.07665957446807 8.22982978723417  7.60225531914966 9.75510638297874  7.60225531914966 9.75510638297874  C 7.57370212766 9.79159574468099  7.55523404255382 9.83214893617037  7.54414893617013 9.87525531914912  C 7.54414893617013 9.87525531914912  6.30425531914898 9.87525531914912  6.30425531914898 9.87525531914912  C 5.92878723404283 9.87525531914912  5.62078723404284 10.1807021276597  5.62078723404284 10.5565106382981  C 5.62078723404284 10.9316595744681  5.92527659574534 11.2364468085107  6.30074468085149 11.2364468085107  L 7.66329787234099 11.2371276595745  L 7.66329787234099 11.9143617021277  L 6.30425531914898 11.9143617021277  C 5.92878723404283 11.9143617021277  5.62078723404284 12.2205319148936  5.62078723404284 12.5963191489363  C 5.62078723404284 12.9714893617022  5.92527659574534 13.2762765957448  6.30074468085149 13.2762765957448  L 7.66329787234099 13.2762765957448  L 7.66329787234099 13.9608723404256  C 7.652659574469 14.0139574468085  7.66065957446881 14.0694255319149  7.66065957446881 14.1262127659575  C 7.66065957446881 14.5956382978725  8.04112765957507 14.9761276595746  8.510510638298 14.9761276595746  C 8.98000000000047 14.9761276595746  9.36048936170209 14.5956382978725  9.36048936170209 14.1262127659575  C 9.36048936170209 14.0694255319149  9.35429787234079 14.0139787234043  9.34370212765953 13.9608723404256  L 9.35165957446861 13.2762765957448  C 9.35165957446861 13.2762765957448  10.7247021276598 13.2756170212767  10.7247021276598 13.2756170212767  C 11.0982340425535 13.2732765957448  11.4003617021281 12.9701702127661  11.4003617021281 12.5962765957447  C 11.4003617021281 12.2221489361702  11.0982340425535 11.9190212765959  10.7247021276598 11.9167234042554  L 9.35165957446861 11.9143829787236  Z M 11.7411489361702 0.863276595744537  C 11.7411489361702 0.907765957446827  11.7265319148937 0.947276595744597  11.7159361702124 0.988085106382869  C 11.7159361702124 0.988085106382869  11.5973617021273 1.21591489361708  11.5973617021273 1.21591489361708  C 11.5973617021273 1.21591489361708  10.3804042553193 2.73714893617012  10.3804042553193 2.73714893617012  L 6.30074468085058 2.73714893617012  C 6.30074468085058 2.73714893617012  5.09457446808483 1.22917021276589  5.09457446808483 1.22917021276589  C 5.09457446808483 1.22917021276589  4.9408723404249 1.03729787234033  4.9408723404249 1.03729787234033  C 4.92978723404212 0.995446808510451  4.93802127659546 0.908446808510689  4.93802127659546 0.863297872340354  C 4.93802127659546 0.646829787234083  5.07412765957451 0.463936170212719  5.26470212765889 0.389531914893496  C 5.26470212765889 0.389531914893496  6.95197872340395 0.0229787234043215  8.34057446808492 0.0173404255319838  C 9.79378723404261 0.011361702127715  11.4003617021281 0.357297872340496  11.4003617021281 0.357297872340496  C 11.5897021276596 0.432361702127537  11.7411489361702 0.647510638297945  11.7411489361702 0.863276595744537  Z " fill-rule="nonzero" fill="url(#LinearGradient418)" stroke="none" transform="matrix(1 0 0 1 56 783 )" />
  </g>
</svg>