<?xml version="1.0" encoding="utf-8"?>
<svg version="1.1" xmlns:xlink="http://www.w3.org/1999/xlink" width="27px" height="32px" xmlns="http://www.w3.org/2000/svg">
  <defs>
    <linearGradient gradientUnits="userSpaceOnUse" x1="26.1723170368111" y1="16.1324817203568" x2="0.827682963188869" y2="16.1324817203568" id="LinearGradient485">
      <stop id="Stop486" stop-color="#fc434a" offset="0" />
      <stop id="Stop487" stop-color="#ff7446" offset="1" />
    </linearGradient>
    <mask fill="white" id="clip488">
      <path d="M 21.7390817469205 15.148499632566  C 19.9552071668533 14.0729246346119  17.6270996640537 12.9674725533813  14.6338185890257 12.2504225547452  C 10.7637178051512 11.2943558898971  9.13101903695408 10.4876746414316  9.43337066069428 8.75480381139442  C 9.70548712206046 7.26094964756928  11.0963045912654 6.63353089876272  13.9081746920493 6.72316214859223  C 16.7200447928331 6.81279339842174  22.9182530795073 9.32246839364797  23.5834266517357 11.9815288052567  C 23.5834266517357 11.9815288052567  27 4.96041423527856  27 4.96041423527856  C 24.9440089585666 3.1677892386884  20.7715565509518 -0.0589357551738973  13.8174692049272 0.00081841137910818  C 6.4703247480403 0.0605725779321137  2.35834266517357 2.92877257247638  1.57222844344904 8.30664756224687  C 1.17917133258678 13.2363663028698  3.96080627099663 17.0606329622622  9.73572228443448 18.3752246264283  C 11.5195968645017 18.6739954591933  13.454647256439 19.0026433752349  15.7525195968645 19.8690787902534  C 17.9294512877939 20.8251454551015  19.0179171332587 21.6915808701201  18.8365061590146 23.3348204503278  C 18.6248600223964 25.1871996134709  16.9619260918253 25.3664621131299  13.9988801791713 25.0975683636414  C 9.91713325867861 24.7689204475999  4.08174692049272 21.9903517028851  3.23516237402016 18.7935037922993  C 3.23516237402016 18.7935037922993  0 26.382282944531  0 26.382282944531  C 2.38857782754759 28.8620808564808  8.88913773796192 32.0589287670666  13.6058230683091 31.9991746005135  C 21.2855543113102 31.8199121008545  25.4277715565509 28.8620808564808  26.1534154535274 23.1256808673922  C 26.3045912653975 19.8392017069769  24.8533034714446 17.0606329622622  21.7390817469205 15.148499632566  Z " fill-rule="evenodd" />
    </mask>
  </defs>
  <g transform="matrix(1 0 0 1 -185 -928 )">
    <path d="M 21.7390817469205 15.148499632566  C 19.9552071668533 14.0729246346119  17.6270996640537 12.9674725533813  14.6338185890257 12.2504225547452  C 10.7637178051512 11.2943558898971  9.13101903695408 10.4876746414316  9.43337066069428 8.75480381139442  C 9.70548712206046 7.26094964756928  11.0963045912654 6.63353089876272  13.9081746920493 6.72316214859223  C 16.7200447928331 6.81279339842174  22.9182530795073 9.32246839364797  23.5834266517357 11.9815288052567  C 23.5834266517357 11.9815288052567  27 4.96041423527856  27 4.96041423527856  C 24.9440089585666 3.1677892386884  20.7715565509518 -0.0589357551738973  13.8174692049272 0.00081841137910818  C 6.4703247480403 0.0605725779321137  2.35834266517357 2.92877257247638  1.57222844344904 8.30664756224687  C 1.17917133258678 13.2363663028698  3.96080627099663 17.0606329622622  9.73572228443448 18.3752246264283  C 11.5195968645017 18.6739954591933  13.454647256439 19.0026433752349  15.7525195968645 19.8690787902534  C 17.9294512877939 20.8251454551015  19.0179171332587 21.6915808701201  18.8365061590146 23.3348204503278  C 18.6248600223964 25.1871996134709  16.9619260918253 25.3664621131299  13.9988801791713 25.0975683636414  C 9.91713325867861 24.7689204475999  4.08174692049272 21.9903517028851  3.23516237402016 18.7935037922993  C 3.23516237402016 18.7935037922993  0 26.382282944531  0 26.382282944531  C 2.38857782754759 28.8620808564808  8.88913773796192 32.0589287670666  13.6058230683091 31.9991746005135  C 21.2855543113102 31.8199121008545  25.4277715565509 28.8620808564808  26.1534154535274 23.1256808673922  C 26.3045912653975 19.8392017069769  24.8533034714446 17.0606329622622  21.7390817469205 15.148499632566  Z " fill-rule="nonzero" fill="url(#LinearGradient485)" stroke="none" transform="matrix(1 0 0 1 185 928 )" />
    <path d="M 21.7390817469205 15.148499632566  C 19.9552071668533 14.0729246346119  17.6270996640537 12.9674725533813  14.6338185890257 12.2504225547452  C 10.7637178051512 11.2943558898971  9.13101903695408 10.4876746414316  9.43337066069428 8.75480381139442  C 9.70548712206046 7.26094964756928  11.0963045912654 6.63353089876272  13.9081746920493 6.72316214859223  C 16.7200447928331 6.81279339842174  22.9182530795073 9.32246839364797  23.5834266517357 11.9815288052567  C 23.5834266517357 11.9815288052567  27 4.96041423527856  27 4.96041423527856  C 24.9440089585666 3.1677892386884  20.7715565509518 -0.0589357551738973  13.8174692049272 0.00081841137910818  C 6.4703247480403 0.0605725779321137  2.35834266517357 2.92877257247638  1.57222844344904 8.30664756224687  C 1.17917133258678 13.2363663028698  3.96080627099663 17.0606329622622  9.73572228443448 18.3752246264283  C 11.5195968645017 18.6739954591933  13.454647256439 19.0026433752349  15.7525195968645 19.8690787902534  C 17.9294512877939 20.8251454551015  19.0179171332587 21.6915808701201  18.8365061590146 23.3348204503278  C 18.6248600223964 25.1871996134709  16.9619260918253 25.3664621131299  13.9988801791713 25.0975683636414  C 9.91713325867861 24.7689204475999  4.08174692049272 21.9903517028851  3.23516237402016 18.7935037922993  C 3.23516237402016 18.7935037922993  0 26.382282944531  0 26.382282944531  C 2.38857782754759 28.8620808564808  8.88913773796192 32.0589287670666  13.6058230683091 31.9991746005135  C 21.2855543113102 31.8199121008545  25.4277715565509 28.8620808564808  26.1534154535274 23.1256808673922  C 26.3045912653975 19.8392017069769  24.8533034714446 17.0606329622622  21.7390817469205 15.148499632566  Z " stroke-width="4" stroke="#ffffff" fill="none" transform="matrix(1 0 0 1 185 928 )" mask="url(#clip488)" />
  </g>
</svg>