<?xml version="1.0" encoding="utf-8"?>
<svg version="1.1" xmlns:xlink="http://www.w3.org/1999/xlink" width="17px" height="17px" xmlns="http://www.w3.org/2000/svg">
  <defs>
    <linearGradient gradientUnits="userSpaceOnUse" x1="16.4788662824366" y1="8.57038091393953" x2="0.521133717563362" y2="8.57038091393953" id="LinearGradient457">
      <stop id="Stop458" stop-color="#fc434a" offset="0" />
      <stop id="Stop459" stop-color="#ff7446" offset="1" />
    </linearGradient>
  </defs>
  <g transform="matrix(1 0 0 1 -213 -646 )">
    <path d="M 0.5 8.49999719527807  C 0.5 4.08159874780097  4.0816000034747 0.5  8.5 0.5  C 12.9183999965253 0.5  16.5 4.08159874780097  16.5 8.49999719527807  C 16.5 10.4023965244652  15.8359999922504 12.1487959085944  14.7271999928253 13.521595440729  L 14.8184000059 13.6127954062052  C 14.8184000059 13.6127954062052  14.3768000017999 13.9279952983992  14.3768000017999 13.9279952983992  C 12.8639904063793 15.5697875440386  10.7325029773392 16.5026393904097  8.5 16.499994390556  C 4.0816000034747 16.499994390556  0.5 12.9183956427551  0.5 8.49999719527807  Z M 3.15279999654922 3.92079879962591  C 3.10194436975144 3.97996990634999  3.05207088462612 4.03997809471582  3.00320000319971 4.10079874464464  C 3.00320000319971 4.10079874464464  2.71119999245002 4.36639865150289  2.71119999245002 4.36639865150289  C 2.71119999245002 4.36639865150289  2.76399999837486 4.41759862225263  2.76399999837486 4.41759862225263  C 0.678412500676131 7.34513499449361  1.13318813015849 11.3736831916011  3.81893965121344 13.7625919793934  C 6.50469117226839 16.1515007671858  10.5587888739228 16.1334825983971  13.2232000044496 13.7207953669665  C 13.2232000044496 13.7207953669665  3.15279999654922 3.92079879962591  3.15279999654922 3.92079879962591  Z M 14.0447999979251 12.8383956689273  C 14.0879999942499 12.7831956955799  14.1296000046004 12.7279957066074  14.1711999993249 12.6719957327406  C 14.1711999993249 12.6719957327406  14.367999993 12.4823957971124  14.367999993 12.4823957971124  C 16.2483040987408 9.70666802713038  15.8735004084601 5.95325383433556  13.5233143696369 3.56226342033017  C 11.1731283308136 1.17127300632478  7.46288105272197 0.769349727709596  4.65519999894968 2.60159925542462  C 4.48960000522493 2.71039921670547  4.32239999427475 2.82959918474  4.16719999532506 2.95119913870826  C 4.16719999532506 2.95119913870826  14.0447999979251 12.8383956689273  14.0447999979251 12.8383956689273  Z M 7.81440000190014 9.56079682167194  C 7.43279999530023 9.3575968928368  7.3231999950749 9.01279701267038  7.1952000076999 8.70399712463268  C 7.1952000076999 8.70399712463268  12.2248000060499 13.5663954229476  12.2248000060499 13.5663954229476  C 12.2248000060499 13.5663954229476  4.5 13.5663954229476  4.5 13.5663954229476  C 4.5 12.3183958624843  5.0615999990996 11.3823961921368  5.74239999240035 11.144796272212  C 6.42239998490004 10.9071963522872  7.86719999219986 10.3847965442856  7.86719999219986 10.3847965286606  C 7.86719999219986 10.3847965286606  7.86719999219986 9.65279678766763  7.86719999219986 9.65279678766763  C 7.80559999310026 9.61839679657794  7.79119999432533 9.58719680756633  7.81440000190014 9.56079682167194  Z M 10.9319999945001 8.27919727063829  C 10.8111999987004 8.40799722928227  10.7399999900008 8.56399717434022  10.6744000025255 8.72479712251527  C 10.6744000025255 8.72479712251527  6.42400000212547 4.40159862748703  6.42400000212547 4.40159862748703  C 6.70239999927526 3.57119891634215  7.62960000460043 3.0335991140945  8.43679999930009 2.93359914290352  C 9.36959999460032 2.74319920675589  11.3359999922504 3.37359899114381  11.5032000032006 4.61999855056808  C 11.5032000032006 4.61999855056808  11.5032000032006 6.07759804402281  11.5032000032006 6.07759804402281  C 11.5032000032006 6.07759804402281  11.9367999993001 6.17359801261614  11.8600000006254 6.93519774158153  C 11.7848000035501 7.695197469508  11.2824000011506 7.90719740405791  10.9319999945001 8.27919727063829  Z " fill-rule="nonzero" fill="url(#LinearGradient457)" stroke="none" transform="matrix(1 0 0 1 213 646 )" />
  </g>
</svg>