<?xml version="1.0" encoding="utf-8"?>
<svg version="1.1" xmlns:xlink="http://www.w3.org/1999/xlink" width="19px" height="18px" xmlns="http://www.w3.org/2000/svg">
  <defs>
    <linearGradient gradientUnits="userSpaceOnUse" x1="9.5" y1="1.1699648295236" x2="9.5" y2="17.5227323255748" id="LinearGradient462">
      <stop id="Stop463" stop-color="#ffab00" offset="0" />
      <stop id="Stop464" stop-color="#ff7446" offset="1" />
    </linearGradient>
  </defs>
  <g transform="matrix(1 0 0 1 -56 -749 )">
    <path d="M 9.21642127615087 14.0439367273626  C 9.21642127615087 15.0251409444021  9.4623617355528 15.9480657697929  9.89505713390281 16.7527539023382  C 9.89505713390281 16.7527539023382  0.77671472021666 16.7527539023382  0.77671472021666 16.7527539023382  C 0.339819658563101 16.7527539023382  0 16.4079994204553  0 15.9647330046406  C 0 15.9647330046406  0 13.108185215646  2.03884362105237 12.073940413437  C 3.34952880601395 11.4336687731977  2.8640960428138 11.9261725125391  4.41748831808582 11.2859195157394  C 6.01943687748371 10.5964105519737  6.40779423759159 10.3994239709887  6.40779423759159 10.3994239709887  C 6.40779423759159 10.3994239709887  6.40779423759159 8.82338217559345  6.40779423759159 8.82338217559345  C 6.40779423759159 8.82338217559345  5.82526748871987 8.38013440321822  5.63109809995603 6.90260454175495  C 5.24272215726705 7.00111647568679  5.14564675417569 6.45935676937961  5.09710905263 6.11460228749672  C 5.09710905263 5.76984780561395  4.90292108128506 4.68632839299949  5.33983472551972 4.78482168349194  C 5.24274073984816 4.04607539619974  5.19420303830248 3.40580375596062  5.19420303830248 3.06104927407773  C 5.29127844139384 1.87903657097081  6.45633193913727 0.598511933931945  8.20391218575332 0.5  C 10.2427558068057 0.598511933931945  11.0679896459869 1.82978060400478  11.2136213332051 3.06104927407773  C 11.262177617331 3.40580375596062  11.1650836316594 4.04607539619974  11.0679896459869 4.78482168349194  C 11.5048847076405 4.68632839299949  11.3107153188766 5.76984780561395  11.3107153188766 6.11460228749672  C 11.3107153188766 6.45935676937961  11.1650836316594 7.00109783224741  10.7767262715506 6.90260454175495  C 10.5825568827868 8.38013440321822  10.0000487164962 8.82340081903294  10.0000487164962 8.82340081903294  C 10.0000487164962 8.82340081903294  10.0000487164962 10.3501680040227  10.0000487164962 10.3501680040227  C 10.0000487164962 10.3501680040227  10.1006919751371 10.4012510280526  10.410872417021 10.5423445776355  C 9.66277487152911 11.5060053181743  9.21642127615087 12.7220982285537  9.21642127615087 14.0439367273626  Z M 14.5472434498915 18  C 16.7432213757938 18  18.5 16.1793003490052  18.5 13.9034397678413  C 18.5 11.6275791866773  16.7432027932127 9.80687953568247  14.5472434498915 9.80687953568247  C 12.3512655239892 9.80687953568247  10.594468317202 11.6275791866773  10.594468317202 13.9034397678413  C 10.594468317202 16.1793003490052  12.3512655239892 18  14.5472434498915 18  Z " fill-rule="nonzero" fill="url(#LinearGradient462)" stroke="none" transform="matrix(1 0 0 1 56 749 )" />
  </g>
</svg>