<?xml version="1.0" encoding="utf-8"?>
<svg version="1.1" xmlns:xlink="http://www.w3.org/1999/xlink" width="9px" height="9px" xmlns="http://www.w3.org/2000/svg">
  <defs>
    <linearGradient gradientUnits="userSpaceOnUse" x1="4.5" y1="0.584982414761799" x2="4.5" y2="8.76136616278738" id="LinearGradient474">
      <stop id="Stop475" stop-color="#ffab00" offset="0" />
      <stop id="Stop476" stop-color="#ff7446" offset="1" />
    </linearGradient>
  </defs>
  <g transform="matrix(1 0 0 1 -217 -683 )">
    <path d="M 8.3576308522488 8.00539426104081  C 8.3576308522488 8.41817701628656  8.11053717125742 8.76535054423096  7.73065176182627 8.92494004227581  C 7.61669184025868 8.98107970175533  7.48386211334673 8.99998117737562  7.3411889330846 8.99998117737562  C 7.3411889330846 8.99998117737562  3.60897781981566 8.99998116260122  3.60897781981566 8.99998116260122  C 3.05797200546749 8.99998116260122  2.60209432072588 8.55880854128884  2.60209432072588 8.00539424626641  C 2.60209432072588 8.00539424626641  2.60209433563887 6.5418284473327  2.60209433563887 6.5418284473327  C 2.60209433563887 6.41036525428831  2.63052256105766 6.27914679968558  2.67808661094841 6.15709670658953  C 2.84918801663025 5.79128526409102  3.19108678056818 5.53805436164112  3.60897781981566 5.53805436164112  C 3.60897781981566 5.53805436164112  7.34118894799758 5.53805436164112  7.34118894799758 5.53805436164112  C 7.61669185517167 5.53805436164112  7.86378553616305 5.65063490168973  8.05369973456891 5.83827539946276  C 8.2436709455942 6.02591589723568  8.3576308522488 6.27912797706108  8.3576308522488 6.54180962470832  C 8.3576308522488 6.54180962470832  8.3576308522488 8.00539426104081  8.3576308522488 8.00539426104081  Z M 1.12053937323253 8.69034703960551  C 1.12053937323253 8.69034703960551  1.12053935831955 1.90710611051452  1.12053935831955 1.90710611051452  C 0.92131377464375 2.08557826155516  0.731076529577877 2.27321877410247  0.531850960815063 2.45138970405367  C 0.398736200627354 2.56397024410228  0.208803002986315 2.55451949890494  0.0948240821826403 2.44193895885633  C 0.0284282254187929 2.36687898635762  0 2.30128859645504  0 2.20732714833616  C 0 2.12309882910506  0.0379866454932198 2.04807651662975  0.104401501493157 1.99161681343617  C 0.104401501493157 1.99161681343617  1.23449927988713 0.950322160194673  1.23449927988713 0.950322160194673  C 1.43402891098685 0.772132392844583  1.7663312414661 0.912782770020272  1.7663312414661 1.18493397071484  C 1.7663312414661 1.18493397071484  1.7663312414661 8.69034703960551  1.7663312414661 8.69034703960551  C 1.7663312414661 8.8685368069556  1.62394309447973 9  1.4531647503718 9  C 1.28206334469087 9  1.12053937323253 8.8685368069556  1.12053937323253 8.69034703960551  Z M 2.76365632048146 1.18493397071472  C 2.76365632048146 1.18493397071472  5.15696665237101 1.18493397071472  5.15696665237101 1.18493397071472  C 5.15696665237101 1.18493397071472  5.15696665237101 0.809671783018985  5.15696665237101 0.809671783018985  C 5.15696665237101 0.631199631978348  5.29933578520831 0.5  5.47045619012533 0.5  C 5.64125354838234 0.5  5.79320010053016 0.631199631978348  5.79320010053016 0.809671783018985  C 5.79320010053016 0.809671783018985  5.79320010053016 1.18493397071472  5.79320010053016 1.18493397071472  C 5.79320010053016 1.18493397071472  8.18652946148086 1.18493397071472  8.18652946148086 1.18493397071472  C 8.35764986639788 1.18493397071472  8.5 1.32558433311601  8.5 1.49460575373371  C 8.5 1.66332595326196  8.35764986639788 1.82289662868232  8.18652946148086 1.82289662868232  C 8.18652946148086 1.82289662868232  2.76365632048146 1.82289662868232  2.76365632048146 1.82289662868232  C 2.59283996298927 1.82289662868232  2.45014776857806 1.68194504519158  2.45014776857806 1.51322484566333  C 2.45014776857806 1.34420342504563  2.59283994807629 1.18493397071472  2.76365632048146 1.18493397071472  Z M 7.96818703765712 3.35205284706728  C 7.96818703765712 3.35205284706728  2.98199872939404 3.35205283229288  2.98199872939404 3.35205283229288  C 2.81120137113703 3.35205283229288  2.66881322415065 3.20193290206976  2.66881322415065 3.0423810492739  C 2.66881322415065 2.87335962865609  2.81120137113703 2.71409017432529  2.98199872939404 2.71409017432529  C 2.98199872939404 2.71409017432529  7.96818703765712 2.71409018909969  7.96818703765712 2.71409018909969  C 8.13926944410196 2.71409018909969  8.28167657541144 2.85474055150098  8.28167657541144 3.02376197211868  C 8.28167657541144 3.18331382491465  8.13926942918897 3.35205284706728  7.96818703765712 3.35205284706728  Z M 2.98199872939404 4.85313921355078  C 2.81120137113703 4.85313921355078  2.66881322415065 4.7124700137507  2.66881322415065 4.54344860790741  C 2.66881322415065 4.38385910986256  2.81120137113703 4.2151577329588  2.98199872939404 4.2151577329588  C 2.98199872939404 4.2151577329588  7.96818703765712 4.2151577329588  7.96818703765712 4.2151577329588  C 8.13926944410196 4.2151577329588  8.28167657541144 4.36525884055732  8.28167657541144 4.52484833860217  C 8.28167657541144 4.69386975921987  8.13926942918897 4.85313921355078  7.96818703765712 4.85313921355078  C 7.96818703765712 4.85313921355078  2.98199872939404 4.85313921355078  2.98199872939404 4.85313921355078  Z M 3.60897781981566 6.18518535156647  C 3.390312349331 6.18518535156647  3.24790521802151 6.33532410441399  3.24790521802151 6.5418284473327  C 3.24790521802151 6.5418284473327  3.24790521802151 8.00541306889079  3.24790521802151 8.00541306889079  C 3.24790521802151 8.22108574376728  3.39031236424398 8.3712056887648  3.60897781981566 8.3712056887648  C 3.60897781981566 8.3712056887648  7.34118894799849 8.3712056887648  7.34118894799849 8.3712056887648  C 7.55985441848316 8.3712056887648  7.71180097063097 8.22108575854179  7.71180097063097 8.00541306889079  C 7.71180097063097 8.00541306889079  7.71180097063097 6.5418284325583  7.71180097063097 6.5418284325583  C 7.71180097063097 6.33530526701509  7.55985440357017 6.18518533679207  7.34118894799849 6.18518533679207  C 7.34118894799849 6.18518533679207  3.60897781981566 6.18518535156647  3.60897781981566 6.18518535156647  Z " fill-rule="nonzero" fill="url(#LinearGradient474)" stroke="none" transform="matrix(1 0 0 1 217 683 )" />
  </g>
</svg>