<?xml version="1.0" encoding="utf-8"?>
<svg version="1.1" xmlns:xlink="http://www.w3.org/1999/xlink" width="20px" height="20px" xmlns="http://www.w3.org/2000/svg">
  <defs>
    <linearGradient gradientUnits="userSpaceOnUse" x1="10" y1="0" x2="6.92614285268342" y2="24.5551925582173" id="LinearGradient448">
      <stop id="Stop449" stop-color="#ffcd00" offset="0" />
      <stop id="Stop450" stop-color="#ff9f00" offset="1" />
    </linearGradient>
  </defs>
  <g transform="matrix(1 0 0 1 -56 -678 )">
    <path d="M 9.87490786304988 19.3813886569656  C 15.0425008908487 19.3813886569656  19.2306781306525 15.1578308280186  19.2306781306525 9.94656488549617  C 19.2306781306525 4.73529894297349  15.0426851647508 0.511741114026677  9.87490786304897 0.511741114026677  C 4.70731483525014 0.511741114026677  0.519137595446409 4.73529894297349  0.519137595446409 9.94656488549617  C 0.519137595446409 15.1578308280186  4.70731483525014 19.3813886569656  9.87490786304988 19.3813886569656  Z M 9.87490786304897 4.7115276096431  C 9.87490786304897 5.66256521676326  14.1231583948356 9.94656488549617  15.0662722241786 9.94656488549617  C 14.1231583948356 9.94656488549617  9.87490786304897 14.230564554229  9.87490786304897 15.1816021613491  C 9.87490786304897 14.230564554229  5.62684160516437 9.94656488549617  4.68372777582135 9.94656488549617  C 5.62684160516437 9.94656488549617  9.87490786304897 5.66256521676326  9.87490786304897 4.7115276096431  Z " fill-rule="nonzero" fill="url(#LinearGradient448)" stroke="none" transform="matrix(1 0 0 1 56 678 )" />
  </g>
</svg>