<?xml version="1.0" encoding="utf-8"?>
<svg version="1.1" xmlns:xlink="http://www.w3.org/1999/xlink" width="4px" height="4px" xmlns="http://www.w3.org/2000/svg">
  <g transform="matrix(1 0 0 1 -220 -757 )">
    <path d="M 3.26295910815922 3.87227106489465  C 3.26295910815922 3.87227106489465  2.34687738164812 2.95719809697593  2.34687738164812 2.95719809697593  C 2.17732634386845 2.78689285016883  2.17732634386845 2.51237095979321  2.34687738164812 2.34460758234144  C 2.34687738164812 2.34460758234144  2.34434676914395 2.34206571298611  2.34434676914395 2.34206571298611  C 2.54426515697372 2.13363242584907  2.63789781962817 1.82860810320949  2.56197944450294 1.52866751928058  C 2.44557126931092 1.06350542725523  1.97740795603868 0.781357928813619  1.51683648027896 0.89828391915879  C 1.05373439201506 1.01520990950396  0.772836404051713 1.48545574023997  0.88924457924373 1.94807596291  C 0.965162954368959 2.25310028554957  1.19291807974465 2.47932665817392  1.47381606770799 2.56575021625513  C 1.47381606770799 2.56575021625513  1.47381606770799 2.56829208561047  1.47381606770799 2.56829208561047  C 1.70157119308368 2.64200629691503  1.82557120578822 2.88602575502669  1.74965283066299 3.11479399700637  C 1.67626506804194 3.34356223898605  1.43332626764121 3.46811383739721  1.20557114226552 3.39185775673732  C 1.18532624223212 3.38677401802666  1.1676119547029 3.37914840996067  1.14989766717368 3.36898093253935  C 0.62353026630543 3.18088260024495  0.198387365604148 2.73859733241756  0.0516118403620395 2.15396738069171  C -0.178673897517822 1.22618506599633  0.383122078408873 0.283151535168978  1.30932625493667 0.0518414238339675  C 2.23299981896028 -0.179468687501045  3.17185705800895 0.38482630938217  3.40214279588881 1.31515049343288  C 3.51602035857665 1.77014510803691  3.43757137094725 2.22768159199627  3.21993869558826 2.60387825658508  C 3.21993869558826 2.60387825658508  3.87283672166523 3.25968055026017  3.87283672166523 3.25968055026017  C 4.04238775944491 3.42998579706727  4.04238775944491 3.70450768744288  3.87283672166523 3.87227106489465  C 3.70328568388555 4.04257631170175  3.42997953343473 4.04257631170175  3.26295910815922 3.87227106489465  Z " fill-rule="nonzero" fill="#ffffff" stroke="none" transform="matrix(1 0 0 1 220 757 )" />
  </g>
</svg>