<?xml version="1.0" encoding="utf-8"?>
<svg version="1.1" xmlns:xlink="http://www.w3.org/1999/xlink" width="4px" height="4px" xmlns="http://www.w3.org/2000/svg">
  <g transform="matrix(1 0 0 1 -68 -761 )">
    <path d="M 3.95415320492042 0.813048315678455  C 3.95415320492042 0.813048315678455  2.04841105875537 3.75757298799661  2.04841105875537 3.75757298799661  C 1.8468481397386 4.0761767667267  1.4440234591689 4.03144240928542  1.38912422502995 3.90238005852421  C 1.38912422502995 3.90238005852421  0.264655400580236 2.84282694523038  0.102792121352241 2.65782144805207  C -0.0590711578757537 2.47279579118136  -0.00700634692565251 2.27059407638366  0.102792121352241 2.14153172562246  C 0.102792121352241 2.14153172562246  0.377306007191907 1.81881536964225  0.377306007191907 1.81881536964225  C 0.487104475469801 1.68975301888105  0.70670141202559 1.68975301888105  0.816499880303484 1.81881536964225  C 0.816499880303484 1.81881536964225  1.57500924078341 2.5022894211663  1.57500924078341 2.5022894211663  C 1.57500924078341 2.5022894211663  3.07574774355234 0.167676082795245  3.07574774355234 0.167676082795245  C 3.18554621183023 -0.0259376030389587  3.40514314838602 -0.0259376030389587  3.51495933180885 0.0385935723416417  C 3.51495933180885 0.0385935723416417  3.89925397078148 0.303733846820134  3.95415320492042 0.432796197581332  C 4.05730849384946 0.533473701439726  3.95415320492042 0.81304831567845  3.95415320492042 0.81304831567845  Z " fill-rule="nonzero" fill="#ffffff" stroke="none" transform="matrix(1 0 0 1 68 761 )" />
  </g>
</svg>