<?xml version="1.0" encoding="utf-8"?>
<svg version="1.1" xmlns:xlink="http://www.w3.org/1999/xlink" width="16px" height="16px" xmlns="http://www.w3.org/2000/svg">
  <defs>
    <linearGradient gradientUnits="userSpaceOnUse" x1="8" y1="1.03996873735431" x2="8" y2="15.5757620671776" id="LinearGradient460">
      <stop id="Stop461" stop-color="#ffab00" offset="0" />
      <stop id="Stop462" stop-color="#ff7446" offset="1" />
    </linearGradient>
  </defs>
  <g transform="matrix(1 0 0 1 -214 -681 )">
    <path d="M 8.00000991649895 16  C 6.53939505895696 16  5.11000791877817 15.6025156359471  3.86657749101127 14.8506123587503  C 3.6034349416435 14.6915509160857  3.51906256414132 14.3493567833604  3.67811939042342 14.0865440356584  C 3.83721591386081 13.8234525528878  4.1793905606601 13.739053827255  4.44219562188888 13.8981152699196  C 5.51219615786085 14.5449930045334  6.74252404720081 14.8868486676664  8.00000993207868 14.8868486676664  C 11.7975211967867 14.8868486676664  14.8868802207503 11.7975047773849  14.8868802207503 8.00000001562503  C 14.8868802207503 4.2024952382401  11.7975211967867 1.1131314416591  8.00000993207868 1.1131314416591  C 4.20249866737064 1.1131314416591  1.1131197792497 4.20251514453963  1.1131197792497 8.00001990629953  C 1.1131197792497 9.3403449914053  1.4981357425004 10.6393965206859  2.22687483762207 11.7568683481451  C 2.39470638667743 12.0140664568763  2.32220570209187 12.3590679090869  2.06470120819871 12.5268698735004  C 1.80719671430556 12.694711650513  1.46252067933031 12.6221992200816  1.29437149071361 12.3647024699823  C 0.447511079552677 11.0662681453625  0 9.55690668652171  0 8.00000001562503  C 0 5.86313330787467  0.832169690507011 3.85406926188328  2.34313004460805 2.34311500220413  C 3.85407053455171 0.832200539498998  5.86310581469836 0  8.00000991649895 0  C 10.1368941697219 0  12.1456316744646 0.832180617574427  13.6568898039696 2.34311497095405  C 15.1675523670869 3.8540692306332  16 5.86313329224963  16 7.99999998437495  C 16 10.1368666765003  15.1675325185093 12.1459307381167  13.6568898039696 13.6568650914963  C 12.1456316744646 15.1678193824256  10.1368941697219 16  8.00000991649895 16  Z " fill-rule="nonzero" fill="url(#LinearGradient460)" stroke="none" transform="matrix(1 0 0 1 214 681 )" />
  </g>
</svg>