<?xml version="1.0" encoding="utf-8"?>
<svg version="1.1" xmlns:xlink="http://www.w3.org/1999/xlink" width="35px" height="39px" xmlns="http://www.w3.org/2000/svg">
  <defs>
    <linearGradient gradientUnits="userSpaceOnUse" x1="33.9270776403107" y1="19.6614620966848" x2="1.07292235968927" y2="19.6614620966848" id="LinearGradient492">
      <stop id="Stop493" stop-color="#fc434a" offset="0" />
      <stop id="Stop494" stop-color="#ff7446" offset="1" />
    </linearGradient>
    <mask fill="white" id="clip495">
      <path d="M 24.2170212765957 28.8966846569006  C 22.4893617021276 26.7617579028528  21.6553191489362 24.0555127216654  21.863829787234 20.958365458751  C 21.863829787234 20.958365458751  21.863829787234 20.8380878951427  21.863829787234 20.8380878951427  C 22.3702127659574 17.289899768697  24.3957446808511 13.1703932151118  30.5914893617021 11.757131842714  C 30.5914893617021 11.757131842714  35 0  35 0  L 25.5276595744681 0  L 15.6978723404255 28.8064764841943  L 9.47234042553191 7.06630686198922  L 0 7.06630686198922  L 10.6042553191489 39  L 20.3446808510638 39  C 20.3446808510638 39  24.2170212765957 28.8966846569006  24.2170212765957 28.8966846569006  Z " fill-rule="evenodd" />
    </mask>
  </defs>
  <g transform="matrix(1 0 0 1 -164 -916 )">
    <path d="M 24.2170212765957 28.8966846569006  C 22.4893617021276 26.7617579028528  21.6553191489362 24.0555127216654  21.863829787234 20.958365458751  C 21.863829787234 20.958365458751  21.863829787234 20.8380878951427  21.863829787234 20.8380878951427  C 22.3702127659574 17.289899768697  24.3957446808511 13.1703932151118  30.5914893617021 11.757131842714  C 30.5914893617021 11.757131842714  35 0  35 0  L 25.5276595744681 0  L 15.6978723404255 28.8064764841943  L 9.47234042553191 7.06630686198922  L 0 7.06630686198922  L 10.6042553191489 39  L 20.3446808510638 39  C 20.3446808510638 39  24.2170212765957 28.8966846569006  24.2170212765957 28.8966846569006  Z " fill-rule="nonzero" fill="url(#LinearGradient492)" stroke="none" transform="matrix(1 0 0 1 164 916 )" />
    <path d="M 24.2170212765957 28.8966846569006  C 22.4893617021276 26.7617579028528  21.6553191489362 24.0555127216654  21.863829787234 20.958365458751  C 21.863829787234 20.958365458751  21.863829787234 20.8380878951427  21.863829787234 20.8380878951427  C 22.3702127659574 17.289899768697  24.3957446808511 13.1703932151118  30.5914893617021 11.757131842714  C 30.5914893617021 11.757131842714  35 0  35 0  L 25.5276595744681 0  L 15.6978723404255 28.8064764841943  L 9.47234042553191 7.06630686198922  L 0 7.06630686198922  L 10.6042553191489 39  L 20.3446808510638 39  C 20.3446808510638 39  24.2170212765957 28.8966846569006  24.2170212765957 28.8966846569006  Z " stroke-width="4" stroke="#ffffff" fill="none" transform="matrix(1 0 0 1 164 916 )" mask="url(#clip495)" />
  </g>
</svg>