<?xml version="1.0" encoding="utf-8"?>
<svg version="1.1" xmlns:xlink="http://www.w3.org/1999/xlink" width="17px" height="16px" xmlns="http://www.w3.org/2000/svg">
  <defs>
    <linearGradient gradientUnits="userSpaceOnUse" x1="16.4788662824366" y1="8.06624086017838" x2="0.521133717563362" y2="8.06624086017838" id="LinearGradient472">
      <stop id="Stop473" stop-color="#fc434a" offset="0" />
      <stop id="Stop474" stop-color="#ff7446" offset="1" />
    </linearGradient>
  </defs>
  <g transform="matrix(1 0 0 1 -213 -783 )">
    <path d="M 14.9089385474863 8.79553072625686  C 14.9089385474863 8.79553072625686  7.7044692737436 8.79553072625686  7.7044692737436 8.79553072625686  C 7.7044692737436 8.79553072625686  7.7044692737436 1.59999999999991  7.7044692737436 1.59999999999991  C 3.72681564245795 1.59999999999991  0.5 4.82681564245809  0.5 8.79553072625686  C 0.5 12.7642458100559  3.72681564245795 16  7.7044692737436 16  C 11.6821229050283 16  14.9089385474863 12.7731843575418  14.9089385474863 8.79553072625686  Z M 16.5 7.20446927374292  C 16.5 7.20446927374292  9.29553072625731 7.20446927374292  9.29553072625731 7.20446927374292  C 9.29553072625731 7.20446927374292  9.29553072625731 0  9.29553072625731 0  C 13.273184357542 0  16.5 3.22681564245795  16.5 7.20446927374292  Z " fill-rule="nonzero" fill="url(#LinearGradient472)" stroke="none" transform="matrix(1 0 0 1 213 783 )" />
  </g>
</svg>