<?xml version="1.0" encoding="utf-8"?>
<svg version="1.1" xmlns:xlink="http://www.w3.org/1999/xlink" width="19px" height="19px" xmlns="http://www.w3.org/2000/svg">
  <g transform="matrix(1 0 0 1 -270 -152 )">
    <path d="M 8.53999999999996 17.3563943384675  L 7.13999999999942 17.2064699489878  L 7.13999999999942 11.0697087167384  L 17.3400000000001 11.3536353925033  L 17.3400000000001 18.0520427292489  L 15.9400000000005 17.9698491006175  L 15.9399999999996 16.9354881508523  L 8.53999999999996 16.3854435100094  L 8.53999999999996 17.3563943384675  Z M 0.139999999999418 8.20721958539735  C 2.10000000000036 6.21087694900336  3.52000000000044 3.82252466090404  4.42000000000098 1.10098642283629  C 4.42000000000098 1.10098642283629  5.76000000000113 1.50089149786459  5.76000000000113 1.50089149786459  C 5.27999999999975 2.87462073796939  4.69999999999982 4.15185272838272  4.00000000000182 5.34708184763952  C 4.00000000000182 5.34708184763952  4.00000000000182 16.8649009160546  4.00000000000182 16.8649009160546  L 2.58000000000084 16.6765617833244  C 2.58000000000084 16.6765617833244  2.58000000000084 7.36895993887873  2.58000000000084 7.36895993887873  C 1.98000000000047 8.10085835472051  1.32000000000062 8.80155405107786  0.600000000000364 9.4367903925596  C 0.600000000000364 9.4367903925596  0.139999999999418 8.20721958539735  0.139999999999418 8.20721958539735  Z M 12.1800000000003 0.547406958334477  C 12.6000000000004 1.34429036446431  12.920000000001 2.07732266454917  13.1599999999999 2.76146349954411  C 13.1599999999999 2.76146349954411  12.4000000000015 3.05461799842652  12.4000000000015 3.05461799842652  L 18.6999999999998 2.87205144351702  L 18.6999999999998 4.19302884910343  L 5.68000000000029 4.59701843100993  L 5.68000000000029 3.41705968349032  C 5.68000000000029 3.41705968349032  11.8400000000001 3.07820948547391  11.8400000000001 3.07820948547391  C 11.5400000000018 2.34993928194245  11.2000000000007 1.66538990952631  10.8000000000011 0.989856165402216  C 10.8000000000011 0.989856165402216  12.1800000000003 0.547406958334477  12.1800000000003 0.547406958334477  Z M 7.51999999999953 7.10289009364311  L 7.52000000000044 5.94799160189774  L 16.9799999999987 5.77768227416021  L 16.9799999999987 7.03008245798208  L 7.51999999999953 7.10289009364311  Z M 7.52000000000044 8.45323294553043  L 16.9799999999987 8.49442728829359  L 16.9799999999987 9.76609516724733  L 7.51999999999953 9.62589910637865  L 7.52000000000044 8.45323294553043  Z M 15.9400000000005 12.6064960277617  L 8.53999999999996 12.3218344872073  L 8.53999999999996 15.1627646889902  L 15.9400000000005 15.6329595474448  L 15.9400000000005 12.6064960277617  Z " fill-rule="nonzero" fill="#ffffff" stroke="none" transform="matrix(1 0 0 1 270 152 )" />
  </g>
</svg>