<?xml version="1.0" encoding="utf-8"?>
<svg version="1.1" xmlns:xlink="http://www.w3.org/1999/xlink" width="12px" height="12px" viewBox="8 114  12 12" xmlns="http://www.w3.org/2000/svg">
  <path d="M 14 114  C 17.36 114  20 116.64  20 120  C 20 123.36  17.36 126  14 126  C 10.64 126  8 123.36  8 120  C 8 116.64  10.64 114  14 114  Z " fill-rule="nonzero" fill="#ffffff" stroke="none" />
  <path d="M 14 114.5  C 17.08 114.5  19.5 116.92  19.5 120  C 19.5 123.08  17.08 125.5  14 125.5  C 10.92 125.5  8.5 123.08  8.5 120  C 8.5 116.92  10.92 114.5  14 114.5  Z " stroke-width="1" stroke="#797979" fill="none" />
  <path d="M 14 123  C 12.32 123  11 121.68  11 120  C 11 118.32  12.32 117  14 117  C 15.68 117  17 118.32  17 120  C 17 121.68  15.68 123  14 123  " fill-rule="nonzero" fill="#797979" stroke="none" />
</svg>