<?xml version="1.0" encoding="utf-8"?>
<svg version="1.1" xmlns:xlink="http://www.w3.org/1999/xlink" width="16px" height="16px" xmlns="http://www.w3.org/2000/svg">
  <g transform="matrix(1 0 0 1 -406 -154 )">
    <path d="M 414 155  C 417.92 155  421 158.08  421 162  C 421 165.92  417.92 169  414 169  C 410.08 169  407 165.92  407 162  C 407 158.08  410.08 155  414 155  Z " fill-rule="nonzero" fill="#f2f2f2" stroke="none" />
    <path d="M 414 155  C 417.92 155  421 158.08  421 162  C 421 165.92  417.92 169  414 169  C 410.08 169  407 165.92  407 162  C 407 158.08  410.08 155  414 155  Z " stroke-width="2" stroke="#000000" fill="none" />
  </g>
</svg>