<?xml version="1.0" encoding="utf-8"?>
<svg version="1.1" xmlns:xlink="http://www.w3.org/1999/xlink" width="114px" height="82px" xmlns="http://www.w3.org/2000/svg">
  <g transform="matrix(1 0 0 1 -174 -263 )">
    <path d="M 62.39816700611 77.6795698924731  C 59.5733197556008 80.5598566308244  57.7739307535642 82  57 82  C 56.2260692464358 82  54.4266802443992 80.5598566308244  51.60183299389 77.6795698924731  C 48.7769857433809 74.7992831541219  47.3645621181263 72.9672640382318  47.3645621181263 72.1835125448029  C 47.3645621181263 70.9295101553166  48.5738289205703 69.8714456391876  50.9923625254582 69.0093189964158  C 53.4108961303462 68.147192353644  55.4134419551935 67.7161290322581  57 67.7161290322581  C 58.5865580448065 67.7161290322581  60.5891038696538 68.147192353644  63.0076374745418 69.0093189964158  C 65.4261710794297 69.8714456391876  66.6354378818737 70.9295101553166  66.6354378818737 72.1835125448029  C 66.6354378818737 72.9672640382318  65.2230142566192 74.7992831541219  62.39816700611 77.6795698924731  Z M 78.0992871690428 61.6616487455197  C 75.1776985743381 64.6007168458781  73.3686354378819 66.0702508960573  72.6720977596741 66.0702508960573  C 72.5947046843177 66.0702508960573  71.8207739307536 65.5804062126643  70.3503054989817 64.6007168458781  C 68.8798370672098 63.621027479092  66.9159877800408 62.6413381123059  64.4587576374745 61.6616487455197  C 62.0015274949084 60.6819593787336  59.5152749490835 60.1921146953405  57 60.1921146953405  C 54.4847250509165 60.1921146953405  51.9984725050916 60.6819593787336  49.5412423625255 61.6616487455197  C 47.0840122199593 62.6413381123059  45.1298370672098 63.621027479092  43.678716904277 64.6007168458781  C 42.2275967413442 65.5804062126643  41.4439918533605 66.0702508960573  41.3279022403259 66.0702508960573  C 40.6313645621181 66.0702508960573  38.8223014256619 64.6007168458781  35.9007128309572 61.6616487455197  C 32.9791242362525 58.7225806451613  31.5183299389002 56.9003584229391  31.5183299389002 56.1949820788531  C 31.5183299389002 55.6855436081243  31.7118126272912 55.2348864994026  32.0987780040733 54.8430107526882  C 35.1171079429735 51.8255675029869  38.9093686354379 49.4547192353644  43.4755600814664 47.7304659498208  C 48.0417515274949 46.0062126642772  52.5498981670061 45.1440860215054  57 45.1440860215054  C 61.4501018329939 45.1440860215054  65.9582484725051 46.0062126642772  70.5244399185336 47.7304659498208  C 75.0906313645621 49.4547192353644  78.8828920570265 51.8255675029869  81.9012219959267 54.8430107526882  C 82.2881873727088 55.2348864994026  82.4816700610998 55.6855436081243  82.4816700610998 56.1949820788531  C 82.4816700610998 56.9003584229391  81.0208757637475 58.7225806451613  78.0992871690428 61.6616487455197  Z M 93.8584521384929 45.6731182795699  C 90.9562118126273 48.6121863799283  89.1761710794297 50.0817204301075  88.5183299389002 50.0817204301075  C 88.0926680244399 50.0817204301075  87.6476578411405 49.9249701314217  87.183299389002 49.6114695340502  C 81.9205702647658 45.4967741935484  77.0448065173116 42.4695340501792  72.5560081466395 40.5297491039427  C 68.0672097759674 38.5899641577061  62.8818737270876 37.6200716845878  57 37.6200716845878  C 53.7107942973524 37.6200716845878  50.4119144602851 38.0511350059737  47.1033604887984 38.9132616487455  C 43.7948065173116 39.7753882915173  40.9119144602851 40.8138590203106  38.4546843177189 42.0286738351255  C 35.9974541751528 43.2434886499403  33.8014256619145 44.4583034647551  31.8665987780041 45.6731182795699  C 29.9317718940937 46.8879330943847  28.4032586558045 47.926403823178  27.2810590631365 48.7885304659498  C 26.1588594704684 49.6506571087216  25.5590631364562 50.0817204301075  25.4816700610998 50.0817204301075  C 24.8238289205703 50.0817204301075  23.0437881873727 48.6121863799283  20.1415478615071 45.6731182795699  C 17.2393075356416 42.7340501792115  15.7881873727088 40.9118279569892  15.7881873727088 40.2064516129032  C 15.7881873727088 39.7362007168459  15.9816700610998 39.30513739546  16.3686354378819 38.9132616487455  C 21.4765784114053 33.7405017921147  27.6680244399185 29.7237753882915  34.9429735234216 26.863082437276  C 42.2179226069246 24.0023894862605  49.5702647657841 22.5720430107527  57 22.5720430107527  C 64.4297352342159 22.5720430107527  71.7820773930754 24.0023894862605  79.0570264765784 26.863082437276  C 86.3319755600815 29.7237753882915  92.5234215885947 33.7405017921147  97.6313645621181 38.9132616487455  C 98.0183299389002 39.30513739546  98.2118126272913 39.7362007168459  98.2118126272912 40.2064516129032  C 98.2118126272913 40.9118279569892  96.7606924643585 42.7340501792115  93.8584521384929 45.6731182795699  Z M 109.617617107943 29.7433691756272  C 106.696028513238 32.6824372759857  104.906313645621 34.1519713261649  104.248472505092 34.1519713261649  C 103.822810590631 34.1519713261649  103.397148676171 33.9756272401434  102.971486761711 33.6229390681004  C 96.0448065173116 27.4704898446834  88.8569246435845 22.8365591397849  81.4078411405295 19.721146953405  C 73.9587576374745 16.6057347670251  65.8228105906314 15.0480286738351  57 15.0480286738351  C 48.1771894093686 15.0480286738351  40.0412423625255 16.6057347670251  32.5921588594705 19.721146953405  C 25.1430753564155 22.8365591397849  17.9551934826884 27.4704898446834  11.0285132382892 33.6229390681004  C 10.6028513238289 33.9756272401434  10.1771894093686 34.1519713261649  9.75152749490835 34.1519713261649  C 9.09368635437882 34.1519713261649  7.30397148676171 32.6824372759857  4.38238289205703 29.7433691756272  C 1.46079429735234 26.8043010752688  0 24.9820788530466  0 24.2767025089606  C 0 23.7672640382318  0.193482688391039 23.3166069295102  0.580448065173116 22.9247311827957  C 7.81670061099796 15.6358422939068  16.4266802443992 9.99283154121864  26.4103869653768 5.99569892473118  C 36.3940936863544 1.99856630824372  46.5906313645621 0  57 0  C 67.4093686354379 0  77.6059063136456 1.99856630824372  87.5896130346232 5.99569892473118  C 97.5733197556008 9.99283154121864  106.183299389002 15.6358422939068  113.419551934827 22.9247311827957  C 113.806517311609 23.3166069295102  114 23.7672640382318  114 24.2767025089606  C 114 24.9820788530466  112.539205702648 26.8043010752688  109.617617107943 29.7433691756272  Z " fill-rule="nonzero" fill="#aaaaaa" stroke="none" transform="matrix(1 0 0 1 174 263 )" />
  </g>
</svg>