<?xml version="1.0" encoding="utf-8"?>
<svg version="1.1" xmlns:xlink="http://www.w3.org/1999/xlink" width="18px" height="12px" xmlns="http://www.w3.org/2000/svg">
  <g transform="matrix(1 0 0 1 -393 -117 )">
    <path d="M 1.66666666666606 11.333333333333  C 1.11438191683555 11.333333333333  0.66666666666606 10.885618083164  0.66666666666606 10.333333333333  C 0.66666666666606 10.333333333333  0.66666666666606 8.33333333333303  0.66666666666606 8.33333333333303  C 0.66666666666606 7.78104858350207  1.11438191683555 7.33333333333303  1.66666666666606 7.33333333333303  C 1.66666666666606 7.33333333333303  2.66666666666606 7.33333333333303  2.66666666666606 7.33333333333303  C 3.21895141649657 7.33333333333303  3.66666666666606 7.78104858350207  3.66666666666606 8.33333333333303  C 3.66666666666606 8.33333333333303  3.66666666666606 10.333333333333  3.66666666666606 10.333333333333  C 3.66666666666606 10.885618083164  3.21895141649657 11.333333333333  2.66666666666606 11.333333333333  C 2.66666666666606 11.333333333333  1.66666666666606 11.333333333333  1.66666666666606 11.333333333333  Z M 7.33333333333212 11.333333333333  C 7.33333333333212 11.333333333333  6.33333333333212 11.333333333333  6.33333333333212 11.333333333333  C 5.78104858350162 11.333333333333  5.33333333333212 10.885618083164  5.33333333333212 10.333333333333  C 5.33333333333212 10.333333333333  5.33333333333212 6.33333333333303  5.33333333333212 6.33333333333303  C 5.33333333333212 5.78104858350207  5.78104858350162 5.33333333333303  6.33333333333212 5.33333333333303  C 6.33333333333212 5.33333333333303  7.33333333333212 5.33333333333303  7.33333333333212 5.33333333333303  C 7.88561808316263 5.33333333333303  8.33333333333212 5.78104858350207  8.33333333333212 6.33333333333303  C 8.33333333333212 6.33333333333303  8.33333333333212 10.333333333333  8.33333333333212 10.333333333333  C 8.33333333333212 10.885618083164  7.88561808316263 11.333333333333  7.33333333333212 11.333333333333  Z M 11 11.3333333333335  C 10.4477152501695 11.3333333333335  10 10.8856180831644  10 10.3333333333335  C 10 10.3333333333335  10 4  10 4  C 10 3.44771525016904  10.4477152501695 3  11 3  C 11 3  12 3  12 3  C 12.5522847498305 3  13 3.44771525016904  13 4  C 13 4  13 10.3333333333335  13 10.3333333333335  C 13 10.8856180831644  12.5522847498305 11.3333333333335  12 11.3333333333335  C 12 11.3333333333335  11 11.3333333333335  11 11.3333333333335  Z M 14.6666666666661 1.66666666666652  C 14.6666666666661 1.11438191683555  15.1143819168356 0.666666666666515  15.6666666666661 0.666666666666515  C 15.6666666666661 0.666666666666515  16.6666666666661 0.666666666666515  16.6666666666661 0.666666666666515  C 17.2189514164966 0.666666666666515  17.6666666666661 1.11438191683555  17.6666666666661 1.66666666666652  C 17.6666666666661 1.66666666666652  17.6666666666661 10.333333333333  17.6666666666661 10.333333333333  C 17.6666666666661 10.885618083164  17.2189514164966 11.333333333333  16.6666666666661 11.333333333333  C 16.6666666666661 11.333333333333  15.6666666666661 11.333333333333  15.6666666666661 11.333333333333  C 15.1143819168356 11.333333333333  14.6666666666661 10.885618083164  14.6666666666661 10.333333333333  C 14.6666666666661 10.333333333333  14.6666666666661 1.66666666666652  14.6666666666661 1.66666666666652  Z " fill-rule="nonzero" fill="#000000" stroke="none" transform="matrix(1 0 0 1 393 117 )" />
  </g>
</svg>