<?xml version="1.0" encoding="utf-8"?>
<svg version="1.1" xmlns:xlink="http://www.w3.org/1999/xlink" width="234px" height="50px" xmlns="http://www.w3.org/2000/svg">
  <g transform="matrix(1 0 0 1 -445 -166 )">
    <path d="M 445 201.026036445757  C 445 201.026036445757  445 171  445 171  C 445 168.238576250846  447.238576250846 166  450 166  C 450 166  674 166  674 166  C 676.761423749154 166  679 168.238576250846  679 171  C 679 171  679 201.026036445757  679 201.026036445757  C 679 203.787460194911  676.761423749154 206.026036445757  674 206.026036445757  C 674 206.026036445757  500.637267080745 206.026036445757  500.637267080745 206.026036445757  C 500.637267080745 206.026036445757  490.516149068323 215.642728156539  490.516149068323 215.642728156539  C 490.516149068323 215.642728156539  480.637267080745 206.026036445757  480.637267080745 206.026036445757  C 480.637267080745 206.026036445757  450 206.026036445757  450 206.026036445757  C 447.238576250846 206.026036445757  445 203.787460194911  445 201.026036445757  Z " fill-rule="nonzero" fill="#000000" stroke="none" fill-opacity="0.8" />
  </g>
</svg>