<?xml version="1.0" encoding="utf-8"?>
<svg version="1.1" xmlns:xlink="http://www.w3.org/1999/xlink" width="267px" height="50px" xmlns="http://www.w3.org/2000/svg">
  <g transform="matrix(1 0 0 1 -440 -166 )">
    <path d="M 440 201.026036445757  C 440 201.026036445757  440 171  440 171  C 440 168.238576250846  442.238576250846 166  445 166  C 445 166  702 166  702 166  C 704.761423749154 166  707 168.238576250846  707 171  C 707 171  707 201.026036445757  707 201.026036445757  C 707 203.787460194911  704.761423749154 206.026036445757  702 206.026036445757  C 702 206.026036445757  502.073291925466 206.026036445757  502.073291925466 206.026036445757  C 502.073291925466 206.026036445757  491.935093167702 215.642728156539  491.935093167702 215.642728156539  C 491.935093167702 215.642728156539  482.073291925466 206.026036445757  482.073291925466 206.026036445757  C 482.073291925466 206.026036445757  445 206.026036445757  445 206.026036445757  C 442.238576250846 206.026036445757  440 203.787460194911  440 201.026036445757  Z " fill-rule="nonzero" fill="#000000" stroke="none" fill-opacity="0.8" />
  </g>
</svg>