<?xml version="1.0" encoding="utf-8"?>
<svg version="1.1" xmlns:xlink="http://www.w3.org/1999/xlink" width="53px" height="51px" xmlns="http://www.w3.org/2000/svg">
  <g transform="matrix(1 0 0 1 -27 -556 )">
    <path d="M 53.5 556  C 68.34 556  80 567.22  80 581.5  C 80 595.78  68.34 607  53.5 607  C 38.66 607  27 595.78  27 581.5  C 27 567.22  38.66 556  53.5 556  Z " fill-rule="nonzero" fill="#ffffff" stroke="none" />
    <path d="M 53.5 556.5  C 68.06 556.5  79.5 567.5  79.5 581.5  C 79.5 595.5  68.06 606.5  53.5 606.5  C 38.94 606.5  27.5 595.5  27.5 581.5  C 27.5 567.5  38.94 556.5  53.5 556.5  Z " stroke-width="1" stroke="#d7d7d7" fill="none" />
  </g>
</svg>