<?xml version="1.0" encoding="utf-8"?>
<svg version="1.1" xmlns:xlink="http://www.w3.org/1999/xlink" width="48px" height="22px" xmlns="http://www.w3.org/2000/svg">
  <defs>
    <mask fill="white" id="clip91">
      <path d="M 0 14.1428571428571  L 0 7.85714285714286  C 0 3.45714285714284  3.35238095238094 0  7.61904761904762 0  L 25.1428571428571 0  L 40.3809523809524 0  C 44.6476190476191 0  48 3.45714285714284  48 7.85714285714286  L 48 14.1428571428571  C 48 18.5428571428572  44.6476190476191 22  40.3809523809524 22  L 7.61904761904762 22  C 3.35238095238094 22  0 18.5428571428572  0 14.1428571428571  Z " fill-rule="evenodd" />
    </mask>
  </defs>
  <g transform="matrix(1 0 0 1 -133 -348 )">
    <path d="M 0 14.1428571428571  L 0 7.85714285714286  C 0 3.45714285714284  3.35238095238094 0  7.61904761904762 0  L 25.1428571428571 0  L 40.3809523809524 0  C 44.6476190476191 0  48 3.45714285714284  48 7.85714285714286  L 48 14.1428571428571  C 48 18.5428571428572  44.6476190476191 22  40.3809523809524 22  L 7.61904761904762 22  C 3.35238095238094 22  0 18.5428571428572  0 14.1428571428571  Z " fill-rule="nonzero" fill="#ffffff" stroke="none" transform="matrix(1 0 0 1 133 348 )" />
    <path d="M 0 14.1428571428571  L 0 7.85714285714286  C 0 3.45714285714284  3.35238095238094 0  7.61904761904762 0  L 25.1428571428571 0  L 40.3809523809524 0  C 44.6476190476191 0  48 3.45714285714284  48 7.85714285714286  L 48 14.1428571428571  C 48 18.5428571428572  44.6476190476191 22  40.3809523809524 22  L 7.61904761904762 22  C 3.35238095238094 22  0 18.5428571428572  0 14.1428571428571  Z " stroke-width="2" stroke="#797979" fill="none" transform="matrix(1 0 0 1 133 348 )" mask="url(#clip91)" />
  </g>
</svg>