<?xml version="1.0" encoding="utf-8"?>
<svg version="1.1" xmlns:xlink="http://www.w3.org/1999/xlink" width="63px" height="34px" xmlns="http://www.w3.org/2000/svg">
  <g transform="matrix(1 0 0 1 -222 -608 )">
    <path d="M 223 611  A 2 2 0 0 1 225 609 L 282 609  A 2 2 0 0 1 284 611 L 284 639  A 2 2 0 0 1 282 641 L 225 641  A 2 2 0 0 1 223 639 L 223 611  Z " fill-rule="nonzero" fill="#ffffff" stroke="none" />
    <path d="M 222.5 611  A 2.5 2.5 0 0 1 225 608.5 L 282 608.5  A 2.5 2.5 0 0 1 284.5 611 L 284.5 639  A 2.5 2.5 0 0 1 282 641.5 L 225 641.5  A 2.5 2.5 0 0 1 222.5 639 L 222.5 611  Z " stroke-width="1" stroke-dasharray="3,1" stroke="#d7d7d7" fill="none" stroke-dashoffset="0.5" />
  </g>
</svg>