<?xml version="1.0" encoding="utf-8"?>
<svg version="1.1" xmlns:xlink="http://www.w3.org/1999/xlink" width="63px" height="37px" xmlns="http://www.w3.org/2000/svg">
  <g transform="matrix(1 0 0 1 -268 -21 )">
    <path d="M 269 24  A 2 2 0 0 1 271 22 L 328 22  A 2 2 0 0 1 330 24 L 330 55  A 2 2 0 0 1 328 57 L 271 57  A 2 2 0 0 1 269 55 L 269 24  Z " fill-rule="nonzero" fill="#555555" stroke="none" fill-opacity="0.407843137254902" />
    <path d="M 268.5 24  A 2.5 2.5 0 0 1 271 21.5 L 328 21.5  A 2.5 2.5 0 0 1 330.5 24 L 330.5 55  A 2.5 2.5 0 0 1 328 57.5 L 271 57.5  A 2.5 2.5 0 0 1 268.5 55 L 268.5 24  Z " stroke-width="1" stroke-dasharray="3,1" stroke="#d7d7d7" fill="none" stroke-dashoffset="0.5" />
  </g>
</svg>