<?xml version="1.0" encoding="utf-8"?>
<svg version="1.1" xmlns:xlink="http://www.w3.org/1999/xlink" width="23px" height="29px" xmlns="http://www.w3.org/2000/svg">
  <defs>
    <mask fill="white" id="clip16">
      <path d="M 932.5 1729  C 926.1175 1729  921 1723.8825  921 1717.5  L 921 1711.5  C 921 1705.1175  926.1175 1700  932.5 1700  L 932.5 1700  C 938.8825 1700  944 1705.1175  944 1711.5  L 944 1717.5  C 944 1723.8825  938.8825 1729  932.5 1729  " fill-rule="evenodd" />
    </mask>
  </defs>
  <g transform="matrix(1 0 0 1 -921 -1700 )">
    <path d="M 921 1700  L 944 1700  L 944 1729  L 921 1729  L 921 1700  " fill-rule="nonzero" fill="#cccccc" stroke="none" mask="url(#clip16)" />
    <path d="M 923 1702  L 942 1702  L 942 1727  L 923 1727  L 923 1702  " fill-rule="nonzero" fill="#ffffff" stroke="none" mask="url(#clip16)" />
    <path d="M 934.685 1707.8  C 933.719 1707.8  932.96 1707.041  932.96 1706.075  C 932.96 1705.109  933.719 1704.35  934.685 1704.35  C 935.651 1704.35  936.41 1705.109  936.41 1706.075  C 936.41 1707.041  935.651 1707.8  934.685 1707.8  " fill-rule="nonzero" fill="#cccccc" stroke="none" mask="url(#clip16)" />
    <path d="M 924 1727  L 924 1713.8  L 928.5 1707.8  L 934.8 1712.6  L 938.4 1711.4  L 942 1712.6  L 942 1727  L 924 1727  " fill-rule="nonzero" fill="#169bd5" stroke="none" mask="url(#clip16)" />
  </g>
</svg>