<?xml version="1.0" encoding="utf-8"?>
<svg version="1.1" xmlns:xlink="http://www.w3.org/1999/xlink" width="63px" height="34px" xmlns="http://www.w3.org/2000/svg">
  <g transform="matrix(1 0 0 1 -189 -23 )">
    <path d="M 190 26  A 2 2 0 0 1 192 24 L 249 24  A 2 2 0 0 1 251 26 L 251 54  A 2 2 0 0 1 249 56 L 192 56  A 2 2 0 0 1 190 54 L 190 26  Z " fill-rule="nonzero" fill="#ffffff" stroke="none" />
    <path d="M 189.5 26  A 2.5 2.5 0 0 1 192 23.5 L 249 23.5  A 2.5 2.5 0 0 1 251.5 26 L 251.5 54  A 2.5 2.5 0 0 1 249 56.5 L 192 56.5  A 2.5 2.5 0 0 1 189.5 54 L 189.5 26  Z " stroke-width="1" stroke-dasharray="3,1" stroke="#d7d7d7" fill="none" stroke-dashoffset="0.5" />
  </g>
</svg>