<?xml version="1.0" encoding="utf-8"?>
<svg version="1.1" xmlns:xlink="http://www.w3.org/1999/xlink" width="12px" height="12px" viewBox="9 37  12 12" xmlns="http://www.w3.org/2000/svg">
  <path d="M 9.5 42  A 4.5 4.5 0 0 1 14 37.5 L 16 37.5  A 4.5 4.5 0 0 1 20.5 42 L 20.5 44  A 4.5 4.5 0 0 1 16 48.5 L 14 48.5  A 4.5 4.5 0 0 1 9.5 44 L 9.5 42  Z " fill-rule="nonzero" fill="#ffffff" stroke="none" />
  <path d="M 9.5 42  A 4.5 4.5 0 0 1 14 37.5 L 16 37.5  A 4.5 4.5 0 0 1 20.5 42 L 20.5 44  A 4.5 4.5 0 0 1 16 48.5 L 14 48.5  A 4.5 4.5 0 0 1 9.5 44 L 9.5 42  Z " stroke-width="1" stroke="#797979" fill="none" />
  <path d="M 11.5714285714286 43  L 14.1428571428571 45.5714285714286  L 18.4285714285714 39.5714285714286  " stroke-width="2.57142857142857" stroke="#797979" fill="none" />
</svg>