<?xml version="1.0" encoding="utf-8"?>
<svg version="1.1" xmlns:xlink="http://www.w3.org/1999/xlink" width="12px" height="12px" viewBox="14 57  12 12" xmlns="http://www.w3.org/2000/svg">
  <path d="M 14.5 62  A 4.5 4.5 0 0 1 19 57.5 L 21 57.5  A 4.5 4.5 0 0 1 25.5 62 L 25.5 64  A 4.5 4.5 0 0 1 21 68.5 L 19 68.5  A 4.5 4.5 0 0 1 14.5 64 L 14.5 62  Z " fill-rule="nonzero" fill="#ffffff" stroke="none" />
  <path d="M 14.5 62  A 4.5 4.5 0 0 1 19 57.5 L 21 57.5  A 4.5 4.5 0 0 1 25.5 62 L 25.5 64  A 4.5 4.5 0 0 1 21 68.5 L 19 68.5  A 4.5 4.5 0 0 1 14.5 64 L 14.5 62  Z " stroke-width="1" stroke="#70b603" fill="none" />
  <path d="M 16.5714285714286 63  L 19.1428571428571 65.5714285714286  L 23.4285714285714 59.5714285714286  " stroke-width="2.57142857142857" stroke="#70b603" fill="none" />
</svg>