<?xml version="1.0" encoding="utf-8"?>
<svg version="1.1" xmlns:xlink="http://www.w3.org/1999/xlink" width="4px" height="4px" preserveAspectRatio="xMinYMid meet" viewBox="20 383  4 2" xmlns="http://www.w3.org/2000/svg">
  <path d="M 16.6974256610453 248.159372515896  A 15.2397059063707 15.2397059063707 0 0 0 19.2674505525733 246.747823878807 A 5.67022816787241 5.67022816787241 0 0 0 21.5 244.332830094822 A 5.67022816787241 5.67022816787241 0 0 0 23.7325494474267 246.747823878807 A 15.2397059063707 15.2397059063707 0 0 0 26.3025743389547 248.159372515896 L 26.6974256610453 247.240627484104  A 14.2397059063707 14.2397059063707 0 0 1 24.2669890504848 245.901833291708 A 4.67022816787241 4.67022816787241 0 0 1 21.9933034021875 242.618441717831 A 0.5 0.5 0 0 0 21.5 242.2 A 0.5 0.5 0 0 0 21.0066965978125 242.618441717831 A 4.67022816787241 4.67022816787241 0 0 1 18.7330109495152 245.901833291708 A 14.2397059063707 14.2397059063707 0 0 1 16.3025743389547 247.240627484104 L 16.6974256610453 248.159372515896  Z " fill-rule="nonzero" fill="#333333" stroke="none" transform="matrix(0.999954651610978 -0.00952337763438161 0.00952337763438161 0.999954651610978 -2.97984220919748 0.218946664903001 )" />
  <path d="M 21.5 242  L 21.5 384  " stroke-width="1" stroke="#333333" fill="none" transform="matrix(0.999954651610978 -0.00952337763438161 0.00952337763438161 0.999954651610978 -2.97984220919748 0.218946664903001 )" />
</svg>