<?xml version="1.0" encoding="utf-8"?>
<svg version="1.1" xmlns:xlink="http://www.w3.org/1999/xlink" width="4px" height="4px" preserveAspectRatio="xMinYMid meet" viewBox="24 201  4 2" xmlns="http://www.w3.org/2000/svg">
  <path d="M 21.6974256610453 149.159372515896  A 15.2397059063707 15.2397059063707 0 0 0 24.2674505525733 147.747823878807 A 5.67022816787241 5.67022816787241 0 0 0 26.5 145.332830094822 A 5.67022816787241 5.67022816787241 0 0 0 28.7325494474267 147.747823878807 A 15.2397059063707 15.2397059063707 0 0 0 31.3025743389547 149.159372515896 L 31.6974256610453 148.240627484104  A 14.2397059063707 14.2397059063707 0 0 1 29.2669890504848 146.901833291708 A 4.67022816787241 4.67022816787241 0 0 1 26.9933034021875 143.618441717831 A 0.5 0.5 0 0 0 26.5 143.2 A 0.5 0.5 0 0 0 26.0066965978125 143.618441717831 A 4.67022816787241 4.67022816787241 0 0 1 23.7330109495152 146.901833291708 A 14.2397059063707 14.2397059063707 0 0 1 21.3025743389547 148.240627484104 L 21.6974256610453 149.159372515896  Z " fill-rule="nonzero" fill="#555555" stroke="none" transform="matrix(0.999893156313747 0.0146176590783993 -0.0146176590783993 0.999893156313747 2.51706871917037 -0.368990851542094 )" />
  <path d="M 26.5 143  L 26.5 201  " stroke-width="1" stroke="#555555" fill="none" transform="matrix(0.999893156313747 0.0146176590783993 -0.0146176590783993 0.999893156313747 2.51706871917037 -0.368990851542094 )" />
</svg>