<?xml version="1.0" encoding="utf-8"?>
<svg version="1.1" xmlns:xlink="http://www.w3.org/1999/xlink" width="12px" height="12px" viewBox="17 125  12 12" xmlns="http://www.w3.org/2000/svg">
  <path d="M 17.5 130  A 4.5 4.5 0 0 1 22 125.5 L 24 125.5  A 4.5 4.5 0 0 1 28.5 130 L 28.5 132  A 4.5 4.5 0 0 1 24 136.5 L 22 136.5  A 4.5 4.5 0 0 1 17.5 132 L 17.5 130  Z " fill-rule="nonzero" fill="#ffffff" stroke="none" />
  <path d="M 17.5 130  A 4.5 4.5 0 0 1 22 125.5 L 24 125.5  A 4.5 4.5 0 0 1 28.5 130 L 28.5 132  A 4.5 4.5 0 0 1 24 136.5 L 22 136.5  A 4.5 4.5 0 0 1 17.5 132 L 17.5 130  Z " stroke-width="1" stroke="#333333" fill="none" />
</svg>