<?xml version="1.0" encoding="utf-8"?>
<svg version="1.1" xmlns:xlink="http://www.w3.org/1999/xlink" width="84px" height="6px" preserveAspectRatio="xMinYMid meet" viewBox="-20 89  84 4" xmlns="http://www.w3.org/2000/svg">
  <g transform="matrix(0 -1 1 0 -69 113 )">
    <path d="M 16.6974256610453 58.1593725158962  A 15.2397059063707 15.2397059063707 0 0 0 19.2674505525733 56.7478238788068 A 5.67022816787241 5.67022816787241 0 0 0 21.5 54.332830094822 A 5.67022816787241 5.67022816787241 0 0 0 23.7325494474268 56.7478238788069 A 15.2397059063707 15.2397059063707 0 0 0 26.3025743389547 58.1593725158962 L 26.6974256610453 57.2406274841038  A 14.2397059063707 14.2397059063707 0 0 1 24.266989050485 55.9018332917076 A 4.67022816787241 4.67022816787241 0 0 1 21.9933034021875 52.6184417178315 A 0.5 0.5 0 0 0 21.5 52.2 A 0.5 0.5 0 0 0 21.0066965978125 52.6184417178315 A 4.67022816787241 4.67022816787241 0 0 1 18.733010949515 55.9018332917076 A 14.2397059063707 14.2397059063707 0 0 1 16.3025743389547 57.2406274841038 L 16.6974256610453 58.1593725158962  Z " fill-rule="nonzero" fill="#70b603" stroke="none" />
    <path d="M 21.5 52  L 21.5 130  " stroke-width="1" stroke="#70b603" fill="none" />
  </g>
</svg>