<?xml version="1.0" encoding="utf-8"?>
<svg version="1.1" xmlns:xlink="http://www.w3.org/1999/xlink" width="12px" height="12px" viewBox="20 128  12 12" xmlns="http://www.w3.org/2000/svg">
  <path d="M 20.5 133  A 4.5 4.5 0 0 1 25 128.5 L 27 128.5  A 4.5 4.5 0 0 1 31.5 133 L 31.5 135  A 4.5 4.5 0 0 1 27 139.5 L 25 139.5  A 4.5 4.5 0 0 1 20.5 135 L 20.5 133  Z " fill-rule="nonzero" fill="#f0f0f0" stroke="none" />
  <path d="M 20.5 133  A 4.5 4.5 0 0 1 25 128.5 L 27 128.5  A 4.5 4.5 0 0 1 31.5 133 L 31.5 135  A 4.5 4.5 0 0 1 27 139.5 L 25 139.5  A 4.5 4.5 0 0 1 20.5 135 L 20.5 133  Z " stroke-width="1" stroke="#555555" fill="none" />
</svg>