<?xml version="1.0" encoding="utf-8"?>
<svg version="1.1" xmlns:xlink="http://www.w3.org/1999/xlink" width="61px" height="60px" xmlns="http://www.w3.org/2000/svg">
  <g transform="matrix(1 0 0 1 -20 -1457 )">
    <path d="M 14.7030642320004 0  C 14.7030642320004 0  45.90323811869 0  45.90323811869 0  C 54.5182115053132 0  60.1063023506904 5.625  60.1063023506904 14.296875  C 60.1063023506904 14.296875  60.1063023506904 45.703125  60.1063023506904 45.703125  C 60.1063023506904 54.375  54.5182115053132 60  45.90323811869 60  C 45.90323811869 60  14.7030642320004 60  14.7030642320004 60  C 6.08809084537722 60  0.5 54.375  0.5 45.703125  C 0.5 45.703125  0.5 14.296875  0.5 14.296875  C 0.5 5.625  6.08809084537722 0  14.7030642320004 0  Z " fill-rule="nonzero" fill="#d8d8d8" stroke="none" transform="matrix(1 0 0 1 20 1457 )" />
  </g>
</svg>