<?xml version="1.0" encoding="utf-8"?>
<svg version="1.1" xmlns:xlink="http://www.w3.org/1999/xlink" width="11px" height="15px" xmlns="http://www.w3.org/2000/svg">
  <g transform="matrix(1 0 0 1 -183 -282 )">
    <path d="M 10.2272101849818 4.75654767443516  C 10.2272101849818 4.75654767443516  10.2272101849818 4.71497520879743  10.2272101849818 4.71497520879743  C 10.6540102146409 4.71497520879743  11 5.08722763243981  11 5.54642426822011  C 11 6.00562090400042  10.6540102146409 6.3778733276428  10.2272101849818 6.3778733276428  C 10.2272101849818 6.3778733276428  6.07732891075533 6.3778733276428  6.07732891075533 6.3778733276428  L 6.07732891075533 8.87222048642377  C 6.07732891075533 8.87222048642377  10.2272101849818 8.87222048642377  10.2272101849818 8.87222048642377  C 10.6540101866495 8.87222051379402  10.9999999358259 9.24447292069517  10.9999999358259 9.70366952635937  C 10.9999999358259 10.1628661320236  10.6540101866495 10.5351185389247  10.2272101849818 10.535118566295  C 10.2272101849818 10.535118566295  6.07732891075533 10.535118566295  6.07732891075533 10.535118566295  C 6.07732891075533 10.535118566295  6.07732891075533 14.1685509405773  6.07732891075533 14.1685509405773  C 6.07732891075533 14.6277475763576  5.73133912539626 15  5.30453909573718 15  C 4.87773906607809 15  4.53174928071903 14.6277475763576  4.53174928071903 14.1685509405773  C 4.53174928071903 14.1685509405773  4.53174928071903 10.535118566295  4.53174928071903 10.535118566295  C 4.53174928071903 10.535118566295  0.953732477213088 10.535118566295  0.953732477213088 10.535118566295  C 0.526932457557128 10.535118566295  0.180942680307197 10.1628661513773  0.180942680307197 9.70366952635937  C 0.180942680307197 9.24447290134149  0.526932457557128 8.87222048642377  0.953732477213088 8.87222048642377  C 0.953732477213088 8.87222048642377  4.53174928071903 8.87222048642377  4.53174928071903 8.87222048642377  L 4.53174928071903 6.3778733276428  C 4.53174928071903 6.3778733276428  0.953732477213088 6.3778733276428  0.953732477213088 6.3778733276428  C 0.526932447554002 6.3778733276428  0.180942662194934 6.00562090400042  0.180942662194934 5.54642426822011  C 0.180942662194934 5.08722763243981  0.526932447554002 4.71497520879742  0.953732477213084 4.71497520879742  C 0.953732477213084 4.71497520879742  3.54257834937337 4.71497520879742  3.54257834937337 4.71497520879742  C 3.54257834937337 4.71497520879742  0.22731006884604 1.29771960126749  0.22731006884604 1.29771960126749  C 0.0835673969182666 1.1730266170125  0 0.985039122546293  0 0.786378433717392  C 0 0.587717744888491  0.0835673969182666 0.399730250422286  0.22731006884604 0.275037266167292  C 0.528727035935449 -0.0473351565548424  1.01552673241946 -0.0473351565548424  1.31694369950887 0.275037266167292  C 1.31694369950887 0.275037266167292  5.40500177694209 4.6650882656218  5.40500177694209 4.6650882656218  C 5.40500177694209 4.6650882656218  9.49305985437531 0.241779317041603  9.49305985437531 0.241779317041603  C 9.79447682146472 -0.0805931056805336  10.2812765179487 -0.0805931056805336  10.5826934850381 0.241779317041601  C 10.7268268288271 0.382068623184358  10.8090619991889 0.581420879168154  10.8090619991889 0.790535691973417  C 10.8090619991889 0.999650504778678  10.7268268288271 1.19900276076247  10.5826934850381 1.33929206690523  C 10.5826934850381 1.33929206690523  7.26742520451081 4.75654767443516  7.26742520451081 4.75654767443516  L 10.2272101849818 4.75654767443516  Z " fill-rule="nonzero" fill="#3d3b48" stroke="none" transform="matrix(1 0 0 1 183 282 )" />
  </g>
</svg>