<?xml version="1.0" encoding="utf-8"?>
<svg version="1.1" xmlns:xlink="http://www.w3.org/1999/xlink" width="27px" height="28px" xmlns="http://www.w3.org/2000/svg">
  <g transform="matrix(1 0 0 1 -53 -1110 )">
    <path d="M 1.45306055465041 0.110781426122685  C 1.45306055465041 0.110781426122685  1.48079479637631 0  1.48079479637631 0  C 1.48079479637631 0  1.75813716488376 0.0830860695921274  1.75813716488376 0.0830860695921274  C 3.00617779879149 0.415430299276977  4.25421843269922 0.803165193340192  5.50225906660695 1.16320473087262  C 8.30341694465576 2.04945594512151  11.0213720975269 3.15727001161599  13.6561245252203 4.4312561686113  C 15.9303319079801 5.56676554295314  18.2045392907399 6.67457960944762  20.395543948322 7.94856576644293  C 21.5326476153261 8.58555882059909  22.6420170893559 9.2779426364998  23.6959180799339 10.0257171167784  C 24.6388821036083 10.635014863087  25.4154407256788 11.438180007744  26.0533281391198 12.3521266272069  C 26.5802786344088 13.1552918205471  26.6357471178606 14.1523244609189  26.2474678312012 15.010880318637  C 25.6927830941863 16.1740850495096  24.5556794271822 16.9218595297884  23.5572468713044 17.6973293665978  C 20.4510123830222 19.9129574509036  17.1783725418878 21.8516320185856  13.739327250398 23.5133531183274  C 10.5221558439638 25.1196835050075  7.16631322890006 26.3659743054723  3.69953369568432 27.2799208762519  C 2.86750659016197 27.4737883232835  2.06321377511711 27.7230464833765  1.23118666959476 27.9169139304079  C 1.23118666959476 27.9169139304079  0.759704657757574 28  0.759704657757574 28  C 0.731970416031672 27.8061325529684  0.704236174305769 27.6122651059368  0.67650193257986 27.3907022536914  C 0.371425322346511 25.1196834563243  0.205019920742671 22.8209693024266  0.121817195564965 20.5499505537427  C -0.044588206038874 19.0544015931853  0.0108802286613496 17.531157276097  0.0108802774129373 16.0356083155395  C -0.0168539643129719 15.0385756751677  0.0108802774129373 14.0138476782654  0.0663487608647415 13.0168150378936  C 0.0940830025906436 11.9920870409912  0.149551486042455 10.9396636875581  0.177285679016769 9.88724033412518  C 0.315956838894699 9.00098911987607  0.288222645920385 8.08704250041319  0.426893805798315 7.2007912861643  C 0.510096530976028 6.5084075189468  0.593299207402154 5.78832839519873  0.621033449128056 5.06824927145067  C 0.870641575909602 3.40652822039215  1.06478121923934 1.74480712065042  1.45306055465041 0.110781426122685  Z M 7.16631322890006 6.25914935885362  C 6.88897086039262 6.06528191182201  6.55616000843336 5.98219584222988  6.22334920522569 6.00989119876067  C 5.77960143511441 6.17606328926149  5.50225906660696 6.59149358853847  5.52999330833286 7.03461919566303  C 5.50225906660696 7.69930760634975  5.50225906660696 8.36399606571968  5.55772755005876 9.0286844764064  C 5.58546179178467 10.9950544006192  5.52999330833286 12.9891196813626  5.58546174303308 14.9554896055754  C 5.58546174303308 14.9554896055754  5.58546174303308 20.2176063240574  5.58546174303308 20.2176063240574  C 5.52999325958127 20.660731931182  5.72413290291102 21.1038575383066  6.11241223832208 21.3531156983995  C 6.55616000843336 21.4638971245222  7.05537626199645 21.3808110549301  7.41592135568161 21.076162230459  C 10.6053585203899 18.9436202157453  13.8225299268241 16.8110781523485  17.0119671402839 14.6785360889517  C 17.4002464269434 14.4015825723282  17.8439942458063 13.9861523217344  17.7885257623545 13.4322452884871  C 17.7053230371768 12.9337289683012  17.3725122339691 12.4906033611767  16.9010301733803 12.2690405576145  C 16.9010301733803 12.2690405576145  7.16631322890006 6.25914935885362  7.16631322890006 6.25914935885362  Z " fill-rule="nonzero" fill="#7de621" stroke="none" transform="matrix(1 0 0 1 53 1110 )" />
  </g>
</svg>