<?xml version="1.0" encoding="utf-8"?>
<svg version="1.1" xmlns:xlink="http://www.w3.org/1999/xlink" width="51px" height="55px" xmlns="http://www.w3.org/2000/svg">
  <g transform="matrix(1 0 0 1 -293 -1461 )">
    <path d="M 34.3846923887327 6.15563691765328  L 34.5620707547428 4.51563721138064  L 35.8868425171682 3.44855006620401  L 34.3208658139538 2.80589809010644  L 33.6952172974335 1.28138077143376  L 32.5478239642908 2.53218990560072  L 30.8356399291083 2.65592101233915  L 31.6935873586133 4.06570585021791  L 31.2579341230077 5.6697111166427  L 32.9367205539243 5.2910188562314  L 34.3846923887327 6.15563691765328  Z M 23.2566095084309 1.90378577522551  L 21.5577845782275 1.75980776011147  L 20.5009358400036 0.5  L 19.7788053345132 2.04401438417335  L 18.1794310270328 2.68966585963199  L 19.4270171729731 3.77175069340592  L 19.4952967616541 5.43499693527656  L 20.9885409255583 4.55688093493745  L 22.6302188651088 4.94832116352973  L 22.3066331671306 3.32631870914611  L 23.2566095084309 1.90378577522551  Z M 30.8215386973274 53.084975571659  L 31.8709657878962 54.34328358209  L 32.5812215685568 52.8127671368334  L 34.162041630354 52.1701152246665  L 32.9226193221433 51.090279983448  L 32.8543397967351 49.427033805508  L 31.3863293993672 50.3036499922359  L 29.760979135276 49.9167090766164  L 30.0860492134034 51.5304628118606  L 29.1516583574877 52.9574950587535  L 30.8215386973274 53.084975571659  Z M 9.78698331587134 47.4285887471992  L 11.3997166650581 47.9902530258646  L 11.1577695974673 46.3480036631058  L 12.1841893651782 45.046952179438  L 10.5128246451893 44.7072540500276  L 9.53390371352532 43.3409625282611  L 8.72939245084569 44.7859920270434  L 7.10404218675444 45.2471716067062  L 8.28186449041016 46.4634860507058  L 8.26034161097414 48.1192333523813  L 9.78698331587134 47.4285887471992  Z M 3.36722101643943 36.7539676974752  L 4.9339398464557 36.2605429562695  L 3.74275856436645 35.032230450895  L 3.70565007300036 33.343488144802  L 2.24283487960918 34.076876223221  L 0.653850916809461 33.5219609140145  L 0.946265517472739 35.1949555607739  L 0 36.5424999238453  L 1.63648273557374 36.855952146158  L 2.64212181392327 38.2462399824667  L 3.36722101643943 36.7539676974752  Z M 20.6100346806055 52.4798179129511  L 22.3133126879839 52.3538371497261  L 21.4657556031594 50.9380531852639  L 21.8991823318141 49.3422967019087  L 20.2359814495549 49.7254882752923  L 18.8035952266766 48.864619620037  L 18.6269589874685 50.5046193263097  L 17.3021872250429 51.571706535417  L 18.8540626964764 52.2023602583477  L 19.4722895020689 53.7253778912705  L 20.6100346806055 52.4798179129511  Z M 44.334952902106 11.0486402864985  L 45.9758886515818 10.5919599558774  L 44.781738672467 9.37114626283619  L 44.8040037419776 7.71539889722999  L 43.2691981360779 8.40454375273157  L 41.6505273928398 7.83238109844115  L 41.8924745237034 9.47463046119992  L 40.8660547559925 10.7756819448678  L 42.5433568067599 11.1258785138339  L 43.5296994493517 12.4936697852809  L 44.334952902106 11.0486402864985  Z M 50.4979247120917 20.7971526428696  L 50.0852787360712 19.1346563717352  L 50.9328358208955 17.7181225004674  L 49.2666663048834 17.5149035099075  L 48.1571235266359 16.1988543376419  L 47.5374124041671 17.7361197523569  L 46.0078019389713 18.3420273178704  L 47.2895278792521 19.4841030338957  L 47.4498364430011 21.1803442162532  L 48.863668483469 20.3487210953181  L 50.4979247120917 20.7971526428696  Z M 15.482388666135 10.1637753167015  C 17.0767568138097 9.18698899659285  18.7987685173008 8.44084198600876  20.5981599557756 7.94711357923506  C 26.6512875745077 6.28382542974941  33.1261005034287 7.5875631298727  38.0857590041766 11.468333792749  C 43.0454175049244 15.3491044556258  45.9148160830506 21.3569068300449  45.8356187136653 27.6946001326755  C 45.8356187136653 27.6946001326755  46.3684961283158 28.0028030712797  46.3684961283158 28.0028030712797  C 46.57740495982 20.3590423555315  42.606750715319 13.2191966924502  36.036508007362 9.424302896261  C 29.4662652994051 5.62940910007183  21.3623871356795 5.79514890974679  14.9495113147573 9.85557231416669  C 14.9495113147573 9.85557231416669  15.482388666135 10.1637753167015  15.482388666135 10.1637753167015  Z " fill-rule="nonzero" fill="#fde4c7" stroke="none" transform="matrix(1 0 0 1 293 1461 )" />
  </g>
</svg>