<?xml version="1.0" encoding="utf-8"?>
<svg version="1.1" xmlns:xlink="http://www.w3.org/1999/xlink" width="12px" height="19px" xmlns="http://www.w3.org/2000/svg">
  <g transform="matrix(1 0 0 1 -13 -1 )">
    <path d="M 10.0989860914449 3.96951857666143  C 9.44320777381862 4.00431711145997  8.84086324503595 4.43184196755625  8.57612310940164 5.04827315541602  C 8.2822372707617 5.73678702250131  8.42553697720597 6.44021454735741  8.81900396778174 6.94479330193616  C 8.81900396778174 6.94479330193616  8.63198570682906 7.74764521193093  8.63198570682906 7.74764521193093  C 8.25066275917229 9.388147566719  6.82009450331345 10.543956043956  5.17093347491251 10.543956043956  C 3.31532371688848 10.543956043956  1.77303026617479 9.08490319204605  1.62487294256293 7.19335426478284  C 1.62487294256293 7.19335426478284  1.44756991594545 4.92150706436421  1.44756991594545 4.92150706436421  C 2.30251053744343 4.33987441130298  2.80770272287406 3.26111983254841  2.56239305591015 2.08791208791209  C 2.35108670911945 1.08124018838305  1.5544374936327 0.268445839874411  0.568341208609454 0.0571690214547357  C 0.376465330489168 0.0149136577708005  0.187018260952682 0  0 0  C 0 0  0 19  0 19  L 9.33876900471518 19  C 9.33876900471518 19  10.9320674356887 7.47919937205651  10.9320674356887 7.47919937205651  C 11.4615477069573 7.2405808477237  11.8671587404521 6.74345892203035  11.9715975095556 6.11708529565672  C 12.1707598134272 4.98116169544741  11.2988175318426 3.90737833594976  10.0989860914449 3.96951857666143  Z " fill-rule="nonzero" fill="#ffb103" stroke="none" transform="matrix(1 0 0 1 13 1 )" />
  </g>
</svg>