<?xml version="1.0" encoding="utf-8"?>
<svg version="1.1" xmlns:xlink="http://www.w3.org/1999/xlink" width="34px" height="6px" xmlns="http://www.w3.org/2000/svg">
  <g transform="matrix(1 0 0 1 -132 -1110 )">
    <path d="M 0.00134897503991861 5.77239573050911  C -0.0138689511381538 5.97082009657221  0.101514931387789 5.99776719388994  0.25414872127958 5.99739229800724  C 1.16136576000169 5.99542398160467  2.06853738534374 5.99251838058987  2.97579983708013 5.99959491273277  C 3.17236126178596 6.00114143721085  3.24531658631773 5.92765787214268  3.27075552935291 5.72539057441501  C 3.37959796809864 4.86214608657922  3.7728570569189 4.21030744577978  4.60303039055622 3.9041415415821  C 4.86300749738297 3.80825675148985  5.1311160404544 3.7452239618855  5.40340378974162 3.70206173783333  C 8.16071490969382 3.26505008381034  10.9358787157335 3.02768127482743  13.7224445912064 2.92701626808103  C 14.7323714320044 2.8905087838699  15.7437519805015 2.91473777339702  16.7545419370531 2.88474447825947  C 17.5412419006261 2.86154652014535  18.3297134640956 2.89814775115724  19.117367414076 2.91450342941387  C 19.6074308668832 2.92467301013556  20.0978123450316 2.93296806767036  20.5880120815068 2.94810531261019  C 22.2229197622185 2.99857841316578  23.8524216822395 3.12037931482296  25.4787891199619 3.29162223920782  C 26.609823628586 3.41070498741419  27.7391773183513 3.54918965848928  28.8595819587486 3.75131635865721  C 29.9830756238051 3.95405229831364  30.5726236142546 4.58452070021914  30.7278467067822 5.74797933870084  C 30.7546939006087 5.94912185783739  30.8406866993209 5.99996985389831  31.0186685615942 5.99889197210371  C 31.9258856003163 5.99373685994421  32.8330572256583 5.99200288790215  33.7403196773947 5.99996985427567  C 33.95196278887 6.00184442387747  34.0160144320571 5.91641040924903  33.9967534948125 5.71090946538284  C 33.9478289064182 5.19165054645077  33.8930897063293 4.67384445123356  33.7685296643731 4.16662972866254  C 33.3862183798705 2.61110252904859  32.498443975441 1.59798526402412  30.9354468068252 1.23380108519919  C 29.4746597625212 0.893470908698288  27.9982004830301 0.679956147699608  26.5132918323008 0.511431330350645  C 25.4277749066958 0.388224501775131  24.3393052400997 0.302040650098462  23.2500179146577 0.220824417357096  C 21.9678487379525 0.125173925587804  20.6846347041864 0.0543147671696748  19.4003759018779 0.0129334112013751  C 18.5981400317766 -0.012982654326002  17.7943141695766 0.00805949378400284  16.9912151840874 0.00805949378400284  C 15.6460391320059 0.00491954878605157  14.3006359256028 -0.00951471024187564  12.957004364087 0.0891351297203437  C 12.0827671112361 0.153292651500908  11.2058951427351 0.179677406126664  10.3318850003124 0.246318736997524  C 8.99111535339345 0.348623968985217  7.65179932675234 0.471455902055394  6.31834336834782 0.650900136796921  C 5.10227004741891 0.814551036728512  3.89105739640233 1.0021497314451  2.70428428899931 1.33933996294805  C 1.6147243962214 1.64892700726317  0.904977311338816 2.37340562928176  0.471697226218604 3.41773466917548  C 0.160342467404551 4.168129402759  0.0628113159570232 4.96712262163611  0.00134897503991861 5.77239573050911  Z " fill-rule="nonzero" fill="#42bd56" stroke="none" transform="matrix(1 0 0 1 132 1110 )" />
  </g>
</svg>