<?xml version="1.0" encoding="utf-8"?>
<svg version="1.1" xmlns:xlink="http://www.w3.org/1999/xlink" width="32px" height="37px" xmlns="http://www.w3.org/2000/svg">
  <defs>
    <linearGradient gradientUnits="userSpaceOnUse" x1="16" y1="0" x2="21.7953664641278" y2="46.3161660108736" id="LinearGradient68">
      <stop id="Stop69" stop-color="#e7c296" offset="0" />
      <stop id="Stop70" stop-color="#f6bf8d" offset="1" />
    </linearGradient>
  </defs>
  <g transform="matrix(1 0 0 1 -76 -365 )">
    <path d="M 22.0000000044072 14.6099776633889  C 22.0000000044072 14.6099776633889  22.0000000044072 19.3936509771113  22.0000000044072 19.3936509771113  C 22.0000000044072 19.9424565006987  22.4477152496435 20.3873512807236  22.9999999933891 20.3873512807236  C 23.5522847371349 20.3873512807236  23.9999999823712 19.9424565006987  23.9999999823712 19.3936509771113  C 23.9999999823712 19.3936509771113  23.9999999823712 13.665962360943  23.9999999823712 13.665962360943  L 32 9.88990115115939  L 32 28.3369538147285  L 16 36.3899011511594  L 16 17.4400361706798  L 22.0000000044072 14.6099776633889  Z M 0.5 8.10010084940473  C 0.5 8.10010084940473  8.36175918205277 4.38990115115939  8.36175918205277 4.38990115115939  C 8.45223382382301 4.53022763566059  8.57745845927161 4.64593393800806  8.72582315204988 4.72629259390874  C 8.72582315204988 4.72629259390874  22 11.9250693571191  22 11.9250693571191  L 22 12.3979961425687  L 15.5783160818012 15.3899011511594  L 0.5 8.10010084940473  Z M 24.1646779206437 11.3899011511594  C 24.0994248642752 11.1216654477123  23.9233325921851 10.8929467817761  23.6794237507999 10.7596254153232  C 23.6794237507999 10.7596254153232  10.5 3.52918083186614  10.5 3.52918083186614  L 16.0187718264924 0.889901151159393  L 31 8.16761640178333  C 31 8.16761640178333  24.1646779206437 11.3899011511594  24.1646779206437 11.3899011511594  Z M 14 35.3899011511594  L 0 28.3264648215877  L 0 9.88990115115939  L 14 16.7822232285034  L 14 35.3899011511594  Z " fill-rule="nonzero" fill="url(#LinearGradient68)" stroke="none" transform="matrix(1 0 0 1 76 365 )" />
  </g>
</svg>