<?xml version="1.0" encoding="utf-8"?>
<svg version="1.1" xmlns:xlink="http://www.w3.org/1999/xlink" width="48px" height="51px" xmlns="http://www.w3.org/2000/svg">
  <g transform="matrix(1 0 0 1 -25 -183 )">
    <path d="M 49 183  C 62.44 183  73 194.22  73 208.5  C 73 222.78  62.44 234  49 234  C 35.56 234  25 222.78  25 208.5  C 25 194.22  35.56 183  49 183  Z " fill-rule="nonzero" fill="#facd91" stroke="none" />
    <path d="M 49 183.5  C 62.16 183.5  72.5 194.5  72.5 208.5  C 72.5 222.5  62.16 233.5  49 233.5  C 35.84 233.5  25.5 222.5  25.5 208.5  C 25.5 194.5  35.84 183.5  49 183.5  Z " stroke-width="1" stroke="#aaaaaa" fill="none" />
  </g>
</svg>