<?xml version="1.0" encoding="utf-8"?>
<svg version="1.1" xmlns:xlink="http://www.w3.org/1999/xlink" width="28px" height="24px" xmlns="http://www.w3.org/2000/svg">
  <g transform="matrix(1 0 0 1 -513 -352 )">
    <path d="M 14 0  C 21.84 0  28 5.27999999999997  28 12  C 28 18.72  21.84 24  14 24  C 6.15999999999997 24  0 18.72  0 12  C 0 5.27999999999997  6.15999999999997 0  14 0  Z M 12.8333333333333 13  C 12.8333333333333 13.5599999999999  13.3466666666667 14  14 14  C 14.6533333333333 14  15.1666666666667 13.5599999999999  15.1666666666667 13  L 15.1666666666667 7  C 15.1666666666667 6.44000000000005  14.6533333333333 6  14 6  C 13.3466666666667 6  12.8333333333333 6.44000000000005  12.8333333333333 7  L 12.8333333333333 13  Z M 14 16  C 13.3466666666667 16  12.8333333333333 16.4400000000001  12.8333333333333 17  C 12.8333333333333 17.5599999999999  13.3466666666667 18  14 18  C 14.6533333333333 18  15.1666666666667 17.5599999999999  15.1666666666667 17  C 15.1666666666667 16.4400000000001  14.6533333333333 16  14 16  Z " fill-rule="nonzero" fill="#ffffff" stroke="none" transform="matrix(1 0 0 1 513 352 )" />
  </g>
</svg>