<?xml version="1.0" encoding="utf-8"?>
<svg version="1.1" xmlns:xlink="http://www.w3.org/1999/xlink" width="90px" height="30px" xmlns="http://www.w3.org/2000/svg">
  <g transform="matrix(1 0 0 1 -345 -147 )">
    <path d="M 346 162  A 14 14 0 0 1 360 148 L 420 148  A 14 14 0 0 1 434 162 A 14 14 0 0 1 420 176 L 360 176  A 14 14 0 0 1 346 162 Z " fill-rule="nonzero" fill="#f2f2f2" stroke="none" />
    <path d="M 345.5 162  A 14.5 14.5 0 0 1 360 147.5 L 420 147.5  A 14.5 14.5 0 0 1 434.5 162 A 14.5 14.5 0 0 1 420 176.5 L 360 176.5  A 14.5 14.5 0 0 1 345.5 162 Z " stroke-width="1" stroke="#e4e4e4" fill="none" stroke-opacity="0.498039215686275" />
  </g>
</svg>