<?xml version="1.0" encoding="utf-8"?>
<svg version="1.1" xmlns:xlink="http://www.w3.org/1999/xlink" width="57px" height="51px" xmlns="http://www.w3.org/2000/svg">
  <g transform="matrix(1 0 0 1 -192 -139 )">
    <path d="M 220.5 139  C 236.46 139  249 150.22  249 164.5  C 249 178.78  236.46 190  220.5 190  C 204.54 190  192 178.78  192 164.5  C 192 150.22  204.54 139  220.5 139  Z " fill-rule="nonzero" fill="#ffffff" stroke="none" />
    <path d="M 220.5 139.5  C 236.18 139.5  248.5 150.5  248.5 164.5  C 248.5 178.5  236.18 189.5  220.5 189.5  C 204.82 189.5  192.5 178.5  192.5 164.5  C 192.5 150.5  204.82 139.5  220.5 139.5  Z " stroke-width="1" stroke="#aaaaaa" fill="none" />
  </g>
</svg>