<?xml version="1.0" encoding="utf-8"?>
<svg version="1.1" xmlns:xlink="http://www.w3.org/1999/xlink" width="328px" height="15px" xmlns="http://www.w3.org/2000/svg">
  <defs>
    <mask fill="white" id="clip282">
      <path d="M 0 10.8333333333333  L 0 4.16666666666667  C 0 1.83333333333332  2.19999999999999 0  5 0  C 5 0  102.096774193549 0  150.645161290323 0  C 162.114695340503 0  185.053763440861 0  185.053763440861 0  L 192.950819672131 0  L 323 0  C 325.8 0  328 1.83333333333332  328 4.16666666666667  L 328 10.8333333333333  C 328 13.1666666666667  325.8 15  323 15  L 183.77049180328 15  L 5 15  C 2.19999999999999 15  0 13.1666666666667  0 10.8333333333333  Z " fill-rule="evenodd" />
    </mask>
  </defs>
  <g transform="matrix(1 0 0 1 -165 -413 )">
    <path d="M 0 10.8333333333333  L 0 4.16666666666667  C 0 1.83333333333332  2.19999999999999 0  5 0  C 5 0  102.096774193549 0  150.645161290323 0  C 162.114695340503 0  185.053763440861 0  185.053763440861 0  L 192.950819672131 0  L 323 0  C 325.8 0  328 1.83333333333332  328 4.16666666666667  L 328 10.8333333333333  C 328 13.1666666666667  325.8 15  323 15  L 183.77049180328 15  L 5 15  C 2.19999999999999 15  0 13.1666666666667  0 10.8333333333333  Z " fill-rule="nonzero" fill="#aaaaaa" stroke="none" transform="matrix(1 0 0 1 165 413 )" />
    <path d="M 0 10.8333333333333  L 0 4.16666666666667  C 0 1.83333333333332  2.19999999999999 0  5 0  C 5 0  102.096774193549 0  150.645161290323 0  C 162.114695340503 0  185.053763440861 0  185.053763440861 0  L 192.950819672131 0  L 323 0  C 325.8 0  328 1.83333333333332  328 4.16666666666667  L 328 10.8333333333333  C 328 13.1666666666667  325.8 15  323 15  L 183.77049180328 15  L 5 15  C 2.19999999999999 15  0 13.1666666666667  0 10.8333333333333  Z " stroke-width="2" stroke="#d7d7d7" fill="none" transform="matrix(1 0 0 1 165 413 )" mask="url(#clip282)" />
  </g>
</svg>