<?xml version="1.0" encoding="utf-8"?>
<svg version="1.1" xmlns:xlink="http://www.w3.org/1999/xlink" width="44px" height="40px" xmlns="http://www.w3.org/2000/svg">
  <g transform="matrix(1 0 0 1 -174 -368 )">
    <path d="M 196 368  C 208.32 368  218 376.8  218 388  C 218 399.2  208.32 408  196 408  C 183.68 408  174 399.2  174 388  C 174 376.8  183.68 368  196 368  Z " fill-rule="nonzero" fill="#ffffff" stroke="none" />
    <path d="M 196 368.5  C 208.04 368.5  217.5 377.08  217.5 388  C 217.5 398.92  208.04 407.5  196 407.5  C 183.96 407.5  174.5 398.92  174.5 388  C 174.5 377.08  183.96 368.5  196 368.5  Z " stroke-width="1" stroke="#797979" fill="none" />
  </g>
</svg>