<?xml version="1.0" encoding="utf-8"?>
<svg version="1.1" xmlns:xlink="http://www.w3.org/1999/xlink" width="43px" height="46px" xmlns="http://www.w3.org/2000/svg">
  <g transform="matrix(1 0 0 1 -33 -775 )">
    <path d="M 51.4 775  C 51.4 775  47.4 777.139534883721  47.4 777.139534883721  C 47.4 777.139534883721  33 798  33 798  C 33 798  47.4 818.860465116279  47.4 818.860465116279  C 47.4 818.860465116279  51.4 821  51.4 821  C 51.4 821  56 821  56 821  C 67.2 821  76 812.2  76 801  C 76 801  76 795  76 795  C 76 783.8  67.2 775  56 775  C 56 775  51.4 775  51.4 775  Z " fill-rule="nonzero" fill="#f2f2f2" stroke="none" />
  </g>
</svg>