<?xml version="1.0" encoding="utf-8"?>
<svg version="1.1" xmlns:xlink="http://www.w3.org/1999/xlink" width="9px" height="9px" xmlns="http://www.w3.org/2000/svg">
  <g transform="matrix(1 0 0 1 -1667 -300 )">
    <path d="M 5.53040468029135 4.50289264472416  L 8.65285139896803 7.63554175622089  C 8.93644722387305 7.92058389212496  8.93570451441747 8.38016159115243  8.65140508796851 8.66375741605617  C 8.5096267294716 8.80483217300912  8.32418514926098 8.87609269562329  8.13803996750602 8.87609269562329  C 7.95115207629541 8.87609269562329  7.76500689454045 8.80483215028494  7.62318942813229 8.66231108233329  L 4.4963646685449 5.52602661665689  L 1.35937657860077 8.62959300834283  C 1.21759822010388 8.76922143157204  1.03286026416135 8.83973926745391  0.848161393405908 8.83973926745391  C 0.660569877927185 8.83973926745391  0.473682009440833 8.76773603538508  0.331160918764545 8.62376863370968  C 0.0490114048594421 8.33798378834903  0.051200425314596 7.87840608932242  0.336985293398513 7.59555297387259  L 3.4703380291638 4.49636464582108  L 0.348594934755735 1.36445822105489  C 0.0649991098506831 1.08011968669467  0.0657418193062966 0.619838386124221  0.35004124575525 0.336242561219617  C 0.634379780115481 0.0519040268593862  1.09391837123122 0.053389445769718  1.37825690559101 0.337688872219125  L 4.50433895572323 3.47323062843991  L 7.64132704566736 0.369703321940563  C 7.92636918157192 0.0868502064915845  8.38739319159848 0.0897428284906141  8.66954270550358 0.375527696574576  C 8.95239582095302 0.661312541934315  8.94950319895309 1.12159384250574  8.66371833086913 1.40374335641082  L 5.53040468029135 4.50289264472416  Z " fill-rule="nonzero" fill="#ffffff" stroke="none" transform="matrix(1 0 0 1 1667 300 )" />
  </g>
</svg>