<?xml version="1.0" encoding="utf-8"?>
<svg version="1.1" xmlns:xlink="http://www.w3.org/1999/xlink" width="45px" height="45px" xmlns="http://www.w3.org/2000/svg">
  <g transform="matrix(1 0 0 1 -265 -200 )">
    <path d="M 22.7167492486224 44.170666334619  C 34.8646822095161 44.170666334619  44.7167492486224 34.3185992955127  44.7167492486224 22.170666334619  C 44.7167492486224 10.0227333737253  34.8646822095161 0.170666334619  22.7167492486224 0.170666334619  C 10.5688162877286 0.170666334619  0.716749248622364 10.0227333737253  0.716749248622364 22.170666334619  C 0.716749248622364 34.3185992955127  10.5688162877286 44.170666334619  22.7167492486224 44.170666334619  Z M 35.2360459836837 15.9809562150604  C 35.7977284114422 15.4234788667454  35.7977284114422 14.5236908659563  35.2409730225245 13.9613233654632  C 34.6792905947641 13.4038460171482  33.7677884093664 13.4038460171482  33.2061059816078 13.9613233654632  C 33.2061059816078 13.9613233654632  19.7158736377132 27.3505600293793  19.7158736377132 27.3505600293793  C 19.7158736377132 27.3505600293793  12.2317016397683 19.9224188706912  12.2317016397683 19.9224188706912  C 11.6700192120097 19.3649415223758  10.758517026612 19.3649415223758  10.1968345988516 19.9224188706912  C 9.63515217109307 20.4798962190062  9.63515217109307 21.3845743719735  10.1968345988516 21.9420517202884  C 10.1968345988516 21.9420517202884  18.7009036366762 30.377564227686  18.7009036366762 30.377564227686  C 18.9669637340357 30.6465225974871  19.3364916470346 30.7981173150115  19.7158736377132 30.7981173150115  C 20.0952556283937 30.7981173150115  20.4598565025517 30.6465225974871  20.730843638752 30.377564227686  C 20.730843638752 30.377564227686  35.2360459836837 15.9809562150604  35.2360459836837 15.9809562150604  Z " fill-rule="nonzero" fill="#242424" stroke="none" transform="matrix(1 0 0 1 265 200 )" />
  </g>
</svg>