<?xml version="1.0" encoding="utf-8"?>
<svg version="1.1" xmlns:xlink="http://www.w3.org/1999/xlink" width="16px" height="12px" xmlns="http://www.w3.org/2000/svg">
  <g transform="matrix(1 0 0 1 -415 -117 )">
    <path d="M 1.9433333333327 4.98300000000017  C 2.06236176617676 5.1029016794223  2.25580778711446 5.10438972573729  2.37666666666519 4.98633333333328  C 3.98281870325263 3.45943443547139  6.11422309038608 2.60799440959363  8.33033333333333 2.60800000000017  C 10.5462262694309 2.60809708382112  12.677385851277 3.45953465683669  14.2833333333328 4.98633333333328  C 14.4042654033401 5.10420791777005  14.5975622551468 5.10272101890996  14.7166666666672 4.98300000000017  C 14.7166666666672 4.98300000000017  15.8726666666662 3.81633333333366  15.8726666666662 3.81633333333366  C 15.9329747249812 3.75561116810877  15.9665987244935 3.67335948188975  15.9660982547302 3.58777915250676  C 15.9655977849688 3.50219882312331  15.9310141100341 3.42034601219348  15.869999999999 3.36033333333353  C 11.6549021687642 -0.679214172400862  5.0050978312338 -0.679214172400862  0.789999999999054 3.36033333333353  C 0.72894140232529 3.42030147481364  0.694297497704611 3.50212942636608  0.693734468432012 3.58770987588878  C 0.693171439157595 3.67329032541193  0.726735707981788 3.75556701494725  0.786999999998443 3.8163333333332  C 0.786999999998443 3.8163333333332  1.9433333333327 4.98300000000017  1.9433333333327 4.98300000000017  Z M 4.60533333333296 7.66766666666672  C 4.72432200879484 7.78679944952137  4.9166034320333 7.78931389890204  5.03866666666545 7.67333333333363  C 5.94053891817384 6.85666449538166  7.11364878309178 6.40417077634584  8.33033333333333 6.40366666666705  C 9.54782262342815 6.40359206708627  10.7218645387657 6.85612451553015  11.6243333333332 7.67333333333363  C 11.7463965679672 7.78931389890204  11.9386779912056 7.78679944952137  12.0576666666657 7.66766666666717  C 12.0576666666657 7.66766666666717  13.2123333333329 6.5010000000002  13.2123333333329 6.5010000000002  C 13.2731408408417 6.43980501852275  13.3068802563575 6.35678869655931  13.3060031999339 6.27052393260828  C 13.3051261435103 6.18425916865681  13.2697058180984 6.10194599583838  13.2076666666671 6.04200000000037  C 10.4594678913818 3.48561767109686  6.20353210861686 3.48561767109686  3.45533333333333 6.04200000000037  C 3.39325557325901 6.10194526757596  3.35783746814013 6.18429968370992  3.35702279543148 6.27059232365627  C 3.35620812272282 6.35688496360217  3.39006506808437 6.43989339255813  3.45099999999911 6.5010000000002  C 3.45099999999911 6.5010000000002  4.60533333333296 7.66766666666672  4.60533333333296 7.66766666666672  Z M 8.33033333333151 11.2962443103315  C 8.41362425554507 11.2962443103315  8.49344986061988 11.2629056648184  8.55199999999786 11.2036666666668  C 8.55199999999786 11.2036666666668  10.5493333333307 9.1880000000001  10.5493333333307 9.1880000000001  C 10.6110866045019 9.12739397725773  10.6450945221877 9.04399188936623  10.6433277885571 8.95748503908635  C 10.6415610549266 8.87097818880648  10.6041762653713 8.78903415766354  10.5399999999972 8.73100000000022  C 9.26442836009483 7.65211615097996  7.39623830656819 7.65211615097996  6.12066666666578 8.73100000000022  C 6.05644587086317 8.78898749616519  6.01899987144861 8.87090573553314  6.01717003079102 8.95741303007071  C 6.01534019013343 9.04392032460783  6.04928870393996 9.12734873238105  6.11099999999897 9.1880000000001  C 6.11099999999897 9.1880000000001  8.10866666666516 11.2036666666668  8.10866666666516 11.2036666666668  C 8.16721680604132 11.2629056648184  8.24704241111795 11.2962443103315  8.33033333333151 11.2962443103315  Z " fill-rule="nonzero" fill="#000000" stroke="none" transform="matrix(1 0 0 1 415 117 )" />
  </g>
</svg>