<?xml version="1.0" encoding="utf-8"?>
<svg version="1.1" xmlns:xlink="http://www.w3.org/1999/xlink" width="40px" height="40px" xmlns="http://www.w3.org/2000/svg">
  <g transform="matrix(1 0 0 1 -159 -339 )">
    <path d="M 179 339  C 190.2 339  199 347.8  199 359  C 199 370.2  190.2 379  179 379  C 167.8 379  159 370.2  159 359  C 159 347.8  167.8 339  179 339  Z " fill-rule="nonzero" fill="#ffffff" stroke="none" />
    <path d="M 179 339.5  C 189.92 339.5  198.5 348.08  198.5 359  C 198.5 369.92  189.92 378.5  179 378.5  C 168.08 378.5  159.5 369.92  159.5 359  C 159.5 348.08  168.08 339.5  179 339.5  Z " stroke-width="1" stroke="#797979" fill="none" />
  </g>
</svg>