<?xml version="1.0" encoding="utf-8"?>
<svg version="1.1" xmlns:xlink="http://www.w3.org/1999/xlink" width="61px" height="33px" xmlns="http://www.w3.org/2000/svg">
  <g transform="matrix(1 0 0 1 -184 -23 )">
    <path d="M 185 26  A 2 2 0 0 1 187 24 L 242 24  A 2 2 0 0 1 244 26 L 244 53  A 2 2 0 0 1 242 55 L 187 55  A 2 2 0 0 1 185 53 L 185 26  Z " fill-rule="nonzero" fill="#ffffff" stroke="none" />
    <path d="M 184.5 26  A 2.5 2.5 0 0 1 187 23.5 L 242 23.5  A 2.5 2.5 0 0 1 244.5 26 L 244.5 53  A 2.5 2.5 0 0 1 242 55.5 L 187 55.5  A 2.5 2.5 0 0 1 184.5 53 L 184.5 26  Z " stroke-width="1" stroke-dasharray="3,1" stroke="#d7d7d7" fill="none" stroke-dashoffset="0.5" />
  </g>
</svg>