<?xml version="1.0" encoding="utf-8"?>
<svg version="1.1" xmlns:xlink="http://www.w3.org/1999/xlink" width="17px" height="16px" xmlns="http://www.w3.org/2000/svg">
  <g transform="matrix(1 0 0 1 -211 -422 )">
    <path d="M 9.63997395833333 10.9270833333333  C 9.70638020833333 10.9895833333333  9.73958333333333 11.0694444444444  9.73958333333333 11.1666666666667  L 9.73958333333333 12.8333333333333  C 9.73958333333333 12.9305555555556  9.70638020833333 13.0104166666667  9.63997395833333 13.0729166666667  C 9.57356770833333 13.1354166666667  9.48871527777778 13.1666666666667  9.38541666666667 13.1666666666667  L 7.61458333333333 13.1666666666667  C 7.51128472222222 13.1666666666667  7.42643229166667 13.1354166666667  7.36002604166667 13.0729166666667  C 7.29361979166667 13.0104166666667  7.26041666666667 12.9305555555556  7.26041666666667 12.8333333333333  L 7.26041666666667 11.1666666666667  C 7.26041666666667 11.0694444444444  7.29361979166667 10.9895833333333  7.36002604166667 10.9270833333333  C 7.42643229166667 10.8645833333333  7.51128472222222 10.8333333333333  7.61458333333333 10.8333333333333  L 9.38541666666667 10.8333333333333  C 9.48871527777778 10.8333333333333  9.57356770833333 10.8645833333333  9.63997395833333 10.9270833333333  Z M 11.3610026041667 3.765625  C 12.1689453125 4.38715277777778  12.5729166666667 5.13194444444444  12.5729166666667 6  C 12.5729166666667 6.34722222222222  12.517578125 6.65972222222222  12.4069010416667 6.9375  C 12.2962239583333 7.21527777777778  12.1283637152778 7.45486111111111  11.9033203125 7.65625  C 11.6782769097222 7.85763888888889  11.4864366319444 8.01041666666667  11.3277994791667 8.11458333333333  C 11.1691623263889 8.21875  10.9496527777778 8.34375  10.6692708333333 8.48958333333333  C 10.4331597222222 8.61458333333333  10.2616102430556 8.71180555555555  10.1546223958333 8.78125  C 10.0476345486111 8.85069444444444  9.95171440972222 8.93402777777778  9.86686197916667 9.03125  C 9.78200954861111 9.12847222222222  9.73958333333333 9.22916666666667  9.73958333333333 9.33333333333333  L 9.73958333333333 9.66666666666667  C 9.73958333333333 9.76388888888889  9.70638020833333 9.84375  9.63997395833333 9.90625  C 9.57356770833333 9.96875  9.48871527777778 10  9.38541666666667 10  L 7.61458333333333 10  C 7.51128472222222 10  7.42643229166667 9.96875  7.36002604166667 9.90625  C 7.29361979166667 9.84375  7.26041666666667 9.76388888888889  7.26041666666667 9.66666666666667  L 7.26041666666667 8.95833333333333  C 7.26041666666667 8.71527777777778  7.29915364583333 8.49131944444444  7.37662760416667 8.28645833333333  C 7.4541015625 8.08159722222222  7.54264322916667 7.91666666666667  7.64225260416667 7.79166666666667  C 7.74186197916667 7.66666666666667  7.8857421875 7.54340277777778  8.07389322916667 7.421875  C 8.26204427083333 7.30034722222222  8.41330295138889 7.21180555555556  8.52766927083333 7.15625  C 8.64203559027778 7.10069444444444  8.80620659722222 7.02777777777778  9.02018229166667 6.9375  C 9.41124131944444 6.76388888888889  9.68793402777778 6.61458333333333  9.85026041666667 6.48958333333333  C 10.0125868055556 6.36458333333333  10.09375 6.19444444444444  10.09375 5.97916666666667  C 10.09375 5.6875  9.93326822916667 5.43923611111111  9.6123046875 5.234375  C 9.29134114583333 5.02951388888889  8.93901909722222 4.92708333333333  8.55533854166667 4.92708333333333  C 8.14214409722222 4.92708333333333  7.79166666666667 5.02083333333333  7.50390625 5.20833333333333  C 7.28993055555556 5.34722222222222  6.99479166666667 5.63541666666667  6.61848958333333 6.07291666666667  C 6.55208333333333 6.15625  6.45985243055556 6.19791666666667  6.341796875 6.19791666666667  C 6.26063368055556 6.19791666666667  6.19053819444444 6.17708333333333  6.13151041666667 6.13541666666667  L 4.93619791666667 5.28125  C 4.86241319444444 5.23263888888889  4.81814236111111 5.16319444444444  4.80338541666667 5.07291666666667  C 4.78862847222222 4.98263888888889  4.80707465277778 4.90277777777778  4.85872395833333 4.83333333333333  C 5.75889756944444 3.5  7.04644097222222 2.83333333333333  8.72135416666667 2.83333333333333  C 9.67317708333333 2.83333333333333  10.5530598958333 3.14409722222222  11.3610026041667 3.765625  Z M 11.2503255208333 1.86458333333333  C 10.3759765625 1.51041666666667  9.45920138888889 1.33333333333333  8.5 1.33333333333333  C 7.54079861111111 1.33333333333333  6.6240234375 1.51041666666667  5.74967447916667 1.86458333333333  C 4.87532552083333 2.21875  4.12272135416667 2.69270833333333  3.49186197916667 3.28645833333333  C 2.86100260416667 3.88020833333333  2.357421875 4.58854166666667  1.98111979166667 5.41145833333333  C 1.60481770833333 6.234375  1.41666666666667 7.09722222222222  1.41666666666667 8  C 1.41666666666667 8.90277777777778  1.60481770833333 9.765625  1.98111979166667 10.5885416666667  C 2.357421875 11.4114583333333  2.86100260416667 12.1197916666667  3.49186197916667 12.7135416666667  C 4.12272135416667 13.3072916666667  4.87532552083333 13.78125  5.74967447916667 14.1354166666667  C 6.6240234375 14.4895833333333  7.54079861111111 14.6666666666667  8.5 14.6666666666667  C 9.45920138888889 14.6666666666667  10.3759765625 14.4895833333333  11.2503255208333 14.1354166666667  C 12.1246744791667 13.78125  12.8772786458333 13.3072916666667  13.5081380208333 12.7135416666667  C 14.1389973958333 12.1197916666667  14.642578125 11.4114583333333  15.0188802083333 10.5885416666667  C 15.3951822916667 9.765625  15.5833333333333 8.90277777777778  15.5833333333333 8  C 15.5833333333333 7.09722222222222  15.3951822916667 6.234375  15.0188802083333 5.41145833333333  C 14.642578125 4.58854166666667  14.1389973958333 3.88020833333333  13.5081380208333 3.28645833333333  C 12.8772786458333 2.69270833333333  12.1246744791667 2.21875  11.2503255208333 1.86458333333333  Z M 15.8600260416667 3.984375  C 16.6200086805556 5.21006944444444  17 6.54861111111111  17 8  C 17 9.45138888888889  16.6200086805556 10.7899305555556  15.8600260416667 12.015625  C 15.1000434027778 13.2413194444444  14.0689019097222 14.2118055555556  12.7666015625 14.9270833333333  C 11.4643012152778 15.6423611111111  10.0421006944444 16  8.5 16  C 6.95789930555556 16  5.53569878472222 15.6423611111111  4.2333984375 14.9270833333333  C 2.93109809027778 14.2118055555556  1.89995659722222 13.2413194444444  1.13997395833333 12.015625  C 0.379991319444444 10.7899305555556  0 9.45138888888889  0 8  C 0 6.54861111111111  0.379991319444444 5.21006944444444  1.13997395833333 3.984375  C 1.89995659722222 2.75868055555556  2.93109809027778 1.78819444444444  4.2333984375 1.07291666666667  C 5.53569878472222 0.357638888888888  6.95789930555556 0  8.5 0  C 10.0421006944444 0  11.4643012152778 0.357638888888888  12.7666015625 1.07291666666667  C 14.0689019097222 1.78819444444444  15.1000434027778 2.75868055555556  15.8600260416667 3.984375  Z " fill-rule="nonzero" fill="#ffffff" stroke="none" transform="matrix(1 0 0 1 211 422 )" />
  </g>
</svg>