<?xml version="1.0" encoding="utf-8"?>
<svg version="1.1" xmlns:xlink="http://www.w3.org/1999/xlink" width="44px" height="19px" xmlns="http://www.w3.org/2000/svg">
  <defs>
    <mask fill="white" id="clip3148">
      <path d="M 9.5 19  C 4.18000000000001 19  0 14.82  0 9.5  C 0 4.18000000000001  4.18000000000001 0  9.5 0  L 13.6666666666642 0  L 34.5 0  C 39.82 0  44 4.18000000000001  44 9.5  C 44 14.82  39.82 19  34.5 19  L 9.5 19  Z " fill-rule="evenodd" />
    </mask>
  </defs>
  <g transform="matrix(1 0 0 1 -78 -421 )">
    <path d="M 9.5 19  C 4.18000000000001 19  0 14.82  0 9.5  C 0 4.18000000000001  4.18000000000001 0  9.5 0  L 13.6666666666642 0  L 34.5 0  C 39.82 0  44 4.18000000000001  44 9.5  C 44 14.82  39.82 19  34.5 19  L 9.5 19  Z " fill-rule="nonzero" fill="#ffffff" stroke="none" transform="matrix(1 0 0 1 78 421 )" />
    <path d="M 9.5 19  C 4.18000000000001 19  0 14.82  0 9.5  C 0 4.18000000000001  4.18000000000001 0  9.5 0  L 13.6666666666642 0  L 34.5 0  C 39.82 0  44 4.18000000000001  44 9.5  C 44 14.82  39.82 19  34.5 19  L 9.5 19  Z " stroke-width="2" stroke="#ffffff" fill="none" transform="matrix(1 0 0 1 78 421 )" mask="url(#clip3148)" />
  </g>
</svg>