<?xml version="1.0" encoding="utf-8"?>
<svg version="1.1" xmlns:xlink="http://www.w3.org/1999/xlink" width="17px" height="22px" xmlns="http://www.w3.org/2000/svg">
  <g transform="matrix(1 0 0 1 -169 -347 )">
    <path d="M 16.6300223214286 0.6359375  C 16.8766741071429 0.830729166666666  17 1.16875  17 1.65  L 17 20.35  C 17 20.83125  16.8766741071429 21.1692708333333  16.6300223214286 21.3640625  C 16.5478050595238 21.4213541666667  16.46875 21.45  16.3928571428571 21.45  C 16.2220982142857 21.45  16.0797991071429 21.3411458333333  15.9659598214286 21.1234375  L 12.1428571428571 14.196875  L 12.1428571428571 17.05  C 12.1428571428571 18.4135416666667  11.8756510416667 19.5794270833333  11.3412388392857 20.54765625  C 10.8068266369048 21.5158854166667  10.163318452381 22  9.41071428571429 22  L 2.73214285714286 22  C 1.97953869047619 22  1.33603050595238 21.5158854166667  0.801618303571429 20.54765625  C 0.267206101190476 19.5794270833333  0 18.4135416666667  0 17.05  L 0 4.95  C 0 3.58645833333333  0.267206101190476 2.42057291666667  0.801618303571429 1.45234375  C 1.33603050595238 0.48411458333333  1.97953869047619 0  2.73214285714286 0  L 9.41071428571429 0  C 10.163318452381 0  10.8068266369048 0.48411458333333  11.3412388392857 1.45234375  C 11.8756510416667 2.42057291666667  12.1428571428571 3.58645833333333  12.1428571428571 4.95  L 12.1428571428571 7.7859375  L 15.9659598214286 0.876562499999999  C 16.0797991071429 0.658854166666666  16.2220982142857 0.55  16.3928571428571 0.55  C 16.46875 0.55  16.5478050595238 0.57864583333333  16.6300223214286 0.6359375  Z " fill-rule="nonzero" fill="#7f7f7f" stroke="none" transform="matrix(1 0 0 1 169 347 )" />
  </g>
</svg>