<?xml version="1.0" encoding="utf-8"?>
<svg version="1.1" xmlns:xlink="http://www.w3.org/1999/xlink" width="43px" height="39px" xmlns="http://www.w3.org/2000/svg">
  <g transform="matrix(1 0 0 1 -276 -1432 )">
    <path d="M 297.5 1432  C 309.54 1432  319 1440.58  319 1451.5  C 319 1462.42  309.54 1471  297.5 1471  C 285.46 1471  276 1462.42  276 1451.5  C 276 1440.58  285.46 1432  297.5 1432  Z " fill-rule="nonzero" fill="#000000" stroke="none" />
    <path d="M 297.5 1432.5  C 309.26 1432.5  318.5 1440.86  318.5 1451.5  C 318.5 1462.14  309.26 1470.5  297.5 1470.5  C 285.74 1470.5  276.5 1462.14  276.5 1451.5  C 276.5 1440.86  285.74 1432.5  297.5 1432.5  Z " stroke-width="1" stroke="#ffffff" fill="none" />
  </g>
</svg>