<?xml version="1.0" encoding="utf-8"?>
<svg version="1.1" xmlns:xlink="http://www.w3.org/1999/xlink" width="43px" height="46px" xmlns="http://www.w3.org/2000/svg">
  <g transform="matrix(1 0 0 1 -30 -697 )">
    <path d="M 48.4 697  C 48.4 697  44.4 699.139534883721  44.4 699.139534883721  C 44.4 699.139534883721  30 720  30 720  C 30 720  44.4 740.860465116279  44.4 740.860465116279  C 44.4 740.860465116279  48.4 743  48.4 743  C 48.4 743  53 743  53 743  C 64.2 743  73 734.2  73 723  C 73 723  73 717  73 717  C 73 705.8  64.2 697  53 697  C 53 697  48.4 697  48.4 697  Z " fill-rule="nonzero" fill="#f2f2f2" stroke="none" />
  </g>
</svg>