<?xml version="1.0" encoding="utf-8"?>
<svg version="1.1" xmlns:xlink="http://www.w3.org/1999/xlink" width="30px" height="15px" xmlns="http://www.w3.org/2000/svg">
  <g transform="matrix(1 0 0 1 -283 -1438 )">
    <path d="M 29.2875481386393 7.01086956521739  C 29.7625160462131 7.2758152173913  30 7.58491847826087  30 7.93817934782609  C 30 8.28464673913044  29.7625160462131 8.59035326086956  29.2875481386393 8.85529891304348  L 27.8433889602054 9.6195652173913  C 27.3555840821566 9.87771739130435  26.7715019255456 10.0067934782609  26.0911424903723 10.0067934782609  C 25.397946084724 10.0067934782609  24.8202824133504 9.87771739130435  24.3581514762516 9.6195652173913  L 18.6970474967908 6.63383152173913  L 18.6970474967908 13.8077445652174  C 18.6970474967908 14.1610054347826  18.4563543003851 14.4480298913043  17.9749679075738 14.6688179347826  C 17.4935815147625 14.8896059782609  16.9127086007702 15  16.2323491655969 15  L 13.7676508344031 15  C 13.0872913992298 15  12.5064184852375 14.8896059782609  12.0250320924262 14.6688179347826  C 11.5436456996149 14.4480298913043  11.3029525032092 14.1610054347826  11.3029525032092 13.8077445652174  L 11.3029525032092 6.63383152173913  L 5.6418485237484 9.6195652173913  C 5.17971758664955 9.87771739130435  4.602053915276 10.0067934782609  3.90885750962773 10.0067934782609  C 3.21566110397946 10.0067934782609  2.6379974326059 9.87771739130435  2.17586649550706 9.6195652173913  L 0.731707317073171 8.85529891304348  C 0.24390243902439 8.59714673913043  0 8.2914402173913  0 7.93817934782609  C 0 7.578125  0.24390243902439 7.26902173913043  0.731707317073171 7.01086956521739  L 13.2670089858793 0.377038043478261  C 13.7163029525032 0.125679347826086  14.2939666238768 0  15 0  C 15.6931964056483 0  16.2772785622593 0.125679347826086  16.7522464698331 0.377038043478261  L 29.2875481386393 7.01086956521739  Z " fill-rule="nonzero" fill="#ffffff" stroke="none" transform="matrix(1 0 0 1 283 1438 )" />
  </g>
</svg>