<?xml version="1.0" encoding="utf-8"?>
<svg version="1.1" xmlns:xlink="http://www.w3.org/1999/xlink" width="55px" height="53px" xmlns="http://www.w3.org/2000/svg">
  <g transform="matrix(1 0 0 1 -160 -209 )">
    <path d="M 187.5 209  C 202.9 209  215 220.66  215 235.5  C 215 250.34  202.9 262  187.5 262  C 172.1 262  160 250.34  160 235.5  C 160 220.66  172.1 209  187.5 209  Z " fill-rule="nonzero" fill="#ffffff" stroke="none" />
    <path d="M 187.5 209.5  C 202.62 209.5  214.5 220.94  214.5 235.5  C 214.5 250.06  202.62 261.5  187.5 261.5  C 172.38 261.5  160.5 250.06  160.5 235.5  C 160.5 220.94  172.38 209.5  187.5 209.5  Z " stroke-width="1" stroke="#797979" fill="none" />
  </g>
</svg>