<?xml version="1.0" encoding="utf-8"?>
<svg version="1.1" xmlns:xlink="http://www.w3.org/1999/xlink" width="325px" height="186px" xmlns="http://www.w3.org/2000/svg">
  <defs>
    <mask fill="white" id="clip103">
      <path d="M 0.496941896024465 5.80430043529129  L 278.108563995997 6.14500641728733  L 288.483496077504 0  L 298.902082996129 7  L 323.518961254026 7  L 324.512875159742 186  L 0.496941896024465 186  L 0.496941896024465 5.80430043529129  Z " fill-rule="evenodd" />
    </mask>
  </defs>
  <g transform="matrix(1 0 0 1 -26 -818 )">
    <path d="M 0.496941896024465 5.80430043529129  L 278.108563995997 6.14500641728733  L 288.483496077504 0  L 298.902082996129 7  L 323.518961254026 7  L 324.512875159742 186  L 0.496941896024465 186  L 0.496941896024465 5.80430043529129  Z " fill-rule="nonzero" fill="#ffffff" stroke="none" fill-opacity="0" transform="matrix(1 0 0 1 26 818 )" />
    <path d="M 0.496941896024465 5.80430043529129  L 278.108563995997 6.14500641728733  L 288.483496077504 0  L 298.902082996129 7  L 323.518961254026 7  L 324.512875159742 186  L 0.496941896024465 186  L 0.496941896024465 5.80430043529129  Z " stroke-width="2" stroke="#c98442" fill="none" transform="matrix(1 0 0 1 26 818 )" mask="url(#clip103)" />
  </g>
</svg>