<?xml version="1.0" encoding="utf-8"?>
<svg version="1.1" xmlns:xlink="http://www.w3.org/1999/xlink" width="314px" height="86px" xmlns="http://www.w3.org/2000/svg">
  <defs>
    <mask fill="white" id="clip210">
      <path d="M 310.645920525557 85  L 217.337444182401 85.0009925894637  C 216.318607630453 82.1928125550728  212.602429379983 80.1111111111111  208.174050632911 80.1111111111111  C 203.746067935837 80.1111111111111  200.03015835042 82.1924402197189  199.010279963859 85  L 2.85724403140526 85  C 1.25718737381833 85  0 83.7328  0 82.1199999999999  L 0 3.88000000000011  C 0 2.2672  1.25718737381833 1  2.85724403140526 1  L 199.197454758853 0.999703433148625  C 200.429964779901 3.57994736193973  203.983062895198 5.44444444444434  208.174050632911 5.44444444444434  C 212.36556276707 5.44444444444434  215.91902563722 3.5794807431505  217.153725615516 1  L 310.645920525557 1  C 312.245977183144 1  313.503164556962 2.2672  313.503164556962 3.88000000000011  L 313.503164556962 82.1199999999999  C 313.503164556962 83.7328  312.245977183144 85  310.645920525557 85  Z " fill-rule="evenodd" />
    </mask>
  </defs>
  <g transform="matrix(1 0 0 1 -30 -846 )">
    <path d="M 310.645920525557 85  L 217.337444182401 85.0009925894637  C 216.318607630453 82.1928125550728  212.602429379983 80.1111111111111  208.174050632911 80.1111111111111  C 203.746067935837 80.1111111111111  200.03015835042 82.1924402197189  199.010279963859 85  L 2.85724403140526 85  C 1.25718737381833 85  0 83.7328  0 82.1199999999999  L 0 3.88000000000011  C 0 2.2672  1.25718737381833 1  2.85724403140526 1  L 199.197454758853 0.999703433148625  C 200.429964779901 3.57994736193973  203.983062895198 5.44444444444434  208.174050632911 5.44444444444434  C 212.36556276707 5.44444444444434  215.91902563722 3.5794807431505  217.153725615516 1  L 310.645920525557 1  C 312.245977183144 1  313.503164556962 2.2672  313.503164556962 3.88000000000011  L 313.503164556962 82.1199999999999  C 313.503164556962 83.7328  312.245977183144 85  310.645920525557 85  Z " fill-rule="nonzero" fill="#ffffff" stroke="none" transform="matrix(1 0 0 1 30 846 )" />
    <path d="M 310.645920525557 85  L 217.337444182401 85.0009925894637  C 216.318607630453 82.1928125550728  212.602429379983 80.1111111111111  208.174050632911 80.1111111111111  C 203.746067935837 80.1111111111111  200.03015835042 82.1924402197189  199.010279963859 85  L 2.85724403140526 85  C 1.25718737381833 85  0 83.7328  0 82.1199999999999  L 0 3.88000000000011  C 0 2.2672  1.25718737381833 1  2.85724403140526 1  L 199.197454758853 0.999703433148625  C 200.429964779901 3.57994736193973  203.983062895198 5.44444444444434  208.174050632911 5.44444444444434  C 212.36556276707 5.44444444444434  215.91902563722 3.5794807431505  217.153725615516 1  L 310.645920525557 1  C 312.245977183144 1  313.503164556962 2.2672  313.503164556962 3.88000000000011  L 313.503164556962 82.1199999999999  C 313.503164556962 83.7328  312.245977183144 85  310.645920525557 85  Z " stroke-width="2" stroke="#d09352" fill="none" transform="matrix(1 0 0 1 30 846 )" mask="url(#clip210)" />
  </g>
</svg>