<?xml version="1.0" encoding="utf-8"?>
<svg version="1.1" xmlns:xlink="http://www.w3.org/1999/xlink" width="19px" height="19px" xmlns="http://www.w3.org/2000/svg">
  <defs>
    <mask fill="white" id="clip214">
      <path d="M 0 9.5  C 0 14.7467051231  4.2532948769 19  9.5 19  C 14.7467051231 19  19 14.7467051231  19 9.5  C 19 4.2532948769  14.7467051231 0  9.5 0  C 4.2532948769 0  0 4.2532948769  0 9.5  Z " fill-rule="evenodd" />
    </mask>
  </defs>
  <g transform="matrix(1 0 0 1 -344 -1195 )">
    <path d="M 0 9.5  C 0 14.7467051231  4.2532948769 19  9.5 19  C 14.7467051231 19  19 14.7467051231  19 9.5  C 19 4.2532948769  14.7467051231 0  9.5 0  C 4.2532948769 0  0 4.2532948769  0 9.5  Z " fill-rule="nonzero" fill="#ffffff" stroke="none" fill-opacity="0" transform="matrix(1 0 0 1 344 1195 )" />
    <path d="M 0 9.5  C 0 14.7467051231  4.2532948769 19  9.5 19  C 14.7467051231 19  19 14.7467051231  19 9.5  C 19 4.2532948769  14.7467051231 0  9.5 0  C 4.2532948769 0  0 4.2532948769  0 9.5  Z " stroke-width="2" stroke="#484848" fill="none" transform="matrix(1 0 0 1 344 1195 )" mask="url(#clip214)" />
  </g>
</svg>