<?xml version="1.0" encoding="utf-8"?>
<svg version="1.1" xmlns:xlink="http://www.w3.org/1999/xlink" width="40px" height="40px" xmlns="http://www.w3.org/2000/svg">
  <g transform="matrix(1 0 0 1 -21 -2378 )">
    <path d="M 41 2378  C 52.2 2378  61 2386.8  61 2398  C 61 2409.2  52.2 2418  41 2418  C 29.8 2418  21 2409.2  21 2398  C 21 2386.8  29.8 2378  41 2378  Z " fill-rule="nonzero" fill="#ffffff" stroke="none" />
    <path d="M 41 2378.5  C 51.92 2378.5  60.5 2387.08  60.5 2398  C 60.5 2408.92  51.92 2417.5  41 2417.5  C 30.08 2417.5  21.5 2408.92  21.5 2398  C 21.5 2387.08  30.08 2378.5  41 2378.5  Z " stroke-width="1" stroke="#e6e6e6" fill="none" />
  </g>
</svg>