<?xml version="1.0" encoding="utf-8"?>
<svg version="1.1" xmlns:xlink="http://www.w3.org/1999/xlink" width="16px" height="16px" xmlns="http://www.w3.org/2000/svg">
  <g transform="matrix(1 0 0 1 8 -74 )">
    <path d="M 0 74  C 4.48 74  8 77.52  8 82  C 8 86.48  4.48 90  0 90  C -4.48 90  -8 86.48  -8 82  C -8 77.52  -4.48 74  0 74  Z " fill-rule="nonzero" fill="#ffffff" stroke="none" />
    <path d="M 0 74.5  C 4.2 74.5  7.5 77.8  7.5 82  C 7.5 86.2  4.2 89.5  0 89.5  C -4.2 89.5  -7.5 86.2  -7.5 82  C -7.5 77.8  -4.2 74.5  0 74.5  Z " stroke-width="1" stroke="#eaeaea" fill="none" />
  </g>
</svg>