<?xml version="1.0" encoding="utf-8"?>
<svg version="1.1" xmlns:xlink="http://www.w3.org/1999/xlink" width="39px" height="39px" xmlns="http://www.w3.org/2000/svg">
  <g transform="matrix(1 0 0 1 -28 -8 )">
    <path d="M 47.5 8  C 58.42 8  67 16.58  67 27.5  C 67 38.42  58.42 47  47.5 47  C 36.58 47  28 38.42  28 27.5  C 28 16.58  36.58 8  47.5 8  Z " fill-rule="nonzero" fill="#f7f7f7" stroke="none" />
    <path d="M 47.5 8.5  C 58.14 8.5  66.5 16.86  66.5 27.5  C 66.5 38.14  58.14 46.5  47.5 46.5  C 36.86 46.5  28.5 38.14  28.5 27.5  C 28.5 16.86  36.86 8.5  47.5 8.5  Z " stroke-width="1" stroke="#e4e4e4" fill="none" />
  </g>
</svg>