<?xml version="1.0" encoding="utf-8"?>
<svg version="1.1" xmlns:xlink="http://www.w3.org/1999/xlink" width="8px" height="6px" xmlns="http://www.w3.org/2000/svg">
  <g transform="matrix(1 0 0 1 -29 -1414 )">
    <path d="M 7.61111111111111 6  L 4.16666666666668 6  L 2.1708941890306 6  L 0.27777777777779 6  C 0.202546296296332 6  0.137442129629686 5.9569746376809  0.0824652777777743 5.87092391304398  C 0.0274884259258785 5.78487318840577  0 5.68297101449251  0 5.56521739130485  C 0 5.44746376811589  0.0274884259258785 5.34556159420264  0.0824652777777743 5.25951086956572  L 2.02690972222223 2.2160326086958  C 2.08188657407412 2.12998188405823  2.1469907407408 2.08695652173913  2.22222222222219 2.08695652173913  C 2.29745370370365 2.08695652173913  2.36255787037031 2.12998188405823  2.41753472222223 2.2160326086958  L 2.95107272722986 3.05113722951073  L 4.61545138888889 0.197916666666603  C 4.69241898148163 0.0659722222219706  4.78356481481497 0  4.88888888888889 0  C 4.99421296296281 0  5.08535879629615 0.0659722222219706  5.16232638888889 0.197916666666603  L 7.8845486111111 4.8645833333334  C 7.96151620370387 4.99652777777737  8 5.1527777777776  8 5.33333333333341  C 8 5.51388888888858  7.96151620370387 5.67013888888879  7.8845486111111 5.8020833333334  C 7.80758101851837 5.93402777777737  7.71643518518502 6  7.61111111111111 6  Z " fill-rule="nonzero" fill="#cccccc" stroke="none" transform="matrix(1 0 0 1 29 1414 )" />
  </g>
</svg>