<?xml version="1.0" encoding="utf-8"?>
<svg version="1.1" xmlns:xlink="http://www.w3.org/1999/xlink" width="40px" height="40px" xmlns="http://www.w3.org/2000/svg">
  <g transform="matrix(1 0 0 1 -20 -2366 )">
    <path d="M 40 2366  C 51.2 2366  60 2374.8  60 2386  C 60 2397.2  51.2 2406  40 2406  C 28.8 2406  20 2397.2  20 2386  C 20 2374.8  28.8 2366  40 2366  Z " fill-rule="nonzero" fill="#ffffff" stroke="none" />
    <path d="M 40 2366.5  C 50.92 2366.5  59.5 2375.08  59.5 2386  C 59.5 2396.92  50.92 2405.5  40 2405.5  C 29.08 2405.5  20.5 2396.92  20.5 2386  C 20.5 2375.08  29.08 2366.5  40 2366.5  Z " stroke-width="1" stroke="#e6e6e6" fill="none" />
  </g>
</svg>