<?xml version="1.0" encoding="utf-8"?>
<svg version="1.1" xmlns:xlink="http://www.w3.org/1999/xlink" width="49px" height="33px" xmlns="http://www.w3.org/2000/svg">
  <g transform="matrix(1 0 0 1 -258 -497 )">
    <path d="M 46.6180555555556 33  L 25.5208333333334 33  L 13.2967269078124 33  L 1.70138888888896 33  C 1.24059606481503 33  0.841833043981824 32.763360507245  0.505099826388868 32.2900815217419  C 0.168366608796006 31.8168025362317  0 31.2563405797088  0 30.6086956521767  C 0 29.9610507246374  0.168366608796006 29.4005887681145  0.505099826388868 28.9273097826115  L 12.4148220486111 12.1881793478269  C 12.751555266204 11.7149003623203  13.1503182870374 11.4782608695652  13.6111111111109 11.4782608695652  C 14.0719039351849 11.4782608695652  14.4706669560182 11.7149003623203  14.8074001736111 12.1881793478269  L 18.0753204542829 16.781254762309  L 28.2696397569444 1.08854166666631  C 28.741066261575 0.362847222220838  29.2993344907417 0  29.9444444444444 0  C 30.5895543981472 0  31.1478226273139 0.362847222220838  31.6192491319444 1.08854166666631  L 48.2928602430555 26.7552083333337  C 48.7642867476862 27.4809027777756  49 28.3402777777768  49 29.3333333333338  C 49 30.3263888888872  48.7642867476862 31.1857638888884  48.2928602430555 31.9114583333337  C 47.821433738425 32.6371527777756  47.2631655092582 33  46.6180555555556 33  Z " fill-rule="nonzero" fill="#ffffff" stroke="none" transform="matrix(1 0 0 1 258 497 )" />
  </g>
</svg>