<?xml version="1.0" encoding="utf-8"?>
<svg version="1.1" xmlns:xlink="http://www.w3.org/1999/xlink" width="59px" height="40px" xmlns="http://www.w3.org/2000/svg">
  <g transform="matrix(1 0 0 1 -52 -960 )">
    <path d="M 56.1319444444445 40  L 30.7291666666667 40  L 16.0103446441007 40  L 2.0486111111112 40  C 1.49377893518545 40  1.01363570601893 39.713164251206  0.608181423611086 39.1394927536265  C 0.202727141203354 38.5658212560385  0 37.88647342995  0 37.1014492753657  C 0 36.3164251207726  0.202727141203354 35.6370772946843  0.608181423611086 35.0634057971048  L 14.9484592013889 14.7735507246387  C 15.3539134837966 14.1998792270549  15.8340567129634 13.9130434782609  16.3888888888887 13.9130434782609  C 16.9437210648144 13.9130434782609  17.4238642939811 14.1998792270549  17.8293185763889 14.7735507246387  L 21.7641613633202 20.3409148634049  L 34.0389539930555 1.31944444444402  C 34.606589988427 0.439814814813137  35.2787905092604 0  36.0555555555555 0  C 36.8323206018507 0  37.5045211226841 0.439814814813137  38.0721571180555 1.31944444444402  L 58.1485460069443 32.430555555556  C 58.716182002316 33.3101851851825  59 34.3518518518507  59 35.5555555555561  C 59 36.7592592592572  58.716182002316 37.8009259259253  58.1485460069443 38.680555555556  C 57.580910011573 39.5601851851825  56.9087094907395 40  56.1319444444445 40  Z " fill-rule="nonzero" fill="#cccccc" stroke="none" transform="matrix(1 0 0 1 52 960 )" />
  </g>
</svg>