<?xml version="1.0" encoding="utf-8"?>
<svg version="1.1" xmlns:xlink="http://www.w3.org/1999/xlink" width="315px" height="87px" xmlns="http://www.w3.org/2000/svg">
  <g transform="matrix(1 0 0 1 -30 -168 )">
    <path d="M 187.5 170  C 274.58 170  343 188.26  343 211.5  C 343 234.74  274.58 253  187.5 253  C 100.42 253  32 234.74  32 211.5  C 32 188.26  100.42 170  187.5 170  Z " fill-rule="nonzero" fill="#282828" stroke="none" />
    <path d="M 187.5 169.5  C 274.86 169.5  343.5 187.98  343.5 211.5  C 343.5 235.02  274.86 253.5  187.5 253.5  C 100.14 253.5  31.5 235.02  31.5 211.5  C 31.5 187.98  100.14 169.5  187.5 169.5  Z " stroke-width="3" stroke="#cf9154" fill="none" />
  </g>
</svg>