<?xml version="1.0" encoding="utf-8"?>
<svg version="1.1" xmlns:xlink="http://www.w3.org/1999/xlink" width="315px" height="79px" xmlns="http://www.w3.org/2000/svg">
  <g transform="matrix(1 0 0 1 -30 -177 )">
    <path d="M 187.5 179  C 274.58 179  343 195.5  343 216.5  C 343 237.5  274.58 254  187.5 254  C 100.42 254  32 237.5  32 216.5  C 32 195.5  100.42 179  187.5 179  Z " fill-rule="nonzero" fill="#282828" stroke="none" />
    <path d="M 187.5 178.5  C 274.86 178.5  343.5 195.22  343.5 216.5  C 343.5 237.78  274.86 254.5  187.5 254.5  C 100.14 254.5  31.5 237.78  31.5 216.5  C 31.5 195.22  100.14 178.5  187.5 178.5  Z " stroke-width="3" stroke="#cf9154" fill="none" />
  </g>
</svg>