<?xml version="1.0" encoding="utf-8"?>
<svg version="1.1" xmlns:xlink="http://www.w3.org/1999/xlink" width="281px" height="43px" xmlns="http://www.w3.org/2000/svg">
  <g transform="matrix(1 0 0 1 -47 -190 )">
    <path d="M 187.5 192  C 265.06 192  326 200.58  326 211.5  C 326 222.42  265.06 231  187.5 231  C 109.94 231  49 222.42  49 211.5  C 49 200.58  109.94 192  187.5 192  Z " fill-rule="nonzero" fill="#282828" stroke="none" />
    <path d="M 187.5 191.5  C 265.34 191.5  326.5 200.3  326.5 211.5  C 326.5 222.7  265.34 231.5  187.5 231.5  C 109.66 231.5  48.5 222.7  48.5 211.5  C 48.5 200.3  109.66 191.5  187.5 191.5  Z " stroke-width="3" stroke="#cf9154" fill="none" />
  </g>
</svg>