<?xml version="1.0" encoding="utf-8"?>
<svg version="1.1" xmlns:xlink="http://www.w3.org/1999/xlink" width="281px" height="39px" xmlns="http://www.w3.org/2000/svg">
  <g transform="matrix(1 0 0 1 -47 -197 )">
    <path d="M 187.5 199  C 265.06 199  326 206.7  326 216.5  C 326 226.3  265.06 234  187.5 234  C 109.94 234  49 226.3  49 216.5  C 49 206.7  109.94 199  187.5 199  Z " fill-rule="nonzero" fill="#282828" stroke="none" />
    <path d="M 187.5 198.5  C 265.34 198.5  326.5 206.42  326.5 216.5  C 326.5 226.58  265.34 234.5  187.5 234.5  C 109.66 234.5  48.5 226.58  48.5 216.5  C 48.5 206.42  109.66 198.5  187.5 198.5  Z " stroke-width="3" stroke="#cf9154" fill="none" />
  </g>
</svg>