<?xml version="1.0" encoding="utf-8"?>
<svg version="1.1" xmlns:xlink="http://www.w3.org/1999/xlink" width="7px" height="7px" xmlns="http://www.w3.org/2000/svg">
  <g transform="matrix(1 0 0 1 -94 -62 )">
    <path d="M 97.5 62  C 99.46 62  101 63.54  101 65.5  C 101 67.46  99.46 69  97.5 69  C 95.54 69  94 67.46  94 65.5  C 94 63.54  95.54 62  97.5 62  Z " fill-rule="nonzero" fill="#f2f2f2" stroke="none" />
    <path d="M 97.5 62.5  C 99.18 62.5  100.5 63.82  100.5 65.5  C 100.5 67.18  99.18 68.5  97.5 68.5  C 95.82 68.5  94.5 67.18  94.5 65.5  C 94.5 63.82  95.82 62.5  97.5 62.5  Z " stroke-width="1" stroke="#797979" fill="none" />
  </g>
</svg>