<?xml version="1.0" encoding="utf-8"?>
<svg version="1.1" xmlns:xlink="http://www.w3.org/1999/xlink" width="315px" height="87px" xmlns="http://www.w3.org/2000/svg">
  <g transform="matrix(1 0 0 1 -30 -174 )">
    <path d="M 187.5 176  C 274.58 176  343 194.26  343 217.5  C 343 240.74  274.58 259  187.5 259  C 100.42 259  32 240.74  32 217.5  C 32 194.26  100.42 176  187.5 176  Z " fill-rule="nonzero" fill="#282828" stroke="none" />
    <path d="M 187.5 175.5  C 274.86 175.5  343.5 193.98  343.5 217.5  C 343.5 241.02  274.86 259.5  187.5 259.5  C 100.14 259.5  31.5 241.02  31.5 217.5  C 31.5 193.98  100.14 175.5  187.5 175.5  Z " stroke-width="3" stroke="#cf9154" fill="none" />
  </g>
</svg>