<?xml version="1.0" encoding="utf-8"?>
<svg version="1.1" xmlns:xlink="http://www.w3.org/1999/xlink" width="283px" height="41px" xmlns="http://www.w3.org/2000/svg">
  <defs>
    <filter x="40px" y="29px" width="283px" height="41px" filterUnits="userSpaceOnUse" id="filter571">
      <feOffset dx="1" dy="1" in="SourceAlpha" result="shadowOffsetInner" />
      <feGaussianBlur stdDeviation="0.5" in="shadowOffsetInner" result="shadowGaussian" />
      <feComposite in2="shadowGaussian" operator="atop" in="SourceAlpha" result="shadowComposite" />
      <feColorMatrix type="matrix" values="0 0 0 0 0.992156862745098  0 0 0 0 0.905882352941176  0 0 0 0 0.741176470588235  0 0 0 1 0  " in="shadowComposite" />
    </filter>
    <g id="widget572">
      <path d="M 180.5 31  C 258.06 31  319 38.7  319 48.5  C 319 58.3  258.06 66  180.5 66  C 102.94 66  42 58.3  42 48.5  C 42 38.7  102.94 31  180.5 31  Z " fill-rule="nonzero" fill="#282828" stroke="none" />
      <path d="M 180.5 30.5  C 258.34 30.5  319.5 38.42  319.5 48.5  C 319.5 58.58  258.34 66.5  180.5 66.5  C 102.66 66.5  41.5 58.58  41.5 48.5  C 41.5 38.42  102.66 30.5  180.5 30.5  Z " stroke-width="3" stroke="#cf9154" fill="none" />
    </g>
  </defs>
  <g transform="matrix(1 0 0 1 -40 -29 )">
    <use xlink:href="#widget572" filter="url(#filter571)" />
    <use xlink:href="#widget572" />
  </g>
</svg>