<?xml version="1.0" encoding="utf-8"?>
<svg version="1.1" xmlns:xlink="http://www.w3.org/1999/xlink" width="281px" height="43px" xmlns="http://www.w3.org/2000/svg">
  <g transform="matrix(1 0 0 1 -47 -196 )">
    <path d="M 187.5 198  C 265.06 198  326 206.58  326 217.5  C 326 228.42  265.06 237  187.5 237  C 109.94 237  49 228.42  49 217.5  C 49 206.58  109.94 198  187.5 198  Z " fill-rule="nonzero" fill="#282828" stroke="none" />
    <path d="M 187.5 197.5  C 265.34 197.5  326.5 206.3  326.5 217.5  C 326.5 228.7  265.34 237.5  187.5 237.5  C 109.66 237.5  48.5 228.7  48.5 217.5  C 48.5 206.3  109.66 197.5  187.5 197.5  Z " stroke-width="3" stroke="#cf9154" fill="none" />
  </g>
</svg>