<?xml version="1.0" encoding="utf-8"?>
<svg version="1.1" xmlns:xlink="http://www.w3.org/1999/xlink" width="7px" height="7px" xmlns="http://www.w3.org/2000/svg">
  <g transform="matrix(1 0 0 1 -94 -68 )">
    <path d="M 97.5 68  C 99.46 68  101 69.54  101 71.5  C 101 73.46  99.46 75  97.5 75  C 95.54 75  94 73.46  94 71.5  C 94 69.54  95.54 68  97.5 68  Z " fill-rule="nonzero" fill="#f2f2f2" stroke="none" />
    <path d="M 97.5 68.5  C 99.18 68.5  100.5 69.82  100.5 71.5  C 100.5 73.18  99.18 74.5  97.5 74.5  C 95.82 74.5  94.5 73.18  94.5 71.5  C 94.5 69.82  95.82 68.5  97.5 68.5  Z " stroke-width="1" stroke="#797979" fill="none" />
  </g>
</svg>