<?xml version="1.0" encoding="utf-8"?>
<svg version="1.1" xmlns:xlink="http://www.w3.org/1999/xlink" width="20px" height="13px" xmlns="http://www.w3.org/2000/svg">
  <g transform="matrix(1 0 0 1 -38 -22 )">
    <path d="M 19.0277777777778 13  L 10.4166666666667 13  L 5.42723547257653 13  L 0.694444444444513 13  C 0.506365740740829 13  0.343605324074214 12.906778381642  0.206163194444436 12.7203351449286  C 0.0687210648146578 12.5338919082125  0 12.3131038647338  0 12.0579710144939  C 0 11.8028381642511  0.0687210648146578 11.5820501207724  0.206163194444436 11.3956068840591  L 5.06727430555556 4.80140398550755  C 5.20471643518534 4.61496074879286  5.367476851852 4.52173913043481  5.55555555555549 4.52173913043481  C 5.74363425925909 4.52173913043481  5.90639467592579 4.61496074879286  6.04383680555556 4.80140398550755  L 7.37768181807465 6.6107973306066  L 11.5386284722222 0.428819444444286  C 11.7310474537041 0.142939814814288  11.9589120370374 0  12.2222222222222 0  C 12.4855324074071 0  12.7133969907404 0.142939814814288  12.9058159722222 0.428819444444286  L 19.7113715277778 10.5399305555557  C 19.9037905092597 10.8258101851843  20 11.1643518518515  20 11.5555555555557  C 20 11.9467592592586  19.9037905092597 12.2853009259257  19.7113715277778 12.5711805555557  C 19.5189525462959 12.8570601851843  19.2910879629625 13  19.0277777777778 13  Z " fill-rule="nonzero" fill="#cccccc" stroke="none" transform="matrix(1 0 0 1 38 22 )" />
  </g>
</svg>