<?xml version="1.0" encoding="utf-8"?>
<svg version="1.1" xmlns:xlink="http://www.w3.org/1999/xlink" width="12px" height="12px" viewBox="31 54  12 12" xmlns="http://www.w3.org/2000/svg">
  <path d="M 31.5 59  A 4.5 4.5 0 0 1 36 54.5 L 38 54.5  A 4.5 4.5 0 0 1 42.5 59 L 42.5 61  A 4.5 4.5 0 0 1 38 65.5 L 36 65.5  A 4.5 4.5 0 0 1 31.5 61 L 31.5 59  Z " fill-rule="nonzero" fill="#ffffff" stroke="none" />
  <path d="M 31.5 59  A 4.5 4.5 0 0 1 36 54.5 L 38 54.5  A 4.5 4.5 0 0 1 42.5 59 L 42.5 61  A 4.5 4.5 0 0 1 38 65.5 L 36 65.5  A 4.5 4.5 0 0 1 31.5 61 L 31.5 59  Z " stroke-width="1" stroke="#797979" fill="none" />
  <path d="M 33.5714285714286 60  L 36.1428571428571 62.5714285714286  L 40.4285714285714 56.5714285714286  " stroke-width="2.57142857142857" stroke="#797979" fill="none" />
</svg>