<?xml version="1.0" encoding="utf-8"?>
<svg version="1.1" xmlns:xlink="http://www.w3.org/1999/xlink" width="12px" height="12px" viewBox="514 1707  12 12" xmlns="http://www.w3.org/2000/svg">
  <path d="M 514.5 1712  A 4.5 4.5 0 0 1 519 1707.5 L 521 1707.5  A 4.5 4.5 0 0 1 525.5 1712 L 525.5 1714  A 4.5 4.5 0 0 1 521 1718.5 L 519 1718.5  A 4.5 4.5 0 0 1 514.5 1714 L 514.5 1712  Z " fill-rule="nonzero" fill="#ffffff" stroke="none" />
  <path d="M 514.5 1712  A 4.5 4.5 0 0 1 519 1707.5 L 521 1707.5  A 4.5 4.5 0 0 1 525.5 1712 L 525.5 1714  A 4.5 4.5 0 0 1 521 1718.5 L 519 1718.5  A 4.5 4.5 0 0 1 514.5 1714 L 514.5 1712  Z " stroke-width="1" stroke="#797979" fill="none" />
</svg>