<?xml version="1.0" encoding="utf-8"?>
<svg version="1.1" xmlns:xlink="http://www.w3.org/1999/xlink" width="12px" height="12px" viewBox="30 145  12 12" xmlns="http://www.w3.org/2000/svg">
  <path d="M 30.5 150  A 4.5 4.5 0 0 1 35 145.5 L 37 145.5  A 4.5 4.5 0 0 1 41.5 150 L 41.5 152  A 4.5 4.5 0 0 1 37 156.5 L 35 156.5  A 4.5 4.5 0 0 1 30.5 152 L 30.5 150  Z " fill-rule="nonzero" fill="#ffffff" stroke="none" />
  <path d="M 30.5 150  A 4.5 4.5 0 0 1 35 145.5 L 37 145.5  A 4.5 4.5 0 0 1 41.5 150 L 41.5 152  A 4.5 4.5 0 0 1 37 156.5 L 35 156.5  A 4.5 4.5 0 0 1 30.5 152 L 30.5 150  Z " stroke-width="1" stroke="#797979" fill="none" />
  <path d="M 32.5714285714286 151  L 35.1428571428571 153.571428571429  L 39.4285714285714 147.571428571429  " stroke-width="2.57142857142857" stroke="#797979" fill="none" />
</svg>