<?xml version="1.0" encoding="utf-8"?>
<svg version="1.1" xmlns:xlink="http://www.w3.org/1999/xlink" width="12px" height="12px" viewBox="-33 53  12 12" xmlns="http://www.w3.org/2000/svg">
  <path d="M -32.5 58  A 4.5 4.5 0 0 1 -28 53.5 L -26 53.5  A 4.5 4.5 0 0 1 -21.5 58 L -21.5 60  A 4.5 4.5 0 0 1 -26 64.5 L -28 64.5  A 4.5 4.5 0 0 1 -32.5 60 L -32.5 58  Z " fill-rule="nonzero" fill="#f0f0f0" stroke="none" />
  <path d="M -32.5 58  A 4.5 4.5 0 0 1 -28 53.5 L -26 53.5  A 4.5 4.5 0 0 1 -21.5 58 L -21.5 60  A 4.5 4.5 0 0 1 -26 64.5 L -28 64.5  A 4.5 4.5 0 0 1 -32.5 60 L -32.5 58  Z " stroke-width="1" stroke="#797979" fill="none" />
</svg>