<?xml version="1.0" encoding="utf-8"?>
<svg version="1.1" xmlns:xlink="http://www.w3.org/1999/xlink" width="18px" height="16px" xmlns="http://www.w3.org/2000/svg">
  <g transform="matrix(1 0 0 1 -257 -319 )">
    <path d="M 0 8  C 0 4.49474904484038  2.42424992348151 1.5771950408278  5.89326854319955 0.473543523291141  C 5.92433976756479 0.463658363342006  5.95549480729181 0.453918721624518  5.98673267115839 0.444325479224972  C 6.72773571500016 0.216761205024511  7.51534394650429 0.071575905361783  8.33632653854016 0.0205303154641001  C 8.5552752905262 0.00691734507950059  8.77656937212328 0  9 0  C 9.3631845028454 0  9.72076088566075 0.0182783171350138  10.0716514858614 0.0538770291075821  C 12.1312657223922 0.262829944742577  13.9605340235617 1.06852415150064  15.3415222552862 2.27724041908522  C 15.3944274835018 2.32354596211258  15.446674801457 2.37044299328994  15.4982519559074 2.41792062084437  C 17.0539932221026 3.85000630285873  18 5.8103356631994  18 8  C 18 9.09630081216716  17.7628633777003 10.1351139583223  17.3307935538188 11.0789252867162  C 17.3301790885992 11.0802675217049  17.3295642291288 11.0816095645532  17.328948975529 11.0829514151533  C 16.3665421920365 13.1819332339956  14.43975619493 14.8105105192258  12.0132039217192 15.555693993058  C 12.0128411113417 15.5558054105207  12.0124782897917 15.5559168082349  12.0121154570709 15.5560281861992  C 11.0738289699463 15.844051930735  10.0608383365081 16  9 16  C 3.96000000000004 16  0 12.48  0 8  Z " fill-rule="nonzero" fill="#ff6666" stroke="none" transform="matrix(1 0 0 1 257 319 )" />
  </g>
</svg>